<?xml version="1.0" encoding="utf-8"?>
<!-- Generator: Adobe Illustrator 15.0.2, SVG Export Plug-In . SVG Version: 6.00 Build 0)  -->
<!DOCTYPE svg PUBLIC "-//W3C//DTD SVG 1.1//EN" "http://www.w3.org/Graphics/SVG/1.1/DTD/svg11.dtd">
<svg version="1.1" id="Layer_1" xmlns="http://www.w3.org/2000/svg" xmlns:xlink="http://www.w3.org/1999/xlink" x="0px" y="0px"
	 width="178.7px" height="249.6px" viewBox="0 0 178.7 249.6" enable-background="new 0 0 178.7 249.6" xml:space="preserve">
<g id="path147-6-9-8-7-0-5-6-79-2-4">
	<path d="M164.6,209.2c3.1-0.1,4.6-3.8,2.2-6.6
		c-0.3-0.4-0.4-0.7,0.2-0.3c1.6,1.1,4.6,0.4,4.7-3c0.2-4.1-5.3-5.3-6.4-0.9c-0.1,0.5-0.4,0.4-0.3-0.2c0.1-1.8,0.6-3.4,1.4-5.1
		c-1.2,0-2.5,0-3.7,0c0.7,1.6,1.3,3.3,1.4,5.1c0.1,0.7-0.3,0.7-0.3,0.2c-1-4.4-6.5-3.2-6.4,0.9c0.2,3.3,3.2,4,4.7,3
		c0.6-0.4,0.6-0.2,0.2,0.3C160.1,205.5,161.5,209.2,164.6,209.2L164.6,209.2L164.6,209.2z"/>
</g>
<g id="path147-6-9-8-7-4-5-62-3-3-7">
	<path d="M14.2,40.3c-3.1,0.1-4.6,3.8-2.2,6.6
		c0.3,0.4,0.4,0.7-0.2,0.3c-1.6-1.1-4.6-0.4-4.7,3c-0.2,4.1,5.3,5.3,6.4,0.9c0.1-0.5,0.4-0.5,0.3,0.2c-0.1,1.8-0.6,3.4-1.4,5.1
		c1.2,0,2.5,0,3.7,0c-0.7-1.6-1.3-3.3-1.4-5.1C14.6,50.5,15,50.5,15,51c1,4.4,6.5,3.2,6.4-0.9c-0.2-3.3-3.2-4-4.7-3
		c-0.6,0.4-0.6,0.2-0.2-0.3C18.7,44.1,17.3,40.4,14.2,40.3L14.2,40.3L14.2,40.3z"/>
</g>
<g id="path35-5-6-2">
	<path d="M14.1,11.5v2.8h2.7c0,0,0.1,2.7,0.1,8.3c0,5.5,0.1,8.2-0.2,9.8c-0.9,3.6-6.2,3.6-7.2,1
		c-0.6-1.5-0.4-2.7-0.5-4.2H6.2c0,0,0,0.8,0,1.7c0,4.1,1.4,6,4.5,6.8c3.2,0.9,7-0.5,8.3-3.2c0.8-1.6,0.7-1.7,0.7-11.2
		c0-6.3,0.1-9,0.1-9h2.5v-2.8H14.1L14.1,11.5z"/>
</g>
<g id="path35-6-4-1-2">
	<path d="M164.7,238v-2.8H162c0,0-0.1-2.7-0.1-8.3c0-5.5-0.1-8.2,0.2-9.8c0.9-3.6,6.2-3.6,7.2-1
		c0.6,1.5,0.4,2.7,0.5,4.2h2.9c0,0,0-0.8,0-1.7c0-4.1-1.4-6-4.5-6.8c-3.2-0.9-7,0.5-8.3,3.2c-0.8,1.6-0.7,1.7-0.7,11.2
		c0,6.3-0.1,9-0.1,9h-2.5v2.8L164.7,238L164.7,238z"/>
</g>
<g id="g5275-8-4-5" transform="matrix(-1.0167845,0,0,-1.022439,3595.0799,-394.58247)">
	<g id="layer1-1-8-4-5" label="JC">
		<g id="g3799-8-1-3" transform="matrix(0.15171281,0,0,0.15171281,623.2491,453.89661)">
			<g id="path3306-4-9-5">

					<path fill="#E2CF00" d="
					M18359.7-5692.4c-4.4,6.3-23.5-37.6-35.7-70.9c-6-16.4-14.1-29.8-10.7-34.1c8.7-8.8,31.3-0.9,47.8,11.7
					c17.6,13.5,30,33.3,30,33.3L18359.7-5692.4z M18205.7-5725l-0.7-25.8c15.1-13.6,33.9-30.3,55.9-55.7l-58.7-0.3
					c0.5-317.4-0.5-953.5-0.5-953.5s65.3,66,63.7,66.2c-0.1,0,1.9,384.3,2.1,642.8c0.5,1.2-34.1,1.3-36.3,18.2
					c-1.4,11.2,36.3,9.6,36.9,10.4c-0.1,116.2,0.3,198.2,0.3,198.2l34.7,1.1L18205.7-5725z M18409.5-5844.6
					c-5.1-10-13.1-48.6-19.2-47.7c-28.2,9.3-37.3-32.2-8.1-34.4c11.1-0.8,23.4,13.6,30.3,31.5
					C18415.8-5885.8,18412.4-5840.8,18409.5-5844.6L18409.5-5844.6z M18415.9-5902.4c-8.3-13.6-16.3-63.2-31.5-60.3
					c-13.8,3.1-22.7-9-21.4-19.6c7.1-29.8,57.8-1.5,71.1,5.4C18427.6-5962,18418.3-5924.7,18415.9-5902.4z M18308.8-6042.2
					c11.6-26.2,8.5-47.8-1.4-74.1c30.1-12.9,59.8-28.3,89.5-43.8c0.2,0.1,1.5,103.4-8.4,150.6c-3.4,7.2-15.6,1.4-22.6-2.1
					C18346.9-6020.6,18326.4-6030.7,18308.8-6042.2z M18843.4-6517c-6.1-48.8-1.7-124.8,7-154.9c3.3-10.2,73.2,35.7,78.2,38.9
					c-13.8,25.4,5.1,84.6,3,74C18926.8-6555.6,18845-6512,18843.4-6517L18843.4-6517z M18813.4-6719.6c1.3-3.1,6.5-39.7,8.1-39.8
					c5.3-0.5,13.1,35.8,26.6,47.8c25.5-2.9,28.5,14.3,23.5,22.7c1.2,3.7-8.2,11.6-17.1,10.9
					C18832.6-6686.7,18803-6694.3,18813.4-6719.6z M18520.9-6782c0,0,19.2-107.5,19.3-107.3c47.4-6.8,93-14.7,135.2-9.9
					c-8.3,111.7-21.4,208.3-57.4,225.1l74.6,59.9c0,0,82.8-51.5,78.1-50.8c-2,0.6-3.7,43.8-4.9,113.8
					c2.1,182.7,107.4,367.6,111.5,365.7c2.2,1.5-89.7,8.7-155.8-19.8l-3,241.9c0,0,32.8,16.3,38.8,23.9
					c12.1,42.1-20.5,52.8-40.1,42.3c-9.1,32-23,111-23.5,111c-44.1,7.3-89.8,12.9-135,10.4c7.6-37.2,12.4-65.5,14.8-102.9
					c5.7-55.8,17.1-108.7,46.6-121.2c-5.2,2.1-73.5-57.5-73.5-57.5l-83,51c26.8-174.1-19-343.2-98.1-479.9
					c39.9-4.6,85-2.4,155.4,18.6c0,0-4-242.4-4-241C18438.9-6739.4,18481.4-6799.1,18520.9-6782z M18823.9-6803.7
					c0.3-2.5,1.4-29.8,1.4-29.8c11,12.9,19.9,50.8,22.1,50.2c0,0,14.2-2.2,18.6,2.5c14.4,15.3,0.2,33.3-14.1,29.9
					C18837.6-6754.7,18821.9-6779.1,18823.9-6803.7z M18970.4-5982c0,0-3.1-429.8-3-645.2c54.5,0.9,43.8-29.4-0.7-26.2l-0.1-198.6
					l-29.5-1c0,0,55.5-57.9,90.7-94.9l0.8,18.8l-53.6,57.7l55.5-0.1l0.2,953.1L18970.4-5982z M18877.7-6980.3
					c13.4-2.9,27.5,59,50.8,96.5c-26.5,15.9-68.3-14.3-77.7-38.5C18857-6942.8,18878.1-6980.1,18877.7-6980.3z"/>
			</g>
			<g id="path3304-4-6-6">

					<path fill="#131F67" d="
					M18194.4-7018.6v1357.2h846.7v-1357.2H18194.4z M18475.1-6732.8c1.1,2.2,3,5.3,3,5.3s-2.1,0.5-3.5,1.5
					c-98.1,36.3-203.1,117.1-204.9,119.5v-89.5l-64.9-68.4v-242.5h255.3l74.8,125.1c-4.5,32.8-16.1,96.2-16.1,96.2
					c-6.9-1.7-30-3.8-42.6,14.1C18470.2-6762.8,18467-6751.2,18475.1-6732.8L18475.1-6732.8z M18953.4-6453.6l9.7-12.3l-17.1,0.8
					l11.7-12.7l-18.9-0.4l14.7-12.5l-19.9-0.2l14.8-12.3l-21.8,1l15.6-13.4l-21.5,0.1l16.1-13.5l-21.1-0.3l13.7-12.1l-18.4-0.2
					l20.8-14.6c8.9,3.9,20.8,6.1,32.8,6.3l0.3,98.2L18953.4-6453.6z M18968.4-6624c48.6,0.2,59-25.8,0.3-29.9
					c1.1-65.3-2.7-196-2.7-196l-32-0.8c0,0,85.8-92.6,93.8-100.1c7.3,311.1,7,1033.4,7,1033.4l-65.5-65.5l-0.7-204.2
					c-21.9-22.2-34.5-54.6-47.5-75.6l-35.8-17.4l8.4-28.8l-3.6-8.2l-11.2,40.7l39.2,18.6l4.1,8.4l-6.6,38.4l37.1,12.7l6.4,8.8
					l-2.3,37.5l7.8,2.4v7.4l-7.7-0.6l-2.7,42.1l10.5,3.1v9.5c0-0.2-6.1,0-9.1-0.2c-4.1-2.2-11-11.1-11-11.1l3.7-46.7l-47-9.4
					l-3.5-4.9l8.6-46.7l-49.4-15.1c5.1,12.5,11.8,24.1,17.4,36.4c-6.8,2-13.9,2.4-20.7,3.9c-1.8,63.1,0.3,128.7-1.7,188.1
					c-39.7,2.9-21.1-0.9-38.4-0.6c-6.8,0-12.3,5.5-12.3,12.3c0,4.3,2.2,8.1,5.6,10.3l-6.9,2.4l-12-13.5l25-24l-0.2-6.9l-31.1,31.1
					l13.4,15.5l-8,4.1l-12.3-12.9c0,0-26.4,27-24.8,27.5c0.8,0.2,2.3,1.6,3.3,3c18.8,40.6-6.9,60-37.9,48.8
					c-7.9,37.4-15.4,71.1-21.6,109.8c-23.2,8.8-132.2,13.8-133.4,11.8c0,0-2.8-2.6-2.9-3.9c0.5-1.7-3.1,3.6-3.1,3.6
					c0,2.3-95-2.4-141.9-11.3c0,0-1-4.5-0.6-10.4c0.8-11.9-0.1-11.8,10.7-10c22.1,1.5,39.3-6.1,46.1-25.5c3.8-10.9,2-20.7-3.8-49.9
					c-5.7-28.3-5.7-25.2-5-29.1c0.8-4.5,5.6-9.5,12.6-15.1c5.2-4.3,5.8-12.3,1.6-7.9c-2.9,4.2-8,5.8-12.6,8.1
					c-10.8,5.6-10.4,11.1-4.1,34.3c3,10.9,6.1,22.7,6.2,24c0.3,4.3-1.2,2.5-7.6-1.9c-4.1-3-8.8-5.5-13.1-8
					c-12.9-6.9-7.2,0.7,5.2,8.9c9.7,7.2,11.4,10.3,3,6.9c-8.7-3.5-21.1-2-30.8,1.6c-1.9,1.1-3.3,0.9-3.6-0.8
					c-0.4-2.7,1.2-9.6,1.9-25.4c1.8-39.9,11.2-82.5,37.8-107.1c38-35.2,100.5-11.3,135.2,21.3l3.7-5.7
					c-23.3-19.5-63.6-43.9-102.9-39.2c16.4-13.7,52.7-36.4,52.7-36.4c24.9,18,43.2,36,70.5,55.5l4.7-3.2l-75.1-59.5l-80.8,53.3
					c0,0,3.4-51.1,4.6-69.8l-35.1,31l27,40l-28.7,29.5c0,0,4.8-0.7-0.4,8.4c-8.1,16.4-13,42.7-16.7,69.5c0.7,20-4.2,42.1-5.7,59.8
					c-2.7-16.5-5.8-25.2-11.9-40.2c-5.6-14.4-7.8-14.3-14.1-12.2c-34.3,2.9-18.8-63.3,21.8-20c1.8,1.8,4.7,4.1,4.8,3.7
					c0.8-2.7-10.8-37.5-15.2-45.5c-4.7-8.5-4.8-9.7-11.8-9c-13.2,1.4-17.7-3.3-19-17.2c1.8-26.2,30.1-15.1,48.3-7.1
					c1.6,1.3-8.5-9.3-12.2-13c-5-5-5.7-8.3-5.7-8.3l1.1-13.9l27.8-25.4l-22.9-33.8l0.9-12.1l24.4-29.3l-26.1-28.3l-0.3-10.1
					l21.2-28.2l-28.4-22.8l-1.4-9.1c0,0,18.2-33.7,17.7-34.9c-0.4-1-30.7-22-30.7-22l-3.1-14.2l13.2-36l-31.5-18l-5.8-16.2l8.9-33.3
					l-32.7-15.1l-9.3-18.8l6.1-35l-36.6-10.8l-9.7-15.4l1.3-30.8l-9-0.9l0.1-7.6l10,0.1c0,0-0.8-1.1,0.3-16.3
					c1.9-25.9,2.1-24.9-4.1-26c-13-2.3-10-10.3,3.3-8.8c2,0.2,3.8,0.4,5.2,0.7c3.5,0.7,6.2,5.2,6.2,5.2l-2.9,47.8l46.9,7.8l4.5,6
					l-7.8,44.3l44,12.7l5.9,10.7l-12.5,46l44.3,19.5l2.9,8.5l-18.8,40.9l40.8,19.8l2.5,9.8l-22.6,42.1l47,34.2c0,0-1.3-3.3-3.1-8.9
					l-37.2-26.6l18.9-36c0,0,1.5,2.6,3.1,2.1c-0.9-6-1.7-12-2.1-17.9l-19.2-50.1l62.2-41.8c-26.6-16-60.3-15.5-91.1-21.5
					c0,0-1.4-4.3-3.7-8.1c-9-14.4-17.1-32.7-27.1-51.6c7.4-3.5,10.6-3,18.5-4.6c11-61.6,21.8-132.5,39.3-186.1
					c7.6,0,13.8-6.2,13.8-13.8c0-4.2-1.9-7.9-4.8-10.4c1.7-0.5,3.5-1,5.4-1.4c2.5,0,12.7,11.2,12.7,11.2l-26.2,25.8l-0.2,8.5
					c10.5-10.9,33.5-34.4,33.5-34.4l-13.9-14.5l6.9-3.2l11.2,12.4l25.2-25.9l6.5,4.4c-8.5,11.1-14,14.8-26.7,27.9
					c6.6,7.8,32.3,32.6,32.3,32.6l-0.1-8.5l-25.3-24.6l24.6-24.6l1.4-1.6c0,0,19.5,8.4,20.8,8.4c-8.3-6.8-23.2-12.7-31.3-18.6
					c-36.7-21.7-1.8-66.5,32-55.4c1,3.6,18.7-94.5,16.7-100c1.8-15.2,2.2-13.1-3.1-21.8c-15.8-36.4-61.8-105.2-61.8-105.2l414.2-2.7
					c-4.3,8.4-8.7,15.2-11.9,25.1c0,0,23.3,24.2,31.8,56.1c4.7,17.8,11.6,34.4,23.5,46.3c0.2,0.4-0.4,1-1.2,1.4
					c-32.7,11.5-70.1-16.4-81.5-48.3l-18.8,30.6c8.5,1-125.1-15.2-157.8-11.1c2.9,0.6,6.3,3,4.4,12.2c-3.3,15.9-9.3,73.1-9.3,73.1
					c-6.6,55.7-11.7,125.8-48.4,148.9c0,0,5.6,6,10.5,9.1c0.1-0.1-4.3-4.6-4.5-5.1c0-1.6,0.9-2.6,2-3.5c7.8-6.3,17.3-19.4,16.9-19.7
					c30.3,26.4,77.8,49,106.5,39.6c11.3-2.4,16.3-13.3,22.3-4.4c-7.8,47.9-7.3,100.7-4.2,142.1c4.7,92.3,25.1,145.2,45.3,210.6
					c-10.4,3.7-63.7,39.4-63.7,39.4c-0.3,4.6,64.3,19.4,89.7,16.8c0,0,5.2,5.1,5.2,4c-0.1-0.3-0.3-0.6-0.5-1
					c3.8-2.1,6.3-6.1,6.3-10.7c0-6.8-5.5-12.3-12.2-12.3c-1.3,0-2.5,0.2-3.7,0.6c-3.2-7.8-5.9-14.6-5.9-14.6l35.9,15.6l-11.7,39.3
					l3.9,8.7l14.3-51.2l-45.8-19.6l-3.1-9.1l19-38.8l-41-24.3l-1.7-7.7l22.1-41.7l-39.7-30.5l29-37.5l-35.7-30l0.4-5l29.6-34.1
					l-30.6-31.5l-0.9-12.7l33.3-29.7l-28.8-41.8c12-8.1,18.7-17.3,26.6-26.4l7,3.1l-25.6,19.4l27.3,39.5l28.8-26l-15.6-25.5l9.5,4.3
					l8.7,13.6l-1.4,14l-28.5,25.9l24.5,35.5l0.2,6.5c0,0-15.2,17.5-26.3,30.5l31,34.2l-25.4,32.4l31.9,27.2l-0.9-8.2l-23.6-19.9
					l18.1-21.9c1.3-13.2-1.6-35.9,5.2-45.8c-10.9-10.7-5.2-36.4,0.2-44.7c-10.4-12.3-4.5-39.4,2.2-40.5c-7.9-10-4.8-30.2,1.9-36.7
					c2.1-1.1-28.4-12.1-47.6-25.3c16-29.8,12.3-57.8,17.3-67.9c6.9,20,15.8,41.2,23.4,56.6c0.8,1.6,2.5,1.2,5.1,1.3
					c31.8,2.8,28.8,29.1,4.9,35.8c0,0,48.5,36.1,73.1,40.1c0.3,0.6,0.1,1.5-0.8,3.2c-3.5,7.2-5.5,19.7-6,30.7
					c-1.8,16.3,6.1,41.4,6.1,41.4l-10.1,6.2c-2,8.6-13.3,8.8-14.4,14.9c2.4,26.4,53.9,127.5,64.8,138.9
					C18972.3-6473.7,18964.4-6552,18968.4-6624z M18956.6-6440l8.4-6.9l-0.2,10.9L18956.6-6440z M18964.7-6423.3l-4.2-3.1l4.2-4.7
					V-6423.3z M18446.4-6294.6c0.8,5,1.7,9.9,2.7,14.7c-5.9,1.5-10.3,6.9-10.3,13.3c0,7.6,6.2,13.8,13.8,13.8c1.1,0,2.1-0.2,3.1-0.4
					c2.2,7.6,4.3,14.2,5.9,19l2.8,2c-7.6-26.3,7.1-40.4-14.6-62.3C18449.6-6295.5,18448-6295.1,18446.4-6294.6z M18893-7007.7
					l134.8,0.9v49.7l-103.9,110.4l40,0.5l-0.4,189.4c-11,4.6-21.4,11.6-31.6,18.5l-63.2-35l-4.5-2.3c0,0,1.7-0.5,5.5-2.9
					c7.1-4.7,9.9-16.2,6.6-24.8c-5.3-14.1-16.3-11.6-25.4-11.6c-7.6-5.9-14.1-25.5-19.4-38.5c-2.5-5.7-4.8-10-5.4-13.3
					c-0.6-3-0.5-5.7-0.5-5.7s1.2,0.4,3,4.1c10.1,21.2,33.6,31.4,46.1,11.4c6.3-12.3,2-26.3-8.7-30.3c-3.3-1.2-14.3,0.1-14.3,0.1
					c-0.6,0.4-8-10.4-18.4-45.9c-4.3-14.6-5.4-46.4-1.3-51c6.9-8.4,8.7-20.1,14.5-28.6c2.7-5.3,2.5-2,6.7,3.9
					c14.2,20.2,39.1,35.8,61.9,34.8c16.2-0.7,21.2-6.2,17.4-10.9c-8.9-9.1-14.7-21.8-17.6-33c-6.8-26-14-49.2-32.2-69.4
					L18893-7007.7z M18824.6-6884.3c1.7,1.6,0.4,4.1,0,8.6c-0.8,11.4-1,11.5-7.6,8.7c-12.6-5.5-30.3-0.7-41,10.9
					c-13.5,14.6-13.9,29.7-5.5,59.5c9.6,33.5,9.4,37.9-2.2,44.8c-6.9,5.9-14.1,18.3-11.4,18.3c0.4,0,1.3-0.8,2.1-1.6
					c0.8-0.9,7.1-6,12-9.3c13.4-9.2,17.6-13.9,11.5-30.8c-6.1-16.7-11-33.1-8.5-34.1c1.2-0.5,5.8,5,8.7,6.6
					c5.9,3.4,18.2,9.6,19.8,9.6c2.1,0-0.1-1.5-6.2-5.5c-16.1-10.6-22.8-20.2-7.2-14.1c8.3,3.3,17.2,1.4,22.1-0.3
					c5.8-1.9,8.8-3.8,9.5-1.6c0.8,10.3,0,20.9-0.6,31.3c-0.2,0.7-1,7.7-1.7,15.7c-3,30.1-8.1,55.5-21.3,71.9
					c-44.3,54.7-94.7,38.7-151.3-5c21.1-58.5,19.7-104.1,24.9-122.7c4.9-1.5,10.6,1.4,14.2,3.4c7.9,4.5,16.9,7.2,25.5,7.6
					c8,0.4,9.4-0.7,8.7,1.7c-0.6,1.8-13.5,5.6-21.4,7.3c-14.4,3-13.3,6.3-1.2,5.2c12.8-1.2,25.1-6.2,38.1-14.9c9-6,9.4-6,7-13.6
					c-0.6-1.8-1.8-4.5,2.5-6.1c4.5-1.6,3.8-3.5,1.3-5.5c-0.6-0.5-2.2-0.6-2.9-1.1c-0.8-0.6,0.1-3.5,0.1-3.8
					c-16.5-13.9-45.5-14.3-69.4,0c-1.2-0.4-2.4-2.3-1.3-4.9c2.5-5.5,28.2-12.1,46.4-12.4c8.3-0.1,9.9,0.9,22.5,4.7
					c5.2,1.6,8,2,8.5,1.2c1.1-1.8-0.8-7.1-4.8-9.9c-13.4-9.6-32.9-8.8-59.4,1.7c-14.2,5.7-12.8,7.6-8.2-20.5
					c1.3-7.8,2.7-13.7,2.7-13.7S18804.1-6892.8,18824.6-6884.3z M18805.4-6857.9c6.6,0,12.6,1.7,16.1,5.1c5.1,5.7-0.3,7.4-8.4,4.4
					c-10.4-4-22.3-1.7-31.5,4c-5.9,3.7-7.2,1.7-2.2-3.6C18785.5-6854.4,18795.8-6858,18805.4-6857.9z M18710.8-6848.2
					c11.5-0.1,22,2,26.3,6.8c3.9,4.4,0.1,4.9-9.7,1c-13.9-5.4-32.3-3.7-47.6,3.9c-7.8,3.9-10.2,4.7-9.2,0.2
					C18675.2-6843.4,18694-6848,18710.8-6848.2z M18802.6-6844.6c10.9,0,20.2,2.5,18.5,8.2c-0.6,2-1.2,0.8-9-1.6
					c-7.8-2.4-17.8-1.5-27.8,1.4c-9.4,2.7-11.1,3.3-7-0.7C18782.4-6842.1,18792.9-6844.6,18802.6-6844.6z M18824.9-6839.1
					c11.1,17.1,13,42.1,24.8,55.6c21.8-4.1,32.1,16.4,13.8,30.1c-9.3,5.2-20.7,1.3-29-12.4c-8-13-10.2-20.9-10.4-29.2
					C18824.7-6812.3,18823.7-6821.6,18824.9-6839.1z M18697.3-6831.3l4.8,0.6c3.5,11.9,11.4,12.6,16,0.2l3.7,0.6
					C18716.3-6814.7,18702.4-6814.1,18697.3-6831.3z M18689.8-6831c2-0.1,3.7,2,4.6,4.8c1.9,6.3-0.3,5.5-4.6,2.9
					c-4.4-2.7-7.8-4.5-5.3-5.6C18686.4-6830,18687.9-6830.6,18689.8-6831z M18731.3-6827c1.7,2.1,2,3.7-0.1,5.2
					c-2.1,1.1-3.6,1.8-5.7,2.5c-1.9,0.6-3.1,0.1-2.3-2.7c0.5-2.4,2-5.8,3.2-7.2C18728.2-6829.5,18730.2-6828.2,18731.3-6827z
					 M18789.8-6828.4l3.8,0.3c4,10.9,13.4,10.5,17,1.1h3.4C18807.6-6810.2,18794.4-6813.3,18789.8-6828.4z M18782.9-6827
					c3.7,0,7.2,5.3,5.2,8c-2,1.7-11.1-0.2-11.9-3.6C18775.9-6824.6,18779.2-6827,18782.9-6827z M18818.3-6826c1.8,0.4,1.7,1.8,1.7,2
					c0.9,4.4-4.4,6-5.6,4.3C18813.8-6820.6,18816.5-6824.2,18818.3-6826z M18734-6778.4c-9,2.5-13.1,10.2-12.6,18.9
					c0.5,7,4.1,12.7,9.4,13.9c10.7,2.4,18.1-5,29-8c4.7-1.2,3.6-7.3,0.6-10c-3.9-3.4-9.8-1.3-17.8,4.8c-15.7,12-19.4-11.1-5.1-15.1
					C18739.7-6774.6,18738.7-6779.7,18734-6778.4z M18270.8-6247.3l6.1,1.8l-6.1,7.2C18270.8-6238.4,18270.8-6244.6,18270.8-6247.3
					L18270.8-6247.3z M18287.7-6222.7l-12.5,14.1l17-1.3l-11.6,12l17.7,0.7l-13,13.5l17.4-0.4l-12.9,13l16.5,0.5l-10.9,11.9
					l18.1-1.4l-13.2,14.3l19.4-0.3l-14.7,13.3l19.3-0.1l-5.8,6.6l5.1,2.6c5.3-2.4,35.6-11.9,36.6-19c-6.7-1.8-26.4,8.2-27.7,6.6
					c-7.9-34.9-42-112-64.5-134.5l-1.6,218c-3.4,3.2-8.9,1.6-12.4,3c-11.4-0.6-30.5,18.5-20.5,22.3c5.2,1.2,34,6.1,34.1,7.5
					c3.5,63.2-2.2,126.7,0.4,194.2c8.1,1.2,34.4,2.7,34.4,2.7s-96.7,100.9-98.6,98.8c2.3-108.1,1.1-319.5-0.8-320.3
					c0-6.3,2.2-19.7,2.2-19.7l-2.1-672.4c0,0-0.6-3-1.7-4.9c-2-3.3-2.1-4.1-2.3-14.2c-0.8-6.2,0.1-7.9,0.1-7.9l0,0l66.1,69.8
					l0.1,195.5c0,0,62.6,92.4,77,135.1c31.6,63.6,28.2,156.2,47.3,191.6c0.4,0,0.8,0,1.2,0c0.5,5.2,0.5,7.2,1.3,8.1
					c1.4,11.6,3,27.3,3,27.3l-6.9,11l7.7,9.9v26.4l-10.3,10.5l9.4,11.9l-2.6,24.7l-7.3,6.5l4.2,5.6c0,0,0.7,8.9-1,19.1
					c-1.1,6.9-7.9,6-22.1-1.2c-20.1-7.6-40.6-21.2-56.5-31.5c0.9-12.8,16.8-42.1-5.3-74.4c-8.2-6.1-31.9-3.9-34-4.8l0.2-99.4
					 M18271-6233.2l10.7-1.9l-10.8,10.8L18271-6233.2z M18780.7-6729.4c-0.9,0.1-2,0.9-3.4,2.5c-1.5,1.7-3.9,1.2-9.9,0.8
					c-6.4-0.4-8.1-0.2-12.3,1.3c-4.8,1.8-4.9,1.8-8.3,0.3c-5.2-2.2-8.5-2.5-13.4-1.1c-5.9,1.7-9.6,1.2-13.3-0.6
					c-3.7-1.8-4.9-1.5-6.1,1.9c-0.5,1.4-3.2,6.9-4.4,8.7c-3.9,6-3,7,5.3,4.5c5.7-1.7,16.2-2.9,23.9,0.4c5.9,2.5,13,1.7,21.4-2
					c7.4-3.2,14.7-4.2,21.8,1.7c4.1,3.5,3.9,0.8,2.8-6.4C18783.8-6725.3,18782.9-6729.7,18780.7-6729.4z M18500-6704.1
					c-7.6,0-13.8,6.2-13.8,13.8c0,7.6,6.2,13.8,13.8,13.8C18503.6-6679.4,18505.5-6703.5,18500-6704.1z M18766.8-6703.9
					c-8.4,2.9-20,6.7-33,2.9c-10.2-3.1-7.8,4.6,3.3,5.5c7.7,0.7,7.2,0.7,1.2,6.3c-5.1,4.7,1.3,4.4,4.8,1.4
					c4.1-3.5,15.2-2.6,21.5,0.3c2.7,1.3,3.1-4-0.2-5.1c-8.3-2.9-6.3-3.1,2.7-6C18770.4-6699.4,18770.6-6705.2,18766.8-6703.9z
					 M18500-6699.4c4.4,1.6,1.6,17.7,0,18.4c-5.1,0-9.2-4.1-9.2-9.2C18490.8-6695.3,18495-6699.4,18500-6699.4z M18426.3-6698.9
					c3.5-1.2,6,4.7,6,8.6c0,5.1-4.1,9.2-9.2,9.2c-6.2-6-7.3-12.8-0.2-16.6C18424-6698.1,18425.1-6698.5,18426.3-6698.9z
					 M18462.7-6685.3l-29.5,29.9l29,29.3l29-30L18462.7-6685.3z M18812.4-6673.5c4.2,0,7.7,3.4,7.7,7.7c0,4.2-3.4,7.6-7.7,7.6
					c-4.2,0-7.7-3.4-7.7-7.6C18804.7-6670.1,18808.1-6673.5,18812.4-6673.5z M18462.4-6663.5c4.2,0,7.6,3.4,7.6,7.7
					c0,4.2-3.4,7.6-7.6,7.6c-4.2,0-7.6-3.4-7.6-7.6S18458.2-6663.5,18462.4-6663.5z M18776.2-6656.2l21.2,28.5l-25.9,23.2l1.3-14.4
					c5.7-1,10-6.1,10-12.1c0-5.2-3.3-9.7-7.9-11.4L18776.2-6656.2z M18424-6654.6l-0.3,7.8l26.6,26.4l-26.4,27.4l0.2,7.6l32.8-35
					L18424-6654.6z M18499.4-6654.6l-32.6,33.4l31.4,34.3l0.4-8.7l-24.7-25.5l25.2-25L18499.4-6654.6z M18969.4-6649.2
					c6.6,0,12.3,2.2,14.1,6.5c1.4,2.4,2.1,4.5,4.1,5.5c3.9,1.8,9.1,0.5,9.4-0.8c0.5,0-6.2-0.6-7.3-1.7c-5.2-4.7-4.3-7.6,3.1-7
					c2.4,0.1,9,0.2,9.1,2.8c1.5,8.9-10.4,15.5-25.6,14.3c-10.8-1.8-10.9,2.4-11.6,8.2c-0.5,1.9-2.1,5-3.5,7.4
					c-3.8,6.9-5.1,5.9-2.4,8.6c2.6,3.4,6,7.6,5.9,11.5l-0.1,36.2c0,0-22.8-0.1-30.7-5.8c-8.3-15.1-13.9-47.7-1.8-65.6
					c4.3-5.4,10.5-7.9,17.6-13.6C18955.2-6647.1,18962.8-6649.2,18969.4-6649.2z M18840.8-6645.1l-0.8,10.5c-5.8,1-10.2,6-10.2,12
					c0,5.4,3.5,9.9,8.3,11.6l-0.7,9.1l-16.9-24.2L18840.8-6645.1z M18774.6-6638.1c2.5,1.4,4.2,4,4.2,7.1c0,3.6-2.3,6.7-5.6,7.8
					L18774.6-6638.1z M18422.5-6634.2c-11.7,6.1-7.7,29.6,0,27.6c7.6,0,13.8-6.2,13.8-13.8
					C18436.3-6628.1,18430.2-6634.2,18422.5-6634.2z M18498.8-6633.9c-7.6,0-13.8,6.2-13.8,13.8c0,7.6,6.2,13.8,13.8,13.8
					C18508.9-6609.4,18503.2-6633.4,18498.8-6633.9z M18839.6-6630.4l-1.2,15.1c-2.7-1.3-4.5-4.1-4.5-7.3
					C18833.9-6626.3,18836.3-6629.4,18839.6-6630.4z M18422.5-6629.6c5.1,0,9.2,4.1,9.2,9.2c0,5.1-4.1,9.2-9.2,9.2
					C18419.5-6610.6,18417.6-6628,18422.5-6629.6z M18498.8-6629.3c6.2,0.5,1,16.2,0,18.4c-5.1,0-9.2-4.1-9.2-9.2
					C18489.6-6625.2,18493.7-6629.3,18498.8-6629.3z M18808.5-6620.5l-30.5,30.4l30.1,33.2l25.1-30.4L18808.5-6620.5z
					 M18461.9-6614.8l-29.2,30.1l27.6,28.5l29.2-30.8L18461.9-6614.8z M18269.7-6598.3l10.9,11.3l-10.9,0.1V-6598.3z
					 M18806.1-6597.2c4.2,0,7.7,3.4,7.7,7.7c0,4.3-3.4,7.6-7.7,7.6c-4.2,0-7.6-3.4-7.6-7.6
					C18798.5-6593.7,18801.9-6597.2,18806.1-6597.2z M18461.8-6593c4.2,0,7.7,3.4,7.7,7.6s-3.4,7.7-7.7,7.7c-4.2,0-7.6-3.4-7.6-7.7
					C18454.1-6589.6,18457.6-6593,18461.8-6593z M18499.6-6584.1l-32.3,33.4l31.2,33.2l0.4-7.9l-25-25.2l25.4-26L18499.6-6584.1z
					 M18423.6-6584l0.3,8.4l25.9,25.7l-27.3,27.4l1.1,7.4l33.5-34.7L18423.6-6584z M18772.3-6574.9l23.4,23.2l-23.3,26v-13.5
					c4.8-1.7,8.2-6.2,8.2-11.6c0-5.4-3.5-9.9-8.3-11.5V-6574.9z M18836.7-6573.7l0.2,9.5c-5.3,1.4-9.1,6.1-9.1,11.8
					c0,5.9,4.2,10.8,9.8,12l0.2,7.5l-18.5-20.4L18836.7-6573.7z M18296.3-6569.4c0,0,7.8,8.3,10.5,11.7c-2.1,2.4-3.3,5.5-3.3,9
					c0,7.6,6.2,13.8,13.8,13.8c2.2,0,4.3-0.5,6.1-1.5c1.4,2.1,7.7,10.7,7.7,10.7l-36.7-5.9L18296.3-6569.4z M18499.4-6563.9
					c-7.6,0-13.8,6.2-13.8,13.8c0,7.6,6.2,13.8,13.8,13.8C18513.3-6539.1,18510.5-6563.2,18499.4-6563.9z M18422.4-6563.3
					c-19.7,2.2-14.6,27.2,0,27.6c7.6,0,13.8-6.2,13.8-13.8C18436.2-6557.2,18430.1-6563.3,18422.4-6563.3z M18837.1-6559.9l0.4,15.3
					c-3.2-1.1-5.6-4.1-5.6-7.8C18831.9-6555.8,18834-6558.7,18837.1-6559.9z M18499.4-6559.2c8.9,3.3,6.2,19,0,18.4
					c-5.1,0-9.2-4.1-9.2-9.2S18494.3-6559.2,18499.4-6559.2z M18422.4-6558.7c5.1,0,9.2,4.1,9.2,9.2s-4.1,9.2-9.2,9.2
					C18409.4-6541.9,18412.7-6558.4,18422.4-6558.7z M18772.3-6557.8c2.5,1.4,4.2,4,4.2,7.1s-1.7,5.7-4.2,7.1V-6557.8z
					 M18309.7-6553.9l10.7,13.8c-1,0.4-2.1,0.6-3.2,0.6c-5.1,0-9.2-4.1-9.2-9.2C18308-6550.6,18308.6-6552.4,18309.7-6553.9z
					 M18807.1-6547.6l-25.3,30.3l31,27.5l22-27.2L18807.1-6547.6z M18462.1-6544l-31,31.5l21.9,22.7l-12.1-1.3l-17.5-17.8l-0.4,5.9
					l9.5,10.9l-10.2-0.3c-3.7,5.7,19.2,5.9,32.2,8.1c16.4,2.8,52.3,15.9,44.4,6.3l-9-2.3l8.5-10.2l-0.1-7.8l-14.8,15.8l-5-1.1
					l20.9-21.6l-1.4-6.6l-25.7,26.3l-7.5-1.7l26.1-26.7L18462.1-6544z M18808.4-6525.9c4.2,0,7.7,3.4,7.7,7.7c0,4.2-3.4,7.7-7.7,7.7
					c-4.2,0-7.7-3.4-7.7-7.7S18804.1-6525.9,18808.4-6525.9z M18461-6521.9c4.2,0,7.6,3.4,7.6,7.6s-3.4,7.6-7.6,7.6
					c-4.2,0-7.7-3.4-7.7-7.6S18456.8-6521.9,18461-6521.9z M18287.5-6519.7c0,0-2,25.2-3.1,37.3l40,10.7l5-40.2L18287.5-6519.7z
					 M18270.1-6517.8l5.6,0.2l-0.9,23.4l-5.4-5.8L18270.1-6517.8z M18344.1-6507.6c0,0,4,6.5,8.6,13.6c-2.5,2.5-4,5.9-4,9.7
					c0,7.6,6.2,13.8,13.8,13.8c1.4,0,2.8-0.2,4-0.6c1.8,3.4,5.2,8.8,5.2,8.8l-34.3-10.1L18344.1-6507.6z M18773.5-6505.1l26.9,21.9
					l-20.9,25.7l-1.4-11c4.7-1.7,8.1-6.2,8.1-11.5c0-6.4-4.9-11.6-11.1-12.2L18773.5-6505.1z M18307.8-6504.7c4.2,0,7.7,3.4,7.7,7.6
					s-3.4,7.7-7.7,7.7c-4.2,0-7.7-3.4-7.7-7.7S18303.5-6504.7,18307.8-6504.7z M18845.9-6502.3c-6.8,0-12.3,5.5-12.3,12.2
					c0,6.8,5.5,12.3,12.3,12.3C18848.6-6475.8,18849.3-6498.8,18845.9-6502.3z M18845.9-6498.2c0.7,3.6,1.6,17.2,0,16.3
					c-4.5,0-8.2-3.7-8.2-8.2C18837.8-6494.5,18841.4-6498.2,18845.9-6498.2z M18355.3-6490c3.1,4.8,6.2,10,8.9,14.7
					c-0.6,0.1-1.1,0.1-1.7,0.1c-5.1,0-9.2-4.1-9.2-9.2C18353.4-6486.5,18354.1-6488.4,18355.3-6490z M18775.7-6487.9
					c3.7,0.8,6.5,4,6.5,8c0,3.2-1.8,6-4.5,7.3L18775.7-6487.9z M18812.2-6480.7l-22.8,30.5l34.5,26.9l19.5-33.4L18812.2-6480.7z
					 M18292.8-6468.3l25.7,7.5l-4.8,26.3c-0.4-1.5-1.8-4.3-3.8-7.6c1.1-2,1.7-4.3,1.7-6.7c0-7.6-6.2-13.8-13.8-13.8
					c-0.4,0-0.7,0-1.1,0C18294.5-6465.9,18292.8-6468.3,18292.8-6468.3z M18331-6461.9l-8.4,42l38.7,15.6l9.4-44.3L18331-6461.9z
					 M18816.6-6461.6c4.2,0,7.6,3.4,7.6,7.7c0,4.2-3.4,7.6-7.6,7.6c-4.2,0-7.7-3.4-7.7-7.6
					C18808.9-6458.2,18812.3-6461.6,18816.6-6461.6z M18300-6457.7c4,1,7,4.6,7,8.9c0,0.6-0.1,1.1-0.2,1.7
					C18304.7-6450.7,18302.3-6454.4,18300-6457.7z M18849.4-6456.6l-20.7,39.1l35.3,24.6l-2.4-8.3l-25.2-18.5l14.7-26.9
					L18849.4-6456.6z M18348.1-6442.4c4.2,0,7.6,3.4,7.6,7.7c0,4.2-3.4,7.6-7.6,7.6c-4.2,0-7.7-3.4-7.7-7.6
					C18340.5-6439,18343.9-6442.4,18348.1-6442.4z M18384.7-6438.5l8.2,14.3c-3.4,2.5-5.6,6.5-5.6,11.1c0,7.6,6.2,13.8,13.8,13.8
					c1.1,0,2.2-0.2,3.3-0.4l6,12.6l-35.9-15.7L18384.7-6438.5z M18857.4-6438.4c-3.2-0.7-6.3,1.3-8.5,3.4c-2.3,2.2-3.7,5.4-3.7,8.8
					c0,6.8,5.5,12.2,12.2,12.2C18866.7-6416.1,18861.7-6437.4,18857.4-6438.4z M18783.1-6435l29.2,20.9l-17,32.9
					c0,0-1.7-6.6-3.9-15.6c4.1-2,7-6.2,7-11.1c0-6.8-5.5-12.3-12.2-12.3c-0.1,0-0.1,0-0.2,0
					C18784.8-6425.5,18783.8-6430.7,18783.1-6435z M18857.4-6434.3c5.1,1.5,3.4,15.8,0,16.3c-4.4,0.7-8.1-3.7-8.1-8.1
					C18849.3-6430.7,18852.9-6434.3,18857.4-6434.3z M18394.9-6419.9l7.5,15.9c-0.4,0.1-0.8,0.1-1.3,0.1c-5.1,0-9.2-4.1-9.2-9.2
					C18391.9-6415.8,18393.1-6418.2,18394.9-6419.9z M18786.9-6416c4.1,0.4,7.4,3.9,7.4,8.1c0,2.9-1.6,5.5-3.9,6.9
					C18789.2-6405.7,18788-6410.9,18786.9-6416z M18825.4-6411.8l-20,39.5l37,22.5l17-38.2L18825.4-6411.8z M18330.6-6404.2
					l22.8,10.3l-6.4,23.5l-2.8-5.7c1.3-2.1,2.1-4.6,2.1-7.4c0-7.1-5.4-13-12.3-13.7L18330.6-6404.2z M18366.6-6393.1l-11.2,39.5
					l35.5,18.5l16.2-39.8L18366.6-6393.1z M18336.7-6391.7c3,1.5,5,4.6,5,8.2c0,0.6-0.1,1.2-0.2,1.8L18336.7-6391.7z M18832-6388.5
					c4.2,0,7.7,3.4,7.7,7.7s-3.4,7.6-7.7,7.6c-4.2,0-7.6-3.4-7.6-7.6S18827.8-6388.5,18832-6388.5z M18865.7-6386.3l-16.9,41.4
					l38.9,21.5l-2.9-7.5l-28.8-16.6l12.3-29.9L18865.7-6386.3z M18380.9-6372.5c4.2,0,7.6,3.4,7.6,7.7c0,4.2-3.4,7.6-7.6,7.6
					c-4.2,0-7.6-3.4-7.6-7.6C18373.2-6369.1,18376.6-6372.5,18380.9-6372.5z M18878-6366.4c-6.8,0-12.3,5.5-12.3,12.3
					s5.5,12.5,12.3,12.3C18890.3-6342.1,18884-6366.5,18878-6366.4z M18418.9-6365c2.3,4.2,4.1,8.6,5.7,13.1
					c-3.7,2.5-6.1,6.7-6.1,11.4c0,7.4,5.8,13.4,13,13.8c0.3,0,1.6,0.2,1.6,0.2l2.2,8.3l-30.5-16
					C18409-6345.6,18412.7-6353.6,18418.9-6365z M18878-6362.3c3.6,1.5,4.5,15.8,0,16.3c-4.5,0-8.2-3.7-8.2-8.2
					C18869.8-6358.6,18873.5-6362.3,18878-6362.3z M18802.7-6357.5l30,17.2l-15.1,32.5l-4.5-14.9c3.2-2.2,5.4-5.9,5.4-10.1
					c0-6.7-5.4-12.2-12.1-12.2L18802.7-6357.5z M18426.2-6347.3l4.8,15.9c-4.9-0.3-7.9-4.2-7.9-9.1
					C18423.1-6343.2,18424.3-6345.6,18426.2-6347.3z M18807.7-6340.8c3.8,0.7,6.7,4,6.7,8c0,2.3-1,4.4-2.5,5.9L18807.7-6340.8z
					 M18359.6-6339.8l23.2,13.6l-10.5,27.1l-3-9.8c2.1-2.4,3.3-5.6,3.3-9c0-6.4-4.4-11.8-10.4-13.3L18359.6-6339.8z M18844.4-6339.2
					l-14.1,37.7l40.7,21.4l10.2-38.6L18844.4-6339.2z M18364.1-6325.4c2.4,1.7,3.9,4.4,3.9,7.5c0,1.1-0.2,2.2-0.6,3.1
					L18364.1-6325.4z M18394.6-6323.5l-16.5,38.3l34.4,22.7l17.9-39.9L18394.6-6323.5z M18857.2-6317.3c4.2,0,7.7,3.4,7.7,7.6
					s-3.4,7.7-7.7,7.7c-4.2,0-7.7-3.4-7.7-7.7C18849.6-6313.9,18853-6317.3,18857.2-6317.3z M18897.5-6300.5
					c-3.4,2.2-5.5,6.5-5.5,10.8c0,6.8,5.5,12.3,12.2,12.3c1.5,0,2.9-0.2,4.1-0.4C18911.9-6282.6,18906.9-6300.7,18897.5-6300.5z
					 M18404.8-6301.6c4.2,0,7.7,3.4,7.7,7.6c0,4.2-3.4,7.7-7.7,7.7c-4.2,0-7.6-3.4-7.6-7.7
					C18397.2-6298.1,18400.6-6301.6,18404.8-6301.6z M18906.1-6281.8c-0.5,0.3-1.1,0.4-1.8,0.4c-4.5-0.2-8.1-3.7-8.1-8.2
					c0-2.6,1.2-4.8,3-6.3C18906.2-6301.3,18907.2-6280.8,18906.1-6281.8z M18450.1-6275.3c1.4,6.3,2.9,12.2,4.5,17.8
					c-0.6,0.1-1.3,0.2-1.9,0.2c-5.1,0-9.2-4.1-9.2-9.2C18443.4-6270.7,18446.2-6274.2,18450.1-6275.3z M18876.9-6270.8l-10.7,42.4
					l40.8,14.9l7.8-40.1L18876.9-6270.8z M18380.1-6270.3l21.6,14.9c0,0-7,16.9-12.9,25.9l-1.7-7.8c3.6-2.5,5.9-6.6,5.9-11.3
					c0-6.8-4.8-12.4-11.2-13.6L18380.1-6270.3z M18837.4-6268.2c4.5,0,8.1,3.6,8.1,8.1c0,2.9-0.9,4.2-3.2,5.6c-1.8-4-4.3-8-6.5-13.4
					C18836.4-6268.1,18836.6-6268.2,18837.4-6268.2z M18382.9-6257c3.2,1.4,5.5,4.7,5.5,8.4c0,2.4-0.9,4.6-2.4,6.2L18382.9-6257z
					 M18415.4-6250.8l-19.6,34.1l28.8,22l22.5-34.1L18415.4-6250.8z M18890.6-6249.7c4.2,0,7.6,3.4,7.6,7.7c0,4.2-3.4,7.6-7.6,7.6
					c-4.2,0-7.7-3.4-7.7-7.6C18882.9-6246.2,18886.4-6249.7,18890.6-6249.7z M18925.8-6239.1l5,7.8c-1.6,2.1-2.5,4.6-2.5,7.4
					c0,6.8,5.5,12.3,12.3,12.3c0.9,0,1.8-0.1,2.7-0.3l4,6.2l-25.5-9.1L18925.8-6239.1z M18421.3-6230c4.2,0,7.6,3.4,7.6,7.6
					s-3.4,7.6-7.6,7.6c-4.2,0-7.7-3.4-7.7-7.6S18417.1-6230,18421.3-6230z M18933.3-6227.5l7.5,11.7c-0.1,0-0.1,0-0.2,0
					C18933.5-6215.9,18930.5-6221.8,18933.3-6227.5z M18458-6227l-27.8,36.9l36.9,27.3l-0.6-8.1l-27-19.3l20.5-27.3L18458-6227z
					 M18864-6214.5l36.7,11.5l-7.8,36.4l-8.6-14.4c2.4-2.2,3.8-5.4,3.8-8.9c0-6.8-5.5-12.3-12.2-12.3c-1.4,0-2.7,0.2-3.9,0.6
					L18864-6214.5z M18464.2-6208.2c-7,0.7-12.4,6.6-12.4,13.7c0,7.6,6.2,13.8,13.8,13.8c3.5,0.4,4-5,0-4.6c-5.1,0-9.2-4.1-9.2-9.2
					c0-4.9,3.8-8.8,8.6-9.1L18464.2-6208.2L18464.2-6208.2z M18913.8-6204.3l-6.4,42.1l41.6,8.9l3.1-38.2L18913.8-6204.3z
					 M18394-6203.3l19.6,14.5l-14.9,20.9l-0.8-6c3.6-2.5,5.9-6.6,5.9-11.3c0-6-3.8-11-9.1-13L18394-6203.3z M18875.8-6198
					c4.5,0,8.1,3.7,8.1,8.2c0,2-0.7,3.8-1.9,5.2l-7.9-13.2C18874.6-6197.9,18875.2-6198,18875.8-6198z M18744.6-6192.3
					c1.1,0.2,2.6,0.5,2.3,1.1c-0.3,0.7-7,8-7,8l0.7,6.8l11.8-13.4l4.8,1.8l-16.6,16.9l-0.8,6.3l22.1-21.7l9.4,2.6l-25.7,25.3
					l29.6,30l29.6-30.2l-21-23l10.4,1c4.4,5,9.2,13,17.3,17.2l-0.8-6c-0.4,0.3-9.8-8.8-8.3-10.3l8.3,0.6c9.7-2.6-11.9-6.2-32.7-9.7
					c-10.8-0.4-42.3-14.3-34.8-3.7C18743.7-6192.6,18744.2-6192.4,18744.6-6192.3z M18395.4-6192.6c2.3,1.7,3.8,4.3,3.8,7.4
					c0,2.2-0.8,4.2-2,5.7L18395.4-6192.6z M18929.1-6185.3c4.2,0,7.7,3.4,7.7,7.6s-3.4,7.6-7.7,7.6c-4.2,0-7.6-3.4-7.6-7.6
					C18921.4-6181.8,18924.8-6185.3,18929.1-6185.3z M18426-6184.5l-23.9,30.4l27.1,26l27.7-32.5L18426-6184.5z M18962.7-6176.7
					l1.9,0.3v20.7l-2.9-0.6L18962.7-6176.7z M18776.1-6167.1c4.2,0,7.7,3.4,7.7,7.6s-3.4,7.6-7.7,7.6c-4.2,0-7.7-3.4-7.7-7.6
					S18771.9-6167.1,18776.1-6167.1z M18429.7-6164.9c4.2,0,7.7,3.4,7.7,7.7c0,4.2-3.4,7.6-7.7,7.6c-4.2,0-7.6-3.4-7.6-7.6
					C18422-6161.5,18425.4-6164.9,18429.7-6164.9z M18466.6-6158.9l-30.9,36.8l33.2,34.2l-0.1-7.6l-25.8-27l24.1-28.1
					L18466.6-6158.9z M18811.8-6155.5l-31.8,32.1l31.7,32.8l0.7-7.4l-24.4-24.7l22.9-23.7L18811.8-6155.5z M18742-6152.2l0.1,8.7
					l19.9,20.3l-20.4,20.8l0.1,8.9l28.9-29.8L18742-6152.2z M18904.7-6148.4l37.4,7.1l-2.3,35.3l-9-10.9c1.5-2.1,2.4-4.6,2.4-7.4
					c0-6.8-5.5-12.2-12.2-12.2c-1.9,0-3.7,0.5-5.4,1.2L18904.7-6148.4z M18400.4-6142.1l18.5,19.4l-17.6,19.9l-0.2-6.8
					c4.9-2.1,8.4-7,8.4-12.7c0-5.9-3.7-10.9-8.9-12.9L18400.4-6142.1z M18468.8-6137.2c-6.1,1.4-10.7,6.9-10.7,13.5
					c0,6.6,4.6,12.1,10.7,13.5v-4.8c-3.6-1.3-6.1-4.7-6.1-8.7c0-4,2.6-7.4,6.1-8.6V-6137.2z M18739.9-6135.9
					c-5.7,3.7-3.1,24.8,0,24.5c6.8,0,12.2-5.5,12.2-12.3C18752.2-6130.4,18746.7-6135.9,18739.9-6135.9z M18812.4-6133.9
					c-6.8,0-12.2,5.5-12.2,12.2c0,6.8,5.5,12.3,12.2,12.3C18817.8-6111.2,18815.6-6132.7,18812.4-6133.9z M18921.1-6132.3
					c4.5,0,8.1,3.6,8.1,8.1c0,1.5-0.4,2.9-1.1,4.1l-9.7-11.8C18919.2-6132.2,18920.1-6132.3,18921.1-6132.3z M18739.9-6131.8
					c4.5,0,8.1,3.7,8.1,8.2c0,4.5-3.6,8.1-8.1,8.1C18740.3-6118.4,18738.4-6132.1,18739.9-6131.8z M18400.6-6129.9
					c2.5,1.6,4.2,4.5,4.2,7.7c0,3.1-1.5,5.8-3.8,7.5L18400.6-6129.9z M18812.4-6129.8c1,3.3,2.3,16.9,0,16.3c-4.5,0-8.1-3.7-8.1-8.2
					C18804.3-6126.1,18807.9-6129.8,18812.4-6129.8z M18775.4-6117.9l-29.8,29.7l30.5,31.1l28.8-30.7L18775.4-6117.9z
					 M18431.3-6116.3l-26.7,28.8l25.7,33.4l30.2-30L18431.3-6116.3z M18286.6-6115.3c8.2,0,15.9,1.4,19,6.9
					c12.6,16.8,9,51.4,0.2,63.3c-19.6,17.8-30.6,22.5-52.7,18.4c2.5-10-8.1-15.4-9.6-13.2c-0.2,0-1,1.8,0,1.9c7.6,0.9,7,10,6.1,10
					c-8.4-0.3-13.9-0.1-14.7-3.9c-0.5-2.3,0.8-5.9,5.7-9.9c5.8-4.6,32.2-4.5,32.2-4.5c0.1,0-0.1-7.5,2.6-11.9
					c2.3-3.8,5.6-8.1,3.3-9.8c-3.8-1.8-6.4-6.1-7-11c-1-10.4,0.6-35.3,0.2-35.6C18276.5-6114.8,18281.6-6115.3,18286.6-6115.3z
					 M18775.3-6096c4.2,0,7.7,3.4,7.7,7.6s-3.4,7.6-7.7,7.6c-4.2,0-7.6-3.4-7.6-7.6S18771.1-6096,18775.3-6096z M18431.5-6093
					c4.2,0,7.6,3.4,7.6,7.6s-3.4,7.7-7.6,7.7c-4.2,0-7.7-3.4-7.7-7.7C18423.8-6089.6,18427.3-6093,18431.5-6093z M18811.8-6085.8
					l-31.2,31.8l33.2,34.4l-1.1-9.3l-23.9-24.6l23.4-24.4L18811.8-6085.8z M18741.4-6085.2l-0.8,8.8l22.1,23.2l-20,20.6l-0.3,10
					l29.5-31.1L18741.4-6085.2z M18400-6073.2l17.6,24.7l-21,18.4l0.6-7c6.1-1.4,10.6-6.9,10.6-13.4c0-5.8-3.6-10.7-8.6-12.8
					L18400-6073.2z M18466-6068.4c-0.4,5.1-0.7,9.3-0.9,13c-5.7,1.7-9.9,7-9.9,13.3c0,5.6,3.3,10.3,8,12.5c-0.4,4-0.9,8.3-1.6,13.8
					l-21.1-30.8L18466-6068.4z M18964.4-6066.9l0.7,86.5l62.8,65v243.5h-257.7l-66.4-111.8c-1.3-2.2-3.2-1.4-4.7-3.5l19.7-105.1
					c31,14.3,57-22.6,40.1-52.5C18854.5-5979.8,18964.4-6066.9,18964.4-6066.9L18964.4-6066.9z M18812-6066.4
					c-6.8,0-12.2,5.5-12.2,12.2c0,6.8,5.5,12.3,12.2,12.3C18820.8-6046,18816.3-6066.3,18812-6066.4z M18740.6-6065.7
					c-3.4,3.9-5.3,24.7,0,24.5c6.8-0.2,12.2-5.5,12.2-12.3C18752.9-6060.2,18747.4-6065.7,18740.6-6065.7z M18812-6062.3
					c6.5,4.7,0.6,15.2,0,16.3c-4.5,0-8.1-3.7-8.1-8.2C18803.8-6058.7,18807.5-6062.3,18812-6062.3z M18740.6-6061.6
					c4.5,0,8.1,3.6,8.1,8.1s-3.6,8.2-8.1,8.2C18741.1-6046.7,18738.6-6061.1,18740.6-6061.6z M18398.9-6058.4
					c2.6,1.6,4.3,4.5,4.3,7.8c0,3.8-2.3,7.1-5.6,8.5L18398.9-6058.4z M18464.7-6050.2c-0.4,5.9-0.7,10.7-1.1,15.6
					c-2.3-1.7-3.8-4.4-3.8-7.4C18459.8-6045.6,18461.8-6048.6,18464.7-6050.2z M18775-6047.4l-29.1,29.1l30.3,31.4l28.8-30.5
					L18775-6047.4z M18429.1-6039.8l-30.5,24.5l19.6,30l6.8,4.1l27.9-23.8L18429.1-6039.8z M18306.9-6037.8l71.7,38.3
					c0,0-18.6,7.8-18.1,20.2c0.7,13.9,9.1,25.2,25.6,21c3.8-0.5,5.5,1,9.2,9.6c7,16.3,13.9,34.3,11.2,33.7c-8.8-7-7.5-7.4-17.8-12
					c-19.3-5.3-31,12.6-24.9,27.2c5.7,13.4,15.1,14.2,24.6,12.8c1.4,0.3,2.6,1.8,3.5,3.6c3,6.1,7.6,17,11.1,33.7
					c5.5,25.8,6.7,58,2.7,66.1c-5.6,11.2-13.2,26.4-13.2,26.4c-14.9-28.5-47.5-53.5-84.1-44.6c-1.2,0.8-1.5,4.8,0.2,7.1
					c11.9,15.6,13.9,29.9,18.1,45.2c10.9,39.3,32.8,61.7,32.5,57.7l-11.5,20.8c0,0-99.5,0.5-140.3,0v-47.8l106.7-109.3l-42.3-1.8
					l1.5-188.4C18288.7-6021.7,18306.9-6037.8,18306.9-6037.8z M18775.5-6025.7c4.2,0,7.6,3.4,7.6,7.6s-3.4,7.7-7.6,7.7
					c-4.2,0-7.7-3.4-7.7-7.7C18767.8-6022.3,18771.3-6025.7,18775.5-6025.7z M18425.9-6018c4.2,0,7.7,3.4,7.7,7.6
					c0,4.2-3.4,7.7-7.7,7.7c-4.2,0-7.6-3.4-7.6-7.7C18418.2-6014.5,18421.6-6018,18425.9-6018z M18741.3-6010.9l0.7,7.5l21,22
					l-19.4,19.8c-2.8,3.9-10.1,3-12.4,3.3c1.6,4.8,5.9,4.2,10.4,6.1l28.2-28.9L18741.3-6010.9z M18741.6-5993.9
					c-5.1,1.6-4.2,23.2,0,24.5c6.8,0,12.3-5.5,12.3-12.3C18753.8-5988.4,18748.3-5993.9,18741.6-5993.9z M18813.5-5990.5
					c0.5,2,1.3,16.1,0,16.3c-4.5,0-8.1-3.6-8.1-8.1C18805.4-5986.9,18809-5990.5,18813.5-5990.5z M18741.6-5989.8
					c4.5,0,8.1,3.7,8.1,8.2s-3.6,8.2-8.1,8.2C18740.5-5975.3,18738.7-5989.5,18741.6-5989.8z M18489.4-5985.8
					c-1.2,0.5-2.9,0.2-4.2,0.2c-4.3,0-9.5-3-10.7-2.5c-1.3,0.6-0.9,3.4-0.8,4.7c0.1,1.2,3.4,1.5,4.7,2.4c2.1,1.4,1.6,1.9-0.9,2.5
					c-2.2,0.5-3.9,0.6-5.3,2.6c-0.9,1.2-0.9,3.3,0.5,3.3c8.5-0.1,19.3-3.6,29.4-0.2c5.8,2.1,9.6,3.4,10.5,2.6
					c1.9-1.7-4.9-8.2-11.4-9.4c-6.6-1.2-8.9-0.7-6.8-2.7c1.1-1,2.6-0.6,2.7-1.3c0.3-2-1.2-4.1-3-4.4
					C18492.3-5988.4,18490.8-5986.4,18489.4-5985.8z M18525.9-5965.4c-0.7,0-1.7,0.5-3,1.6c-3.9,2.6-9.9,6-24.6,2
					c-8-2.6-17-0.3-22.3,1.1c-4.1,1.1-10,2.3-14.6,0.1c-4.6-2.2-9.6-5.5-8.7-2.1c0.2,0.9,0.5,5.9,0.6,8.9c0.2,7.1,0.6,12.9,5.7,7.4
					c2.2-2.4,4.9-2.4,9.9-0.4c3.6,1.4,6,2.3,8.8,0.5c3.9-2.6,7.3-3.2,14.5-0.7c3.4,1.2,7,1.3,11.3-1.4c7.2-4.4,11.7-0.1,14.5,4.4
					c2.2,3.6,3.3-1.5,7.3-12.2C18527.3-5961.2,18528-5965.5,18525.9-5965.4z M18491.5-5925.9c-3.9,2.2-9.4,2.9-13.3,5.5
					c-8.4,5.8-0.5,10.6,5.3,9.4c2.4-0.5,5.1-1.7,8.2-3.8c10.5-7,16.3-5.9,17.3,2.5c1.1,9.1-13,13.2-11.7,17.5
					c1.8,2.8,8.6-1,12.8-6.8C18522.7-5918.6,18508.9-5935.7,18491.5-5925.9z M18545.9-5878.1c-14.3,1.6-35.7,8.5-46.5,16.6
					c-8.5,6.6-10.8,8.2-7.2,10.9c3.3,2.4,5.8,2.5,1.3,7.1c-1.6,1.6-4.3,5.1-4.3,5.7c0.1,3.3,20.2,13.1,31.7,14.6
					c8.9,1.2,23.3-0.2,31.1-3.3c10.2-4.1,10.6-6.9,0.9-4.1c-7.5,2.2-16.6,3.9-25.6,3.2c-8.1-0.6-16-3-21-4.8
					c-12.4-4.4-10.2-9.6,2.3-5.2c14.4,6.2,33,6.1,49.5-1.3c6.7-3,8.5-5.4,9.7-4.3c0.3,0.3,1,1.9,1.1,2.3c0.4,1.1,0.5-2.8,1.1-9
					c0.5-5.1,1-12,1-12s-1,2.9-1,4.3c0.1,9-4.2,9-16.6,2.1c-14.5-8-21.6-7.2-35.3-7.1c-6,0-6.3-1.7,2.2-4.5
					c4.1-1.3,10.3-3.5,19.5-6.5C18547.5-5875.7,18549.5-5878.5,18545.9-5878.1z M18436.6-5859.9c5.3,0,10,4.5,11.3,13.1l-5.2-0.4
					c-1.7-12.9-11.1-10-14.8-2.3l-4.6,0.1C18426.9-5856.4,18431.9-5859.9,18436.6-5859.9z M18449.9-5859.1c2.1-0.2,12,4.6,12.6,6.1
					c0.7,1.6-3.1,3.4-6.4,4.3c-3.8,1.1-3,1.3-4.2-1C18450.3-5852.8,18447.3-5859,18449.9-5859.1z M18424.7-5858.5
					c0.1,1.4-2.9,6.5-5.1,7.1c-2.6,0.8-4.6-2.6-2.5-4.4C18419-5856.7,18424.3-5860.5,18424.7-5858.5L18424.7-5858.5z
					 M18526.4-5857.8c6.6-0.3,12.8,6.4,13.3,14.4l-3.3-0.1c-3.1-16.5-15.8-12.8-18.7-1l-4-1.1
					C18517.1-5854.2,18521.8-5857.6,18526.4-5857.8L18526.4-5857.8z M18513.3-5856.6c1.8-0.1,1.6,1.4-0.6,5.7
					c-1,2.1-1.8,3.2-3.6,3.2c-2.5-0.4-4.1-1.2-5.3-3.1c-0.9-1.9,1.1-3.4,5.4-4.8C18511.2-5856.2,18512.5-5856.6,18513.3-5856.6z
					 M18541.3-5855.4c1.2,0,3.3,0.8,6.6,2.2c8.5,3.8,9.5,5.3,5.1,7.4c-2,1-3.6,1.7-5,2.1c-4,1.3-3.9-0.9-4.9-3.7
					c-0.6-1.6-1.3-3-2.1-4.6C18539.8-5854.3,18539.8-5855.4,18541.3-5855.4z M18416.2-5841.4c1.4,0,4.5,1.9,10.7,4.1
					c8.9,3.2,17.8,2,29.6-1.8c4.9-1.5,6.5-2.5,4.6,0.3c-1.5,2.2-9.8,6.3-16.5,8c-12.6,3.1-29.4-2.8-29.4-9.3
					C18415.3-5841,18415.6-5841.4,18416.2-5841.4z M18458.1-5830.7c1.3,0,0,2-2.6,4.9c-4.2,4.6-10.5,7.8-17,9
					c-13.6,2.4-24.9-1.3-25-8.9c-0.1-5.5,0.9-5.6,7.6-2.1c5.7,2.9,18.5,3.7,28.8,0.3c3.4-0.9,6.9-3,7.5-3.1
					C18457.7-5830.7,18457.9-5830.7,18458.1-5830.7L18458.1-5830.7z M18562.8-5823.4c-10.3,2.7-21.3,5.5-31.3,7.4
					c-10.7,2.1-26.4,0.2-34.6-3.9c-6-3-8.2-1.2-5.5,4.6c1.7,3.8,4.3,7.7,12.1,10.4c11.3,3.9,37.6-2.4,57.2-12.6
					C18572.1-5822.5,18569.9-5825.5,18562.8-5823.4L18562.8-5823.4z M18392.6-5745.7l17.6-29.9c119.4,23.1,248.6,6.3,288.1,0.9
					c0,0,43.2,71.4,58.7,96.5c1.5,2.7,5.5,11.7,5.5,11.7l-407.6-0.3c5.7-11.5,11.1-26.3,11.1-26.3c-12.5-5-22.1-23.6-28.1-39.3
					c-5.3-13.8-14.3-47.4-26.3-63.8C18332.5-5808.3,18385.1-5781.8,18392.6-5745.7z"/>
			</g>
			<g id="path3302-0-9-2">

					<path fill="#D40000" d="
					M18759.1-5670h-403.8l52.6-105.2c98.2,14.9,194.9,13,290.6-2.1L18759.1-5670L18759.1-5670z M18207.1-5755.2l-0.8-50.4l52.3,1.2
					L18207.1-5755.2z M18648.5-6094.2l0.6-153c20.9,14.7,41.7,29.5,63.2,41.1l-0.8,158.3L18648.5-6094.2z M18472.5-6127.6
					c-3.7-86.5-16.3-120.3-24.5-164.2l74.9-48.4l0.2,177.6L18472.5-6127.6z M18267.9-6279.4l0.4-213.1
					c68.8,99,112.3,199.5,124.3,335.2c-18.7,7.5-37,15.9-56.2,22.6C18316.8-6188.1,18293.4-6236,18267.9-6279.4z M18964.7-6191.7
					c-63.6-80.8-101.5-188.5-121.5-321.1l58.2-28.3c19.3,46.8,38.9,96.6,63.4,135.4L18964.7-6191.7z M18716.2-6334.6l0.2-178.2
					l49.7-32.3c3.1,62.6,13,121.2,24.5,164.5L18716.2-6334.6z M18585.4-6428.4c-18.4-13.8-37.5-26.6-58.8-36.2l3.1-158.1l56.1,43.2
					L18585.4-6428.4z M18979.8-6873.8c0,0,35-35.5,48-47.1l0.3,48.3L18979.8-6873.8z M18539.1-6896.8l-65.3-111.4l409-3.4
					l-52.6,112.1C18722-6919.3,18629.3-6910.3,18539.1-6896.8z"/>
			</g>
			<g id="path3300-3-9-0">

					<path d="
					M18726.6-5895.2c0.9,0.3,13.6-8.3,20.1-20.9c7.1-13.9,0.7-27.6,2.8-27.7c13.1,3.9,9.3,28.8,4.8,36.5
					c-3.8,6.7-11.2,11.2-18.8,12.5C18727.9-5893.4,18726.6-5895.2,18726.6-5895.2L18726.6-5895.2z M18747.8-5949.6
					c-2.6,0-3.8-0.4-5.5-2.2c-2.4-2.5-5.3-4.2-6.8-3.9c-2.1,0.3-3-0.1-3-1.2c0-0.9,0.9-1.1,4.3-0.7c2.1,0.2,6.4-3.1,6.4-3.1v-235.2
					c18.5,7.7,46.1,12.1,67.4,14.6l1.4,209.6c0,0,31.2-16.3,42.5-22.8l0.4-187.7l22.1-2.4l-34.9-70.8c-4.9,3.8-73.5-2.6-90.6-13.8
					l62.6-39.1c-6.4-19.4-12.1-37.9-17.5-57.6c-0.2-0.6-1.3-0.5-1.5-1.1c-1.3-4.8-2.2-7-3.4-11.8c-0.2-0.9,0.1-2.4-0.1-3.3
					c-13.5-46.5-22.7-108-24.6-163.2c0.2-0.5,2.2-0.1,2.2-0.1l-0.4-33.7l-2.2,1.5l0.2-15.2l2.3-2.2c0.1-3,0.3-8.5,0.3-8.5l-2.9-1.8
					l1.5-25.5l3-0.4l1.6-40.4l-79.3,51.3c0,0-51.7-37-74.4-56.3c24.9-16.9,31.5-49.9,37.7-77.3c6.3-27.1,8.4-49.5,10.2-72.2
					c2-25,6.1-57,9.4-72.7c2-9.5,1.9-10.6-0.9-10.7c-1-0.1,0-0.4,2.2-0.7c50.8-2,105.4,5.5,153.9,11.8c0,0,12-22.3,16.2-30.6
					c0,0,2.4,7.6,5,12.8c5.9,11.1,19.3,23,30.8,29.4c4.3,2.8,16.6,7,25,8.4c4.9,0.8,12.8-0.7,18.7-3.1c2-0.8,3.6-1.9,3.6-3
					c0-1.1-1.6-2.1-3.6-4.1c-1.7-1.6-4-4.8-5.2-7.1c-3.5-7.2-8.9-19.2-11.9-30.4c-8.5-22.3-14.7-49.3-34.1-61.2l13.4-26.8
					l-421.9,0.1l65.3,110c0,0,2,3.3,2.6,4.4c1.9,3.5,2.7,3,2.7,3c-4.3,38.4-10.3,76.3-18.3,113.5c0,0-0.8-3-13.2-2.8
					c-36.3,0.5-49,40.8-18.6,58.7c2.9,1.7,7.7,5,12.5,7.5c1.4,0.7,18.8,10.9,18.8,10.9l-20.8-9.4l-1.5,242c0,0-43.5-13.1-72.1-14.3
					l0.3-209.8l-40,21.6l-1.8,187.6l-21.9,1.4c0,0,8.3,17.7,10.2,21.4c3.7,7.4,13,24,19.4,34.4c2.3,3.7,7.5,11.9,7.5,11.9
					c29.2,0.8,59.1,5.2,86.3,17.2l-62.9,40.9c26.3,74,59,182.3,40.8,357.1l4.4-2.8l1.2-18.8l78.3-53.9l96.6,77.8c0,0-7-0.2-8.6-0.3
					c-24.6-0.9-42,24.3-47.9,45.4c-10.5,37.1-11.9,46.2-16.7,105c-1.9,23.2-6.5,45.7-11.2,67.8c-2.5,11.1-2.1,12.2-2.1,12.2
					c49.1,1.6,100.4-3.6,138.9-12.1c0,0,16.2-77.1,22-109.8c5.5,3.1,10.3,4.5,15.3,4.4
					C18770.7-5895.9,18767.5-5948.1,18747.8-5949.6L18747.8-5949.6z M18578.3-7006.5l20,70.1l-48.9,4.5l-40.6-74L18578.3-7006.5z
					 M18878.9-7007.5l-50.3,106.6c-105.5-14.8-166.3-16.2-288.7,1.1l-63.6-106.3l16.8-0.1l48,84.9l71.3-7.1l-19.7-77.7l18.8-0.6
					l19.5,76.2l110.3-0.6c3.6-25.5,10.5-75.5,10.5-75.5l20.4,0.2l-13.6,77.2l65.1,8.2l37.6-86.3L18878.9-7007.5z M18737.5-7006.5
					l-6.4,64.8l-91.2,0.7l-14.6-65.6L18737.5-7006.5z M18848-7007.7l-31,77l-45.1-6l12.3-69.9L18848-7007.7z M18903.7-6932.3
					c2,6.6,4,13,4.5,14.3c7.4,20,10.4,26.5,15.2,33.2c0.8,1.1,1,1-0.1,1.9c-22.2,10.8-62.2-15.8-71.9-40.2
					c1.2-2.4,6.6-12.3,6.6-12.3c2.8,5.5,0.7,10.9,2.5,15.8c0.5,2.1,5-14.1,5-14.1s4.4,7.2,5,21c0.1,2.1,5.8-9.3,5.8-9.3
					c7.1,9.6,6.7,26.3,6.7,26.3c8-9.8,3-15.3,15.4,9.5c1.4-2.6,0.7-5.3,2.6-4.6c5.5,2.1,13.1,5.9,15.9,5.2c-3.6-4.6-10.7-7-12.6-13
					c0,0,5.6,0.5,6,0.2c-6.3-3.5-12.4-6.4-17.2-13.1c1.4-0.5,7.2,0.5,6.9-0.1c-8.6-7.8-21.5-14-2.8-12.3
					c-12.1-8.5-25.6-14.4-4.6-13.8c-15-7.1-19.1-11.5-16.3-12.7c1.6-0.7,6.1,2,13.2-0.3c-12.1-4.9-17-7.2-17.5-8.8
					c-0.6-2,5.1-3,9.1-7.3c0,0-4.9,1.1-7-1.1c0,0,2.4-6.8,4.2-10.7C18893.6-6964.8,18899.7-6945,18903.7-6932.3z M19033.1-6959.4
					c0,0-67.9,73.1-101.5,109.4l32.8,0.5l1.5,198c11.4,1.5,31.3,0,38.8,7.6c4.7,6.9-13.4,20.5-23.5,17.6c-6.8-1.8-15.1-0.4-15.1-0.4
					l0.7,220.7c-21.7-40.2-38.2-65.7-62.2-135.5c7-4.8,14.1-8.6,15.3-9.4c-9.2-22.2-15.6-57.2-2.7-87.7l8.9,5.3
					c-6.5,18.6-8.9,46.1,1.7,71.5l2.4-2.6c0,0-2.6-5.1-4.3-10.7c-1.5-5-3.7-11.4-3.7-18.1c-0.4-11.8-0.1-22,2.7-31.5
					c1-3.1,2.3-7.7,3.1-9.1c0.7-1.4,1.4-2.7,1.4-3.1c-26.1-10.6-44.8-26.1-67.3-37.1c-0.9-0.4-1.6-0.8-2.1-1.1
					c-2.8-1.6-2.1-2.1,2.4-3.9c9.4-3.7,13.2-8.3,13-17.4c-0.3-13-7.2-18-22.4-17.2c-5.5,0.3-5.9,0.2-6.8-1.7
					c-2.3-4.4-10.2-21.9-10.2-22.6c0-0.4-1.7-4.4-3.7-8.8c-3.1-7-6.7-14.3-8.2-21.6c-0.7-3.6-2.8-5.1-3.4-1.3
					c-4,27.9-7.7,42.7-14.9,59.4c-2.1,5-3.8,9.2-3.6,9.4c0.7,0.6,12.8,6.2,18.4,8.5c22.1,9.1,32.1,14.7,28.7,16
					c-2.4,0.9-3.2,2.6-3.8,7.3c-1.6,12.3-1.4,18.6,0.6,22.5c2.2,4.1,2.1,4.4-1.4,6.7c-3.1,2-2.4,2-3.2,12.3
					c-1,12.2-0.3,19.9-0.3,19.9l5.5,7.1l-5.6,7l-1.3,31.9l7.5,5.7l-7.1,7l2.5,29.1c0,0-0.9,2.7-2.1,4
					c11.9,123.1,58.1,247.2,127.2,331.8l0.7,202.3l67.8,67.8L19033.1-6959.4z M19027.8-6946.4v15.9l-57.5,62l57.5,1v13.5l-88.3-0.2
					L19027.8-6946.4z M19026.9-6919.3l0.1,44.7l-43,0.1L19026.9-6919.3z M18632.3-6896.8l9-0.4c-0.4,9-3.9,50.6-8.2,87
					c-4.8,41-14.6,76.4-16.5,76.4l-8.7-5.2C18622.3-6786.1,18626.1-6846.7,18632.3-6896.8z M18673-6898.1
					c-1.3,25.4-6.6,43.2-8.2,73.2c-2,36.7-8.3,82.4-24.8,120.2c-5.6,12.8-15.8,24.7-30.2,30.4c-25.3,9.9-46.7-21.4-29.6-44.4
					c13.5-18.2,34.6-18,41.1,0.4c5.3,15.2-11.7,34.3-25.3,28.4c-9.4-4.1-7-21.1,3.6-25.2c4.4-1.7,8.1,3.9,6,8.9
					c-1.7,3.9-1.9,6.4,0.4,4.7c9.6-6.8,2.4-22.9-9.5-16.9c-15.9,8-13.2,31.7,2.8,32.7c20.3,2,35.9-23,45.9-70.3
					c11-53,8.2-100.5,18.8-142.1H18673z M18647.1-6897.2l10.6-0.3c-0.8,3.9-1,8.1-1.7,13c-4.2,27.8-6.7,68.4-11,100.2
					c-6.1,44.9-16.9,72.2-17.2,68.9c-1.2-5.4-4.7-9.9-7.3-14.2c11-29.9,15.4-57,18.2-82.6
					C18642.1-6842.1,18643-6869.9,18647.1-6897.2z M18601.6-6894.6l9.3-0.5c-3.6,59.5-12.4,113.5-17.5,136.7c-1.6,7-2.1,10-3.5,10.6
					c-1.5,0.6-3.9-1.7-9.9-5C18589.2-6751.6,18596.4-6854.1,18601.6-6894.6z M18616.2-6895.5l10.1-1c-1.5,21.5-5.1,55.4-9.2,85.9
					c-4.9,36.9-11.4,69.6-14.6,69.1l-8.5-2.9C18599.7-6742.7,18613.7-6852.7,18616.2-6895.5z M18596.9-6894.4
					c-6.6,45.1-7.3,97.7-21,139.8l-9.5-4.4c2.6,0.8,9.4-27.4,11.6-59.3c2-27.8,7-58.1,8.5-74.8L18596.9-6894.4z M18581.3-6892.8
					c-3.8,15.9-3.8,39.4-6.6,58.9c-3.5,24.2-7.2,73.4-12.8,72.3l-9.7-4.9c5.1,1.5,14-91.7,19.4-124.8L18581.3-6892.8z
					 M18555.7-6888.8l9.9-1.3c-4.7,36.4-13.3,121.2-18.4,121.9l-9.2-4.9C18541.5-6788.1,18550.7-6838.8,18555.7-6888.8z
					 M18549.6-6887.4c-4.1,40-7.9,80.5-16.4,111.6l-10.1-4.6c0,0,7-34.2,10.3-58.2c3.3-23.7,3.8-27.1,4.8-33.3
					c2.3-13.6,2.9-14.1,2.9-14.1L18549.6-6887.4z M18982.2-6846.4l-1,192.1l-11.2-0.4l0.5-191.9L18982.2-6846.4z M19008.7-6844.9
					c4.2,0,7.6,3.4,7.6,7.6c0,4.2-3.4,7.7-7.6,7.7s-7.7-3.4-7.7-7.7C19001-6841.5,19004.4-6844.9,19008.7-6844.9z M18828.3-6774.4
					c7.9,14.5,14,19.8,21,22.6c12.6,5,30-7.3,23.7-24.6c-3.3-9.1-11.8-10.4-22.5-8.6c0,0-4.6-3.3-10-19.7
					c-6.4-19.5-16.5-39.5-16.5-39.5C18823.3-6819.8,18817.6-6794.4,18828.3-6774.4z M19020-6827.1c4.2,0,7.7,3.4,7.7,7.7
					c0,4.2-3.4,7.6-7.7,7.6c-4.2,0-7.7-3.4-7.7-7.6C19012.3-6823.7,19015.8-6827.1,19020-6827.1z M18999-6826.8
					c4.2,0,7.7,3.4,7.7,7.6c0,4.2-3.4,7.7-7.7,7.7c-4.2,0-7.7-3.4-7.7-7.7C18991.3-6823.4,18994.8-6826.8,18999-6826.8z
					 M18827.4-6828.6c7.1,14.7,8.6,25.8,15.5,39.2c3,5.8,5.7,10.8,5.7,10.8c22.5-10.6,31.2,16.1,12.9,24.6
					c-18,8.4-38.2-23.4-36.2-57.7C18825.8-6821.2,18827.4-6828.6,18827.4-6828.6z M19009.1-6808.7c4.2,0,7.6,3.4,7.6,7.6
					c0,4.2-3.4,7.7-7.6,7.7s-7.6-3.4-7.6-7.7C19001.4-6805.3,19004.8-6808.7,19009.1-6808.7z M19029.3-6794.4v16.4l-40,38.8v-15.8
					L19029.3-6794.4z M18503.4-6781.8c7.6,0.1,11.3,2.4,6.2,4.4c-16.8,6.7-24.3,17.3-25.2,35.9c0,9.4,1.1,10.6-4.7,5.4
					C18465.1-6756.8,18486.3-6781.9,18503.4-6781.8z M18517.5-6775c1.9-0.1,3.7,0.2,5.5,0.8c4.5,1.4,2.9,1.5-4.7,6.6
					c-14.5,9.6-18.9,19-19.5,38.2c-0.2,2.9,0.4,5.3,0.2,6.5c-0.2,0.9-1.3,0.6-2,0.6c-2.8-0.5-4.5-3.4-5.3-5.8
					C18482.5-6746.6,18499.5-6774.4,18517.5-6775z M18533.2-6768.7c1.2,0,2.3,0.2,3.2,0.6c3.5,1.8,2.2,2-4.2,6.6
					c-11.5,8.2-17.2,20.2-18.5,33.7c-0.9,8.6,5.8,18.9-6,10.4c-8.3-6.9-6.6-24.7,2.2-37
					C18515.2-6761.9,18526.4-6768.6,18533.2-6768.7z M19029.3-6772.4v18.6l-40,38v-19.1L19029.3-6772.4z M18546-6762.7
					c4.5,0,6.6,3,1.3,6.3c-12.9,8.1-20.7,23.7-20,39.9c0.7,9.8,1.1,11.5-5.2,5.1c-10.1-10.4-3-38.7,16.6-49.3
					C18541.4-6762.1,18543.9-6762.7,18546-6762.7z M18559.2-6757.3c7.5-0.2,8.5,3.6,1.8,8.3c-12.7,8.9-21.2,24.5-21,38.8
					c0.1,6.6-0.4,7.4-3.3,5.2c-14.7-11.2,1.1-50.4,21-52.1C18558.2-6757.2,18558.7-6757.3,18559.2-6757.3z M18822.3-6756.1
					c1.8,0.1,5.1,6.6,10.2,20.2c4.9,13.1,12.9,29.5,14.6,30.1c0.5,0.2,2.8-0.6,5-1.7c16.8-8.8,28.6,16.2,12.1,25.5
					c-11.8,6.6-22.9-0.5-33.1-21.2c-12.1-24.4-15.4-42.5-9.6-52.3C18821.6-6755.9,18821.9-6756.1,18822.3-6756.1z M18572.9-6749.4
					c2-0.1,4,0.3,5.8,1.3c4.3,2.2,3.7,3.9-3,7.8c-6.9,4-9.6,6.5-13.5,12.5c-6.2,9.3-7.2,12.9-7.2,24.9c0,9.8-2.9,10.3-8.8,1.6
					C18536.2-6716.3,18556.4-6748.7,18572.9-6749.4z M18589.6-6740.6c6.6-0.1,10.9,2.5,4.6,5.9c-20.1,10.6-28.5,25.8-24.7,44.6
					c1.2,5.9-5.5,0.9-9.6-7.1c-5.9-11.7,5-34.3,20-41.1C18583.2-6739.9,18586.7-6740.6,18589.6-6740.6L18589.6-6740.6z
					 M18816-6723.4c1.3,0.1,2.7,3.4,5.9,11.7c2.1,5.4,4.9,11.8,6.2,14.2c1.4,2.5,2.3,4.8,2.1,5.2c-1.1,1.9-10.4-1.3-13.5-4.7
					c-4.8-5.2-6.4-16.8-3.1-23.4C18814.6-6722.3,18815.3-6723.5,18816-6723.4z M19008.7-6709.3c4.2,0,7.6,3.4,7.6,7.6
					s-3.4,7.7-7.6,7.7s-7.7-3.4-7.7-7.7C19001-6706,19004.4-6709.3,19008.7-6709.3z M18223.5-6696.9c4.2,0,7.7,3.5,7.7,7.7
					s-3.4,7.6-7.7,7.6c-4.2,0-7.6-3.4-7.6-7.6C18215.8-6693.5,18219.3-6696.9,18223.5-6696.9z M18539.8-6694.6
					c8.4-0.3,10.9,3.7,12.4,16.3c1,8.7,2.8,9.5,16.6,7.2c14.5-2.4,19.3,1.5,20.3,16.5c0.8,11.9,0.7,11.8,17.2,11.9
					c16.2,0.1,17.9,1.8,19.8,18.4c1.4,12.3,0.9,12,16.8,11.8c17.7-0.2,19.2,1.1,20.4,16.7c1,12.7,1.8,13.5,12.9,12.6
					c10.9-0.9,31.1-1,34.8-0.2c9.4,2,9.8,1.7,11.8-11c2.7-16.7,6-18.8,26.4-16.7c10.1,1,11.2,0.8,12.7-8.1c1.9-11.8,4.3-15.3,4.3-5
					c0,25.9-1.8,27.1-19,22.5c-13-3.5-13.2-0.8-14.5,11.7c-1.2,11-3.1,15.5-7.1,17.3c-3.1,1.4-13.7,0.2-18-1
					c-1.6-0.5-11.7-0.7-23.6-0.6c-28.7,0.3-29,0.4-29-19.8c0-8.5-1.8-10.3-16.9-9.9c-18.9,0.6-17.9,1.1-21.1-21.6
					c-1.1-7.8-1.7-8.1-17.4-7.9c-17,0.2-20.9,0.5-19.9-13.8c0.9-13-2.3-16.5-16.5-13.2c-15.1,3.5-18-2.9-19.5-14.5
					c-1.4-10.8-2.3-8.1-9.5-8.7c-8-0.6-7.1-9.6,1.4-10.5C18537.3-6694.4,18538.6-6694.6,18539.8-6694.6z M19020.5-6690.7
					c4.2,0,7.7,3.4,7.7,7.6c0,4.2-3.4,7.6-7.7,7.6c-4.2,0-7.6-3.4-7.6-7.6C19012.8-6687.3,19016.3-6690.7,19020.5-6690.7z
					 M18998.9-6690.3c4.2,0,7.7,3.4,7.7,7.7c0,4.2-3.4,7.6-7.7,7.6c-4.2,0-7.6-3.4-7.6-7.6S18994.7-6690.3,18998.9-6690.3z
					 M18235-6677.5c4.2,0,7.7,3.4,7.7,7.6s-3.4,7.6-7.7,7.6c-4.2,0-7.6-3.4-7.6-7.6S18230.7-6677.5,18235-6677.5z M18213.5-6677.4
					c4.2,0,7.6,3.4,7.6,7.6s-3.4,7.6-7.6,7.6s-7.7-3.4-7.7-7.6C18205.8-6673.9,18209.2-6677.4,18213.5-6677.4z M18613.5-6670.8
					l79.6,59.4l75.3-50.4l-0.5,18.4l-74.8,49.7c0,0-63.7-49.3-94.4-73.1L18613.5-6670.8z M19009.7-6670c4.2,0,7.6,3.4,7.6,7.7
					c0,4.2-3.4,7.6-7.6,7.6s-7.7-3.4-7.7-7.6C19002-6666.5,19005.4-6670,19009.7-6670z M18879.3-6659.9l18.9,30.7l-18.8,13.7
					l17.2,21.9l-18.5,19l20.3,12.9l-19,26.5l-26.3,11.7l26.3-34.6l-21.8-15l20.7-22.3l-18.5-24.3l19.2-15l-20.8-34.1l1.4-1.6
					L18879.3-6659.9z M18530.3-6666.7l139.9,104.6c0,0,12.9,9.7,16.6,12.1c7.8,5,9.4,3,17.3-2.4c17.7-10.5,60.4-39.6,60.4-39.6
					l-0.3,15.1c0,0-43,32.2-66.8,45.5c-3.4,1.9-7,0.1-9.5-1.8c-51.9-41.1-105.1-81-157.7-121.3L18530.3-6666.7z M18851.7-6665
					c0.6,1.1,2.5,1.4,3.4,2.8c6.2,9.6,17.4,26.6,17.4,26.6l-19.7,15.6l18.1,23.7l-22.6,22.9l23,15.7c0,0-14.3,21.9-25.1,31.9
					l-0.3-17l9.2-11.1l-10.6-7.3v-23.4l10.8-11.4l-9.9-10l1.8-25.6l9.4-7.5l-7.8-10.6L18851.7-6665z M18223.8-6659.8
					c4.2,0,7.7,3.4,7.7,7.6s-3.4,7.7-7.7,7.7c-4.2,0-7.7-3.4-7.7-7.7C18216.1-6656.4,18219.5-6659.8,18223.8-6659.8z
					 M19027.8-6631.9l-38.9,36v-16.3l38.9-38.2V-6631.9z M18246-6649.5v19.7l-41.5,38.4v-19L18246-6649.5z M19027.8-6626.9v19.6
					l-38.9,36.6v-19.4L19027.8-6626.9z M18982-6623.8l0.8,635.9l45.2,47.8v15.9l-57.2-59.2l-1.3-639.8L18982-6623.8z M18246-6625.7
					v22.1l-41.5,37.9v-20.8L18246-6625.7z M18530.2-6621.6l54.9,42.8l-0.2,149.1c-22.2-16.7-40.1-26.7-57-35.2L18530.2-6621.6z
					 M19009.7-6573.4c4.2,0,7.7,3.4,7.7,7.7c0,4.2-3.4,7.6-7.7,7.6c-4.2,0-7.7-3.4-7.7-7.6
					C19002-6570,19005.5-6573.4,19009.7-6573.4z M18601.7-6566.1l0.2,152.2l-10.8-9.9l-0.6-150.9L18601.7-6566.1z M18226.5-6564.7
					c4.2,0,7.7,3.4,7.7,7.6c0,4.2-3.4,7.7-7.7,7.7c-4.2,0-7.7-3.4-7.7-7.7C18218.8-6561.2,18222.2-6564.7,18226.5-6564.7z
					 M19019.9-6553.8c4.2,0,7.6,3.4,7.6,7.7c0,4.2-3.4,7.7-7.6,7.7s-7.7-3.4-7.7-7.7C19012.3-6550.4,19015.7-6553.8,19019.9-6553.8z
					 M18998.1-6552.9c4.2,0,7.6,3.4,7.6,7.6s-3.4,7.7-7.6,7.7c-4.2,0-7.6-3.4-7.6-7.7C18990.5-6549.4,18993.9-6552.9,18998.1-6552.9
					z M18607.9-6553.6l33.5,31.3l-34.5,32.8l-0.3-15.1l19.2-18.5l-19.3-20L18607.9-6553.6z M18620.6-6550.8l27.9,20.6l-4.4,5.3
					L18620.6-6550.8z M18237.8-6546.2c4.2,0,7.6,3.4,7.6,7.6s-3.4,7.6-7.6,7.6c-4.2,0-7.6-3.4-7.6-7.6
					C18230.1-6542.8,18233.6-6546.2,18237.8-6546.2z M18215.4-6545.8c4.2,0,7.6,3.4,7.6,7.7c0,4.2-3.4,7.6-7.6,7.6s-7.6-3.4-7.6-7.6
					C18207.7-6542.4,18211.1-6545.8,18215.4-6545.8z M18764.6-6543.1c5.4,60.9,9.1,103,24.8,160.4l-72.3,46.2l0.7-176.3
					L18764.6-6543.1z M18963.9-6403.8l-0.3,209.1c-68.2-97.1-105-210.6-116.9-318.1c0,0,36.6-16.9,54.4-27.2
					C18920-6495.9,18911.9-6496,18963.9-6403.8z M19010.6-6534.2c4.2,0,7.7,3.4,7.7,7.7c0,4.2-3.4,7.6-7.7,7.6
					c-4.2,0-7.6-3.4-7.6-7.6C19003-6530.8,19006.4-6534.2,19010.6-6534.2z M18226.8-6526c4.2,0,7.7,3.4,7.7,7.6
					c0,4.2-3.4,7.7-7.7,7.7c-4.2,0-7.6-3.4-7.6-7.7C18219.1-6522.6,18222.5-6526,18226.8-6526z M18653.3-6526.7l26.6,20.3l0.1,15.4
					l-31.8-30.5L18653.3-6526.7z M18644.2-6518.6l33.2,32.8l-34.8,34.7l-34.3-32.5L18644.2-6518.6z M18894.2-6517.4l-32,13.1
					c12.2,110.9,44,194.1,86.8,261.5l1-155.6C18927.9-6433.4,18911.1-6475.6,18894.2-6517.4z M19028.8-6515.1v17.4l-39.8,36.5v-17.4
					L19028.8-6515.1z M18644.2-6505.5l-21.2,20.6l21.3,20.6l20.5-20.6L18644.2-6505.5z M18246-6507.8v18.6l-39.6,38.2v-19.7
					L18246-6507.8z M18691.4-6497.4l0.3,177.6l-8.8,4.2l0.6-185.5L18691.4-6497.4z M18643.8-6494.7l9.6,9.7l-10.1,10.1l-9.4-9.7
					L18643.8-6494.7z M19028.8-6492.9v20.1l-39.8,37.2l-0.7-19.2L19028.8-6492.9z M18587.9-6417.4c41.1,35.6,72.7,89.6,107.4,119.8
					c14,12.2,48.3,31.1,66.8,37c21,6.6,37.4,9.4,58.6,9.7c16.7,0.3,16.8,0.4,16.8,0.4l7.1,12.6l-11.7-0.2l-0.8,44.3
					c12.4,0.6,24.5-0.1,36.4-1.6l4.3,8.1c-85.1,11.5-168.2-20.7-218.2-61.9c-22.8-18.7-41.3-41.6-63.9-75
					c-43.4-67.7-119.9-100.4-191.1-101.2l-5.9-9.2l11.9,0.4c0,0,1.2-8.5,1.4-23c0.2-16.3,0.1-19.2-1.2-19.6
					c-8.6-1-34.6-0.5-33.9,0.6l-5.4-9.6C18451.5-6494.4,18535-6464.9,18587.9-6417.4L18587.9-6417.4z M18246-6484.2v18.2l-39.6,37.3
					v-18.2L18246-6484.2z M18680.8-6482.7l-1,16.3l-18.9,18.6l20.1,19.5l-0.5,13.6l-35.4-32.8L18680.8-6482.7z M18422.4-6476.9
					c-1.8,0-2.9,0.2-3.1,0.5c-0.5,0.8-0.2,7.8-1.7,33.1c-0.6,9.3-1.2,9.3,6.6,10.2c6.5,0.2,21.1,4,30.8,5.1c8.2,1.1,6.5-1.4,8.8-8
					c2.5-7.2,3.9-13.5,7-23.7c2.9-9.4,1.5-9.7-16.9-13.1C18441.1-6475.1,18427.9-6476.9,18422.4-6476.9z M18606.4-6478.4l32,32
					l-31.5,32l-0.6-15.5c6.1-5.4,13.3-11.6,18.7-17.7l-18.6-19V-6478.4z M18445.9-6468.1l3.4,5.7l8.2,1.4l-1.4,5.7l4.2,5.9l-5.2,3.9
					l0.2,7.2l-6.5-0.2l-5.6,4l-4.4-5.6l-6.5-0.2l0.4-8l-4.2-3.5l5-4.5l-0.6-7.1l8,1.3L18445.9-6468.1z M18393.9-6458.5l5.1,3.3
					l-5.2,3.6l-0.2,5.5l-3.2,2.7l-11.6-22.7l7.6,3.1l5.8-3.8L18393.9-6458.5z M18487.1-6463.7c-4.1,0.1-4.6,7.6-9,21.8
					c-6.1,19.8-6.6,18,5.2,22.1c5.2,1.8,15.3,5.2,20.6,7.7c12.9,6.1,13,6.1,17.8-2.2c2.1-3.7,6.2-12.7,9-17.3
					c7.1-11.6,7.3-11.1-5.7-17.4c-7.7-3.7-12.3-5.2-28.4-11.7C18492.1-6462.5,18489.2-6463.8,18487.1-6463.7z M18500-6450.6l5.6,3.5
					l6.3-2.6l1.3,6.8l6.9,2.7l-2,6.7l3.1,5l-5.9,1.2l-4.3,9.3l-6.5-4.6l-6.9,2.5l-1.9-5.1l-7-3.4l2.6-5.6l-3.5-7.6l8.1-0.6
					L18500-6450.6z M18641.9-6443.6l35.3,34.6l-32.2,32.2l-35.3-34.7L18641.9-6443.6z M19010.6-6437.3c4.2,0,7.6,3.4,7.6,7.6
					s-3.4,7.6-7.6,7.6c-4.2,0-7.7-3.4-7.7-7.6C19003-6433.9,19006.4-6437.3,19010.6-6437.3z M18547.6-6435.6c-2.1,0-3.2,1.9-5,5.6
					c-0.7,1.5-5.1,9.7-9.1,16c-9.1,14.2-9.1,13.5,0,19.1c3.8,2.4,12.7,9.7,20.3,16.5c7,6.4,6.3,4.9,21.4-10.3
					c9.9-9.9,16-12.7,12.1-17.9c-9.4-8-17.1-13.9-27.2-21.6C18553.3-6433.3,18549.9-6435.6,18547.6-6435.6z M18643.6-6431.7
					l-20.8,20.4l23.5,21.3l19.5-20L18643.6-6431.7z M18286.6-6438.7l0.2,159.8c22.9,39.2,46.4,78.7,58.7,122.8l33.6-16.5
					C18363-6303.1,18325.6-6375.4,18286.6-6438.7L18286.6-6438.7z M18226.7-6428.6c4.2,0,7.6,3.4,7.6,7.6c0,4.2-3.4,7.6-7.6,7.6
					c-4.2,0-7.7-3.4-7.7-7.6C18219-6425.2,18222.5-6428.6,18226.7-6428.6z M18643.8-6420.1l10.1,9.2l-9.2,10l-10.1-10.5
					L18643.8-6420.1z M19020-6418.6c4.2,0,7.7,3.4,7.7,7.7c0,4.2-3.4,7.6-7.7,7.6c-4.2,0-7.7-3.4-7.7-7.6
					C19012.3-6415.2,19015.8-6418.6,19020-6418.6z M18999.4-6417.8c4.2,0,7.7,3.4,7.7,7.6c0,4.2-3.4,7.6-7.7,7.6
					c-4.2,0-7.7-3.4-7.7-7.6C18991.8-6414.4,18995.2-6417.8,18999.4-6417.8z M18552.3-6418.3l5.8,4.3l6.8-2.9l0.5,8l6.2,3.1
					l-3.9,5.7l2.4,7.5l-6.7,0.2l-5.2,6.9l-4.7-4.5l-9.2,0.6l-1.5-7.8l-4-3.1l3.1-5.2l-2.3-6.9l7.8-0.5L18552.3-6418.3z
					 M18215.4-6409.8c4.2,0,7.6,3.4,7.6,7.6s-3.4,7.7-7.6,7.7s-7.7-3.4-7.7-7.7C18207.8-6406.4,18211.2-6409.8,18215.4-6409.8z
					 M18237.5-6409.6c4.2,0,7.6,3.5,7.6,7.7c0,4.2-3.4,7.6-7.6,7.6c-4.2,0-7.7-3.4-7.7-7.6
					C18229.8-6406.1,18233.2-6409.6,18237.5-6409.6z M18680.6-6391.3l-18.2,17l18,18.7l-0.5,14.4l-31.9-31.8l32.4-31.8
					L18680.6-6391.3z M18500.1-6395l-68.5,45.4l-4.2-11.4l61-40L18500.1-6395z M19009.6-6398.7c4.2,0,7.6,3.4,7.6,7.7
					c0,4.2-3.4,7.6-7.6,7.6c-4.2,0-7.7-3.4-7.7-7.6C19002-6395.3,19005.4-6398.7,19009.6-6398.7z M18599-6394.1
					c-3.2,0.2-6.4,4-12.5,10.5c-6,6.4-13.1,13.9-14.7,15c-4.8,3.3-4.5,4.2,3.8,13.4c2.5,2.8,7.3,8.6,10.5,12.8
					c3.3,4.2,8.5,9.5,9.6,10.6c3.4,3.5,5.2,2.8,20.7-8.3c18.8-13.5,18.7-11.5,1.4-33.7C18607.8-6386.5,18603.1-6394.4,18599-6394.1z
					 M18226.5-6389.4c4.2,0,7.7,3.4,7.7,7.7c0,4.2-3.4,7.6-7.7,7.6c-4.2,0-7.7-3.4-7.7-7.6
					C18218.8-6386,18222.2-6389.4,18226.5-6389.4z M18628.2-6386.6l12.4,13.3l-1.1,1.3L18628.2-6386.6z M19028.3-6383.7v23
					l-38.1,35.2v-21L19028.3-6383.7z M18601.3-6377l4.6,6.4l7.9-0.5l-1.2,7.5l4.2,3.1l-4.1,5.7l-0.3,7.2l-6.5-1.5l-5.3,6.4l-5.2-6.1
					l-6.2,0.7l0.2-7.5l-6.3-3.6l4.4-4.9l0.1-8.4l9.1-0.3L18601.3-6377z M18789.9-6376.5l3.8,11.6l-95.3,62l-8.3-9.6L18789.9-6376.5z
					 M18540.4-6368.7l7.6,5.7l-100,64.3l-3-8.4L18540.4-6368.7z M18247.8-6371.2v19.1l-42.2,40.7v-19.8L18247.8-6371.2z
					 M18644-6366.6l1.2-1l32.7,31.4l-6.2,6.6L18644-6366.6z M18553.6-6357.4l0.9,185.5l-8.7-6l0.7-176L18553.6-6357.4z
					 M18559-6353.1l7.1,6.2l-6.8,6.7L18559-6353.1z M19028.3-6354.7v18.8l-38.1,36.2v-19.7L19028.3-6354.7z M18247.8-6345.6v17.7
					l-42.2,40.3v-17.9L18247.8-6345.6z M18641.1-6343.2c-1.1,0-2.3,0.7-4,2.1c-1.6,1.2-5.4,3.9-8.5,5.9
					c-11.5,7.5-21.2,14.5-21.7,15.5c-0.9,2.1,10.6,17.2,26.6,35.2c6.3,7.1,6.1,8.5,12.4,2.1c5-5.7,23.4-21.3,22.9-25.5
					c-1-4.8-7.3-10.2-23-31.4C18643.8-6342,18642.5-6343.2,18641.1-6343.2z M18570.2-6341.3l25.1,35.9l-3.3,3.3l-30.8-30.4
					L18570.2-6341.3z M18521.2-6337l0.1,173.1l-47.1,33.5c0.9,0.5-5.8-104-23.8-159.7L18521.2-6337z M18638.3-6330.9l4.6,8.6l7-1.2
					l-0.9,7.9l5.9,4.6l-5.8,8l0.8,5.7l-6.8-1.6l-6.2,6.5l-4.3-8.2l-9,0.1l1.3-7.9l-6.3-5.3l6.9-4l0.9-7.2l5.9,0.5L18638.3-6330.9z
					 M18679.2-6329.6l0.8,7.1l-4.2-3.7L18679.2-6329.6z M18558.8-6317l-0.1-10.1l30,29l-30.7,28.7l0.2-13.7l17.5-16.6L18558.8-6317z
					 M18807-6322.6l4.3,12.9l-61.7,38l-12.4-6.5L18807-6322.6z M19010.2-6301.3c4.2,0,7.7,3.4,7.7,7.7c0,4.2-3.4,7.7-7.7,7.7
					c-4.2,0-7.7-3.5-7.7-7.7C19002.6-6297.9,19006-6301.3,19010.2-6301.3z M18617.6-6276.4l-21.7-21.7l2.7-3L18617.6-6276.4z
					 M18673.4-6295.9c-7.3,6.3-23,24.4-23,27.4c0,3,21.7,21.7,34.7,30c4.1,2.6,5.7,2.7,7.3,0.3c22.5-33.7,23.5-32.5,14.6-39.1
					c-9.1-6.9-19.7-17.2-26.9-20.8C18677.1-6299.5,18676.6-6298.6,18673.4-6295.9z M18592.2-6294.3l35.7,34.3l-33.1,32l-34.4-36.3
					L18592.2-6294.3z M18227.3-6291.7c4.2,0,7.6,3.4,7.6,7.6s-3.4,7.7-7.6,7.7s-7.7-3.4-7.7-7.7
					C18219.7-6288.3,18223.1-6291.7,18227.3-6291.7z M18678.8-6284.8l6,5.4l7.2-1.9l1.6,7.1l6.9,2.5l-3.7,7.2l0.5,9.1l-7-1.3
					l-4.8,7.4l-7.1-7.1l-8.1,0.7l0.5-7.9l-7.2-3.5l4.5-5.2l-2.8-7.1l8.6,1.4L18678.8-6284.8z M19020.4-6281.6c4.2,0,7.6,3.4,7.6,7.6
					s-3.4,7.6-7.6,7.6c-4.2,0-7.7-3.4-7.7-7.6S19016.2-6281.6,19020.4-6281.6z M18573.4-6263.5l21.2,21.6l19.5-18.7l-20.6-21.8
					L18573.4-6263.5z M18999.3-6281.3c4.2,0,7.6,3.4,7.6,7.6s-3.4,7.7-7.6,7.7s-7.7-3.5-7.7-7.7
					C18991.7-6277.9,18995.1-6281.3,18999.3-6281.3z M18216.8-6273.3c4.2,0,7.7,3.4,7.7,7.7c0,4.2-3.4,7.7-7.7,7.7
					c-4.2,0-7.7-3.4-7.7-7.7S18212.5-6273.3,18216.8-6273.3z M18239.2-6273.3c4.2,0,7.7,3.4,7.7,7.7s-3.4,7.6-7.7,7.6
					c-4.2,0-7.6-3.4-7.6-7.6S18235-6273.3,18239.2-6273.3z M18593.5-6271.5l9.6,9.9l-8.9,9.4l-10-10.2L18593.5-6271.5z
					 M18724.2-6264.7c-4.9,3.5-18.3,28.9-20.6,34.5c0,1.3,6.5,5.4,14.5,9.2c6.9,3.2,29.2,12.2,31.2,12.7c4.5,1.1,5.3-0.6,6-3.5
					c0.4-1.5,2.2-7.4,4.1-13.9c6.9-22.4,9-21.4-1.3-24.8c-3.5-1.2-14.7-4.9-21.7-8.2C18729.6-6261.9,18726.4-6264.8,18724.2-6264.7z
					 M19009.6-6260.7c4.2,0,7.7,3.4,7.7,7.7c0,4.2-3.4,7.7-7.7,7.7c-4.2,0-7.7-3.5-7.7-7.7
					C19002-6257.3,19005.4-6260.7,19009.6-6260.7z M18644.1-6250.2l1.2,150.5l-11.8-9.2l-0.3-151L18644.1-6250.2z M18591.5-6224.5
					l-32.5,33.1l-0.2-16.9l18.2-16.5l-18.5-19.4l0.4-13C18570.7-6247.5,18580.8-6235.6,18591.5-6224.5z M18227.2-6253.4
					c4.2,0,7.6,3.4,7.6,7.6s-3.4,7.7-7.6,7.7s-7.7-3.4-7.7-7.7C18219.5-6250,18222.9-6253.4,18227.2-6253.4z M18728.9-6253.7
					l6.6,5.5l5.5-3.3l3.2,5.6l7.9,1.1l-3.5,8.6l4.6,6.6l-7.7,1.4l-1.9,9.2l-7.5-4.5l-5.7,2.5l-4.2-7.8l-8.9-0.4l4.9-8.4l-4.6-6.7
					l6.5-0.4L18728.9-6253.7z M18628.5-6253.1l-0.1,13.3l-14.1,14.3l14.2,15.5l-0.1,15.4l-29.4-29.9L18628.5-6253.1z
					 M18779.4-6244.4c-3,0.1-3,3.2-5.3,13.4c-0.5,2.2-2.1,8.1-3.5,13.2c-4.3,15.2-4.8,15.5,8.4,18.1c7.7,1.1,40.8,8.9,41.5,3.6
					c0.8-9,1.4-30.1,1.5-37.3c0.3-2.4-0.3-4.7-2.7-5C18804.2-6240.2,18787.4-6244.1,18779.4-6244.4L18779.4-6244.4z M18650.3-6243.8
					c18.8,12.8,37,25.9,58.6,37.6l0.5,154.8l-59.3-44.2L18650.3-6243.8z M19027.8-6243.3v19l-39.5,37.8v-18.1L19027.8-6243.3z
					 M18796.2-6236.7l3.4,7.3l7.2-2.4v8.8l6.4,4l-7.7,3.6l-0.7,10.7l-7.8-2.4l-6.5,4l-5.7-6l-7-0.1l2.6-9.5l-4.5-4.3l6.6-3.2
					l0.5-8.5l7,4.2L18796.2-6236.7z M18248.6-6238.2v18.3l-43,39.6v-16L18248.6-6238.2z M18850.1-6226.7l9.7,16.3l-3.5,6.6l-6.5-3.2
					l-7.1,2.6l1.1-8.7l-5.5-4.4l5.6-5.1l-0.3-6.4L18850.1-6226.7z M18595.2-6221.3l33,34.2l-33.6,34.7l-33-34.7L18595.2-6221.3z
					 M19027.8-6199.9l-39.5,36.7v-17.9l39.5-37.5V-6199.9z M18248.6-6214.8v17.8l-43,40.3v-16.5L18248.6-6214.8z M18595.3-6208.5
					l-21.4,21.2l21.3,21.3l21.5-20.8L18595.3-6208.5z M18595.6-6196.3l9.2,9.4l-8.8,9.1l-9.5-9.2L18595.6-6196.3z M18558.8-6183.3
					l32.7,33.6l-3.8,4.4l-29-22.5L18558.8-6183.3z M18629-6180.5l0.9,15.2l-17.8,15.2l16.3,17.1l0.5,15.8l-31-31.9L18629-6180.5z
					 M19010.2-6165.2c4.2,0,7.6,3.4,7.6,7.6s-3.4,7.6-7.6,7.6s-7.7-3.4-7.7-7.6C19002.6-6161.7,19006-6165.2,19010.2-6165.2z
					 M18228.1-6155.9c4.2,0,7.6,3.4,7.6,7.6s-3.4,7.7-7.6,7.7c-4.2,0-7.6-3.4-7.6-7.7S18223.9-6155.9,18228.1-6155.9z
					 M18384.7-6151.2l-24.1,36.1l19,12.7l-18,24.2l18.7,22.6l-18.9,16.2l19.1,32.8c-7.6-1.5-15.4-6.6-22.4-10.1l-14.4-27.5
					l16.6-14.3l-16.9-19.6l17.7-20.9l-17.7-12.4l19.3-29.7L18384.7-6151.2z M19019.4-6146.4c4.2,0,7.6,3.4,7.6,7.6s-3.4,7.6-7.6,7.6
					c-4.2,0-7.7-3.4-7.7-7.6S19015.1-6146.4,19019.4-6146.4z M18544.6-6147l166.6,128.4l-0.7,17l-166.7-128.1l-70.8,50l0.6-18.2
					L18544.6-6147z M18999-6145.4c4.2,0,7.7,3.4,7.7,7.6s-3.4,7.6-7.7,7.6c-4.2,0-7.6-3.4-7.6-7.6
					C18991.3-6142,18994.7-6145.4,18999-6145.4z M18611.1-6129l-1.8,0.3l-18.2-13.3l4-4.5
					C18595.2-6146.4,18607.1-6133.2,18611.1-6129z M18239.4-6136.4c4.2,0,7.7,3.4,7.7,7.7c0,4.2-3.4,7.6-7.7,7.6
					c-4.2,0-7.7-3.4-7.7-7.6C18231.8-6132.9,18235.2-6136.4,18239.4-6136.4z M18218.8-6136.3c4.2,0,7.7,3.4,7.7,7.6
					c0,4.2-3.4,7.6-7.7,7.6c-4.2,0-7.7-3.4-7.7-7.6S18214.6-6136.3,18218.8-6136.3z M19010.2-6126.2c4.2,0,7.6,3.5,7.6,7.7
					c0,4.2-3.4,7.7-7.6,7.7s-7.7-3.4-7.7-7.7C19002.6-6122.7,19006-6126.2,19010.2-6126.2z M18228-6117.7c4.2,0,7.6,3.5,7.6,7.7
					s-3.4,7.6-7.6,7.6c-4.2,0-7.6-3.4-7.6-7.6C18220.4-6114.3,18223.8-6117.7,18228-6117.7z M19027.8-6103.5v16.9l-37.4,36.2v-16.3
					L19027.8-6103.5z M18523.4-6098.4c5.6,0,13,0.2,23,0.6c8.6,0.3,18.1,0.5,21.1,0.4c11.9-0.3,15.8,3.7,16,16.6
					c0.2,11.4,0.1,11.4,15.1,12c18,0.8,22.8,5.4,23,22.4c0.1,6.6,5.4,9.2,15.9,7.7c16.5-2.3,19.7-0.1,21.7,15.3
					c1.6,12.8,0.7,12.2,15.9,12c16.3-0.1,19.9,2.6,20.1,15.2c0.1,7.3,1.9,9.5,8.2,10c6.7,0.6,9.6,4.1,6.3,7.5
					c-0.6,0.6-3.7,1-8.6,1.1c-10.4,0.2-13.8-3.1-15.7-15c-1.3-8.3-2.2-8.7-16-8.3c-17.6,0.5-19-0.6-20.9-15.9
					c-1.6-13.2-3.8-14.5-19-11.7c-11,2.1-16.8-2.8-18.3-15.1c-1.6-13.9-2.2-14.4-17.8-15c-15.6-0.6-20-3.3-20.1-12.7
					c-0.2-14.6-2.1-15.9-21.3-15.3c-9.3,0.3-18.9,0.1-24.4-0.5c-11.6-1.2-11.6-1.3-12.8,9.9c-1.7,16.7-4.2,18.2-26.3,16.6
					c-9.2-0.7-9.9-0.3-10.5,6.8c-0.8,8.8-4,14.2-6.5,10.9c-1.3-1.7-1.3-1.9,0-14.8c1.5-14.4,1.6-14.5,20.4-13.1
					c12.7,1,12.1,1.4,13.5-10.1C18507-6095,18506.8-6098.2,18523.4-6098.4z M18249.2-6099.7v18.5l-43.7,40.5v-18L18249.2-6099.7z
					 M18384.9-6077.9l9.5,13l-3.1,24.1l-8.1,6.1l5.7,11.5l-1.8,14.1l-2.3,1.3l-15.9-30.8l18.8-16.5l-19.2-23.4l18.2-24.5l-18.9-13.2
					l22.7-33.4c3.9-4.8,4.2,14.2,4.2,14.2l-9.4,14.2l10.5,9.1l0,0v22.5L18384.9-6077.9z M18396.9-6088.8l1-30.3l-8.2-6.3l6.3-10.5
					l-0.4-26.8l-1.9-1.3c-15.7-191.9-109.7-305.3-124.4-331.1c0,0-3.3-2.6-2.7-9.2c0.3-2.9,0.4-19.8,0.3-37.6
					c-0.6-91,0.2-153.3,0.2-153.3l-69.1-73.6l0.4,26.9l3.4,2.4v122.7l-2.9,0.2c0,0-0.9,33-0.7,55.6l4.1,0.1l-0.2,84.3l-3.5,0.4
					l0.2,54.6h3.8c0,0,0.9,57.3-0.5,85.1l-2.8,0.2l0.2,54.3l3.2,0.2l0.2,77.6l-4,0.6l1.1,51.2l3.2,0.2c1.2,31.7,0.6,86.4,0.6,86.4
					l-3.7,0.2l0.9,50.9l2.6,0.2l-0.8,89.3l-2.4,0.3l0.9,52.8l2.6,0.2l-0.4,43.9l-1.8,0.3l-0.4,16.4l1.9,4.4l0.1,58.5l-1.5,0.6
					l-0.4,29.4l107.1-108.3l-39.4-1.2v-35c0-57.8,0.8-104.4-0.9-160.7c-0.5-0.5-4.4-1.1-8.7-1.4c-20.3-1.2-25.8-2.8-25.9-7.7
					c-0.1-6,9.1-13.5,16.8-13.6c1.7,0,4.6-1.7,4.6-1.7l-2.5-640.9l-47.9-50.2l0.2-15.9l59.1,62.5l2.2,640.6l2.2-1l0.2-215.1
					c30.3,45.3,47.2,90.1,64.1,135c0,0,6-2.1,6.2-2.2c0.1,0-2.1-0.8-2.1-0.8c-17.2-57.3-38.9-98.9-67.1-142.3l0.4-208.5
					c72.2,101.9,107.1,193.6,121.5,325.7l-36.5,18.2l-3.5,4.7l-27.6,13.8l-2.6-4.4l-16.7,11.6c12.9,22.5,12.4,54.9,1.9,72.1l4.5,2.8
					c0.3,1.2,17.3-35.1-1.7-72l12.5-7.7c18,37.2,9.6,77.2,1.2,87.5c0,0,13,8.3,22.4,13.4c10.2,5.5,19.2,10.6,31.4,14.5
					c7.5,3.1,12.3-0.5,12.3-0.6l3.6-20.7l-5.8-7.9l6.8-5.4l3.1-31.8l-7.3-7.3L18396.9-6088.8z M19027.8-6080.4v20.5l-37.4,35.4
					v-20.1L19027.8-6080.4z M18249.2-6058.4l-43.7,40.1v-16.7l43.7-41V-6058.4z M19013-6031.2c4.2,0,7.7,3.5,7.7,7.7
					c0,4.2-3.4,7.6-7.7,7.6c-4.2,0-7.6-3.4-7.6-7.6C19005.3-6027.7,19008.7-6031.2,19013-6031.2z M18266.7-6018.8v188.8h-11.5
					l0.5-191.1L18266.7-6018.8z M18228.1-6020.5c4.2,0,7.6,3.4,7.6,7.6s-3.4,7.6-7.6,7.6c-4.2,0-7.6-3.4-7.6-7.6
					S18223.9-6020.5,18228.1-6020.5z M19002.1-6013.2c4.2,0,7.6,3.4,7.6,7.6s-3.4,7.7-7.6,7.7c-4.2,0-7.7-3.4-7.7-7.7
					C18994.4-6009.8,18997.8-6013.2,19002.1-6013.2z M19022.7-6012.9c4.2,0,7.6,3.4,7.6,7.6c0,4.2-3.4,7.6-7.6,7.6
					c-4.2,0-7.7-3.4-7.7-7.6S19018.5-6012.9,19022.7-6012.9z M18240.1-6001.4c4.2,0,7.7,3.4,7.7,7.7c0,4.2-3.4,7.6-7.7,7.6
					c-4.2,0-7.7-3.4-7.7-7.6S18235.8-6001.4,18240.1-6001.4z M18634.2-6001.2c39.9,4.9,29.3,46.8,12.5,55.5
					c-22.9,10.7-41.2-10.8-26.6-32.6c10.7-16,31.1-5.4,23.2,12.1c-4.4,9.9-13.6,8.7-13.6-1.3c3.3-9.5,0.3-6.1-2.3-2.8
					c-8.1,10.5,8.2,21.6,16.6,11.3c5.1-6.4,6.2-13.9,4.5-19.9c-3-10.3-14.9-16.3-28.4-6.8c-16.1,19.3-24.7,44.2-29.4,72.1
					c-10.1,59.4-10.6,121.9-19.3,137.7l-9.5-0.2c13.7-68,13.8-126.2,28.5-179.7C18597.8-5982.3,18616.3-6001.2,18634.2-6001.2
					L18634.2-6001.2z M18219.1-6000.8c4.2,0,7.6,3.4,7.6,7.7c0,4.3-3.4,7.6-7.6,7.6c-4.2,0-7.6-3.4-7.6-7.6
					S18214.9-6000.8,18219.1-6000.8z M18381-5999.8c-10.5,0.2-21.2,8.9-20.4,20c1,13.5,9,19.5,22.2,18.2c7-0.7,6.9-0.8,11.6,7.6
					c4.3,7.6,15.5,40.3,15.6,45.2c-5.4-7.2-18-20.5-29.7-20c-12.5,0.9-23.1,12.8-13.6,29.6c5,8.2,14,9.8,23.1,7.1
					c13.6,21.2,16.2,42.4,20.5,67c0,0,5.4-52.7,7-73.7c3.1-32.2,7.5-53.1,20-78.6c-10.4-6-21.5-10.7-32.7-15
					c-4.4-1.7-9.1-1.7-13.5-4.6C18388-5999,18384.5-5999.8,18381-5999.8z M19013.8-5995.5c4.2,0,7.7,3.4,7.7,7.7
					c0,4.2-3.4,7.7-7.7,7.7c-4.2,0-7.6-3.4-7.6-7.7S19009.6-5995.5,19013.8-5995.5z M18402.5-5978.6c7.9,12.8,15.6,31.3,16.2,42.9
					c0.3,7.7-1.3,17.2-2.6,26c-0.6,4.4-2.3,0.1-5.3-9.3c-12.4-39.2-15.7-46.7-24.3-44.8c-4.9,1.1-10,1.3-13.4-0.5
					c-10.9-6-11.9-26.2,4-30.1C18389.9-5997.1,18398-5985.9,18402.5-5978.6z M18402.2-5988.3c15.9,6.3,26,15.7,23.1,31.1
					c-1.3,5.8-2.1,10.5-3.7,9.9c-1.8-0.7-4.2-7.6-9.2-19.6C18411.4-5970.8,18400.1-5988.2,18402.2-5988.3z M18665.3-5987.7
					c0.8-0.1,2.2,0.7,4,2.3c12.5,12.3,5.7,40.1-11,48.2c-6.9,4.7-19.5,4-19.6-0.6c0-1.8,0.4-2.3,2.1-2.3c14,0.1,29-19.4,24.8-40.2
					C18665.1-5983.4,18664.2-5987.5,18665.3-5987.7z M18228.4-5980.9c4.2,0,7.7,3.4,7.7,7.6s-3.4,7.7-7.7,7.7
					c-4.2,0-7.7-3.4-7.7-7.7C18220.7-5977.6,18224.2-5980.9,18228.4-5980.9z M18678.4-5978.6c0.9-0.1,3.9,1.2,5.9,3.6
					c11.8,14.2,2.2,38.5-16.3,46.8c-7.1,3.8-13.1,1.2-11.6-2.8c12.6-5.2,24.6-18.8,23.3-37.4
					C18679.3-5974.8,18677.2-5978.4,18678.4-5978.6z M18428.2-5976l4.3,2l-1.8,3.7C18429.9-5972.4,18429.9-5973.3,18428.2-5976z
					 M18691.9-5974.4c0.9,0,3.1-0.3,5,1.6c7.6,7.4,8.8,28.2,1.5,38.5c-3.4,4.8-14.1,13.6-17.3,14.5c-3.7,0.5-6.3,1-12.5-1.8
					c-2.1-0.1,0.9-2,4.8-4.3c13.8-8,23-22.2,20.6-35.6C18692.6-5969.8,18690.1-5974.4,18691.9-5974.4z M18705.9-5967.7
					c3.7,0.3,6.5,3.5,8.2,6.3c9.1,13,1.5,40.4-17,46.1c-12.4,3.8-17,0.2-7-5.6c14.4-8.4,21.8-24.8,17.7-37.8
					C18705.8-5965,18703.9-5967.6,18705.9-5967.7z M18720.9-5958.2c4.3,0.1,7.7,3.4,9.2,6.8c3.6,8.4,3,20.2-1.6,28.5
					c-4.7,8.3-13.6,15.2-23.4,16.2c-2.6,0.2-4.8-0.1-6.8-1c-4.3-1.9-2.8-2.1,5.3-6.4c13-6.8,20.7-21,18.7-36.6
					C18721.5-5956.6,18719.2-5958.2,18720.9-5958.2z M18249.2-5961v20.2l-42.5,40.1v-19.7L18249.2-5961z M18610.4-5958.4
					c0.8,0.8,5.6,12.3,6.2,14.7c-10,14.3-12.8,37.8-14.3,55.6c-5.6,50.5-11.5,111.4-14,111.9l-11.1,0.2c4.2,2.8,9.6-83.7,18.2-138.4
					C18596-5918.7,18605.2-5961,18610.4-5958.4L18610.4-5958.4z M18738.9-5949.5c14.6,9.9,6.8,40.7-13.5,48.3
					c-7.4,2.8-10.1,3.2-13.4,0c-2.1-2-4.1-2.7,1.2-4.6c15-3.9,25.6-17.9,23.1-34.2C18736-5944,18732.3-5954.4,18738.9-5949.5
					L18738.9-5949.5z M18620.8-5940.9l6.6,4.3c-7.2,21.3-9.8,46.5-12.7,70.9c-3.5,29.5-6.7,59.8-11,88.8l-10.2,0.4
					c5.3-17.9,7.7-67.8,13-109.7C18609.7-5907.5,18613-5936.7,18620.8-5940.9L18620.8-5940.9z M18632.4-5934l8.5,4.9
					c-3,11.9-6.6,25-8.3,37.5c-3.9,27.8-5.4,61.5-14.4,113.3l-9.2,0.8c2.3-16.7,6.7-53.7,10.5-87.9
					C18623.7-5905,18630.5-5934.9,18632.4-5934L18632.4-5934z M18249.2-5935.3v19.8l-42.5,39.1v-18.3L18249.2-5935.3z
					 M18646.8-5927.7c0,0,7.3,4.1,8.3,4.6c-5.5,21.9-8.2,42.2-11,62.1c-3.7,26.8-6.4,52.8-11.5,82.2l-9.8,0.6
					c4.9-22.6,10.5-75.6,14.9-112.9C18640.2-5912.8,18645.5-5928.1,18646.8-5927.7z M18412.8-5883.1c0.1,15-3.1,38.1-3.1,38.1
					c-1.3,0.7-5.3-33.9-19.3-49.6c-17.1,8.1-31.8-10.9-20.2-24C18392.9-5938.2,18412.8-5896.5,18412.8-5883.1z M18659.6-5921.7
					l11.9,5.5c-1.5-0.3-4.3,7.9-7,20.7c-8.3,38.9-16.6,115.5-17.9,115.5l-9.2,0.8c3-20.6,7-53.1,11.3-81.9
					C18653.5-5893.8,18658-5921.6,18659.6-5921.7L18659.6-5921.7z M18676.1-5914.3l9,5.4c-0.8-0.6-4,9.1-5.6,15.8
					c-8.1,38.8-11.8,72.8-16.8,110.4l-9.8,1.3c-0.7,1.1,8.5-74.1,16.1-112C18671.5-5906.3,18675.4-5914.7,18676.1-5914.3z
					 M18690.1-5907.5l9.7,4.8c-10.5,29.8-11.5,58.2-21.6,118l-10.2,1.9c4.1-38.3,10-79.3,18.3-116.8
					C18687.5-5904.7,18690-5907.4,18690.1-5907.5z M18704-5900.5l10.9,4.4l-22.8,109.7l-9.2,1.2c5.7-31.6,8.7-68.2,16.4-97
					C18700.9-5888.4,18701.8-5895.2,18704-5900.5L18704-5900.5z M18230-5883.2c4.2,0,7.7,3.4,7.7,7.7c0,4.2-3.4,7.6-7.7,7.6
					c-4.2,0-7.6-3.4-7.6-7.6S18225.8-5883.2,18230-5883.2z M18240.1-5865.2c4.2,0,7.7,3.4,7.7,7.7c0,4.2-3.4,7.6-7.7,7.6
					c-4.2,0-7.7-3.4-7.7-7.6C18232.4-5861.8,18235.8-5865.2,18240.1-5865.2z M18220.1-5864.7c4.2,0,7.7,3.4,7.7,7.6
					c0,4.2-3.4,7.7-7.7,7.7c-4.2,0-7.6-3.4-7.6-7.7C18212.5-5861.3,18215.9-5864.7,18220.1-5864.7z M18229.7-5847.1
					c4.2,0,7.6,3.4,7.6,7.7c0,4.2-3.4,7.6-7.6,7.6c-4.2,0-7.7-3.4-7.7-7.6S18225.4-5847.1,18229.7-5847.1z M18298.9-5821.5l-91.8,93
					l-0.3-18.6l62.9-61.8l-63.4-1l0.2-12.6L18298.9-5821.5z M18256.8-5803.8l-49.2,46.9l-0.4-47.7L18256.8-5803.8z M18309.4-5800.4
					c0,0-0.3,1.7,4.3,9.8c13.4,23.3,16.5,44.9,28.4,69.9c5.9,13.7,19.2,27.5,22.2,28.3l-14.8,27l416.9-0.9l-66.7-116.5
					c-105.9,19.6-201.1,16.2-290.6,0.5c-5.1,6.9-10.7,20.9-16.1,31C18379.6-5787.1,18336.9-5810.3,18309.4-5800.4z M18324.5-5797.2
					c22-0.3,40.4,10.2,56.7,32.4c5.2,7.1,7.2,10.3,7.2,13.2c-0.5,3.4-7.4,14.4-7.4,14.4s-4-10.9-4.9-16.2
					c-5.9,21.8-8.3-3.5-10.6-10.1c-7.2,21.1-11.1-7.9-10.8-15.7c-9.8,13.5-9.2-8.7-14-12.8c-0.1,11.7-7,3.7-15.9,1.2
					c4.7,6.5,13.8,10.9,2.1,12.4c11.6,8,17.4,6.8,6.1,11.2c8.7,4.8,22.9,10.5,7.2,13.7c9.6,6.1,25.1,8.6,8.5,14.4
					c12.6,7.7,29.3,7.1,5.8,13.3c8.5,5,23.6,6.9,6.7,11.2c2.6,1.2,7.1,4.2,7.1,4.2l-7.3,11.5c0,0-2.6-0.2-4.4-2.1
					c-7.7-8.1-15.2-22.9-22-43.7c-5-15.3-10.8-31.5-17.3-44.9C18313.9-5796.7,18314.3-5797.1,18324.5-5797.2L18324.5-5797.2z
					 M18696.9-5771l57.6,98.6l-13.7,0.2l-50.9-84.4l-68.6,7.8l22.6,75.5l-20.4,0.6l-20.3-74.2c-38.3,1.5-74.9,2-106.7-0.6
					l-10.8,75.3l-19.5-0.6l12.3-74.5l-64.4-8.2l-34.9,83.6l-20.1,0.4c13-21.9,45.4-92.6,51.5-99.6
					C18550.9-5748.9,18623.8-5761,18696.9-5771L18696.9-5771z M18683.4-5748.1l43.6,75.9l-70.1,0.3l-23.5-70.2L18683.4-5748.1z
					 M18421.2-5745.9c13.8,4,28.7,4.9,43.7,5.5l-12.7,67.9l-62.1-0.1L18421.2-5745.9z M18596-5737.9l16.5,65.9l-116.9,0.6l9.6-65.7
					C18535.9-5735.3,18565.9-5737,18596-5737.9z"/>
			</g>
		</g>
	</g>
</g>
<g id="path147-0-8-1-3-6-4-3-4">
	<path d="M130.6,223c7.8-0.2,11.3-9,5.5-15.8
		c-0.8-1-0.9-1.6,0.6-0.6c3.9,2.6,11.4,0.9,11.8-7.1c0.5-9.8-13.2-12.7-15.8-2.2c-0.1,1.1-1,1.1-0.8-0.5c0.2-4.2,1.6-8.2,3.4-12.1
		c-3.1,0-6.5,0-9.3,0c1.8,3.9,3.1,7.8,3.4,12.1c0.2,1.6-0.7,1.6-0.8,0.5c-2.6-10.4-16.3-7.6-15.8,2.2c0.4,8,7.9,9.7,11.8,7.1
		c1.5-1,1.5-0.4,0.6,0.6C119.3,214,122.8,222.8,130.6,223L130.6,223L130.6,223z"/>
</g>
<g id="path147-0-8-1-0-3-83-9-4-0">
	<path d="M48.2,26.5c7.8,0.2,11.3,9,5.5,15.8
		c-0.8,1-0.9,1.6,0.6,0.6c3.9-2.6,11.4-0.9,11.8,7.1c0.5,9.8-13.2,12.7-15.8,2.2c-0.1-1.1-1-1.1-0.8,0.5c0.2,4.2,1.6,8.2,3.4,12.1
		c-3.1,0-6.5,0-9.3,0c1.8-3.9,3.1-7.8,3.4-12.1c0.2-1.6-0.7-1.6-0.8-0.5c-2.6,10.4-16.3,7.6-15.8-2.2c0.4-8,7.9-9.7,11.8-7.1
		c1.5,1,1.5,0.4,0.6-0.6C36.9,35.5,40.4,26.7,48.2,26.5L48.2,26.5L48.2,26.5z"/>
</g>
</svg>
