<?xml version="1.0" encoding="utf-8"?>
<!-- Generator: Adobe Illustrator 15.0.2, SVG Export Plug-In . SVG Version: 6.00 Build 0)  -->
<!DOCTYPE svg PUBLIC "-//W3C//DTD SVG 1.1//EN" "http://www.w3.org/Graphics/SVG/1.1/DTD/svg11.dtd">
<svg version="1.1" id="Layer_1" xmlns="http://www.w3.org/2000/svg" xmlns:xlink="http://www.w3.org/1999/xlink" x="0px" y="0px"
	 width="178.8px" height="249.7px" viewBox="0 0 178.8 249.7" enable-background="new 0 0 178.8 249.7" xml:space="preserve">
<path d="M164.6,209.3c3.1-0.1,4.5-3.7,2.2-6.6
	c-0.3-0.4-0.4-0.7,0.2-0.3c1.6,1.1,4.6,0.4,4.7-2.9c0.2-4.1-5.3-5.3-6.3-0.9c-0.1,0.5-0.4,0.4-0.3-0.2c0.1-1.8,0.6-3.4,1.4-5
	c-1.2,0-2.5,0-3.7,0c0.7,1.6,1.3,3.3,1.4,5c0.1,0.7-0.3,0.7-0.3,0.2c-1-4.4-6.5-3.2-6.3,0.9c0.2,3.3,3.1,4,4.7,2.9
	c0.6-0.4,0.6-0.2,0.2,0.3C160,205.6,161.4,209.2,164.6,209.3L164.6,209.3L164.6,209.3z"/>
<path d="M14.2,40.4c-3.1,0.1-4.5,3.7-2.2,6.6
	c0.3,0.4,0.4,0.7-0.2,0.3c-1.6-1.1-4.6-0.4-4.7,2.9c-0.2,4.1,5.3,5.3,6.3,0.9c0.1-0.5,0.4-0.4,0.3,0.2c-0.1,1.8-0.6,3.4-1.4,5
	c1.2,0,2.5,0,3.7,0c-0.7-1.6-1.3-3.3-1.4-5c-0.1-0.7,0.3-0.7,0.3-0.2c1,4.4,6.5,3.2,6.3-0.9c-0.2-3.3-3.1-4-4.7-2.9
	c-0.6,0.4-0.6,0.2-0.2-0.3C18.7,44.1,17.3,40.4,14.2,40.4L14.2,40.4L14.2,40.4z"/>
<path d="M14.8,35h2.6l-3.9-9.7l-3,4.1V35h2.1v2.9H5.3V35h2.4V14.1H5.3v-2.5h7.5v2.6h-2.1v10.2
	l6.5-10.3h-2.3v-2.5h7.9v2.5h-2.1l-5.4,8.4L20.5,35h2.3v2.9h-8.2L14.8,35L14.8,35z"/>
<path d="M163.9,214.7h-2.6l3.9,9.7l3-4.1v-5.6h-2.1v-2.9h7.3v2.9H171v20.9h2.4v2.5h-7.5v-2.6h2.1
	v-10.2l-6.5,10.3h2.3v2.5h-7.9v-2.5h2.1l5.4-8.4l-5.2-12.5h-2.3v-2.9h8.2L163.9,214.7L163.9,214.7z"/>
<g id="g3440-6-4-8" transform="matrix(0.15086704,-0.00311503,0.00311532,0.15083482,965.0168,1197.8387)">
	<g id="g3454-7-1-1" transform="translate(346.10401,401.33141)">
		<g id="path3450-5-0-3">

				<path fill="#E2CF00" d="
				M-5726.3-8313.2l-433.2-6.8l52.8,106.3c112.7-7.9,211.3,3.2,313.9,8.7L-5726.3-8313.2z M-6029.7-7949.6
				c-0.5,0.6-18.2,4.8-16.4,8.9c43.8,100.1,62.7,181.2,79.7,283.4c9.8-7.7,25.5-7.1,25.5-7.1c-7-38,40.4-41.7,39.9-2.2
				c9,2.4,18.4,2.6,26.4,12c6-111.2,47.9-225.6,100.7-304.4c-58.8,22-145.3,78.3-145.3,78.3S-5989.9-7911.7-6029.7-7949.6
				L-6029.7-7949.6z M-5675.9-7930.4c-79.1,72.6-113.6,278.2-108.1,281.2c-99.8-5.4-132.4,105.1-47,166.8
				c-3.7,11.6-12.3,20.8-19.1,30.9c8.8,5.3,18.6,6.7,28.3,8c7.2,9,14.3,19.4,22.3,20.4c8.8-5.3,15.2-13.3,22.6-20.2
				c9.1-2.2,18.2-4.5,26.8-8.3c-7.4-10.9-16.2-21.9-16.2-31.9c76.4-52,67.6-125.1,0.4-163.8c22.8-122.3,53.9-200,89.2-255
				L-5675.9-7930.4z M-6211.7-7846.6c-9.9,4.6-15.5,14.8-22.8,22.6c-9.8,0.2-19.4,3.4-28.7,7.5c0,0,21.8,31.7,20.4,33.4
				c-73.8,46.6-74.7,117-5.7,164.8c9.8,100.4-77.8,257.1-81.9,252.5l-0.8,32.8c61.4-64.9,98.2-183.8,103.5-280.2
				c120-5.6,126.7-122.3,45.1-168c-6.2-6,21.4-32.6,21.4-32.6c-6.7-7-18.3-8-28.3-9C-6196-7830.7-6201.3-7838.5-6211.7-7846.6z
				 M-5706.6-7755.2c16.1,38.4,79-6.7,89.3,13.8c8.5,11.7,27.4,13.2,26.8-6.1c-3.1-19.3-15.6-23.8-65.3-16.4
				c-18.9,2.8-26.6,4.5-26.3-4.2C-5694.7-7784.3-5706.3-7762.9-5706.6-7755.2z M-5650.2-7698.5c-13.9-0.3-17.4,54.5-17.6,71
				c-41.5,63.3,81.4,58.6,29.7-12.4c2-9.1-6.3-24.2-5.9-30.7C-5648.3-7671.4-5649.7-7696.2-5650.2-7698.5z M-6370.5-7630.7
				c-1.6,16.6,9.4,67.2,13.9,65.5c16.2-25.2,14.8-47.1,13.7-72.2C-6303.8-7709.3-6432.5-7682.1-6370.5-7630.7z M-6137.1-7614.1
				c-7.8,107-36,211.5-96.8,301.4c51.2-22.9,101.1-52.6,149.2-78l109.9,71.9c6.5-2.7,11-4,15.3-8.2
				c-49.7-76.8-63.4-186.1-83.7-285.1c-8.6,5.9-24.7,8.6-24.7,8.6c-1.8,34.2-37.7,44.6-43.9-0.2L-6137.1-7614.1z M-6407.5-7536.1
				c-11.9,0.5-21.4,30,12.1,35.1c23.6,3.9,54.3-7.3,69.3-1.6c16.9,28.6,33.6-12.6,10.3-19.9c-25.1-7.8-76.6,10.2-82-6.1
				C-6400.7-7534.2-6404.1-7536.3-6407.5-7536.1z M-6215.2-7068.1l-69.6,118.3l429.3,6.3l-53.8-115.3
				C-5908.2-7060.1-6097.2-7040.1-6215.2-7068.1z"/>
		</g>
		<g id="path3446-6-3-4">

				<path fill="#D40000" d="
				M-6100.1-8202.1l8.2,15.8c100.9-14.7,180.1-15.6,283.7,6.8l9.8-16C-5893-8214.8-5989.6-8223.9-6100.1-8202.1z M-6010.1-7965.5
				l86.5,59.1c0,0,42.6-29.1,60.8-41.4l-10.5-16.4c-38.8,81.8-102.7,15.2-126.3-24.2C-5999.6-7988.4-6006.6-7973.5-6010.1-7965.5z
				 M-5775.1-7932.9c6.1,0,9.4,2.5,12.3,8.7c3.3,7.2,4.7,5.4,2.6-3.4c-3.2-13.9,11.6-22.6,25.2-13.1c9.8,6.9,9,23-1.9,25.8
				c-8.8,2.3-9.1,4.5-1.4,4.3c13.8-0.4,17.1,18.3,7.1,27.1c-11.5,10.2-25.8,2.6-26.8-10.6c-0.5-3.7-1.3-3.7-2.5-1.6
				c-3.7,5.9-4.1,13.8-3.6,21l-20.1-13.2c7.3-3.5,11.8-5.5,17.2-11c0.7-0.7,1.2-1.2,1.2-1.5c0-0.5-2.2,0.1-6.4,0.5
				c-12.4,1-21.7-7.3-18.9-18.8C-5788.8-7928.7-5783.6-7932.9-5775.1-7932.9z M-5871.7-7611.6c22.7-25.2,50.6-41.1,88.9-37.9
				c7.1-107.3,45.9-202,106.8-286.9l-64.2-40.7l-26.4,15.4C-5828.5-7872.9-5871.9-7760.2-5871.7-7611.6z M-6353.6-7872.6
				c0,0-44.6,32.4-65.5,48l-5.1,296.2l5.7,2c0.4,0.6-0.4-4.4,2.2-6.7c2.1-1.8,5.6-3.9,7.6-4.6c5.7-1.9,6-5.7,0.8-9.1
				c-4.1-2.7-5.5-6.7-4.9-13.2c0.4-4.6,0.2-5.6-1.6-8.8c-2.3-4-2.4-8.9-0.3-14c1-2.4,0.9-3-0.7-6.2c-2-4.1-2.2-8.6-0.5-13.3
				c0.6-1.8,1.1-5.7,1.2-8.8c0-11.8,9.8-19.5,27.7-21.5c7-0.8,7.2-1.1,4.2-7.1c-17.3-33.6,23.5-50.1,26.5-44.8L-6353.6-7872.6z
				 M-5798.9-7844.6c16.4,0.1,29.7,13.6,29.6,30.3c-0.1,16.6-13.5,30-30,29.9c-16.4-0.1-29.7-13.6-29.6-30.3
				C-5828.9-7831.3-5815.4-7844.7-5798.9-7844.6z M-5798.7-7839.3c-13.2-0.1-23.9,10.7-24.1,24c-0.1,13.3,10.5,24.2,23.7,24.3
				c13.2,0.1,24-10.7,24.1-24C-5774.9-7828.3-5785.5-7839.2-5798.7-7839.3z M-5798.3-7831.6c8.9,0,16.1,7.4,16.1,16.4
				c-0.1,9-7.4,16.3-16.3,16.3c-8.9,0-16.1-7.5-16-16.5C-5814.4-7824.3-5807.2-7831.6-5798.3-7831.6z M-6390.4-7831.5
				c1.2,0,2.5,0.2,3.8,0.6c7.4,2.6,9.8,9.2,5.7,15.4c-3.2,4.8-2.9,5.3,2.6,3.3c4.4-1.5,6.6-1,9.9,2.6c10,10.5-5.6,27.5-15.4,16.8
				c-4.9-5.3-5.4-3.8-2.1,5.2c1,2.9,2.8,7.5,2.8,7.5l-14.7-0.5c0,0,2.4-5.9,3.6-8.7c2.7-6.7,2.8-7.7-2.6-3.6
				c-12.2,9.3-25.5-7.4-14.2-17.8c2.3-2.2,5.9-2.2,10.9-0.1c3.7,1.5,4.1,0.5,1.4-3C-6404.6-7821.5-6398.8-7831.5-6390.4-7831.5z
				 M-6084.9-7798.6c-6.8,39.5-2.8,95.3-3.5,125.2c15.9,3.4,15.9,14.4,18.1,28.2c7.8-2.6,24.6,9.4,27,8.4
				C-6040.7-7677.1-6059.1-7794.5-6084.9-7798.6z M-5820.1-7753.4c22.7,2.3,18,20,11.1,27c-3.2,3.7-2.7,5.3,0.8,3.3
				c9.7-5.6,17.3-1.2,20.1,8.9c5,17.3-17.8,31.8-27.5,16.1c-3.2-5.3-5.4-4.2-4.7,1.3c0.4,5.3,5.3,16.4,5.3,16.4l-22.2-2.5
				c0,0,7-11.3,8.3-14.3c2.6-6.3,1.3-8.1-3.6-3c-14.2,12.6-33.2-4.3-23.8-21.2c4.6-8.3,12.9-10.9,21.5-4c5.9,4.1,7.2,2.4,1.9-2.5
				C-5842.6-7737-5833.5-7754.7-5820.1-7753.4z M-6390.9-7751.1c0.3,0,0.5,0,0.8,0c1.9,0.1,3.9,0.6,5.9,1.8
				c5.5,3.3,6.9,9.5,3.2,14.9c-2,3.1-1.5,5,0.8,3.1c3.1-2.7,9.9-0.7,12.6,3.6c6.7,11.1-7.1,25-15.4,15.8c-3.7-4.1-5.2-4.3-4.8-1.6
				c1.1,4.9,4.2,13.4,4.2,13.4l-15.4,0c0,0,3.6-8.8,4.4-13.2c0.6-3.6-0.8-3.1-4.6,1c-3.7,4-6.9,4.4-11.5,1.2
				c-11.1-7.8-1.7-26.9,10-20.2c4,2.4,4.6,1,1.5-3.3C-6404.8-7742.3-6398.8-7750.8-6390.9-7751.1z M-5589.1-7741.4
				c-25.6,25.5-17.4,10.4-6.2,30.4c-0.2,13.1,7.1,23.6,0.7,44c-2,4-2.2,5.9-1.2,10c-2.3,22.8-20.4,22.1-38.2,25.3
				c2.9-0.1,27,47-19.8,49.7l-3.4,189.6l74.3-53l5.8-296L-5589.1-7741.4z M-6140.1-7652.6c-21,13.1-50.8,46.2-87.4,38.1
				c-6.9,118.2-47.2,209-103.8,286.6c18.7,11.7,39.3,25.7,58.4,34.8c16.5-8.2,25.8-11.6,42.2-24.6
				C-6162.4-7419.2-6139.2-7531.3-6140.1-7652.6z M-5968.4-7627.5c2.4,60.8,11,118.6,41.4,165.4l4.8-129
				c-11.1-3-20.1-10.4-22.9-31.1L-5968.4-7627.5z M-6195.4-7596.3l20.9,0.9c0,0-5,9.4-7.1,14.8c-2.6,6.5-1.5,7.8,3.3,3.4
				c6.3-5.7,16.2-6.2,21.3-0.7c13.5,14.2-1.4,36.8-17.6,26.4c-6.9-4.4-8.1-3-2.6,3.2c10.5,10.3-1,24.7-13.6,24.5
				c-9.1-0.2-14.9-7.7-15.4-15.9c-0.2-5.1,2.4-10.1,6.8-12.6c4.7-2.5,1.4-4.3-3.6-1.6c-16.4,8.5-26.8-14.4-14.3-27
				c7.2-7.3,14.7-6.5,21.7,0.8c4.9,5,6.7,4.6,5.4-1.2C-6191.3-7588.1-6195.4-7596.3-6195.4-7596.3L-6195.4-7596.3z M-5631-7566.8
				l15,0.3c-1.5,3.7-3.5,7.5-4.8,11.2c-1.4,4-0.4,4.5,3.7,0.7c10.5-6.8,21.3,0.4,18.9,11.5c-1.7,7.6-8.1,11.3-15.4,7.8
				c-6.4-3.1-4.4-1.7-0.8,2.8c4.3,5.4,3,11.6-2.8,15.6c-10.4,7.1-23.6-5.3-16.6-15.7c4.2-6.1,2.2-5.5-1.4-2.6
				c-5.6,3.9-13.7-1.9-13.7-9.8c-0.4-11.4,11.1-17.5,19-9.3c3.8,3.3,4.7,3,3-1.8C-5628.6-7559.7-5629-7563.4-5631-7566.8z
				 M-5632-7484.2l15.7,0.1c0,0-0.2,1.2-2.7,5.7c-2.9,5.3-2.6,11,0.4,7.2c5.2-6.2,15.7-4.3,19.1,3.6c3.9,9.2-4.3,19.1-12.4,15.1
				c-5.3-2.6-5.7-2-2.2,3.2c3.4,5.1,1.7,11.3-4,14.8c-11.2,6.9-24.1-7.6-14.7-16.5c2.5-2.4,1.7-3.6-1.2-2.1
				c-12.3,6.5-21-10.3-10.2-19.9c4.6-4.1,8-3.7,15.2,1.6c2.2,1.6,2.7,0,1.2-4.1C-5630.5-7482.2-5632-7484.2-5632-7484.2z
				 M-6215.3-7486.2c17.5,0.1,31.6,14.5,31.4,32.2c-0.1,17.6-14.3,31.9-31.9,31.8c-17.5-0.1-31.6-14.5-31.4-32.2
				C-6247.1-7472.2-6232.7-7486.3-6215.3-7486.2z M-6215-7480.6c-14.4-0.1-26.1,11.6-26.2,26.1c-0.1,14.5,11.5,26.3,25.9,26.4
				c14.4,0.1,26.1-11.6,26.2-26.1C-6189.1-7468.6-6200.7-7480.5-6215-7480.6z M-6214.9-7470.4c8.8,0.1,15.9,7.4,15.9,16.3
				c-0.1,8.9-7.3,16.2-16.1,16.1c-8.8-0.1-16-7.4-15.9-16.3C-6231-7463.3-6223.8-7470.5-6214.9-7470.4z M-6256.3-7393.8l18.1,9.4
				c0,0-8.8,7-12.3,10.6c-4.5,4.6-4.3,6.9,1.7,4.7c11.4-4.1,22.6,2.6,22.6,14.4c0,15.9-18.8,23-27.4,10.9c-2.5-3.6-5.7-5.1-4.6-2.3
				c2.8,7.2,0.8,16.1-4.5,19.6c-4.3,2.9-12,3.6-15.8,1.4c-13.2-7.3-13.6-22.8-0.7-28.7c6.5-3,6.8-5.8,0.4-4.4
				c-13.2,3.1-20.5-13.2-10.9-24c10.4-11.5,26.7-8.7,28.1,8.6c0.3,3.1,2.3,0.9,3.5-3.8C-6256.8-7380.7-6256.3-7393.8-6256.3-7393.8z
				 M-6086.6-7364.2c0,0-67.7,37.1-65.8,38.7c0.4,0.2,14.4,21.1,14.4,21.1c34.7-75.3,112.9-10.8,124.9,28.3c2.7,1.7,3.2,1.3,6.2,2.7
				c0.3-2.8,6.4-29.5,6.4-29.5L-6086.6-7364.2z M-6202-7086.1l-11.1,15.3c-3.8,1.5,166.2,34.2,301.3,7.3l-8.9-18
				C-6030.8-7055.6-6203.7-7084.1-6202-7086.1L-6202-7086.1z"/>
		</g>
		<g id="path3444-9-5-7">

				<path fill="#131F67" d="
				M-6419.2-8338.4l-28.8,1395.1l865.4,17.9l28.8-1395.1L-6419.2-8338.4z M-6159.9-8322.2l434.5,7.3l-83.1,137.1
				c0.9-7.3-155.5-32.9-284.3-8.2L-6159.9-8322.2z M-6407.2-8324l236.3,4.9l76.7,145.6c0,0,4.5,9.1,1.5,18.4
				c-3.2,10.2-6,14.7-8.8,19.9c0.3-3-22.8-6.4-21.3,13.7c1,13.6,18,21.7,30.8,11.4c2-0.1,1.9,1.7,1.4,5.1
				c-1.3,7.8-10.1,32.3-15.7,33.8c-28.1-24.3-39.2,18.8-20.1,27.8c11.1,5.2,28.3,1.4,36.6-11.9c6.4-10.2,5.6-8.5,7.3,4.1
				c0.6,4.7,1.5,10.1,2,12.6c1.5,7.7-0.2,9.1-13,12.3c-10.4,3.8-20.7,5.8-31.4,7.9c-19.4,2.8-29.5,17.3-30.3,35.1
				c-0.2,3.9-0.1,5.6-0.9,6.8c-82.2,29.5-168.8,71.5-261.4,144.4L-6407.2-8324z M-5871.9-7970.4c-2.9-5.1-12.3-31.8-14.8-42.9
				c-6-53.7-6-117.4-12.6-167.3l9.9,1.3c0,0,3.4,14.5,6.7,53.6c1.6,19.4,2.8,59.6,4.1,78.1c1.9,27.5,13.4,71.7,20.7,82.9
				c12.1,18.3,37.2,7.2,29.3-14.4c-4.1-11.3-20.9-9.7-18.9,1.9c0,2,1.6-1.4,4.2-3.6c7.3-2.7,15.3,5.1,10.9,14.2
				c-5.5,11.6-21,5.9-26-8.9c-5.9-17.7,15.3-30.5,30.7-19.5c17.1,12.3,16.5,42.7,2.3,52C-5848.9-7934.8-5864.5-7952.5-5871.9-7970.4
				z M-5814.1-7946.8c-0.9-0.6,0.1-2.5,1.3-6.8c4.7-16.3,2.2-29.1-8-41.4c-5.7-6.9-7.9-8.1-4.8-9.2c6.5-2.5,20.7,8.4,24.5,18.7
				c3.7,10.2,4.5,20.8-1.2,32.2C-5806.3-7950.9-5812.4-7946.1-5814.1-7946.8z M-5796-7957.4c0-1.9,1.4-8,1.8-10.9
				c1.4-11.4-3.7-23.1-12.9-32.4c-7.7-7.8-8.4-8.6-1-8.6c19.2,0.1,30.8,31.6,21.6,46.9C-5788.8-7959.9-5796-7955-5796-7957.4z
				 M-5779.6-7967.6c6.2-26.6-19.1-45-19.6-44.1c1.4-5.9,11.5-2.4,14.9,0.1c12.8,9,19.7,32.1,11.5,45c-0.9,1.5-1.9,2.5-3.3,3.3
				c-2.7,1.6-4.3,3-4.9,1.7C-5781.3-7962.5-5779.8-7966.4-5779.6-7967.6L-5779.6-7967.6z M-6002.9-8058.9c2.7-2.6,3.5-2.7,8.6-0.6
				c15.9,6.4,29-4.9,25.5-17.2c-1.3-4.5-7.2-9.4-11-9.8c-6.1-0.7-6.2,2.5,0.2,5c8,3.2,8.6,11.8,1.4,15.6c-8.4,5.5-21.7-9.1-31.8-8.2
				c-4.8,1.3-7.9,5.7-5.3,11.4C-6013-8058.9-6005.9-8056.5-6002.9-8058.9z M-6020.7-8061c-5.6-2.8-7.6-2.8-6.5-8.8
				c0.8-4,7.1-31.1,10-41.6c8.8-31.3,1.5-49-21.4-56.5c-15.5-5.1-29-3-45.2,5.2l-2.6-9c67.1-16.2,180.8-10,180.4-9.4
				c2,9.1,2.7,18.2,3.4,27.2c0,0-21.1-11.1-32.2-14.7c-17-5.6-44.2-0.4-49.2,9.4c-2.8,5.5-1.5,9.3,10.1,3.4
				c19.1-9.8,57.4-1.2,70.7,9.9c3,2.6,2.9,3.1,2.9,6c0,4.5,0.2,4.7-5.9,1.3c-32.1-17.4-59.7-16-69.7,5.7c-2.1-0.7-10.5-2.3-10.5-2.3
				l8.7,13.6l1.4,14.1c0,0,14.5,8.5,22.6,12.2c7.9,3.6,3.3-0.1-6.3-7.3c-7.1-5.2-1.3-6.8,3.3-4.7c9.7,2.5,23.9,5.6,40.7-4.6
				c5.2-3.2,16.9-0.1,17,1.4c0,0,1.3,12.3,2.3,38.1c0.5,12.2,1.6,28.1,2.3,34.6c2.1,19.8,2.8,20.9-7.2,11.3c-3.3-3.3-9-8.6-9-8.3
				c-1.4,6,13.5,17.1,16.9,20.9c5.3,5.7,9.2,20.1,7.1,20.9c-1.3,0.5-15.5-12.1-26.6-23.4c-4.2-4.2-10.3-9.9-10.6-9.7
				c-2.3,1.5,6.9,12.6,15.6,20.8c10.1,9.6,11.4,10.5,7.8,11.9c-6.5,2.5-12.3-0.9-27.6-14.3c-1.5-1.3-7.3-5.6-7.6-5.3
				c-1.4,1.8,12.7,16,15.9,17.2c6.1,2.4,7.7,8.3,2.8,10.5c-3.2,1.5-15-5.3-24.4-13.9c-1.7-1.5-6.4-4.2-6.7-3.9
				c-1.9,1.2,8.6,10.8,18.7,17.2c9.8,6.2,11.5,7.8,8.8,12.8c-2.5,5.1-24.3-7.4-34.9-20c-2.2-2.7-4.1-3.9-3.7-3
				c4.5,13.5,20.1,23.5,31.6,27.4c2.1,0.7,5.1,1.6,6.4,2.8c3.2,2.8,2.4,5.5-1.1,7c-12.6,3.3-32-12.4-45.7-28.7
				c-1.6-0.7-0.7,1.4-0.3,2.2c11.4,19.1,33.6,34,47.2,31.6c7.9-1.4,14.3,1.1,14.3,3.8c0,2.1-4.5,5.6-13,6c-19.3,1-49-20.9-66-48.4
				c-0.5-0.8-1.2-1.1-1.2-0.7c-0.6,5.7,10,20.1,18.3,28.3c24.4,24.5,47.9,33.1,66.6,20c10.6-7.9,20.9-25.4,5.6-31.8
				c-8.1-3.3-13.5,8-6.5,4.8c9.2-0.9,11.2,4.1,9.9,8.7c-2.5,7.9-10.3,9-16.6,5.5c-11-6.2-8.1-26.9,6.2-30.2
				c13-2.9,23.9,8.4,25.3,18.8c1.9,16.3-16.5,33.5-31.3,37.6c-49.9,13.9-87.4-56.6-87.6-58.2c-2.4-4.9-5.4-7.5-7.3-1.9
				c-2.2,8.1-13.9,31.9-19.9,31.5c2-8.4,10.2-22.4,8.5-34.9c-3.6,10.1-11,31.8-24.6,43.1c-3.6,3.1-13.8,6.7-6.6-1.4
				c8.7-11.8,20.1-28,18.2-43.4c-2.3,3.4-3.8,12.2-6.4,17.9c-6.7,14.3-21.1,31.2-30.4,33.8c-6.9,1.9-6.2-0.4,0.9-7.7
				c7.7-7.8,21.4-30.9,20.8-41.1c-0.3-4.5-14.6,38.3-40,49.6c-6.9,2.4-10.7-0.9-10.7-0.9c10.1-5.5,38-32.2,36-63.2
				c0,0-1.5,4.5-3.9,11.4c-9.8,29.3-30.2,48.3-45.8,49.7c-12.4,1-21-4.2-17.9-6.3c16,0.4,29.4-4.9,40.1-20.5
				c10.9-15.9,15.2-41.6,9.4-69.1c-5.3-24.8-6-47-7.5-70.8c17.5,6.4,35.1,10.8,52.5,4.4c-1.8,7.1-4.8,7.9-9.3,13.1
				c-3.3,3.8-2.2,4.8,10.8-4.1c3.8-2.6,5.2-4.7,5.8-4c1.1,1.1-0.8,8.4-4.8,22.8c-6,21.6-4.6,23.1,15.8,31.7c3.9,1.6,5.2,3.2,6.5,4.8
				c0.6,0.8,3.9,7,4.2,7.3c0.7,0.5,0.7-6.2,0.3-8c-1-4.6-3.3-8.1-5.5-9.4C-6011.1-8058.7-6017-8059.3-6020.7-8061L-6020.7-8061z
				 M-5637.1-7770.2l0.7-22.5l21.3,16l-0.4,7.4L-5637.1-7770.2z M-5674.2-7766.1l7.8-416.3c0,0,16.8-10.8,25.3-16.2
				c4.9,16.6,4,52,1.8,67.7c-3.5,10.2-5.9,55.8-2.7,79.2c2.5,18.6,1.4,49.3-1.7,63.8c-1.2,5.7-0.9,32.6,0.6,57.5
				c1.1,19.1,0.4,36.3-2.1,46.1c-1.9,7.8-1.9,35.6-0.1,46.4c2.6,15.8,2.1,66.4,0.7,69.1C-5648.2-7764.8-5676.2-7764.8-5674.2-7766.1
				z M-5632.2-8201.1c0,0,16.5,11.5,24.5,17.3l-0.2,17.9l-23.8-16.5L-5632.2-8201.1z M-5882.8-8177.3l10.4,0.8
				c3.6,21.8,5,46.5,6.1,71.2c-0.3,38.1,3.5,78.3,11.9,104.9l-7.8,7.9c-12.4-30.4-12.4-78-14.6-110.4
				C-5877.4-8139.1-5882.6-8177.1-5882.8-8177.3L-5882.8-8177.3z M-5630.8-8175.9l22.2,15.9l-0.2,19.6l-22.4-15.7L-5630.8-8175.9z
				 M-5867.9-8175.5l9,1.2c2.2,25.8,6.1,43.3,7.2,71.7c1.3,36.8,7,67,10.3,95.7l-6.9,2.1c-4.6,2-11.5-31.9-13.4-100.7
				C-5862.2-8126.3-5865.2-8149.7-5867.9-8175.5z M-5854.2-8174.3l10.9,2.1c3.4,65.2,9.8,126.6,17,161.8l-9.4,0.4
				C-5846.5-8060.2-5846-8118.2-5854.2-8174.3L-5854.2-8174.3z M-5838.5-8171.6l9.9,1.9c8.9,149.2,16.4,147.5,18.5,153.4l-10.9,4.2
				C-5831.7-8055.2-5832.9-8115.6-5838.5-8171.6L-5838.5-8171.6z M-5796.2-8024.4c-1.8,5-5.9,4.4-10.2,4.8
				c-4.7-13.8-7.2-30.2-8.9-46.2c-3.8-35.2-4.8-68.1-8.8-102.9l11.9,1.4C-5812.8-8166.9-5806.5-8044.7-5796.2-8024.4z
				 M-6049.7-8160.6c15.6,1.1,28.5,8.5,29.6,18.9c0.2,2.4-1.6,1.1-3.7-0.5c-13.3-10.8-28.6-14.3-47.3-8c-4.1,1.4-7.4,3.6-9.2,3.3
				c-1.6-1.1-2-3.6-0.8-5.7C-6076.6-8159.8-6057.5-8161.1-6049.7-8160.6z M-6086.5-8140.5c0,16.4-4.2,25.4-12.8,29
				c-10.4,4.4-23.3-5.7-16.7-16.6c5-8.2,13.3-5.5,14.7,3.3l13.7-29.1C-6087.6-8154-6086.5-8144.6-6086.5-8140.5z M-5608.7-8133.3
				l-0.5,16.9l-23.8-16.8l1.9-16.2L-5608.7-8133.3z M-6036.8-8144.2c11.8,5,16,10.9,16.4,13.5c-0.7,1.9-1.9,0.6-10.4-4.3
				c-13.2-8.6-30.6-10.2-46.2-0.1c-3.9,0.7-4.2-1.5-0.3-5.6C-6065.4-8149.8-6049.3-8149.6-6036.8-8144.2z M-5946.5-8145.6
				c10.4-0.1,22.9,2.9,33.4,8.4c4.7,2.5,8.8,4,11.8,6.9c2.4,1.3,2.5,7,0.7,7.3c-1.6,0.2-4.2-1.1-8-3.9c-24.8-17-42.8-15.3-57.6-5.5
				c-0.8,0.5-3.3,1-4.3,0.9c-2.7-0.3-2.8-1.4-1.7-2.9C-5965.4-8142-5955.2-8145.5-5946.5-8145.6L-5946.5-8145.6z M-5633.1-8127.3
				l23.8,17.6l-0.3,16.8l-25.4-18.5L-5633.1-8127.3z M-6069.8-8129.5l3.5,0.2c7.8,20.3,18.4,10.1,22.8,2.1l4.3,0.8
				C-6046.4-8099.5-6073.5-8114.1-6069.8-8129.5z M-6075.9-8126.9c4,0.6,3.8,5.1,5,8.5c2.6,7.5-7.8,1-9.6-0.8
				C-6083.6-8122.6-6079.1-8126.6-6075.9-8126.9z M-5956.1-8125.2c10,16.3,16.3,6.9,22.4,0l2.8,1c-1,11.5-20.4,23.4-29-0.8
				L-5956.1-8125.2z M-5924.1-8122.8c1.1,0,3.3,0.9,5.4,1.7c5.7,2.5,5.3,4.1-1,6.9c-10.1,4.3-13.7,4.8-10.6-1.5
				C-5928.5-8118.6-5927.3-8122.4-5924.1-8122.8z M-5963.7-8121.1c2.5,1.9,4.2,4.1,4.4,7.5c0.2,2.4-7.7-0.5-7.6-4.3
				C-5966.7-8120.4-5965.4-8122.3-5963.7-8121.1z M-6033.7-8121.6c5.2,2,4.5,4.5,0.8,6.7c-6.6,3.5-9.3,2.8-5-2.9
				C-6035.9-8120.5-6035.5-8121.6-6033.7-8121.6z M-5635.1-8105l25.8,19.2l-0.6,17.1l-25.8-18.5
				C-5636.7-8094.7-5635.5-8099.6-5635.1-8105z M-6088.3-8087.9c1.2,0.1,1.6,4.2,1.8,10.2c0.3,10-10.2,23.9-20.5,28.6
				c-12.5,5.5-25.6-2.9-23.1-14.9c2.2-11.1,18-11.3,18.4-0.9c-1.6,2.7,0.5,5,1.4,4.8c4.1-1,13.7-9.4,17.9-19.1
				c1.6-3.7,2.5-7.6,3.7-8.5C-6088.8-8087.8-6088.5-8087.9-6088.3-8087.9z M-5636.3-8081.8l25.8,19.9l-0.2,17l-25.6-18.5
				C-5637.2-8071.1-5636.6-8076.4-5636.3-8081.8L-5636.3-8081.8z M-5954.5-8061.4c-2,3.3-0.5,9.3,3.7,4.3
				c10.7-12.1,25.5,3.6,17.1,13.2c-7.5,8.7-16.4,5.6-35.4-2c-13.8-5.6-16-3.9-19.5-0.1c-2.8,3.2-1.6,9.5,2,9.5
				c11.2,2.9,20.9,5.5,32.5,8.2c24.6,5.6,40.2-26.1,18-38.3C-5941.4-8069.5-5952.6-8066.1-5954.5-8061.4z M-6063.2-8060
				c-9.7,8.5-2.3,31.5,11.8,33.8c2.9,0.5,7.4,0.4,12.4-0.9c9.9-2.7,21-8.4,21.5-11.8c2.3-15.6-21-2-24-0.3c-7.4,4.3-15,3.6-18.8-1.8
				c-8.5-12.1,7.4-25.5,16.6-10.7c2.3,3.7,1.6-2.6-0.9-6.9C-6048.3-8064.5-6057.9-8064.3-6063.2-8060z M-5635.1-8056l24.2,18
				l-0.5,16.3l-23.5-17.8L-5635.1-8056z M-5633.8-8032.2l22.9,17.4l0.1,17l-24.1-16.8C-5634.3-8020.6-5634-8026.3-5633.8-8032.2z
				 M-5764.6-8025.1c20.5,0.7,31.4,31.5,20.4,44c-3.2,3.7-5.9,4.7-7.3,3.3c-0.3-0.3,0.3-3.7,0.6-7.6c0.9-12.3-1.5-20.8-10.2-30.3
				C-5767.7-8022.8-5770.3-8025.1-5764.6-8025.1z M-6016.9-8025.5c-3.9,1.3-8,4.1-11.2,3.3c-3.2-0.7-4.7,0.8-5.9,3.3
				c-4.9,9.4-3.5,12.5,5.9,7.3c4.5-2.5,6-1.5,17.8,1c8.4,1.7,14.1,1.7,21.6,0c9.2-2.3,14.8-2.3,19.4,0.4c4.7,2.7,7.7,6.2,7.9,3.4
				c-0.4-3.4-3.2-12.1-3.8-15c-0.3-1.4-2.6-0.2-4.8-0.1c-7.7,0.4-16.6-6.8-22.6-3.2c-4.8,2.9-5.5,3.6-11.9-0.4
				C-6009.3-8028.5-6012.8-8026.9-6016.9-8025.5z M-5770.3-8018.2c13.6,12,16.9,22.4,15.4,30.9c-0.8,6.1-1.4,13-7.5,16.6
				c-1.1,0.5-2.7,0.8-4.4,1c5.1-17.5-0.2-33.4-19.4-50.6C-5780.3-8022.9-5774.4-8021.9-5770.3-8018.2z M-6083.1-8024.7
				c0.6,0,1.3,0.1,1.9,0.4c2.4,0.8,2.6,7.2,0.7,9.2c-1.9,1.9-3.4,0.3-5.5-4.8C-6087.6-8022.8-6085.8-8024.7-6083.1-8024.7z
				 M-6096.1-8020c5.1,0,6.9,4.7,7.7,8.5c0.7,3.2-0.4,12.7-3,9.3c-0.6-2.1-3.2-8.6-5.4-10.3C-6101.7-8016.4-6101-8020-6096.1-8020z
				 M-6110.4-8015.6c0.7,0,1.7,0.1,2.8,0.3c7.9,1.5,13.7,14.3,11.7,21.5c-4.4,7.7-5.8,2.5-7-4.6c-1-3-4.2-7.6-6.1-9.9
				C-6113-8013.4-6113.6-8015.6-6110.4-8015.6z M-5634.9-8009.4l23.7,17.9l-0.3,18.6l-24.9-17.6
				C-5635.7-7997.1-5635.2-8003.3-5634.9-8009.4z M-6126.1-8012c11.8,0,21.6,14.3,17.5,27.5c-4.9,13.8-27.8,10.3-23.7-3.4
				c1.2-4,5.5-6.8,9.4-4.2c5.8,3.7,5.2-2.2,1.5-4.3c-5.7-3.4-13.5-1.5-15.4,4.9c-6.6,22.5,22.2,30.9,38.4,7.8
				c5.9-8.4,12.4-17.5,15.9-21.3c3.1-3.5,3.9-3.1,3.2,1.4c-2.4,21.1-17.6,47.1-44.9,45.1c-26.5-3.1-34.2-31.7-13.8-49.1
				C-6133.9-8010.3-6130.2-8012-6126.1-8012z M-5985.5-8007.9c-9.8,4.5-18.7,6.1-28.1,1.7c-7-3.3-7,0.1-4,3c8.7,7.8,25,4.7,32,0.5
				C-5983.3-8004.1-5982.4-8008.2-5985.5-8007.9z M-5611.6-7966.5l-0.3,17l-26.5-18.7c-0.3-4.1,0.2-10.2,1.2-16.6L-5611.6-7966.5z
				 M-5637.7-7961.4l25.3,17.5l0.3,16.8l-24.6-16.1L-5637.7-7961.4z M-5636.4-7937.8l24,17.6l0,18.3l-23.8-16.6L-5636.4-7937.8z
				 M-6233-7930.9l-15.9,45.4l9.7,0.8l6.4,12.2l7-12.2l10.4-0.6L-6233-7930.9z M-5635.8-7912.5l23.2,16.8l0,16.9l-24.1-17.6
				L-5635.8-7912.5z M-5637.3-7891.7l23.7,18.1l0.1,18l-27-18.9L-5637.3-7891.7z M-6177.9-7892.7l-15.8,48.5l8.4-0.9l7.5,13.2
				l8.1-11.6l7.5,0.6L-6177.9-7892.7z M-6289.5-7891.3l-15.1,48.2l9.4,0.2l7.7,12.4l7.2-11.7l10.8-0.1L-6289.5-7891.3z
				 M-5640.8-7869l27.9,20.7l-0.2,19.1l-27.1-19.1L-5640.8-7869z M-5613.7-7823.1l0,16.7l-23.5-17.6l-2.2-18.6L-5613.7-7823.1z
				 M-6120-7830.5l-18.4,49l11.7,0.3l6.8,12l5.9-11.8l9.3,0.3L-6120-7830.5z M-5635.9-7815.7l21.8,15.8l-0.5,17.2l-21.5-15.2
				L-5635.9-7815.7z M-6059.4-7624.6l-12.4-12.5c-0.1-1,10.5-5.9,16.8-2.6c8.4,4.5,12.5,20.1,2.7,28c-7.7,6.3-19.2,0.7-19.4-0.1
				L-6059.4-7624.6z M-6070.3-7645c0.6-18.8-9.1-24-17.2-28c0,0,1.1-119.8,1.3-123.3c0,0.5-1.8-13-2-13.8l0,0c0,0-1.9-0.6-1.9-0.5
				c0.1,12.2-1.6,136.6-2,137.4c-15.3,1.4-19.8,11.8-21.4,25.8c-11.9-1.1-19.8,5.9-20,7.1c-4.3-6.1-0.8-15.1-4.2-21.5
				c-11.3,37,8.7,59.7,26.7,58c2.1,35.8,41,43.1,40.6-0.3C-6023.1-7606.1-6038.2-7650.1-6070.3-7645L-6070.3-7645z M-6288.9-7799.9
				l-18.1,48l12-1.1l4.2,9c19.5-16.7,28.7,9.9,19.4-12.9L-6288.9-7799.9z M-5641.3-7700.5c2.2-0.1,5.1,1.9,5.6,4.7
				c0.2,8.2-10.6,6.1-10.9,0.9C-5646.6-7698.5-5643.3-7700.4-5641.3-7700.5z M-5635.2-7647.2c4.8-3.8,12.2-1.4,12.2,4.4
				c0,5.2-5.9,6.8-10.5,3.8C-5637-7641.4-5637.2-7645.5-5635.2-7647.2z M-5634.9-7632.9c25.7,2.6,45.2-14.8,37.2-27.6
				c7.1-8.6,1.5-13.7,3.6-18.7c5.6-5.5,1.2-17.7-0.1-17.8c-0.8-16.3-5.4-18.5-12.3-27.3c-2-2.6,5-4.9,7.7-9.1
				c-8.2,2.1-12.6-2.2-16.9-7.9c-47.6,1.2-90.4,3.7-90.1,68.8c-7.4,27.4,3.6,52.3,37,45.5c7.4-6.5,2.8-16,2-20.6
				c-2.5-12.6,0.9-20.7,1.9-26.5c3.3-18.1,16.8-34.7,17.7-6.3c2.4-3.6,1.3-4.1,5.2-5.5c9.2-3.2,9,6.1,7,9.9c-1.2,1.9-3,1.7-4.9,1.4
				c-2.6-0.4-6.1-1.4-6.1-2.5c-0.8,3,4.7,8.6,4.1,11.4c-0.8,2.7-1.2,2.4,1.2,0.7c11.6-8,18.4,10.5,1.9,8.1
				C-5630.8-7652.2-5643.1-7639.6-5634.9-7632.9z M-5649.8-7732.5c9-0.3,11.2-0.3,10.7,4.5c1.5,8.8,3.7,13,15,12.3
				c11.5-1.2,15.1-2,3.4,4.8c-5.9,2.5-7.8,3-14.7,2.2c-7-0.8-6.4-1.4-10.5,0.8c-2.2,1.3-4.8,2.9-6.5,3.2c-2.7,0.4-7.4,1.3-7.4,1.3
				c-2.9,13.6-7.2,20.5-13,26.8c-8.1,8.9-12.2,10.5-2.4,10c3.6,0.3,1.7-1.5,3,13.2c0.4,5.2,1.3,11.2,2,13.2c2.4,6.8,2.6,10.1-7,10.4
				c-24,1.3-29.2-22.4-25.8-34.4c0.3-1.8,1.5-8.2,1.9-13.1c0.2-2.8-0.3-5-0.2-7.8c1-22.5,6.4-28.4,26.5-42.6
				C-5668.5-7732-5657.7-7732.6-5649.8-7732.5z M-5628.7-7730.9c11.1,0,21.7,5.6,16.3,9c-3.6,2.1-16,1-19.4-1.5
				C-5636.2-7726.8-5634.4-7730.9-5628.7-7730.9z M-6124.2-7722l-4.6,7.8c1.7,17.2,1.8,26.2-4.7,44l8.8,12.2l7.4-12.3l11.3,0.4
				L-6124.2-7722z M-5604.9-7714.9c7.2,1.6,7.3,8.2,5.4,12.3c-4.2,8.9-31.2,12.7-31.2,12.7c-0.1-3.9,0.5-7.6-2.2-12
				c0,0,18.1-4.4,21.9-7.8C-5608.5-7712-5606.9-7714.9-5604.9-7714.9z M-5600.1-7694.4c2.6,0.1,4,2,4.6,5.9c0.3,2.1-0.5,3.9-2.2,6
				c-7,7.4-26.3,12.2-33.2,10c-0.5-0.6,0.9-8.5,1.4-12C-5620.2-7683.9-5604.5-7691.9-5600.1-7694.4L-5600.1-7694.4z M-5874.6-7653.9
				c-8.9-13.5-29.3-12-27.1-11.1c0.4-11.5-1.2-27.2-18.4-29.2c-17.3-1.6-26.7,21.2-20.3,31.1c-10.7-4.7-26.9,6.2-26.9,7.3
				c-1.3,0-14.3,32.5,22.8,34.9c3,15.6,8.7,23.1,20.4,29.7l-2.3,126.2l4.1,5.8l3.1-132.2c19-0.4,21.8-22.3,20.5-27.5
				c8.4,0.5,16.1-1,22.7-5.8l1.8,21.6c0,0,4.6-7.5,3.8-11.6c-5.8-124,41.4-257.2,101.5-342.8c3.1-3.6,4.3-7.9,5.8-7.9
				c14.4-7.5,23.4-12.5,23.4-12.5c23.2,11.9,64.5,40.1,64.5,40.1l-3,176.6c-0.6-1.7,78.1-7.3,76.9-5.1c0,0-6.8-2.9-6.8-7.5
				l6.5-413.1l-33.9-23.3c0,0-28.6,18-36.7,24.3l-4.1,243.2l-60.2-37.3c0,0,1.1-8.6,1.3-11.4c-0.3-33.2-16.2-44.6-47.1-35.4
				c-4.2,1.2-7,2.4-9,0.6c-12.2-38.4-15.9-138.9-15.9-138.9l89.7-146.5l147.1,2.2l-9.1,566.7l-0.8,297.1l-76.2,53.7l2.9-190.3
				c0,0-10.7-5.4-13.5-5.8c-1-0.1-2.4,2.3-0.6,3.5c2.7,1.8,9.4,4.5,9.4,4.5l-2.3,188.5c0,0-29.6,19.3-42.8,27.3
				c-24.7,13-48.9,25.3-74.4,36.1c-25.1,10.2-80.3,32.1-80.3,32.1c-4.5-16-50.6-53.9-103.9-28.9c-4.9,1.7-10.9,3.2-15,5.9
				c-20.2,3.3-27.3,24.9-30.8,45.9c-0.1,0.8,1.6,0.7,1.6,0.7c0.2,0.3,5.2-20.2,7.1-24c4.1-8.2,9-13.1,11.7-13.8
				c1.2-0.2,2.1,1.6,0.5,4.6c-3.4,5.7-6.2,18-7,23.7c-0.8,5.1-1,9.2-0.1,9.4c0.2,0.2,5-15.5,7.1-21c5.6-14.3,9-20.3,14.2-23.3
				c5.3-3.1,6.5-2.6,5.4,0.7c-8.1,15.2-11.5,26.6-13.4,42.9c-0.3,3.3,1.3,3.4,2.7-2c4.6-17,11-40,24.9-46.6c6-2.6,8.5-2.4,7.9-0.5
				c-16.9,20.6-21.4,43.7-21.4,51.3c0,2.5,1,2,3.2-3.4c6-20.5,14.6-37.9,24.6-46.3c3.9-3.3,8.4-4.1,12.3-4.5
				c11.7-1.2,12,3.2,1.7,8.9c-11.7,6.6-25.5,30.8-27.3,49.3c-0.6,6.4,1.6,7.2,3.4-1.3c7.6-36.6,39.3-60.2,64-48.5
				c11.2,5.3,13,12.4,3.3,9c-19.7-6.8-42,7-51.4,26.5c-8.5,17.7-8.6,27.1-3.4,51.2c3.5,22.2,10.5,50.6,7.6,72.2
				c-2.8,4.2-11.3-1.9-21.4-3.5c-6.1-1.2-13.6-1.7-20,0.6c-5.6,2.1-8.8,2.6-9.7-0.5c-0.3-1,4.5-5.6,6.5-8.3c3.3-4.1,1.5-4.8-3.2-0.4
				c-2.3,2.2-7.3,7.4-8.6,7.6c-2.9,0.5-3-2.8-0.5-11.3c9-32.9,6.8-33.5-7.3-40.5c-14-5.7-9.5-8.4-15.6-13.9
				c-4.5,3.4,5.4,19.6,16.8,23.3c9.3,3.1,8.1,7.9,3.8,20.9c-4.6,18.2-12.2,42.3-8.4,58.6c8,34.3,42.3,34.3,68.9,21.1l3,8.8
				c-22.4,8.6-139.8,14-179.2,8.5c-2.8-10.9-3-13.6-4.1-26.3c0,0,24.1,11.7,36.3,13.8c15.1,2.8,38.6,3.4,44.9-10.7
				c1.9-4.1,0.1-7.7-5.2-5.3c-9.7,4.2-26.3,7.2-39.6,6.1c-11.2-0.9-27-5.8-33.8-10.1c-3.2-2-5.9-6-3.2-10.9c2.2-0.5,5.2,2.1,7,3.1
				c20,10.6,30.9,12.9,44.2,9.2c10-2.8,23.7-13.4,20.5-16.5c-3.4,1.1-14.8,10.4-22.5,12.3c-15.9,3.9-32.8-3-49-14
				c-5-4.6-2.6-7.8,3.6-4.1c24.5,13.1,34.6,21.6,58.5,4.5c5.4-3.9,8.3-3.3,11.4-0.8c12.1,11.4,12.2,5.1,3.3-6.6
				c-2-2.7-3.8-6.4-4.9-10.3c-0.8-2.9-1-5.8-2.5-7.7c-2.7-3.3-7.7-4.9-13.4-7.7c-8.2-3.9-11-2.1-5,1c10.6,5.5,15.7,11.3,2.4,7.9
				c-12-5.7-32.2-3.1-43.7,4.7c-9,4.2-13.1,8.8-15-1.1c-4-20.9,0.9-49.1-4.2-85.5c-1-7-2.3-11.4-0.8-12.3c1.8-1.1,6.4,3.4,11.9,11.6
				c2.5,3.7,7.5,11,7.5,9.4c0.3-7.7-11.2-22.3-20.9-28.3c-5.3-3.3-8.6-17.7-2.5-14.4c4.7,2.5,28.9,24.9,33.5,32.8
				c2.1,3.7,4,1.4,1.8-2.9c-1.3-2.6-7-10.2-12.5-15.9c-9.8-10-11-9.6-9-11.6c3.9-3.9,11.9,1.4,26.2,14.9c3.6,4.8,8.4,9.2,7.9,6.9
				c1.5-3.7-12.7-19.7-21.1-24.1c-1.6-1-1.8-2.1-1.6-4.1c1-7.4,17.5,3.9,30.9,16.9c5.1,4.9,1-4.2-4.9-10.4
				c-4.7-4.9-12.1-11.1-17.2-13.2c-5.1-2.3-5.3-6.8-1.2-8.6c13.9-0.3,27.9,14.3,36.2,25.7c2.3,3.2,4.4,5.5,2-0.3
				c-7.5-17.7-23.7-28.1-35.1-30.2c-9.2-1.8-8.8-10.2-0.2-9.1c9.5,1.2,25,10.2,37.9,24.1c3.8,4,10,13,8.8,7.8c0-1.4-4-7.1-8.5-12.5
				c-10.7-11.1-23-21-36.3-24.2c-6.2-1.9-24.9,1.3-24.9-1.9c0-2.4,2-3.8,8-5.6c23.1-7.3,56.3,13.4,74,44.3c1.2,2.3,3.8,3.2,3.9,2.7
				c-8.3-25.2-35.4-48.4-57.2-52.7c-14.8-2.8-29.9,0.8-37.3,10.8c-8.3,11.3-5.5,26.5,6.7,25.6c6.4-0.5,5.9-4.1,5.8-4.2
				c-0.4-0.4-4.2,1.2-6.4,0.7c-8.2-1.8-7.1-16.9,5-15.2c13.9,2,15.3,24.2-0.2,28.5c-14.4,4-19.6-2.8-23.3-10.6
				c-5.5-11.6,1-30,11.3-36.9c28.7-19.3,64.2-1.9,84.1,18.2c9.8,9.9,16.9,21.7,21.2,34.3c1.1,3,3.7,2.7,2.5-0.3
				c-27-74-112-84.4-125.6-27.6c-20-33.1-37.9-35.7-65.8-22c-28.4,11.2-42.5,20.5-68.8,32.3l-58.4-33.3c-2.2-59.3,0.9-118.7,2.4-178
				c0.2-1.3-12.8,0.7-34.5,3.7c-57.6,10.4-52-20.6-59.6-22.3c-4-0.9-3.8,0.8-2.6-108.6c0.3-31.8,0.8-87.7,1.1-124.1
				c0.3-36.5,0.8-66.9,1.1-67.5c0.3-0.6,3.6-3.4,7.4-5.9c14.2-9.7,22.2-15.6,53.3-38.6c7-5.2,8.8-6,8.8-6
				c2.1,65.7-2.5,134.7-1.9,191.2l2.6,0.1l2.9-189.7c-5.3-1.5,122.3-73.4,191.9-96.1c1.3-0.4,4.5,1.1,4.5,1.1
				c38.7,49.9,143.3,37.1,152.9-22.4c16.5,36.8,91,109.1,127.4,24.6c0,0,12.1,24.8,22.8,26.6c24.2,3.8,27-0.1,80.9-25.1
				C-5832.2-7872-5867.8-7773.6-5874.6-7653.9L-5874.6-7653.9z M-5906.6-7677.9c1.2,4.2,1.6,9.5,0.4,13.7c-1.6,3.3-4,3.2-4,3.2
				l-11.6-10.4l-11.8,10.5c0,0-6.9-7.4-2.8-17.2C-5928.7-7691.9-5911.9-7689-5906.6-7677.9z M-5601.3-7673.2
				c7.6-0.3,3.5,8.4-7.8,14.1c-7.1,3.6-13,4.5-15.4,3.1c-1.3-4.2,0-7.9,0.8-9.5C-5618.8-7668-5605.7-7672-5601.3-7673.2
				L-5601.3-7673.2z M-6090-7666.8c8.4,0,15.5,6.1,15.6,16.9c0,4.4-2.3,8.6-2.3,8.6l-13.8-10.8l-11,11.3c-1.8,0.6-8.2-7.8-3.6-16.7
				C-6101.5-7663.9-6095.7-7666.8-6090-7666.8z M-5887.1-7657.7c11.7,5.6,13.4,22.3,1.8,28.6c-5.5,3-14.1,4.5-18.1-1.8l11.9-12.5
				l-13.1-11.6C-5905.1-7655.7-5894.3-7661.2-5887.1-7657.7z M-5603.6-7656.2c2,0,2.5,0.8,3,2.8c1.5,5.4-2.7,10.9-10,12.5
				c-6.8,1.4-6.1,2.3-9.2-3.9c-2.4-4.8-3-4.6,0.9-6C-5614.3-7652.3-5609.1-7654.1-5603.6-7656.2z M-5939.6-7654.9
				c0,0-8.5,8.4-12.3,12l12.4,13.5c0.6,1.6-14.7,8.2-22.4-2.3c-5.1-6.9-1.8-19.8,5.6-24C-5948.9-7660.3-5938.2-7656.3-5939.6-7654.9
				z M-5921.5-7656.1c7.4,0,13.4,6.1,13.4,13.7c0,7.5-6.1,13.6-13.6,13.5c-7.4,0-13.5-6.1-13.4-13.7
				C-5935-7650.1-5928.9-7656.2-5921.5-7656.1z M-6106.2-7637l-12.4,12.5l12.8,14.6c0,0-10.3,1.5-14,0.7c-17.8-3.7-15.5-24.8-1.7-30
				C-6115.6-7641.1-6111.4-7640.4-6106.2-7637z M-6343.5-7637.5c0,0,1.8,27.1,3.9,36.4c-1.6,10.5-8.5,17.5-11.8,28.4
				c-1.7,4.8-7.9,11.2-9,4.3c-4.3-8.5,0.2-18.7-3.3-24.8c-2.6-5.7-1.1-8.8-2.2-14.6c-3.3-4.9-4.9-7.1-4.3-11.4
				c-0.3-19.2-5.2-15.5-13.6-14c-32.7,2.2-33.1,21.1-31.6,45.3c-5.1,22.5,3.5,17.3,3.1,21.4c-0.6,6.4,0.3,15.5,2.1,16.5
				c11.4,13.7,11.8,23,26.9,21.1c25.6,2.6,66.4-0.4,75.8-31.8C-6300.9-7605.4-6298.4-7647.7-6343.5-7637.5z M-6088.7-7636.7
				c7.2,0,13,5.9,12.9,13.2c0,7.3-5.9,13.1-13.1,13c-7.2-0.1-13-5.9-12.9-13.2C-6101.8-7630.8-6095.9-7636.7-6088.7-7636.7z
				 M-6332.4-7634.8c4.9,0,10.6,1.2,15.1,5.8c9.8,9.9,10.1,18.7,4.9,56.1c-1.4,10.5-5.4,19.3-10.2,23c-9.9,7.5-22,12.8-32,15.1
				c-5.3,1.2-9.7,1.1-13.3,1c-3.8-0.1-6-1.9-6.2-5.1c1-8.7-7.8-9.7-12.9-9.3c-9.1,0.2-10,1.1-4.3-3.2c6.6-4.9,21.5-4.7,24.3-1.6
				c6-5.7,12.1-6.4,19.5-7.1c-1.1-1.6-3.6-8.3-1.7-12.4c4-6.8,10.8-18.6,17.7-23c6.9-8.7,1.1-4.8-3-4.8c-2.3,0-2.1-0.7-2.5-2.4
				c-1.5-7-3.7-20-3.5-27.7C-6340.7-7634.2-6337.2-7634.9-6332.4-7634.8z M-6375.5-7626.1c2.5,2.5,2.4,5.7-0.3,8.1
				c-3.2,2.8-9.4,1-9.5-4.2C-6384.8-7627.5-6378.6-7628.9-6375.5-7626.1z M-5921.8-7598c-11,0.3-19.7-11.7-15.3-23.4
				c2.3-3.2,3.2-2.7,3.2-2.7l12.2,11.5l12.2-12.4C-5899.9-7612.6-5908.6-7598.6-5921.8-7598z M-6388.8-7625.9
				c-0.9,3.4,0.1,6.9,0.2,8.5c-2.2,1.5-11.5,4-16.4,6.4c-3.4,1.1-5.9-2.2-5.4-5.1c1.4-5.5,9.5-9,15.4-10.6
				C-6393-7627.1-6390.1-7627.2-6388.8-7625.9z M-6387.1-7610c3.3-0.3,2.2,7,0.9,10.6c-1.3,2.7-5,2.5-8.2,2.6
				c-5.8,0.2-13.3,6.9-16.4,5.6c-1-0.5-1.7-3.3-1.8-5.1C-6411.8-7605.9-6395.7-7609.2-6387.1-7610z M-6369.7-7599.4
				c-1.1,1.6-4.8,2.4-7.7,1.4c-4.9-1.4-5.5-8.5-1.1-10.9C-6370.9-7611.3-6366.6-7604.1-6369.7-7599.4z M-5886.9-7605.6l-6.8,10
				l-10.1-0.4l15.2,50.7l7.9-19.6c1.2-9,2.5-18,3.7-27.1L-5886.9-7605.6z M-6101.1-7605.7l12.7,10.9l11.3-11.2
				c7.8,18.6-1.8,26.9-11.9,26.5C-6100.2-7580-6111.8-7591-6101.1-7605.7z M-6384.2-7592.5c4.1-0.7,2.1,10.4,1.5,10.6
				c-2.6,0.9-13.9,2.2-18.7,6c-10.3,7.8-14.4,2.8-9.5-6.7C-6406.3-7587.8-6390-7592.5-6384.2-7592.5z M-6371.4-7591.8
				c4.5-0.3,7.5,4.7,4.7,9.4c-3.8,3.4-10.3,0.7-10.2-4.2C-6376.8-7589.6-6374.2-7591.7-6371.4-7591.8z M-6378.6-7563.6
				c0.6,2.7-0.3,1.7-5.1,3.1c-2.6,0.7-6.7,2.4-11.1,4.5c-6.3,3.1-8.1,4.7-10.3,4.3c-1.7-0.4-3.7-1.2-4.3-3.1
				c-2-7.3,4-14.4,17.6-19.2c2.8-1,7.9-1.7,9.6-1.8C-6377.5-7575.8-6382.6-7568.7-6378.6-7563.6z M-6370.4-7574.2
				c6.5,0,7.6,8.8,2.6,10.2C-6379.3-7561.2-6378-7574.4-6370.4-7574.2z M-6379.2-7542.2c1.8,1.8,2,4.7-0.1,6.3
				c-3.9,1.8-18.3-0.1-18.3-4.2c0-2.7,4.9-3.5,9.3-3.5C-6383.6-7543.7-6380.6-7543.6-6379.2-7542.2z M-5724.9-7524.2l-12.3,15.9
				l15.2,40.9l15.6-48.8l-11.6,4.4L-5724.9-7524.2z M-6401.4-7496.5c0.2,124.7-6.2,410.6-6.2,410.6l34.7,24.9l37.6-26.1
				c1.4-89.9,2.4-152,3.8-235.3l53.7,31.2c0,0,1.6,2.5,1.1,13.7c-4.4,31,25,51.8,44.9,39.9c7.7-3.1,8.3-3.6,9.8-1.1
				c4.3,6.8,8.7,35.5,9.2,53.8c0.7,27.5,6.7,83.8,8.4,84.2l-91.4,148.4l-139.7-2.8l11.6-560.2
				C-6416.9-7506.9-6413.3-7501.2-6401.4-7496.5L-6401.4-7496.5z M-5888.9-7497.9l-6.8,10l-8-0.2l13,52.5l18-50.7l-9.3-1.3
				L-5888.9-7497.9z M-6339.5-7090.9c0,0-17.5,12.1-23,15.6c-2.9,1-4.3,1.2-5-1.6c-0.8-3.5,0.7-9.9,2.1-20.6
				c1.3-9.8,1.3-10.4,0-24.6c-1.4-14.7-1.6-15.4,0.2-34.8c2-21.7,2.8-42.7,1.3-55.8c-1.3-12.4-0.7-40.8,0.8-56.4
				c1.9-19.3,1.7-36.3-0.5-50.4c-4-25.1-4.6-33.7,0.5-52.4c1.9-7,2.8-10.8,2.7-22.5c-0.1-13.1-0.3-17.4-4.4-46.5
				c-2.3-16.8-2.5-19,0.5-45.5c0.6-5.3,0.8-8.9,2.9-10.6c2.4-1.9,26.9-2.9,26.9-2.9L-6339.5-7090.9z M-6395.6-7495.9l26.7,0.3
				c-2.2,8.4-2.8,14.9-3.1,20.9l-23.3-16.2L-6395.6-7495.9z M-6395.4-7485.1l23.1,16c-0.1,6.6-0.7,12.7,0.1,19.2l-23.4-16.4
				L-6395.4-7485.1z M-6395.9-7460.7l24.8,17.8c0.8,6.8,2.7,13.6,3.4,19.8l-28.1-20.1L-6395.9-7460.7z M-5583.8-7437l-9,499.1
				l-250-5.2l-76.1-155.4c0,0,1.1-14.1,3.3-21.3c2.5-8.7,3.2-10.5,6.6-11c8.8,4.8,18.9-1.1,22-7.9c3.9-8.3-3.4-21.2-14.9-24.2
				c-5.1-1.3-10.8,0.8-16.4,5.1c-3.3,2.7-4.1,3-4.7,0.6c-1.3-5.4,3.8-20.1,12.5-32.6c4.9-7,6.2-8.9,7.7-6.3c6,11,19.4,9,24.6,3
				c6.3-7.3,5.4-24.2-8.4-29c-26.9-9.3-39.9,17.9-39.6,17.8l-5.2-33c32.8-7.4,51.6-9.8,62.2-19.7c8.3-7.7,12.5-21.2,11.8-33.3
				c0,0,91.4-35.2,134.3-57.5C-5649.5-7385.5-5583.8-7437-5583.8-7437L-5583.8-7437z M-5721.9-7436.2l-6.9,11.8l-9.5-0.2l18.2,50.7
				l15.7-52.1l-9.2,0.6L-5721.9-7436.2z M-6395.2-7435.7l28.4,20.6c0.5,6.6,1.2,12.3,0.2,19.7l-29.8-20.9L-6395.2-7435.7z
				 M-5833.6-7430.3l-7.4,9.4l-8.2-1l15.2,50.1c5.2-14.2,10-33.7,15.2-48l-7.7,0.2L-5833.6-7430.3z M-6396.2-7410.2l29.4,20.5
				c0,6.1,0.2,12-2,16.3l-27.7-18.7L-6396.2-7410.2z M-5778.5-7394.5l-7.5,13.9l-9.6-1.5l16.2,48l19.8-46.9l-11.7,0.4
				L-5778.5-7394.5z M-6396.7-7386.9l25.5,19.7c0.4,0.3-1.6,8.7-1.3,13.5l-24.2-15.8L-6396.7-7386.9z M-6396.4-7363.3l23.7,17.2
				c-0.1,6.3,0.2,12.3,1.1,17.7l-25.8-17.7L-6396.4-7363.3z M-6397.4-7339.2l27.4,20.6l1.1,16.1l-29.1-19.4L-6397.4-7339.2z
				 M-6168.3-7327.7c26.5,10.6,50.5,62.4,48.4,128.7c-1.5,46.1,10.9,112.1,10.7,111.4c0,0-7.8,0.9-9.9-0.9c-9.3-34-12-69.8-13-99.4
				c-0.8-24.6-1.7-48.7-3.1-54.5c-4-20-8.2-43.2-20.5-58.5c-9.5-11.6-20.7-13.8-27.6-1.1c-5.7,10.3,5.5,27.9,15.1,22.3
				c2.3-1.2,3.8-3.5,0.7-3.5c-9.9,1.3-16.3-12.7-9.9-19.1c11.3-11.4,30,14.8,20.8,29c-4.1,6-14.4,7-22.6,4.5
				c-18.2-9.3-22.3-31.4-15.9-45.8C-6190.3-7325.5-6179.8-7331.9-6168.3-7327.7L-6168.3-7327.7z M-6200.8-7321.8
				c2.1,0.1,0.6,4.2-1.5,10.4c-5.1,15.1,3.3,38.6,15.5,43.6c3.6,2.6,3.4,3.6,0.9,4.9c-8.1,4.4-22.4-9.5-25.9-24.8
				c-2.5-11.1-1.6-24,3.8-29.4c2.9-3,5.2-4.5,6.8-4.7C-6201.1-7321.8-6201-7321.8-6200.8-7321.8L-6200.8-7321.8z M-6398.2-7317
				l29.3,20.3c1.2,6.1,0.5,12.7-0.5,19.3l-29.3-21.5L-6398.2-7317z M-6218.8-7313.5c2.2,0,1.3,3.7,0.5,10.4
				c-1.7,15.8,2.8,27.2,13.7,37.1c4.6,4.1,5.8,5.4,3.8,7.5c-2.9,3-11-1.2-17.3-8.1c-11.5-12.6-14.8-35.8-5.6-44.1
				C-6221.5-7312.5-6219.9-7313.5-6218.8-7313.5L-6218.8-7313.5z M-5888.2-7304c12.7-0.2,23.3,4.9,24.1,20.7
				c1.2,22.9-20.2,35.1-34.7,21.6c-13-13.5,0.9-33.9,16-23.9c7.6,5.1-1.8,16.1-7.9,10.1c-2.7-2.7-4.1-1-2.1,1.9
				c5.9,9.2,17.9,1.9,17.3-6.1c-1.3-15.8-20.5-16-27.9-9.9c-10,8.2-19,20.5-25.7,29.4c-5.5,7.8-6.6,7.5-5.7-2.2
				C-5932.1-7287.9-5908.1-7303.5-5888.2-7304L-5888.2-7304z M-6234.2-7306c2,0,1.1,2.9,1.1,10.4c0.4,19.4,8.2,31.6,18.4,38.6
				c3.3,3.9-1.1,6.6-7.5,4.5c-14.6-4.9-29-37.2-16.2-50.7C-6236.6-7305-6235.3-7306-6234.2-7306z M-6248.7-7300
				c2-0.1,0.8,4.2,0.8,12.3c0.1,17,5.1,25.3,17.4,35.9c4.1,3.5,4.6,3.1,2.8,4.9c-4.4,4.9-18.8-2.5-24.8-12.8
				c-7.1-12.3-7.8-30.6-0.8-37.4C-6251.2-7298.9-6249.7-7300-6248.7-7300z M-6263.1-7292.1c1.7,0,0.7,3.1,0.8,10.4
				c0.3,17.8,4.2,26.7,15.1,35.2c6.9,5.3,8.6,3.8,6.5,5.8c-3.9,3.5-14.1,0.2-21.7-6.6c-11.4-10.1-14.1-34.5-4.6-42.7
				C-6265.3-7291.3-6264-7292.1-6263.1-7292.1z M-6398.2-7292.4l28.1,20.6l-1.1,16.9l-28-20L-6398.2-7292.4z M-5899.4-7250.4
				c-11.6-2.7-15.8-11.2-14.2-20.8c0.5-3.2,2.4-5,4.4-0.7c1.5,6.7,5.8,16,11.8,17.9C-5895.1-7253.3-5897.2-7249.9-5899.4-7250.4z
				 M-6149.1-7275.5c12.5,33.6,11.5,70,12.9,104.5c1.9,45.8,9.3,76.8,11.9,82c0,0-12.8-0.1-13.4-2c0,0-10.8-60.9-8.4-90.8
				c0.8-33.6-5.1-63.2-8.7-76.5C-6158.8-7270.3-6159.1-7262.5-6149.1-7275.5L-6149.1-7275.5z M-6398.8-7267.6l27.1,18.7
				c-0.5,6.2-0.7,12.4-0.7,18.6l-26.6-19.8L-6398.8-7267.6z M-6029.3-7261.5c0,1,4,1.9,10.1,0.5c6.9-1.5,13.8-1.1,19,0.5
				c5.6,1.6,6.3-0.1,1.2-2.5c-2.4-1.1-6.4-3.7-12.3-3.7C-6017.1-7266.8-6029.2-7263.8-6029.3-7261.5z M-5917.9-7260
				c0.6,1.2,2.6,4.1,4.5,6.4c3.4,4.2,4.5,4.3,2.8,5.9c-3.8,3.8-11.5-1.9-12.2-9.2C-5923.4-7262.2-5920.8-7265.5-5917.9-7260z
				 M-6164-7263.7c12.5,18.7,13.5,62.1,13.1,92.9c-0.3,27.8,7.9,78.7,8.6,78.5c-2.6,1.5-6.2,0.9-9.5-0.5c-3.2-4.4-5-16.6-8.1-49.7
				c-0.8-8.5-2.2-35.6-2.2-57.4c0-19.3-9.7-61-9.7-61S-6167.8-7263.7-6164-7263.7z M-6178.4-7259.4c11.2,26.6,12.5,52.7,12.4,84.5
				c-0.1,30,5.8,65.3,7.9,80.9c-4,0.3-8.1,0.6-9.7-1.2c-1-1.4-1.8-3.8-2.2-6.8c-4.8-26.1-5.5-54.4-6.5-78.2
				c-1.5-37.1-1.9-46.3-6.8-64.8c-2.7-10.5-3.7-10.3-1.5-12.3C-6183.2-7258.6-6179.9-7259.4-6178.4-7259.4L-6178.4-7259.4z
				 M-6047-7250.6c0.1,12.3,1.7,7.3,6.1,5.4c3.2-0.2,5.8,1.6,11.8,4c7.6,3,6.9,3.9,12.3,1.4c3.3-1.5,6-2.1,7.6-0.7
				c6.2,5.3,14.3,2.6,19-1.5c3.6-1.8,7.5-0.7,10.5-0.3c4.4,0.5,3.2-2.4,4-7.9c0.6-4.9-1.3-5.4-6.4-3.8c-5.2,1.6-10.3,1.7-14.8,0.2
				c-11.4-3.8-19.8-1.6-25.5-0.8c-13.5,1.8-14.1,0.5-17.1-1.5c-2.2-1.5-5.9-4.2-7.2-4.2C-6048.2-7260.3-6047.9-7255.9-6047-7250.6
				L-6047-7250.6z M-5927.9-7253.7c1.3-0.6,1.8,1.1,3.6,3.5c2.8,4,3.8,5.8,1.2,6.1c-6.6,0.8-8.2,0.1-7.9-4
				C-5930.8-7251.4-5930-7252.6-5927.9-7253.7L-5927.9-7253.7z M-6192.3-7253.3c9.4,10,10.7,65.2,11.7,77.1
				c2.1,64.4,8,73.8,4.9,78.6c-3.7-0.1-5,1.2-7.3-2c-7.8-23.8-6.8-47.9-7.6-72.6c-1.2-32.6-4-50.3-8.3-66.6
				c-2.8-10.8-2.7-11,2.7-13.8C-6195.4-7253.2-6193.2-7253.4-6192.3-7253.3z M-6205.5-7245.8c3.2,7.9,9.3,43.5,9.6,74.3
				c0.2,24.4,5.1,72.1,6.1,72.4c-3.6,0.2-7.7-0.5-9.3-3.3c-9.6-47.2-5.3-92.6-16.5-140.1C-6214.9-7244.8-6211-7248.5-6205.5-7245.8
				L-6205.5-7245.8z M-6398.9-7244.1l28.1,21.2l0.2,17.6l-28.6-21.4L-6398.9-7244.1z M-5975.3-7237.6c-16.2,5.9-20.5,11.1-18.1,15.7
				c2,3.9,8.5,2.7,25.8-4.2c12.9-5.1,16.8-2.7,19.3,5.5c-0.4,12-12,13.2-18.5,11.4c-2.8-0.2-2.4,0.1,0.5,3.9
				c13.1,10.8,29.7-9.4,21.9-22.6C-5950.4-7239.9-5961.3-7243.5-5975.3-7237.6z M-6076.4-7234.8c-13.5,10.2-9.1,29.3,1.8,32.4
				c3,1.6,7.6,1,9.4-0.2c1.7-1,1.7-2.9-1.7-3.5c-10.2-1.9-15.9-9.6-10.8-17.2c5-7.4,13.8-5.7,30.8,2c14.7,6.8,21.2,4.9,23.1-2.8
				c0.8-3.4,0-6.7-7.1-7.1C-6050.5-7232.2-6063.3-7244.6-6076.4-7234.8z M-5899.4-7202.1c-0.8-5.4-9.6-0.1-15.7,9.5
				c-5.9,9.4-6.5,10.8-7.5,0.8c-1.4-14.7,13.9-25.9,23.3-26.1c11.4-1.1,18.8,5.5,18.9,12.9
				C-5880-7190.4-5897.3-7190.6-5899.4-7202.1L-5899.4-7202.1z M-6400-7221.1l29.7,21.5c0,0,0.8,11.3,0,17.2l-29.9-20.2
				L-6400-7221.1z M-6037.8-7206.6c-13.3,8.7-5.9,25.3,3.2,27.3c9.6,2.1,10.5-4.6,0.9-6.9c-5.1-2.2-6.3-7.2-4.3-10.9
				c4.8-7.5,13.1-2.4,18.1,0.1c10.9,5.5,16.4,7.6,20,4c6.3-6.4,1-17.9-7.2-14c-2.2,1-3.9,2.1-8.5,0.8
				C-6022.7-7208-6031.1-7209.7-6037.8-7206.6L-6037.8-7206.6z M-6400.2-7196.2l29.2,21.1l-1.3,18.1l-27.4-21.2L-6400.2-7196.2z
				 M-6400.1-7171.2l27.5,20.7c-0.6,7.7-0.4,10.8-0.2,15.6l-27.9-18.9L-6400.1-7171.2z M-5906.5-7157.2c22.3,2.7,14.4,28.5-1.1,21.1
				c-4.1-3.3-5.4-3-10.2,8.3c-6.2,14.4-7.6,13.2-6.5-3.6C-5923.4-7147.9-5915.7-7157.3-5906.5-7157.2z M-6082.9-7157
				c0.5,0,0.9,0.1,1.2,0.3c1.5,1.7-3.2,8.4-7.1,12.3c-2.8,1.8-9.6-3.4-7.9-5.8C-6094.8-7152.5-6086.6-7156.7-6082.9-7157z
				 M-6053.4-7142.9l-4.1,0.5c-5.8-13.7-18.4-10.8-22.5,1.6l-5.5-0.7C-6079.5-7156.9-6059.5-7166-6053.4-7142.9z M-5940.7-7137.5
				l-6.8,0.3c-5.8-14.8-14.3-17.2-21.9-2.9l-5.2-1.6C-5965.2-7160.2-5950.1-7161.3-5940.7-7137.5z M-5974.3-7155
				c3.4-0.1,2.9,1.4-0.7,6.3c-3.2,4.3-4,4.9-7.1,2.5C-5987.2-7150.1-5978.4-7154.8-5974.3-7155z M-5942.2-7153.9
				c0.7,0.1,1.4,0.1,2.3,0.4c6.9,1.8,10,5.3,6.6,9.5c-2.2,2.7-4.3,3.6-5.7,1.8C-5943.5-7150.1-5946.1-7154.2-5942.2-7153.9z
				 M-6047.7-7151.4c0.7,3-1.6,4.9-4.2,2.5c-1-1-1.9-2.7-1.7-4C-6052-7154.4-6048.1-7153.1-6047.7-7151.4L-6047.7-7151.4z
				 M-6400.9-7148.7l28.3,21.4c0.8,7.4,0.9,12.9,0.7,17.9l-29.1-20.4L-6400.9-7148.7z M-5982.6-7133.7c16.3,11.8,35.7,12,48,2.2
				c2.7-2.2,5.2-2.2,5.2-0.1c-1.9,8-23.2,17.8-39.6,11.7c-9-3.4-16.3-6.8-22.1-15.4C-5994.6-7141-5987.4-7137.2-5982.6-7133.7z
				 M-5989.7-7128.3c23.7,21.5,43,16.1,57.8,5.8c2.1-0.5,2.1,1.4,2.5,5.1c0.5,4.7-3.3,6.9-13.9,9.8c-20.4,5.7-43.9-1.5-48-15.3
				C-5991.6-7125.6-5992.5-7129.1-5989.7-7128.3z M-6401.6-7124.2l28.7,20.8l-1.2,15.4l-28-20L-6401.6-7124.2z M-6401.6-7100.7
				l27.1,19.4l-0.3,12.7l-26.4-19.8L-6401.6-7100.7z M-6202.1-7090.5c116.7,29.2,200,18.2,281.8,5.4l69.3,144.5l-435.3-8.4
				C-6256.9-6994.9-6232.2-7045.3-6202.1-7090.5z"/>
		</g>
		<g id="path3442-2-7-0">

				<path d="
				M-6165.6-8327c12.1,22,21.5,44.8,32.4,67.2l1.8,1.2l2.6,5.2l0.2,2.6l6.5,11l-0.1,2.4l27.3,53.9c23.6-8.3,216.3-20.2,286.9,7.2
				l10.8-17.5l2.4,0l19-32.1l-0.2-2.8l6.3-7l0.9-3.2l20.8-31.4l0.2-5.1l26.1-42L-6165.6-8327z M-5730.1-8312
				c0,0-13.7,25.3-20.7,35.4c-5.4-4.5-21.4-1.8-20.8,15.2c-25.8-10.4-32.7,20.7-12.7,28.1c-10.5,8.9-20.1-1.6-27.8-8.7
				c-7.7,1.7-23.6,7.1-32.3-9.7c0,0,3.8,2.1,7.4,4.4c21.1,7,23.4-21.9,7.7-26.9c-1.9-0.6-5.7-0.8-5.7-0.8
				c5.8-22.1-28.1-30.6-29.3-3.9c0,0-4.1-0.7-7.1-0.2c-18.2,3-14.5,29.9,4,29c2.5-0.1,4.8,0.4,4.8,0.4c-0.4,4.3-22.9,12.1-38.7-3.1
				c-7.7,5.7-20,12.8-35.4-2.1c10.3-0.2,20.4-3,20.5-14.9c0.1-7.7-6.7-14.7-16.5-15.4c-0.4-8.6-6.6-17-14.8-17.8
				c-10,0.4-15.4,8.5-15.6,17.2c-8.6,0.7-16.7,8.2-15.1,17c2.2,12,11.4,13.6,21.8,11.6c-13.1,20.3-33.5,9.1-39.7,2.5
				c-7.7,7-21.1,16.4-37,2.8c8.7-1.3,18.4-6.2,17-18.4c-1.1-9.6-11.7-12.7-16.3-12.3c0.1-6.3-4.5-16.9-15.6-16.1
				c-12.3,0.9-11.9,16.6-11.7,16.7c-10-1-17.7,10.8-14.9,18.5c3.3,9.4,10.6,12.4,24.1,10.2c-16,14.5-26,8.6-34.5,5.2
				c-7.8,7.9-18,10.2-28.2,3c23.2,1.6,20.4-40-7.5-25.5c-19.2-23.8-19-13.3-35.9-48L-5730.1-8312z M-5948-8275.5
				c1.1,0,2.3,0.2,3.4,0.8c3.7,1.9,4.3,5.2,1.9,10c-0.8,1.6-2,3.6-1.8,5.4c24.6,48.2,81.7,28.1,87.5,6c0.4-1.4-0.2-3-0.9-4.5
				c-2.1-3.7-1.7-6.7,1.1-9.1c6.1-5.2,14.6,1.2,11,8.4c-0.9,1.8-1.9,3.9-1.3,6.4c13.8,33.6,42.7,36.7,67.2,24
				c-11.6,20-55.1,31.4-72.3-17.6c-29.8,39-75.9,37.3-95.9-7.9c-19.8,45.4-76.5,45.3-96.4,6.9c-19.7,43.1-63.1,32.3-74.9,4.8
				c39.9,30.4,67.2,0.1,72.2-13c0,0-0.9-1.5-2.1-2.9c-5.1-5.2-4.8-11.3,0.6-13.5c6.9-3,13.3,3.9,9.5,10.3c-1,1.8-1.9,2.1-1.3,3.8
				c12,29.9,73.9,39.8,87.3-1.6c0.5-2.4,0.3-4.6-0.7-6.4C-5956.8-8269.8-5953-8275.4-5948-8275.5z M-6129.5-8262.4
				c9.7,0.7,6.9,9.2,4.9,9.8L-6129.5-8262.4z M-5766.2-8249.6c0.1,0.2-6.3,10.9-6.3,10.9C-5775.6-8244-5774.6-8250.4-5766.2-8249.6z
				 M-5800.4-8195.5c0,0-6.5,13.8-8.6,15c-115.4-32.3-277.6-9.7-281.7-6.8l-6.8-13.7C-5995.5-8219.4-5894.2-8213-5800.4-8195.5z
				 M-6000.5-7992.1c-12.1,43.3-39.3,47.2-72.2,51.8c-40.7,5.7-66.8-9.7-78.6-32.8c0,0-58.4,20.9-79.9,33.3
				c43.5,21.3,100.7,67.5,132.7,119.3c11.5,15.9,11,12.3,10.2,46.5c-1.5,74.2-1.9,101.8-1.9,101.8c18.1,3.1,18.9,15.8,17.5,29.9
				c14.7-6.2,28.5,2,28.2,16c-0.6,25.5-25.4,18-30.4,15.2c7.6,22.6-2,31.7-11.8,32.7c-12,1.1-25.6-4.9-21-30.6
				c-13.1,4.8-29.4-4.8-31.4-20.3l-0.1-26.2c33.4-60.4-6-110.9-43.5-128c0,0,11.2-22.1,25.2-28.2c1.4-0.4-8.1-15.2-24.7-12.3
				c-7.6,0-5.8,0-12.8-9.5c-13.8-18.8-20.4-20.3-34.6-0.7c-6.3,8.6-7.7,8.8-14.9,8.8c-7.9,0-20.1,5.4-22.8,10.6
				c-0.6,1.1,2.4,2.5,6.5,7.4c5.8,7.1,14.7,16.9,13.1,26.6c-31.5,12.2-84.4,67.4-31.5,140.5l-39.4-0.3l3.4-256.4l-27.7,14.9
				l-3,200.9l-7.7-2.8c1.9-64,2.3-128.1,1.7-192.2l-73.3,51.6l-3,301.3l7.6,1.8c4.9,41.2,85.9,14.1,90.6,17.8l-2.5,167.4l-3.7,8.2
				l63.3,36.7l59.4-29.6c0,0,7.9-1.2,11-2.8c24.7-12.5,42.7-9.2,55.6,10.1c7.9,11.9,9.3,13.6,9.3,13.6c5.7-33.7,35.6-45.6,64.3-36.2
				c21.1,7,49.6,28.9,57.9,55.1c0,0,1.5,4,3,5.7l1.2,0.5c-0.1-0.7-1.3-4-1.8-5.5c-28.3-69.5-111.9-81.9-126-25.8l-11.6-17l63.2-37.3
				l84.1,58.4c0,0-4.4,19.9-5.1,28.5l1.4,0.7c0.8-10.4,4.2-22.2,9.2-30.9c2.1-3.6,4.5-6.5,7.2-8.7c5.2-2.9,9.8-2.5,15.1-7.3
				l-12.3-9.6l0.3-30.1l24.2,35.8c7.9-1.6,38.8-10.3,56.7,0.3c2,0.7,28.8-6.5,44.6,31.4l80.6-31.9c0,0,5.2-2.8,5.2-3.6
				c-79-31.3-157.3-138.1-149.6-139.7c0,0,0-10.8,1.1-37.3c1.2-29.5,1.5-59.6,2.7-89.2c-26.9-9.3-19.8-31.2-19.8-31.2
				c-16.3,3.3-18.9,0-22.9-3l-2.2-28c9.9-8.2,15.8-8.8,27.9-6c0,0-5.6-12.3-0.1-22.1c4.7-7.8,16.7-12.5,26.2-6.8
				c12.2,8.7,7.9,26.4,6.1,28.9c13-5.5,28.5,1.2,32.1,14.1c2.7-37.8,6.8-80.1,15-113c15.1-59.3,39.1-121.3,68.5-169.7
				c4.9-8.1,11-16.2,15.9-23.8c4.6-6.8,6.8-11.2,6.8-11.2s-6.2,3.3-12.6,4.9c-9.3,2.4-16.3,4.6-17.5,5.6
				c-6.9,5.6-15.8,9.7-23.2,12.7c-25.8,9.5-42.7-5.8-52.9-29c-6.5,29-33.4,53.1-72,37c-21.7-12.3-28.5-20-48.5-51.1
				C-5996.1-7988.4-6000.5-7992.1-6000.5-7992.1z M-5999.8-7987.4c14,29.4,35.3,50.4,56.3,59.1c37.5,13.3,63-10.7,70.5-33l7,12.6
				l-58.1,39.9l-85.3-57.2C-6007.8-7967.3-5999.7-7986.6-5999.8-7987.4z M-5739.7-7979.9l-26,14.8c0,0-17.7,27.4-23.6,37.8
				c-31.1,52.8-54.7,110.3-67.6,167.8c-5.2,21-11,59.4-13,77.9c-3.3,29.5-3.4,41.6-3.2,68.7l1.9,2.3c0,0-3.2,5.5-5.6,10.1
				c-6.4,12.6-8,19.8-7.9,34.6c0.2,34.1,20,67.1,48.7,80.9c1.6,0.8,3.8,1.8,3.8,1.8s-5.3,13.4-14.4,22.8c-6.1,6.2-7.4,6.6-5.4,9.7
				c2.8,4.4,12.3,8.4,24.2,8.5c4.2,0,4.2,0,11.8,8.7c14.8,16.9,19.4,16.7,33.5-1.8c4.2-5.5,6.6-6.9,12.6-6.9c8.8,0,25-6.9,25-10.2
				c-10.8-5-22.7-30.3-20.8-30.5c59.9-30.4,73.8-95.7,31.5-144.8l41.3,0.2l-3.9,261.6c8.2-5.2,26.7-16.5,26.7-16.5l3.6-203.5
				c2.8,0.6,5.7,2.8,11.2,3.7l-2.4,193.8c0,0,53.9-36.7,79.5-55.8l4.6-296.5l-6-0.1l-5.1,296.4l-71.1,50.2l3.4-184.1
				c0,0,5.6-0.7,7.6-0.9c20.6-2.5,30.7-28.7,17.4-46.2c-4.7-6.2-1.3-5.7,9-7.5c18.3-1.2,28.6-15,23.5-25c-2.2-4.3,0.8-3.8,2.7-7.8
				c1.3-3.2,1.2-7.1,0.7-10.2c-0.6-4.1,1.1-5.9,2.1-8.5c1.7-4.1,0.2-8.7-2.3-12.6c-2.7-4.1-1.9-8.5-1.8-11.2c0-6-2.1-7-8.3-12.9
				c-4.7-4.5-0.8-5.4,6.3-8.9c11.2-5.5,12.4-25.8-2.1-34.8c-7.8-4.8-22.1-4.7-53.2-0.4c-11.8,1.6-25.7,2.6-25.7,2.6
				s2.3-115.9,2.7-175.7L-5739.7-7979.9z M-5739.8-7975.8c0,0,62.2,38.5,61.7,39.5c-21.7,28.8-103,143.6-106.5,284.4
				c-57.6-8.5-82.3,36.7-85.1,36.4c-4-172.6,67.8-294.5,104.4-346.1L-5739.8-7975.8z M-5780-7954l-0.3,4.2l-12.9,18.5l0.1-18.8
				L-5780-7954z M-5799.4-7947.9l-0.2,30.3l-26,19.2l-0.8-31.6L-5799.4-7947.9z M-6036.4-7945.8l13,9.4l-1.1,30.1l-19.1-36.8
				L-6036.4-7945.8z M-5677.1-7928.2l-0.3,21.7c-51.9,70.7-80,152.1-90.3,255.8l-12.3-0.7C-5774.6-7754.5-5738.2-7848-5677.1-7928.2
				z M-6018.5-7933.1l30.6,21.2l-2,34.3l-27.8-18.8l-2.5-7.1L-6018.5-7933.1z M-5830.3-7927.7l-0.8,31.9l-24.4,17.5l-0.5-31.6
				L-5830.3-7927.7z M-6121.5-7925.4c3.6,0.1,6.4,2.8,6.9,7.8c2.2,21.3,18.3,15.5,22,21.9c1.4,2.1-2,4-13,2.9
				c-20-1.9-34.3-18.6-23.8-29.2C-6126.7-7924.3-6123.9-7925.5-6121.5-7925.4z M-5983.2-7908.9l26.2,17.6l-0.8,35.2l-25.7-16.6
				L-5983.2-7908.9z M-5862-7906.3l1.4,31.2l-29.4,19l-0.4-30.9L-5862-7906.3z M-5806.7-7905l-17.5,35.5l-98.8,68.7l-79.6-54.5
				l-14.3-34.9l92.9,64L-5806.7-7905z M-6069.5-7896.2c25.9,0.2,45.1,28.4,51.4,52.7c4.6,16.2,5.3,21.9,5.3,47.4
				c0,26,0.7,30.5,5.5,34.2c2.9,2.4,3.8,1.7,4.3-2.9c1-10.1,13-3.7,13,7.1c0,12-13.1,15.5-22.5,6.2c-5.1-5-5.1-4.9-6.9,4.6
				c-1.2,6.5-9.4,46.5,9.3,56.9c3.6,0.4,4.5-2.5,1.9-5.8c-5.2-6.9,5.6-14.4,14.2-9.9c10.4,5.4,8.9,22.4-2.3,28.3
				c-13,6.7-29.3-1.5-36.7-18.4c-5.4-12.4-5.1-29.4,1.2-54.5c2.8-11.6,4.2-18.9,5-27.9c0.3-3,0.7-6.1,0.9-7.1
				c0.7-2.7-0.6-2.9-5.3-0.6c-12.7,6.1-26.2,1.3-29.3-10.4c-3.7-14,12-28.1,21.2-19.1c3.5,3.4,3,6.8-1.3,8.8
				c-7.5,3.6-5.2,13.4,2.7,11.6c26.3-7.4,4-81.9-25.4-87.7c-19.4-3.8-35.1,18.2-21.3,30.5c5.4,4.8,11.1,2.4,10-4.2
				c-1.5-9.3,10.7-8,14.9,1.5c7,15.6-12.2,27.8-29.6,18.8C-6120.8-7855.5-6098.2-7896.2-6069.5-7896.2z M-5952.4-7887.8l25.8,18.2
				l-0.5,34.4l-25.6-16.1L-5952.4-7887.8z M-5895-7883.7l-0.5,31.5l-25.6,17.9l0.7-33.6L-5895-7883.7z M-5827.6-7861.6l-13.6,36
				l-82.4,54.4l-66.1-43.8l-10.9-33.8l77.9,53.3L-5827.6-7861.6z M-6355-7869.9l-3.8,183.3c-26.4,0.6-42,26.5-22.8,51.8
				c0,0-3.5,0.4-7.5,0.8c-17.9,2.1-30,11.4-27.9,23c0.6,3.6-0.1,7.1-1.2,8.9c-1.7,4.7-1.3,8.4,0.7,12.5c1.6,3.3,1.3,4.5,0.3,6.9
				c-2.1,5.1-1.7,9,0.6,13c2.8,3,2,5.3,1.5,9.9c-0.6,6.6,0.5,9.2,4.6,11.9c5.2,3.4,7.1,8.8,1.1,8.3c-2.9-0.3-13.7,9.7-13.7,9.7
				l5.1-294.2L-6355-7869.9z M-6212.8-7843.4c4.7,0.1,9.4,6.1,16.2,16.4c4.1,7.3,4.2,6.4,13.8,6.1c9.8,0.9,15.7,3.7,18.3,6.8
				c0.9,1.1-1.6,1.4-8,7.7c-6.6,6.5-7.5,9.1-12,16.4c-1.6,2.7-5,2.9-6.5,0.3c-1.2-1.9,2.1-8.3,8.4-15.8c8.8-8.2,7-9.1-5.6-8.1
				c-8.8,0.7-9.7,0.3-13-5.2c-9.5-20.3-14.9-19.7-24.9,0.1c-2.7,5.5-1.7,5.2-13,4.1c-8.9-0.9-11.2,1.3-6.2,6.2
				c7.7,6.7,10.4,22.1,10,21.9l-6.1,0.4c0,0-1.8-3.5-2.5-5.7c-1.5-4.4-5.8-11.2-10.6-16.5c-6.6-7.6-2.8-11.5,12.4-12.8
				c8.4-0.7,8.6-0.8,12.7-6.6C-6222.2-7837.6-6217.5-7843.5-6212.8-7843.4z M-5844.6-7817.6l-9.4,31.1l-70.3,47.6l-55.6-39.1
				l-6.9-29.6l63.9,42.8L-5844.6-7817.6z M-6084-7797.7c0,0,19.2,39.8,26,65.5c5.9,22.3,13.4,86.8,10.9,90.7
				c-4.8-7-21.1-5.7-21.3-5.6c1.5-7.5-4.2-22.8-18.1-26.1L-6084-7797.7z M-5856.3-7778.6l-7.5,30.6l-59.9,41.9l-48-34.6l-5.8-29.9
				l53.2,37.5L-5856.3-7778.6z M-6199.5-7783.9l7.6,2.9l0.3,55.6l58.9,11.2l1.1,9.5l-68.2-12.6
				C-6199.9-7741-6199.5-7783.9-6199.5-7783.9z M-6229.4-7782.9l0.3,64.7c-0.6-0.2-49.4,5.7-68.1,10.3l1.2-8.8c0,0,33.9-6.8,58.4-9
				c0.4-18.1,0.6-37.1,0.9-55.5L-6229.4-7782.9z M-5680.3-7759.7c0,0,8,0.9,25.3-1.7c44.4-6.9,56.4-3.5,61.8,10.4
				c5.8,21.5-17.5,21.5-21.3,7.9c-2.4-8.8-12-7.2-43.9-0.2c-27.3,5.9-44.4,0.4-43.7-15.1
				C-5701.6-7774.4-5683.6-7775.5-5680.3-7759.7z M-6044.4-7778.8c5.5,0,9.9,4.5,9.8,10.1c0,5.5-4.6,10-10,9.9
				c-5.5,0-9.9-4.5-9.8-10C-6054.3-7774.3-6049.9-7778.9-6044.4-7778.8z M-6188.4-7780l7,2.3c0,0,0.2,42.2,0.4,42.3
				c15,3.7,46.5,10.3,46.5,10.3l1.5,8.4c-13.2-3.4-55.2-11.3-55.2-11.3C-6189.2-7746.4-6188.4-7780-6188.4-7780z M-6239.5-7780.3
				c0,0-0.7,33.7-1.6,51.7c0.2-0.2-35.9,5-54.3,8.5l1.5-6.8c14.5-3,30.3-5.9,46.4-9c0-13.2,0.6-42.3,0.6-42.3L-6239.5-7780.3z
				 M-6213.9-7772.6c4.4,0,8,3.7,7.9,8.1c0,4.4-3.7,8-8,8c-4.4,0-7.9-3.6-7.9-8.1C-6221.8-7769-6218.3-7772.5-6213.9-7772.6z
				 M-5614.6-7739.2c4.8,7.5,8.8,7.3,13.7,6.7c-1.2,0.3-7,3.6-6.7,4.7c0.1,0.6-2.6,9.8,1.3,10.2c14.7,1.7,6.9,17,8.6,19.5
				c3.9,4.6,6.7,7.6,3.9,13.3c-2.5,5-6,4.8-3.4,9.2c5.7,9-2.4,10.6-1.8,16.8c0.4,3.7,1.6,8.7,0.2,11.5c-4.2,8.5-18.6,13.1-34.3,13.4
				c-2.2,0.1-0.5-3.6-1.5-6c-3.9-2.6-1.6-6.8-0.3-9.4c1.3-3.6,1.4-3.6-1-5.5c-6.7-4.4-6.3-6.4-5.7-9.3c1.6-9,0.3-9.9-2.3-11.4
				c-3.4-1.7-2.8-5.6-1.2-10.4c1.1-3.4,0.4-4.2-1.2-7.3c-0.9-1.8-1.2-2.8-1.2-4c0.6-4.6-3.5-4.7-9.4-0.3c-5.1,8.5-7,19.7-10.3,26.6
				c-2.5,5.4-2.9,11.1-0.4,23.7c5.1,19.4,0.9,22.4-20.4,17.9c-16-4.3-20.4-21.8-15.5-42.9c0.8-3.4,0.7-6.8,0.4-9.4
				c-1.4-14.6,2.5-28.6,12.9-38c17.2-15.7,25.6-17.9,60.4-15c13.6,1.2,14.6,2.1,14.6,2.1S-5615.1-7739.1-5614.6-7739.2
				L-5614.6-7739.2z M-5865.8-7739.9l-4.7,29.7l-33.2,22.6c-15.1-12.6-27.2-8.8-38.3,4.2c-8.5-4.6-25.5-16.9-25.5-16.9l-3.6-33.9
				l46.9,34.3L-5865.8-7739.9z M-6213.8-7740.1c4.4,0,7.9,3.7,7.9,8.1c0,4.4-3.6,8-8,8c-4.4,0-8-3.7-7.9-8.1
				C-6221.8-7736.5-6218.3-7740.1-6213.8-7740.1z M-5872.1-7702.5l-2.4,28.7l-11.9,8.6l-11.7-1.4l-2.4-17.8L-5872.1-7702.5z
				 M-6214.6-7709.4c4.4,0,8,3.7,7.9,8.1c0,4.4-3.7,8-8,8c-4.4,0-7.9-3.6-7.9-8.1C-6222.7-7705.8-6219.1-7709.4-6214.6-7709.4z
				 M-6182.6-7707.8c4.4,0,7.9,3.6,7.9,8.1c0,4.4-3.6,8-8,8c-4.4,0-7.9-3.7-7.9-8.1C-6190.6-7704.2-6187-7707.8-6182.6-7707.8z
				 M-6246.4-7707.6c4.4,0,7.9,3.7,7.9,8.1c0,4.4-3.6,8-8,8c-4.4,0-8-3.7-7.9-8.1C-6254.4-7704-6250.9-7707.6-6246.4-7707.6z
				 M-5653.7-7694c2.2-0.1,5.5,3.3,3.8,8.3c-2.2,5.7-0.8,7.7,2.7,12.4c2.9,4,2.4,4.5,1.9,7.1c-1,16.5,9.6,9.6,4.9,21.5
				c-1,2.6,0.2,6.4,0.6,9.4c-1-2.9-20.4-3-22.1-0.1c-2.7-0.5-5.9-18.9-3-21.3c0.4,0,2.3,3.2,3.4,5c2.5,4.5,3,4.4,2.3-0.8
				C-5662.2-7673.1-5659.7-7694-5653.7-7694z M-6150.5-7702.8c4.4,0,7.9,3.7,7.9,8.1c0,4.4-3.7,8-8,8c-4.4,0-7.9-3.6-7.9-8.1
				C-6158.5-7699.3-6154.9-7702.9-6150.5-7702.8z M-6279.7-7704c4.4,0,7.9,3.7,7.9,8.1c0,4.4-3.6,8-8,8c-4.4,0-8-3.7-7.9-8.1
				C-6287.7-7700.4-6284.1-7704-6279.7-7704z M-5967.2-7695.3l23.5,16.2c0.3,4.9-0.5,12,1.1,14.4c-15.5-1.8-23.6,7-23.6,7
				L-5967.2-7695.3z M-6137.7-7673.7l-2,8.5c-46.8-13.2-99.4-14.9-150-2.5l-3.8-9C-6242.3-7691.3-6188.4-7690.8-6137.7-7673.7z
				 M-6360.6-7678.9c6.9,0,13.8,2.8,18.7,8.4c9,10.6,4.2,30-9,35.9c-19.8,8.8-39.8-11.4-31-31.5
				C-6378.4-7674.5-6369.4-7678.9-6360.6-7678.9z M-5875.6-7666.4l-0.5,8.5l-5.9-5.1L-5875.6-7666.4z M-6000.3-7668.5
				c8.6,0.1,15.6,7.2,15.5,15.9c-0.1,8.7-7.1,15.8-15.7,15.7c-8.6,0-15.6-7.2-15.5-15.9C-6016-7661.6-6009-7668.6-6000.3-7668.5z
				 M-6360.3-7675.5c-2.1,0-5.7,0.8-7.2,2.3c-4.3,3.8-0.1,4,5.4,5.1c9.7,2,12.3,10.5,11.2,19.8c-1,8.3,1.8,8.3,4.1,5.2
				C-6337.4-7655.7-6344.8-7674.2-6360.3-7675.5z M-5906.3-7661.9c-0.2,0.1-0.4,0.2-0.4,0.2
				C-5906.6-7661.6-5906.4-7661.7-5906.3-7661.9z M-6215.6-7663.4c11.7,0,12.6,19.5,1.7,41c-3.3,6.5-4.8,5.6-8-4.3
				C-6229.8-7651.2-6227.6-7663.4-6215.6-7663.4z M-6188.5-7662.3c2.2-0.1,4.5,0.8,6.2,3c6.2,7.4,1.1,19.1-16,36.7
				c-4.2,4.3-6.3,5.9-7.8,5.9c-4.2,0-4.2-0.7,0.9-16.3c2.2-6.9,4.5-14.4,5-16.8C-6198.7-7657.1-6193.4-7662-6188.5-7662.3z
				 M-6231.2-7645.8c1,5.4,2.9,12.9,4.1,16.7c1.2,3.8,2,7.4,1.7,8c-1.1,2.9-8.5-1.2-13.7-7.6c-10.4-12.8-14.5-23.9-12.2-29.7
				c3.3-4.6,11.8-6.6,15.5-2.4C-6231.9-7656.3-6231.5-7647.2-6231.2-7645.8z M-6156.9-7656.7c11.2,7-2.1,22.1-27.8,34.3
				c-11,5.2-10.1,2.8-1.7-7.8c3.2-4.1,7.6-10.7,9.7-14.7C-6171.9-7654-6167.2-7662.9-6156.9-7656.7z M-6270-7659.1
				c3.6,0,7.2,4,13.8,14.1c2.9,4.5,7.7,11,10.6,14.2c2.9,3.4,5.3,6.7,5.1,7.4c-1.3,7-36.2-15.9-38.6-25.3
				C-6279.7-7654.2-6275.1-7659.2-6270-7659.1z M-5764.7-7628.3c6.1,13.3,6.5,21.6,1.1,24.5c-7.6,4.1-17-2.6-17-12
				c0-3.2-3-14.2-5.8-21.5c-2.3-5.9-2.5-9.6-0.6-9.8C-5779.2-7645.7-5767.8-7634.6-5764.7-7628.3z M-5806.8-7639.2
				c-2.6,7.5-5.5,19.3-5.5,22.7c0,1.3-0.9,4.1-1.9,6.1c-6.7,13.3-21.8,2.1-15.9-11.9c5.4-12.6,18.6-25.5,23.6-25.8
				C-5802.9-7648.3-5806.4-7640.3-5806.8-7639.2z M-5796.3-7646.3c2.5-0.2,4.6,5.4,7.7,15.1c4.2,12.9,3.8,22.9-1.1,27
				c-10.5,8.9-21-4.6-16.5-21.1C-5802.6-7638.6-5799.2-7646-5796.3-7646.3z M-6141.7-7651c8.9,190.7-90.8,335.2-97.8,339l-33.3,17.5
				l-57-33c61.5-81.5,99.3-175.7,104.2-285.9C-6170.4-7606.7-6141.1-7650.8-6141.7-7651z M-5824.7-7643.9c4.1-1,1.1,2.5-2.9,8.2
				c-4.4,6.1-10.3,22.9-14.7,25.5c-9.9,4.6-20.9-4.8-14.8-12.6C-5851.5-7630-5835.1-7641.2-5824.7-7643.9z M-5766.1-7641.4
				c1.5,0,4.5,1.1,8.6,3.3c20.3,10.5,30.2,24.2,21.3,30.3c-6.3,4.4-12.8,0.7-18.7-11.2c-2-4.1-5.7-10.1-8.2-13.4
				C-5767.6-7638.5-5768.6-7641.4-5766.1-7641.4z M-5650.7-7632.3c13.2,0.1,23.8,11,23.7,24.3c-0.1,13.3-10.9,24.1-24.1,24
				c-13.2-0.1-23.8-11-23.7-24.3C-5674.7-7621.6-5663.9-7632.4-5650.7-7632.3z M-5658.1-7626.1c-15.7,6.7-11.5,31.3,1.8,35.2
				c5.6,1.7,12.6-0.5,9.7-3.3c-17.6-5.9-17.5-19.1-10-28.6C-5655.4-7624.4-5656.9-7626.6-5658.1-7626.1z M-6305.9-7605.6
				c-0.9,13.9,1.7,30.1-5.2,45.1c-10.5,23-42.7,33-59.8,30.5c-3.6-1.5-7.7-3.1-11.2-1.6c-2.1,0.8-4.8,0.7-7-0.4
				c-2.1-1-4.3,0.2-6.4-0.6c-2.4-1.7-6.4-5.6-5.9-8.5c0.8-4,0.6-7-4.1-8.4c-6.5-1.9-7.7-5.5-5.6-15.9c0.5-2.3,1-3.3-0.4-4.2
				c-4.7-3.3-6.4-9.3-3.1-15.6c2.1-3.6,3.8-6.1,0.1-9.1c-1.4-3.4-1.1-4.6,2.1-8.8c3.5-4,4-4.4,1.9-7.9c-4.7-7.8,0.9-13.4,7.4-16.5
				c8.7-3.4,16.3-5.1,25.5-5.9c3.3,0.3,3.1,3.3,5.2,6.2c2.9,4.8-1.5,11.6,0.9,14c3.5,1.7,5.1,5,4.7,7.9c-0.3,6.6,0.1,8.8,1.8,11.6
				c1.9,3.1,2.5,8.7,0.6,12.4c-1.7,3.4-1.5,3.1,0.6,5.1c2,2,2.9,11.9,2.1,11.7l8.9-0.6c-0.9,1,3.8-18.4,14.2-33.3
				c-0.3-11.8-4.6-22.7-3.9-38.3C-6320.1-7644-6304.7-7624.9-6305.9-7605.6z M-5964.5-7625.1c3.1,2.6,18.8,7.4,19.4,6.9
				c-0.6,7.6,3.7,22.4,19.9,27.8c-0.2,21.2-2.5,119-2.5,119C-5949.7-7510.5-5962.7-7560.7-5964.5-7625.1L-5964.5-7625.1z
				 M-6346.5-7629.6c0,0,0.8,2.9,1.5,8.3c1.2,11.2-0.4,12.7-3.1,5c-3.2-9-3.5-2-0.1,18.4c0.8,4.9,0.8,6.1-0.5,9.4
				c-0.8,2-2.2,6.9-3.3,10.7c-3.4,11.2-5.2,14.3-8.2,5.3c-1.5-4.6-2.8-5.3-1.6-8.8c1.5-4.4,1.2-7.8-1.5-12.2c-0.5-0.7-1.4-2.4-1.5-7
				c1.1-10.3-3.4-10.5-4.3-13.2c0.2-4.1-1.4-13.9,1.3-13.5c2.2,0.3,10.4,0.6,14.4-0.7C-6351.8-7628.4-6346.5-7629.6-6346.5-7629.6z
				 M-6006-7621.2c8.5,0.1,15.3,7.1,15.2,15.6c-0.1,8.6-7,15.5-15.4,15.4c-8.5-0.1-15.3-7.1-15.3-15.6
				C-6021.5-7614.4-6014.6-7621.2-6006-7621.2z M-6243.4-7616.7l11.6,2.5c2.5,0.9-2.7,162.8-98.3,277.9l-0.3-27.1
				C-6284.6-7427.3-6251.1-7506.1-6243.4-7616.7z M-6046.1-7609.1l1.3,38.7c-6.4-5.7-22.8-16.6-22.7-16.9l0.4-14.3
				C-6067.1-7601.5-6052.9-7600.2-6046.1-7609.1z M-6135.8-7610.4c2.7,1.2,5.2,4,7.5,6l-7.7,5L-6135.8-7610.4z M-5869.3-7603
				c49.9,16.1,99.4,16.7,148.5,6.7l3.1,9.5c-53.4,13.4-106.1,11.5-158.2-6.4L-5869.3-7603z M-6112.8-7600.8l2.3,16.8l-28.7,17.9
				l1.9-25.3l15-9.3L-6112.8-7600.8z M-5862-7581.7c4.6,0,8.3,3.8,8.2,8.4c0,4.6-3.8,8.4-8.3,8.3c-4.6,0-8.2-3.8-8.2-8.4
				C-5870.3-7578-5866.6-7581.7-5862-7581.7z M-5732.9-7578.4c4.6,0,8.3,3.8,8.2,8.4c0,4.6-3.8,8.4-8.3,8.3c-4.6,0-8.2-3.8-8.2-8.4
				C-5741.2-7574.7-5737.5-7578.4-5732.9-7578.4z M-5975.3-7557.3c3.4,13.3,2,43.2-3.2,63.3c-1.5,6-2.8,27.7-2.8,27.7
				c-0.9,1.1,29-24,37.7,9.9c3,11.7-10.4,22.3-19.2,18.9c-1.7-0.6-1.1-6.3,0.6-9.7c5.1-9.9-8.7-15.5-16.8-6.8
				c-18.8,20.2-0.9,72.7,27.7,78.4c23.8,4.7,43.5-19,27.8-33.6c-6.9-6.4-18.2,2-13.3,10c5.3,8.6-4.9,11.8-12.3,3.8
				c-13-14,2.3-34.4,22.2-29.2c31.9,8,24.2,58.4-9.3,60.5c-25.7,1.6-42.7-10-53.2-30.2c-9.8-19.5-10.2-34.8-4.9-68.4
				c3.2-20,1.2-36.9-4.3-36.9c-3,0-5.4,1.4-6,5c-1.1,7.3-2,8.7-6.5,5.9c-5.7-3.5-8.7-14.4,0.9-21.6c9.8-7.4,22.1,4.7,21.6,6.8
				c0.2-0.4,1.2-2.3,2.7-10.9c4.8-27.9-3.9-57.6-15.7-53c-2.5,1-2.3,2.1,1,4.1c7.6,4.5,0.6,15.7-9.1,14.3
				c-13.7-1.9-16.4-21.3-4.2-29.7C-5994.3-7588.7-5979.1-7572.1-5975.3-7557.3z M-6068.8-7582.5c0,0,24.1,15.6,25.4,19.5
				c0.8,2.5,1.3,24.1,1.3,24.1l-41.8-27.6l-61.5,36.7c1.1-8.3,6-29.6,6-29.6l32.8-20C-6106.6-7578.4-6084.7-7563.1-6068.8-7582.5z
				 M-5765.5-7574.9c4.6,0,8.3,3.8,8.2,8.4c0,4.6-3.8,8.4-8.3,8.3c-4.6,0-8.3-3.8-8.2-8.4C-5773.7-7571.1-5770-7574.9-5765.5-7574.9
				z M-5830.1-7576.1c4.6,0,8.3,3.8,8.2,8.4c0,4.6-3.8,8.4-8.4,8.4c-4.6,0-8.2-3.8-8.2-8.4
				C-5838.4-7572.3-5834.7-7576.1-5830.1-7576.1z M-5797.6-7573.5c4.6,0,8.3,3.8,8.2,8.4c0,4.6-3.8,8.4-8.3,8.3
				c-4.6,0-8.3-3.8-8.2-8.4C-5806-7569.7-5802.2-7573.5-5797.6-7573.5z M-5879.2-7563.3c21.9,5.1,43.8,10.2,64.9,13l-0.5,65.3
				l-6.2-0.5l0.3-58.4c-20.3-1.9-39.5-6.8-57.4-11.8L-5879.2-7563.3z M-5715.8-7557.8l-1.3,7.7c0,0-38.2,5.8-58.1,8
				c-0.6,13.1-1.4,57.1-1.4,57.1l-7.6,1.2l1.3-66.6C-5760.3-7552.2-5737.7-7554.4-5715.8-7557.8z M-6084.1-7561.7l44.2,30.8
				l4.7,31.8l-51.5-36.1c0,0-48,31.2-66,42.7l6-29.8L-6084.1-7561.7z M-5877.4-7551.5c18,4.2,35.9,8.6,53.9,10.5l-0.3,52.6l-8.2-2.4
				l0.2-42.7c-14.1-1.5-28.5-4.6-42.9-8L-5877.4-7551.5z M-5717.8-7546.6l-1.6,7.1c0,0-28.9,3.8-43.9,6.2
				c-1.3,0.3-1.8,46.3-1.8,46.3l-7.1,0.9l0.3-53.7L-5717.8-7546.6z M-5798.9-7542.4c4.6,0,8.2,3.8,8.2,8.4c0,4.6-3.8,8.4-8.3,8.3
				c-4.6,0-8.3-3.8-8.2-8.4C-5807.2-7538.7-5803.4-7542.5-5798.9-7542.4z M-6085.4-7529.4l52.2,37.2c0,0,5.8,18.9,6.9,29.4l-60.2-41
				l-77.3,49.5l9.4-31.3L-6085.4-7529.4z M-6406.6-7534.9c3.1,0.1,6.2,2.3,7.8,7.2c2.1,7,6.4,9,17.7,9c22.2-0.7,45.7-10.8,66.4-2.5
				c10,4,13.4,19.2,4.8,22.9c-9.3,4.1-13.2,1.3-16.2-6c-2.9-3.2-6.6-2.8-26.5,0.3c-8.8,1.2-19.1,2.4-27.8,2.9
				c-22.2,1.3-34.3-5.9-36.7-19.4C-6418.7-7529-6411.7-7535.1-6406.6-7534.9z M-5800-7510.1c4.6,0,8.3,3.8,8.2,8.4
				c0,4.6-3.8,8.4-8.3,8.4c-4.6,0-8.3-3.8-8.2-8.4C-5808.3-7506.5-5804.6-7510.2-5800-7510.1z M-5962.4-7503.4c6,0,10.8,4.9,10.8,11
				s-4.9,10.9-10.9,10.9c-6,0-10.8-4.9-10.8-11C-5973.3-7498.5-5968.4-7503.4-5962.4-7503.4z M-6086-7498.2c0,0,43,30.3,62.9,44.3
				l10.4,32.6l-73.3-50.3l-92,57.8l11.6-33.1L-6086-7498.2z M-5771.5-7481.6c3.8,10.9,10.8,19.2,18.2,27.7c0,0-4.4,8-19.5,7.2
				c-8.2-0.4-8.7,0.8-11.7,6.5c-4.8,7.1-8.6,11.7-11.7,13.9c-5.4,4-15.1-2.4-23-14.9c-2.8-4.6-4.1-5.7-13.1-5.7
				c-13.8,0-18.7-4-11.4-10c6.4-7.6,11.1-15.9,16.8-23.8l6.2,0.8c0.2,0.9-5.2,16.3-12.4,22.4c-3.7,4.1,1.3,5.6,10.2,4
				c5.7-1.5,7.1-0.9,11.1,7.9c8.3,16.7,12.9,16,23.4-0.5c3.8-7.4,3.7-8.2,13.4-5.8c10.6,1.3,13.8,0,9.5-3.8
				c-8.6-7.7-13.1-25.6-13.1-25.6L-5771.5-7481.6z M-6086.2-7465.9c0,0,77.7,53.8,77.6,52.6l15,37.9l-91.2-64l-114.6,71.9l17.7-36.9
				L-6086.2-7465.9z M-6083.9-7431.6l27.1,18.8l-0.7,32.9l-27.7-19.7L-6083.9-7431.6z M-6091-7430.9l-0.2,32.5l-25,14.3l-0.7-30.4
				L-6091-7430.9z M-6122.7-7410.6l-0.3,1.2l0.6,0.3l0.2,0l0.3,29.2l-28.7,19.3l0.8-33L-6122.7-7410.6z M-6050.1-7408.8l25.5,17.9
				l0.4,34.8l-27.7-19.1L-6050.1-7408.8z M-6018.7-7386.9l25.6,18.7l0.2,34.7l-26.1-18.5L-6018.7-7386.9z M-6155.9-7389.6l-0.8,32.1
				l-26.2,17.6l-0.5-32.8L-6155.9-7389.6z M-5883.9-7342.6c-5.2,5.3-7.1,4.6-11.3-4.4c-4.4-9.3-11.1-13.7-21-13.8
				c-12.5,0-4.2-8.1,9.1-8.8C-5884.2-7370.1-5873-7354.5-5883.9-7342.6z M-6189.2-7367.7l0,32.2l-26,12.9l-0.5-15.3l13.7-23
				L-6189.2-7367.7z M-6223.2-7325.4l0.8,5.8l-4.8,1.7L-6223.2-7325.4z M-5919.2-7087c-108.5,21.1-211.9,10.7-285.8-4.7l-35.1,57.9
				l-2.3-0.1l-9,15l0.9,1.7c0,0-29.3,54.1-41.6,71.1c138.8,1.5,443.4,7.1,443.4,7.1l-17.8-38.1l1-1l-17.5-39.7l-5.8-7
				c0,0-3.4-7.2-6.1-14.8c-2.3-7.1-12.7-26.5-12.7-26.5l-1.5,0.1L-5919.2-7087z M-6201.3-7084.6c1.4,1.1,137.8,30.1,280.1,6.2
				l7.5,13.3c-124.8,26.2-303.9-5-296.7-7.5L-6201.3-7084.6z M-6199.4-7058.8c12.5-0.2,25.1,6.9,33.4,18.3
				c2.6,3.7,6.9,14.3,6.9,14.3s6.2-9.9,12.2-14.7c9-7.4,20.7-13.5,37.3-12.5c15.3,0.8,32.1,9.6,46.9,34.2
				c4.2-13.9,55.6-60.4,95.9-0.2c5.1-15.7,28-46.7,63.5-24c2.3,5.3,4.8,11.3,4.8,11.3c-20.9-15.5-56.2-6.1-64.9,17.2
				c-0.8,2.9,0.1,4.3,1.1,7.2c10.7,16.1-17.9,15.1-9.1,2.5c1.6-2.9,1.8-5.2-0.6-9.1c-6.5-10.2-26.4-23.2-41.1-23.2
				c-17,0-36.1,11.1-42.7,21.3c-2.4,3.8-3,7.6-1,11c1.4,3.4,0.8,6.2-1.7,8.2c-6,4.7-13.2-1-10.2-8.2c1.9-3.2,1.7-7.1-1.9-12.5
				c-7.4-11-25.1-22.7-40.5-22.7c-22.2,0.1-45,15.8-43.8,29.1c0.5,5.8-1.1,8-5.8,7.3c-5.7-0.9-6.3-6.5-2.1-10.8
				c0.6-1.4,1.6-4.8-0.1-7.5c-22.8-32.5-58-23.9-66.3-16.9C-6221.5-7052.9-6210.5-7058.7-6199.4-7058.8L-6199.4-7058.8z
				 M-6220.8-7037c8.8,0.2,18.2,7.2,21,12.5c2.2-2.3,22.3-11.4,31.7,2.4c-25.3-2.5-26.2,24.7-7.5,27.7c-9,26,29.1,28.4,27.3,3.8
				c28.5,4.8,25.8-31.9-1.2-28.5c14.3-10,23.8-6.6,40.6,5.7c5.9-7.4,29.2-13.9,34.7-0.7c-26.6-2.2-22.7,29-2.8,29.7
				c-6.4,21.4,32.6,30.2,27.2-2.2c24.8,2.2,21.9-31.7-1.9-29.4c1.9-6.1,26.1-8.3,36.5,3.7c9.9-8.8,20.9-14.8,40.3-1.4
				c-26.6-5-27.6,29.9-2.8,28.3c-2.7,23,32.3,24.2,26.9-2.7c26.8-6.8,12.7-35.8-7-28.3c8.9-10.2,23.6-5,29.4-2.8
				c18.6-20.6,34-2.8,34-2.8c-31.6-4-25.6,41.6,5.6,25.7c-0.2,9.3,3.5,17.5,16.1,19.1l14.3,31.5l-423.2-6l24.2-41
				c2.3,0.8,15.8,2.4,19.1-13.6c27.6,9.5,30.1-23.2,9.5-28.8C-6226.5-7036.5-6223.7-7037.1-6220.8-7037z M-6237.5-7025.5
				c2.6,4.5,0.3,7.4-4.5,7.5C-6242-7018.2-6238.8-7022.6-6237.5-7025.5z M-5889.5-7012.6l2.6,5.8
				C-5889.8-7008-5890.1-7009.3-5889.5-7012.6z"/>
		</g>
	</g>
</g>
<path d="M130.6,223.1c7.8-0.2,11.3-9,5.5-15.8
	c-0.8-1-0.9-1.6,0.6-0.6c3.9,2.6,11.4,0.9,11.8-7.1c0.5-9.8-13.2-12.7-15.8-2.2c-0.1,1.1-1,1.1-0.8-0.5c0.2-4.2,1.6-8.2,3.4-12.1
	c-3.1,0-6.5,0-9.3,0c1.8,3.9,3.1,7.8,3.4,12.1c0.2,1.6-0.7,1.6-0.8,0.5c-2.6-10.4-16.3-7.6-15.8,2.2c0.4,8,7.9,9.7,11.8,7.1
	c1.5-1,1.5-0.4,0.6,0.6C119.3,214.1,122.8,222.9,130.6,223.1L130.6,223.1L130.6,223.1z"/>
<path d="M48.1,26.6c7.8,0.2,11.3,9,5.5,15.8
	c-0.8,1-0.9,1.6,0.6,0.6c3.9-2.6,11.4-0.9,11.8,7.1c0.5,9.8-13.2,12.7-15.8,2.2c-0.1-1.1-1-1.1-0.8,0.5C49.6,57,51,61,52.8,64.9
	c-3.1,0-6.5,0-9.3,0c1.8-3.9,3.1-7.8,3.4-12.1c0.2-1.6-0.7-1.6-0.8-0.5c-2.6,10.4-16.3,7.6-15.8-2.2c0.4-8,7.9-9.7,11.8-7.1
	c1.5,1,1.5,0.4,0.6-0.6C36.8,35.6,40.3,26.8,48.1,26.6L48.1,26.6L48.1,26.6z"/>
</svg>
