<?xml version="1.0" encoding="utf-8"?>
<!-- Generator: Adobe Illustrator 15.0.2, SVG Export Plug-In . SVG Version: 6.00 Build 0)  -->
<!DOCTYPE svg PUBLIC "-//W3C//DTD SVG 1.1//EN" "http://www.w3.org/Graphics/SVG/1.1/DTD/svg11.dtd">
<svg version="1.1" id="Layer_1" xmlns="http://www.w3.org/2000/svg" xmlns:xlink="http://www.w3.org/1999/xlink" x="0px" y="0px"
	 width="178.8px" height="249.7px" viewBox="0 0 178.8 249.7" enable-background="new 0 0 178.8 249.7" xml:space="preserve">
<g id="path147-0-8-1-6-13-2-06-7">
	<path d="M130.6,26.9c-7.8,0.2-11.3,9-5.5,15.8
		c0.8,1,0.9,1.6-0.6,0.6c-3.9-2.6-11.4-0.9-11.8,7.1c-0.5,9.8,13.2,12.7,15.8,2.2c0.1-1.1,1-1.1,0.8,0.5c-0.2,4.2-1.6,8.2-3.4,12.1
		c3.1,0,6.5,0,9.3,0c-1.8-3.9-3.1-7.8-3.4-12.1c-0.2-1.6,0.7-1.6,0.8-0.5c2.6,10.4,16.3,7.6,15.8-2.2c-0.4-8-7.9-9.7-11.8-7.1
		c-1.5,1-1.5,0.4-0.6-0.6C141.9,35.9,138.4,27.1,130.6,26.9L130.6,26.9L130.6,26.9z"/>
</g>
<g id="path147-0-8-1-6-75-2-83-35-3">

		<path transform-center-y="0.35355339" transform-center-x="-110.30866" d="
		M48.1,26.9c-7.8,0.2-11.3,9-5.5,15.8c0.8,1,0.9,1.6-0.6,0.6c-3.9-2.6-11.4-0.9-11.8,7.1c-0.5,9.8,13.3,12.7,15.8,2.2
		c0.1-1.1,1-1.1,0.8,0.5c-0.2,4.2-1.6,8.2-3.4,12.1c3.1,0,6.5,0,9.3,0c-1.8-3.9-3.1-7.8-3.4-12.1c-0.2-1.6,0.7-1.6,0.8-0.5
		c2.6,10.4,16.3,7.6,15.8-2.2c-0.4-8-7.9-9.7-11.8-7.1c-1.5,1-1.5,0.4-0.6-0.6C59.5,35.9,56,27.1,48.1,26.9L48.1,26.9L48.1,26.9z"/>
</g>
<g id="path147-0-8-1-6-7-5-5-7-77-6">
	<path d="M130.6,223.4c-7.8-0.2-11.3-9-5.5-15.8
		c0.8-1,0.9-1.6-0.6-0.6c-3.9,2.6-11.4,0.9-11.8-7.1c-0.5-9.8,13.2-12.7,15.8-2.2c0.1,1.1,1,1.1,0.8-0.5c-0.2-4.2-1.6-8.2-3.4-12.1
		c3.1,0,6.5,0,9.3,0c-1.8,3.9-3.1,7.8-3.4,12.1c-0.2,1.6,0.7,1.6,0.8,0.5c2.6-10.4,16.3-7.6,15.8,2.2c-0.4,8-7.9,9.7-11.8,7.1
		c-1.5-1-1.5-0.4-0.6,0.6C141.9,214.5,138.4,223.3,130.6,223.4L130.6,223.4L130.6,223.4z"/>
</g>
<g id="path147-0-8-1-6-75-6-1-2-08-0">

		<path transform-center-y="-0.35355495" transform-center-x="-110.30866" d="
		M48.1,223.4c-7.8-0.2-11.3-9-5.5-15.8c0.8-1,0.9-1.6-0.6-0.6c-3.9,2.6-11.4,0.9-11.8-7.1c-0.5-9.8,13.3-12.7,15.8-2.2
		c0.1,1.1,1,1.1,0.8-0.5c-0.2-4.2-1.6-8.2-3.4-12.1c3.1,0,6.5,0,9.3,0c-1.8,3.9-3.1,7.8-3.4,12.1c-0.2,1.6,0.7,1.6,0.8,0.5
		c2.6-10.4,16.3-7.6,15.8,2.2c-0.4,8-7.9,9.7-11.8,7.1c-1.5-1-1.5-0.4-0.6,0.6C59.5,214.5,56,223.3,48.1,223.4L48.1,223.4
		L48.1,223.4z"/>
</g>
<g id="path147-6-9-8-7-0-5-6-17-9">
	<path d="M164.5,209.3c3.1-0.1,4.5-3.7,2.2-6.6
		c-0.3-0.4-0.4-0.7,0.2-0.3c1.6,1.1,4.5,0.4,4.7-2.9c0.2-4.1-5.3-5.3-6.3-0.9c-0.1,0.5-0.4,0.4-0.3-0.2c0.1-1.8,0.6-3.4,1.4-5
		c-1.2,0-2.5,0-3.7,0c0.7,1.6,1.3,3.3,1.4,5c0.1,0.7-0.3,0.7-0.3,0.2c-1-4.4-6.5-3.2-6.3,0.9c0.2,3.3,3.1,4,4.7,2.9
		c0.6-0.4,0.6-0.2,0.2,0.3C160,205.6,161.4,209.2,164.5,209.3L164.5,209.3L164.5,209.3z"/>
</g>
<g id="path147-6-9-8-7-4-5-62-79-3">
	<path d="M14.2,40.4c-3.1,0.1-4.5,3.7-2.2,6.6
		c0.3,0.4,0.4,0.7-0.2,0.3c-1.6-1.1-4.5-0.4-4.7,2.9c-0.2,4.1,5.3,5.3,6.3,0.9c0.1-0.5,0.4-0.4,0.3,0.2c-0.1,1.8-0.6,3.4-1.4,5
		c1.2,0,2.5,0,3.7,0c-0.7-1.6-1.3-3.3-1.4-5c-0.1-0.7,0.3-0.7,0.3-0.2c1,4.4,6.5,3.2,6.3-0.9c-0.2-3.3-3.1-4-4.7-2.9
		c-0.6,0.4-0.6,0.2-0.2-0.3C18.7,44.1,17.3,40.4,14.2,40.4L14.2,40.4L14.2,40.4z"/>
</g>
<g id="path19-0-7-3">
	<path d="M14.4,37.9v-2.3h2.1v-3.8H6V29l11.3-17.4h1.9V29h3.2v2.7h-3.2l-0.1,3.8h1.8v2.3
		L14.4,37.9L14.4,37.9z M16.5,17.9L9.3,29h7.2V17.9z"/>
</g>
<g id="path19-4-4-9-1">
	<path d="M164.4,211.8v2.3h-2.1v3.8h10.5v2.7L161.5,238h-1.9v-17.4h-3.2v-2.7h3.2l0.1-3.8h-1.8
		v-2.3H164.4L164.4,211.8z M162.3,231.7l7.2-11.1h-7.2V231.7z"/>
</g>
</svg>
