<?xml version="1.0" encoding="utf-8"?>
<!-- Generator: Adobe Illustrator 15.0.2, SVG Export Plug-In . SVG Version: 6.00 Build 0)  -->
<!DOCTYPE svg PUBLIC "-//W3C//DTD SVG 1.1//EN" "http://www.w3.org/Graphics/SVG/1.1/DTD/svg11.dtd">
<svg version="1.1" id="Layer_1" xmlns="http://www.w3.org/2000/svg" xmlns:xlink="http://www.w3.org/1999/xlink" x="0px" y="0px"
	 width="178.8px" height="249.7px" viewBox="0 0 178.8 249.7" enable-background="new 0 0 178.8 249.7" xml:space="preserve">
<g id="path147-0-8-1-6-1-1-0-9-1-8">
	<path d="M89.4,106c-7.8,0.2-11.3,9-5.5,15.8
		c0.8,1,0.9,1.6-0.6,0.6c-3.9-2.6-11.4-0.9-11.8,7.1c-0.5,9.8,13.3,12.7,15.8,2.2c0.1-1.1,1-1.1,0.8,0.5c-0.2,4.2-1.6,8.2-3.4,12.1
		c3.1,0,6.5,0,9.3,0c-1.8-3.9-3.1-7.8-3.4-12.1c-0.2-1.6,0.7-1.6,0.8-0.5c2.6,10.4,16.3,7.6,15.8-2.2c-0.4-8-7.9-9.7-11.8-7.1
		c-1.5,1-1.5,0.4-0.6-0.6C100.8,115,97.2,106.2,89.4,106L89.4,106L89.4,106z"/>
</g>
<g id="path147-6-9-8-7-0-5-0-8-3">
	<path d="M164.6,209.3c3.1-0.1,4.5-3.7,2.2-6.6
		c-0.3-0.4-0.4-0.7,0.2-0.3c1.6,1.1,4.5,0.4,4.7-2.9c0.2-4.1-5.3-5.3-6.3-0.9c-0.1,0.5-0.4,0.4-0.3-0.2c0.1-1.8,0.6-3.4,1.4-5
		c-1.2,0-2.5,0-3.7,0c0.7,1.6,1.3,3.3,1.4,5c0.1,0.7-0.3,0.7-0.3,0.2c-1-4.4-6.5-3.2-6.3,0.9c0.2,3.3,3.1,4,4.7,2.9
		c0.6-0.4,0.6-0.2,0.2,0.3C160.1,205.6,161.5,209.2,164.6,209.3L164.6,209.3L164.6,209.3z"/>
</g>
<g id="path41-6-3-5-1">
	<path d="M6.2,37.9v-2.2h2.1l4.6-24.1h2.6l5,24.1h1.7v2.2h-5.9v-2.2h1.6L17.3,32h-6l-0.5,3.7h1.6
		v2.2H6.2z M16.8,29.3l-2.6-12.9l-2.4,12.9H16.8z"/>
</g>
<g id="path41-6-4-0-2-8">
	<path d="M156.6,211.8v2.2h2.1l4.6,24.1h2.6l5-24.1h1.7v-2.2h-5.9v2.2h1.6l-0.6,3.7h-6l-0.5-3.7
		h1.6v-2.2H156.6L156.6,211.8z M167.2,220.4l-2.6,12.9l-2.4-12.9H167.2L167.2,220.4z"/>
</g>
<g id="path147-6-9-8-7-4-5-6-8-9">
	<path d="M14.2,40.4c-3.1,0.1-4.5,3.7-2.2,6.6
		c0.3,0.4,0.4,0.7-0.2,0.3c-1.6-1.1-4.6-0.4-4.7,2.9c-0.2,4.1,5.3,5.3,6.3,0.9c0.1-0.5,0.4-0.4,0.3,0.2c-0.1,1.8-0.6,3.4-1.4,5
		c1.2,0,2.5,0,3.7,0c-0.7-1.6-1.3-3.3-1.4-5c-0.1-0.7,0.3-0.7,0.3-0.2c1,4.4,6.5,3.2,6.3-0.9c-0.2-3.3-3.1-4-4.7-2.9
		c-0.6,0.4-0.6,0.2-0.2-0.3C18.8,44.1,17.4,40.4,14.2,40.4L14.2,40.4L14.2,40.4z"/>
</g>
</svg>
