<?xml version="1.0" encoding="utf-8"?>
<!-- Generator: Adobe Illustrator 15.0.2, SVG Export Plug-In . SVG Version: 6.00 Build 0)  -->
<!DOCTYPE svg PUBLIC "-//W3C//DTD SVG 1.1//EN" "http://www.w3.org/Graphics/SVG/1.1/DTD/svg11.dtd">
<svg version="1.1" id="Layer_1" xmlns="http://www.w3.org/2000/svg" xmlns:xlink="http://www.w3.org/1999/xlink" x="0px" y="0px"
	 width="178.8px" height="249.7px" viewBox="0 0 178.8 249.7" enable-background="new 0 0 178.8 249.7" xml:space="preserve">
<g id="path147-0-8-1-6-13-2-22-1-5">
	<path d="M130.7,26.9c-7.8,0.2-11.3,9-5.5,15.8
		c0.8,1,0.9,1.6-0.6,0.6c-3.9-2.6-11.4-0.9-11.8,7.1c-0.5,9.8,13.2,12.7,15.8,2.2c0.1-1.1,1-1.1,0.8,0.5c-0.2,4.2-1.6,8.2-3.4,12.1
		c3.1,0,6.5,0,9.3,0c-1.8-3.9-3.1-7.8-3.4-12.1c-0.2-1.6,0.7-1.6,0.8-0.5c2.6,10.4,16.3,7.6,15.8-2.2c-0.4-8-7.9-9.7-11.8-7.1
		c-1.5,1-1.5,0.4-0.6-0.6C142,35.9,138.5,27.1,130.7,26.9L130.7,26.9L130.7,26.9z"/>
</g>
<g id="path147-0-8-1-6-75-2-83-21-1-8">

		<path transform-center-y="0.35355339" transform-center-x="-110.30866" d="
		M48.2,26.9c-7.8,0.2-11.3,9-5.5,15.8c0.8,1,0.9,1.6-0.6,0.6c-3.9-2.6-11.4-0.9-11.8,7.1c-0.5,9.8,13.3,12.7,15.8,2.2
		c0.1-1.1,1-1.1,0.8,0.5c-0.2,4.2-1.6,8.2-3.4,12.1c3.1,0,6.5,0,9.3,0c-1.8-3.9-3.1-7.8-3.4-12.1c-0.2-1.6,0.7-1.6,0.8-0.5
		C52.8,63,66.5,60.2,66,50.4c-0.4-8-7.9-9.7-11.8-7.1c-1.5,1-1.5,0.4-0.6-0.6C59.5,35.9,56,27.1,48.2,26.9L48.2,26.9L48.2,26.9z"/>
</g>
<g id="path147-0-8-1-6-7-5-5-7-3-5-5">
	<path d="M130.7,223.4c-7.8-0.2-11.3-9-5.5-15.8
		c0.8-1,0.9-1.6-0.6-0.6c-3.9,2.6-11.4,0.9-11.8-7.1c-0.5-9.8,13.2-12.7,15.8-2.2c0.1,1.1,1,1.1,0.8-0.5c-0.2-4.2-1.6-8.2-3.4-12.1
		c3.1,0,6.5,0,9.3,0c-1.8,3.9-3.1,7.8-3.4,12.1c-0.2,1.6,0.7,1.6,0.8,0.5c2.6-10.4,16.3-7.6,15.8,2.2c-0.4,8-7.9,9.7-11.8,7.1
		c-1.5-1-1.5-0.4-0.6,0.6C142,214.5,138.5,223.3,130.7,223.4L130.7,223.4L130.7,223.4z"/>
</g>
<g id="path147-0-8-1-6-75-6-1-2-7-9-3">

		<path transform-center-y="-0.35355495" transform-center-x="-110.30866" d="
		M48.2,223.4c-7.8-0.2-11.3-9-5.5-15.8c0.8-1,0.9-1.6-0.6-0.6c-3.9,2.6-11.4,0.9-11.8-7.1c-0.5-9.8,13.3-12.7,15.8-2.2
		c0.1,1.1,1,1.1,0.8-0.5c-0.2-4.2-1.6-8.2-3.4-12.1c3.1,0,6.5,0,9.3,0c-1.8,3.9-3.1,7.8-3.4,12.1c-0.2,1.6,0.7,1.6,0.8,0.5
		c2.6-10.4,16.3-7.6,15.8,2.2c-0.4,8-7.9,9.7-11.8,7.1c-1.5-1-1.5-0.4-0.6,0.6C59.5,214.5,56,223.3,48.2,223.4L48.2,223.4
		L48.2,223.4z"/>
</g>
<g id="path147-0-8-1-6-2-00-7-1-1-4">
	<path d="M89.4,53.3c-7.8,0.2-11.3,9-5.5,15.8
		c0.8,1,0.9,1.6-0.6,0.6c-3.9-2.6-11.4-0.9-11.8,7.1C71,86.6,84.8,89.5,87.3,79c0.1-1.1,1-1.1,0.8,0.5c-0.2,4.2-1.6,8.2-3.4,12.1
		c3.1,0,6.5,0,9.3,0c-1.8-3.9-3.1-7.8-3.4-12.1c-0.2-1.6,0.7-1.6,0.8-0.5c2.6,10.4,16.3,7.6,15.8-2.2c-0.4-8-7.9-9.7-11.8-7.1
		c-1.5,1-1.5,0.4-0.6-0.6C100.8,62.3,97.3,53.5,89.4,53.3L89.4,53.3L89.4,53.3z"/>
</g>
<g id="path147-0-8-1-6-2-0-8-6-8-1-8">
	<path d="M89.4,197.1c-7.8-0.2-11.3-9-5.5-15.8
		c0.8-1,0.9-1.6-0.6-0.6c-3.9,2.6-11.4,0.9-11.8-7.1c-0.5-9.8,13.3-12.7,15.8-2.2c0.1,1.1,1,1.1,0.8-0.5c-0.2-4.2-1.6-8.2-3.4-12.1
		c3.1,0,6.5,0,9.3,0c-1.8,3.9-3.1,7.8-3.4,12.1c-0.2,1.6,0.7,1.6,0.8,0.5c2.6-10.4,16.3-7.6,15.8,2.2c-0.4,8-7.9,9.7-11.8,7.1
		c-1.5-1-1.5-0.4-0.6,0.6C100.8,188.1,97.3,196.9,89.4,197.1L89.4,197.1L89.4,197.1z"/>
</g>
<g id="path147-6-9-8-7-0-5-6-83-3-7">
	<path d="M164.6,209.3c3.1-0.1,4.5-3.7,2.2-6.6
		c-0.3-0.4-0.4-0.7,0.2-0.3c1.6,1.1,4.6,0.4,4.7-2.9c0.2-4.1-5.3-5.3-6.3-0.9c-0.1,0.5-0.4,0.4-0.3-0.2c0.1-1.8,0.6-3.4,1.4-5
		c-1.2,0-2.5,0-3.7,0c0.7,1.6,1.3,3.3,1.4,5c0.1,0.7-0.3,0.7-0.3,0.2c-1-4.4-6.5-3.2-6.3,0.9c0.2,3.3,3.1,4,4.7,2.9
		c0.6-0.4,0.6-0.2,0.2,0.3C160.1,205.6,161.5,209.2,164.6,209.3L164.6,209.3L164.6,209.3z"/>
</g>
<g id="path147-0-8-1-6-75-2-9-77-44-0-7">

		<path transform-center-y="0.35355339" transform-center-x="-110.30866" d="
		M48.2,79.7c-7.8,0.2-11.3,9-5.5,15.8c0.8,1,0.9,1.6-0.6,0.6c-3.9-2.6-11.4-0.9-11.8,7.1c-0.5,9.8,13.3,12.7,15.8,2.2
		c0.1-1.1,1-1.1,0.8,0.5c-0.2,4.2-1.6,8.2-3.4,12.1c3.1,0,6.5,0,9.3,0c-1.8-3.9-3.1-7.8-3.4-12.1c-0.2-1.6,0.7-1.6,0.8-0.5
		c2.6,10.4,16.3,7.6,15.8-2.2c-0.4-8-7.9-9.7-11.8-7.1c-1.5,1-1.5,0.4-0.6-0.6C59.5,88.6,56,79.8,48.2,79.7L48.2,79.7L48.2,79.7z"/>
</g>
<g id="path147-0-8-1-6-75-2-8-0-3-9-3">

		<path transform-center-y="-0.35355495" transform-center-x="-110.30866" d="
		M48.2,170.7c-7.8-0.2-11.3-9-5.5-15.8c0.8-1,0.9-1.6-0.6-0.6c-3.9,2.6-11.4,0.9-11.8-7.1c-0.5-9.8,13.3-12.7,15.8-2.2
		c0.1,1.1,1,1.1,0.8-0.5c-0.2-4.2-1.6-8.2-3.4-12.1c3.1,0,6.5,0,9.3,0c-1.8,3.9-3.1,7.8-3.4,12.1c-0.2,1.6,0.7,1.6,0.8,0.5
		c2.6-10.4,16.3-7.6,15.8,2.2c-0.4,8-7.9,9.7-11.8,7.1c-1.5-1-1.5-0.4-0.6,0.6C59.5,161.7,56,170.5,48.2,170.7L48.2,170.7
		L48.2,170.7z"/>
</g>
<g id="path147-0-8-1-6-75-2-9-7-1-9-7-9">

		<path transform-center-y="0.35355339" transform-center-x="-110.30866" d="
		M130.7,79.7c-7.8,0.2-11.3,9-5.5,15.8c0.8,1,0.9,1.6-0.6,0.6c-3.9-2.6-11.4-0.9-11.8,7.1c-0.5,9.8,13.2,12.7,15.8,2.2
		c0.1-1.1,1-1.1,0.8,0.5c-0.2,4.2-1.6,8.2-3.4,12.1c3.1,0,6.5,0,9.3,0c-1.8-3.9-3.1-7.8-3.4-12.1c-0.2-1.6,0.7-1.6,0.8-0.5
		c2.6,10.4,16.3,7.6,15.8-2.2c-0.4-8-7.9-9.7-11.8-7.1c-1.5,1-1.5,0.4-0.6-0.6C142,88.6,138.5,79.8,130.7,79.7L130.7,79.7
		L130.7,79.7z"/>
</g>
<g id="path147-0-8-1-6-75-2-8-5-1-52-2-8">

		<path transform-center-y="-0.35355495" transform-center-x="-110.30866" d="
		M130.7,170.7c-7.8-0.2-11.3-9-5.5-15.8c0.8-1,0.9-1.6-0.6-0.6c-3.9,2.6-11.4,0.9-11.8-7.1c-0.5-9.8,13.2-12.7,15.8-2.2
		c0.1,1.1,1,1.1,0.8-0.5c-0.2-4.2-1.6-8.2-3.4-12.1c3.1,0,6.5,0,9.3,0c-1.8,3.9-3.1,7.8-3.4,12.1c-0.2,1.6,0.7,1.6,0.8,0.5
		c2.6-10.4,16.3-7.6,15.8,2.2c-0.4,8-7.9,9.7-11.8,7.1c-1.5-1-1.5-0.4-0.6,0.6C142,161.7,138.5,170.5,130.7,170.7L130.7,170.7
		L130.7,170.7z"/>
</g>
<g id="path147-6-9-8-7-4-5-62-52-8-0">
	<path d="M14.3,40.4c-3.1,0.1-4.5,3.7-2.2,6.6
		c0.3,0.4,0.4,0.7-0.2,0.3c-1.6-1.1-4.6-0.4-4.7,2.9c-0.2,4.1,5.3,5.3,6.3,0.9c0.1-0.5,0.4-0.4,0.3,0.2c-0.1,1.8-0.6,3.4-1.4,5
		c1.2,0,2.5,0,3.7,0c-0.7-1.6-1.3-3.3-1.4-5c-0.1-0.7,0.3-0.7,0.3-0.2c1,4.4,6.5,3.2,6.3-0.9c-0.2-3.3-3.1-4-4.7-2.9
		C16,47.7,16,47.5,16.4,47C18.8,44.1,17.4,40.4,14.3,40.4L14.3,40.4L14.3,40.4z"/>
</g>
<g id="path31-6-7-6">
	<path d="M6.3,37.9V11.6h2.5v26.3H6.3z"/>
</g>
<g id="path33-9-3-6">
	<path d="M16.4,11.6c-2.5,0-4.4,2.2-4.4,5v16.3c0,2.8,2,5,4.4,5h1.4c2.5,0,4.4-2.2,4.4-5V16.6
		c0-2.8-2-5-4.4-5H16.4z M17.1,14c1.4,0,2.6,1.1,2.6,2.5V33c0,1.4-1.2,2.5-2.6,2.5s-2.6-1.1-2.6-2.5V16.5C14.5,15.2,15.7,14,17.1,14
		L17.1,14z"/>
</g>
<g id="path31-1-4-0-7">
	<path d="M172.6,211.8v26.3h-2.5v-26.3H172.6z"/>
</g>
<g id="path33-5-7-4-0">
	<path d="M162.5,238.1c2.5,0,4.4-2.2,4.4-5v-16.3c0-2.8-2-5-4.4-5h-1.4c-2.5,0-4.4,2.2-4.4,5v16.3
		c0,2.8,2,5,4.4,5H162.5z M161.8,235.6c-1.4,0-2.6-1.1-2.6-2.5v-16.5c0-1.4,1.2-2.5,2.6-2.5c1.4,0,2.6,1.1,2.6,2.5v16.5
		C164.4,234.5,163.2,235.6,161.8,235.6L161.8,235.6z"/>
</g>
</svg>
