<?xml version="1.0" encoding="utf-8"?>
<!-- Generator: Adobe Illustrator 15.0.2, SVG Export Plug-In . SVG Version: 6.00 Build 0)  -->
<!DOCTYPE svg PUBLIC "-//W3C//DTD SVG 1.1//EN" "http://www.w3.org/Graphics/SVG/1.1/DTD/svg11.dtd">
<svg version="1.1" id="Layer_1" xmlns="http://www.w3.org/2000/svg" xmlns:xlink="http://www.w3.org/1999/xlink" x="0px" y="0px"
	 width="178.8px" height="249.7px" viewBox="0 0 178.8 249.7" enable-background="new 0 0 178.8 249.7" xml:space="preserve">
<g id="path147-0-8-1-6-13-2-5-7-1">
	<path d="M130.6,26.9c-7.8,0.2-11.3,9-5.5,15.8
		c0.8,1,0.9,1.6-0.6,0.6c-3.9-2.6-11.4-0.9-11.8,7.1c-0.5,9.8,13.3,12.7,15.8,2.2c0.1-1.1,1-1.1,0.8,0.5c-0.2,4.2-1.6,8.2-3.4,12.1
		c3.1,0,6.5,0,9.3,0c-1.8-3.9-3.1-7.8-3.4-12.1c-0.2-1.6,0.7-1.6,0.8-0.5c2.6,10.4,16.3,7.6,15.8-2.2c-0.4-8-7.9-9.7-11.8-7.1
		c-1.5,1-1.5,0.4-0.6-0.6C142,35.9,138.5,27.1,130.6,26.9C130.7,26.9,130.7,26.9,130.6,26.9L130.6,26.9z"/>
</g>
<g id="path147-0-8-1-6-75-2-83-8-8-7">

		<path transform-center-y="0.35355339" transform-center-x="-110.30866" d="
		M48.2,26.9c-7.8,0.2-11.3,9-5.5,15.8c0.8,1,0.9,1.6-0.6,0.6c-3.9-2.6-11.4-0.9-11.8,7.1c-0.5,9.8,13.2,12.7,15.8,2.2
		c0.1-1.1,1-1.1,0.8,0.5c-0.2,4.2-1.6,8.2-3.4,12.1c3.1,0,6.5,0,9.3,0c-1.8-3.9-3.1-7.8-3.4-12.1c-0.2-1.6,0.7-1.6,0.8-0.5
		C52.8,63,66.5,60.2,66,50.4c-0.4-8-7.9-9.7-11.8-7.1c-1.5,1-1.5,0.4-0.6-0.6C59.5,35.9,56,27.1,48.2,26.9L48.2,26.9L48.2,26.9z"/>
</g>
<g id="path147-0-8-1-6-7-5-5-7-8-7-8">
	<path d="M130.6,223.4c-7.8-0.2-11.3-9-5.5-15.8
		c0.8-1,0.9-1.6-0.6-0.6c-3.9,2.6-11.4,0.9-11.8-7.1c-0.5-9.8,13.3-12.7,15.8-2.2c0.1,1.1,1,1.1,0.8-0.5c-0.2-4.2-1.6-8.2-3.4-12.1
		c3.1,0,6.5,0,9.3,0c-1.8,3.9-3.1,7.8-3.4,12.1c-0.2,1.6,0.7,1.6,0.8,0.5c2.6-10.4,16.3-7.6,15.8,2.2c-0.4,8-7.9,9.7-11.8,7.1
		c-1.5-1-1.5-0.4-0.6,0.6C142,214.5,138.5,223.3,130.6,223.4C130.7,223.4,130.7,223.4,130.6,223.4L130.6,223.4z"/>
</g>
<g id="path147-0-8-1-6-75-6-1-2-0-6-8">

		<path transform-center-y="-0.35355495" transform-center-x="-110.30866" d="
		M48.2,223.4c-7.8-0.2-11.3-9-5.5-15.8c0.8-1,0.9-1.6-0.6-0.6c-3.9,2.6-11.4,0.9-11.8-7.1c-0.5-9.8,13.2-12.7,15.8-2.2
		c0.1,1.1,1,1.1,0.8-0.5c-0.2-4.2-1.6-8.2-3.4-12.1c3.1,0,6.5,0,9.3,0c-1.8,3.9-3.1,7.8-3.4,12.1c-0.2,1.6,0.7,1.6,0.8,0.5
		c2.6-10.4,16.3-7.6,15.8,2.2c-0.4,8-7.9,9.7-11.8,7.1c-1.5-1-1.5-0.4-0.6,0.6C59.5,214.5,56,223.3,48.2,223.4L48.2,223.4
		L48.2,223.4z"/>
</g>
<g id="path147-0-8-1-6-7-5-7-3-0-9-6-4">
	<path d="M130.6,106c-7.8,0.2-11.3,9-5.5,15.8
		c0.8,1,0.9,1.6-0.6,0.6c-3.9-2.6-11.4-0.9-11.8,7.1c-0.5,9.8,13.3,12.7,15.8,2.2c0.1-1.1,1-1.1,0.8,0.5c-0.2,4.2-1.6,8.2-3.4,12.1
		c3.1,0,6.5,0,9.3,0c-1.8-3.9-3.1-7.8-3.4-12.1c-0.2-1.6,0.7-1.6,0.8-0.5c2.6,10.4,16.3,7.6,15.8-2.2c-0.4-8-7.9-9.7-11.8-7.1
		c-1.5,1-1.5,0.4-0.6-0.6C142,115,138.5,106.2,130.6,106C130.7,106,130.7,106,130.6,106L130.6,106z"/>
</g>
<g id="path147-0-8-1-6-75-6-6-5-3-0-0-2">

		<path transform-center-y="0.35355651" transform-center-x="-110.30866" d="
		M48.2,106c-7.8,0.2-11.3,9-5.5,15.8c0.8,1,0.9,1.6-0.6,0.6c-3.9-2.6-11.4-0.9-11.8,7.1c-0.5,9.8,13.2,12.7,15.8,2.2
		c0.1-1.1,1-1.1,0.8,0.5c-0.2,4.2-1.6,8.2-3.4,12.1c3.1,0,6.5,0,9.3,0c-1.8-3.9-3.1-7.8-3.4-12.1c-0.2-1.6,0.7-1.6,0.8-0.5
		c2.6,10.4,16.3,7.6,15.8-2.2c-0.4-8-7.9-9.7-11.8-7.1c-1.5,1-1.5,0.4-0.6-0.6C59.5,115,56,106.2,48.2,106L48.2,106L48.2,106z"/>
</g>
<g id="path147-6-9-8-7-0-5-6-4-2-8">
	<path d="M164.6,209.3c3.1-0.1,4.5-3.7,2.2-6.6
		c-0.3-0.4-0.4-0.7,0.2-0.3c1.6,1.1,4.5,0.4,4.7-2.9c0.2-4.1-5.3-5.3-6.3-0.9c-0.1,0.5-0.4,0.4-0.3-0.2c0.1-1.8,0.6-3.4,1.4-5
		c-1.2,0-2.5,0-3.7,0c0.7,1.6,1.3,3.3,1.4,5c0.1,0.7-0.3,0.7-0.3,0.2c-1-4.4-6.5-3.2-6.3,0.9c0.2,3.3,3.1,4,4.7,2.9
		c0.6-0.4,0.6-0.2,0.2,0.3C160.1,205.6,161.5,209.2,164.6,209.3L164.6,209.3L164.6,209.3z"/>
</g>
<g id="path147-6-9-8-7-4-5-62-0-2-9">
	<path d="M14.2,40.4c-3.1,0.1-4.5,3.7-2.2,6.6
		c0.3,0.4,0.4,0.7-0.2,0.3c-1.6-1.1-4.6-0.4-4.7,2.9c-0.2,4.1,5.3,5.3,6.3,0.9c0.1-0.5,0.4-0.4,0.3,0.2c-0.1,1.8-0.6,3.4-1.4,5
		c1.2,0,2.5,0,3.7,0c-0.7-1.6-1.3-3.3-1.4-5c-0.1-0.7,0.3-0.7,0.3-0.2c1,4.4,6.5,3.2,6.3-0.9c-0.2-3.3-3.1-4-4.7-2.9
		c-0.6,0.4-0.6,0.2-0.2-0.3C18.8,44.1,17.4,40.4,14.2,40.4L14.2,40.4L14.2,40.4z"/>
</g>
<g id="path23-8-1-4">
	<path d="M6.5,29.8c-0.3-2.2-0.3-7.9-0.1-9.6c0.8-5.2,2.8-7.6,6.1-8.3c3.2-0.8,7.7,0.1,8.7,4.4
		l-2.7,0.1c-1.5-2.9-5.1-2.1-7.2-0.9c-1.7,1-2.4,5.3-2.1,5.5c0,0,3.1-2.3,5.6-2.2c5.3,0.5,7.5,5.1,7.3,9.5c-0.2,5.2-1.8,9.4-7.4,9.6
		C9.5,37.7,7,34.8,6.5,29.8L6.5,29.8L6.5,29.8z M19.6,28.4c0-3.6-1.6-6.3-4.7-6.6c-3.1-0.3-6.2,2.7-6,6.4c0.2,3.7,1.6,6.8,5.4,6.8
		C18.4,35,19.6,31,19.6,28.4L19.6,28.4L19.6,28.4z"/>
</g>
<g id="path23-6-8-9-6">
	<path d="M172.3,219.9c0.3,2.2,0.3,7.9,0.1,9.6c-0.8,5.2-2.8,7.6-6.1,8.3
		c-3.2,0.8-7.7-0.1-8.7-4.4l2.7-0.1c1.5,2.9,5.1,2.1,7.2,0.9c1.7-1,2.4-5.3,2.1-5.5c0,0-3.1,2.3-5.6,2.2c-5.3-0.6-7.5-5.1-7.3-9.5
		c0.2-5.2,1.8-9.4,7.4-9.6C169.4,212,171.8,214.9,172.3,219.9L172.3,219.9L172.3,219.9z M159.2,221.3c0,3.6,1.6,6.3,4.7,6.6
		c3.1,0.3,6.2-2.7,6-6.4c-0.2-3.7-1.6-6.8-5.4-6.8C160.5,214.7,159.2,218.7,159.2,221.3L159.2,221.3L159.2,221.3z"/>
</g>
</svg>
