<?xml version="1.0" encoding="utf-8"?>
<!-- Generator: Adobe Illustrator 15.0.2, SVG Export Plug-In . SVG Version: 6.00 Build 0)  -->
<!DOCTYPE svg PUBLIC "-//W3C//DTD SVG 1.1//EN" "http://www.w3.org/Graphics/SVG/1.1/DTD/svg11.dtd">
<svg version="1.1" id="Layer_1" xmlns="http://www.w3.org/2000/svg" xmlns:xlink="http://www.w3.org/1999/xlink" x="0px" y="0px"
	 width="178.8px" height="249.7px" viewBox="0 0 178.8 249.7" enable-background="new 0 0 178.8 249.7" xml:space="preserve">
<g id="path147-0-8-1-6-13-2-2-3-8">
	<path d="M130.6,26.9c-7.8,0.2-11.3,9-5.5,15.8
		c0.8,1,0.9,1.6-0.6,0.6c-3.9-2.6-11.4-0.9-11.8,7.1c-0.5,9.8,13.2,12.7,15.8,2.2c0.1-1.1,1-1.1,0.8,0.5c-0.2,4.2-1.6,8.2-3.4,12.1
		c3.1,0,6.5,0,9.3,0c-1.8-3.9-3.1-7.8-3.4-12.1c-0.2-1.6,0.7-1.6,0.8-0.5c2.6,10.4,16.3,7.6,15.8-2.2c-0.4-8-7.9-9.7-11.8-7.1
		c-1.5,1-1.5,0.4-0.6-0.6C141.9,35.9,138.4,27.1,130.6,26.9L130.6,26.9L130.6,26.9z"/>
</g>
<g id="path147-0-8-1-6-75-2-83-9-8-9">

		<path transform-center-y="0.35355339" transform-center-x="-110.30866" d="
		M48.1,26.9c-7.8,0.2-11.3,9-5.5,15.8c0.8,1,0.9,1.6-0.6,0.6c-3.9-2.6-11.4-0.9-11.8,7.1c-0.5,9.8,13.3,12.7,15.8,2.2
		c0.1-1.1,1-1.1,0.8,0.5c-0.2,4.2-1.6,8.2-3.4,12.1c3.1,0,6.5,0,9.3,0c-1.8-3.9-3.1-7.8-3.4-12.1c-0.2-1.6,0.7-1.6,0.8-0.5
		c2.6,10.4,16.3,7.6,15.8-2.2c-0.4-8-7.9-9.7-11.8-7.1c-1.5,1-1.5,0.4-0.6-0.6C59.5,35.9,56,27.1,48.1,26.9
		C48.2,26.9,48.2,26.9,48.1,26.9L48.1,26.9z"/>
</g>
<g id="path147-0-8-1-6-7-5-5-7-62-3-0">
	<path d="M130.6,223.4c-7.8-0.2-11.3-9-5.5-15.8
		c0.8-1,0.9-1.6-0.6-0.6c-3.9,2.6-11.4,0.9-11.8-7.1c-0.5-9.8,13.2-12.7,15.8-2.2c0.1,1.1,1,1.1,0.8-0.5c-0.2-4.2-1.6-8.2-3.4-12.1
		c3.1,0,6.5,0,9.3,0c-1.8,3.9-3.1,7.8-3.4,12.1c-0.2,1.6,0.7,1.6,0.8,0.5c2.6-10.4,16.3-7.6,15.8,2.2c-0.4,8-7.9,9.7-11.8,7.1
		c-1.5-1-1.5-0.4-0.6,0.6C141.9,214.5,138.4,223.3,130.6,223.4L130.6,223.4L130.6,223.4z"/>
</g>
<g id="path147-0-8-1-6-75-6-1-2-41-4-5">

		<path transform-center-y="-0.35355495" transform-center-x="-110.30866" d="
		M48.1,223.4c-7.8-0.2-11.3-9-5.5-15.8c0.8-1,0.9-1.6-0.6-0.6c-3.9,2.6-11.4,0.9-11.8-7.1c-0.5-9.8,13.3-12.7,15.8-2.2
		c0.1,1.1,1,1.1,0.8-0.5c-0.2-4.2-1.6-8.2-3.4-12.1c3.1,0,6.5,0,9.3,0c-1.8,3.9-3.1,7.8-3.4,12.1c-0.2,1.6,0.7,1.6,0.8,0.5
		c2.6-10.4,16.3-7.6,15.8,2.2c-0.4,8-7.9,9.7-11.8,7.1c-1.5-1-1.5-0.4-0.6,0.6C59.5,214.5,56,223.3,48.1,223.4
		C48.2,223.4,48.2,223.4,48.1,223.4L48.1,223.4z"/>
</g>
<g id="path147-0-8-1-6-2-00-7-5-5-3">
	<path d="M89.4,66.5c-7.8,0.2-11.3,9-5.5,15.8
		c0.8,1,0.9,1.6-0.6,0.6C79.4,80.3,71.9,82,71.5,90c-0.5,9.8,13.2,12.7,15.8,2.2c0.1-1.1,1-1.1,0.8,0.5c-0.2,4.2-1.6,8.2-3.4,12.1
		c3.1,0,6.5,0,9.3,0c-1.8-3.9-3.1-7.8-3.4-12.1c-0.2-1.6,0.7-1.6,0.8-0.5c2.6,10.4,16.3,7.6,15.8-2.2c-0.4-8-7.9-9.7-11.8-7.1
		c-1.5,1-1.5,0.4-0.6-0.6C100.7,75.5,97.2,66.6,89.4,66.5L89.4,66.5L89.4,66.5z"/>
</g>
<g id="path147-0-8-1-6-7-5-7-3-0-4-4-6">
	<path d="M130.6,106c-7.8,0.2-11.3,9-5.5,15.8
		c0.8,1,0.9,1.6-0.6,0.6c-3.9-2.6-11.4-0.9-11.8,7.1c-0.5,9.8,13.2,12.7,15.8,2.2c0.1-1.1,1-1.1,0.8,0.5c-0.2,4.2-1.6,8.2-3.4,12.1
		c3.1,0,6.5,0,9.3,0c-1.8-3.9-3.1-7.8-3.4-12.1c-0.2-1.6,0.7-1.6,0.8-0.5c2.6,10.4,16.3,7.6,15.8-2.2c-0.4-8-7.9-9.7-11.8-7.1
		c-1.5,1-1.5,0.4-0.6-0.6C141.9,115,138.4,106.2,130.6,106L130.6,106L130.6,106z"/>
</g>
<g id="path147-0-8-1-6-75-6-6-5-3-2-4-8">

		<path transform-center-y="0.35355651" transform-center-x="-110.30866" d="
		M48.1,106c-7.8,0.2-11.3,9-5.5,15.8c0.8,1,0.9,1.6-0.6,0.6c-3.9-2.6-11.4-0.9-11.8,7.1c-0.5,9.8,13.3,12.7,15.8,2.2
		c0.1-1.1,1-1.1,0.8,0.5c-0.2,4.2-1.6,8.2-3.4,12.1c3.1,0,6.5,0,9.3,0c-1.8-3.9-3.1-7.8-3.4-12.1c-0.2-1.6,0.7-1.6,0.8-0.5
		c2.6,10.4,16.3,7.6,15.8-2.2c-0.4-8-7.9-9.7-11.8-7.1c-1.5,1-1.5,0.4-0.6-0.6C59.5,115,56,106.2,48.1,106
		C48.2,106,48.2,106,48.1,106L48.1,106z"/>
</g>
<g id="path147-0-8-1-6-2-0-8-6-42-9-6">
	<path d="M89.4,183.9c-7.8-0.2-11.3-9-5.5-15.8
		c0.8-1,0.9-1.6-0.6-0.6c-3.9,2.6-11.4,0.9-11.8-7.1c-0.5-9.8,13.3-12.7,15.8-2.2c0.1,1.1,1,1.1,0.8-0.5c-0.2-4.2-1.6-8.2-3.4-12.1
		c3.1,0,6.5,0,9.3,0c-1.8,3.9-3.1,7.8-3.4,12.1c-0.2,1.6,0.7,1.6,0.8,0.5c2.6-10.4,16.3-7.6,15.8,2.2c-0.4,8-7.9,9.7-11.8,7.1
		c-1.5-1-1.5-0.4-0.6,0.6C100.7,174.9,97.2,183.7,89.4,183.9L89.4,183.9L89.4,183.9z"/>
</g>
<g id="path147-6-9-8-7-0-5-6-1-6-9">
	<path d="M164.6,209.3c3.1-0.1,4.5-3.7,2.2-6.6
		c-0.3-0.4-0.4-0.7,0.2-0.3c1.6,1.1,4.5,0.4,4.7-2.9c0.2-4.1-5.3-5.3-6.3-0.9c-0.1,0.5-0.4,0.4-0.3-0.2c0.1-1.8,0.6-3.4,1.4-5
		c-1.2,0-2.5,0-3.7,0c0.7,1.6,1.3,3.3,1.4,5c0.1,0.7-0.3,0.7-0.3,0.2c-1-4.4-6.5-3.2-6.3,0.9c0.2,3.3,3.1,4,4.7,2.9
		c0.6-0.4,0.6-0.2,0.2,0.3C160,205.6,161.4,209.2,164.6,209.3L164.6,209.3L164.6,209.3z"/>
</g>
<g id="path147-6-9-8-7-4-5-62-4-0-0">
	<path d="M14.2,40.4c-3.1,0.1-4.5,3.7-2.2,6.6
		c0.3,0.4,0.4,0.7-0.2,0.3c-1.6-1.1-4.5-0.4-4.7,2.9c-0.2,4.1,5.3,5.3,6.3,0.9c0.1-0.5,0.4-0.4,0.3,0.2c-0.1,1.8-0.6,3.4-1.4,5
		c1.2,0,2.5,0,3.7,0c-0.7-1.6-1.3-3.3-1.4-5c-0.1-0.7,0.3-0.7,0.3-0.2c1,4.4,6.5,3.2,6.3-0.9c-0.2-3.3-3.1-4-4.7-2.9
		c-0.6,0.4-0.6,0.2-0.2-0.3C18.7,44.1,17.3,40.4,14.2,40.4L14.2,40.4L14.2,40.4z"/>
</g>
<g id="path27-3-3-2">
	<path d="M5.7,30.2c0.1-3.5,1.4-4.9,3.9-6.7c-2-1.4-2.8-3.6-2.7-5.4c0.4-4.4,3.8-6.6,7.5-6.5
		c3.7,0.1,6.9,3,7.1,6.2c0.2,2.8-0.6,4.1-2.6,5.6c2.3,2,3.8,3.3,3.8,6.8s-3,7.6-8.2,7.7C9.4,38,5.5,33.7,5.7,30.2L5.7,30.2L5.7,30.2
		z M20,30.2c0.2-3.2-2.6-5.4-5.8-5.4c-3.1,0-5.9,2.6-5.9,5.5c0,3.1,3.6,4.8,5.9,4.8C17.2,35.1,19.9,32.9,20,30.2L20,30.2z M19,18.7
		c0.1-2.7-2.4-4.6-5-4.5c-2.3,0.1-4.7,1.8-4.7,4.1c0,2.8,2.7,4.2,5.1,4.3C16.6,22.6,19,20.8,19,18.7L19,18.7z"/>
</g>
<g id="path27-0-0-5-0">
	<path d="M156,219.5c0.1,3.5,1.4,4.9,3.9,6.7c-2,1.4-2.8,3.6-2.7,5.4c0.4,4.4,3.8,6.6,7.5,6.5
		c3.7-0.1,6.9-3,7.1-6.2c0.2-2.8-0.6-4.1-2.6-5.6c2.3-2,3.8-3.3,3.8-6.8c-0.1-3.5-3-7.6-8.2-7.7C159.8,211.7,155.9,216,156,219.5
		L156,219.5L156,219.5z M170.4,219.5c0.2,3.2-2.6,5.4-5.8,5.4c-3.1,0-5.9-2.6-5.9-5.5c0-3.1,3.6-4.8,5.9-4.8
		C167.5,214.6,170.2,216.8,170.4,219.5L170.4,219.5L170.4,219.5z M169.4,231c0.1,2.7-2.4,4.6-5,4.5c-2.3-0.1-4.7-1.8-4.7-4.1
		c0-2.8,2.7-4.2,5.1-4.3C166.9,227.1,169.3,228.9,169.4,231L169.4,231z"/>
</g>
</svg>
