<?xml version="1.0" encoding="utf-8"?>
<!-- Generator: Adobe Illustrator 15.0.2, SVG Export Plug-In . SVG Version: 6.00 Build 0)  -->
<!DOCTYPE svg PUBLIC "-//W3C//DTD SVG 1.1//EN" "http://www.w3.org/Graphics/SVG/1.1/DTD/svg11.dtd">
<svg version="1.1" id="Layer_1" xmlns="http://www.w3.org/2000/svg" xmlns:xlink="http://www.w3.org/1999/xlink" x="0px" y="0px"
	 width="178.7px" height="249.6px" viewBox="0 0 178.7 249.6" enable-background="new 0 0 178.7 249.6" xml:space="preserve">
<g id="path147-0-8-1-6-7-2-1-6-3">
	<path d="M89.3,26.9c-7.8,0.2-11.3,9-5.5,15.8
		c0.8,1,0.9,1.6-0.6,0.6c-3.9-2.6-11.4-0.9-11.8,7.1c-0.5,9.8,13.2,12.7,15.8,2.2c0.1-1.1,1-1.1,0.8,0.5c-0.2,4.2-1.6,8.2-3.4,12.1
		c3.1,0,6.5,0,9.3,0c-1.8-3.9-3.1-7.8-3.4-12.1c-0.2-1.6,0.7-1.6,0.8-0.5c2.6,10.4,16.3,7.6,15.8-2.2c-0.4-8-7.9-9.7-11.8-7.1
		c-1.5,1-1.5,0.4-0.6-0.6C100.6,35.9,97.1,27.1,89.3,26.9L89.3,26.9L89.3,26.9z"/>
</g>
<g id="path147-0-8-1-6-1-4-5-4-2">
	<path d="M89.3,223.4c-7.8-0.2-11.3-9-5.5-15.8
		c0.8-1,0.9-1.6-0.6-0.6c-3.9,2.6-11.4,0.9-11.8-7.1c-0.5-9.8,13.2-12.7,15.8-2.2c0.1,1.1,1,1.1,0.8-0.5c-0.2-4.2-1.6-8.2-3.4-12.1
		c3.1,0,6.5,0,9.3,0c-1.8,3.9-3.1,7.8-3.4,12.1c-0.2,1.6,0.7,1.6,0.8,0.5c2.6-10.4,16.3-7.6,15.8,2.2c-0.4,8-7.9,9.7-11.8,7.1
		c-1.5-1-1.5-0.4-0.6,0.6C100.6,214.5,97.1,223.3,89.3,223.4L89.3,223.4L89.3,223.4z"/>
</g>
<g id="path147-6-9-8-7-0-5-4-9-1">
	<path d="M164.5,209.3c3.1-0.1,4.5-3.7,2.2-6.6
		c-0.3-0.4-0.4-0.7,0.2-0.3c1.6,1.1,4.5,0.4,4.7-2.9c0.2-4.1-5.3-5.3-6.3-0.9c-0.1,0.5-0.4,0.4-0.3-0.2c0.1-1.8,0.6-3.4,1.4-5
		c-1.2,0-2.5,0-3.7,0c0.7,1.6,1.3,3.3,1.4,5c0.1,0.7-0.3,0.7-0.3,0.2c-1-4.4-6.5-3.2-6.3,0.9c0.2,3.3,3.1,4,4.7,2.9
		c0.6-0.4,0.6-0.2,0.2,0.3C160,205.6,161.4,209.3,164.5,209.3L164.5,209.3L164.5,209.3z"/>
</g>
<g id="path147-6-9-8-7-4-5-9-2-7">
	<path d="M14.1,40.4c-3.1,0.1-4.5,3.7-2.2,6.6
		c0.3,0.4,0.4,0.7-0.2,0.3c-1.6-1.1-4.5-0.4-4.7,2.9c-0.2,4.1,5.3,5.3,6.3,0.9c0.1-0.5,0.4-0.4,0.3,0.2c-0.1,1.8-0.6,3.4-1.4,5
		c1.2,0,2.5,0,3.7,0c-0.7-1.6-1.3-3.3-1.4-5c-0.1-0.7,0.3-0.7,0.3-0.2c1,4.4,6.5,3.2,6.3-0.9c-0.2-3.3-3.1-4-4.7-2.9
		c-0.6,0.4-0.6,0.2-0.2-0.3C18.7,44.1,17.3,40.4,14.1,40.4L14.1,40.4L14.1,40.4z"/>
</g>
<g id="path15-9-1-0-1">
	<path d="M6.2,37.8l0.1-1.6c0.4-5,1.5-6.7,7.6-11.9c3-2.5,3.9-3.8,4.1-5.2
		c0.4-3.4-2.6-4.5-4.6-4.5c-2.6,0-5.4,1.5-4.1,5.2l-2.9,0.9c-0.6-3.4,0-6.5,2.7-7.9c3.6-1.8,8.2-1.1,10.5,1.8
		c1.6,1.9,1.9,4.6,1.1,6.7C18.3,26.7,10,29,9.3,35.2h9.2v-3.5h2.7v6.4L6.2,37.8L6.2,37.8z"/>
</g>
<g id="path15-5-7-4-9-4">
	<path d="M172,211.9l-0.1,1.6c-0.4,5-1.5,6.7-7.6,11.9c-3,2.5-3.9,3.8-4.1,5.2
		c-0.4,3.4,2.6,4.5,4.6,4.5c2.6,0,5.4-1.5,4.1-5.2l2.9-0.9c0.6,3.4,0,6.5-2.7,7.9c-3.6,1.8-8.2,1.1-10.5-1.8
		c-1.6-1.9-1.9-4.6-1.1-6.7c2.4-5.4,10.7-7.7,11.4-13.9h-9.2v3.5H157v-6.4L172,211.9L172,211.9z"/>
</g>
</svg>
