<?xml version="1.0" encoding="utf-8"?>
<!-- Generator: Adobe Illustrator 15.0.2, SVG Export Plug-In . SVG Version: 6.00 Build 0)  -->
<!DOCTYPE svg PUBLIC "-//W3C//DTD SVG 1.1//EN" "http://www.w3.org/Graphics/SVG/1.1/DTD/svg11.dtd">
<svg version="1.1" id="Layer_1" xmlns="http://www.w3.org/2000/svg" xmlns:xlink="http://www.w3.org/1999/xlink" x="0px" y="0px"
	 width="178.8px" height="249.7px" viewBox="0 0 178.8 249.7" enable-background="new 0 0 178.8 249.7" xml:space="preserve">
<path d="M164.6,209.3c3.1-0.1,4.5-3.7,2.2-6.6
	c-0.3-0.4-0.4-0.7,0.2-0.3c1.6,1.1,4.6,0.4,4.7-2.9c0.2-4.1-5.3-5.3-6.3-0.9c-0.1,0.5-0.4,0.4-0.3-0.2c0.1-1.8,0.6-3.4,1.4-5
	c-1.2,0-2.5,0-3.7,0c0.7,1.6,1.3,3.3,1.4,5c0.1,0.7-0.3,0.7-0.3,0.2c-1-4.4-6.5-3.2-6.3,0.9c0.2,3.3,3.1,4,4.7,2.9
	c0.6-0.4,0.6-0.2,0.2,0.3C160,205.6,161.4,209.2,164.6,209.3L164.6,209.3L164.6,209.3z"/>
<path d="M14.2,40.4c-3.1,0.1-4.5,3.7-2.2,6.6
	c0.3,0.4,0.4,0.7-0.2,0.3c-1.6-1.1-4.6-0.4-4.7,2.9c-0.2,4.1,5.3,5.3,6.3,0.9c0.1-0.5,0.4-0.4,0.3,0.2c-0.1,1.8-0.6,3.4-1.4,5
	c1.2,0,2.5,0,3.7,0c-0.7-1.6-1.3-3.3-1.4-5c-0.1-0.7,0.3-0.7,0.3-0.2c1,4.4,6.5,3.2,6.3-0.9c-0.2-3.3-3.1-4-4.7-2.9
	c-0.6,0.4-0.6,0.2-0.2-0.3C18.7,44.1,17.3,40.4,14.2,40.4L14.2,40.4L14.2,40.4z"/>
<path d="M8.4,29.2H6.2v-3h2.2c0,0,0-1.6,0.1-4.5c0.1-6.1,0.3-7,2-8.7c3.5-3.3,9.3-0.6,9.2,4.4
	c-0.1,7,0,13.7-0.2,14.6c-0.4,1.7-0.4,1.8-0.3,2.1c0.3,0.6,2.9,0.9,2.9,0.7v3c-2,0.2-2.8,0-4.4-1.2c-1,1-4,1.9-6.5,0.8
	C9.4,36.5,8,34.2,8.4,29.2L8.4,29.2L8.4,29.2z M15.8,34.4c-1.1-1.6-2.9-3.7-4.6-4.5c-0.1,1.8,0,3.3,0.7,4.1
	C12.9,35.4,14.5,35.7,15.8,34.4L15.8,34.4L15.8,34.4z M16.7,17.1c-0.8-2.3-2.9-3.1-4.4-1.6c-0.9,0.9-1.1,1.8-1.1,6.9
	c0,3.1,0,4.5,0,4.5c3,1,5.7,4.4,5.7,4.4l0.1-9.5C17,20.1,17,18.6,16.7,17.1L16.7,17.1L16.7,17.1z"/>
<path d="M170.4,220.5h2.2v3h-2.2c0,0,0,1.6-0.1,4.5c-0.1,6.1-0.3,7-2,8.7
	c-3.5,3.3-9.3,0.6-9.2-4.4c0.1-7,0-13.7,0.2-14.6c0.4-1.7,0.4-1.8,0.3-2.1c-0.3-0.6-2.9-0.9-2.9-0.7v-3c2-0.2,2.8,0,4.4,1.2
	c1-1,4-1.9,6.5-0.8C169.3,213.2,170.7,215.4,170.4,220.5L170.4,220.5L170.4,220.5z M162.9,215.3c1.1,1.6,2.9,3.7,4.6,4.5
	c0.1-1.8,0-3.3-0.7-4.1C165.9,214.3,164.3,214,162.9,215.3L162.9,215.3L162.9,215.3z M162,232.6c0.8,2.3,2.9,3.1,4.4,1.6
	c0.9-0.9,1.1-1.8,1.1-6.9c0-3.1,0-4.5,0-4.5c-3-1-5.7-4.4-5.7-4.4l-0.1,9.5C161.7,229.5,161.8,231.1,162,232.6L162,232.6L162,232.6z
	"/>
<path fill="#D40000" d="
	M95.6,228.6c0.4-6.5,0.1-13.5,0.4-18.8c-0.2-0.4,0.5-1.4,0.6-1.4c-0.4-0.8-0.6-2.8,0-4.6c4.2-16.2,11.9-28.9,19.8-40.6
	c6.4,19.5-13.8,33.1-18,50.1c-1.4,5.9-1.2,10-1.7,15.3L95.6,228.6z M62,228.8l-24-37.3l5.2-2.5l24.7,39.7L62,228.8z M93.2,159.7
	c0.2,1.1,1.1,1.7,1.9,1.2c0.9-0.5,1-0.5,0.4,0.3c-1.2,1.9,1.2,3.7,2.8,2.1c0.6-0.6,0.6-1.5,0.1-2c-0.6-0.5-0.7-0.8,0.2-0.4
	c2.1,0.9,3.3-2.2,1.2-3.2c-0.5-0.3-1.5,0-1.9,0.4c-0.5,0.5-0.5,0.3-0.4-0.1c0.1-0.2,0.1-0.6,0.3-1c0.1-0.3,0.2-0.8,0.2-0.8l-2.2,0
	c0,0,0.2,0.5,0.4,0.9c0.2,0.4,0.2,0.7,0.3,0.9c0.3,0.6-0.1,0.4-0.6-0.1c-0.8-0.6-1.8-0.4-2.4,0.4C93.2,158.7,93.1,159.2,93.2,159.7z
	 M96.3,129.4l4.6-0.1l5.1,14.1c-4.1,6.8-5.2,14.4-0.4,22.2l-14.7,0C94.3,153.9,94.8,141.5,96.3,129.4L96.3,129.4z M101.1,147.7
	c0.6-0.6,0.7-1.6,0.1-2.2c-0.7-0.8-0.6-0.9,0.4-0.3c1.4,0.8,2.7-0.9,1.9-2.5c-0.5-1-2.2-1.2-2.8-0.3c-0.5,0.7-0.5,0.1-0.1-0.9
	c0.2-0.4,0.4-1,0.4-1l-2.2,0c0,0,0.3,0.6,0.4,1.1c0.4,1.1,0.4,1.4-0.2,0.7c-1.4-1.1-3-0.3-3,1.3c0,1.3,1.2,2.1,2.2,1.5
	c0.6-0.4,0.9-0.4,0.2,0.4c-0.5,0.8-0.3,1.8,0.3,2.3C99.6,148.3,100.5,148.3,101.1,147.7z M70.1,152.1c0.2-0.1,0.2,0,0.1,0.1
	c-0.1,0.2-0.3,0.4-0.5,0.6c-1,1.2,0.3,2.7,2,2.4c1.1-0.2,1.8-2,1-2.7c-0.3-0.2-0.5-0.2-0.7-0.5c0-0.1,0-0.2,0.1-0.1
	c0.2,0.1,0.5,0.3,0.6,0.3c1.1,0.3,1.9-0.1,2.1-0.9c0.2-0.9,0-1.8-0.7-2.3c-0.7-0.4-1.6-0.3-2.2,0.4c-0.6,0.8-0.7,0-0.2-1
	c0.2-0.4,0.3-1,0.3-1l-2.1,0.1c0,0,0.1,0.4,0.3,1c0.5,1.2,0.8,1.5,0.2,0.9c-2.5-1.5-3.4,0.5-3.4,1.3C67,152.4,69.2,153.2,70.1,152.1
	z M80.2,129.2l3.7,0c-2.8,15-8.5,27.5-18.2,36.1l-18.2-0.1l-8.8-6.1l3.4-4.4C65.2,157.1,75.1,145.6,80.2,129.2z M63.5,163.9
	c1.1-0.5,1.5-1.7,0.8-2.5c-0.7-0.8-0.7-1,0.3-0.4c1.3,0.8,2.6-0.8,2-2.3c-0.4-1-1.7-1.2-2.6-0.6c-0.8,0.6-0.8,0.3-0.4-0.6
	c0.2-0.5,0.4-1.2,0.4-1.2l-2.3,0c0,0,0.2,0.5,0.3,0.9c0.4,0.8,0.5,1.3,0.3,1.3c-0.1,0-0.4-0.3-0.5-0.4c-0.5-0.4-1.7-0.5-2.2-0.1
	c-1.4,1.3-0.6,3.6,1.1,3.2c1.1-0.3,1.4-0.7,0.5,0.4C60.1,162.8,61.8,164.6,63.5,163.9L63.5,163.9z M49.1,163.5
	c0.9-0.4,1.3-1.5,0.7-2.2c-0.5-0.7-0.8-1.2,0.1-0.5c1.3,0.6,2.3-0.2,2.3-1.6c0-1.5-1.7-2.2-2.9-1.3c-0.2,0.2-0.5,0.3-0.5,0.3
	c-0.2,0,0.1-0.8,0.4-1.3c0.1-0.2,0.4-0.7,0.4-0.7l-2.3-0.1c0,0,0.1,0.6,0.3,1.1c0.4,1,0.4,1.3-0.2,0.7c-1.7-1.6-3.5,0.4-2.8,2.2
	c0.4,1,1.6,1,2.2,0.5c0.6-0.5,0.3,0.2-0.1,0.7C45.6,162.6,47.3,164.3,49.1,163.5z M153.1,126l0.1,2.8l-29.4,24.6l-1.2-1.9L153.1,126
	z M43.6,131.1c4.2-3,9-8.5,13.6-11.3C60.6,127.7,52.7,135.4,43.6,131.1z M121,129.7c-3-16.6,14.8-13.1,13.8-11.6L121,129.7z
	 M25.7,119.6l29.1-23.8l1.3,2L25.5,123L25.7,119.6z M105.6,95.5c0.1,0.2,1,1.2,1,1.3c-0.2-0.2-1.7-1-2.5-0.2c-0.3,0.3-0.6,1-0.5,1.8
	c0.3,1.3,1.8,1.8,2.9,0.9c0.3-0.3,0.6-0.6,0.6-0.5c0,0.1-0.1,0.6-0.3,0.9c-0.2,0.4-0.7,1.2-0.3,1.2l2.1,0c0,0-0.1-0.5-0.3-1
	c-0.5-1-0.5-1.5,0.1-0.8c1.1,1.4,3.2,0.2,3-1.5c-0.2-1.2-1.4-1.9-2.3-1.3c-0.1,0.1-0.4,0.3-0.4,0.4c-0.1,0,0.2-0.5,0.4-0.8
	c0.7-1.3-0.3-2.5-1.9-2.3c-0.5,0-1,0.4-1,0.4C105.5,94.2,105.4,95,105.6,95.5z M130.7,83.5c2.9,2.7,5.8,4.7,8.8,6.4l-2.8,4.4
	c-18.6-1.7-32.2,5.7-37.9,25.7l-3.1,0.6c1.2-12.5,5.3-24.9,17.7-37.1L130.7,83.5z M112.8,86.5c0,0.6,1.1,1.3,0.9,1.5
	c-0.1,0.1-0.8-0.5-1.1-0.5c-2.2-0.2-2.6,3.1-0.5,3.5c0.4,0.1,1.3-0.2,1.5-0.4c0.3-0.3,0.6-0.5,0.6-0.5c0.1,0-0.2,0.6-0.4,1.1
	c-0.2,0.4-0.5,1.3-0.5,1.3l2.4,0c0,0-0.2-0.8-0.4-1.3c-0.3-0.7-0.3-1.1-0.2-1.1c0.1,0,0.2,0.2,0.3,0.4c1.1,0.9,2.6,0.5,3-0.9
	c0.4-1.3-1.2-2.7-2.3-2c-0.4,0.3-0.4,0.1,0-0.5c0.3-0.5,0.3-1.4-0.1-1.8C115.1,84,112.8,84.9,112.8,86.5z M130.4,90.5
	c-0.1-0.3,0-0.2,0.3,0.1c1,1,2.7,0.9,3.1-0.5s-0.9-2.9-2-2.4c-0.6,0.3-0.6,0.2-0.3-0.3c0.9-1.1-0.1-2.7-1.6-2.6
	c-1.4,0-2.2,1.3-1.5,2.5c0.3,0.5,0.2,0.6-0.3,0.3c-1.4-0.7-2.7,1.6-1.7,2.9c0.6,0.8,2,0.9,2.8,0.1c0.4-0.4,0.4-0.2,0.1,0.6
	c-0.3,0.7-0.6,1.3-0.6,1.3l2.4,0C131.2,92.6,130.6,91.4,130.4,90.5z M78.3,120.5c0.7-0.2-2.5-10.4-4.9-14.9
	c2.7-6.4,6.3-12.7,0.2-21.9l15,0c-4.6,10.5-4.7,37.1-5.8,37.1L78.3,120.5z M79.6,108.7c0,0-0.7-1-0.8-1.8c-0.1-0.5,0-0.6,0.3,0
	c1.3,1.5,3.1,0.1,3.1-1.3c0.2-1.2-1.2-2.2-2.1-1.6c-0.6,0.4-0.8,0.3-0.2-0.5c0.8-1.1-0.1-2.5-1.5-2.5c-1.8,0-2.5,1.7-1.2,3
	c1,0.9,0.1,0.4-0.7,0.1c-1.5-0.6-2.5,0.9-1.8,2.5c0.5,1.1,1.8,1.3,2.6,0.5c0.4-0.5,0.8-0.8,0.6,0c-0.1,0.6-0.8,1.8-0.8,1.8
	L79.6,108.7z M81.9,92.5c0,0-0.9-1.1-1-2c0-0.3,0.2-0.2,0.7,0.2c1.6,1.4,3.8-1.1,2.3-2.6c-0.5-0.5-1-0.7-1.6-0.4
	c-0.8,0.4-0.7,0.2-0.3-0.2c0.6-0.6,0.5-1.7-0.1-2.2c-1.6-1.5-4.2,0.7-2.7,2.3c0.7,0.7,0.3,0.6-0.4,0.2c-1.4-0.8-2.9,1.4-1.9,2.8
	c1.2,1,2.1,0.5,3-0.1c0.2-0.1,0.3-0.1,0.3-0.1c0,0.2-0.8,2.2-0.8,2.2L81.9,92.5z M62.3,86.3c-0.9-0.1-1.6-8.6-0.5-11.3
	c2.4-11.4,9.6-19.8,14.2-26.8c7.2-10.4,6.3-27.8,6.7-27.1l1,0.1c0,0-0.8,10.2-0.3,14.7c0.5,4,0.4,4.3,0.1,4.7c-0.1,0.4,0,1.5,0,1.8
	c-3.2,14.9-10.9,30.3-18.9,41.9L62.3,86.3z M136.9,60.1l-24.5-38.8l5.9-0.5c2.2,3.5,23.5,36.6,23.5,36.6L136.9,60.1z"/>
<path fill="#E2CF00" d="
	M36.1,229.5c2.8-10.3-4.8-34.1-9.5-37.2c5.5-0.2,12.2-0.1,12-0.6c0,0,23.5,37.1,23.3,37.3C61.7,229.2,36.1,229.5,36.1,229.5
	L36.1,229.5z M131.4,171.3c-5.7-0.8-3.5-5.6,0.2-6.1c-0.5,0.1,0.4-2.4,3.4-3.3c0.7-1.2,1.2-3.3,1.8-4.3c-1.8,0.6-3.9,2.1-12,0.9
	c0.7-3.8,8.4-4.5,11.2-3.9c1.6,0.4,3.2,2.8,3.7,2.8c4.9-0.8,11.2,3.7,9.3,8.2c-0.3,0.7-1-0.8-2.7-1.4c-5.4-2-5.7-4.9-7-6.2
	c-0.4-0.1-2.8,4.6-2.8,4.6l0.7,3.2c1.3-0.1,7,3.4-0.1,5.8C135.1,178.7,131.3,173.8,131.4,171.3z M144.9,140.9
	c-0.3-0.3,0.2-2.4,1-3.7c0.4-0.7,1.3-1.1,1.8-1c0.9,0.2,0.8,1.5-0.4,5.6C147.1,142.4,145.9,142.4,144.9,140.9z M31.4,112.6
	c-1.6,0-0.2-4.3,0.8-5.6c0.3-0.4,1.6,0.5,1.6,1.1C33.9,109.2,32.2,113.1,31.4,112.6z M30.3,83.6c1.9,0.5,4.9,2.4,6.4,3.5
	c1.8,1.3,1.3,4,2.7,4.2c1-0.5,2.7-4.8,2.7-4.8s0.4-2.2-0.8-2.9c-3.1-1.7-3.1-3.5-2.9-3.7c0.9-2.4,2.8-2,3.8-2.1c0-1.3,0-4.1,2.7-3.8
	c2.4,0.2,2.6,3.7,1.6,3.7c0-0.1,4.5-0.7,4.5,2.4c0,1.6-2.7,3.7-3.6,3c0,0,0.5,3.3-3.6,4.4c-0.9,1-1.7,5.1-1.7,4.7
	c2.5-2.2,6.3-2.7,12.4-1.9c-3.8,7-14.1,3.7-15,2.4C34.3,90.9,29.4,88.8,30.3,83.6z M75,66.9c5.5,0.5,11.6-1.2,16.2-0.3
	c0.5,0.1,1.1,0.8,1.4,1c2.4,1.3,4.9,0.9,8.7-0.6c0.9-0.4,18.5-0.2,18.5-0.2c4,5.9,11.1,17.1,11.2,16.7c0,0-9.7-0.1-14.2,0.2
	c-3.2,0.2-1.3,0.6-3.5,0.7C98,95.9,95.1,120.8,95.1,120.8s4.9-1.3,6.1,0.1c6-17.7,17.4-25.7,33.4-24.2c7.4,0.7,16.1,8,16.1,8
	L135,117.6c-12.2-6.2-17.4,12-13.7,12.1l31.7-26c0,0,0.5,2.1,0.5,2.2c-2.3,3-40.1,33.8-40.1,33.8l-1.7-1.8c0,0-1,0.9-1.6,1.6
	c-0.1,1,0.3,1.9,1.1,2.7c-7.5,6-7.7,17.1-2.2,23.2c0,0-2.5,0.2-2.7,0.2c-3.1,0.5-6.3-14.9-0.2-22.1c-3.1-6.1-5-14.5-5.4-14.9
	c0.1,1-4.9,0.7-4.9,0.7c-0.4,12.5-1.7,24.7-4.7,36.4l23,0.5l-9.8,17c0,0-11-0.3-15.7-0.6c-4.9-2.9-7.8-0.7-12.4,0.4
	c-6.6,0.2-16.3-0.1-16.3,0c-3.3-6.6-6.8-11.4-11.6-17c-0.6-1,19.5-0.4,19.5-0.4s10.1-15.3,11.9-19.6c1.4-3.4,4.6-15.6,4.6-15.6
	c0.1,0.6-1.8-3.2-6.4-3.1C74.1,152.6,44,161.1,26,144.8l-0.2-2.9l39.8-32.4l1.8,2c-0.4-0.3-24.5,19.8-24.1,19.7
	c7.1,3.7,15.4,0.7,14.4-11.6c5.6-4.1,10.7-8.9,15.6-13.8c0.1-0.2,5.5,12.1,5.4,14.5c3.1-1,4.9,1.1,4.9,0.8
	c-1.1-7.1,5.1-34.1,5.2-37.2c-3.5-0.3-8-0.2-15.2-0.4c5.8,11.2,3.8,18.8-4.3,25.7l-1.7-2.1c0.7,0.4,11.8-9.2,2.8-23.6
	c-0.4,0-4.7-0.4-4.7-0.4S74.6,68.9,75,66.9z M117.8,20.6c0,0,25.1-0.6,25.1,0.1c-0.8,13.6,2.3,25.9,9.9,37.4c0,0-11.1-0.4-10.9-0.3
	L117.8,20.6z"/>
<path fill="#131F67" d="
	M154.7,19.6H24.1l0,210.5l130.6,0L154.7,19.6z M142.4,20.5c0,0-1.7,22.3,9.9,36.9c-7.1-1.1-11.1,0-15.3,2.9l0.6,0.6
	c5.7-3.5,10.5-2.6,15.4-2l0,28.7c0,1.4-5.9,0.8-9.5-2c-1.7-1-3.9-3.2-4.9-4.8c-0.3-0.5-0.6-1-0.7-1.1c-0.3-0.4-2.4-4.2-6.2-11.5
	c-1.9-3.7-4.5-8.8-6.5-12.7c-1.3-2.5-3.8-7.4-4-7.7c-0.4-0.8-3.1-6.1-4.1-8c-2.8-5.1-7.3-14-8.9-17.2c-0.3-0.8-0.9-1.2,0.1-1.2
	c0.2,0,0.4,0,0.6,0c0.2,0.1,0.4-0.3,0.4-0.3L142.4,20.5z M25.9,141.1l0-2.3l38.1-31.4l1.2,1.6L25.9,141.1z M62.8,86
	c-0.2,0.1-0.3,0.1-0.5,0.2c-1-4.4-0.4-10.2,0.7-14.6c1.7-6.1,4.8-11,8.3-15.9c8-11.2,11.5-19.7,11.3-34.7l1.1,0.1
	c-0.1,2.4-0.4,4.2-0.5,7.3c-0.1,3.4-0.1,6,0.3,9.3c0.2,1.6,0.3,2.7,0,2.9c-0.1,0.1-0.2,0.7-0.1,0.9c0,0.5-0.1,1.4-0.1,1.4
	C81.5,51.8,71.8,74.8,62.8,86z M67.5,106.4l-2-2.5c0,0-1.5-1.3-0.2-2.7c4-4.1,4-9.3,0.2-14c-0.3-0.6,1.2-3.6,1.2-3.6l3.1,0
	C74.5,89.5,75.8,99.8,67.5,106.4L67.5,106.4z M70.3,83.3c0.1-0.4-4.5-0.2-4.5-0.2c2.9-4.3,5.3-8.7,7.7-13.2
	c3.7-6.7,8.9-18.5,10.5-27c1.2,10,3,24.8,11.5,25.4c2.8,0.2,6-1.7,6.5-1.4l17.7-0.1c3.6,7.4,7.5,12.1,12.1,17.2
	c3.3,1.9,7.4,3.4,11.3,4.4c2.2,0.5,2.4,0.2,6.8,0.8c1.1,0.2,2.9-0.3,2.9-0.3c-3.5,2.8-7.5,2-12,0.8c-0.2-0.1-0.5-0.1-0.8-0.2
	l-3.3,5.1c-7.5-1.8-31.4-0.5-37.7,25.6c0,0,0.7,0.3,0.5,0.2c5-22.7,26.2-27.2,36.3-25l-0.9,1.3c-16.8-2.1-30.4,8.5-33.7,23.4
	l0.3,0.3c6.3-22.6,32.7-30.9,49.1-15.3l3-2.1l-0.1,2.9l-40.3,33.9l-1.6-1.7c0,0-0.3,0.2-0.6,0.5c-1,0.9-1.5,1.1-1.2,1.6
	c0.3,0.5,1.4,1.6,1.5,1.7c-6.7,5.5-8.8,16-2.4,23.4c0.7,0.8,0.6,1,0.5,0.1c-5.7-6.2-5-17.2,2.1-22.5l1.4,1.9
	c-3.1,6.9-4.8,17.7,3.4,18.6c3,7.9-0.4,17.3-4.2,23.6c-4,7.3-8.9,13.3-11.9,21.2c-1.5,3.3-3.8,13.1-3.7,20.6l-0.9,0
	c0-3,0.2-6.7,0.2-9c0.1-11.3,0.1-10.6,0.4-10.9c0.1-0.1,0.3-0.2,0.3-0.3c0-0.1-0.2-0.4-0.3-0.6c-0.1-0.3-0.2-0.8-0.2-1.2
	c0-0.4,0.4-1,0.3-1.2c-1.8-6.2-1.9-17.4-7.6-22.5c-2.8-2.4-6.5-2.5-11.3-0.5c-10.6,0-9.1,0.6-17.7,0.1c-3.6-6.5-7.9-12.9-12.5-17.6
	c-2.2-2.4-5.2-3.8-8.1-5.5c1.1-2.2,2.4-3.8,3.9-4.8c0.3-0.4,0.5-0.9,0.9-1.2c29,2.8,35.2-25.4,33.9-24.6l-0.3,0.2
	c-7.9,29-36.1,28-50.3,15.4c0,0-2,1.7-2-0.2c0-1.7,0.6-2.2,0.6-2.2l39.8-32.5c0.7,0.5,1.5,2,1.8,1.8c0.7-0.4,1.8-1.2,1.8-1.6
	c0-0.4-1.5-2.6-1.5-2.6C78.5,95.8,73.7,90.8,70.3,83.3L70.3,83.3z M85.4,21.1c0.2,0,0.4,0.1,0.5,0.3c0.2,0.4-0.7,2.6-1.3,3
	c-0.6,0.4-0.6-0.1-0.2-2.2C84.5,21.6,84.9,21.1,85.4,21.1z M143.7,21.2l9.3,0l0,35.5C146.2,47,142.6,35.8,143.7,21.2z M87.8,21.2
	c0.2,0,0.4,0.1,0.5,0.2c0.2,0.6-1.1,3.2-2.8,5.3c-0.9,1.1-1.3,1.4-1.6,1.2c-0.2-0.5-0.2-1.1,0.6-2c0.7-0.8,1.8-2.6,2.2-3.5
	C87,21.8,87.2,21.3,87.8,21.2z M97.3,21.4c0.3,0,0.5,0,0.6,0.1c1.6,3.3,4.6,6.3,7.7,7.9c0.5,0.3,0.2,0.9,0.4,1.4
	c-3.5-0.5-8-5.5-9.3-9.1C96.8,21.4,97,21.4,97.3,21.4z M102.7,21.4c0.7,0.7,1.8,1.6,2,2.4c0.1,0.5,0.3,1.1,0.2,1.3
	c-0.6,0.4-3.6-3.1-3.5-3.5C101.8,21.3,102.3,21.2,102.7,21.4z M89.7,21.3c0.3,0,0.7,0,0.8,0.2c0.4,1.5-3.1,7.5-5.6,9.2
	c-0.9,0.6-1,0.4-0.9-0.6c0.1-0.7,0.1-0.6,1-1.5c1.3-1.3,2.8-3.2,3.6-4.9C89.6,21.5,89.4,21.3,89.7,21.3z M92.1,21.3
	c0.3,0,0.6,0.1,0.7,0.3c0.1,0.2,0,0.5-0.1,0.9c-1.1,3.2-4,7.9-7.3,10.6c-1.3,1-1.5,1-1.6,0c-0.1-0.6,0.2-0.8,0.8-1.2
	c2.8-2,5.4-5.4,6.5-8.9c0.2-0.7,0.1-1.3,0.5-1.5C91.7,21.4,91.9,21.3,92.1,21.3z M109.6,27c0.1,0.2,1.1,1.8,0.3,1.2
	c-0.3-0.3-0.9-1-1.9-2c-2.2-2.5-2.3-2.4-2.2-3c0-0.8-0.6-2.2,0.7-1.8C107.8,22.8,108.6,25.1,109.6,27z M99.5,21.4
	c0.2,0,0.6,0,0.8,0.1c1.5,2.8,5.1,5.2,5,5.2c0,0,0.1,1.2,0,1.4c-0.1,0.4-5.7-3.9-6.3-6.5C99,21.4,99.2,21.4,99.5,21.4z M95.5,21.4
	c1.3,2.4,4,8,10.4,10.2c0.5,0.1,0.9,1.4,0.6,1.8c-3.5-1-9.9-4.5-12-11.9C94.7,21.3,95.3,21.3,95.5,21.4z M93.8,21.9
	c-0.2,0,3,9.4,12.2,12.2c0.8,0.3,1.3,0.6,1.2,1.1c-0.1,0.6,0,0.7-0.9,0.2c-2.5-1.3-6.1-1.9-9.1-0.4c-0.5,0.2-0.9,0.9-0.6,1.3
	c0.2,0.2,0.7,0.1,1.4-0.2c3.5-1.4,8.8-0.6,9.8,1.6c0.7,1.5,0.8,2.6,0.4,2.8c-0.3,0.1-0.7-0.4-1.6-1.1c-2.7-2.3-5.8-3-8.3-0.7
	c-0.6,0.5-1.1,0.4-1.3,0.6c-0.2,0.2,0,0.6,0.2,1.1c0.2,0.4,0.2,0.6,0,0.9c-0.2,0.5-0.2,1.2-0.2,1.7c0.1,1.2,0.8,2.2,3.1,3.8
	c1.8,1.2,3.1,1.9,1,0.2c-3.7-3-4.4-4.3-2-3.2c2.4,1,5.7,0,8.1-1.8c0.8,0,1.3-0.2,1.7,0.2c1.8,4.1,3.2,9.7,5.5,15
	C111.7,60.2,102,68,95.1,67.7c-6-0.2-8.1-10.1-9.4-15.5c-0.4-2.3-0.9-4.6-0.9-7.9c0,0,0.1-0.1,0.3-0.1c1,0.2,2.7,0.3,3.6,0.1
	c1.6-0.4,1.9-0.7,2-0.4c0.1,0.3-0.5,0.9-1.7,1.7c-0.5,0.3-2,1.1-1.8,1.2c0.3,0.2,2.1-0.7,2.4-1c0.5-0.4,0.8-0.4,1-0.2
	c0.3,0.3,0.3,0-0.5,2.1c-0.9,2.4-0.9,2.6,1,4c0.6,0.5,1.2,1,1.4,1.2c0.2,0.3,0.3,0.6,0.4,0.7c0.3,0.4,0.1-0.2-0.1-1.3
	c-0.2-0.8-1-1.6-1.5-2c-1-0.7-0.9-1.4,0-3.8c2.5-7.1,1.8-10.2-0.9-11.8c-1.2-0.7-4.6-0.5-5.7,0.4c-0.5,0.4-0.5-0.4-0.4-0.5
	C90.6,30.3,92.1,26,93.8,21.9z M106.3,25.4c1.8,1.8,4.1,4.3,5.5,6.1c0.8,1,1.2,1.9,1.8,2.9c0.1,0.2,0.2,0.4,0.1,0.5
	c0,0-0.3-0.1-0.4-0.2c-1.4-1-6.9-7.4-6.9-7.4C106.1,26.2,106,25.8,106.3,25.4z M107.4,29.7c0,0,4.8,5.3,7.6,7.9
	c0.5,1.1,1.6,2.8,1.6,3.1c0,0.1-0.6-0.3-0.6-0.3c-3.1-2.8-5.9-6-8.8-9c0,0-0.2-1.3-0.2-1.8C107,29.3,107.3,29.6,107.4,29.7z
	 M117.9,43.3c0.6,1.1,1.1,2,1.4,2.6c0.5,1,0.3,1-0.1,0.7c-3.5-2.9-6.4-6.3-9.6-9.5c-0.4-0.4-1.3-1.4-1.3-1.4c0,0-1.1-2.3-0.4-2.2
	c0.5,0.2,0.9,0.8,1.2,1.2C110.9,36.5,114.2,39.6,117.9,43.3z M87.7,35.7c1.4,0,2.8,0.3,3.5,1.2c0.6,0.8,0.9,2.1,0.6,2.4
	c-0.2,0.2-1-0.4-1-0.4c-3.4-1.9-4.5-1-6.3-0.4c-0.3,0.1-0.5-0.6-0.2-1.3C84.9,36,86.6,35.8,87.7,35.7z M108.9,37.5
	c3.6,3.6,7.2,7.6,11.1,10.7c0.5,0.5,0.9,0.8,1.2,1c0.5,1,1.7,3.5,1.7,3.5c-4.2-2.9-13.6-13-13.5-12.9
	C109.5,39.8,108.7,37.9,108.9,37.5z M101.9,38.1c0.6,0,1.4,0.2,1.9,0.4c1.8,0.7,3,1.5,1.1,1.2c-2.6-0.4-3.5-0.4-4.5-0.2
	c-1.8,0.3-1.9,0.5-2.1,0.2C97.9,39,99.9,38.1,101.9,38.1z M87,38.3c0.6,0,1.4,0.1,2.1,0.4c2.2,1,2.6,1.6,0.7,1.3
	c-1-0.2-2.8-0.1-4.1,0.2c-0.4,0.1-0.9,0.3-1,0.4c-0.5,0.1-0.6-0.2-0.4-0.8C84.7,38.9,85.8,38.3,87,38.3z M103.1,41.2l0.5,0
	c-0.6,3.3-3.8,2.9-4.7,0.1l0.5,0C101,44,102.3,42.4,103.1,41.2z M104.9,41.3c1.5,0,1.4,0.9-0.2,1.5c-1.2,0.5-1.3,0.4-0.9-0.5
	C104.2,41.4,104.2,41.3,104.9,41.3z M89.5,41.5c0.1,2.9-3.9,3.5-4.2,0.3l0.4,0c1.3,2.5,2.9,1,3.4-0.3L89.5,41.5z M91.3,41.9
	c0.5,0.3,0.2,0.7-0.8,1.4c-0.9,0.6-1.1-0.1-0.4-1.1C90.4,41.8,90.9,41.6,91.3,41.9z M98.3,41.9c0.2-0.1,0.6,0.7,0.2,0.9
	c-0.2,0.1-0.5-0.2-0.6-0.4C98,42.1,98.1,41.9,98.3,41.9z M110.5,42c2.7,3,5.4,6,13.4,12.5c0,0,1.1,2,1.4,2.8
	c-0.2,0.2-0.3,0.2-0.9-0.1c-5.2-4-10-8.9-13.8-13.5C110.4,43.1,110,42.5,110.5,42z M84.7,42.3c0.3,0,0.7,0.7,0.5,1.1
	c-0.2,0.2-0.5-0.1-0.6-0.3c-0.1-0.2-0.1-0.5-0.1-0.7C84.5,42.4,84.6,42.3,84.7,42.3z M111.6,46.5c0-0.1,12.6,12.7,14.2,12.5
	c0.7,0.4,2.6,4.1,2.6,4.1c0,0.1,0.1,0.3-0.3,0.2c-2.1-1.1-11.1-8.5-15.6-14C112.3,48.4,111.9,47.4,111.6,46.5z M96.6,48.4
	c2.2,1.1,1.3,3.3-1.1,1.9c-1.8-1.1-3.3-1.2-3.3-0.3c0,0.4,0.5,0.9,1,0.9c0.9,0.1,1.7,0.4,2.6,0.6c1.4,0.3,2.4-0.1,2.8-0.9
	c0.6-1.4-0.8-3-1.7-2.9C96,47.7,96.2,48.2,96.6,48.4L96.6,48.4z M114.1,51.9c-0.2-0.1,6.3,6.9,15,12.8c0.3,0.4,1.2,2.4,1.3,2.7
	c0,0.2-0.2,0-0.2,0c-4.4-2.6-10.3-7.7-15.8-13.4c0,0-0.5-1.3-0.7-2.1C113.8,51.7,113.9,51.8,114.1,51.9z M99.4,54.4
	c-0.2,0-0.5,0.3-0.8,0.5c-0.7,0.4-0.9,0.5-2.5,0c-0.9-0.3-1-0.3-1.6,0.1c-0.5,0.3-0.7,0.4-1.3,0.2c-0.9-0.4-1.4-0.1-2.3,0.2
	c-0.8,0.3-1.1-0.1-1.9-0.2c-0.1,0-0.1,3,0,3.1c0,0,0.8-0.5,1.2-0.7c0.7-0.4,0.6-0.3,1.7-0.3c1.6,0.3,3.1,0.2,4.2-0.2
	c1.3-0.4,2.3-0.3,3.2,0.4c0.5,0.4,1.3,0.4,0.8-0.4c-0.1-0.3-0.5-1.3-0.4-1.7C99.8,54.8,99.7,54.4,99.4,54.4
	C99.5,54.4,99.5,54.4,99.4,54.4z M116.1,56.8c3,2.9,6.6,7.2,15.2,12.2c0.4,0.8,1.1,1.8,1.4,2.7c0,0.2,0,0.4-0.2,0.3
	c-5.3-3.4-8.3-5-15.6-12.3c-0.5-0.7-1-2-1.3-3C115.7,56.4,116,56.7,116.1,56.8z M114.9,57.9l3.3,6.2l-11.1,0
	C109.9,62.4,112.6,60.1,114.9,57.9z M96.5,58c-1.8,0.7-2.1,0.9-3.9,0.4c-1.1-0.3-0.8,0.3-0.2,0.6c1.4,0.6,3.3,0.2,4.1-0.3
	C97,58.4,97.3,57.7,96.5,58z M94.7,59.9c-1.9,0-3.7,0.7-3.8,1.5c0,0.2,0.1,0.3,0.4,0.1c1.3-0.8,4.5-1,6.9-0.2
	c0.4,0.1,0.5-0.1,0.1-0.4C97.3,60.2,96,59.9,94.7,59.9z M118.8,62.6c3.6,3.3,7,6.4,14.7,10.8c0.6,1.2,1.4,2.7,1.5,2.8
	c-7.2-3.5-15.1-10.5-15.1-10.5s-1.2-2.2-1.5-3.2C118.4,62.2,118.7,62.5,118.8,62.6z M121.3,67.7c0,0,6.6,5.6,14.1,9.4
	c0.3,0.3,1.1,2.1,1.3,2.3c0.2,0.2-0.3,0.2-0.8-0.1c-3.9-1.8-12.4-7.6-12.4-7.6C122.7,70.4,121.5,69,121.3,67.7z M42.4,91.1
	c0.6-1.3,1.2-2.7,1.6-3.9c1.8,0,2.7-0.7,3.3-1.5c0.9,0,1.6,0,2.8-0.1c0-1.2,0-3,0-3c1.3-1.3,2.1-2.8,0.2-5.1c0,0-0.1-1.1-0.1-2.9
	c-0.9-0.1-2.9,0-2.9,0c-1.6-2.3-4.5-1.7-5.4,0c0,0-1.3,0.1-2.2,0.1c0,0.5-0.2,2.6-0.2,2.6s-3.8,2.6,0.1,5.7l0,2.6
	c0.7,0.1,1.3,0,2.2,0.2c0,0-1.5,3.5-2.5,5.2c-0.3,0.1-0.3-0.1-0.7-1.3c-0.5-1.4-1.6-2.9-2.5-3.6c-1.3-1-3-1.3-4.2-2.2
	c-1.2-0.8-2-1.9-2.4-1.7c-0.1,0.4-0.3,2.8,0.2,4.3c0.6,2.5,4.3,4.1,7.3,5.4c0.2,0.2,0.4,0.4,0.4,0.5c0,0.4-0.4,0.3-1.4,0.2
	c-1.5-0.2-2.1,0.3-2.6,1.6c-0.2,0.3-0.5,0.9-0.8,1.2c-0.3,0.4-0.6,0.7-0.7,0.9c0,0.2-0.4,0.9-0.7,1.6c-0.2,0.4-0.5,0.8-0.5,1.4
	c-0.1,1.8-0.1,4.3,0.2,5.8c0.2,1.1,1.6,1.8,2.1,1.9c0.7,0.1,0.9,0.9,0.8,1.5c-0.6,3.1-2.3,5-2.9,4c-0.1-0.3-0.3-1.5-0.3-1.5
	c0,0-0.3,1.1-0.2,1.5c0.1,0.5,0.7,0.8,1.3,0.6c0.9-0.3,1.5-1.2,2.1-3.1c0.2-0.8,0.4-1.2,0.8-1.3c0.7,0.1,1.7,1.5,1.7,1.5
	c-3.5,3-10.4,8.3-10.4,8.3l0-97.2l55.9,0c0.3,7.7-0.6,14.3-3.4,21.1c-3.3,7.4-8.3,12.9-12.2,19.7c-4.7,8.2-6.2,16.7-4.6,25.3
	c-4.8,6.3-8.8,9.3-12.6,12.2c0,0-2.9-3-4.5-4.7c0,0,0.7-0.1,1.5-0.1c3.6-0.4,7.6-0.9,9.1-4.7c0.2-0.4,0.1-0.6-0.1-0.7
	c-2.8,0.4-5.3,0-6.9,0.1C44.1,89.7,42.4,91.1,42.4,91.1L42.4,91.1z M42.8,93.9c0,0-4.6-2.2-4.9-2.2c-2-0.4-6.8-2.9-7.6-4.6
	c-0.1-0.2-0.4-3.3-0.5-4c0-0.2,0.1-0.2,0.3,0c0.5,0.4,2.5,1.6,3.2,2c3,1.5,4.2,2.5,5,4.8c0.2,0.6,0.4,1.1,0.5,1.3
	c0.2,0.3,0.3,0.2,0.6,0c1.3-1.7,1.9-3.1,2.5-4.9c0.1-0.2,0.2-0.4,0.1-0.7c-0.2-0.8-0.8-1.8-0.2-2.6c-1.9,0.1-3.7-1.3-3.5-2.7
	c0.5-2.6,1.6-2.1,3.7-2.5c-0.2-6,5.3-4.5,5.3-0.4c6.1,0.5,3.2,6.2-0.3,5.3c1.4,3.2-2.8,4.4-3.4,3.9c-0.2,1-1.9,4.4-2.2,5.4
	c4.5-3.2,11.8-1.8,12.9-2C51.7,95.5,43.1,94.2,42.8,93.9z M124.6,73.5c1.2,0.9,10.9,7,12.7,7.2c0,0,0.9,1,1.6,1.9
	c0.7,0.8,0.9,1,1,1.1s-0.2,0.2-0.3,0.2c-4.4-1.9-8.9-3.9-12.7-7.1c-0.5-0.4-0.6-0.6-0.9-1C125.7,75.3,124.7,73.7,124.6,73.5z
	 M127.9,78.5c4.5,2.5,8.3,5,12.4,6.3c0.6,0.2,0.9,0.2,1.2,0.4c0.3,0.2,1.5,1,1.8,1.1c1.9,1.1,2.1,1,1.6,1.2
	c-0.5,0.2-3.8-0.8-6.5-1.8c-4.9-1.8-6.6-2.8-8.4-4.5C129.5,80.9,127.6,78.7,127.9,78.5z M38.7,92.6c0.4,0,1,0.2,1.6,0.7
	c0.7,0.5,2.3,1.6,3,1.9c0.3,0.2,0.5,0.2,0.5,0.2l4.4,5l-11.3,9.2c0,0-0.9-0.9-1.2-1.3c-0.3-0.3-0.2-0.5,0.1-0.9
	c0.3-0.3,0.3-0.9,0.2-1.2c-0.1-0.4-0.1-0.9,0.5-1.3c0.4-0.3,0.5-0.9,0.5-1c0-0.1,0.2-0.5,0.6-0.8c0.8-0.6,1-1.3,0.8-2.1
	c-0.1-0.4-0.2-0.4,0.3-0.7c0.8-0.5,1-1.1,1.1-1.8c0-0.1,0-0.3,0-0.4c-0.2-0.8,0.6-0.6,1.2,0.4c0.3,0.6,0.4,1.5,0.6,2.6
	c0.2,1.3,0.3,1.6,0.4,1.4c0.4-1-0.1-4.9-1.2-5.4c-1.7-0.8-3.1-2.3-2.7-2.9c0.2-0.2,0.2-0.1,1.2,0.3c0.6,0.3,1.2,0.5,1.3,0.5
	c1.2,0,0.5-0.5,0.1-0.5c-0.5-0.1-1.9-0.9-2-1.2C38.1,92.8,38.3,92.6,38.7,92.6z M35.8,93.2c1.1,0,1.3,0.3,1.3,1.2
	c0,0.6,0.2,1,1.1,2.1c0.4,0.5,0.6,0.8,0.6,1c0,0.3-0.1,0-1.4-0.2c-0.4-0.1-0.7-0.1-0.8,0.2c-0.4,0.6-1.3,0-1.9-0.9
	C33.5,94.4,33.9,93.2,35.8,93.2z M56.9,94.5l12,14.8l-1.4,1.1L55.5,95.8L56.9,94.5z M54.9,95.4l1.3,2.2c0,0-3.7,3.2-4.7,4.1
	c-7.9,6.4-25.8,21.1-25.8,21.1l-0.2-2.9L54.9,95.4z M33.1,95.8c0.2,0,0.5,0.3,0.9,0.9c0.3,0.5,1,1.5,1.8,2.2
	c1.5,1.4,1.6,1.2,0.4,1.4c-0.5,0.1-0.6,0-0.9,0.7c-0.9,1.1-3.5-2.8-2.8-4.3C32.7,96.1,32.9,95.8,33.1,95.8z M37.3,98
	c0.2,0,0.5,0.1,0.8,0.3c0.6,0.3,0.7,0.4,0.6,1c-0.1,0.6-0.5,0.7-1.4,0C36.7,98.6,36.8,98,37.3,98z M56.5,98.3l1.4,1.8l-32.1,26.1
	l0-3C26.7,123.3,47.2,105.4,56.5,98.3z M31.6,98.6c0.1,0,0.2,0.3,0.6,0.8c0.7,1.1,1.4,1.8,2.1,2.4c0.7,0.5,0.8,0.8,0.3,0.9
	c-0.2,0-0.5,0.2-0.6,0.5c-0.3,0.5-0.3,0.4-0.8,0.1c-0.7-0.4-1.3-1-1.6-1.8c-0.3-0.7-0.3-1.9-0.1-2.7C31.6,98.7,31.6,98.6,31.6,98.6z
	 M36.7,100.7c0.8,0,1.4,0.9,0.9,1.7c-0.3,0.3-0.6,0.4-1.2,0.1c-0.8-0.5-0.9-1.2-0.3-1.6C36.3,100.8,36.5,100.7,36.7,100.7z
	 M31.4,102.8c0.2,0,0.5,0.2,1,0.8c0.4,0.4,1.1,0.8,1.4,0.9c0.6,0.4,0.7,0.5,0.3,0.7c-0.1,0.1-0.6,0.1-0.8,0.5
	c-0.4,1.1-1.9-0.2-2.1-1.7C31.2,103.2,31.2,102.8,31.4,102.8z M35.4,102.9c1,0.1,1.5,1.2,0.7,1.8c-0.4,0.3-1.6-0.2-1.7-0.8
	C34.3,103.5,35,102.9,35.4,102.9z M59.3,103.8c0.6,0,1.1,0.5,1.1,1.1c0,0.6-0.5,1.1-1.1,1.1c-0.6,0-1.1-0.5-1.1-1.1
	C58.2,104.3,58.7,103.8,59.3,103.8z M56.1,104.2c0.6,0,1.1,0.5,1.1,1.1c0,0.6-0.5,1.1-1.1,1.1c-0.6,0-1.1-0.5-1.1-1.1
	C55,104.7,55.5,104.2,56.1,104.2z M34.6,105.7c0.1,0,0.1,0,0.2,0c1,0.1,1,1,0.5,1.5c-0.4,0.3-0.7,0.4-1.1,0
	C33.3,106.5,33.6,105.7,34.6,105.7z M58.5,107.2c0.6,0,1.1,0.5,1.1,1.1c0,0.6-0.5,1.1-1.1,1.1s-1.1-0.5-1.1-1.1
	C57.4,107.7,57.9,107.3,58.5,107.2z M152.9,107.3l0,2.7l-38,31.7l-1.3-1.7L152.9,107.3z M56.3,107.5l-2.8,6.3l-0.8-1.6l-2.1,0
	l0.6-1.9l-1.2-1.5L56.3,107.5z M116.1,133.9l5-4c-2.1-10.9,6.4-15.2,14.6-12.1l5.1-4.3C131.3,105.5,109.2,110.9,116.1,133.9z
	 M48.5,112.6c0.6,0,1.1,0.5,1.1,1.1c0,0.6-0.5,1.1-1.1,1.1c-0.6,0-1.1-0.5-1.1-1.1C47.4,113.1,47.9,112.6,48.5,112.6z M45.2,112.8
	c0.6,0,1,0.5,1,1c0,0.6-0.5,1.1-1,1.1c-0.6,0-1.1-0.5-1.1-1.1C44.1,113.3,44.6,112.8,45.2,112.8z M62.6,115l-5,4
	c1.3,10.4-3.8,15.7-14.6,12.2l-5.3,4.2C51.9,145.2,70.5,132.5,62.6,115z M47.3,116c0.6,0,1.1,0.5,1.1,1.1c0,0.6-0.5,1.1-1.1,1.1
	s-1.1-0.5-1.1-1.1C46.3,116.5,46.7,116,47.3,116z M151.5,116.2c0.6,0,1.1,0.5,1.1,1.1c0,0.6-0.5,1.1-1.1,1.1c-0.6,0-1.1-0.5-1.1-1.1
	C150.5,116.7,151,116.2,151.5,116.2z M45.1,116.5l-3.2,6.3l-0.8-1.9l-2.1,0l0.7-2.2l-1.3-1.1L45.1,116.5z M147.3,117.2l1,1.7
	l2.1,0.1l-0.8,1.6l1.5,1.6l-6.8,1.7L147.3,117.2z M37.5,121.7c0.6,0,1.1,0.5,1.1,1.1c0,0.6-0.5,1.1-1.1,1.1c-0.6,0-1.1-0.5-1.1-1.1
	C36.5,122.2,37,121.7,37.5,121.7z M34.4,121.9c0.6,0,1.1,0.5,1.1,1.1c0,0.6-0.5,1.1-1.1,1.1c-0.6,0-1.1-0.5-1.1-1.1
	C33.4,122.3,33.9,121.9,34.4,121.9z M142.1,122.5c0.6,0,1.1,0.5,1.1,1.1c0,0.6-0.5,1.1-1.1,1.1c-0.6,0-1.1-0.5-1.1-1.1
	C141,123,141.5,122.5,142.1,122.5z M153.1,122.7l0,2.4l-30.8,25.7l-1.3-1.7L153.1,122.7z M36.6,125c0.6,0,1.1,0.5,1.1,1.1
	c0,0.6-0.5,1.1-1.1,1.1s-1.1-0.5-1.1-1.1C35.5,125.5,36,125,36.6,125z M144.3,125.3c0.6,0,1.1,0.5,1.1,1.1c0,0.6-0.5,1.1-1.1,1.1
	c-0.6,0-1.1-0.5-1.1-1.1C143.2,125.7,143.7,125.3,144.3,125.3z M141.2,125.5c0.6,0,1.1,0.5,1.1,1.1c0,0.6-0.5,1.1-1.1,1.1
	c-0.6,0-1.1-0.5-1.1-1.1C140.1,125.9,140.6,125.5,141.2,125.5z M153.2,125.8l-0.1,3c-9.6,8.2-29.2,24.5-29.2,24.6l-1.5-2
	C122.5,151.4,144,132.8,153.2,125.8z M34.6,125.4l-3,6.7l-1.3-1.8l-1.9-0.1l0.4-1.8l-1.7-1.2L34.6,125.4z M137.3,128l1.9-0.4
	l-0.3,1.9l1.3,1.4l-7,1.5l3.4-6.3L137.3,128z M147.8,160.7c1.4,2.1,1.3,4.4,0.7,4.8c-0.6-0.4-1.2-1-1.8-1.2
	c-3.2-1.4-5.8-2.6-6.3-4.6C138.6,155,146.6,159,147.8,160.7z M130.7,148.3l10.9-8.9c0,0,1.7,0.9,2,1.3c0.1,0.4-0.2,0.6-0.6,1
	c-0.2,0.3-0.3,0.5-0.3,1.1c0,0.6,0.2,0.9-0.1,1.2c-0.4,0-0.7,0.5-0.7,1c0,0.3-0.4,0.7-0.7,1c-0.5,0.4-0.6,0.5-0.9,2
	c0,0.2,0,0.5-0.2,0.7c-0.6,0.1-1.1,1.6-1.4,1.7c-0.5,0-1.2-0.6-1.4-1.4c-0.1-0.5-0.1-1.6,0-2.3c0.1-0.8,0.2-1.5,0.2-1.7
	c-0.1-0.4-0.4-0.2-0.4,0.5c0,0.3-0.1,1-0.3,1.8c-0.2,0.7-0.6,1.7-0.4,2.3c0.3,0.9,1.4,1.2,1.9,1.7c1.3,1.2,1.6,1.8,1.7,2
	c1,1.9,1,2.2,0.8,3.6c-0.1,0.8-1,0.7-1.4,0.3c0,0-3.1-2.2-4.4-3.4C133,151.9,131.6,150.2,130.7,148.3L130.7,148.3z M134.8,154.4
	c1.2,0.5,4.2,2.7,4.2,2.7l-2.8,5.8c0.5,0.9,0.7,3.2,0.7,3.2c3.5-0.3,5.4,5.7-0.1,5.1c0.6,3.7-5.3,6.6-5.1,0
	c-6.1,0.5-4.1-6.5-0.3-5.2c-0.1-3,1.9-3.3,3.2-4.1c1.1-1.3,1.8-4.2,1.8-4.2l-0.3-0.9l0,0c-1.2,2-6.1,2.6-11.6,1.5
	C126.2,154.9,130.7,155,134.8,154.4L134.8,154.4z M124,158.8c-0.2,0.7-0.2,0.7,0.7,0.6c0.4,0,2.1,0,3.3,0c2.2,0.2,5.6,0.2,7.4-1.1
	c0.3-0.3,0.5-0.3,0.6-0.1c0.1,0.9-1.5,3.7-1.5,3.7l-2.8,1.5c0,0-1.1,0.1-2.5,0l0,2.5c-1.1,0.6-3,3.5,0,5.6l-0.1,2.7l2.7,0
	c1.8,1.7,3.2,1.7,4.9,0.1l3.1,0l0-3c1.5-1.2,1.7-3.3,0.2-5l0-3l-2.4,0c0,0-0.5-0.4-0.5-0.7c0-0.2,1.7-3.6,2.1-4
	c0.4-0.6,0.3-0.3,1,1.2c1,2.1,2,2.9,4.5,4.1c2.2,1.1,3,1.6,3.7,2.2c0.5,0.5,0.8,0.3,1-0.4c0.4-1.6,0.3-3.3-0.6-4.8
	c-1.9-3.2-5.2-3.3-5.7-4.1c-0.1-0.2,0.6-0.4,1.3-0.7c1.3-0.8,3.1-3.1,3.3-4c0-0.5,0.3-1.9,0.5-2.2c0.3-0.6,0.3-0.8,0.3-2.3
	c-0.2-0.9,0-2,0.1-2.3c0.1-0.8-0.3-1.7-0.9-2.8c-0.2-1-0.2-0.8,0.5-3.1c0.1-0.4,0.9-3.6-0.1-3.9c0,0,0.1,0.1,0.1,0.2
	c0.3,1.1,0.1,2.1-0.1,3c-0.7,2.6-0.8,2.9-1.5,2.7c-0.2-0.1-1.4-1-1.4-1s0-1.2,0.3-2.4c-0.2,0.4-0.2,1.5-0.7,1.7
	c-0.3,0.1-0.6-0.2-1.3-0.7c-0.2-0.2-0.8-0.6-0.8-0.6s7.8-6.7,10.7-8.9l0,98.8l-55.7,0c-0.7-6.1,1.1-14.2,4.2-22.3
	c1.9-5,4.6-8.7,7.6-13.2c5.8-8.5,10.2-17.2,8.5-28.2c-0.2-1.6-0.4-2.4-0.4-2.9c0.7-1.3,3.5-5.4,5.6-7.1c3-2.5,7.2-6.2,7.5-5.9
	c1,1.9,2.2,3.5,3.8,4.7c0.3,0.3,0.3,0.6-0.3,0.7C129.7,154.2,125.4,155.2,124,158.8L124,158.8z M27.1,130.8c0.6,0,1.1,0.5,1.1,1.1
	c0,0.6-0.5,1.1-1.1,1.1s-1.1-0.5-1.1-1.1C26.1,131.3,26.5,130.8,27.1,130.8z M131.4,131c0.6,0,1.1,0.5,1.1,1.1
	c0,0.6-0.5,1.1-1.1,1.1c-0.6,0-1.1-0.5-1.1-1.1C130.3,131.5,130.8,131,131.4,131z M133.8,134c0.6,0,1.1,0.5,1.1,1.1
	c0,0.6-0.5,1.1-1.1,1.1c-0.6,0-1.1-0.5-1.1-1.1C132.7,134.5,133.2,134,133.8,134z M130.3,134.5c0.6,0,1.1,0.5,1.1,1.1
	c0,0.6-0.5,1.1-1.1,1.1s-1.1-0.5-1.1-1.1C129.2,134.9,129.7,134.5,130.3,134.5z M126.4,136.9l1.9-0.1c-0.2,0.7-0.4,1.4-0.5,2.1
	l1.6,1.2l-6.9,1.2l2.9-6.1L126.4,136.9z M121.8,154.7l-11.5-15l1.4-1.1l11.6,14.8L121.8,154.7z M120.4,140.2c0.6,0,1.1,0.5,1.1,1.1
	c0,0.6-0.5,1.1-1.1,1.1c-0.6,0-1.1-0.5-1.1-1.1C119.3,140.6,119.8,140.2,120.4,140.2z M144.6,141.8c0.9,0.7,0,1.8-0.9,1.3
	c-0.8-0.3-0.7-1.1-0.1-1.4C144,141.6,144.3,141.6,144.6,141.8z M145.8,142.5c1,0,2,2.3,1.8,3c-0.3,0.8-0.5,0.8-1.9-0.3
	c-1.3-1.1-1.4-1.2-0.8-1.8C145.2,143,145.4,142.6,145.8,142.5L145.8,142.5z M123,143c0.6,0,1.1,0.5,1.1,1.1c0,0.6-0.5,1.1-1.1,1.1
	c-0.6,0-1.1-0.5-1.1-1.1C121.9,143.4,122.4,143,123,143z M119.7,143.4c0.6,0,1.1,0.5,1.1,1.1c0,0.6-0.5,1.1-1.1,1.1
	c-0.6,0-1.1-0.5-1.1-1.1C118.6,143.9,119.1,143.4,119.7,143.4z M143.3,144.1c1.1,0.2,1.3,1,0.9,1.6c-0.7,0.8-2.2,0.1-1.8-0.9
	C142.5,144.4,142.9,144.1,143.3,144.1L143.3,144.1z M145.2,145.4c0.4,0,1,0.5,1.7,1.5c0.8,1.1,0.8,1.4,0.6,2.1
	c-0.3,1-0.5,1.1-1.2,0.2c-0.3-0.4-0.9-1.2-1.3-1.6c-0.9-1-1.1-0.7-0.5-1.5C144.8,145.7,145,145.4,145.2,145.4z M142.7,146.5
	c0.9,0.5,1,1.1,0.5,1.6c-0.7,0.4-1.8-0.1-2.1-0.7C140.8,146.4,141.8,145.9,142.7,146.5z M144.3,147.9c0.5,0,1,0.5,1.6,1.6
	c1.1,1.8,1.2,2.4,0.2,3.6c-0.7,0.9-0.8,0.9-1.4-0.5c-0.6-1.1-1.6-2.4-2.6-3.2c-0.4-0.3-0.5-0.8-0.3-0.8c0.1,0,0.4,0,0.8,0
	c0.5,0,0.7-0.1,1-0.4C143.9,148,144.1,147.9,144.3,147.9z M140.5,149.3c0.5,0,1.1,0.3,1.6,0.8c0.5,0.6,0.5,1.1-0.6,1.2
	c-0.5,0.2-1.8-0.7-1.8-1.3C139.7,149.6,140,149.3,140.5,149.3z M143,151.4C143,151.4,143,151.4,143,151.4c0.5,0,0.8,0.5,1.3,1.5
	c0.8,1.6,0.6,2.4-0.8,3.1c-0.9,0.5-1.6,0.6-1.7,0.1c0-0.2,0-0.6-0.1-1c-0.1-0.6-0.2-1.2-0.7-2c-0.8-1.2-1-1.7-0.1-1.3
	c0.5,0.2,1,0.2,1.5-0.1C142.6,151.5,142.8,151.4,143,151.4L143,151.4z M138.4,154c-0.3,0-0.5,0.2-0.4,0.7c0.3,0.1,0.7,0,1.1,0.1
	c0.5,0.2,0.7,0.9,1.2,0.8C140.3,155,139.1,154,138.4,154L138.4,154z M45.3,164.9c-2.5-1.2-8.7-4-11.7-4c-5.6-1.6-5.8-0.9-7.7-1.4
	c10.3-2.7,17.2,2.5,19.8,5C46.9,165.7,46.3,165.3,45.3,164.9z M51.9,189.3c5.9,10.3,11.4,21.9,20.7,39.1l-0.9,0.3l-35.2,0.1
	c1.7-19-8.5-37.1-9.2-36.4c8,0.1,14.6-1.4,16-4.3l-1.1-0.3c-4.6,4-11.6,4.2-16.2,3c0.1-9.9-0.3-20.3,0-30.2
	c5.5-0.4,9.9,1.6,12.9,5.6C43.9,172.8,47.4,181.5,51.9,189.3z M35.7,161.9c1.4-0.1,9.1,3.1,12.6,5.5c1,1,2.4,2.7,2.4,2.9
	c0,0.5-0.7-0.1-4-2c-2.5-1.4-5.1-2.6-7.7-3.7c-0.1,0-0.3-0.2-0.3-0.2s-0.2-0.2-0.5-0.5C37.2,163.3,35.5,162,35.7,161.9L35.7,161.9z
	 M39.5,165.5c-0.1,0,7.6,2.8,13.8,7.7c0.8,0.7,1.8,3.1,1.8,3.1c-0.6-1-10.3-6.9-13.7-8.2L39.5,165.5z M42.2,169.3
	c0.4-0.3,11.7,6.4,13.4,8.2c0.8,0.6,2.5,3.4,2.5,3.9c0,0.5-0.5,0.1-1.6-0.9c-5.2-4.9-12.7-8.6-12.8-8.5L42.2,169.3z M44.3,173.1
	c5.3,2.3,12,7.7,15.3,10.9c0.8,0.8,1.4,2,1.6,2.6c0.1,0.4-0.1,0.3-0.2,0.5c-4.4-5-13.9-10.7-15.2-11.2
	C45.8,176.3,44.8,174,44.3,173.1z M61.9,188.8c0.6,0.6,1.6,2.8,1.4,3.1c-0.1,0.1-0.1,0.1-0.4-0.1c-1.4-1.4-8.6-7.8-14.5-11.3
	c-0.6-0.3-2.5-3.3-2-3.3C49.5,178.1,58.4,185.3,61.9,188.8L61.9,188.8z M49,181.7c0.1,0,0.3,0.1,0.6,0.3c5.5,3,13.5,10.7,15,12.6
	c0.3,0.6,0.9,1.6,0.8,2.2c-0.1,0.5-0.3,0.1-2.5-2.1c-3.6-3.5-7.7-6.9-12-9.8c-0.8-0.6-0.7-0.6-1.3-1.7C49,182.1,48.8,181.7,49,181.7
	z M84.2,181.8c3.9,0.1,5.5,3.1,7.9,8.6c2,5.4,2.8,10.4,2.9,14.3c0,0.3-0.5,0-0.7,0c-1.1-0.3-2.4-0.5-3.9-0.2c-1.1,0.3-2.2,0.3-1-0.5
	c0.4-0.2,1.4-1.2,1.9-1.5c1.1-0.7,0.4-0.7-0.7-0.1c-0.8,0.4-1.4,0.9-1.7,1c-0.2,0-0.1-0.6,0.1-1.1c1.1-2.8,1.5-4.5-0.2-5
	c-0.5-0.1-1.1-0.6-1.4-0.9c-0.2-0.2-0.4-1.1-0.5-1.2c-0.1,0-0.1,0.8-0.1,1c0,0.5,0.6,1.4,1.3,1.9c1.2,0.9,1.4,1.1,0.8,3.1
	c-0.9,2.8-1.1,3.5-1.3,4.2c-0.1,0.4-0.3,1-0.4,1.4c-0.4,1.6-0.3,3-0.2,4.3c0.4,3,3.6,4.4,7.9,2.8c0.4-0.2,0.6,0,0.6,0
	c-3.4,3.5-7.2,5.7-9.5,12.8c-2.9-5.8-6.9-10.4-13.7-12.2l-0.1-1.2c2.4,1.1,6.9,2.7,9.8,0.9c1.6-1.1,1.1-1.8-0.8-1
	c-2.2,0.9-6.3,0.8-8.3-0.4c-0.4-0.2-0.8,0-0.9,0c-0.1-0.7-1.1-3.2-0.9-4.2c-0.1-0.1,0.6-0.1,0.8,0c0.6,0.8,3.4,3,6.4,2.8
	c1.5-0.1,2.7-0.5,4-1.9c0.1-0.1,0.6-0.2,0.7-0.2c0.1-0.1,0-0.3,0-0.4c0-0.1-0.2-0.4-0.3-0.7c-0.2-0.3-0.2-0.6-0.2-0.8
	c0-0.2,0.1-0.3,0.2-0.4c0.1-0.2,0.1-0.6,0-0.7c-0.3-0.2-0.2-0.5-0.1-0.7c0.4-0.5-3.4-4-4.2-4c-0.3,0-0.1,0.5,0.4,0.9
	c1.9,1.3,3.4,3,3.1,3.2c-0.2,0.2-1.1-0.2-2-0.4c-1.8-0.4-3.9-0.7-6.3,1c-0.9,0.7-3.2,0.8-3.2,0.8c0-1.3-5.3-15.3-5.3-14.7
	c1.9-2.3,8-7.6,14-9.9C80.8,181.9,82.8,181.6,84.2,181.8L84.2,181.8z M61.2,184.9l11,0.2c-2.8,1.4-7.8,6.4-7.8,6.4
	C62.9,188.6,62.5,187.2,61.2,184.9z M51.6,186.4c0.8,0,9.6,7.1,10.8,8.8c0.2,0.2,1,1.1,2,2.1c2.3,2.3,3.2,3.6,3.2,4.5
	c0,0.5-0.4,0.2-1-0.5c-4.5-5-7.5-7.8-13.1-11.7C52.9,189.3,51,186.7,51.6,186.4C51.6,186.4,51.6,186.4,51.6,186.4L51.6,186.4z
	 M81.5,187.7c-0.2,0-0.2,0.2-0.1,0.5c1.4,1.2,5,1.2,6.3,0.2c1.2-0.9-0.4-0.4-0.8-0.2c-1.1,0.5-2.3,0.4-3.8,0
	C82.3,187.9,81.8,187.7,81.5,187.7L81.5,187.7z M84.9,189.7c-1.3,0-2.6,0.4-2.3,0.9c0.1,0.2,0.5,0.5,1.3,0c1.2-0.6,3.7,0.2,3.8,0.2
	c0.2,0.1-0.8-0.7-1.2-0.9C86.1,189.8,85.5,189.7,84.9,189.7z M54.1,191c4.7,2.9,10.4,8.7,13.9,12.8c0.6,0.7,1,1.6,1,2.1
	c0,0.7-0.2,0.3-3.3-2.8c-2.4-2.5-6.1-5.9-8.6-7.8c-1.5-1.1-1.7-1.2-2.4-2.5C54,191.6,53.8,191,54.1,191z M83.3,192
	c-0.9,0.4-2.1,0.3-3.2-0.1c-1-0.4-0.8-0.1-0.4,1.1c0.2,0.5,0.3,1.2,0.3,1.3c0,0.2,0,0.3,0.7-0.1c0.6-0.3,0.8-0.5,2.1-0.2
	c1.4,0.3,1.4,0.2,2-0.1c0.6-0.3,0.7-0.5,1.1-0.3c0.8,0.3,1.6,0.4,2.6-0.1c0.7-0.4,1-0.1,1.3,0c0.5,0.2,0.7,0.1,0.5-0.4
	c-0.1-0.2-0.2-1-0.2-1.2c0-0.5-0.1-0.9-0.3-0.8c-0.7,0.4-1.3,0.8-2,0.8C86.5,191.9,85.3,191.1,83.3,192L83.3,192z M25.9,193
	c11.7,14.6,9.8,35.7,9.4,35.6l-9.5,0L25.9,193z M56.5,196c4.7,3.3,10.2,9,13.3,13c0.5,0.7,0.1,0.9,0.4,1.7c0.1,0.3-0.4-0.2-1.9-1.8
	c-1.8-2-4.9-5-6.9-6.7c-2.2-1.9-2.8-2.4-3.3-3C57.8,198.6,56.3,196,56.5,196z M82.9,197.3c0,0-0.1,0-0.2,0c-1.7,0.1-2.5,2-1.1,3.3
	c0.5,0.5,1.4,0.8,1.4,0.5c0-0.1-0.3-0.3-0.5-0.5c-1.2-0.9-1.1-2.3,0.3-2.4c0.5,0,0.5,0.2,1.6,0.9c1.3,0.9,2.8,0.9,2.8,0
	c0-0.7-0.3-1.4-1.4-1.3c-0.3,0-0.7,0.1-1.1,0c-0.3-0.1-0.6-0.3-0.7-0.3C83.6,197.4,83.2,197.3,82.9,197.3z M59.6,201.6
	c3.6,2.4,8.5,7.9,11,11.1c0.6,0.8,0.6,1.6,0.4,2c-0.1,0.1-0.5-0.2-0.5-0.2c-2.9-3.4-6.2-6.6-9.4-9.7C61,204.8,59.1,201.7,59.6,201.6
	z M94.3,206.8l-0.8,0.4c-1.2-1.8-2.2-1.8-3.1,0.3l-0.6-0.1C89.3,206.9,91.3,202.4,94.3,206.8L94.3,206.8z M94.1,205.3
	c0.3,0,0.9,0.2,1,0.5c0.1,0.3,0,0.7-0.5,0.6c-0.1,0-0.5-0.5-0.7-0.8C93.8,205.4,93.8,205.3,94.1,205.3z M80.9,207.5l-0.9,0
	c-1.6-2.2-2.9-0.7-3.6,0.2l-0.9-0.1C75.7,205.2,79.9,204.4,80.9,207.5z M89.4,205.6c0.1,0,0.3,0,0.4,0.1c-0.3,0.5-0.4,1-0.5,1.4
	c-0.3,0.1-0.8,0.4-1.2,0.1C87.4,206.6,88.4,205.6,89.4,205.6z M75.9,205.9c0.4,0,0.3,0,0.1,0.2c-0.2,0.2-0.4,0.6-0.6,1
	c-0.1,0.2-0.1,0.3-0.3,0.4c-0.5,0-1.4-0.2-1.4-0.1C73.3,207,74.8,205.9,75.9,205.9z M81.1,206.2c0.3,0,0.2,0.4,0.1,0.5
	c-0.2,0.2-0.2,0.3-0.3,0c0-0.1-0.1-0.2-0.2-0.3c-0.1-0.2-0.1-0.2,0-0.2C80.8,206.2,81,206.2,81.1,206.2z M95.2,207.9
	c1,0,0.3,1.7-1.1,2.1c-1.6,0.8-3.3,0.6-5.1-0.4c-1-0.6-1.3-1.2-0.4-1c3.4,0.9,4.2,0.8,6.2-0.6C94.9,207.9,95.1,207.9,95.2,207.9z
	 M62.7,207.5c3.4,2.9,5.9,6.1,8.6,9.1c0.5,0.7,0.8,1.3,0.7,1.7c-0.1,0.5-1.2-0.7-1.2-0.7c0,0-6.6-7.1-6.6-7.1S62.5,207.6,62.7,207.5
	z M72.7,208.5c0.2,0,0.7,0.1,1.4,0.3c3.2,1,4.2,0.9,6.1,0.1c1.2-0.5,1.7-0.5,1.2,0.4c-0.9,1.5-4.2,1.7-6.7,0.8
	c-0.7-0.2-1.2-0.6-1.9-1.1C72.5,208.7,72.4,208.5,72.7,208.5z M87.7,209.5c0.2,0,0.6,0.2,1,0.5c2.7,1.5,4.7,1.3,6.4,0.2
	c0.3-0.3,0.5-0.1,0.5,0.1c0.1,0.9,0.2,1.6-0.2,2.1c-0.2,0.3-0.7,0.4-1.3,0.6c-2.6,0.9-5.8,0.3-6.4-1.7
	C87.4,210.3,87.3,209.5,87.7,209.5z M66.2,213.8C66.2,213.8,66.2,213.8,66.2,213.8c0.2,0,0.7,0.4,1.3,1.2c3.6,4.1,5.6,6.5,5.3,7.7
	c0,0-0.1,0.2-0.2,0.1c-2-1.7-3.6-3.6-4.8-5.6C66.4,215,65.9,213.8,66.2,213.8z M95.3,216.7c-3.1,2.3-6.8,7.9-7.1,10.7
	c-0.1,0.5,0,0.9-0.2,1.1c-0.2,0.2-0.5,0.2-1,0.1c-0.3-0.1-0.2-0.1-0.3-0.4c-0.3-1.3,0.9-4.4,3.4-8.1c1.3-2,4.2-4.6,5.1-4.6
	C95.8,215.6,95.3,216.7,95.3,216.7z M72.7,215.4c0.2,0,0.5,0.1,1,0.3c2.7,1.2,3.8,1.6,5.5,3.1c3.3,2.7,7,9.1,5.9,9.7
	c-0.5,0.3-0.8,0.1-1-0.5c0-0.1-0.4-1-0.8-1.8c-2.2-4.1-5.1-6.9-9.2-8.9c-1.5-0.7-1.6-0.6-1.8-1.3C72.3,215.6,72.4,215.4,72.7,215.4z
	 M95.2,217.8c0.3,0,0.3,0.5,0.2,1.5c-0.1,0.8-0.1,0.8-1,1.8c-1.5,1.2-3.2,4-4,6.8c0,0.1-0.1,0.3-0.2,0.4c-0.4,0.3-0.8,0.2-1.2,0.2
	c-0.2-0.1-0.2-0.6-0.1-0.9c0.7-2.6,2.3-5.8,4.9-8.5C94.5,218.2,95,217.8,95.2,217.8z M73.3,217.8c1.5,0,6.6,3.8,8.7,7.2
	c1.4,2.2,1.7,3.1,1.4,3.4c-0.2,0.2-0.9,0.2-1.3,0c-0.3-0.1-0.5-0.7-1.1-1.9c-1.7-3.2-4.1-5.5-6.8-6.8c-0.5-0.2-0.8-0.4-0.9-0.5
	C73,218.9,72.8,217.9,73.3,217.8z M74.1,220.7c0.4,0.1,1.7,0.9,2.7,1.7c1.8,1.4,4.6,5.5,4.1,6.1c-0.2,0.2-0.8,0.2-1.2,0.1
	c-2-3.5-4.5-5.2-5.6-6.2C73.8,221.8,73.1,220.6,74.1,220.7z M70,221.3c0.1,0,0.4,0.3,1.1,1c1.8,2,3,4.1,2.8,5.2
	c-0.2,0.9-0.5,0.4-2.6-3.6C70.2,222.1,69.8,221.3,70,221.3z M95.2,221.4c0,1.1,0,1.4-0.2,2c-0.1,0.4-0.3,0.6-0.6,0.9
	c-0.6,0.8-1.3,2.1-1.7,3.2c-0.3,0.9-0.2,1.1-1.2,1c-0.5-0.1-0.4-0.2-0.2-0.8C92,225.8,93.7,222.7,95.2,221.4L95.2,221.4z
	 M74.2,223.5c0-0.6,5,4.4,4.3,5c-0.6,0.1-1,0.1-1.3-0.1c-0.5-1.2-2.9-3.4-2.9-3.4L74.2,223.5z M95,225.1C95,225.1,95,225.1,95,225.1
	c0.2,0,0.1,3.1-0.1,3.4c-0.4,0.2-1,0.2-1.4,0c-0.2-0.1-0.3-0.3-0.2-0.6C93.5,227.2,94.6,225.1,95,225.1z M76.3,228.4
	c-0.2,0.2-1.1,0.3-1.5,0c-0.1-0.1-0.2-1.6-0.1-1.9C75.1,226.3,76.5,228.1,76.3,228.4z"/>
<path d="
	M111.5,20l0.6,0.8l-3.6,0c0.6,0.5,14,27.6,31.1,58.9c2.8,5.5,8.3,7.5,14.5,7.7l-16.6-26.9c1.8-1,5.3-3.6,7.4-3.1
	c0.1,0.7,0.8,0.4,0.8-0.2l0.8,0l0.3,0.4l3.2,0l0.3-0.4l2.8,0.4c-7.5-9.2-11.4-23.4-10.1-37.3l-24.7,0.1l-0.3-0.4L111.5,20z
	 M108.5,20.8C108.4,20.8,108.4,20.8,108.5,20.8L108.5,20.8z M80.1,38.8c-2.8,9.1-9.8,16.6-13.9,24.1c-4.4,8.2-5.5,15.4-4.2,23.2
	l0.8,0.1c9.4-12.9,16.7-28.3,20.8-43.5c0.1-0.3-0.1-0.9,0-1.2c-0.2-0.4,0-0.8,0.1-0.9c0.2-0.3,0.2-1.2,0-2.9c-0.4-4.8-0.4-8.6,0-13
	c0.3-3.4,0.3-3.9,0.3-3.9l-1.6,0C82.7,26.5,81.9,33.6,80.1,38.8z M118.9,21.2l2.6,0c0.4,8.1,7.2,9.2,8.3,9.1
	c-1.8,5.5,1.1,11.5,8.1,12.4c-1.6,5.1,1.2,11.8,6.8,11.6l0.6,0.4c-0.4,0.7-0.4,2.2-0.4,2.3c-1.2,0.1-1.9,0.3-2.7,0.4
	C135,46.6,118.9,21.2,118.9,21.2z M142.4,21.2c-0.8,9.1,1,21.6,5.3,28.9c0,0-0.1,0.5-0.2,0.6c-0.4,0.6-0.6,0.1-0.9-0.4
	c-0.9-1.7-2.6-1.9-3.4-1c-1.7,2.3,0.1,3.2,1.5,4.4c-5.7-0.4-7.6-6.6-6.3-9.7c0,0.6,0.3,1.5,0.7,2.1c1.6,2.4,3.9,0.4,3.3-1.5
	c-0.3-0.8-1.3-2.1-1.3-2.1s1.4-0.2,2-0.6c0.5-0.3,0.9-0.9,0.7-1.7c-0.1-0.6-0.1-0.9-0.5-1.5c-0.4-0.5-1.2-0.9-1.8-0.9
	c-1.2,0.1-1.3,0.9-2.1,1.5c-0.2-1.5-1.1-2.6-2.6-2.3c-1.2,0.2-2,1.5-1.3,3c0.4,0.8,0.9,1,1.4,1.7c-8.2-0.9-7.3-10.7-6.4-10.5
	c0,0,0.2,0,0.2,0.3c-0.5,2.4,2.5,3.8,3.8,2.1c0.8-1.4-1-3.6-1-3.6s1.2-0.2,1.7-0.6c2.1-1.2-0.1-4.8-2.1-3.9c-0.7,0.3-0.9,1-1.5,1.3
	c-0.5-0.5-0.5-1.1-1.3-1.5c-2.2-1.2-3.6,1.7-2.4,3c0.5,0.5,1.4,1,1.2,1.1c-7-0.9-6.9-8.2-6.7-8.1L142.4,21.2z M82.7,21.3l1,0
	c-0.3,4.3-0.9,10-0.5,14.3c0.5,4,0.5,4.6,0.2,5c-0.4,0.4-0.2,0.7-0.1,1c0.1,0.7,0.1,0.7,0,1c-0.8,3.4-1.9,6.9-3.3,10.4
	c-4.5,12.4-11.8,25.9-17.5,33c0,0-0.3,0-0.3,0c-1.6-9.9,1.8-18.1,3.5-21.5c3.5-6.9,9.1-12.7,12.4-19.9C80.9,38.5,83,31.2,82.7,21.3
	L82.7,21.3z M117.9,21.2l23.3,36.4l-4.3,2.1l-23.9-38.4L117.9,21.2z M131.6,28.3c0.6,0,1.1,0.5,1.1,1.1c0,0.6-0.5,1.1-1.1,1.1
	s-1.1-0.5-1.1-1.1C130.5,28.8,130.9,28.3,131.6,28.3z M139.3,40.5c0.6,0,1.1,0.5,1.1,1.1c0,0.6-0.5,1.1-1.1,1.1
	c-0.6,0-1.1-0.5-1.1-1.1C138.2,41,138.7,40.5,139.3,40.5z M83.7,42.6c0.4,1.6-7.4,25.4-18.5,40.5l4.8,0.1l0.1,0.5
	c6.8,10.1,2.5,18.9-2.9,23.1l1.9,2.5l-1.7,1.4l-1.7-2c-13.9,10.5-40.9,33.6-40.9,33.6l0.1,3.7l2.1-1.7C40.9,157.8,70,157,77.6,129.5
	l2,0C75,149.7,56.2,157.6,42,154.3l-3.3,4.8l0.9,0.5c-0.2-0.3-0.3-0.3-0.1-0.6l2.8-3.7c21.2,2.7,34-9.3,38.2-25.7l2.7,0
	c-2.3,13.7-8.7,25.8-17.9,35.3c-6.6,0-18.2-0.2-18.2-0.2c4.2,4.1,12.3,16.6,12.6,17.9c0,0,8.3,0.3,17.2,0c3.3-1.5,7.6-2.1,9.7-1
	c3.6,1.8,6.9,8.5,8.5,19.3c0.4,2.8,0.7,4,0.9,4.5c0,0.1,0.3,0.2,0.3,0.2c0.1-0.1-0.2,0.5-0.2,0.9c0,0.4,0,1,0.2,1.3
	c0.3,0.3,0.2,0.5,0.2,0.6c0,0.1-0.5,0.5-0.5,0.5c-0.1,6.3,0,12-0.4,19.7l1.2,0c0-12.4,3.7-23.9,9.5-31.9c3.5-5.2,7.2-10.8,9.3-16.1
	c2.3-6,2.6-12.3,1.4-17.6l-0.9,0c-5.1-3.5-7.1-10.9-0.9-16.2l-2.2-2.9c-6.2,4.8-7.7,13.8-1.2,21.1l-2.5,0c-6.3-7.9-4.9-17,2.4-23.4
	l-1.6-2.1l1.8-1.6l1.6,1.8l40.6-34.1l0-3.7l-3.1,2.5c-18.2-16.9-45.2-5-49.2,15.3l-2.5,0c5.2-21.9,24.3-28.1,38.2-25.2l3.4-5.2
	c-2.5-0.7-5-2.4-7.3-4.4c-1-0.8-1.6-1.3-2.3-2.2c-6.6-7-11-16.6-11.2-16.6l-17.8,0C99.5,67.5,95,69,92.6,67
	c-5.3-4.3-7-12.9-7.8-18.5c-0.2-1.7-0.4-4.7-0.6-5.7C84.1,42.6,83.9,42.6,83.7,42.6L83.7,42.6z M147,52.2c0.6,0,1.1,0.5,1.1,1.1
	s-0.5,1.1-1.1,1.1s-1.1-0.5-1.1-1.1C145.9,52.7,146.3,52.2,147,52.2z M149.3,53.5c0.9,1.1,1.7,2.3,2.1,3.6c-0.4,0-0.8,0.1-1.3-0.2
	c-0.1-1.3-0.6-2-1.3-2.9L149.3,53.5z M146,55.1c0.4,0.2,0.7,1.5,0.4,1.8c-0.4,0.1-0.7,0.1-0.9-0.1C145.3,56.4,145.7,55.2,146,55.1z
	 M75.1,67l16.6,0c2.9,2.2,5.7,1.9,9.8,0.1l18.4,0l1,1.9l-46.7,0C74.5,68.4,75.1,67,75.1,67z M73.7,69.9l47.6,0l1.2,1.9h-50
	L73.7,69.9z M78.3,72.8l5.3,0l-2,3.4l-5.5,0L78.3,72.8z M90.2,72.8l5.1,0L93,76.1l-5.1,0L90.2,72.8z M106.7,72.8l-2.1,3.4l-5.2,0
	l2.2-3.3L106.7,72.8z M113.1,72.8l5.1,0l-1.9,3.4l-5.3,0L113.1,72.8z M44.5,73.3c-3.3,0-2.7,4.4-2.4,4.2c-2.1-0.5-3.6,0.5-3.9,2.3
	c-0.2,1.4,1.2,3.4,3.6,3.1c-0.3,0.4,0,2.5,0.3,2.7c0,0,0,0.3-1.2,3c-1.5,3.2-1.8,3.3-2.5,1.2c-0.7-2.2-1.9-3.4-4.8-4.8
	c-0.8-0.4-1.9-1.1-2.5-1.5c-1.3-1-1.3-1-1.3,1c0.1,2.6,0.9,3.8,3.7,5.3c1.4,0.8,4,1.8,4.5,1.8c0.3,0,1.6,0.6,3.4,1.5
	c0.4,0.2,1.6,0.9,3.1,1c1.7,0.1,5.4-0.3,7.5-1.5c1.2-0.7,1.7-1.3,2.6-3.1c0,0-3.1,0.2-4.5-0.2c-2.9-0.2-4.3,0-6.5,1.1
	c-1.8,1-1.9,1.1-1.2-0.5c0.3-0.7,0.7-1.6,1-2.4c0.3-0.8,0.4-0.9,1.2-1c1.8-0.2,2.8-1.2,2.9-3c0-0.5,0-1,0-1c1.2,0.2,3.7-0.4,3.6-2.9
	c-0.1-2.3-1.7-2.8-3.6-2.9C47.7,75.8,46.8,73.3,44.5,73.3z M44.5,74c2.9,0,2.8,2.7,1.6,4.2l-1.5-1.3l-1.2,1.1
	C41.9,77.2,41.9,74,44.5,74z M123.9,74l1.4,2.1l-2.9,0L123.9,74z M69.7,77.1l5.5,0L73,80.2l-5.2,0C67.8,80.2,69,78.2,69.7,77.1z
	 M86.9,77.1l-2.1,3.2l-4.8,0l1.9-3.1L86.9,77.1z M93.4,77.1l4.9,0l-2,3.4l-4.9,0L93.4,77.1z M105,77.1l5,0l-2,3.4l-4.9,0L105,77.1z
	 M116.3,77.1l5.2,0l-2.1,3.4l-5,0L116.3,77.1z M44.6,77.7l2.5,2.5l-2.4,2.4l-2.5-2.4L44.6,77.7z M50.8,80.1c-0.4,2.9-3.2,2.7-4,1.3
	l1.1-1.3l-1.4-1.4C47.9,76.6,51.1,78,50.8,80.1z M42.5,78.7l-1.3,1.5l1.5,1.4c-0.9,1.3-4.6,1.2-3.8-1.9
	C39.3,77.7,41.3,77.3,42.5,78.7z M126.7,78.4l1.5,2.1l-2.8,0L126.7,78.4z M67.4,81l61.1,0.2l1.6,2c-21.3,0.4-42.2-0.4-64-0.4
	L67.4,81z M46,82.3c2.4,1.5,0.6,4.6-2,4.1c-1.9-0.8-2.3-2.9-0.6-4l1.4,1.1L46,82.3z M66.9,83.5l-1.7,0l-1.6,1.9
	c6.1,6.5,5.9,12.1,0.2,17l2.3,2.6C72.5,99.5,74,90.8,66.9,83.5z M73.2,83.7c3.4,5.4,6.4,15.6-3.8,25l-1.2-1.5
	c8.9-8.8,6.8-16.1,2.8-23.4L73.2,83.7z M74.2,83.8l13.9,0c-3,11.4-5.1,18.1-5.4,35.8l-4,0c0.4-0.4-2.1-10.7-5-14.3
	C79.8,95,76.5,89.1,74.2,83.8z M30.5,83.9c0.2,0,0.7,0.3,1.7,0.9c0.9,0.5,2,1.2,2.5,1.5c1.9,1.1,2.9,2.1,3.4,3.6
	c0.4,1.2,0.2,1.2-1,0.1c-0.9-0.8-1.8-1.5-4.1-3.1c-0.8-0.6-1.1-0.5-0.6,0.2c0.3,0.5,1.1,1,2.6,2c1.1,0.7,2.6,2,2.4,2.2
	c-0.1,0.2-0.3,0.2-0.8-0.1c-0.2-0.1-1-0.4-1.7-0.7c-3-1.2-4.3-2.7-4.5-5.3C30.3,84.3,30.3,83.9,30.5,83.9z M93.9,83.9
	c0,0,0.4,0.6,0.5,0.8c0.1,0.5-0.4,1-1.9,1.6c-0.5,0.2-1,0.4-1,0.7c0.1,0.7,1.5,1.8,1.3,2.8c-0.3,0.7-2.2,1.5-2.7,2.4
	c0,0.6,1.3,1.6,1.1,2.4c-0.1,0.2-0.5,0.5-1.1,1c-1.2,1.1-1.3,1.2-0.8,2c1,1.9,1.1,1.8-0.3,3.1c-1.4,1.4-1.4,1.4-0.7,2.6
	c0.7,1.3,0.7,1.2-0.3,2.1c-1,0.8-0.9,1-0.4,2c0.5,1,0.6,1-0.2,1.7c-1,0.9-1.2,1-0.5,2.1c0.7,1.1,0.8,1.1,0,2
	c-0.8,0.9-0.9,0.9-0.4,1.5c0.5,0.8,0.6,1,0.1,1.8c-0.6,0.9-0.6,0.8,0,1.7c0.5,0.7,0.4,1.5,0.4,1.5l-1.7,0c0,0,0-1-0.2-1.3
	c-0.5-0.9-0.5-1.2,0.1-1.9c0.6-0.8,0.5-0.9-0.1-1.7c-0.6-0.8-0.5-0.8,0.2-1.7c0.7-0.8,0.7-1.2,0.3-1.7c-0.9-1.2-0.9-1.6,0-2.4
	c0.7-0.6,0.7-0.8,0.2-1.8c-0.6-1-0.7-1.1,0.4-2c1.1-1,1.1-1,0.3-2.1c-0.7-1.1-0.7-1.2,0.5-2.2c1.1-1.1,1.2-1.1,0.4-2.4
	c-0.7-1.3-0.7-1.2,0.7-2.5c1.4-1.1,1.8-1.3,0.5-3c-0.8-1.3-0.2-1.4,1-2.1c2.2-1.3,1.2-1.3,0.3-3.3c-0.8-1.3-0.3-1.3,1-2
	c0.3-0.1,0.7-0.3,1.1-0.5c0.9-0.5,0.4-1,0.4-1L93.9,83.9z M96.8,84l6.6,0.1c-7.7,9.8-11.4,22.4-12.7,35.7l-2.5,0
	C88,109.3,91.3,96.4,96.8,84z M130.8,84.2c3.8,3.2,6.6,5,8.6,5.8c0,0-2.7,4.5-2.9,4.3c-15.4-3-33.6,6-37.8,25.4l-2.4,0
	c0.9-7.6,2.9-14,6.6-20.6c3.6-6.4,7-10.2,12.1-14.9L130.8,84.2z M104.3,84l3.3,0.1c0,0,0.6,0.7,0.9,1c1.4,1.6,1.5,1.3-1.6,3
	c-2,1.1-2.8,1.6-2.9,2.1c-0.1,0.5,0.9,1.4,1,2c0,0.1-2.7,1.9-3.1,2.1c-0.7,0.3-0.7,0.6,0,1.8c0.8,1.3,0.7,1.3-0.9,2.4
	c-1.6,1.1-1.9,1-1.2,2.1c1,1.6,0.5,1.9-1.7,3.1c-0.6,0.3-0.6,0.6-0.2,1.7c0.6,1.5,0.7,1.3-0.5,2.1c-1.4,0.9-1.6,1-1.3,1.6
	c0.9,1.7,1.2,2.1,0.1,2.7c-0.9,0.4-0.9,0.7-0.4,1.8c0.5,1.1,0.6,1.1-0.3,1.7c-0.8,0.6-1.3,0.4-0.5,1.4c0.6,0.8,0.6,1.4,0.1,1.8
	c-0.4,0.2-0.7,1-0.5,1.1l-1.1,0c-0.9-1.2,0.2-1.9,0.3-2c0.2-0.3,0-0.5-0.4-1.1c-0.5-0.9-0.5-1,0.2-1.5c0.7-0.5,0.7-0.4,0.3-1.6
	c-0.6-1.4-0.5-1.5,0.3-2.2c0.9-0.6,0.9-0.8,0.3-2c-0.6-1.3-0.6-1.3,0.9-2.3c1.1-0.7,1.1-0.7,0.5-2c-0.4-0.9-0.1-1.2,1.4-2.3
	c0.8-0.6,0.9-0.7,0.5-1.4c-1.1-1.9-1.1-2,0.8-3.2c1.6-1,1.5-1.1,0.9-2.4c-0.7-1.5-0.7-1.3,1.4-2.6c1.7-1,1.8-1,1.1-2.2
	c-0.9-1.6-0.8-1.3,2.7-3.3c1.3-0.9,2.4-0.6,1.1-2C105,84.8,104.3,84,104.3,84z M42.7,86.6c0.2,0,0.4,0.3,0.4,0.9
	c0,0.8-0.4,1.6-0.8,2.3c-0.7,1.6-1.5,2.8-1.9,2.8c-0.9,0-0.9-0.2,0.3-2.6c0.6-1.1,1.1-2.3,1.2-2.6C42.2,86.9,42.5,86.6,42.7,86.6z
	 M53.9,90.2c0,3.3-10.4,5-11,3.3c1.8-1.4,7.2-0.8,8.3-2.1c-1.4-0.1-3.2,0.1-4.5,0.2c-1.6,0-4.2,0.7-4.2,1c-0.2-0.9,2.7-2.5,5-2.6
	C49.8,89.9,52.1,90.1,53.9,90.2z M54.8,95.3c0,0-20.3,16.9-30.4,25.1l0.1,3.7l32.2-26.5L54.8,95.3z M54.7,96.1l1.3,1.6l-30.2,24.7
	l-0.1-2.6L54.7,96.1z M150.3,104.8l-1.1,1.2c-29.5-22-56.7,11.4-41.7,35.4c-0.1,0.3-1.2,1.1-1.2,1.1
	C89.6,114.6,121.5,82.1,150.3,104.8z M134,100c1.7,0,4.8,1.2,6.1,2.7c1.5,1.8,1.1,2.6-0.9,0.9c-2.1-1.5-3.8-1.9-0.9-0.1
	c0.6,0.4,1.2,1.2,1.2,1.2c0.1,0.3-0.4,0-2.8-0.9c-1.4-0.5-3.3-1.9-3.7-2.9C132.6,100.2,133.1,99.9,134,100z M127.8,100
	c0.5,0,1,0,1.3,0.1c2.1,0.6,2.8,0.9,3.6,1.5c0.5,0.4,0.4,0.7-0.3,0.5c-0.7-0.3-3-1-3.4-1c-0.6,0.1,0,0.5,0.9,0.7
	c1.9,0.5,2.9,1,1.5,1c-0.7,0.1-3.8,0.1-4.7,0c-1.4-0.2-3.5-1.5-3-1.9C124.2,100.4,126.2,100,127.8,100z M121.8,102
	c2.5,0,3.9,1,1.1,1.2c-4.7,0.8-5.6,1.8-0.4,0.5c1.2-0.3,1.2,0.2,0.3,0.6c-0.7,0.3-1.5,0.5-2.2,0.8c-1.3,0.5-4.2,0.7-5.4,0.2
	C113.5,104.7,118.8,102,121.8,102z M141.9,102.4c1.3,0,4,1.9,5.2,3.6c0.8,1.1,0.4,1.9-0.8,1c-0.2-0.2-1.9-1.6-2-1.7
	c-0.2-0.1,1.4,1.4,1.6,1.9c0.2,0.4,0.6,1.2-0.2,1.2c-1.3-0.2-4.4-3.7-4.5-5.4C141.2,102.6,141.5,102.4,141.9,102.4z M126.2,103.4
	c0.5,0,0.3,0.3-0.7,1c-1.8,1.3-0.9,1,1.3-0.1c0.6-0.3,1.4-0.6,1.7-0.6c0.3,0,0.6-0.1,0.7-0.2c0.6-0.2,0.1,0.5-0.8,1.3
	c-1.9,1.6-4.1,2.8-5.6,3.2c-1.9,0.5-2.3,0.5-1.6-0.7c1.1-1.9,2.8-3.5,4.4-3.8C125.8,103.4,126,103.4,126.2,103.4z M132.7,103.4
	c0.8,0,1.8,0.2,3.4,0.5c1.1,0.3,0.8,0.4-0.5,0.6c-2.5,0.3-1.4,0.6,1,0.5c3.3,0-1.6,1.2-3.2,1.4c-1.3,0.1-1.6,0-4.3-0.5
	c-1-0.2-0.4-1,1.6-1.9C131.3,103.7,131.9,103.5,132.7,103.4z M153,103.9l0.1,2.1l-39.8,33.4l-1.3-1.5L153,103.9z M139.5,105.7
	c1.6,0,3.9,1.1,3.6,1.7c-0.1,0.2-0.3,0.2-1.5-0.1c-0.8-0.2-2.2-0.4-2-0.3c0.1,0.1,1.2,0.5,1.6,0.6c1.4,0.3,3.1,1.1,2.7,1.4
	c-0.6,0.4-1.3,0.1-2,0c-1.9-0.3-5.1-1.2-5.6-1.7C135.7,106.8,137.7,105.7,139.5,105.7z M120.9,105.8c0.3,0,0.4,0.3,0.1,0.7
	c-0.4,0.5-0.6,1-1,1.7c-1.3,2.1-2.2,2.9-3.5,3.7c-1.3,0.8-1.5,0.7-1.4-1c0.2-1.7,1.4-3.5,3.1-4.4c0.8-0.1,1.3-0.3,0.4,0.7
	c-1.5,1.8-0.5,1.6,0.9-0.4C120.1,106.1,120.6,105.8,120.9,105.8z M115.7,106.1c0.9,0,1.1,0.3,0,0.8c-1,0.5-3.2,2-3.2,2.1
	c-0.1,0.3,0.7-0.1,2-0.9c1.7-1,1.9-0.9,1.1,0.2c-0.9,1.2-3.2,2.8-5,3.3c-2.5,0.7-2.5,0.2-1.1-1.7c1.3-2,2.5-3,4.2-3.6
	C114.5,106.2,115.2,106.1,115.7,106.1z M73.1,106.4c9.1,15.8,4.1,31.8-6.5,40c-11.1,8.6-28.3,8.1-38.4-2.2l1.4-1.3
	c0,0,16,16.4,36.2,1.8c10.2-7.4,14.5-24.8,6-37L73.1,106.4z M32.2,106.4C32.2,106.4,32.1,106.4,32.2,106.4c-0.4,0.2-1.5,3.6-1.8,5
	c-0.1,0.4,0,0.8,0.4,1.2c0.2,0.2,0.6,0.1,0.7,0c0.8-0.4,1.2-0.9,1.9-2.6c0.5-0.9,0.5-2,0.4-2.4c0-0.2-0.3-0.5-0.6-0.7
	C32.9,106.7,32.4,106.4,32.2,106.4z M32.4,107.1c0.4,0,1.1,0.6,1.2,1c0,0.7-0.4,2-0.7,1.8c-0.5-0.7-1.1-0.2-1.2-0.5
	C31.5,108.7,32,107.8,32.4,107.1C32.3,107.1,32.3,107.1,32.4,107.1z M130.9,107.7c4.1,0,8.1,1.2,11.1,3.8l-1.6,1.5
	c-7-5-15-3.5-19.8-0.2c-4.7,3.3-8.9,10.7-4.8,21l-1.5,1.4c-4.6-8.3-2.1-19.3,6-24.5c2.9-1.8,6.6-2.9,10.3-3
	C130.7,107.7,130.8,107.7,130.9,107.7L130.9,107.7z M70.9,108.9c0.1,0,0.3,0.4,0.3,0.9c0,0.6-0.3,1.4-0.7,1.5
	c-0.4,0.2-0.7-1.2-0.7-1.2C70.1,109.8,70.5,109.3,70.9,108.9z M143.6,109.4c0.2,0,0.3,0,0.5,0c0.4,0.1,0.5,0.5,0,0.9
	c-0.5,0.4-0.7,0.4-1.2,0.1c-0.4-0.3-0.4-0.5-0.1-0.8C143,109.5,143.3,109.4,143.6,109.4z M65.6,109.5l1.3,1.7l-4.7,3.8l-0.6,0
	l-35.7,29.7l0-2.6L65.6,109.5z M140.2,113.5l-4.9,4c-9.7-5.1-17.5,4-14.8,12.2l-4.2,3.7C108.9,112.7,130.9,105.6,140.2,113.5z
	 M114.8,110.4C114.8,110.4,114.8,110.4,114.8,110.4c0.1,0,0.1,0,0.1,0.1c0.2,0.2-0.2,2.9-0.4,3.4c-0.1,0.2-0.2,0.4-0.2,0.5
	c0,0.2-0.9,2.1-1.6,3.4c-0.3,0.5-0.5,1.1-0.6,1.4c-0.6,2.7-1.8-1.7-1.3-4.2c0.2-1.2,1.9-3.7,2.4-3.5c0.2,0.1,0.2,0.3-0.2,1.2
	c-1.2,2.7-1.5,4-0.2,1.5C114.2,111.2,114.5,110.4,114.8,110.4z M32.2,110.4c0.2,0,0.3,0.1,0.4,0.3c0,0.2,0.1,0.6,0,0.7
	c-0.2,0.6-0.8,0.9-1.3,0.9c-0.2,0-0.5-0.2-0.5-0.5c0-0.2,0-0.6,0.3-0.9C31.5,110.6,31.9,110.4,32.2,110.4z M69.2,110.6
	c0.6,0,1.2,1.6,0.8,2.3c-0.3,0.6-0.4,0.5-0.9-0.7c-0.3-0.6-0.5-1.2-0.5-1.2l0.5-0.4C69,110.6,69.1,110.6,69.2,110.6
	C69.2,110.6,69.2,110.6,69.2,110.6L69.2,110.6z M68.2,111.2c0,0,0.6,1.1,0.7,2c0.1,0.5,0.1,0.4-0.5,0.2c-0.5-0.3-0.6-0.5-0.8-0.8
	c-0.2-0.3-0.4-0.6-0.4-0.6L68.2,111.2z M71.9,111.5c0.3,0,0.6,0.3,0.9,1.1c1.1,2.9,1,6.1-0.2,7.6c-0.2,0.3-0.3,0.3-0.5,0.1
	c-0.2-0.1-0.2-1.5,0-1.9c0.1-0.1,0.3-0.9,0.3-1.4c0-1.1-0.3-1.2-0.4-0.2c-0.2,1.2-0.3,2-0.7,1.3c-0.2-0.4-0.2-0.7-0.4-1.1
	C70.2,114.4,70.9,111.5,71.9,111.5z M66.9,112.2c0,0,1.1,1.4,1.5,1.9c0.2,0.3,0.2,0.3-0.1,0.4c-0.4,0.2-1.9-0.8-2.4-1.1
	c-0.3-0.2-0.2-0.4-0.2-0.4C66.2,112.7,66.5,112.4,66.9,112.2z M109.8,112.2c0.6,0,0.6,0.2,0,1.1c-3.5,5-2.8,4.3-0.6,1.5
	c1.2-1.5,1.4-1.7,1.6-1.3c0.1,0.2-1.4,3.2-2.1,4.3c-0.4,0.5-1.7,1.5-2.4,1.8c-1.6,0.8-1.5,0.5-0.9-1.6
	C106.2,114.9,108.2,112.3,109.8,112.2z M64.9,114c9.5,23.7-16.5,34.1-28.2,23.1l1.4-1.1c16.3,11.1,32.4-6.7,25-20.6
	C63.1,115.4,63.8,114.9,64.9,114z M67.1,114.6c1.6,0.2,3.9,3,4,4.6c0.2,1.1-0.1,1.3-0.6,0.5c-0.9-1.7-0.8-0.6,0,1.1
	c0.4,0.9,0.5,1.9,0.1,2c-0.6-0.1-1.9-2.2-2.3-3.1c-0.9-1.9-1-1.6-1.5-4.3C66.6,114.8,66.7,114.6,67.1,114.6z M62.4,115.3
	c7.2,13.9-8.3,30.6-24.1,19.8l4.7-3.8c8.2,4,17.5-1,14.8-12.4L62.4,115.3z M134.4,117.9l-13,10.9
	C118.8,119.8,128.6,114.6,134.4,117.9z M110.3,117.9c0.4-0.1,0.8,2.6,0.9,6.5c0.1,3.8,0.2,4.1-1,2.7c-0.5-0.6-1.1-1.1-1.3-1.6
	c-0.8-1.5-0.5-3-0.3-5.2c0.2-2,0.9-1.7,0.8,0.4c-0.1,1.4-0.1,3,0.2,3c0.1,0,0.1-0.1,0.1-0.3c-0.1-0.4,0.4-4.7,0.5-5.2
	C110.1,118,110.2,117.9,110.3,117.9z M74.3,119.6c0.9,0.4,1.2,3.5,0.2,6.6c-0.4,1.3-1.1,2.2-2.1,2.7c-0.7,0.4-0.9,0.3-0.6-0.4
	c0.6-1.1,0.9-2.2,1.2-3.6c0.1-1.4-0.6-0.3-0.6,0.3c-0.6,2.5-1.3,2.9-1.2,0.2c0.1-2,0.3-2.8,1.2-4.1C73,120.6,73.4,119.7,74.3,119.6z
	 M107,119.9c0.4,0,0.5,0.5,0.1,1.5c-0.2,0.7-1.1,3-1,3c0.1,0,0.9-2.1,1.1-2.4c0.3-0.5,0.4-0.7,0.7-0.6c0.3,1,0,2.3-0.1,3.3
	c-0.5,2.7-2.4,5.6-3.1,4.7c-1.2-1.4-0.6-6.9,0.9-8.6C106.2,120.2,106.7,119.9,107,119.9z M57.4,120.3c1.4,9.7-6.5,13.8-13.4,10.9
	C44.1,131.1,57.4,120.3,57.4,120.3z M89.9,120.5l1.4,1.8l2.5,0.1l-1.3,1.9l1.3,2.5l-2.8,0l-1.6,1.9l-1.4-1.7l-2.5-0.1l1.4-2.3
	l-1.2-2.2l2.7-0.1L89.9,120.5z M68.6,121.3c0.3,0,1.9,2.1,2,2.8c0.5,1.8,0.3,5.3-0.4,5.2c-0.7-2.5-0.4-3.8-0.7-3.5
	c-0.4,0.5,0.3,4.3,0,5.3c-0.1,0.2-0.5-0.1-0.9-0.7C67.6,128.8,67.7,122.3,68.6,121.3C68.6,121.3,68.6,121.3,68.6,121.3z
	 M153.3,125.2l-31.3,26l1.8,2.3l29.6-24.5L153.3,125.2z M108.1,125.7c0.1,0,0.5,0.2,1,0.8c1,1.4,2.1,3.3,2.5,4.8
	c0.1,0.6,0.4,1.3,0.5,1.7c0.2,0.5,0.2,0.7,0.1,0.8c-0.5,0.7-2.8-1-3.5-2.6c-1-2.3-1.1-4.3,0-2.3c0.4,0.7,0.8,1.8,0.8,1.4
	c0-0.1-0.5-1.6-0.8-2.3C108.5,127.4,107.8,125.7,108.1,125.7z M153,126.3l0.1,2.2l-29.2,24.5l-1.1-1.4
	C122.8,151.5,150.2,128.6,153,126.3z M107.5,127.6c0.1,0,0.2,0.2,0.2,0.7c-0.1,1.4-0.5,4.5-0.4,4.8c0,0.2,0.5-2.1,0.6-2.4
	c0.5-2.1,1.3,2.9,0.8,5.1c-0.1,0.3-0.2,0.9-0.3,1.2c-0.1,0.3-0.3,0.9-0.4,1.1c-0.8,1.3-2.8-3.9-2.4-6.5
	C105.6,129.8,107,127.6,107.5,127.6z M73.7,128.8c0.4,0,0.5,0.4,0.4,1.1c-0.2,2.7-2,5.6-4,6.3c-2,0.8-2.1,0.6-1-0.8
	c0.9-1.1,1.4-2.2,1.3-2.3c-0.1-0.1-0.3,0.4-1,1.3c-0.9,1.1-1,0.2-0.2-1.5c0.7-1.5,1.4-2.2,2.7-3.1C72.8,129.1,73.4,128.8,73.7,128.8
	z M91.5,129.6c-0.4,11.7-3.3,24.3-8.9,35.4l-5.2,0c6.4-9.5,10.5-21.2,11.6-35.3L91.5,129.6z M93.7,129.6c0,0,0.8,0.8,1.1,1.4
	c0.3,0.6,0.4,1.1-0.2,1.6c-0.7,0.6-1,0.4,0.2,2c0.6,0.8,0.4,1-0.4,1.7c-0.8,0.7-0.9,0.8-0.1,1.7c0.8,1,1,1.2-0.1,2
	c-1,0.7-1,0.9-0.2,2.1c0.7,1.1,0.9,1.1-0.4,2.2c-1.1,1-1.2,0.7-0.1,2.4c0.4,0.6,0.4,0.7-0.4,1.3c-1.8,1.6-1.7,1.5-1.4,1.9
	c2,2.8,1.1,2.8-0.9,4.1c-0.4,0.3-0.3,0.7,0.6,2.1c0.7,1.2,0.6,1.5-1.1,2.7c-1.8,1.2-1.9,1.4-1,2.7c0.9,1.2,0.9,1.2-0.5,2.5
	c-0.6,0.6-1.2,1.1-1.2,1.1l-3.2,0c0,0,0.7-0.6,1.1-1c2.6-1.9,2.6-1.7,1.5-3.1c-1-1.2-0.9-1.3,0.1-2c0.7-0.5,1.7-1,2.4-1.6
	c0.4-0.3,0.1-0.5-0.5-1.7c-0.7-1.4-0.8-1.2,0.6-2.3c1.5-1.2,1.5-1.2,0.7-2.7c-0.8-1.5-0.8-1.4,0.2-2.2c1.5-1.2,1.6-1.2,0.8-2.6
	c-0.6-1.1-0.6-1.1,0.4-2.2c1.1-1.1,0.9-1,0.3-2c-0.6-1-0.6-1.1,0.2-1.9c0.9-0.8,0.8-0.8,0-1.8c-0.8-1-0.7-1,0.2-1.8
	c0.5-0.4,1-0.8,0.9-1.1c-0.1-0.5-0.6-1.2-1-1.9c-0.2-0.3,0.2-0.3,0.7-0.9c0.6-0.6,0.6-0.5,0.1-1.3c-0.2-0.4-0.7-1.2-0.7-1.2
	L93.7,129.6z M85.2,129.6l0.9,0c0,0,0.2,0.2,0.4,0.4c0.6,0.6,0.6,1,0,1.3c-0.6,0.3-0.3,0.7,0.1,1.4c0.5,0.7,0.5,0.6-0.2,1.4
	c-0.7,0.6-1.1,0.8-0.3,1.9c0.5,0.5,0.4,1.1-0.3,1.5c-0.6,0.4-1.5,0.7-0.5,2.1c0.5,1,0.5,0.9-0.5,1.6c-1.3,0.9-1.6,0.8-1,2.1
	c0.7,1.5,0.7,1.5-0.6,2.6c-1.6,1.2-1.7,1.3-1,2.7c0.7,1.4,0.7,1.1-1,2.4c-1.2,1-1.5,1-1.2,1.8c0.7,1.5,1,1.9-1,2.9
	c-2.3,1.2-2.4,1.3-1.3,3c0.9,1.4,0.7,1.2-0.8,2.1c-2.2,1.3-3.1,1.8-3.2,2.2c0,0.4,1.7,1.7,1.7,1.7l-3,0.1c0,0-1.3-1-1.7-1.5
	c-1.4-1.3-1.4-0.9,3.2-3.1c2.5-1.2,2.3-0.9,1.9-1.7c-1.2-2.1-1.2-2.3,1-3.5c2-1,1.6-1.1,1.1-2.6c-0.4-1.3-0.4-1.2,0.7-1.9
	c2.5-1.9,2.4-1.7,2-2.6c-0.4-0.9-0.7-1.3-0.4-1.8c0.9-1.3,2.8-1.6,2-3.1c-0.4-1-0.5-1.2,0.6-2.1c1-0.8,1-0.7,0.4-1.8
	c-0.8-1-0.7-1.2,0.5-2c0.8-0.7,0.8-0.7,0.3-1.4c-0.6-1-0.6-1,0.3-1.8c0.7-0.6,0.9-0.7,0.4-1.4c-0.6-0.9-0.5-1.1,0.3-1.6
	c0.5-0.3,0.5-0.4,0.5-0.9C85.5,130.2,85.2,129.6,85.2,129.6L85.2,129.6z M96.5,129.7l4.2,0c1.3,7.8,3.7,11,5,13.5
	c-5.3,8.5-4.1,15.6-0.9,21.9L91.6,165C95,153.3,96.7,141.6,96.5,129.7z M67.7,129.7c0.2,0,0.3,0.2,0.5,0.7c0.8,1.4,0.2,3.5-1,5.6
	c-0.9,1.6-1.1,0.4-0.7-1.9c0.3-1.4-0.5,0.7-0.8,2.5c-0.2,1-0.6,1.7-1.1,1.7c-0.5-0.1-0.3-1.4-0.3-1.7c0.1-2.1,0.9-3.6,2.4-5.7
	C67.3,130.1,67.6,129.7,67.7,129.7z M110.5,133.8c0.2,0,0.5,0.1,0.8,0.3c0.3,0.2,0.7,0.4,1.1,0.6c1.2,0.6,1.3,0.8,0.7,1.5
	c-0.7,0.8-1.1,0.5-2.3-0.8C110,134.5,110,133.8,110.5,133.8z M110.1,135.6c0.2,0,0.6,0.2,1,0.6c0.8,0.9,0.7,1.6-0.2,1.4
	c-0.3-0.5-0.5-1.3-0.9-1.9C110,135.6,110,135.6,110.1,135.6z M147.5,135.7c-0.7,0-2,1-2.2,2c-0.7,3.1-0.7,2.9-0.1,3.4
	c0.2,0.1,0.3,0.2,0.4,0.3c0.4,0.3,0.9,0.8,1,0.7c0.6,0,1.6-3.9,1.5-4.7c0-0.9,0.1-0.9-0.1-1.3C147.9,135.8,147.7,135.7,147.5,135.7z
	 M109.5,135.8c0,0,0.1,0,0.2,0.1c0.5,0.5,0.7,1.4,0.9,2c0,0.1-0.1,0.4-0.1,0.5c-0.4,0.8-1.1,0-1.1-1.4
	C109.4,136.1,109.4,135.8,109.5,135.8L109.5,135.8z M147.4,136.4C147.4,136.4,147.5,136.4,147.4,136.4c0.6,0,0.5,0.5-0.2,1.3
	c-0.4,0.4-1.1,0.6-1.4,0.3c-0.4-0.4,0.4-1.3,1.2-1.6C147.2,136.4,147.3,136.4,147.4,136.4z M63.3,136.8
	C63.3,136.8,63.3,136.8,63.3,136.8c0.3,0,0.6,0.1,0.7,0.3c0.3,0.4,0.2,1.1,0,1.6c-0.4,1.4-3,4.1-3.9,4.1c-0.6-0.1,1.8-3.1,1.8-3.6
	c-0.2-0.2-1.6,1.5-2.3,2.7c-0.3,0.5-0.7,1.2-0.8,1.3c-0.5,0.1-1,0.4-1.1,0c0.1-1.5,3-4.7,4-5.6C62.3,137,62.9,136.8,63.3,136.8
	L63.3,136.8z M70.2,136.9c2.2,0-2.2,4.9-5,5.6c-0.9,0.2-2.5,0.3-2.6,0.1c-0.1-0.2,0-0.3,0.4-0.4c0.6-0.2,3.5-2,3.5-2.2
	c0-0.3-1.2,0.2-2.2,0.8c-0.7,0.4-1,0.3-0.6-0.2C65.3,138.2,67.5,137,70.2,136.9L70.2,136.9z M108.9,136.9c0.1,0,0.2,0.3,0.3,0.8
	c0.4,1.1,0.4,1.3,0,1.6c-0.7,0.5-0.8,0.4-0.8-0.8C108.4,137.6,108.7,136.9,108.9,136.9L108.9,136.9z M35.3,138.3
	c0,0,0.8,0.3,0.5,0.7c-0.2,0.3-1.2,0-1.2,0L35.3,138.3z M147.5,138.4c0.3,0,0.3,0.2,0.1,0.9c-0.1,0.3-0.4,2-1,2.5
	c-0.1,0-0.9-0.4-1.1-0.7c-0.1-0.1-0.4-0.4-0.5-0.5c-0.1-0.5,0-1.2,0.4-1.5c0.2-0.1,0.5-0.2,0.6-0.2c0.1,0,0.5-0.1,0.8-0.3
	C147.2,138.4,147.3,138.4,147.5,138.4z M35.6,139.5c0.5,0,1.2,0,1.8,0.2c1.6,0.5,4.7,1.8,5.1,2.3c0.7,0.6-1.1,1.3-3.2,1.4
	c-1.1,0-1.3-0.2-2.9-1.2c-0.2-0.1-1.1-0.7-0.8-1c0.3-0.3,1.2,0.1,2.2,0.6c0.4,0.2,1.2,0.1,1.2,0c0-0.2-2.2-1-3.8-1.5
	c-1.1-0.3-1-0.7-0.4-0.8C35,139.6,35.3,139.6,35.6,139.5L35.6,139.5z M33.5,140.3c0,0,0.5,0.4,1,0.8c0.6,0.5,1.4,1.1,1.9,1.8
	c0.7,0.9,1.9,3.1,1.8,3.6c-0.3,0.9-3.4-0.7-5.9-3.3c-0.8-0.8-1.3-1.4-1.3-1.4l1-0.9c0,0,0.9,0.7,1.8,1.6c1.8,1.6,1.8,1.1,0-0.7
	c-0.5-0.5-1-0.9-1-0.9C32.7,140.6,33,140.4,33.5,140.3z M109.5,140.4c0,0,1,1,1.4,1.5c-6.1,5.9-8.4,14.2-2.5,23.1l-2.8,0
	C100.3,154.6,102.8,146.8,109.5,140.4L109.5,140.4z M58.3,140.6c0.4,0,0,0.4-0.6,1.6c-1.2,2.1-1.5,2.7-3.5,3.2
	c-0.5,0.1-1.3,0-1.6,0.1c-0.9,0.1-0.5,0,0.9-0.9c1.8-1.2,0.3-0.6-1.4,0.3c-1,0.5-2,0.5-2.1,0.2c0-0.1,0.4-0.5,0.7-0.8
	c2.6-2.3,3.4-2.2,5.8-3.1C57.5,140.8,58.1,140.6,58.3,140.6z M47.4,142.7c0.9,0,1.8,0.1,2.6,0.3c0.5,0.1,1.4,0.2,0.6,0.9
	c-0.8,0.8-3,1.8-4.6,1.9c-0.2,0-3.5-0.2-2.8-0.9c0.1-0.1,0.6-0.1,1-0.1c1.8-0.3,1.3-0.7-0.9-0.5c-2.8,0.2-3-0.1-0.8-0.7
	c1.6-0.4,3.1-0.7,4.5-0.7C47.2,142.7,47.3,142.7,47.4,142.7L47.4,142.7z M62.5,143c1.3,0,2.2,0.2,2.2,0.7c0,0.8-2.4,2.5-3.9,2.8
	c-0.4,0.1-0.9,0.2-1.2,0.3c-0.5,0.1-3.6,0-3.9-0.1c-1.4-0.5-0.4-0.7,2.2-1c1.1-0.1,1.7-0.4,1.7-0.6c0-0.1-0.8-0.1-2.1,0
	c-1.4,0.2-1.1-0.2,0.6-1.1C59.3,143.3,61.1,143,62.5,143z M39.2,144c0.2,0,0.6,0.1,1.3,0.5c1.5,0.4,3.6,0.9,5,2.5
	c1.1,1.1,1.4,1.5,1.2,1.9c-0.3,0.5-3.9,0.1-5.3-0.5c-1-0.4-2.2-1.3-2.7-2.1c-1.3-1.9-0.8-2.4,0.9-1.1c2,1.6,2.3,1.8,2.6,1.7
	c0.1,0-0.2-0.4-0.9-0.9C39.7,144.7,38.8,144,39.2,144L39.2,144z M51.5,146.1c1.7,0,2,0.1,3.7,0.9c2,0.7,1.5,1.4-2.1,2.3
	c-1.8,0.4-3.6,0.1-4.9-0.7c-2.9-1.8-2.7-2.2,0.5-1.4c1.1,0.3,2.1,0.3,2.2,0.1c0-0.2-1.2-0.5-2.3-0.8c-1.1-0.4-0.2-0.3,2.1-0.4
	C51,146.1,51.3,146.1,51.5,146.1L51.5,146.1z M135.1,153.8c0,0-0.4,0.2-0.5,0.3c-0.1,0.1-1.1,0.2-2.2,0.3c-2.2,0.2-3.6,0.5-4.9,1
	c-2,0.8-3.3,3.3-3.3,3.3c1.5-0.1,9.9,1.4,12.2-1.6c0.5-0.6-1.2,4.8-2.1,5c-2.2-0.3-3.1,3.2-2.9,3.1c-2.2,0.9-4,1.4-3.4,4
	c0.2,1.1,1.4,2.5,3.8,2.1c-0.7,4.5,4.8,5.7,5.4,0.2c0,0,1.1-0.2,1.5-0.2c2.5-0.6,3.1-4.3-0.6-5.4c-1-0.3-1.1-0.5-1.1-0.5
	c0.2-0.8,0.2-1.7-0.4-2.7c0.8-1.9,2.8-5.7,2.8-5.7L135.1,153.8z M135.5,155c0.5,0.7-2.1,1.8-4.9,2c-0.6,0.1-2,0.2-2.1,0.2
	c-0.3,0.5,5.4,0.1,7.2-0.9c0.6-0.3,0.7,0,0.4,0.5c-2.1,2.7-7.1,2-11,1.6c-0.2-0.2,0-0.5,0.8-1.2c1.6-1.3,2.8-1.7,5.3-2
	C132,155.2,135.2,154.6,135.5,155z M138.6,157.7c-0.4,1.2-2.2,4.7-2.2,4.7c-0.2,0.2-1.1,0.4-1-0.5c0-0.9,1.8-4.9,2.3-5
	C138.2,156.9,138.6,157.3,138.6,157.7z M139.8,158c0.6,4,3.6,5,6.5,6.3c0.8,0.3,1.4,1,2.2,1.4c1.4-2-0.2-5.8-2.7-7.1
	c-1.9-0.9-3.6-1.6-4.7-1.5C140.5,157.1,139.8,157.5,139.8,158L139.8,158z M141.4,157.8c0.3,0,0.8,0.1,2.5,0.5
	c2.6,0.7,4.4,2.6,4.9,5.1c0,0.1,0.1,2-0.3,2c-0.7-0.2-1-0.9-2.1-1.3c-1.4-0.6-3.2-1.3-4.4-2.4c-0.9-0.9-1.4-1.8-1.6-2.6
	c-0.1-0.8,0.2-0.9,0.8-0.2c1.5,1.2,3,1.6,4.5,2.8c0.4,0.3,1.9,1.2,0.9,0.1c-0.7-0.7-2.7-1.9-3.8-2.5
	C141.3,158.7,140.5,157.8,141.4,157.8L141.4,157.8z M25.3,161.8l17.3,27.1c-4.2,2.3-6.4,3.2-13.4,2.7l0,0.4l-3-0.2
	c5.2,8.1,11.6,18.7,9.8,37.2l21,0c0,0,0.3,0.3,0.4,0.3c0.3,0.2,0.8-0.4,0.8-0.4l9.5,0l0.2,0.3l4.4,0c0,0-20.2-38-30.4-56.9
	C37.7,164.7,33.4,161.3,25.3,161.8L25.3,161.8z M134.2,162.7c1.1,0,2.3,0.8,2.3,2.3c0,0.8-0.7,1.9-0.7,1.9l-1.5-1.5l-1.5,1.5
	c-0.7-0.6-1.1-1.7-0.9-2.4C132.4,163.3,133.4,162.7,134.2,162.7L134.2,162.7z M116.4,163.2c1.5,5.7,3,13.6-9.6,31.8
	c-7.5,10.8-9.9,21-10.3,33.4l-0.8,0c0.4-6.8,0.4-19.2,0.4-19.2l0.7-0.6c0,0-0.3-0.5-0.5-1.1c-0.2-1,0-0.7,0.6-3.5
	C99.5,190.5,116.4,163.2,116.4,163.2L116.4,163.2z M48.6,165.8l64.3,0.3l-0.8,1.7l-62.2-0.5L48.6,165.8z M134.3,166.3l2.4,2.3
	l-2.3,2.6l-2.5-2.6L134.3,166.3z M132.4,167.3l-1.3,1.4l1.1,1.2c-1.2,2.5-4.2,0.5-4.1-1.3C128.1,166.5,130.6,165.6,132.4,167.3
	L132.4,167.3z M136.5,170.1l1-1.3l-1.2-1.3c1.9-1.9,3.7-0.2,3.9,1.4C140.4,170.5,137.8,172.4,136.5,170.1z M60.4,168.5l5.3,0l-2,3.7
	l-5.3,0L60.4,168.5z M72.1,168.5l4.8,0l-2,3.7l-4.9,0L72.1,168.5z M83.5,168.5l5.1,0l-2.1,3.7l-5.3,0L83.5,168.5z M95,168.5l5.2,0
	l-1.9,3.7l-5.4,0L95,168.5z M106.7,168.5l5.1,0l-2,3.7l-5.2,0L106.7,168.5z M50.8,168.5l3.4,0l-1.4,2.5L50.8,168.5z M135.6,170.9
	c2,1.6,0.6,4.1-1.4,4.2c-1.4,0-3.4-2.3-1.2-4.3l1.5,1.3L135.6,170.9z M64.1,172.8l5,0l-1.9,3.4l-4.8,0L64.1,172.8z M75.1,172.9
	l5.4,0l-1.9,3.4l-5.2,0L75.1,172.9z M86.7,172.9l5.4,0l-1.8,3.4l-5.4,0L86.7,172.9z M98.2,172.9l5.4,0l-1.7,3.4l-5.7,0L98.2,172.9z
	 M54.1,173l3.4,0l-1.5,2.7L54.1,173z M56.7,176.9l50.1,0.5l-0.8,1.6l-48,0L56.7,176.9z M58.4,179.8l46.9,0.1l-1.1,2.3l-16.2-0.1
	c-3.2-2.4-6.8-1.3-10.9,0.1c0,0-12.4,0.1-17.3,0L58.4,179.8z M42.8,189.4l24.8,39.2l-5.5-0.1l-23.5-36.9L42.8,189.4z M37.9,191.9
	l23.4,36.7c-1.1,0-2.1,0-3.1,0c0.4-6.8-5-10.1-8.3-10.2c1.9-8-3.9-11.4-7.8-12c1.6-10.4-7-11.9-7.1-11.8c0-0.9-0.1-1.5-0.2-2.2
	L37.9,191.9z M34.1,192.5c0,0.2,0.4,2.3-0.5,1.9l-0.1-1.9L34.1,192.5z M29.2,192.6c0.3,1.4,1,1.7,2,2.6c0,0-1.2,0.2-1.5,0
	c-0.5-0.4-1.6-2.6-1.6-2.6L29.2,192.6z M32.8,194.9c0.6,0,1.1,0.5,1.1,1.1c0,0.6-0.5,1.1-1.1,1.1c-0.6,0-1.1-0.5-1.1-1.1
	C31.7,195.4,32.2,194.9,32.8,194.9z M34.9,195.7c3.1-0.2,7.5,3.1,6.4,9.3c-0.2-0.4-0.4-1.4-1-2.1c-2.1-2.9-4.6,1.1-2.9,2.7
	c0.8,0.8,1.2,1.1,1.1,1.2c-1.9-0.4-3.3,1.3-2.5,3.2c1.3,2.4,3.1,1.1,4.2-0.3c0,0,0.6,2.2,1.3,2.4c1,0.4,2.3-0.1,2.8-1.3
	c0.7-1.8-1-2.2-1.4-3.2c3.6,0.1,8.1,5.3,6,9.9c0.3-1-0.8-3.3-3-2.7c-1.1,0.4-1.4,1.9-0.6,3.5c0.3,0.5,0.4,0.7,0.4,0.7
	s-0.9,0.1-1.2,0.3c-2.8,1.7,0.8,6.4,2.9,3.5c0.2-0.3,0.6-0.8,0.6-0.8c0.3,0.6,0.5,1.6,1.1,1.9c2.6,1.3,3.7-1.4,2.6-2.8
	c-0.6-0.8-1.3-1.6-1.3-1.6c-0.1-0.5,7.7,1.6,6.7,9.2l-20.6,0c1.9-11.7-2.7-25-5.1-29.1l1-1.4c0.3,0.5,0.7,1.8,1.4,2
	c2.4,0.8,3.1-0.9,2.8-2.6C36.6,196.6,35.3,195.9,34.9,195.7L34.9,195.7z M40.4,206.7c0.6,0,1,0.5,1,1c0,0.6-0.5,1-1,1
	c-0.6,0-1-0.5-1-1C39.4,207.2,39.8,206.7,40.4,206.7z M48.1,218.9c0.6,0,1,0.5,1,1c0,0.6-0.5,1-1,1c-0.6,0-1-0.5-1-1
	C47.1,219.3,47.6,218.9,48.1,218.9z"/>
<path d="M130.6,223.1c7.8-0.2,11.3-9,5.5-15.8
	c-0.8-1-0.9-1.6,0.6-0.6c3.9,2.6,11.4,0.9,11.8-7.1c0.5-9.8-13.2-12.7-15.8-2.2c-0.1,1.1-1,1.1-0.8-0.5c0.2-4.2,1.6-8.2,3.4-12.1
	c-3.1,0-6.5,0-9.3,0c1.8,3.9,3.1,7.8,3.4,12.1c0.2,1.6-0.7,1.6-0.8,0.5c-2.6-10.4-16.3-7.6-15.8,2.2c0.4,8,7.9,9.7,11.8,7.1
	c1.5-1,1.5-0.4,0.6,0.6C119.3,214.1,122.8,222.9,130.6,223.1L130.6,223.1L130.6,223.1z"/>
<path d="M48.2,26.6c7.8,0.2,11.3,9,5.5,15.8
	c-0.8,1-0.9,1.6,0.6,0.6c3.9-2.6,11.4-0.9,11.8,7.1c0.5,9.8-13.2,12.7-15.8,2.2c-0.1-1.1-1-1.1-0.8,0.5c0.2,4.2,1.6,8.2,3.4,12.1
	c-3.1,0-6.5,0-9.3,0c1.8-3.9,3.1-7.8,3.4-12.1c0.2-1.6-0.7-1.6-0.8-0.5c-2.6,10.4-16.3,7.6-15.8-2.2c0.4-8,7.9-9.7,11.8-7.1
	c1.5,1,1.5,0.4,0.6-0.6C36.8,35.6,40.3,26.8,48.2,26.6L48.2,26.6L48.2,26.6z"/>
</svg>
