<?xml version="1.0" encoding="utf-8"?>
<!-- Generator: Adobe Illustrator 15.0.2, SVG Export Plug-In . SVG Version: 6.00 Build 0)  -->
<!DOCTYPE svg PUBLIC "-//W3C//DTD SVG 1.1//EN" "http://www.w3.org/Graphics/SVG/1.1/DTD/svg11.dtd">
<svg version="1.1" id="Layer_1" xmlns="http://www.w3.org/2000/svg" xmlns:xlink="http://www.w3.org/1999/xlink" x="0px" y="0px"
	 width="178.7px" height="249.6px" viewBox="0 0 178.7 249.6" enable-background="new 0 0 178.7 249.6" xml:space="preserve">
<g id="path147-0-8-1-6-7-2-5-9-2">
	<path d="M89.4,26.9c-7.8,0.2-11.3,9-5.5,15.8
		c0.8,1,0.9,1.6-0.6,0.6c-3.9-2.6-11.4-0.9-11.8,7.1c-0.5,9.8,13.2,12.7,15.8,2.2c0.1-1.1,1-1.1,0.8,0.5c-0.2,4.2-1.6,8.2-3.4,12.1
		c3.1,0,6.5,0,9.3,0c-1.8-3.9-3.1-7.8-3.4-12.1c-0.2-1.6,0.7-1.6,0.8-0.5c2.6,10.4,16.3,7.6,15.8-2.2c-0.4-8-7.9-9.7-11.8-7.1
		c-1.5,1-1.5,0.4-0.6-0.6C100.7,35.9,97.2,27.1,89.4,26.9L89.4,26.9L89.4,26.9z"/>
</g>
<g id="path147-0-8-1-6-1-4-3-4-3">
	<path d="M89.4,223.4c-7.8-0.2-11.3-9-5.5-15.8
		c0.8-1,0.9-1.6-0.6-0.6c-3.9,2.6-11.4,0.9-11.8-7.1c-0.5-9.8,13.2-12.7,15.8-2.2c0.1,1.1,1,1.1,0.8-0.5c-0.2-4.2-1.6-8.2-3.4-12.1
		c3.1,0,6.5,0,9.3,0c-1.8,3.9-3.1,7.8-3.4,12.1c-0.2,1.6,0.7,1.6,0.8,0.5c2.6-10.4,16.3-7.6,15.8,2.2c-0.4,8-7.9,9.7-11.8,7.1
		c-1.5-1-1.5-0.4-0.6,0.6C100.7,214.5,97.2,223.3,89.4,223.4L89.4,223.4L89.4,223.4z"/>
</g>
<g id="path147-0-8-1-6-1-1-0-4-8-8">
	<path d="M89.4,106c-7.8,0.2-11.3,9-5.5,15.8
		c0.8,1,0.9,1.6-0.6,0.6c-3.9-2.6-11.4-0.9-11.8,7.1c-0.5,9.8,13.2,12.7,15.8,2.2c0.1-1.1,1-1.1,0.8,0.5c-0.2,4.2-1.6,8.2-3.4,12.1
		c3.1,0,6.5,0,9.3,0c-1.8-3.9-3.1-7.8-3.4-12.1c-0.2-1.6,0.7-1.6,0.8-0.5c2.6,10.4,16.3,7.6,15.8-2.2c-0.4-8-7.9-9.7-11.8-7.1
		c-1.5,1-1.5,0.4-0.6-0.6C100.7,115,97.2,106.2,89.4,106L89.4,106L89.4,106z"/>
</g>
<g id="path147-6-9-8-7-0-5-5-1-4">
	<path d="M164.6,209.3c3.1-0.1,4.5-3.7,2.2-6.6
		c-0.3-0.4-0.4-0.7,0.2-0.3c1.6,1.1,4.5,0.4,4.7-2.9c0.2-4.1-5.3-5.3-6.3-0.9c-0.1,0.5-0.4,0.4-0.3-0.2c0.1-1.8,0.6-3.4,1.4-5
		c-1.2,0-2.5,0-3.7,0c0.7,1.6,1.3,3.3,1.4,5c0.1,0.7-0.3,0.7-0.3,0.2c-1-4.4-6.5-3.2-6.3,0.9c0.2,3.3,3.1,4,4.7,2.9
		c0.6-0.4,0.6-0.2,0.2,0.3C160,205.6,161.4,209.3,164.6,209.3L164.6,209.3L164.6,209.3z"/>
</g>
<g id="path147-6-9-8-7-4-5-8-2-3">
	<path d="M14.2,40.4c-3.1,0.1-4.5,3.7-2.2,6.6
		c0.3,0.4,0.4,0.7-0.2,0.3c-1.6-1.1-4.6-0.4-4.7,2.9c-0.2,4.1,5.3,5.3,6.3,0.9c0.1-0.5,0.4-0.4,0.3,0.2c-0.1,1.8-0.6,3.4-1.4,5
		c1.2,0,2.5,0,3.7,0c-0.7-1.6-1.3-3.3-1.4-5c-0.1-0.7,0.3-0.7,0.3-0.2c1,4.4,6.5,3.2,6.3-0.9c-0.2-3.3-3.1-4-4.7-2.9
		c-0.6,0.4-0.6,0.2-0.2-0.3C18.7,44.1,17.3,40.4,14.2,40.4L14.2,40.4L14.2,40.4z"/>
</g>
<g id="path17-9-7-6-4">
	<path d="M5.7,32.1l2-1.5c1.8,2.9,3.7,4.7,6.7,4.4c4.5-0.3,6.4-5,5.4-8.6
		c-0.9-3.2-4.6-4.8-7.6-3.1c-0.7,0.4-1.4,0.7-1.5,0.7c-0.3,0-1-1.4-0.9-1.8c2-2.9,6.8-8,6.8-8H9v3.4H6.1v-6.1h14.8v2.1
		c0,0-4,4.1-5.3,6.4c3.2,0.1,5.8,2.2,6.7,5.4c0.5,1.7,0.3,5.6-0.4,7.3c-1.2,2.8-4.4,5.1-7.4,5.2C9.6,38.2,7,34.7,5.7,32.1L5.7,32.1
		L5.7,32.1z"/>
</g>
<g id="path17-5-0-1-5-7">
	<path d="M173.1,217.6l-2,1.5c-1.8-2.9-3.7-4.7-6.7-4.4c-4.5,0.3-6.4,5-5.4,8.6
		c0.9,3.2,4.6,4.8,7.6,3.1c0.7-0.4,1.4-0.7,1.5-0.7c0.3,0,1,1.4,0.9,1.8c-2,2.9-6.8,8-6.8,8h7.6v-3.4h2.9v6.1h-14.8v-2.1
		c0,0,4-4.1,5.3-6.4c-3.2-0.1-5.8-2.2-6.7-5.4c-0.5-1.7-0.3-5.6,0.4-7.3c1.2-2.8,4.4-5.1,7.4-5.2C169.1,211.5,171.8,215,173.1,217.6
		L173.1,217.6L173.1,217.6z"/>
</g>
</svg>
