<?xml version="1.0" encoding="utf-8"?>
<!-- Generator: Adobe Illustrator 15.0.2, SVG Export Plug-In . SVG Version: 6.00 Build 0)  -->
<!DOCTYPE svg PUBLIC "-//W3C//DTD SVG 1.1//EN" "http://www.w3.org/Graphics/SVG/1.1/DTD/svg11.dtd">
<svg version="1.1" id="Layer_1" xmlns="http://www.w3.org/2000/svg" xmlns:xlink="http://www.w3.org/1999/xlink" x="0px" y="0px"
	 width="178.8px" height="249.7px" viewBox="0 0 178.8 249.7" enable-background="new 0 0 178.8 249.7" xml:space="preserve">
<g id="path147-0-8-1-6-13-2-9-8-8">
	<path d="M130.7,26.9c-7.8,0.2-11.3,9-5.5,15.8
		c0.8,1,0.9,1.6-0.6,0.6c-3.9-2.6-11.4-0.9-11.8,7.1c-0.5,9.8,13.3,12.7,15.8,2.2c0.1-1.1,1-1.1,0.8,0.5c-0.2,4.2-1.6,8.2-3.4,12.1
		c3.1,0,6.5,0,9.3,0c-1.8-3.9-3.1-7.8-3.4-12.1c-0.2-1.6,0.7-1.6,0.8-0.5c2.6,10.4,16.3,7.6,15.8-2.2c-0.4-8-7.9-9.7-11.8-7.1
		c-1.5,1-1.5,0.4-0.6-0.6C142,35.9,138.5,27.1,130.7,26.9L130.7,26.9L130.7,26.9z"/>
</g>
<g id="path147-0-8-1-6-75-2-83-3-5-0">

		<path transform-center-y="0.35355339" transform-center-x="-110.30866" d="
		M48.2,26.9c-7.8,0.2-11.3,9-5.5,15.8c0.8,1,0.9,1.6-0.6,0.6c-3.9-2.6-11.4-0.9-11.8,7.1c-0.5,9.8,13.2,12.7,15.8,2.2
		c0.1-1.1,1-1.1,0.8,0.5c-0.2,4.2-1.6,8.2-3.4,12.1c3.1,0,6.5,0,9.3,0c-1.8-3.9-3.1-7.8-3.4-12.1c-0.2-1.6,0.7-1.6,0.8-0.5
		C52.8,63,66.5,60.2,66,50.4c-0.4-8-7.9-9.7-11.8-7.1c-1.5,1-1.5,0.4-0.6-0.6C59.6,35.9,56.1,27.1,48.2,26.9L48.2,26.9L48.2,26.9z"
		/>
</g>
<g id="path147-0-8-1-6-7-5-5-7-63-0-4">
	<path d="M130.7,223.4c-7.8-0.2-11.3-9-5.5-15.8
		c0.8-1,0.9-1.6-0.6-0.6c-3.9,2.6-11.4,0.9-11.8-7.1c-0.5-9.8,13.3-12.7,15.8-2.2c0.1,1.1,1,1.1,0.8-0.5c-0.2-4.2-1.6-8.2-3.4-12.1
		c3.1,0,6.5,0,9.3,0c-1.8,3.9-3.1,7.8-3.4,12.1c-0.2,1.6,0.7,1.6,0.8,0.5c2.6-10.4,16.3-7.6,15.8,2.2c-0.4,8-7.9,9.7-11.8,7.1
		c-1.5-1-1.5-0.4-0.6,0.6C142,214.5,138.5,223.3,130.7,223.4L130.7,223.4L130.7,223.4z"/>
</g>
<g id="path147-0-8-1-6-75-6-1-2-46-5-0">

		<path transform-center-y="-0.35355495" transform-center-x="-110.30866" d="
		M48.2,223.4c-7.8-0.2-11.3-9-5.5-15.8c0.8-1,0.9-1.6-0.6-0.6c-3.9,2.6-11.4,0.9-11.8-7.1c-0.5-9.8,13.2-12.7,15.8-2.2
		c0.1,1.1,1,1.1,0.8-0.5c-0.2-4.2-1.6-8.2-3.4-12.1c3.1,0,6.5,0,9.3,0c-1.8,3.9-3.1,7.8-3.4,12.1c-0.2,1.6,0.7,1.6,0.8,0.5
		c2.6-10.4,16.3-7.6,15.8,2.2c-0.4,8-7.9,9.7-11.8,7.1c-1.5-1-1.5-0.4-0.6,0.6C59.6,214.5,56.1,223.3,48.2,223.4L48.2,223.4
		L48.2,223.4z"/>
</g>
<g id="path147-0-8-1-6-1-1-0-5-61-2-0">
	<path d="M89.5,106c-7.8,0.2-11.3,9-5.5,15.8
		c0.8,1,0.9,1.6-0.6,0.6c-3.9-2.6-11.4-0.9-11.8,7.1c-0.5,9.8,13.2,12.7,15.8,2.2c0.1-1.1,1-1.1,0.8,0.5c-0.2,4.2-1.6,8.2-3.4,12.1
		c3.1,0,6.5,0,9.3,0c-1.8-3.9-3.1-7.8-3.4-12.1c-0.2-1.6,0.7-1.6,0.8-0.5c2.6,10.4,16.3,7.6,15.8-2.2c-0.4-8-7.9-9.7-11.8-7.1
		c-1.5,1-1.5,0.4-0.6-0.6C100.8,115,97.3,106.2,89.5,106L89.5,106L89.5,106z"/>
</g>
<g id="path147-6-9-8-7-0-5-6-5-2-8">
	<path d="M164.6,209.3c3.1-0.1,4.5-3.7,2.2-6.6
		c-0.3-0.4-0.4-0.7,0.2-0.3c1.6,1.1,4.6,0.4,4.7-2.9c0.2-4.1-5.3-5.3-6.3-0.9c-0.1,0.5-0.4,0.4-0.3-0.2c0.1-1.8,0.6-3.4,1.4-5
		c-1.2,0-2.5,0-3.7,0c0.7,1.6,1.3,3.3,1.4,5c0.1,0.7-0.3,0.7-0.3,0.2c-1-4.4-6.5-3.2-6.3,0.9c0.2,3.3,3.1,4,4.7,2.9
		c0.6-0.4,0.6-0.2,0.2,0.3C160.1,205.6,161.5,209.2,164.6,209.3L164.6,209.3L164.6,209.3z"/>
</g>
<g id="path147-0-8-1-6-75-2-9-77-4-4-2">

		<path transform-center-y="0.35355339" transform-center-x="-110.30866" d="
		M48.2,79.7c-7.8,0.2-11.3,9-5.5,15.8c0.8,1,0.9,1.6-0.6,0.6c-3.9-2.6-11.4-0.9-11.8,7.1c-0.5,9.8,13.2,12.7,15.8,2.2
		c0.1-1.1,1-1.1,0.8,0.5c-0.2,4.2-1.6,8.2-3.4,12.1c3.1,0,6.5,0,9.3,0c-1.8-3.9-3.1-7.8-3.4-12.1c-0.2-1.6,0.7-1.6,0.8-0.5
		c2.6,10.4,16.3,7.6,15.8-2.2c-0.4-8-7.9-9.7-11.8-7.1c-1.5,1-1.5,0.4-0.6-0.6C59.6,88.6,56.1,79.8,48.2,79.7L48.2,79.7L48.2,79.7z"
		/>
</g>
<g id="path147-0-8-1-6-75-2-8-0-6-4-4">

		<path transform-center-y="-0.35355495" transform-center-x="-110.30866" d="
		M48.2,170.7c-7.8-0.2-11.3-9-5.5-15.8c0.8-1,0.9-1.6-0.6-0.6c-3.9,2.6-11.4,0.9-11.8-7.1c-0.5-9.8,13.2-12.7,15.8-2.2
		c0.1,1.1,1,1.1,0.8-0.5c-0.2-4.2-1.6-8.2-3.4-12.1c3.1,0,6.5,0,9.3,0c-1.8,3.9-3.1,7.8-3.4,12.1c-0.2,1.6,0.7,1.6,0.8,0.5
		c2.6-10.4,16.3-7.6,15.8,2.2c-0.4,8-7.9,9.7-11.8,7.1c-1.5-1-1.5-0.4-0.6,0.6C59.6,161.7,56.1,170.5,48.2,170.7L48.2,170.7
		L48.2,170.7z"/>
</g>
<g id="path147-0-8-1-6-75-2-9-7-1-36-2-4">

		<path transform-center-y="0.35355339" transform-center-x="-110.30866" d="
		M130.7,79.7c-7.8,0.2-11.3,9-5.5,15.8c0.8,1,0.9,1.6-0.6,0.6c-3.9-2.6-11.4-0.9-11.8,7.1c-0.5,9.8,13.3,12.7,15.8,2.2
		c0.1-1.1,1-1.1,0.8,0.5c-0.2,4.2-1.6,8.2-3.4,12.1c3.1,0,6.5,0,9.3,0c-1.8-3.9-3.1-7.8-3.4-12.1c-0.2-1.6,0.7-1.6,0.8-0.5
		c2.6,10.4,16.3,7.6,15.8-2.2c-0.4-8-7.9-9.7-11.8-7.1c-1.5,1-1.5,0.4-0.6-0.6C142,88.6,138.5,79.8,130.7,79.7L130.7,79.7
		L130.7,79.7z"/>
</g>
<g id="path147-0-8-1-6-75-2-8-5-1-55-5-4">

		<path transform-center-y="-0.35355495" transform-center-x="-110.30866" d="
		M130.7,170.7c-7.8-0.2-11.3-9-5.5-15.8c0.8-1,0.9-1.6-0.6-0.6c-3.9,2.6-11.4,0.9-11.8-7.1c-0.5-9.8,13.3-12.7,15.8-2.2
		c0.1,1.1,1,1.1,0.8-0.5c-0.2-4.2-1.6-8.2-3.4-12.1c3.1,0,6.5,0,9.3,0c-1.8,3.9-3.1,7.8-3.4,12.1c-0.2,1.6,0.7,1.6,0.8,0.5
		c2.6-10.4,16.3-7.6,15.8,2.2c-0.4,8-7.9,9.7-11.8,7.1c-1.5-1-1.5-0.4-0.6,0.6C142,161.7,138.5,170.5,130.7,170.7L130.7,170.7
		L130.7,170.7z"/>
</g>
<g id="path147-6-9-8-7-4-5-62-7-8-4">
	<path d="M14.3,40.4c-3.1,0.1-4.5,3.7-2.2,6.6
		c0.3,0.4,0.4,0.7-0.2,0.3c-1.6-1.1-4.6-0.4-4.7,2.9c-0.2,4.1,5.3,5.3,6.3,0.9c0.1-0.5,0.4-0.4,0.3,0.2c-0.1,1.8-0.6,3.4-1.4,5
		c1.2,0,2.5,0,3.7,0c-0.7-1.6-1.3-3.3-1.4-5c-0.1-0.7,0.3-0.7,0.3-0.2c1,4.4,6.5,3.2,6.3-0.9c-0.2-3.3-3.1-4-4.7-2.9
		C16,47.7,16,47.5,16.4,47C18.8,44.1,17.4,40.4,14.3,40.4L14.3,40.4L14.3,40.4z"/>
</g>
<g id="path29-2-3-4">
	<path d="M6.9,32.8L9.3,32c0.9,2.4,2.7,3.1,4.7,3c3.5-0.3,4.6-4.2,4.9-7.6
		c-1.4,1.4-3.4,2.2-5.1,2.1c-5.5-0.3-7-4.7-7-9.4C6.6,16.2,8.3,13.3,11,12c1.5-0.7,4.8-0.7,6.3,0.1c3.4,1.8,4.7,4.9,4.4,12.3
		c0,6.1-1.3,13.2-7.8,13.3C10.2,38.3,7.3,35.4,6.9,32.8L6.9,32.8L6.9,32.8z M16.4,26.1c1.1-0.7,1.8-1.4,2.3-2.4
		c0.4-0.8,0.6-1.3,0.4-3c-0.3-4.4-2.6-6.9-6-6.4c-1.9,0.3-2.9,1.3-3.5,3.3c-1.1,3.6,0.3,7.8,2.9,8.8C13.7,26.8,15.5,26.7,16.4,26.1
		L16.4,26.1z"/>
</g>
<g id="path29-6-1-3-7">
	<path d="M172,216.9l-2.4,0.8c-0.9-2.4-2.7-3.1-4.7-3c-3.5,0.3-4.6,4.2-4.9,7.6
		c1.4-1.4,3.4-2.2,5.1-2.1c5.5,0.3,7,4.7,7,9.4c0.2,3.9-1.5,6.8-4.2,8.1c-1.5,0.7-4.8,0.7-6.3-0.1c-3.4-1.8-4.7-4.9-4.4-12.3
		c0-6.1,1.3-13.2,7.8-13.3C168.7,211.4,171.6,214.3,172,216.9L172,216.9L172,216.9z M162.5,223.6c-1.1,0.7-1.8,1.4-2.3,2.4
		c-0.4,0.8-0.6,1.3-0.4,3c0.3,4.4,2.6,6.9,6,6.4c1.9-0.3,2.9-1.3,3.5-3.3c1.1-3.6-0.3-7.8-2.9-8.8
		C165.2,222.9,163.5,223,162.5,223.6L162.5,223.6z"/>
</g>
</svg>
