<?xml version="1.0" encoding="utf-8"?>
<!-- Generator: Adobe Illustrator 15.0.2, SVG Export Plug-In . SVG Version: 6.00 Build 0)  -->
<!DOCTYPE svg PUBLIC "-//W3C//DTD SVG 1.1//EN" "http://www.w3.org/Graphics/SVG/1.1/DTD/svg11.dtd">
<svg version="1.1" id="Layer_1" xmlns="http://www.w3.org/2000/svg" xmlns:xlink="http://www.w3.org/1999/xlink" x="0px" y="0px"
	 width="178.7px" height="249.6px" viewBox="0 0 178.7 249.6" enable-background="new 0 0 178.7 249.6" xml:space="preserve">
<path fill="#D40000" d="M14.1,56.2c-1.7-2.9-3.5-5.6-5.8-8c2.3-2.4,4.1-5.1,5.8-8
	c1.7,2.9,3.5,5.6,5.8,8C17.7,50.5,15.9,53.3,14.1,56.2z"/>
<path fill="#D40000" d="M130.6,64.8c-4.1-6.9-8.5-13.5-13.9-19.1c5.5-5.7,9.8-12.3,13.9-19.1
	c4.1,6.9,8.5,13.5,13.9,19.1C139.1,51.2,134.7,57.9,130.6,64.8z"/>
<path fill="#D40000" d="M164.6,209.2c-1.7-2.9-3.5-5.6-5.8-8c2.3-2.4,4.1-5.1,5.8-8
	c1.7,2.9,3.5,5.6,5.8,8C168,203.5,166.3,206.3,164.6,209.2z"/>
<path fill="#D40000" d="M48.1,64.8c-4.1-6.9-8.5-13.5-13.9-19.1c5.5-5.7,9.8-12.3,13.9-19.1
	C52.2,33.4,56.5,40,62,45.7C56.5,51.2,52.3,57.9,48.1,64.8z"/>
<path fill="#D40000" d="M130.6,117.5c-4.1-6.9-8.5-13.5-13.9-19.1c5.5-5.7,9.8-12.3,13.9-19.1
	c4.1,6.9,8.5,13.5,13.9,19.1C139.1,104.1,134.7,110.6,130.6,117.5z"/>
<path fill="#D40000" d="M48.1,117.5c-4.1-6.9-8.5-13.5-13.9-19.1c5.5-5.7,9.8-12.3,13.9-19.1
	c4.1,6.9,8.5,13.5,13.9,19.1C56.5,104.1,52.3,110.6,48.1,117.5z"/>
<path fill="#D40000" d="M89.3,143.8c-4.1-6.9-8.5-13.5-13.9-19.1c5.5-5.7,9.8-12.3,13.9-19.1
	c4.1,6.9,8.5,13.5,13.9,19.1C97.9,130.4,93.5,137.1,89.3,143.8z"/>
<path fill="#D40000" d="M48.1,223c-4.1-6.9-8.5-13.5-13.9-19.1c5.5-5.7,9.8-12.3,13.9-19.1
	c4.1,6.9,8.5,13.5,13.9,19.1C56.5,209.5,52.3,216.1,48.1,223z"/>
<path fill="#D40000" d="M130.6,223c-4.1-6.9-8.5-13.5-13.9-19.1c5.5-5.7,9.8-12.3,13.9-19.1
	c4.1,6.9,8.5,13.5,13.9,19.1C139.1,209.5,134.7,216.2,130.6,223z"/>
<path fill="#D40000" d="M130.6,170.3c-4.1-6.9-8.5-13.5-13.9-19.1c5.5-5.7,9.8-12.3,13.9-19.1
	c4.1,6.9,8.5,13.5,13.9,19.1C139.1,156.8,134.7,163.4,130.6,170.3z"/>
<path fill="#D40000" d="M48.1,170.3c-4.1-6.9-8.5-13.5-13.9-19.1c5.5-5.7,9.8-12.3,13.9-19.1
	c4.1,6.9,8.5,13.5,13.9,19.1C56.5,156.7,52.3,163.4,48.1,170.3z"/>
<path fill="#D40000" d="M6.9,32.7l2.4-0.8c0.9,2.4,2.8,3.2,4.7,3c3.5-0.3,4.7-4.2,4.9-7.6
	c-1.4,1.4-3.4,2.2-5.2,2.1c-5.6-0.3-7-4.8-7.1-9.4c-0.2-3.9,1.5-6.8,4.3-8.1c1.5-0.7,4.9-0.7,6.4,0.1c3.4,1.8,4.7,4.9,4.5,12.3
	c0,6.1-1.3,13.2-7.9,13.4C10.1,38.2,7.2,35.3,6.9,32.7L6.9,32.7L6.9,32.7z M16.2,26c1.1-0.7,1.8-1.4,2.3-2.4c0.4-0.8,0.6-1.3,0.4-3
	c-0.3-4.4-2.6-6.9-6-6.4c-1.9,0.3-2.9,1.3-3.5,3.3c-1.1,3.6,0.3,7.8,2.9,8.8C13.5,26.7,15.3,26.6,16.2,26L16.2,26z"/>
<path fill="#D40000" d="M171.8,216.8l-2.4,0.8c-0.9-2.4-2.8-3.2-4.7-3c-3.5,0.3-4.7,4.2-4.9,7.6
	c1.4-1.4,3.4-2.2,5.2-2.1c5.6,0.3,7,4.8,7.1,9.4c0.2,3.9-1.5,6.8-4.3,8.1c-1.5,0.7-4.9,0.7-6.4-0.1c-3.4-1.8-4.7-4.9-4.5-12.3
	c0-6.1,1.3-13.2,7.9-13.4C168.6,211.2,171.5,214.2,171.8,216.8L171.8,216.8L171.8,216.8z M162.5,223.5c-1.1,0.7-1.8,1.4-2.3,2.4
	c-0.4,0.8-0.6,1.3-0.4,3c0.3,4.4,2.6,6.9,6,6.4c1.9-0.3,2.9-1.3,3.5-3.3c1.1-3.6-0.3-7.8-2.9-8.8
	C165.2,222.8,163.4,222.9,162.5,223.5L162.5,223.5L162.5,223.5z"/>
</svg>
