<?xml version="1.0" encoding="utf-8"?>
<!-- Generator: Adobe Illustrator 15.0.2, SVG Export Plug-In . SVG Version: 6.00 Build 0)  -->
<!DOCTYPE svg PUBLIC "-//W3C//DTD SVG 1.1//EN" "http://www.w3.org/Graphics/SVG/1.1/DTD/svg11.dtd">
<svg version="1.1" id="Layer_1" xmlns="http://www.w3.org/2000/svg" xmlns:xlink="http://www.w3.org/1999/xlink" x="0px" y="0px"
	 width="178.7px" height="249.6px" viewBox="0 0 178.7 249.6" enable-background="new 0 0 178.7 249.6" xml:space="preserve">
<path fill="#D40000" d="M14.5,56.2c-1.7-2.9-3.5-5.6-5.8-8c2.3-2.4,4.1-5.1,5.8-8
	c1.7,2.9,3.5,5.6,5.8,8C18,50.5,16.2,53.3,14.5,56.2z"/>
<path fill="#D40000" d="M164.2,209.2c-1.7-2.9-3.5-5.6-5.8-8c2.3-2.4,4.1-5.1,5.8-8
	c1.7,2.9,3.5,5.6,5.8,8C167.7,203.5,165.9,206.3,164.2,209.2z"/>
<path fill="#D40000" d="M48.3,64.8c-4.1-6.9-8.5-13.5-13.9-19.1c5.5-5.7,9.8-12.3,13.9-19.1
	c4.1,6.9,8.5,13.5,13.9,19.1C56.7,51.2,52.5,57.9,48.3,64.8z"/>
<path fill="#D40000" d="M130.4,223c-4.1-6.9-8.5-13.5-13.9-19.1c5.5-5.7,9.8-12.3,13.9-19.1
	c4.1,6.9,8.5,13.5,13.9,19.1C138.9,209.5,134.5,216.2,130.4,223z"/>
<path d="
	M24.3,229.7V19.8h130v209.8H24.3z M71.1,54.7c-4.7-1.3-4.6,3.4-1.1,3.5c3.8,0.3,5.5-6.2,3.6-8.8C73.7,49.4,72.1,54.4,71.1,54.7z
	 M40.9,80.8l-5.6,2.5v4.2C37.7,85.6,39.5,83.4,40.9,80.8L40.9,80.8z M79,206.3c-1.1-0.6-2.4-1.8-2.2-2c0.1-0.1,0.7,0.1,1.2,0.3
	c4.4,1.8,7.8,1.7,12.9-0.2c0.4-0.1,1,0.6,0.8,1C89.5,209,82,207.7,79,206.3L79,206.3z M76.8,201.3c-1-1.5,0.3-0.4,0.8,0.1
	c3.2,3,7.6,4,11.3,1.2c0.2-0.2,0.2-0.4,0.1-0.5c-0.1-0.3-0.1,0-1.7,0.6c-3.6,1.4-6.7,0.2-9.6-2c-1.2-0.9-1.8-1.4-1.8-1.7
	c0-0.2,0.2-0.4,0.6-0.3c0.3,0,1,0.2,1.5,0.2c0.9,0.1,0.8,0,1.8-0.4c2-0.9,3.8-1.3,5.9-0.9c0.5,0.1,1.1,0.2,1.2,0.2
	c0.5-0.2-0.2-0.8-2-2.2c-0.3-0.3-0.8-0.5-0.9-0.7c-0.2-0.4,0-0.5,0.3-0.5c0.7,0,4,2.7,5.1,4.3c0.3,0.5,0.6,0.5,0.6,1.1
	c-0.1,0.5-0.2,1,0.4,1.8c0.4,0.5,0.8,1.4,0.8,1.4s-0.1,0.3-0.5,0.1c-0.2,0-0.3-0.2-0.6-0.2s-0.7,0.3-1.2,0.5
	C84.3,206.2,80.1,204.8,76.8,201.3L76.8,201.3z M86.7,201.1c0.1,0-0.3-1.7-0.8-2.2c-0.9-1-2.3-1.2-3.1-0.2c-0.5,0.6-1,2.1-1,2.1
	s0.7,0.2,0.9,0.2c0-0.4,0-1.3,0.8-1.9c0.4-0.3,1.1-0.3,1.4,0c0.6,0.3,0.8,1.5,0.9,1.9C86.1,201.2,86.8,201.1,86.7,201.1L86.7,201.1z
	 M81.2,198.6c-0.6,0.3-1.5,0.5-1.7,0.9c-0.3,0.6,0.6,0.7,1.1,0.9c0.6,0.3,0.7,0.2,0.9-0.3c0.1-0.3,0.3-0.7,0.5-1.1
	C82.4,198.2,81.9,198.3,81.2,198.6z M88.1,200.3c0.4-0.4,0.4-0.6,0.1-1c-0.1-0.2-0.6-0.4-1-0.5c-0.6-0.2-0.9-0.4-0.5,0.4l0.5,1.2
	C87.5,200.7,87.8,200.6,88.1,200.3z M27.7,161.1c0.2,0,2.5-0.7,3.3-1.1c0.8-0.3,0.9-0.3,0.6-0.7c-0.1-0.2-0.2-0.6-0.2-1.1l0.1-0.7
	c-1.4-0.3-3.4,0.5-4.1,1.4C26.8,159.5,26.9,160.8,27.7,161.1L27.7,161.1z M27.5,164.5c0.4,0.4,0.5,0.4,1.8,0c0.4-0.3,1.4-0.7,2-0.7
	c1.5-0.4,1.5-0.2,1.1-1.2c-0.2-0.4-0.3-0.8-0.2-1.2c0.1-0.5,0.1-0.6-0.1-0.6c-0.7-0.2-4.1,1-4.7,2C26.9,163.4,26.9,164,27.5,164.5z
	 M105.5,197.7c0.1,0.8,0.1,2,0.1,2.6c0,1.3,0.5,1.6,1,0.9c0.5-1.6,0.7-4.2,2-5.6c0.9-0.3,2.1,0.2,2.8-0.4c1.5-1.5,0.3-3.2-1.1-3.3
	C107.4,191.8,105.3,195.3,105.5,197.7z M112.5,193.6c0.1,1.6-1.5,2.7-3.1,2.3c-0.7-0.2-0.9,0-1.3,0.9c-1,2.6-1.3,5.1-1.6,6.8
	c-0.1,1.5-0.7,5.5-0.3,6.7c4.6,5.7,9.5,11.6,14.7,17.4h31.6v-37.2l-9.1-8.7v-13.8c-9.8,4.6-19.5,9.3-29.4,14
	c2.1,6.9-5.1,8.3-6.7,3.7c-1.4,1.3-2.5,8.1-2,8.4c0,0,0.2,0.2,0.5-0.3c0.5-0.9,1.2-1.5,1.9-2C110,190.8,112.4,191.4,112.5,193.6z
	 M87.5,192.9c-1.6-1.2-0.7-3.1,0.6-3.7c0.7-0.3,1.8-0.3,3,0.2c1.1,0.5,1.7,0.4,2.8,0.3c0.7-0.1,0.6,1.4-0.2,1.8
	c-0.5,0.3-1.7,0.1-3.2-0.7c-2.6-1.5-3.7,0.4-2.1,2.1C89.2,193.9,87.7,193.1,87.5,192.9L87.5,192.9z M35.1,170.5
	c1.4-0.9,0.8-2.4-0.5-2.7c-1.7,0-2.1,2-0.9,2.7c0,0.2-0.6,0-0.9-0.2c-0.5-0.4,0-1.9-0.5-1.9c-0.4,0-3.9,1.3-4.3,1.5
	c-1.6,0.9-0.1,2.9,0.8,2.7C30.8,171.9,33.3,171.5,35.1,170.5z M27.3,167.6c0,0.9,0.3,1.3,0.9,1.3c1.2-0.2,2.4-0.8,3.6-1.2
	c0.9-0.3,1.3-0.6,0.6-1.2c-0.2-0.2-0.4-0.6-0.3-1.2c0.2-0.7,0.1-0.8-0.3-0.8c-0.3,0-1,0.3-2.9,1c-1,0.4-1.2,0.5-1.4,1.1
	C27.3,166.9,27.3,167.1,27.3,167.6L27.3,167.6z M37.5,179.2c0.2-0.3,0.7-1.8,0.7-2.2c-0.1-0.7-0.6-0.8-1-0.4
	c-0.5,0.5-0.4,1.2-0.7,1.7c-0.1,0.2-0.2,0.4-0.2,0.6C36.5,179.4,37.2,179.5,37.5,179.2L37.5,179.2z M41.6,170.7
	c15.8-16.8,25.6-40.2,8.5-72.3c-1.1-1-2.5,2.3-2.7,2.4l-2.2,1.9c11.5,20,9.6,43-4.6,59.4v1c0,2.3,0.7,2.2,1.7,1.1
	c1-1.1,0.3-0.2-0.1,0.2c-0.4,0.4-0.9,1.1-1.1,1.3C41.2,167.2,42.1,169.7,41.6,170.7L41.6,170.7z M40.5,165.6
	c-0.2-0.5-0.3-1.5-0.4-2.3c-0.1-0.5-0.1-1-0.1-1.5c-0.2-1-0.6-3.3-0.9-3.9c-0.4-0.6-1.2-1-2.2-1c-0.8-0.1-0.9,0-1.1,0.2
	c-0.3,0.5-0.1,2.9,0.2,3.7c0.4,1,0.1,1.6-0.1,2.6c-0.1,0.4-0.1,0.4,0,0.4c0.8-0.1,1.1-1,1.4-0.7c0.1,0.1-0.2,0.9-0.5,1.7
	c-0.4,0.8-0.5,2,0,3.5c0.3,0.8,0.1,1.1,0,1.5c-0.1,0.3-0.3,1.3-0.3,2.3c0.4,1.2,0.2,1.8,0,2.2c-0.5,1.1-0.8,2.5-0.6,3.3
	c0.1,0.4,0.4,0.1,0.6-0.6c0.3-1.2,0.7-1.5,1.7-1.5c0.7,0,0.8,0.2,1-0.1c0.5-0.7,1.8-3.3,1.9-4C41.4,169.7,41.4,168.2,40.5,165.6
	L40.5,165.6z M48.1,177.4c0.4-0.2,1.1-1.1,1.1-1.4s-2.7-2.9-3.8-3.6c-0.5-0.3-0.7-0.1-1.6,1.1c-0.8,1.1-0.9,1.1-0.7,1.3
	c0.2,0.2,2.9,2,3.8,2.5C47.1,177.5,47.7,177.6,48.1,177.4L48.1,177.4z M53.1,172.8c-0.4-0.3-3.6-3.8-4.5-4c-0.4-0.1-1.5,1.2-1.5,1.5
	c0,0.2,2,2.2,3.4,3.5c0.4,0.4,0.8,0.6,1,0.6C51.9,174.2,53,173.3,53.1,172.8z M56.3,169.6c0-0.2-0.4-0.6-1.2-1.5
	c-2.2-2.1-3.4-3.1-3.8-3.1c-0.4,0.1-1.2,1.4-1.2,1.9c0.1,0.3,3.8,3.6,4.3,3.9C55.1,171.3,56.3,170,56.3,169.6L56.3,169.6z
	 M59.8,166.2c0.1-0.3-0.1-0.6-0.6-1c-0.3-0.3-1.5-1.5-2.6-2.5c-2.3-2.3-2.3-2.3-3-1.2c-0.8,1.1-0.8,1.1,1.5,3.3
	c2.4,2.3,2.9,2.8,3.3,2.8C59,167.2,59.6,166.8,59.8,166.2z M34.3,164.1c-0.4-0.1-0.8-0.1-1.1,0.2c-1.7,1.4,0.7,3.3,1.7,2.1
	C35.6,165.8,35.5,164.4,34.3,164.1L34.3,164.1z M63.3,162.6c0-0.2-0.5-0.8-2.2-2.4c-4.2-4-4-3.9-4.5-3.6c-0.3,0.2-0.9,1.2-0.9,1.6
	c0,0.3,0.4,0.7,3.5,3.6c1.8,1.7,2.4,2.1,2.7,2.1C62.5,163.8,63.3,163.2,63.3,162.6L63.3,162.6z M34.4,162.8c0.8-0.4,1-1.3,0.5-2
	c-0.9-0.8-2.2-0.1-2.2,0.9C33,162.7,33.7,163.1,34.4,162.8z M66.8,159.2c0-0.5-7.2-7.2-7.7-7.2c-0.3,0-0.6,0.3-0.9,1
	c-0.3,0.7-0.3,1.1,0.1,1.4c0.5,0.5,1.9,1.8,3.2,3c0.8,0.7,1.7,1.6,2,1.9c0.7,0.8,1.6,1.4,1.9,1.4C65.7,160.4,66.4,160.1,66.8,159.2
	L66.8,159.2z M34,158.4c0-0.3-0.1-0.5-0.3-0.8c-0.5-0.5-1.4-0.3-1.6,0.4C32,159.7,34,159.8,34,158.4z M39.4,106l1.4-4.3l4.3-0.1
	l0.6-4.3l4.4-0.6l0.1-4.4l4.3-0.6l-0.3-4.8L58,86l-0.2-4.4l3.6-1.1l-0.1-3.8l0.6-0.5l-1.5-1.6l-1.3,0.4v3.9l-3.6,1.2l0.4,4.4
	l-3.6,0.8V90l-4.2,0.5l-0.3,4.2l-4.1,0.8l-0.6,4.1l-3.9,0.3l-1.2,3.6h-2.6v2.4L39.4,106z M86.1,183c-0.1-0.3,0.2-0.3,0.8,0.1
	c0.6,0.4,1.6,0.7,2.3,0.7c0.3,0,1.3-0.2,2.2-0.4c1.1-0.4,2.1-0.4,3.3-0.2c0.9,0.1,1.7,0.2,1.9,0.2c0.6,0.1,1.6-0.6,1.8-1.1
	c0.7-1.2,0.5,1,0.5,1.2c0,1.1,0.2,2.4-0.7,1.8c-0.5-0.2-1.3-0.5-2,0c-0.7,0.5-1.2,0.5-2,0.1c-0.6-0.3-1-0.3-1.5,0.1
	c-0.5,0.5-1.9,0.3-2.6,0.1c-1.2-0.2-1.9-0.4-2.7,0.3c-0.4,0.2-0.5,0.1-0.9-0.9C86.5,184.2,86.2,183.1,86.1,183L86.1,183z
	 M89.2,182.2c-0.1-0.1,0.6-0.8,1-1c1.3-0.7,3.8-0.6,5.7,0c1,0.4,1.1,1,0.2,0.8c-1.9-0.4-4.3-0.7-6.2,0.1
	C89.7,182.3,89.3,182.3,89.2,182.2L89.2,182.2z M90.8,179.2c-1.3-0.5-2-1-2-1.2s0.3-0.1,1.3,0.1c1.4,0.5,3.1,0.8,4.5,0.3
	c1-0.4,1.5-0.6,1.5-0.4s-0.4,0.8-1.1,1.2C93.7,179.8,91.9,179.6,90.8,179.2z M119.3,175.5l1-0.1l-0.3-4.1l3.6-1.1l-0.3-4.1l3.8-1.3
	l-0.2-4.6l4-0.8l0.5-4l3.8-0.3l0.8-4.3l4-0.1l0.8-3.6h2.7v-2h-4.2l-0.9,3.9l-4,0.1l-0.8,4.3h-4.1l-0.5,4.6l-3.9,0.6v5l-3.8,1
	l0.3,4.3l-3.8,1.4l0.4,4.1L119.3,175.5z M144.4,80.1c-0.5,0.4-0.7,1.1-0.6,1.8c0.5,1.4,2.4,1,2.6-0.1c0.1-0.4-0.2-1.1-0.7-1.3
	c-0.1,0-0.4,0-0.6-0.2c-0.1-0.1,0.6-0.5,1.1-0.4c0.5,0.2,1,0.9,1,1.5c0,0.2-0.1,0.6,0,0.7c0.9,0,1.9-0.5,2.9-0.8
	c1.6-0.5,2.2-1.4,1.9-2.5c-0.3-0.9-1.2-1.3-2.5-0.8C147.7,78.8,145.7,79.1,144.4,80.1L144.4,80.1z M74.9,180
	c5.5-3.9,8.8-6.1,15.8-6.5c-2.5-1-2.9-2.4-3.7-3.7c-8.8,0.8-13.4,3.6-17.5,6.3C71.2,176.8,73,177.8,74.9,180z M105.6,174.6
	c-2.7-1.9-5.9-3-9.2-3.9l-2.5,2.6C93.8,173.2,101.2,173.3,105.6,174.6L105.6,174.6z M131.2,149.7c-17.2-26.5-5.7-49.8,6.4-64.7
	c0.4-0.5,0.5-0.5,0.4-0.9c-0.1-0.5-0.3-3.1-0.2-4.6c-22.1,22-22.7,50.6-8.9,73.4C129.9,152,131.9,150.8,131.2,149.7L131.2,149.7z
	 M133.8,147.4c-2.8-4.7-17.9-30.3,5.1-58.8c0,0-0.1-1.5-0.3-2c-0.3-1-0.8-1.4-0.8-1.4c-9.7,14.6-23.7,32.7-6.2,64.3L133.8,147.4z
	 M120.7,99.4c0.3-0.3,0.8-1.3,0.8-1.7s-0.3-0.7-2.9-3.3c-3.5-3.5-4.1-4.1-4.5-4.1s-1.5,1-1.5,1.4c0,0.2,1,1.3,3.4,3.7
	C120.5,99.9,120.3,99.7,120.7,99.4L120.7,99.4z M123.8,92.9c0-0.2-0.3-0.6-1.1-1.4c-2-2.1-4.9-4.7-5.1-4.7c-0.3,0-1.2,0.7-1.4,1.2
	c-0.2,0.3-0.2,0.4,0,0.7c0.4,0.6,4.8,4.8,6.1,5.9C123.1,95.2,123.7,93.4,123.8,92.9L123.8,92.9z M125.5,90.3c0.4-0.2,1-1.4,0.9-1.8
	c0-0.2-1.2-1.4-2.5-2.7c-2.7-2.7-2.8-2.8-3.5-2.2c-0.6,0.5-1,1.1-0.9,1.3c0.1,0.3,4.1,4.3,4.9,5C125.1,90.4,125.2,90.4,125.5,90.3z
	 M145.8,90.1c1.3-1.2-0.2-2.5-1.2-1.9c-0.4,0.3-0.7,0.9-0.6,1.3C144.4,90.1,145.2,90.4,145.8,90.1z M148.3,89.8
	c2.1-0.6,3.1-0.9,3.6-1.6c0.3-0.5,0.3-0.7,0-1.5c-0.3-0.7-0.7-0.9-2-0.2c-0.9,0.5-3,0.7-3.7,1.2c-0.3,0.2-0.1,0.2,0.1,0.4
	c0.5,0.3,0.8,0.5,0.7,1C146.9,90,147,90.1,148.3,89.8L148.3,89.8z M146.1,86.4c1-0.5,0.8-1.8-0.3-2.3c-1.5-0.4-2.5,1.4-1.3,2.3
	C144.8,86.7,145.6,86.6,146.1,86.4z M149.5,85.9c1.5-0.5,2.1-0.9,2.5-1.7c0.3-0.7,0.2-0.9,0.2-1.6c-0.1-1-0.6-0.8-1.9-0.3
	c-0.7,0.3-3.9,1.2-4,1.5c1.6,0.9,1.2,1.4,1.2,2.5C147.5,86.5,148.2,86.3,149.5,85.9L149.5,85.9z M129.2,84.4c0-0.4-4.2-4.5-4.6-4.5
	c-0.7,0-1.7,1.1-1.5,1.7c0.1,0.3,4,4.2,4.5,4.5C128.2,86.4,129.2,85,129.2,84.4z M131.6,81.8c0.2-0.1,0.5-0.5,0.7-0.8
	c0.4-0.7,0.4-1-0.1-1.4c-0.2-0.1-1.1-0.9-1.9-1.8c-0.9-0.8-1.7-1.6-1.8-1.6c-0.7-0.1-2,1.1-1.9,1.6c0.1,0.3,3.3,3.5,4,3.9
	C131,82.1,131.2,82.1,131.6,81.8z M137.3,75.8c0-0.1-0.7-0.6-1.9-1.2c-3.6-1.9-3.6-1.9-4.7-1c-0.4,0.3-0.7,0.7-0.7,0.8
	s0.8,1,1.8,1.9c2,1.9,2.5,2.3,2.8,2.3C135.1,78.1,137.2,76.4,137.3,75.8z M142.2,74c0.4-0.5,0.9-2.3,0.7-2.7c-0.2-0.2-0.8-0.2-1,0.1
	c-0.3,0.2-0.9,2.5-0.8,2.8C141.2,74.4,141.9,74.3,142.2,74L142.2,74z M103.5,151.3c0.3,0,1-0.5,2-1.3c1-0.9,4.3-2.8,4.6-3.6
	c0.2-0.4,0-1.1-0.3-1.1s-0.3,0.2-2.5,1.7c-1.5,1-4,2.9-4.4,3.3C102.8,150.7,103.2,151.2,103.5,151.3z M103.2,163.8
	c2.2-1.5,4-3.1,6.9-4.9c0.2-0.3,0.3-0.7,0.1-1.1c-0.2-0.4-0.4-0.3-1.3,0.3c-2.1,1.4-4.3,3.1-6.2,4.4c-0.6,0.4-1.1,0.6-1,0.8
	C102,163.6,102.9,163.7,103.2,163.8z M105.4,164.7c1.5-1.2,3.2-2.3,4.8-3.5c0.2-0.2,0.3-1,0.1-1.3c-0.2-0.2,0-0.2-0.5,0.1
	c-0.6,0.4-4.4,2.9-5.1,3.5c-0.4,0.3-0.8,0.5-0.6,0.6C104.5,164.5,105,164.7,105.4,164.7L105.4,164.7z M107.2,165.7
	c0.3-0.2,2.9-1.9,3.1-2.1c0.2-0.3,0.2-1.4-0.1-1.5c-0.7,0.5-4.1,2.6-4.1,3C106.5,165.4,107,165.7,107.2,165.7L107.2,165.7z
	 M110,165.9c0.4-0.4,0.5-0.4,0.5-0.8c0-0.7-0.2-0.7-1.2,0c-0.7,0.5-1.2,0.8-1.1,1.1C108.7,167,109.5,166.4,110,165.9L110,165.9z
	 M110.3,167.4c0.2-0.1,0.2-0.2,0.2-0.4c0-0.3-0.1-0.3-0.4-0.3C109.2,166.7,110,167.5,110.3,167.4z M100.2,163.3
	c0.4-1.3,0.9-2.3,1.8-3.2c3.5-3.1,2.4-6.9,0.2-10c2.9-4,5.7-8.2,8.1-12.1v-6.3h0.3c-0.1,13.8,0.5,36.2,0.5,36.2l2.8,2.2l-0.4,0.2
	C114.1,170.3,105.4,164.8,100.2,163.3L100.2,163.3z M102.7,161.7c2.4-1.8,4.8-3.3,7.2-5.2c0.3-0.2,0.4-0.2,0.4-0.7
	c0-0.9-0.2-0.9-1.1-0.3c-0.4,0.3-1.8,1.3-3.2,2.2c-1.4,1-2.8,1.8-3,2.1c-1.3,1.6-1.8,2.3-1.7,2.5
	C101.4,162.6,101.7,162.4,102.7,161.7L102.7,161.7z M105.4,157.3c1.2-0.8,4.2-2.9,4.5-3.1c0.5-0.4,0.6-1.1,0.1-1.2
	c-0.2,0-2.5,1.5-4.4,3c-0.9,0.7-1.2,0.9-1.2,1.6C104.4,157.8,104.6,157.8,105.4,157.3z M106.6,154.1c3.8-2.7,3.7-2.5,3.6-3.5
	c0-0.3-0.1-0.5-0.3-0.5c-0.1,0-0.8,0.5-1.5,1c-0.8,0.5-1.7,1.2-2.1,1.6c-1.3,0.9-1.8,1.2-1.8,1.7c0,0.5,0.1,0.8,0.4,0.8
	C105,155.1,105.8,154.7,106.6,154.1z M106.1,152c1.8-1.2,3.7-2.6,3.9-3c0.3-0.4,0.3-1.3-0.1-1.3c-1.8,1.2-3.9,2.7-5.4,3.9
	c-0.2,0.2-0.4,0.3-0.5,0.6c0,0.3,0.3,0.7,0.5,0.7C104.8,152.9,105.2,152.6,106.1,152L106.1,152z M104.9,147.8c1.3-0.9,2.6-2,3.9-2.9
	c1-0.7,1.3-0.9,1.2-1.8c0-0.5-0.5-0.2-2.2,0.9c-1.2,0.8-1.8,1.2-2.2,1.7c-0.3,0.7-1.3,1.4-1.4,2.2
	C104.2,148.3,104.4,148.1,104.9,147.8L104.9,147.8z M109,142.3c1-0.7,1.1-0.7,1-1.6c-0.1-1.1-0.3-1.1-1.2,0.4
	c-0.6,1-0.9,1.3-0.8,1.5C108.2,142.9,108.4,142.7,109,142.3z M105.3,134.1c-0.1-0.5-0.3-0.4-0.8,0.1c-1,0.8-1.1,1.4-0.5,1.8
	c0.3,0.2,0.6,0.1,0.7-0.3C105.2,134.8,105.3,134.4,105.3,134.1z M100.1,141.9c-0.1-0.5-0.7-1.1-1.1-1.3c-0.4-0.2-0.7-0.2-1.1,0.3
	c-0.4,0.5-0.2,0.8,0.4,1.5c0.4,0.5,0.6,0.7,0.9,0.7C99.5,142.9,100.1,142.4,100.1,141.9L100.1,141.9z M79.4,161.8
	c-0.3-0.5-0.8-1.1-1.1-1s-0.6,0.5-0.6,0.8c0.1,0.5,0.6,0.9,0.9,0.9C79.3,162.3,79.7,162.2,79.4,161.8z M81.9,161
	c-0.5-0.6-1.6-1.8-1.8-1.8c-0.3,0-0.9,0.7-0.9,1c0,0.3,1,1.7,1.3,1.8C81.3,161.8,82.9,161.9,81.9,161z M85,161.1
	c-0.1-0.3-3.1-3.5-3.3-3.5c-0.3,0-0.9,0.6-0.9,0.9c0,0.2,1,1.5,1.9,2.5c0.5,0.5,0.5,0.5,1.1,0.5C84.4,161.4,85.2,161.5,85,161.1
	L85,161.1z M90.5,160.4c0-0.7-0.3-1-1.7-2.5c-0.5-0.5-1.3-1.5-1.9-2.1c-1-1.2-1.5-1.5-1.9-1.5c-0.3,0-0.8,0.5-0.8,0.9
	c0,0.2,2.5,3.1,4.8,5.6c0.5,0.5,0.7,0.7,1.2,0.4C90.5,161,90.5,160.6,90.5,160.4L90.5,160.4z M86.5,152.6c-0.5,0.4-0.7,0.6-0.7,0.9
	c0,0.4,4.4,5.3,4.8,5.3c0.2,0,0.2,0,0.3-0.5c0.3-1.6-0.2-2-1.3-3.1C88.8,154.4,87.3,152,86.5,152.6L86.5,152.6z M94.2,149.3
	c-1.2-1.5-1.9-2.1-2.2-2.1c-0.2,0-0.4,0.2-0.7,0.5c-0.5,0.4-0.4,0.4-0.1,0.9c0.2,0.3,0.6,0.8,0.9,1.2c0.7,0.7,1,0.9,1.3,0.6
	C93.8,150.1,94.5,149.7,94.2,149.3z M93.6,145.7c-0.3,0-0.8,0.5-0.8,0.8c0,0.2,1,1.5,1.7,2.1c0.6,0.5,0.8,0.6,1.2,0.3
	c0.3-0.4,0.2-0.8,0-1.1C95.2,147.2,94.1,145.7,93.6,145.7L93.6,145.7z M97,146.1c0-0.4-1.3-2.1-1.7-2.2c-0.3,0-1,0.8-1,1.1
	c0,0.2,0.3,0.6,0.7,1.1c0.9,1,1.1,1.3,1.3,1.1C96.7,146.9,97,146.5,97,146.1z M98.4,144.2c0.1-0.4-0.1-0.7-0.6-1.4
	c-0.6-0.8-0.9-0.8-1.5-0.2c-0.2,0.2-0.3,0.4-0.3,0.5c0,0.3,1.3,2,1.6,2C98.1,145.1,98.2,144.6,98.4,144.2L98.4,144.2z M96.1,148.3
	c-0.1,0.5-0.3,0.9-0.9,1.1c-4,2.9-3.9,7.6-4.7,11.9c-6.5-0.1-16.6,2.6-16.6,2.7l34.3-34.7c0,0,0.4,0.1,0.2,0.4
	c-2.8,2-2.6,5.9-4.5,7.9C100.9,141.3,98.1,144.6,96.1,148.3L96.1,148.3z M77.5,162.6c0.1-0.4-0.3-0.5-0.6-0.2s-0.2,0.6,0.3,0.5
	C77.4,162.9,77.5,162.8,77.5,162.6z M88,161.1c0.1-0.3-0.2-0.6-2-2.7c-1.9-2.1-2.3-2.6-2.6-2.6s-0.9,0.7-0.9,1
	c0,0.1,0.3,0.5,0.7,0.9c0.4,0.4,1,1.1,1.5,1.7c0.8,0.9,1.2,1.4,1.5,1.6s0.5,0.2,1,0.2C87.8,161.2,88,161.3,88,161.1z M91.2,154.6
	c0.1-0.4,0.3-0.8,0.3-0.9c0-0.3-2.4-2.7-2.8-3c-0.5-0.3-1.4,0.7-1.2,1.3c0.1,0.2,0.8,1,1.6,1.8c1,1.1,1.5,1.6,1.7,1.6
	S91.1,155.1,91.2,154.6z M92.2,152c0.2-0.3,0.3-0.6,0.3-0.7c0-0.2-0.4-0.7-1-1.3c-1.1-1.2-1.3-1.3-1.9-0.8c-0.6,0.6-0.4,0.8,0.6,2
	C91.6,152.6,91.7,152.8,92.2,152L92.2,152z M101.1,140.7c0.4-0.5,0.4-0.7,0-1.1c-0.2-0.2-0.4-0.4-0.5-0.6c-0.3-0.4-0.8-0.3-1.2,0.2
	c-0.2,0.2-0.4,0.5-0.4,0.6s0.2,0.4,0.5,0.7C100.3,141.2,100.7,141.3,101.1,140.7L101.1,140.7z M102.5,139c0.3-0.4,0.1-0.9-0.4-1.3
	s-0.7-0.5-1-0.1c-0.4,0.5-0.4,0.7,0.1,1.2C101.8,139.4,102.2,139.5,102.5,139z M103.6,137.6c0.4-0.4,0.4-0.7,0-1.1
	c-0.3-0.4-0.6-0.5-1-0.3c-0.6,0.3-0.5,0.8,0.1,1.4C103.1,137.9,103.3,137.9,103.6,137.6z M77.4,211.5c7.1,0.8,14.6,1.3,27.9-0.7
	l0.1-4.5c-4.2,3.3-9.6,1-10-2.7c0-3.3,0.9-7.2,1.6-9.9c0.6-2,0.7-2.8,0.2-3.2c-1.2-0.7-3.2-0.7-3.7-2.1c-0.3-0.7-0.3-1.5,0.1-0.9
	c0.2,0.3,1.5,0.9,2.5,1.1c1.8,0.4,2.1,0.5,2.3,1.3c0.1,0.5-0.2,2.1-0.6,3.6c-0.3,1-0.7,2.7-0.7,3.1c0,0.4,0.3,0.4,0.6,0.3
	c0.1,0,0.8-0.7,1.2-1c1.7-1.6,2.2-1.5,0.8,0c-0.6,0.6-1.4,1.4-1.4,1.5c0,0.3,0.3,0.3,1,0c1-0.4,3.4-0.3,4.5,0.2
	c1.3,0.7,1.4,0.6,1.4-1.4c-0.2-3.8-0.9-8.3-2.1-11.8c-1.9-5.4-5.8-10.3-11.5-10.1c-7.1,0.4-11.2,3.2-16,6.6c2.9,6.4-1.3,11.4-2.8,12
	c-0.1,0.1,1.9,6.5,2.8,9.8C76.1,205.5,77.4,211.5,77.4,211.5L77.4,211.5z M107.3,56.7c-0.2-0.4-4.1-13.2-5.2-18.5
	c-10.6-0.6-18.4-1.5-27.7,1.2c0,0-0.2,3.6-0.1,3.8c0.1,0.4,0.4,0.4,0.7,0.3c4.3-2.4,9-1.3,9.3,4.5c0.1,2.2-0.6,3.8-0.8,5.9
	c-0.1,1.9-1.6,4.3-0.7,5.7c0.1,0.2,0.7,0.5,1.6,0.9c1.6,0.7,2.2,1.3,2.3,2.3c0.2,0.7-0.3,1.2-0.4,0.5c-0.1-0.5-0.2-0.9-2.1-1.5
	c-1.9-0.7-2.4-1.4-2.6-1.8c-0.3-0.6-0.2-0.9,0-1.8c0.5-1.9,1-3.8,1-4.7c0-0.3-0.4-0.2-0.8,0.2c-0.6,0.5-3.1,2.1-3.1,2.1
	s0.4-0.7,1.1-1.4c0.8-0.8,1.9-1.8,1.9-2c0-0.3-0.1-0.1-0.9,0.1c-1.4,0.4-3.1,0.3-4.2-0.2c-0.9-0.4-1.6-0.7-1.7-0.4
	c-0.3,5.7,0.5,11.6,2.9,16.1c2.1,4.2,6.6,9.4,13.2,8.2c6.9-1.2,13.5-6.8,13.3-6.8C101.7,63.7,104.7,59.3,107.3,56.7L107.3,56.7z
	 M52.8,211.9c-3.1-3.1-10.8-6.4-16-7.9c-0.4-0.1-0.8-0.3-0.8,0.2l-0.1,10.5l-9.5,8.9v4.2h20.3L60,208.2c0,0,0.6-0.1,0.7-0.2
	c-2.5-10.4-6.1-18.6-8.5-22.8c0,0.1-3.4,2.8-6.4-0.6c-1.7-1.9-0.7-5.2,0.9-6.4c-1.3-1-4.1-2.8-6-3.3c-0.4-0.1-0.9,0.7-1.1,1.4
	c-0.3,1.1-0.9,2.1-1.3,3.3c-0.4,1-0.8,1.1-1.4,0.8c-1-0.3-1.2-0.4-1.2-0.4v12.4C43.1,194.9,50.6,201.4,52.8,211.9L52.8,211.9z
	 M83,79.9l2.2-2.4c-3.4-0.4-7-1-11.1-2.4C77,77.4,79.9,78.7,83,79.9z M71.2,73.3c3.8,1.3,8.7,4.3,14.6,3.1
	c-5.5-2.2-9.7-7.3-11.4-17.6c-0.4,2-1.2,6.2-2.5,6.7c-1.8-6.9-9-2.9-6.1,2.7c-7.3,5-15.9,7.8-23.8,11.7c0,0-1.2,3.7-7.1,8.7
	c-1.1-5.9,0.2-14.6-0.5-20.4l-9.3-8.8c0.1,1.7,0.1,2.7,0,4.7c0.3,0.3,0.6,0.5,1,0.7c0.6,33.8-0.2,67.2-0.2,97.9
	c-0.1,18.8,0.4,38.4,0.1,56.1l-0.3,0.6v4.3l9.5-9.1c0,0-0.4-6.4,0.1-11.3c6,1.2,11.5,4,16.5,7.1c0.6,0.2-3.1-12.3-16.5-17.8
	c0,0,0-3.9,0-12.4c0-8.2-0.1-9.1-0.3-9.2c-0.5,0.6-7.4,2.9-7.8,2.5c0.2,0.1-1.9-14.5-0.1-16.6l6.6,0.1c1.9,1.5,1.1-0.3,2.2-0.6
	c0.7-0.2,3.7,1,3.7,1c12.5-14.9,11.2-39.2,2.3-52.9c-2.3,1.9-4.8,4.4-7.1,5.5c0-0.1,0-7.6,0-7.6c11.9-7.7,25-30,24.2-30.1
	c0,0,3.7,3.6,5.2,5.7L52.4,94.9c2.7,5.5,5.5,10.4,7.3,15.3c0.2,0.7,1,0.6,1.2,1.3c0.2,0.6-0.6,1.4-0.5,2c2.5,9.6,3.1,19.7,0.6,28.9
	c-0.5,2.1,0.4,3.8,1.7,5.3c0.1,0.1-1.2-1.1-1.3-1.2c-0.4-0.3-1.2,0.7-1.3,1.8c0.1,0.7,0.5,0.9,1,1.4c0.9,0.8,4.6,4.3,6.2,6
	c1.4,1.5,1.8,1.5,2.8,0.5c0.3-0.3,0.6-0.6,0.8-0.8c0,0.1,0.4-0.3,0.5-0.4l21.3-20.8c2.5-2.4-21.3,21.9-21.3,21.9
	s-11.5,11.4-14.3,14.2c-2.9,2.9-3.3,3.5-3.4,3.7c-0.2,0.4,0.9,0.4,1.5,0.3c0,0-0.4,0.1-0.9,0.1c-3-0.4-4,2.7-5.9,3.3
	c-5,3.6-1.6,9.3,3.2,7.4l1.2-0.6c2.9,5.4,7.1,15.3,9.1,23.8l-0.8,0.4l-12.6,18.9h71.6c-5.2-5.1-9.6-11.5-13.9-16.1
	c-7.2,2.1-28.8,1.7-28.4,0.8c0,0-3.3-13.3-5.1-19.7c5.9-5.1,5.3-13-3.3-16.5c6.2-4.9,12.4-6.6,18.5-7c2,5,6.6,5.4,8.9,0.7
	c0-0.1,8.3,2.5,11.2,5.3c-4.5-0.5-9-1.4-13.4-1.6c4,1.6,8,5.7,9.3,10.4c0.6,1.7,1.6,7.2,1.9,7.2c0,0,1.5-6.4,2.7-6
	c3,6.2,8.1,1.5,5.9-3.4c7.6-3.6,16-7.7,23-11c2-3.1,7-8.9,7.4-8.9c0,0,9.2-52.6,9.2-70.2c-0.3-21.1,0.4-44.7-0.5-64.5v-5.6h-19.3
	L120,41.7c0,0-0.1,0.3-0.1,0.5c1.9,8.2,4.3,15.3,8.1,22.8c5.3-4,9.7,2.6,5.8,6.4c-0.7,0.7-0.5,0.9,0.2,1.4c0.7,0.5,5.7,3,6,3
	c0.9-1.3,1.2-3.3,1.8-4.8c0.2-0.6,0.6-0.6,1.5-0.5c1.1,0.1,1.1,0.6,1.1-6.5v-6.1c-6.8-3.1-15.6-11-16-19.1c3.9,2.8,12.8,7,15.2,7.3
	c1.1,0.3,0.9-1.5,0.9-2.3c0.3,0.2,0.4,3,0.4,3c-4-1.2-6-1-15.8-6.7c1.7,8.1,9.8,14.5,15.6,17.3c0,0,0.2,3.8,0.2,8.1
	c0,13.1,0.1,13.7,0.1,13.7s3.2-0.8,4.1-1.3c1.6-1.3,4.2-0.3,4.5,0.6c0.5,5,0,9.5-0.1,14.3c-2.7,0.2-4.2,0.8-5.6,0.8
	c-0.9-0.1-1.4-0.1-1.9-0.6c-1.3-2.8-1.2-1-1.4,1.1c-0.1,0.6-3.4-0.5-3.7-0.7c-14,16.2-12.8,34.9-3.3,52.2c1.6-1.1,4.3-3.1,7-4.5
	c0.1,2.2,0.1,6.8,0.1,6.8c-11,8.1-24.2,29.5-23.8,29.6l-4.5-5.4c0,0,2.8-4.5,3.8-5.7c0.1-0.1,0.2-1.5,0.2-1.5l6.9-9.9
	c-2.9-6.6-6.9-11.7-8-18.1c-4.6-20.6,0.4-30.9,0-31.7c0,0-0.1-0.4-0.2-0.5s0-0.2,0.2-0.5c0.3-0.6,0.8-1.8,0.7-2.1
	c-0.1-0.3-3.8-4-7-7c-1.7-1.6-1.6-1.8-2.5-0.9c-0.3,0.3-1.1,1.3-1.1,1.3c-11.4,10.7-20.5,20.3-32.1,31.6l-0.6-0.5
	c16.7-16.6,33.6-33.2,50.2-49.9h-2.9c0.1-0.2,0.2-0.4,0.4-0.5c1.6,0,3.2-0.5,4.3-1.1c2.4-1.8,5.8-4.1,6-6.5
	c-0.2-4.5-3.9-5.1-6.7-2.9c-3.8-6.8-6.8-15-8.4-22.6c-0.1-0.4-0.6-1-0.7-1.5c0.8-2.5,13.6-20,13.6-20h-72l13.7,16.3
	c0-0.7,19.5-3,28.5-0.2l5.5,19.3c-5,4.8-6.4,12.7,2.7,16.7c0.2,0.4-0.9,1-0.9,1c0.1-0.2,0.4-0.5,0.3-0.7c-2.5-1.1-5.1-3.8-5.1-3.8
	c-5.5,4.3-10.6,6.7-15.6,6.9c0,0,2.7,1.8,3.2,3.8c0,0-0.2,0-0.3-0.1c-0.5-0.7-1.8-2.8-2.9-3.5c-1.8-0.4-2.9-0.1-4.3,0.9L83.4,80
	C78.6,78.7,73.9,76.7,71.2,73.3L71.2,73.3z M70.5,120.7l2-2c0.2-1.5,0.6-3.3,2.3-5.4c1.9-2.3,4-4.4,5.5-6.4c1.8-2.4,2.8-4.6,2.4-5.6
	c2.7-0.5,5.2-2.9,5.3-7.3c0-2.3,1.1-5.7,1.2-5.6c0,0,19-0.6,32.1-13.2c0,0,0.9,0.2,0.7,0.4c-5,5-10.3,8.7-16.4,11l-34.3,34.4
	L70.5,120.7z M74.3,116.7c0.5-0.5,0.6-0.7,0.3-0.9c-0.4-0.4-1.3,0.4-1.3,1.2C73.3,117.5,73.7,117.3,74.3,116.7L74.3,116.7z
	 M76.1,115c0.4-0.4,0.4-0.7,0.1-1c-0.5-0.5-1.1-0.2-1.4,0.6C74.5,115.3,75.4,115.6,76.1,115L76.1,115z M77.6,113.4
	c0.2-0.2,0.4-0.5,0.4-0.5c0-0.3-0.7-0.9-0.9-0.9c-0.4,0-1,0.6-1,1c0,0.3,0.7,0.9,1,0.9C77.1,113.8,77.4,113.6,77.6,113.4z M79,110.4
	c-0.5-0.4-0.8-0.4-1.2,0c-0.5,0.5-0.4,0.9,0.1,1.4c0.4,0.4,0.6,0.4,1.1,0C79.6,111.4,79.7,111,79,110.4z M80.8,110.2
	c0.5-0.4,0.4-0.8-0.1-1.3c-0.6-0.6-1-0.6-1.4,0c-0.2,0.2-0.2,0.5-0.2,0.5c0,0.2,1,1.1,1.2,1.1C80.4,110.5,80.5,110.3,80.8,110.2z
	 M82.4,108.6c0.4-0.5,0.4-0.8-0.2-1.4c-0.5-0.5-0.9-0.6-1.3-0.2c-0.5,0.4-0.4,0.9,0.2,1.4C81.5,109,81.9,109,82.4,108.6z
	 M84.3,106.7c0.3-0.3,0.2-0.3,0-0.7c-0.3-0.6-1.4-1.5-1.6-1.5c-0.4,0-0.7,0.6-0.7,1.2c0,0.6,0.3,0.8,1,1.4c0.5,0.4,0.3,0.4,0.7,0.2
	C83.9,107.1,84.2,106.9,84.3,106.7L84.3,106.7z M85.8,105.3c0.7-0.8,0.6-0.9-1.1-2.7c-0.6-0.6-0.7-0.7-1.1-0.6
	c-0.4,0-0.4,0.1-0.6,0.5c-0.4,0.7-0.1,1.1,0.9,2.2C85.1,105.9,85.2,106,85.8,105.3z M87.5,103.5c0.3-0.2,0.4-0.5,0.4-0.7
	c0-0.3-1.3-1.8-1.8-2c-0.3-0.2-0.7-0.1-1.1,0.3c-0.3,0.2-0.3,0.3-0.2,0.5c0.1,0.4,1.8,2.2,2.1,2.2C87,103.8,87.3,103.7,87.5,103.5z
	 M89.2,101.9c0.3-0.3,0.5-0.6,0.5-0.8c0-0.3-1.4-2-1.9-2.2c-0.4-0.2-0.6-0.1-1,0.4c-0.4,0.6-0.3,0.9,0.6,1.9
	c0.8,0.9,1.1,1.2,1.2,1.2C88.7,102.4,88.9,102.2,89.2,101.9z M90.7,100.2c0.4-0.2,0.8-0.7,0.6-1.1c-0.2-0.4-2.7-3-3-3.2
	c-0.5-0.3-0.5,0.1-0.5,1.4V98l1.2,1.1C90.7,100.8,90.4,100.4,90.7,100.2L90.7,100.2z M92.8,98.3c0.2-0.2,0.4-0.5,0.4-0.7
	c-1-1.3-4.1-5.3-4.6-5.1c-0.1,0-0.1,0-0.1,0.1c-0.1,0.4-0.2,1.2-0.1,1.9c1,0.9,3.2,3.9,3.7,4.1C92.4,98.8,92.5,98.6,92.8,98.3
	L92.8,98.3z M94.4,96.6c0.2-0.2,0.3-0.4,0.3-0.6c0-0.1-0.3-0.5-0.7-1c-0.4-0.4-1.1-1.3-1.6-1.9c-2.8-3.6-3.1-3.8-3.5-3.5
	c-0.3,0.2-0.4,1.1-0.2,1.4c0.2,0.5,3.4,4.3,4.4,5.3C93.8,97,93.9,97.1,94.4,96.6z M96,95c0.2-0.2,0.4-0.5,0.4-0.7
	c0-0.1-0.5-0.7-0.9-1.3c-0.5-0.6-1.3-1.5-1.8-2.1c-1.3-1.6-1.3-1.6-2.2-1.7c-1.4-0.1-1.3,0.2,0.4,2.1c0.4,0.5,1.1,1.4,1.7,2
	c1.2,1.5,1.8,2.1,2,2.1C95.7,95.4,95.8,95.3,96,95L96,95z M97.7,93.4c0.7-0.6,0.6-0.8-1.8-3.3c-0.8-0.8-0.8-0.9-1.5-0.9
	c-0.6,0-0.8,0.1-0.8,0.4c0,0.2,3.1,3.9,3.4,4S97.3,93.7,97.7,93.4L97.7,93.4z M99.5,91.6c0.2-0.2,0.4-0.5,0.4-0.6
	c0-0.3-0.7-1.1-1.3-1.7c-0.3-0.3-0.7-0.5-0.9-0.5c-0.4,0-1.1,0.2-1.2,0.4c-0.1,0.1,0.9,1.3,1.8,2.2C98.7,92.1,99,92.1,99.5,91.6
	L99.5,91.6z M100.9,90.1c0.4-0.4,0.4-0.7,0-1.3c-0.3-0.4-0.4-0.4-1-0.4c-1.1,0-1.2,0.3-0.3,1.2C100.3,90.3,100.5,90.5,100.9,90.1z
	 M102.6,88.5c0.4-0.6,0.1-0.9-0.7-0.5c-0.2,0.1-0.3,0.3-0.3,0.4C101.4,88.9,102.1,89,102.6,88.5z M75.2,93.1c-1.6,1-4.3,2.9-6.1,4.2
	c0,0.3-0.1,1,0,1.5c1-0.7,4.3-2.8,5.9-4C75.1,94.4,75.2,93.6,75.2,93.1L75.2,93.1z M78,88.5c-0.1-0.3-0.2-0.1-0.7,0.3
	c-0.6,0.5-5.9,4.4-7.2,5.4c-0.5,0.4-1,0.7-1.1,0.8s-0.1,1.2,0.1,1.4c1.1-0.9,6.5-4.5,6.6-4.6C76.4,91,77.6,89.4,78,88.5L78,88.5z
	 M77.5,100.2c0,0-6.4,7.7-8.5,11.6c0,0,0,4.4-0.1,6.9l-0.3,0.1c0,0,0-6.8-0.1-14.2c-0.2-18.3-0.4-22.8-0.4-22.8L66,80.2l-0.1-0.7
	c0,0,9.3,6.5,13.7,7.5C76.4,92.2,73.4,94.2,77.5,100.2L77.5,100.2z M69.9,109.4c0.1-0.3,0-0.3-0.2-0.3s-0.3,0.2-0.3,0.4
	s0,0.3,0.2,0.2C69.7,109.7,69.8,109.5,69.9,109.4z M71.5,107.2c0.9-1.1,1.7-1.9,1.8-2.7c-0.6,0.1-4,2.5-4.1,2.7
	c0,1.3-0.3,1.4,0.8,0.9C70.5,107.8,70.8,107.5,71.5,107.2L71.5,107.2z M71.7,104.3c1-0.8,4.6-2.8,5-3.7c0.2-0.4-0.4-0.9-0.4-0.8
	c0.1,0.1-5.2,3.2-7.1,4.9c-0.2,0.2-0.1,0.6,0,0.9C69.4,106.1,69.9,105.6,71.7,104.3L71.7,104.3z M70.5,102.8
	c1.1-0.7,3.6-2.5,4.3-2.9c1.1-0.8,1.3-1,0.9-1.6c-0.2-0.2-0.4-0.4-0.7-0.2c-3.1,2.2-3.4,2.5-5.8,4.1c-0.2,0.4-0.1,1.1,0.1,1.3
	C69.5,103.5,69.8,103.3,70.5,102.8L70.5,102.8z M70.5,100.5c2.9-2.1,4.4-3.1,4.5-3.3c0.1-0.3,0.1-1.2,0-1.3
	c-1.1,0.8-3.9,2.5-5.8,4.1c-0.1,0.3-0.1,1,0,1.2C69.6,101.3,69.7,101.1,70.5,100.5L70.5,100.5z M70.2,93c2.1-1.5,4-2.9,6.2-4.3
	c1.8-1.2,2.1-1.5,1.4-1.9c-0.2-0.1-0.7-0.3-1-0.2c-2.4,2-5.1,3.8-7.7,5.8c-0.1,0.3,0,0.8,0,1.1C69,93.9,69.5,93.5,70.2,93L70.2,93z
	 M69.9,90.8c0.2-0.1,1.3-0.9,2.4-1.7c3.1-2.2,3.5-2.5,3.5-2.7c0-0.7-0.9-0.8-1.7-0.1c-1.5,1.2-5.1,3.4-5.1,3.8c0,0.5-0.1,0.9,0,1.1
	C69.2,91.4,69.5,91.2,69.9,90.8L69.9,90.8z M70.8,87.8c3.2-2.2,3-2.1,3-2.5c0-0.3-0.3-0.2-0.8-0.2s-0.5,0.1-1.3,0.7
	c-1.8,1.4-2.5,1.8-2.7,2.2c-0.1,0.1-0.1,0.6,0,0.8C69.2,89,69.5,88.7,70.8,87.8z M71,85.6c0.6-0.5,1.1-0.9,1.2-1
	c0.1-0.2-0.4-0.7-0.7-0.7c-0.4,0-0.7,0.2-1.6,1c-0.8,0.7-1,0.6-0.9,1c0,0.2,0,0.8,0.1,0.8C69.2,87,69.6,86.7,71,85.6z M69.7,84.2
	c0.7-0.6,0.8-0.7,0.3-1.2c-0.4-0.4-1-0.6-1.2-0.3c-0.2,0.2,0,1.4,0,1.6C68.8,84.7,69.3,84.6,69.7,84.2L69.7,84.2z M83.9,72.1
	c0-0.2,1.2-1.1,2-1.3c1.1-0.2,2.5-0.1,3.5,0.4c0.8,0.4,1.8,1.4,0.4,0.8c-1.2-0.6-3.9-0.6-4.9-0.1C84.3,72.3,83.9,72.4,83.9,72.1
	L83.9,72.1z M83.1,67.9c0.1-0.1,1.3,0.2,1.9,0.4c1.7,0.5,3.1,0.2,4.9-0.3c0.4-0.1,0.6,0.2,0.4,0.4c-0.9,0.6-2.1,1-3.1,1.1
	C84.9,69.6,82.5,68.5,83.1,67.9L83.1,67.9z M72.2,64.6c1-0.5,2.1-7.1,1.8-8.2c-1.2,1.8-2.5,2.6-4.4,2.3c-3.1-0.5-3.2-4.3-0.8-4.7
	c0.9-0.2,2.1,0.5,2.3,0.3c1-0.5,1.8-3.9,2.1-5c0.2-1.1,0.4-4.1,0.5-5c0.1-2,0-5,0-5L58.8,21.4H26.5c0,0-0.1,24.9,0,37.7l9,8.9
	l0.1,14.4c10.4-4.5,20.3-9.3,30.1-14.4c-1.1-1.4-1.1-4.8,1-6.1C69.5,60,72,62.6,72.2,64.6L72.2,64.6z M80.3,67.6
	c0.1-0.8,0.7-1.5,0.7-2.3c0-0.2,0.1-0.4,0.6-0.1c0.6,0.3,0.8,0.1,1.5-0.2c1.3-0.6,1.6-0.6,2.6-0.2c0.6,0.3,0.8,0.3,1.4,0
	c0.8-0.5,1.7-0.7,2.4-0.5c1.1,0.4,1.4,0.6,2,0.3c0.3-0.1,0.7-0.7,0.8-0.7c0.4,0.7,0.3,1.7,0.6,2.3c0.5,1,0.3,1.7-0.3,1.2
	c-1.2-1-2.2-1-3.9-0.6c-1,0.3-1.6,0.5-2.7,0.3c-3.5-0.4-3.8-0.3-4.5,0.2C80.9,67.7,80.4,67.8,80.3,67.6L80.3,67.6z M89.8,61.2
	c-1-0.3-2.2-1.2-3-0.9c-1,0.1-1.6-1.2-1.1-1.8c0.9-0.9,2.3,0,2.9,0.4c1.2,0.9,1.4,1,1.9,1c2,0,1.6-1.9,0.6-2.6
	c-0.6-0.6-0.6-1-0.5-1.1c0.2-0.2,0.8,0,1.4,0.6c1.2,1.1,1.2,3.4-0.2,4C90.9,61.2,90.4,61.4,89.8,61.2z M93.9,54.7
	c-0.9-0.7-2.6-2.2-3-2.7c-0.7-0.9-1-1.5-0.9-2.2c0.1-0.6,0.2-0.9-0.2-1.1c-0.4-0.2-0.8-1.1-0.7-1.5c0-0.1,0.5-0.1,0.7,0.3
	c0.3,0.1,0.3-0.1,0.6-0.4c3.8-2.5,6.8-2.1,10.4-0.3c1,0.5,3.8,2.6,2.3,1.9c-0.1,0-1-0.5-2-0.9c-3.1-1.5-6.6-2.4-9.4-0.5
	c-0.5,0.3-0.8,0.6-0.4,0.6c1.6-0.3,3.2-1,4.8-0.9c2.4,0,3.9,1.2,5.7,2.1c2,0.9,2.4,1.2,1.6,1.9c-0.2,0.2-0.4,0.2-1.3,0.1
	c-1-0.1-1.1,0-1.7,0.3c-1.5,1-3.5,1.5-5.2,1.4c-2.1-0.2-2.3-0.3-2.3,0c0,0.2,0.4,0.5,1,1.1c0.5,0.4,1.1,1,1.1,1.1
	C95.3,55.3,94.5,55.1,93.9,54.7z M93.3,51.4c0-0.2-0.5-1.3-0.7-1.6c-0.3-0.3-0.5-0.2-1,0.2c-0.4,0.3-0.5,0.5-0.1,0.9
	C92.3,51.7,93.3,51.9,93.3,51.4z M96.4,51.6c0.8-0.4,1.7-1.8,1.3-2.3c-0.2-0.3-0.4,0-0.9,0.8c-0.2,0.4-0.6,0.8-0.7,0.9
	c-0.7,0.5-1.6,0-2-1c-0.2-0.6-0.5-1-0.7-0.8c-0.5,0.4,0.1,2,1,2.4C95,51.8,95.9,51.9,96.4,51.6z M99,51.3c0.8-0.3,1.2-0.6,1.2-1
	c-0.1-0.3-0.7-0.7-1.1-0.7c-0.2,0-0.5,0-0.7,0.2c-0.3,0.4-0.7,1.5-0.8,1.7C97.8,51.8,98.1,51.6,99,51.3L99,51.3z M101.8,45.2
	c-4.2-1.6-7.5-2.3-11.4-0.5c-1.3,0.6-2,0.6-2.1,0.2c-0.1-0.4,0.9-1.5,1.9-2c2.8-1.3,6.1-1.4,9,0c1,0.5,4,2.6,4,2.8
	C103.1,45.7,102.8,45.5,101.8,45.2z M150.9,92.1c1-0.5,1.5-1.6,0.8-2.2c-0.2-0.2-0.4-0.2-0.6-0.2c-0.4,0-3,0.7-3.5,1
	c-0.3,0.2-0.2,0.5,0.1,0.8c0.1,0.1,0.3,0.4,0.3,0.7c0,0.4-0.1,0.8,0.2,0.7C148.7,92.8,149.6,92.7,150.9,92.1L150.9,92.1z
	 M147.1,93.1c0.3-0.5,0.2-1.2-0.6-1.7c-0.4-0.2-0.7-0.1-1,0.4C144.8,93.1,146.6,93.7,147.1,93.1z M143.5,93.7
	c0.2-1.7,0.1-6.9,0.1-6.9s-0.9,0.8-1.5,0.8c0.2-0.8,0.5-1,0.8-1.8c0.2-0.8,0.3-2.2,0.2-2.9c-0.1-0.9-0.7-0.9,0-2.4
	c0.3-0.8,0.4-1.6,0-2.6c-0.2-0.5-0.2-0.8,0.2-1.4c0.4-0.6,0.3-0.9,0.3-2c0-1.6,0-1.9-0.5-0.6c-0.7,1.1-1.1,0.9-2.2,0.8
	c-1.1,2.5-2.4,5-2.4,7.2c0,1.3-0.1,1.5,0.8,4.3c0.3,1,0.4,1.4,0.4,2.6c0,1.2,0.1,1.6,0.3,2.3C140.2,92.3,141.5,94.2,143.5,93.7z
	 M105.4,204.1v-2.5c0,0-4,1.2-6,0.5c-2.1-0.6-2.1-0.7-2-0.4c0.1,0.4,1.6,1.2,3,1.5c1,0.2,3,0,4-0.3c0.6-0.2,0.6,0,0.4,0.2
	c-2.4,1.9-5.5,1-7.4-0.6c-1-1-1.7-1-1.2,0.3C99,208.2,105.5,205,105.4,204.1L105.4,204.1z M102.7,200.5h0.9c0,0-0.3-1.6-0.7-2
	c-1-0.9-2.3-0.8-3.2,0.1c-0.4,0.4-0.7,1.9-0.7,1.9h0.7C100.1,199.9,101.2,196.6,102.7,200.5L102.7,200.5z M99.2,198.1
	c-0.5-0.1-1.6,0.4-2.2,0.7c-0.2,0.2-0.2,0.3,0,0.6c0.5,0.7,1.3,1,1.4,0.8C98.7,199.8,99.3,198.3,99.2,198.1z M105.1,199.9
	c0.1-0.5-0.3-1.3-1-1.6c-0.3-0.1-0.6-0.1-0.5,0.2c0.1,0.4,0.3,1,0.5,1.4c0.1,0.3,0.2,0.5,0.5,0.3C104.8,200.2,105,200.1,105.1,199.9
	z M143.6,167.2V163c-2.1,2.1-4.9,5.7-5.7,7.1L143.6,167.2z M79.1,51.9c0.9-0.4,1.6-1.6,1.3-2.1c-0.1-0.4-0.5-0.1-0.9,0.5
	c-0.6,0.9-0.8,1-1.3,1c-0.6,0-0.8-0.1-1.2-0.9c-0.3-0.7-0.5-0.8-0.7-0.5c-0.1,0.1-0.1,0.3,0,0.9C76.9,52,78,52.4,79.1,51.9z
	 M81.6,51.4c1-0.3,1.2-0.5,1.1-0.8c0-0.3-0.8-0.8-1.3-0.7c-0.3,0.2-1.2,1.5-1.1,1.8C80.4,51.9,80.8,51.7,81.6,51.4z M76,50.9
	c0-0.3-0.1-0.6-0.2-0.7c-0.3-0.4-1-0.1-1,0.4c0,0.4,0.5,0.8,1,0.8C76.1,51.3,76,51.4,76,50.9z M81.5,48.4c1.4,0.5,2.1,0.6,1.4-0.1
	c-1.1-1.2-5.9-2.5-8.5-0.6c-0.2,0.3-0.1,1.3,0.1,1.2C76.6,47.4,79.2,47.5,81.5,48.4L81.5,48.4z M76.7,44.4c-1.2,0.4-2.3,1-2.4,1.6
	c-0.2,0.9,0.2,0.9,1.7,0.5c2-0.7,4.2-0.4,5.9,0.6c1.3,0.9,1.7,0.6,1.5-0.2C82.6,44.3,78.6,43.8,76.7,44.4L76.7,44.4z"/>
<path fill="#E2CF00" d="
	M152.6,27.6l-8.7,8.7l0.1,10.3c0.9,1.6-13.4-4.6-15.7-6.5c0.3,6.9,9.6,14.7,15.6,17.4l0.2,21.8c2.5-1.3,5.6-2.1,7.8-2.3
	C153.1,62.2,154.1,42.9,152.6,27.6z M104.2,38.3c-0.9,0-1.4,0.2-1.3,0.8c-0.3,0,3.2,12.8,4.8,18.1c-3.1,3.1-6.3,8.5-1.7,13.6
	c1,1.1,2.8,2,4.5,3c0.8,0.7-9.4,7.3-18.3,7.3c-2.9-6.4-6.9-2.8-9.2-0.6c-1.7-0.2-8.2-4-11.5-6.2c-0.1,0,0-1,0-1.1
	c0.2,1.5,12.9,4.8,13.5,3.3c-0.4,0-5.7-3.6-7.3-7.2c-2-4-3.5-9.6-3.5-9.6c-0.7,2.1-0.5,4.9-2.4,5.9c-0.6-6.7-10.1-3.3-5.4,3.3
	c-2.7,0.8-5,2.2-7.5,3.3c5.4,7.4,12.8,12.3,20.7,15.2c-1,2.2-7.2,7.2-2.1,13.1c0.2,0.2-4.8,5.7-7.3,10c-1.9,3.2-1.3,5.7-1.1,5.8
	c6.8-7.8,10.7-14.5,10.7-14.5c-0.1,0.9,8.1,0.4,8-6.9c0.2-2,0.5-4.1,1.3-6c12.4,0.6,23.1-3.9,32.2-13.2c0,0,1.8,0.5,3,0.7
	c3.2-0.1,5-1.7,6.5-3.2c1.4-1.1,2.7-2.2,3.2-3.3c1.8-7.7-6.1-4.7-6.4-4.3c-4.5-6.1-8.3-23.3-8.9-23.4
	C116.1,41.5,107.5,38.2,104.2,38.3L104.2,38.3z M73.7,50c-0.3,0-1.5,5.4-2.6,5.3c-4.5-2.9-4.6,3.1-0.7,2.8
	C73.6,57.9,75.5,52.6,73.7,50L73.7,50L73.7,50z M25.8,60.1c0.1,32.5,0.7,64.9,1.5,97.4c2.9-0.7,5.1-1.3,8,0c0.3-9.3-0.5-32.5-0.3-55
	c11-8.6,18.6-17.9,24-30.2l-16.7,7.9c0,0-5.5,7.9-7.2,8.4c-0.2-1.1-0.5-14.4-0.3-20L25.8,60.1z M62.9,80.2L59.6,85
	c0,0,0.1,16.3,0.3,24.2c0.1,1.6,1.6,3,0.4,4.4c0.7,0,3.7,21.2,0.8,29.8c-0.5,1.5,0,2.6,0.8,3c4.1,4.6,6.4,9,11.8,6.4
	c5.9-5.4,14.3-15,14.3-15l-22.2-21C63.9,111.6,62.9,80.2,62.9,80.2z M144,148.4c-10.1,9.1-19.3,18.3-23.1,29.6
	c5.4-2.2,10.6-4.8,15.8-7.3c2.6-3.1,4.5-6,7.4-9c0,0,0.3,13.3,0.1,19.9c2.6,2,8.9,8.1,8.9,8.1s1.7-94.5-2-96.9
	c-3.6,0.7-5.4,2-6.8-2.2C143.3,109.9,144,148.4,144,148.4L144,148.4z M108.9,95.2c-3.9,3.2-17.2,16.3-17.2,16.4
	c3.6,6,17.5,17.8,24.2,24.5l1,34c1-1.3,1.7-2.6,2.8-3.9c0,0-0.2-17.1-0.6-25.2c-0.1-2.4-0.7-4.3-0.5-4.5c-1.9-9.8-2.7-20.6,0-31.1
	C112.3,100,110.3,96.3,108.9,95.2L108.9,95.2z M110,134L110,134c-3.3,4.7-9.6,14.9-10.1,14.9c-0.1-0.3-6.5,0-7.7,4
	c-1,3-1.1,5.7-1.8,8.8c-12.7-0.4-22,3.6-31.9,12.7c-4.8,0-8.4,1.1-10.1,3.1c-2.5,1.8-3.2,3.4-3.1,5.3c0.2,3.4,6.3,3.9,6.6,1.5
	c0.3,0,5.9,12.9,6.5,15.1c1.3,3.5,2.7,10.2,2.9,10.2c2.3,0.1,14.9,3.7,14.9,2.4c1.2-0.5-4.4-18.8-4.4-18.8c9.8-8.2-1-17-3.6-16.6
	c5.6-4,11.9-6.7,19-7c1.1,3.9,6.2,6,8.7,0.7c0,0,11,3.9,11,5.2c-4.5-0.7-8.3-1-12.7-1.5c8.7,4.7,9,10.9,10.7,17
	c0.2-1.1,2.5-5.9,2.5-5.9c2.9,6.5,8.6,2,6.2-3.3l7-3.2c0.8-0.4-10.4-13.1-20.5-14.8c0.5-0.9,0.7-1.8,1.2-2.6
	c2.6-2.5,4.5-6.2,0.6-10.6c2.6-3.6,8.6-12.3,8.2-12.5C110.2,138,110.3,133.9,110,134L110,134z M26.4,174c-0.1,0-0.3,30.2-0.1,45.2
	c-0.3,0.6-0.4,3.9-0.4,3.9l9.3-8.7l0.3-11.3c2.4-0.6,17.5,7.1,16.3,7.1c1.2-0.5-7-15.8-16.4-17.5c-0.2-8.7-0.3-18.5-0.5-21.1
	C31.5,172.1,26.4,174,26.4,174z M108.6,192.2c-2.6,0.8-3.7,6.3-2.8,8.9c0.2,0.5,0.1,0.6,0.5,0.1c1-1.5,0.7-4.5,2.5-6
	C113.4,196.7,113,190.5,108.6,192.2z"/>
<path fill="#D40000" d="
	M48.6,227.8l12.2-18.5c14.6,4.9,29.6,5,44.7,2.6l13.5,15.9h-5.5l-8.5-12.2c-3.1,0.7-6.3,1-9.5,1.5l4,10.7h-4.3l-3.1-10.6
	c-7.4,0.3-12.3-0.4-17.4-1l-1.8,11.6h-4.4l3-12c-3.5-0.7-7-1.2-9.9-2.1l-9,14.1H48.6z M62.6,216.9l5.1,1.4l-2.5,9.6h-9.4L62.6,216.9
	z M75.8,227.8l1.4-8.5c3.4,0.7,7.9,0.8,12.5,0.8l2.2,7.7H75.8z M99.9,220l4-1.1l6,8.9h-7.3L99.9,220z M41.3,166.4
	c19.6-22.8,17-46.8,6.2-66.1l2.3-2.4c12.5,20.6,15.1,49.8-7.9,72.6C41.6,169.1,41.3,166.4,41.3,166.4z M119.4,140.7
	c2.8,4.8,4.6,9.7,7.5,14.5l-7.1,9.6L119.4,140.7z M35.1,155.9c-0.2-15.1,0-45.6,0-45.6l6.6-5.1c7.9,9.6,12.2,35-2,51.8
	C38.8,156.3,35.9,156.6,35.1,155.9L35.1,155.9z M128.9,152.8c-18.1-30.6-8.9-53,8.7-72.9c0.1,1.5,0.1,3.1,0.2,4.6
	c-15,17.2-21,42.7-6.3,65.7L128.9,152.8z M96.2,148.4l8.3-11.3c0,0,1.6-4.5,2.9-5.8l1.5-1.3c0.5,0.5,1.5,1.5,1.5,1.5l-0.9,3.5
	c-3.1,4.7-6.3,9.5-9.7,14.2C99.8,149.1,96.9,148.6,96.2,148.4z M140.1,93.7c0.3-0.3,3.6,1.1,3.6,1.1l0.2,46.3l-6.6,4.2
	C135.3,146.2,120.5,115.8,140.1,93.7L140.1,93.7z M71,113.2c3-4.1,6.2-7.6,9.1-11.4c0.8,0.3,2.7,0.3,2.7,0.3
	c0.2,0.1-0.7,3.1-2.8,5.2c-5.9,7.1-7.2,8.4-7.5,11.3c-0.1,0.9-2.2,2-2.2,2l-1.5-1.6C69.3,116.7,70,114.9,71,113.2L71,113.2z
	 M52.4,95.4l6.8-8.9l0.5,23L52.4,95.4z M73.9,37.9l-13-16.2h6.3l7.8,11.6l9.3-1.1l-3.3-10.5h3.9l2.7,10.3C93.1,32,98.7,32.5,104,33
	l2.8-11.5h3.9l-3.6,12l10.5,2.8l9.4-14.8h4.7l-13.2,19C101.1,35.4,87.3,36,73.9,37.9z M111.3,31l3-9.5h8.9l-6.8,10.9L111.3,31z
	 M89.9,28.7L88,21.5h15.6l-2,8C97.5,28.9,93.7,28.7,89.9,28.7L89.9,28.7z M71.2,21.5h6.3l2.4,7.4l-3.6,0.4L71.2,21.5z"/>
<path d="
	M58.7,20.5l15,18c3.2-1.1,18.9-2.9,28.5-0.8c1.7,6.5,3.4,13.1,5.3,18.9c0,0-0.6,0.7-1,1.1c-6.1,7-1.8,13.8,3.8,15.9
	c-1,2.1-11.6,7.3-18.1,6.7c0-0.1-2-4.8-6.1-3.2c-1.4,0.5-2,1.6-3,2.6c-3.9-1.2-9-3.7-11.6-6.5c5,2.5,9.9,3.8,14.7,3.2
	c0,0-0.6-0.5-1.3-0.8c-0.4-0.2-1.4-0.8-2.2-1.3c-2.3-1.5-3.8-3.4-5.4-6.6c-1.8-3.2-2.1-6.7-3.1-9.8c-0.5,1.6-0.8,5.7-2.1,6.6
	c-0.4,0.2-0.4,0.2-0.7-0.7c-1-3.2-4.9-2.8-6.1-0.5c-0.6,2-0.5,2.8,0.3,4.6l-2.3,1.3v0.4L62,70.5l-0.3-0.2c-6.6,3.2-13,6.5-19.8,9.6
	c0,0-3.6,6-6.9,8.3l-0.1-20.2l-9.7-8.8v4.8c0,0,0.5,0.5,0.7,0.7c0.1,33.8,0,67.1,0,97.9v28.3h-0.6v3.3l0.7,0.2L26,199h-0.3l-0.1,3
	l0.5,0.1v16.6l-0.5,0.7v4.8l10.2-9.7l0.2-11c8,1.5,16.3,7.3,16.3,7.3c-1.4-9.2-11.2-16.7-16.7-18.2v-21.7c0,0-4.2,1.7-6.2,2
	c-1,0.1-1.4,0-1.9-0.7c-0.4-0.5-0.4-1,0-2.1c0.1-0.5,0.1-0.7,0-1.2c-0.3-0.7-0.3-1.1,0-2.4c0.3-0.8,0.2-1.2-0.1-1.9
	c-0.3-0.8-0.3-0.9-0.2-1.3c0.3-1.1,0.4-1.3,0.2-1.8c-0.3-1-0.4-1.7,0-2.4c1.5-2.5,4.9-1.9,6.7-1.8c0.9,1,1.5,1.6,1.6,0.1
	c0.6-1.8,3.2,0,4.3,0.8c10-13.4,14.8-31.4,2.4-54l-7,5.6v-7c9.2-5.9,19.5-19.4,24-30c1.5,1.8,3.2,3.5,4.8,5.3L63,79.8l-0.3-0.2
	C59.8,85.1,52.1,95.4,52,95.3c2.9,5.3,5.4,10.7,7.6,16.1l0.6-0.3l0.5,1.6l-1,0.3c3.4,11.2,3.5,21.5,1,31l0.6,2.5
	c0,0,3.6,3.5,4.6,4.5c2.5,2.5,5.4,5.2,5.4,5.2l3.3-3.2l-0.2-0.3l28.8-28.6l1.8,1.7c-17.6,17.7-48.2,48.4-48.2,48.4l-1.1,0.2
	c-0.6,0.1-1.5,0.1-2.1,0.1c-0.9-0.1-1.1,0-1.8,0.3c-0.8,0.4-1.5,1-2.5,2.1c-0.4,0.5-0.7,0.7-1.2,0.9c-6,3.6-0.6,10.8,4.5,7
	c3.8,7.2,6.9,15.5,8.7,23.7c0,0.1-0.7,0.3-0.7,0.3L47,228.8h5.2l0.5-0.9h-3.9L61.1,210c15.7,4.3,30.2,4.9,44.8,2.4l12.7,15.5h-5.1
	l0.7,0.9l6.6,0.1l-14.9-17.7c-5.4,1.4-19.5,2.6-28.4,1.1c-1.4-6.6-3.6-13.8-5.3-19.5c8.5-6.7,2.1-15.5-3.1-16.6
	c-0.3-0.5,10.6-7.1,18.3-6.7c2.2,5.3,7.1,4.6,8.8,0.6c3.2,1.2,7.4,2.4,10.7,5c-4.4-1-9.6-1.5-13.7-1.6c8,3.1,10.3,9.7,11.2,15.8
	c0.2,1,0.7,2.4,0.7,2.4c0.7-2.2,1.2-4.5,2.6-6.5c0.6,2.2,2.9,3.9,5.2,2.6c1.3-1,1.8-2.6,1.4-4.9c-0.1-0.6-0.2-1-0.2-1l1.8-1l0.2,0.2
	c0,0,2-0.8,2.9-1.3c0.2-0.1-0.2-0.4-0.2-0.4l17.9-8.5c-0.1,0,4.5-6.3,7.2-8.8c0.1,7.6,0.1,10.7,0.1,19.5l1,1
	c0.9,0.9,2.9,2.7,7.3,6.8c1,0.9,1.7,1.4,1.7,1.4l-0.1-131.7h-0.1v-2.5h0.2v-6.6l-0.2-0.1v-2.1l0.2-0.2V30h-0.3v-4.3l-10,10.6l0.1,10
	c-4.5-0.6-10-3.5-13.8-5.8c-1.2-0.8-1.9-1-1.9-0.5c0.5,6,9.2,15.1,15.7,17.4v22.4c0,0,1.6-0.8,2.5-1.2l0.1,0.4l2.1-0.9l0.2-0.5
	l1.9-0.2c0,0.4,0.1,0.3,0.1,0.3c1.7,0.5,2.4,1.6,1.7,2.9c-0.2,0.4-0.3,1-0.1,1.2c0.7,1.1,0.9,2.1,0,3.2c-0.3,0.5-0.3,0.9,0,1.4
	c0.9,1.8,0.4,1.7-0.3,2.8c-0.2,0.8,0.7,1.3,0.4,2.1c-0.1,0.5-0.7,1.1-1,1.4c-0.4,0.3-0.8-0.3-0.8-0.3s-1.3,0.6-2.3,0.8
	c-0.9,0.3-2.6,0.9-3.1-0.4c-0.3-0.7-0.1-1.4-0.1-2.2l-1.4-0.2l-0.1,3.7c-0.8,0.4-4-1.2-4-1.2c-13.5,17.5-13.1,37-3.1,53.2
	c0.1,0.3,7.1-4.8,7.1-4.8s0,4.1,0,6.4c-8.9,7.4-17.4,17.1-23.5,29.3l-3.8-4.5c0.7-0.6,0.7-1.5,0.7-2.2l2.8-4.1v-1.1l7.2-10
	c0.1,0.6-7.4-13.5-8.4-17.9l0.5-0.1c-3.4-12.8-2.7-21.6-0.2-32l-0.7-0.7l-9.5-9.5c-0.8,0.7-1.5,1.4-2.3,2.1c-0.1,0.1-0.7,0-0.8,0.2
	c-5,4.7-9.8,9.4-14.4,14.2c-0.1,0.1,0.1,0.6,0,0.8c-4.7,4.9-9.7,9.5-14.4,14.4l-1.8-1.7c16.9-16.9,48.9-48.4,48.9-48.4
	s0.1-0.3,0.4-0.3c0.9,0,1.7-0.2,2.6-0.5c1.1-0.2,1.2-0.3,1.7-0.8c0.3-0.3,0.7-0.7,1-0.9c0.5-0.3,1.5-1.2,3.2-2.7
	c1-0.9,1.6-2.2,1.6-3.3c0-2-1.4-3.8-3.1-4c-0.7-0.1-2.1,0.3-2.9,0.8c-0.5,0.4-0.8,0.5-1,0.4c-3.5-7-6.9-15.8-8.3-23.1
	c-0.1-0.5,0-0.6,0.3-1.2c0.2-0.4,0.7-1.2,1.1-1.8c4.3-6.7,8.8-12.4,12.5-18.5h-5.4l-0.7,1.1h4.4l-13,18.8
	c-24.1-7.9-43.7-2.9-44.2-2.8l-13-16h6l-0.7-1.1H58.7L58.7,20.5z M70.5,20.5l0.7,1.1h6.3l-0.4-1.1H70.5z M80.8,21.5h3.9l-0.2-1.1h-4
	L80.8,21.5z M87.8,20.5l0.2,1.1h15.6l0.3-1.1H87.8z M106.9,21.5h3.9l0.3-1.1h-4L106.9,21.5z M114.6,20.5l-0.3,1.1h8.9l0.7-1.1H114.6
	z M152.6,27.8l0.1,2.9l-6.4,6.8v9.5l-1.9-0.4l-0.1-9.8L152.6,27.8z M150.8,34c0.1,2.9-0.4,5.7,0.4,8.6c0.4,1.5,1.1,3.2,1.2,4.9
	l-2.1-0.1c-0.3-0.9-0.4-1.8-0.7-2.9c-0.8-2.6-1.4-5.4-0.8-8.2L150.8,34z M104.7,38.7c0.1,0.1,0.3,1.4,0.6,2.5
	c1.1,6.2,2.6,10.9,4.1,15.5c1.9,5.9,4.8,13.4,7.6,16.8c0.4,0.4,0.6,0.9,0.4,1.1c-0.2,0.4-1.4-0.1-2.1-0.9c-0.3-0.3-0.9-1.3-1.4-2.1
	c-1-1.8-2.3-4.5-2.4-4.9c-0.1-0.2-0.6-1.5-1.1-2.9c-1-2.5-1.6-4.2-2.4-7c-0.7-2.2-1.3-4.5-2-6.8c-1.2-3.8-1.9-6.8-2.6-10.3
	c-0.1-0.5-0.3-1.1-0.2-1.2C103.5,38.3,104.5,38.4,104.7,38.7z M105.4,39c-0.1-0.1,1.1-0.1,1.5,0.2c0.1,0.1,0.3,0.8,0.5,1.8
	c1.1,5.7,2.8,11.7,4.7,17.2c1.6,4.5,3.2,8.8,5.4,12.3c0.7,1.2,1.6,2.4,2.7,3.8c0.6,0.8,0.7,0.9,0.5,1.1c-0.2,0.3-0.6,0.2-1.3-0.1
	c-0.7-0.3-1.4-1-2.1-2c-0.2-0.3-0.6-0.8-0.8-1.1c-3.1-5.4-5-10.5-6.7-15.6c-1.8-5.3-3.3-10.7-4.4-16.8
	C105.4,39.4,105.4,39.2,105.4,39L105.4,39z M109.3,39.8c0.3,0.3,0.4,0.8,0.7,1.9c1.3,5.3,2.4,10.1,3.9,14.4c0.8,2.4,1.5,4.7,2.4,6.9
	c1.4,3.5,3.1,6.8,5.3,9.4c0.7,0.9,2,2,3,2.6c0.7,0.4,0.8,0.6,0.8,0.8c-0.1,0.2-0.8,0.3-1,0.3c-1.2-0.2-2.9-1.1-3.4-1.8
	c-3.6-3.9-6.1-10.2-8-15.3c-3.2-8.9-5.8-19.9-5.3-19.6C107.6,39.1,109,39.4,109.3,39.8L109.3,39.8z M110.8,40.1c0.1,0,0.2,0,0.4,0.1
	c0.7,0.2,0.8,0.3,0.9,1c1.1,5.1,2.3,9.6,3.7,13.8c1.4,4.3,2.8,8.4,5,12.7c1.6,3.1,3.7,5.3,5.8,6.4c0.6,0.3,1.2,0.6,1.2,0.7
	c0.1,0.1,0,0.2,0,0.4c-0.1,0.2-0.2,0.3-0.8,0.3c-1,0-1.7-0.3-2.8-1c-2.8-1.9-5.3-6.3-6.3-8.8c-1.3-3-2.5-6.2-3.6-9.6
	c-2-6.2-3.2-10.2-4.1-15.4C110.3,40.3,110.5,40.1,110.8,40.1L110.8,40.1z M152.6,48.3v1.8c-7.1,0.5-14.2-2.5-20-5.2
	c4.4,5.8,9.1,11,20,12v1.9c-14.3-0.2-24.4-14.8-23.9-18.3C134.6,44.3,145.2,48.7,152.6,48.3L152.6,48.3z M113.1,40.8
	c0.3,0,0.8,0.2,1,0.3c1.2,4.4,2,9.3,4,14.2c2.4,6,3.7,11.3,8.1,16.2c1.4,1.4,4.1,1.4,4.1,1.4s-0.3,0.8-0.8,0.9
	c-0.9,0.1-1.6,0.2-2.3,0c-2.6-1.1-4.5-3.8-5.5-5.7c-0.9-1.4-3.3-7.1-5.2-13c-2.1-6.4-3.8-13-3.6-14.3
	C112.9,40.8,113,40.8,113.1,40.8z M115.5,41.5c0.2,0,0.4,0.1,0.7,0.2c0.3,0.1,0.4,0.2,0.6,0.8c0.1,0.4,0.1,0.9,0.3,1.8
	c1,4.6,2.4,8.3,3.7,11.9c1.3,3.4,2.7,6.8,4.4,9.9c0.9,1.5,1.7,3,2.3,3.5c1.5,1.5,4,1.6,4.7,0.1c0.4-0.8,0.3-2.2-0.5-2.8
	c-0.6-0.6-2.1-0.3-2.1,0.4c0,0.2,0.4,0.1,0.9,0c1.4-0.2,1.9,2.4,0,2.8c-2.3,0.5-4-2.6-1.9-4.6c3.5-2.4,6.2,0.9,5.4,4
	c-0.8,1.8-2.1,2.8-3.9,2.9c-2.3,0.1-3.2-0.6-5.6-4c-2.7-4.3-3.9-8.5-5.7-13.2c-1.8-4.5-3-9.2-3.5-13.4
	C115.2,41.6,115.3,41.5,115.5,41.5L115.5,41.5z M117.7,42.3c0.2,0,0.6,0.1,0.8,0.2c0.1,0.1,0.3,0.2,0.3,0.2
	c3.2,11.5,5.8,18.3,8.5,23.2c0,0,0,0.9-0.2,1.1c-0.3,0.5-0.5,0.3-0.9-0.4c-1.7-3.3-3.3-6.9-4.8-10.6c-1.8-4.4-3.3-8.9-4-13.2
	C117.4,42.4,117.3,42.3,117.7,42.3z M138.8,48.7c0.4,0,0.8,0.4,0.8,0.8s-0.4,0.8-0.8,0.8s-0.8-0.4-0.8-0.8S138.4,48.7,138.8,48.7z
	 M73.7,48.6c-0.9,1.3-1.7,5.8-2.7,5.9c-1.1,0-2.4-0.6-3.2,0.3c-1,1.2-0.4,2.5,0.9,3.2c0.6,0.3,1.8,0.4,2.6,0.1
	C74.3,57.1,75.4,52.2,73.7,48.6L73.7,48.6z M141.9,49.8c0.6,0,1.2,0.5,1.2,1.2c0,0.7-0.5,1.2-1.2,1.2c-0.6,0-1.2-0.5-1.2-1.2
	C140.7,50.3,141.3,49.8,141.9,49.8z M73.7,50.3c1,2.6-0.1,5.8-1.4,6.8c-1.2,1-3,1.1-4.1,0.2c-0.9-0.8-0.5-2.8,1.1-2.7
	c0.5,0,1.2,0.5,1.6,1C72,55.8,73.3,50.4,73.7,50.3z M145.9,51c0.7,0,1.3,0.6,1.3,1.3c0,0.7-0.6,1.3-1.3,1.3s-1.3-0.6-1.3-1.3
	C144.7,51.6,145.1,51,145.9,51z M150.5,51.9c0.7,0,1.3,0.6,1.3,1.3c0,0.7-0.6,1.3-1.3,1.3s-1.3-0.6-1.3-1.3
	C149.2,52.5,149.8,51.9,150.5,51.9z M107.4,58c0.2,0,0.3,0.2,0.5,0.6c0.3,0.8,0.3,0.9-0.2,1.4c-4.1,5.7-0.4,11.6,5.6,12.2
	c0.5,0,0.8,0.6,1,1.3c0,0.3,0,0.3-1.4,0.3c-0.9,0-1.6,0-2-0.2c-2.1-0.6-4.7-2.5-5.7-4.2c-1.2-2-1.4-4.1-0.7-6.9c0.5-1.8,1.1-3,2-4
	C106.9,58.2,107.2,58,107.4,58z M146.3,58.7l0.1,19.5l-2.1,0.8l0.1-20.8L146.3,58.7z M150.3,59.4c2.6,6.5,2.7,12.4,0.4,17.7
	l-2.4,0.3c3.3-7.6,1.9-13,0-18.2L150.3,59.4z M26,60.5l8.5,8l0.3,88.6l-1.3-0.5L33,69.5l-6.9-6.3L26,60.5L26,60.5z M108.1,60.7
	C108.2,60.7,108.2,60.7,108.1,60.7c0.3,0,0.5,0.3,0.7,0.9c0.2,0.6,0.2,0.7,0,1.3c-1.2,2.8-0.2,5.6,2.7,6.4c0.7,0.2,0.8,0.3,1.2,1.2
	c0.3,0.5,0.4,0.7,0.3,0.9c-0.1,0.1-0.5,0.2-1.6-0.1c-4.3-1.5-5.8-6.1-3.9-9.8C107.7,61,107.9,60.8,108.1,60.7L108.1,60.7L108.1,60.7
	z M74.4,60.4c0,0,0.9,3.1,0.8,3.9c-0.2,1.4-2.2,3.6-3.9,4.4c-1.6,0.6-4,0.3-5-0.8c-3.6-4.3,3.2-8.6,4.9-4.1c1,2.9-3.2,3.6-3.3,1.4
	c0-0.6,0.2-0.8,0.7-1.1c0.5-0.3,0.4-0.6,0-0.6c-1.6,0.6-1.6,2-0.9,3c1.4,1.5,3.2,0.6,4.4-0.5C73.7,64.4,74,62.3,74.4,60.4L74.4,60.4
	z M109.5,63.6c0.1,0,1.8,4,2,4.6c-0.1,0.4-0.5,0.4-1.2-0.1c-0.8-0.5-1-0.9-1.3-2.1C108.8,65.5,108.7,63.9,109.5,63.6z M75.8,65.3
	c0.4,0,0.8,1.4,0.6,2c-0.3,1.2-3.4,3.2-5.6,3.6c-0.4,0.1-0.9,0.2-1.1,0.2c-0.5,0.1-1-0.2-1.5-0.7c-0.4-0.4-0.6-0.8-0.5-0.9
	c0.1-0.1,1.1,0.1,1.9,0.1c2.4,0,4.3-1.7,5.7-3.8C75.5,65.6,75.7,65.3,75.8,65.3L75.8,65.3z M28.2,66.3c0,0,1.6,1.5,2.5,2.3
	c-0.1,3.9-1.5,8.2-1.5,11.7c0,3,2,5.6,2.2,8.2c0.1,1.7-0.4,4.3-1.2,6.2c-0.8,1.8-1.2,3.7-1.2,5.6c0.1,4.3,3.2,9.1,2.1,13.4
	c-1,4-2.2,6.3-1.9,8.5c0.6,4.1,2.8,7.8,2.2,11.2c-0.5,3.2-2,6.4-1.8,9.3c0.2,3.3,1.4,6.1,1.8,9.1c0.2,2-0.3,5.1-0.3,5.1l-2.3,0.2
	c1.3-4.7-0.6-8.9-1.3-13.4c-0.6-3.8,1.1-6.9,1.6-10.1c0.3-2,0-4-1-6.5c-2-4.8-1.3-7.9,0.2-12c1.8-4.4-0.7-7.9-1.3-12.2
	c-0.3-3.6-0.1-6.2,1.3-9.5c1-3.1,1.3-4.9-0.2-7.9c-1-1.9-1.2-3-1.2-5.5C27.2,74.9,28.5,72.2,28.2,66.3L28.2,66.3z M76.9,68.3
	c0.4,0,0.5,0.2,0.5,0.8c0,0.9-1.4,2.1-3.8,3.2c-1.3,0.6-2,0.7-2.7,0.3c-0.7-0.3-0.7-0.6,0.1-0.8c1.9-0.6,3.3-1.3,4.8-2.7
	C76.2,68.7,76.7,68.3,76.9,68.3L76.9,68.3z M65.9,68.9c6.3,6.7,12.3,10.2,17,11.8l-0.7,1.8c-6.2-2.4-12.4-5.7-17.7-12.9L65.9,68.9z
	 M78,70c0.2,0,0.8,0.8,0.8,1c0,0.1-0.2,0.5-0.5,0.9c-0.4,0.5-0.8,0.8-1.8,1.4c-1.4,0.8-2.3,1-2.9,0.6c-0.6-0.3-0.4-0.6,1.1-1.5
	c0.8-0.5,1.8-1.2,2.3-1.6C77.5,70.4,77.9,70,78,70z M61.3,71c5.1,7,11.7,11.7,19.4,14.2l-1.2,1.7c-7.1-2.5-14-6.9-20.3-14.7L61.3,71
	z M79.2,71.9c0.3,0,0.8,0.7,0.8,0.9c0,0.1-0.1,0.4-0.3,0.6c-0.3,0.3-1.7,1.4-2.3,1.7c-0.5,0.2-0.8,0.2-1.4,0
	c-0.6-0.3-0.5-0.6,0.5-1.2c0.5-0.3,1.2-0.9,1.7-1.3C78.7,72.2,79.1,71.9,79.2,71.9L79.2,71.9z M58.6,72.4
	c-0.1,0.2-7.6,17.1-23.2,29.2l-0.1-2.8c8.7-6.9,14.9-16.3,19.7-24.5L58.6,72.4z M80.7,73.6c0.2,0,0.4,0.2,0.6,0.5
	c0.2,0.4,0,0.7-0.9,1.4c-0.5,0.4-0.8,0.5-1.2,0.5c-1.2,0-1.1-0.3,0.1-1.5C80,73.9,80.4,73.6,80.7,73.6L80.7,73.6z M110.9,74.5
	l3.3,0.3c0.9,0.6-12.7,9.6-22.2,8.8l0.3-2.1C100.5,81.5,111.2,74.9,110.9,74.5z M82.9,75.3c0.8,0.4,1.7,0.9,1.5,1.1
	c-0.3,0.2-2.6,0.1-3.1-0.2c-0.4-0.2-0.4-0.3,0.2-0.9C82.1,74.6,82.2,74.9,82.9,75.3z M53.9,74.8c-5.2,9.2-11.3,17.4-18.4,22.9
	l-0.1-4.8c6.8-5.2,11.9-14.8,11.9-14.9L53.9,74.8z M118.7,75.4l1.6,0.9c-9.9,9.2-20.5,13.1-30.8,12.1l0.8-1.9
	C106.9,87.8,118,75.5,118.7,75.4z M121.1,75.7c0,0,0.5-0.1,0.5,0c-3.3,3.2-7.8,6.7-10.8,8.6c-13.9,14.4-25.9,25.6-38,38.5l-2-2
	l1.8-1.9c0-3.7,4.5-7.8,7.2-11c1.1-1.3,3.2-4.5,3-5.9c-0.1-0.3-0.1-0.4-0.1-0.4c4.2-0.8,5.3-4.3,5.3-7.3c0.2-2,0.5-3.9,1.2-5.5
	C108.2,90.2,120.5,76.2,121.1,75.7z M87.7,77.8c2.2,0,3.8,1.7,3.8,4.2c0,1-0.4,1.8-1.8,4.5c-1.3,2.3-1.5,3.7-2,6.4l-1.4-1.2
	l-2.5,2.2v-3.3c0,0,0.9-1.1,2.2-2.6c1.8-1.9,3.3-4.5,3.3-5.9c0-1.4-1.5-2.6-3.1-1.6c-1.3,0.9-1.9,2.6-2.7,7.6
	c-0.1,0.9-0.3,1.9-0.3,2.2c-0.2,0.6-2.1,2.4-2.1,2.4c-0.2,0-0.9-3.7-0.9-3.7l-1.9,0.3c2.2-2.4,4-5.4,5.1-8.4
	C84.5,78.9,85.8,77.8,87.7,77.8L87.7,77.8z M45.9,78.5c0,0-3.8,8-10.6,13.2v-3.1c3.9-3,6.9-8.3,6.9-8.3L45.9,78.5z M138.1,78.7
	c-13.2,13.8-30.7,39.2-9.1,74.9l2.9-3.3c-17.3-32.3-5.1-48.9,6.4-65.8L138.1,78.7z M66.2,79.8c3.9,2.8,8,5.5,13.2,7.3
	c-0.3,0.9-7.5,7-2.3,12.7c0.2,0.3-0.3,1-1.2,2c-2.5,3.4-5,5.8-7,9.6l-0.1,7.2l-2.1-1.8L66.2,79.8z M137.6,80.5l0.1,4.1
	c-19.7,24-17.5,45.7-6.4,65.6l-2.1,2.2C110.8,120.9,122.3,97.1,137.6,80.5L137.6,80.5z M88.8,82.9c-0.9,2.3-4.7,6.3-4.7,6.3
	s0.5-3.9,0.8-5.1c0.2-0.9,0.8-2.2,1.3-2.8C87.8,79.6,89.4,81.6,88.8,82.9z M62.6,80.7l0.4,32.2l-2.8-2.8l-0.4-24.6L62.6,80.7z
	 M58.8,87.1l0.6,21.8c-2.8-6.6-6.7-13.8-6.8-13.7C52.7,95.3,55.8,91.1,58.8,87.1z M80.8,93.9c0,0,0.4-0.4,1.1-1.1
	c1.4-1.5,1.6-1.5,1.4,0.5c-0.1,0.8,0,1.7,0,1.7c0.8-0.5,2.8-2.8,3.4-2.4c0.4,0.4,0.8,1.3,0.8,2.6c-0.1,2.6-1.5,5-3.8,5.8
	c-6.4,2-10.7-5.4-6.3-10.1c0.4-0.5,1.7-1.3,2.3-1.2C80.4,91.1,80.4,92.6,80.8,93.9z M144.3,91.6c0.4,1,0.9,2,2.2,2.5
	c-0.2,31.3-0.1,86.8-0.1,86.8l6.3,5.9v2.6l-8.4-7.7C144.3,181.7,143.9,116.3,144.3,91.6L144.3,91.6z M150.5,93.1
	c0.2,3-0.3,6.2,0.2,9.4c0.5,2.2,1.3,4.1,1.4,6.2c0.1,1.9-0.1,3-0.9,5.8c-0.6,1.9-0.6,2.2-0.8,4.1c-0.3,2.6,0.5,5,1.2,7.1
	c0.9,2.8,0.6,6.2-0.8,10.6c-0.5,1.6-0.6,2.3-0.5,3.7c0.2,3,1.3,5.9,1.8,8.9c0.3,1.7,0,3.9-1.1,7.7c-0.4,1.4-0.8,3.9-0.8,4.8
	c0,1,0.3,2.9,0.6,3.7c1.5,3.8,1.5,4.5,1.6,6.8c0,1.7-0.5,3.5-1.1,5c-1,2.4-0.4,4.9,0,7.7l-2.5-2.2c-0.7-2.3-0.5-4.5,0.2-6.3
	c1-2.7,1.2-3,1.2-4.6c0-2.1-1.2-4.6-1.7-6c-0.9-2.6-0.9-5.2,0-7.9c0.4-1.4,1-4,1.2-5.1c0.3-2.1,0.1-3.7-1-7.9
	c-0.5-2-0.6-2.8-0.7-4.8c0-1.9,0.2-3.8,0.8-6.1c0.9-3.6,0.9-5.7-0.3-9.1c-0.9-2.7-1.2-4.6-0.9-6.8c0.1-1.3,0.5-2.5,1.1-3.6
	c1.1-2.7,1.2-5.3,0.4-7.8c-1.4-5.3-1.4-7.9-1.2-12.7L150.5,93.1z M143.5,94.8c-0.2,21.4,0,46.1,0,46.1s-6.4,4.5-6.3,4.2
	c-8.2-13.6-11.2-33.4,3-51.3C140.2,93.7,142.5,94.7,143.5,94.8L143.5,94.8z M47,99.9c11.5,21.6,13,43.6-6.1,66
	c0.6,2,0.5,3.8,0.2,5.7c3.7-2.9,33.6-32.9,8.5-74.6L47,99.9z M105.9,98.2l5.7,0.3l0.4,4.9l-1.8,1.8c0,0,0-1-0.1-1.9
	c0-1.1-0.2-2.1-0.3-2c-0.1,0-0.2,1.3-0.3,2.7l-0.1,2.1l-0.6,0.6c-0.9,0.9-1,0.8-1.1-0.4c-0.1-2.6-0.1-2.8-0.3-2.6
	c-0.1,0.1-0.2,1-0.2,2.3c0,1.1-0.1,2.1-0.2,2.3c-0.1,0.4-1.2,1.3-1.5,1.3s-0.3-0.4-0.3-2c0-1.4-0.1-2.1-0.4-1.6
	c-0.1,0.1-0.1,1.5-0.2,2.6c0,1.1-0.1,2.1-0.2,2.2c-0.2,0.4-1.4,1.4-1.6,1.3c-0.3-0.1-0.4-0.9-0.3-2.3c0-0.7,0.1-1.2-0.1-1.4
	c-0.3-0.2-0.3,0.6-0.2,2.5v2.1l-0.7,0.8c-1.1,1.2-1.2,1.1-1.2-0.9c0.1-1.6,0-2.3-0.3-2.2c-0.3,0.1-0.2,0.9-0.1,2.5
	c0.1,1.4,0,2.1-0.1,2.3c-0.1,0.1-0.4,0.6-0.8,0.9c-0.4,0.3-0.8,0.9-0.9,0.9c-0.1-1.7-0.2-5.3-0.2-5.3l-6-0.3c0,0,1.2-1.4,1.7-1.7
	c0.3-0.1,0.7-0.2,2.2-0.1c1,0,2.4,0,2.5-0.1c0.4-0.2-0.5-0.3-1.8-0.4c-0.9-0.1-1.1,0-2.1-0.2l0.9-0.9l0.7-0.6l1.9,0.1
	c1.1,0,2,0,2.1,0c1.1-0.2,0.1-0.5-1.2-0.5c-1.3,0-2,0-2-0.3s1.4-1.6,1.8-1.6c0.2,0,1.2-0.1,2.3-0.1c1.8,0,2.4,0,2.3-0.3
	c-0.1-0.3-1.3-0.2-2.1-0.2c-2.2,0-2.3-0.1-0.8-1.4l0.7-0.6h1.4c2.1,0.1,3.1,0,3.1-0.2s-1.3-0.3-2.5-0.3c-0.7,0-1.2,0-1.2,0
	c0.5-0.7,1.1-1.2,1.7-1.8h1.8c1.3,0,2.2,0.1,2.2-0.2c0-0.2-0.5-0.2-1.1-0.2c-0.8,0-1.8-0.1-2-0.2c-0.1-0.1,0.1-0.5,0.7-1.1
	L105.9,98.2L105.9,98.2z M49.7,98.2c15.9,26,10.2,54.1-7.6,71.7l-0.5-3.4c16.7-20.4,19.6-41.5,6.1-66.2L49.7,98.2z M79.2,101.7
	c-2.9,4.3-7.3,8.6-8.9,12.1c-0.3,0.4-0.4,1.3-1,1.5c-0.3,0-0.3-0.5-0.3-1.6c0-0.9,0.1-1.2,0.5-2c2.3-4.1,4.9-7.1,7.8-11L79.2,101.7z
	 M79.9,102.1l2.7,0.2c-0.6,1.9-1.4,3.2-2.3,4.4c-1.2,1.6-2.6,3.1-4.3,5.1c-2.4,2.8-3.7,5.6-3.6,6.9c-0.6,0.6-1,1.1-1.8,1.7l-1.5-1.4
	C70.2,113,75.8,107.7,79.9,102.1L79.9,102.1z M112.2,104.5h0.9c2.9,0.2,4.8,0.4,4.9,0.5s0.2,0.5,0.2,1c0.1,0.7,0,1.2-0.4,2.9
	c-0.2,1.1-0.5,2.1-0.6,2.2c-0.3,0.3-0.5,0-0.6-1.6c-0.1-1-0.1-1.7-0.3-1.6c-0.1,0-0.2,1.1-0.2,1.8c0.1,2,0.1,2.5-0.5,3.1
	c-1.1,1.1-1.2,1-1.2-0.9c0-0.8-0.2-1.9-0.3-2c-0.2-0.2-0.3,0.8-0.3,2.7v2l-0.5,0.6c-0.7,0.7-0.9,0.8-1.1,0.6
	c-0.2-0.2-0.1-0.5-0.1-1.6c0-1.3-0.2-2.1-0.5-1.8c0,0-0.1,1.3-0.1,2.4c0,1.1,0,2.1,0,2.2c0,0.3-1.3,1.5-1.5,1.5
	c-0.3,0-0.5-1.4-0.5-2.6c0-0.8-0.2-0.9-0.3-0.5c0,0.1-0.1,1.2-0.1,2.2v1.8l-0.7,0.8c-1,1-1.1,0.9-1.1-0.4c0-1.2-0.1-1.8-0.3-1.8
	c-0.1,0-0.2,0.6-0.2,1.9c0,0.9-0.1,1.8-0.1,2c-0.1,0.2-0.4,0.6-0.7,0.9c-0.3,0.3-0.6,0.6-0.7,0.6s-0.3-1.1-0.3-1.6
	c0-0.1,0-0.8,0-1.6c0-1.8,0.1-1.7-2.8-1.8c-3.4-0.1-3.5-0.1-2.4-1.1c1-0.9,0.8-0.9,3.1-0.8c1.8,0.1,2,0.1,2.2-0.1
	c0.1-0.1,0.2-0.2,0.1-0.3c0,0-0.7-0.1-1.5-0.1c-2.2-0.1-2.4-0.3-1.5-1.2l0.5-0.5h2.3c1.6,0,2.6-0.1,2.7-0.2c0.1-0.2-0.5-0.3-1.9-0.4
	c-0.8,0-1.5-0.1-1.7-0.1c-0.4-0.1-0.2-0.5,0.4-1.1l0.6-0.6h2c1.9,0,2.8-0.1,2.8-0.4c0-0.2-0.4-0.2-1.3-0.3c-1.4,0-2.3-0.1-2.3-0.3
	c0.3-0.6,0.8-1,1.3-1.5l2.1,0.1c2.1,0.1,2.7,0,2.7-0.4c0-0.2-0.9-0.3-2-0.3c-0.7,0-1.6-0.1-1.6-0.4c0-0.1,0.3-0.5,0.7-0.9l0.7-0.7
	l2,0.1c1.1,0,2.3,0,2.4,0c0.3-0.2-0.4-0.4-1.7-0.5c-2-0.1-2.1-0.3-1.1-1.2L112.2,104.5z M41.9,105.6c10.5,18.7,8.9,36.4-2.3,51.3
	c-1.3-0.7-2.6-1.2-4.1-1.3l-0.3-45.3L41.9,105.6z M116.6,112.9c0.2,0,0.2,0.3,0.1,1c0,0.6-0.1,1.2-0.2,1.4c-0.1,0.3-0.2,0.3-1.2,0.2
	c-1.2-0.2-1.1-0.4,0.1-1.6C116.1,113.2,116.4,112.9,116.6,112.9L116.6,112.9z M60.5,113.7c0,0,1.4,0,2.1,0c0,0,0.1,3.5,0.4,5.5
	l4.5,0.2l-1.7,1.8l-3.4-0.1C62.3,121.2,61.3,116.2,60.5,113.7z M113.9,115.8c0.6,0,2.3,0.3,2.5,0.5c0.2,0.2,0.2,0.5,0,2.8
	c0,0.8-0.1,2.6-0.1,3.9c0,2.4,0,2.4-0.3,2.5c-0.4,0.1-0.4-0.1-0.5-1.7c-0.1-0.9-0.2-1.7-0.3-1.7s-0.1,0.7-0.1,2.4v2.1
	c-0.4,0.3-0.7,0.7-1.1,0.9c-0.3,0-0.4-0.4-0.5-1.5s-0.2-1.9-0.4-1.6c0,0.1,0,1.2,0.1,2.2l0.1,1.8l-0.8,0.8c-0.8,0.8-0.9,0.9-1,0.7
	c-0.3-0.8,0.1-4.5-0.6-5c-0.1-0.1-1.1-0.1-2.2-0.1c-1.9-0.1-3-0.1-3.2-0.3c-0.2-0.1,0.7-1.2,1.2-1.4c0.3-0.1,0.7-0.2,2.3-0.1
	c1.8,0.1,2.7,0.1,2.5-0.1c-0.1-0.1-1-0.2-1.7-0.3c-1.5-0.1-2-0.3-2-0.6c0.3-0.6,0.8-1,1.3-1.5l0.7,0.1c0.4,0,1.3,0.1,2,0.2
	c0.7,0.1,2.2,0.1,1.6,0c0.2-0.2-0.6-0.4-1.6-0.5c-2-0.2-2.2-0.5-1.2-1.4l0.6-0.6c1,0.1,2.1,0.1,3.1,0.3c0.8,0.1,1.2,0.1,1.2-0.2
	c0-0.2-0.4-0.2-1.3-0.4c-0.3-0.1-2,0-2.1-0.5C112.4,116.9,113.2,115.9,113.9,115.8L113.9,115.8z M68,120.1c0.3,0,0.3,0.7,0.3,2.7
	c0,2.1,0.1,2.5,0.3,2.7s0.6,0.2,2.5,0.3C74,125.9,74,126,73,127c-0.7,0.7-0.7,0.6-1.3,0.5c-1.5-0.2-3.7-0.1-3.8,0
	c-0.1,0.2,0,0.3,1.4,0.4c1.7,0.1,2.1,0.2,2.1,0.5c0,0.1-0.3,0.5-0.6,0.8l-0.6,0.6l-1.8-0.1c-1.9-0.1-2.8-0.1-2.8,0.2
	c0,0.2,1.1,0.3,2.7,0.5c0.4,0,0.9,0.1,0.9,0.1c0.1,0.2-0.8,1.2-1.3,1.6c-0.4,0.3-0.6,0.1-2.4,0.1c-1.9,0-2.1,0-1.7,0.4
	c0.1,0.1,0.4,0.1,1.1,0.1c1.2,0.1,1.7,0.3,1.7,0.5c0,0.3-1.1,1.4-1.5,1.6s-0.6,0.2-1.6,0.1c-0.8-0.1-0.9-0.3-0.9-1
	c0-0.3,0.1-2.4,0.1-4.6c0.1-4.3,0.1-4.5,0.7-4.4c0.2,0,0.3,0.3,0.4,1.8c0.1,1.5,0.1,1.9,0.4,1.9c0.1,0,0.1-0.6,0.1-2.1
	c-0.1-2.3-0.1-2.7,0.6-3.3c0.3-0.3,0.6-0.5,0.7-0.3c0.3,0.9,0.2,1.9,0.3,2.8c0,0.9,0.4,1.1,0.4,0.2c0-1.4-0.1-2.6-0.1-4.1l0.9-0.9
	C67.6,120.4,67.9,120.1,68,120.1L68,120.1z M62.5,121.8c0.3-0.1,2.3,0,2.5,0c-0.5,0.8-1.5,1.8-2.2,2.2
	C62.6,124.1,62.4,122.2,62.5,121.8z M116.4,126l0.4,2.9l-3.1-0.2L116.4,126z M74.5,126.5C74.6,126.5,74.6,126.5,74.5,126.5
	c0.3,0.1,0.3,0.6,0.4,3.3c0,1.3,0.1,2.2,0.2,2.3s0.5,0.2,1.2,0.2c0.6,0,1.7,0,2.5,0.1c1.7,0.1,1.7,0.2,0.7,1.2l-0.7,0.7l-2.1-0.1
	c-2.1-0.1-2.5-0.1-2.5,0.2c0,0.2,0.4,0.3,1.1,0.3c0.3,0,1,0,1.5,0.1c1.3,0.1,1.3,0.2,0.3,1.2l-0.7,0.7l-0.7-0.1
	c-1.1-0.1-3.8-0.1-4,0.1c-0.3,0.3,0.1,0.4,1.3,0.4c2,0.1,2.3,0.2,2.3,0.4c0,0.1-0.3,0.5-0.6,0.8l-0.6,0.6l-2.5-0.1
	c-1.7,0-2.3,0-2.4,0.1c-0.1,0.2,0.2,0.3,2,0.4c1.7,0.2,2,0.4,1.3,1.2c-0.7,0.9-1,1-2.3,0.9c-1.5-0.1-3-0.1-3.2,0
	c-0.3,0.2,0,0.4,1.1,0.4c1.6,0.1,2.5,0.3,2.5,0.5c0,0.3-0.5,0.9-1,1.3l-0.4,0.3l-1.8-0.2c-1.8-0.2-2.8-0.1-2.5,0.2
	c0.1,0.1,0.8,0.2,1.5,0.2c1.4,0.1,2.1,0.3,2.1,0.6c0,0.1-0.4,0.5-0.8,0.9c-0.4,0.4-0.9,0.7-0.9,0.7l-5.6-0.5c0,0-0.3-1,0.3-3.7
	c0.5-2.5,0.7-3,1-2.6c0.1,0.1,0.1,0.7,0.2,1.1c0.1,1,0.4,1.6,0.5,1.6c0.2,0,0.2-0.6-0.1-2c-0.3-1.9-0.3-2,0.4-2.8
	c0.6-0.7,1-0.8,1.2-0.5c0.1,0.1,0.1,1,0.2,1.7c0.1,1.3,0.2,1.6,0.4,1.4c0.1-0.1,0.2-0.5,0.1-2.4l-0.2-1.9l0.8-0.8
	c0.8-0.8,0.8-0.8,1-0.6c0.1,0.1,0.2,0.9,0.3,1.9c0.1,1.4,0.2,1.9,0.4,1.7c0.1-0.1,0.1-3.3-0.1-4c-0.1-0.5,0-0.6,0.6-1.2
	c0.7-0.8,1.1-1.2,1.3-1.2c0.3,0,0.4,0.8,0.4,1.9s0.1,1.6,0.2,1.7c0.3,0.4,0.3-0.9,0.2-2.2l-0.1-2.3l0.7-0.8c0.7-0.7,0.8-0.7,1-0.5
	s0.2,0.6,0.2,1.7c0.1,1.6,0.4,2.4,0.5,1.3c0-0.3,0-0.7,0-1.1c0-0.4-0.1-1.1-0.1-1.8c0-0.9,0-1.2,0.3-1.6
	C73.3,127.4,74.2,126.5,74.5,126.5L74.5,126.5z M106.9,128.3c0,0,1.3,1.1,1.3,1.4c0,0.1-0.5,0.7-1.2,1.4c-1.2,1.2-1.4,1.4-1.5,2.7
	c-0.1,0.5-0.3,1.1-0.9,2.3c-0.4,0.9-1.1,1.9-1.1,1.9c-2,2.4-3.9,4.5-7.3,9.6c-0.2,0.5-0.2,0.9-0.4,1.3c-0.2,0.3-0.5,0.5-0.7,0.6
	c-0.2,0.1-0.7,0.4-1,0.6c-1.3,1-2.1,2.3-2.5,3.9c-0.2,0.9-0.3,1.7-0.7,4.4c-0.1,1.1-0.6,3.1-0.6,3.1c-7.5-0.1-14.4,1.2-20.6,4.7
	L106.9,128.3z M116.9,129.4l1.7,7.6h-1.7l-0.2-5.5l-5.3-0.5l1.9-1.9L116.9,129.4z M108.8,130.1c0.5,0.5,1,1,1.4,1.5
	c-1.4,4.8-6,11-10.5,17l-3.3-0.4c-0.1-0.1,4.6-6.6,6.8-9c0.8-1,1.4-2,2.2-3.5c0.3-0.5,0.7-2,1.1-3.4
	C107.3,131.5,108.8,130.1,108.8,130.1L108.8,130.1z M110.5,131.8l2.5,2.5l0.6,35.7c-3.8-3-8.4-5.3-13.1-7l0.8-1.9l0.9-1
	c3.3-3.6,2.6-7.4,0.1-10.1c3-4.4,5.8-7.8,8.1-12.1v-3C110.3,132.3,110.5,131.8,110.5,131.8L110.5,131.8z M80.8,133.3
	c0.3,0,0.3,0.6,0.4,2.5c0.1,1.8,0.1,2.6,0.3,2.8c0.2,0.2,0.3,0.3,2.4,0.3c2.2,0.1,2.6,0.1,2.6,0.4c0,0.1-0.3,0.4-0.6,0.7l-0.6,0.6
	h-1.9c-1,0-2.3,0-2.3,0c-0.2,0.2,0.5,0.4,1.4,0.4c0.6,0,1.5,0.1,1.6,0.1c0.4,0.1,0.2,0.5-0.6,1.3l-0.8,0.8h-1.8c-1,0-2.2,0-2.3,0.1
	c-0.5,0.2-0.3,0.3,0.6,0.3c1.5,0,2.5,0.1,2.6,0.4c0,0.1-0.3,0.5-0.6,0.9l-0.7,0.7l-2.6-0.1c-2.5,0-2.8,0.2-0.7,0.4
	c0.8,0.1,2,0.3,2.1,0.3c0,0,0.1,0.1,0.2,0.2c0.1,0.2-0.9,1.3-1.4,1.6c-0.3,0.1-0.5,0.1-0.9,0c-0.6-0.1-2.9-0.1-3.2,0.1
	c-0.2,0.1,0.3,0.3,0.9,0.3c1,0,2.2,0.3,2.2,0.5c0,0.2-0.5,0.8-1,1.3c-0.2,0.2-0.8,0-2.5,0.1c-1.1,0-1.9,0.1-1.9,0.2s0.6,0.3,1.3,0.3
	c0.7,0.1,1.7,0.2,1.8,0.3c0.2,0.2-1.1,1.7-1.1,1.7l-5.4-0.1l-0.5-5.7l0.5-0.5c1-1.2,1.3-1,1.5,1.1c0.2,1.6,0.3,2.1,0.5,1.8
	c0.1-0.1,0.1-1,0-2.3c-0.1-1.1-0.1-2.1-0.1-2.2c0-0.3,1.2-1.6,1.5-1.5c0.2,0,0.4,0.6,0.5,2c0.1,1.2,0.2,1.5,0.4,1.3
	c0.1-0.1,0.1-0.7,0-2.3l-0.1-2l0.5-0.6c1-1.2,1.3-1.1,1.4,0.9c0.1,1.4,0.2,2.1,0.5,2.1c0.1,0,0.1-1,0-2.6l-0.1-2.3l0.7-0.7
	c0.4-0.4,0.7-0.7,0.8-0.7c0.3,0,0.4,0.6,0.6,1.9c0.2,1.5,0.2,1.8,0.4,1.6c0.1-0.1,0-1,0-2.2l-0.2-2.3l0.8-0.8c0.4-0.4,0.9-0.8,1-0.8
	c0.2,0,0.4,0.7,0.4,1.7c0,0.9,0.2,1.7,0.4,1.9c0.1,0.1,0.1-0.5,0.1-2.1c0-2.5-0.1-2.7,1-3.9C80.5,133.5,80.7,133.3,80.8,133.3
	L80.8,133.3z M109.9,134.3v3.5c-1.4,3-4.6,7.4-7.9,12.1l-1.7-0.9C104.4,143.5,107.9,138.6,109.9,134.3L109.9,134.3z M63.2,135.4
	c0.1,0,0.2,0,0.3,0c0.9,0.1,0.9,0.4,0.1,1.1c-0.3,0.3-0.7,0.6-0.9,0.6c-0.3,0-0.3,0-0.2-0.7C62.6,135.6,62.7,135.4,63.2,135.4
	L63.2,135.4z M116.6,137.9l2.4,2.4l0.6,25.5L117,170L116.6,137.9z M119.6,141.2c2.2,5.1,4.5,10,7,13.9l-6.5,9.1L119.6,141.2z
	 M97.9,149.2c3,0,5.7,2.3,6.1,4.7c0.7,2.8-0.8,5.7-3.1,6.6c-0.8,0.3-1.3,0.3-1.3,0.3c-0.3-1.7-0.2-3.3-0.5-4.9c0,0-1.4,1.8-2.2,2.5
	c-0.4,0.2-0.6,0.3-0.5-0.2c0-0.9,0.1-3,0.1-3l-3.4,3.6c0,0-0.3-0.4-0.6-1.3c-1.1-2.9,0.3-5.9,2.5-7.3
	C95.9,149.5,96.9,149.2,97.9,149.2L97.9,149.2z M143.5,149l0.1,3.1c-5.4,4.2-13,13-19.6,24.4l-2.9,1.2
	C125.4,167.1,134.9,156.2,143.5,149z M143.5,153.1l0.1,4.7c-4.8,4.6-8.9,9.3-12.4,15.4c-2.1,1-6,2.9-6,2.9
	C124.6,175.9,135.7,158.7,143.5,153.1L143.5,153.1z M95.7,157.1c0.2,0,0.2,0.4,0.1,1c-0.2,1.4-0.3,1.9-0.8,2.6
	c-1.7,2.1-4.5,4.9-4.9,7.5c-0.2,1.4,0.9,2.7,2,2.6c3.3-0.4,3.7-6.3,4-9.2c0.1-0.7,0.2-1.3,0.3-1.6c0.7-0.9,1.4-1.8,2.4-2.5l0.4,4.5
	l1.9-0.6c-5.3,7.2-3.8,7.6-6.5,10.6c-2.6,2.7-7.6-0.4-6.3-4.5c1.1-2.8,2.8-5.6,3.3-8.6c0.1-0.9,0.2-1.5,0.2-1.5l1.2,2.5
	C93.4,159.2,95.2,157.2,95.7,157.1L95.7,157.1z M143.7,158.6v3.2c-2.5,2.8-4.6,4.9-7.1,8.7l-4,1.8
	C135.2,167.4,139.5,162.8,143.7,158.6L143.7,158.6z M95.2,161.5c0,0,0.3,1.5-0.3,4.2c-0.3,1.3-1.5,5.1-3.5,4.2
	c-1.7-1.5,0.4-4.2,1.4-5.5C93.6,163.5,94.4,162.5,95.2,161.5L95.2,161.5z M90,161.9l-1.1,2.3c-9.8,0-19.2,3.5-27.6,10.7l-2.1-0.7
	C68.1,165.7,79.1,161.6,90,161.9z M100.2,163.7c11,3.7,16,9.1,20.2,14.7l-1.7,0.9c-4.4-5.7-9.7-10.8-19.7-13.8L100.2,163.7z
	 M87.6,167.1l-0.5,2c-6.2,0.2-12.6,2.4-18.9,6.8l-2.3-0.4C72.3,170.5,79.5,167.7,87.6,167.1z M115.7,180.5l-2,0.9
	c-5.8-7.6-11.1-9.7-17-11.7l0.6-1.7C105.3,170.3,111.2,174.3,115.7,180.5z M34.6,171.6l0.2,20.1l-1.4-0.3L33.2,172L34.6,171.6z
	 M31.5,172.7c-2.7,10.1-0.6,12.7,0.4,18.4l-2.2-0.4c-2.2-5.9-2.4-11.4-0.6-17.6L31.5,172.7z M98.6,174.2c0.2,0.2-0.1,0.7-0.6,0.9
	c-0.4,0.2-0.3,0.2-1,0c-0.6-0.2-1.4-0.8-1.4-1C96.2,174.1,98.2,174,98.6,174.2z M100.4,174.4c0.4,0,1.4,0,1.5,0.4
	c0,0.2-0.4,0.5-1.2,1.1c-1.3,0.9-1.7,1.1-2.1,0.6c-0.4-0.4-0.3-0.8,0.4-1.4C99.6,174.5,100,174.4,100.4,174.4z M56.4,174.6
	c0.7,0,2.1,0.9,2.9,2c0.8,1.3,1.7,2.6,2.5,3.9c1.7,2.9,3,5.9,4.1,8.9c2.9,7.2,4.6,14.2,6,21.1c0,0.6-0.5,0.6-1,0.4
	c-0.2-0.1-0.4-0.2-0.5-0.3c-0.6-1.7-0.8-3.4-1.3-5.2c-1.1-4.3-1.6-6.7-3.8-12.8c-1.1-3.1-2.8-7.5-4.6-10.8c-1.2-2.1-2.5-4.1-4.2-5.9
	c-0.5-0.5-1-0.9-1-1C55.7,174.7,55.9,174.6,56.4,174.6L56.4,174.6z M103.3,174.8c0.7,0.2,2.3,0.4,1.7,0.9c-2.3,0.9-3.1,1.9-4.3,2.9
	c-0.2,0-0.9-0.9-0.9-1.1C100.7,176.2,102,175.7,103.3,174.8z M59.8,174.8c1,0,1.9,1.2,2.4,2c3,4.4,5.6,10.7,7.7,16.8
	c2.3,6.6,3.7,13,4.3,17.5c-0.1,0.1-0.3,0.2-0.7,0.2c-0.6,0-0.7-0.1-0.9-0.6c-1.6-7.5-3.7-15.2-6.2-21.7c-1.4-3.5-2.9-7-5.1-10.5
	c-1.5-2.2-2.3-3.3-2.3-3.5C59.2,174.9,59.4,174.8,59.8,174.8C59.7,174.8,59.8,174.8,59.8,174.8L59.8,174.8z M53.2,175
	c1.3,0,3.5,1.6,5,3.6c3.1,4.3,4.9,9.3,6.8,14.2c2.1,5.6,3.7,11.8,4.6,16.6c0.2,0.7,0.4,1-0.2,1.2c-1-0.3-1-0.3-1.3-1.5
	c-0.4-1.3-0.5-2.6-0.9-4c-2.1-7.6-4.5-16-8.4-22.8c-4.7-7.6-6.1-5.5-6.9-6.8C52,175.2,52.5,175,53.2,175z M64.4,176.8
	c4.1,7.1,5.8,11.4,7.1,15.6c1.9,6.5,4.1,11.6,5.1,19.1c0,0-1.1,0-1.5-0.2c-0.2-0.2-0.4-0.9-0.5-1.5c-1-5.3-2.6-11.6-4.2-16.5
	c-1.8-5.5-4-10.8-7.2-15.8c-0.8-1.4-1-1.9-0.5-1.9C63.6,175.6,64,176.3,64.4,176.8L64.4,176.8z M106.5,176c0.2,0,0.3,0,0.6,0.1
	c0.5,0.2,0.7,0.3,0.7,0.5c0,0.3-0.3,0.4-1.3,0.7c-0.8,0.2-2.4,1-3.5,2c-0.5,0.4-1,0.9-1.1,0.9c-0.3,0-0.9-0.7-0.9-0.9
	C101.9,177.9,104.6,176.1,106.5,176L106.5,176z M50.9,176.2c3.4,0.1,6.1,4.1,7.5,6.8c0.5,1.1,1.3,2.2,1.8,3.4
	c2.8,6.2,5.2,14.1,6.3,19c0.6,2.4,1.2,4.2,1,4.6c-0.3,0.2-0.9,0-1.2-0.2c-0.2-0.1-0.3-0.7-0.6-1.7c-0.8-2.6-2.1-9.9-5.6-17.6
	c-0.1-0.2-1.8-5.1-4.6-9.7c-1.2-1.9-3.1-3.1-4.8-3.5c-0.9-0.1-1.1,0-1.1-0.5c0-0.3,0.1-0.4,0.6-0.5
	C50.5,176.3,50.7,176.2,50.9,176.2L50.9,176.2z M72.3,192.2c-0.2,0-0.4-0.4-0.6-1.2c-0.1-0.4-0.2-0.6,0.5-1
	c4.3-4.5,0.6-11.2-4.8-11.8c-0.5-0.1-1.1-0.1-1.3-0.1c-0.3-0.2-0.8-1.1-1-1.5C72.5,174.7,80.3,185.3,72.3,192.2L72.3,192.2z
	 M109,177.4c0.4,0.1,1.4,1,1.3,1.2s-1,0.2-2.2,0.5c-2.5,0.5-3.6,2.1-4.8,3.3c-0.3,0.1-0.5-0.1-0.7-0.5c-0.2-0.3-0.3-0.7-0.3-0.8
	C103.5,179.1,107.1,177.2,109,177.4L109,177.4z M49.2,177.9c2.2,0,4.3,1.1,5.5,2.8c4.4,6.7,9.4,21.3,10.6,28.6
	c-0.1,0.2-0.4,0.3-1.1,0.1c-0.3-0.1-0.3-0.2-0.5-0.9c-1.4-5.3-2.9-10.5-4.7-15.2c-0.9-2.4-2-4.8-3-7c-0.6-1.4-2-3.8-2.5-4.5
	c-1.2-2.2-3.5-2.8-5-2.1c-1.5,0.8-1.7,2.8-0.6,3.7c1,0.7,2.5,0.6,3.1-0.5c0.2-0.4,0.1-0.8,0-1c-0.1-0.1-0.3-0.1-0.4,0
	c0.1,1.3-1.6,1.4-2.3,0.9c-1.1-0.9-0.4-3.6,2.7-2.5c1.2,0.6,1.6,1.8,1,3.1c-0.6,1.3-1.5,1.9-2.9,1.9c-1.7,0-3.6-1.2-3.6-3.4
	c0-1.6,0.7-2.9,2.1-3.8C48.3,178,48.5,177.9,49.2,177.9L49.2,177.9z M67.4,178.9c5.3,0.2,7.7,6.4,4.9,10.2c-0.7,0.9-1.2,0.7-1.5-0.4
	c-0.1-0.5-0.3-0.5,0.1-0.9c2.5-2.4,0.4-6.9-3.6-7.1c0,0-0.8-1.1-0.8-1.7C66.8,178.8,67.2,178.9,67.4,178.9L67.4,178.9z M111,179.4
	c0.4,0.1,1.2,0.9,1.2,1.2c0,0.3-0.2,0.3-1.1,0.1c-2.2-0.4-4.4,0.9-6.3,3.7c-0.9,1.7-1,1.5-1.5,0.1c-0.2-0.7-0.2-0.7,0.7-2.1
	C105.8,180.1,108.4,179,111,179.4L111,179.4z M113.1,182.2c1.8,1.7,1,5.4-1.5,5.8c-2.2,0.3-4.2-2.1-2.8-3.7c0.9-1,2-1.1,2.7-0.2
	c0.7,0.9,0.4,2.1-0.6,2.2c-0.1,0-0.2,0.1-0.2,0.2c0,0.2,0.9,0.2,1.2-0.1c0.6-0.7,0.6-1.7,0.1-2.5c-0.5-0.7-1.5-1.2-2.4-0.8
	c-1.5,0.5-3,2.5-3.9,5.1c-0.2,0.7-0.4,1.4-0.5,1.5c-0.2,0.3-0.2,0.3-0.4,0.2s-0.5-1.7-0.5-2.2c0-0.4,0.4-1.6,0.9-2.6
	C106.9,181.8,110.5,179.8,113.1,182.2L113.1,182.2z M68.2,181.4c2.2,0.1,3.9,3.2,2.9,5.3c-0.3,0.4-0.7,0.7-0.9,0.4
	c-0.1-0.1-0.4-1.1-0.9-2.1c-0.5-1.1-0.9-2.1-1-2.3C68,181.9,67.8,181.4,68.2,181.4z M53.7,183.2c2.5,4.3,4.5,9.3,6.2,14.2
	c1.3,3.8,2.4,7.5,3,10.8c0.1,0.3,0.1,0.5,0,0.7c-0.2,0.2-1.4-0.4-1.4-0.4c-2-7.1-3.7-14.1-8.6-23c0,0-0.2-0.4-0.3-0.6
	c-0.1-0.6,0.1-1.3,0.4-1.7C53.3,182.9,53.4,182.9,53.7,183.2L53.7,183.2z M26.3,191.4c11.5,0.8,20.4,5.7,25.2,18.5
	c-1.7-1-10.3-7.6-25.1-8.5v-1.8c10.7-0.1,21,5.5,20.8,5.4c-4-8.2-13.8-11.5-20.9-11.7V191.4z M106.3,194c-0.7,1.1-0.7,1.1-1,2.1
	c0,0.3,0.1,2.3,0.1,3.5c0.1,1.5,0.1,2.1,0.2,2.3c0.2,0.2,0.6,0.3,0.8,0.1c0.1-0.1,0.2-0.4,0.3-0.7c1-3.6,1.4-5,1.8-5.4
	c0.3-0.3,0.3-0.3,1.4-0.2c2.4,0.2,3.2-2.6,1.6-3.7C109.4,190.7,107.2,192.7,106.3,194z M108.8,194.8c-1.7,1.4-1.7,3.4-2.2,5.2
	c-0.3,1.2-0.7,1.9-0.8,0c-0.3-2.6,0.1-4.5,1.2-6.1c0.7-1.1,1.8-1.9,2.9-1.9c2.2-0.2,2.4,1.6,1.8,2.5
	C111.2,195.3,109.9,195.6,108.8,194.8z M29.4,195.6c0.8,0,1.5,0.7,1.5,1.5c0,0.8-0.7,1.5-1.5,1.5c-0.8,0-1.5-0.7-1.5-1.5
	C27.9,196.3,28.5,195.6,29.4,195.6z M34.1,196.7c0.7,0,1.4,0.6,1.4,1.3c0,0.7-0.6,1.4-1.4,1.4c-0.7,0-1.3-0.6-1.3-1.4
	C32.8,197.3,33.3,196.7,34.1,196.7z M38.5,198.1c0.6,0,1.1,0.5,1.1,1.1c0,0.6-0.5,1.1-1.1,1.1c-0.6,0-1.1-0.5-1.1-1.1
	C37.4,198.6,37.9,198.1,38.5,198.1z M41.6,200.1c0.5,0,0.8,0.4,0.8,0.9c0,0.5-0.4,0.8-0.8,0.8c-0.5,0-0.9-0.4-0.9-0.8
	C40.7,200.5,41.1,200.1,41.6,200.1z M30.8,202.8c-0.3,1.6-0.1,3.3,0.3,4.5c0.9,2.5,0.5,7,0.5,7l-2.5,2.5c0.2-2.3,0.5-4.8,0.3-6.8
	c-0.1-1.3-0.7-2.5-0.8-3.8c-0.1-1.2,0.1-3.6,0.1-3.6L30.8,202.8z M34.8,203.5l0.1,10.7l-8.6,8.3v-2.2l7.3-7.3l-0.2-9.9L34.8,203.5z
	 M55.9,227.8l-0.6,0.9H65l0.2-0.9H55.9z M68.5,227.8l-0.2,0.9h4.5l0.1-0.9C72.9,227.8,70.5,227.8,68.5,227.8z M75.8,227.8l-0.1,0.9
	h16.6l-0.2-0.9H75.8z M95.2,227.8l0.3,0.9h4.4l-0.4-0.9H95.2z M102.6,227.8l0.3,0.9h7.6l-0.6-0.9H102.6z"/>
<path fill="#D40000" d="M14.4,11.5v2.8h2.7c0,0,0.1,2.7,0.1,8.3c0,5.5,0.1,8.2-0.2,9.8
	c-0.9,3.6-6.2,3.6-7.2,1c-0.6-1.5-0.4-2.7-0.5-4.2H6.5c0,0,0,0.8,0,1.7c0,4.1,1.4,6,4.5,6.8c3.2,0.9,7-0.5,8.3-3.2
	c0.8-1.6,0.7-1.7,0.7-11.2c0-6.3,0.1-9,0.1-9h2.5v-2.8H14.4L14.4,11.5z"/>
<path fill="#D40000" d="M164.3,238v-2.8h-2.7c0,0-0.1-2.7-0.1-8.3c0-5.5-0.1-8.2,0.2-9.8
	c0.9-3.6,6.2-3.6,7.2-1c0.6,1.5,0.4,2.7,0.5,4.2h2.9c0,0,0-0.8,0-1.7c0-4-1.4-6-4.5-6.8c-3.2-0.9-7,0.5-8.3,3.2
	c-0.8,1.6-0.7,1.7-0.7,11.2c0,6.3-0.1,9-0.1,9h-2.5v2.8H164.3L164.3,238z"/>
</svg>
