<?xml version="1.0" encoding="utf-8"?>
<!-- Generator: Adobe Illustrator 15.0.2, SVG Export Plug-In . SVG Version: 6.00 Build 0)  -->
<!DOCTYPE svg PUBLIC "-//W3C//DTD SVG 1.1//EN" "http://www.w3.org/Graphics/SVG/1.1/DTD/svg11.dtd">
<svg version="1.1" id="Layer_1" xmlns="http://www.w3.org/2000/svg" xmlns:xlink="http://www.w3.org/1999/xlink" x="0px" y="0px"
	 width="178.7px" height="249.6px" viewBox="0 0 178.7 249.6" enable-background="new 0 0 178.7 249.6" xml:space="preserve">
<path fill="#D40000" d="M14.1,56.2c-1.7-2.9-3.5-5.6-5.8-8c2.3-2.4,4.1-5.1,5.8-8
	c1.7,2.9,3.5,5.6,5.8,8C17.7,50.5,15.9,53.3,14.1,56.2z"/>
<path fill="#D40000" d="M130.6,64.8c-4.1-6.9-8.5-13.5-13.9-19.1c5.5-5.7,9.8-12.3,13.9-19.1
	c4.1,6.9,8.5,13.5,13.9,19.1C139.1,51.2,134.7,57.9,130.6,64.8z"/>
<path fill="#D40000" d="M164.6,209.2c-1.7-2.9-3.5-5.6-5.8-8c2.3-2.4,4.1-5.1,5.8-8
	c1.7,2.9,3.5,5.6,5.8,8C168,203.5,166.3,206.3,164.6,209.2z"/>
<path fill="#D40000" d="M48.1,64.8c-4.1-6.9-8.5-13.5-13.9-19.1c5.5-5.7,9.8-12.3,13.9-19.1
	C52.2,33.4,56.5,40,62,45.7C56.6,51.2,52.3,57.9,48.1,64.8z"/>
<path fill="#D40000" d="M89.4,104.3c-4.1-6.9-8.5-13.5-13.9-19.1c5.5-5.7,9.8-12.3,13.9-19.1
	c4.1,6.9,8.5,13.5,13.9,19.1C97.9,90.8,93.5,97.5,89.4,104.3z"/>
<path fill="#D40000" d="M48.1,143.8c-4.1-6.9-8.5-13.5-13.9-19.1c5.5-5.7,9.8-12.3,13.9-19.1
	c4.1,6.9,8.5,13.5,13.9,19.1C56.6,130.4,52.3,137,48.1,143.8z"/>
<path fill="#D40000" d="M130.6,143.8c-4.1-6.9-8.5-13.5-13.9-19.1c5.5-5.7,9.8-12.3,13.9-19.1
	c4.1,6.9,8.5,13.5,13.9,19.1C139.1,130.4,134.7,137.1,130.6,143.8z"/>
<path fill="#D40000" d="M48.1,223c-4.1-6.9-8.5-13.5-13.9-19.1c5.5-5.7,9.8-12.3,13.9-19.1
	c4.1,6.9,8.5,13.5,13.9,19.1C56.6,209.5,52.3,216.1,48.1,223z"/>
<path fill="#D40000" d="M130.6,223c-4.1-6.9-8.5-13.5-13.9-19.1c5.5-5.7,9.8-12.3,13.9-19.1
	c4.1,6.9,8.5,13.5,13.9,19.1C139.1,209.5,134.7,216.2,130.6,223z"/>
<path fill="#D40000" d="M10.2,37.8c1.7-9.2,3.6-16,8.4-23.4H8.7v3.2H6.1v-6.1h14.3l1.8,2.8
	c-5.2,5.6-9.9,23.7-9,23.4L10.2,37.8L10.2,37.8z"/>
<path fill="#D40000" d="M168.5,211.7c-1.7,9.2-3.6,16-8.4,23.4h9.9V232h2.6v6.1h-14.3l-1.8-2.8
	c5.2-5.6,9.9-23.7,9-23.4L168.5,211.7L168.5,211.7z"/>
</svg>
