<?xml version="1.0" encoding="utf-8"?>
<!-- Generator: Adobe Illustrator 15.0.2, SVG Export Plug-In . SVG Version: 6.00 Build 0)  -->
<!DOCTYPE svg PUBLIC "-//W3C//DTD SVG 1.1//EN" "http://www.w3.org/Graphics/SVG/1.1/DTD/svg11.dtd">
<svg version="1.1" id="Layer_1" xmlns="http://www.w3.org/2000/svg" xmlns:xlink="http://www.w3.org/1999/xlink" x="0px" y="0px"
	 width="178.7px" height="249.6px" viewBox="0 0 178.7 249.6" enable-background="new 0 0 178.7 249.6" xml:space="preserve">
<path fill="#E2CF00" d="
	M112.3,21.3c0,0,20.2,29.3,27.1,34.5c0.5,0.2,9-1.4,9-1.4c-4.3-10.4-7.1-21.1-4.3-33.2L112.3,21.3z M123.5,67.7
	c-13.9,4-27.8,7.7-42.9,1.2L64.1,84.8C64,85.2,84,93.9,84.3,92.9c-9.9,26.5,5.5,31.4,15.2,2.2c12.7-1.7,28.1-3.4,40.7-12.3
	C129.4,76.4,123.5,67.6,123.5,67.7z M39.8,72.5c-5.3-3.3-9.4,3.4-5.6,6.8c-0.5,2-0.6,4.9,1.3,6.2c1.7,1.1,5,0,5.4,0
	c0,0,0.1,3.5-0.2,3.5c-0.5,0-2.4-1.6-3.6-2c-4-1.2-9.5-1.8-9.4-1.6c0.2,0.3-1,1.2,3.4,3.9c1.6,1,6.8-0.1,10.9,1.2
	c2.5,0.8,4.8,2.1,6.1,1.4c3.6-1,5-5.7,4.8-5.7C52.8,86,42,88.9,43,89.4v-4.1c4.2,0.5,8.1-2.6,3.9-7.9C50.2,74.4,45.8,67,39.8,72.5
	L39.8,72.5z M57.4,91c-10.4,10.5-31.6,30.2-31.6,30.2l0.2,14.8l20.7,18.6c1.6-19.7,12.8-38.2,23.5-47.4C71.3,104.4,59.6,92,57.4,91z
	 M131.3,94.7c-1.6,12.2-3,28.7-23.5,47.1c3.6,6.1,8.1,12.3,14.6,15.3c0.5,1,18.8-19.1,30.2-28.6l-0.1-12.9L131.3,94.7z M38.8,97.3
	c0,0.3-0.8,3.5-1,3.4c0,0.2,2.1-0.8,2.4-1.7c0.2-0.8,0.7-1.8,0.7-2C40.4,93.8,39.5,96.1,38.8,97.3z M31.2,105.8
	c-0.7,1.8-1.4,5.1-1.2,7.3c3.7,1.9,4.7-5.9,3.7-6.6C33.1,106.3,31.7,105.8,31.2,105.8z M144.7,141c-0.3,1.5-0.3,2,0.4,2.3
	c1.2,0.5,1.7-0.1,2.7-2.6c0.6-1.5,1.1-3.7,0.6-4.6C146.1,134.5,145,139.9,144.7,141L144.7,141z M80.3,153.9
	c-15.1,2.4-30.2,3.9-42.2,13.3c1.4-0.2,15.8,13.6,16.6,15.5c22.2-10.9,43.8-2.7,43.8-2.7l16.2-15.7c0.6-0.3-17.6-7.9-21.1-9.2
	C106.1,121.5,86.4,126.5,80.3,153.9L80.3,153.9z M139.8,150.1c-1,0.8-1.5,1.5-2.3,2.6l0.8,1.3l2-2.2L139.8,150.1z M125.5,164.3
	c2.1-1,9.6-4.6,9.9-3.7l-0.2,3.6c-1.1-0.4-8.5,0.8-4.2,8.5c-2.7,6.1,3.3,9.2,7.5,5.2c8.8,3,7.6-5.8,5.8-7.2c1.4-2.2-0.4-7-1.3-7
	c0,0,7.7,1.7,6.9,0.4c-0.3-0.6-0.8-1.7-2.5-2.8c-2-1.3-5.4-0.8-8.2-1.4c-3-0.6-4.9-1.7-7.4-1.8C128.1,158.2,124.5,161.6,125.5,164.3
	L125.5,164.3z M40.6,192.7l-10.6,2.8c0,0,3.4,7.9,4.6,15c1.4,8.7,0.3,18,0.3,18l30.5,0.2L40.6,192.7z"/>
<path fill="#D40000" d="
	M68,228.6c-13.3-19.1-25.8-37.4-42.2-57.5c0,0,0-7.8,0.1-15.5l50.6,72.8L68,228.6z M95.1,197.7c-0.4-3.7-1.2-8-2.2-11.8l9.3-8.8
	C101,184.9,99.6,191,95.1,197.7z M139.2,170.1c2.1,2.8-1.4,4.3-2.7,3.1C133.8,170.7,137.7,168.1,139.2,170.1z M47.7,152.7
	c-1.5,1,2.8-24,14.5-37C69.3,136.4,56.6,147.9,47.7,152.7z M105.6,152.7l-7.8-2.1l3.7-11c0,0,7.6,1.7,6.9,4
	C106.4,151,105.6,152.7,105.6,152.7z M69.5,148.4c2.1-3.5,3.7-7.4,5.2-11.3l7.9-0.2l-3.9,10.9L69.5,148.4z M116.6,133.1
	c-6.1-12.1,1.1-31.2,14.2-36.5C130.3,108.9,126.5,121.2,116.6,133.1z M76,129.6c0.3-4.3-0.2-8.8-0.8-12.8c8.4,1.9,17.4,3.2,27.5,3.7
	l1,11.6C94.7,130.5,85.5,129.3,76,129.6z M95.9,112c0.9-3.6,2-7.1,3.6-10.5l9.6-0.4c-0.1-0.2-4.1,6.4-5,11.1
	C102.4,112,95.9,112,95.9,112L95.9,112z M77.9,109.2c-2.8-1-6.6-1.3-8.1-3.4l2.9-9.2l8.6,2.6L77.9,109.2z M101.8,21.4l6.7-0.1
	c0,0,32.3,41.5,44.3,57.5c-0.4,1.6,0.1,15.5,0.1,15.5C136,70.2,101.8,21.4,101.8,21.4z M40,79.1c-1.8-1.9,1.1-3.7,2.3-1.9
	C43.3,78.7,41,80.2,40,79.1z M76.3,72.4c0.1-9.6,6.9-21,6.8-20.7c-0.1,0,1,9.4,2.3,12.4C84.9,64.6,76.6,73,76.3,72.4z"/>
<path fill="#131F67" d="
	M24.4,19.8v209.8h130V19.8H24.4z M143.5,21.4c-1.1,11.7-1.2,20.6,4.8,32.7c-1.1,1.1-9.3,1.5-11.8,2.8c0,0.3,0.7,0.9,0.7,0.9
	c2.7-1.3,13.2-2.4,13.2-2.4c-4.4-7.7-8.1-22.6-5.3-34h7.9v56.1c0,0,0.1,10.7,0.3,16.7c-4.1-5.3-9.3-12.5-12.7-17.8
	c-4.3-6-9-13.1-13.8-19.6c-1.4-2.1-3.5-4.8-5.2-7.2c-2.6-3.8-4.8-6.7-7.5-10.7c-2.9-4.2-5.7-8-9.1-12.9c-2.9-4.1-3.1-4.7-3.1-4.7
	H143.5L143.5,21.4z M93.7,21.4c4.9,8.6,13.7,11.6,15.9,12.2l1.3,1.9c-10.4-2-15.9-8.8-18.5-12.9c-0.2-0.3-0.2-1.2-0.2-1.2H93.7z
	 M88.8,21.4c-1.4,3.2-3.3,5.2-5.1,7.2l0.1-2.1c0.1,0.1,2.7-2.9,3.6-5.1H88.8z M91.2,21.4c0,0,0,0.7-0.1,1.1c-1,3.4-7.5,9.8-7.4,8.9
	l-0.1-1.7c0,0.1,4.9-4.8,6.2-8.3H91.2z M86.4,21.4c-0.5,0.9-2.4,3.9-2.6,3.1l0.2-3.1H86.4z M101.2,21.4c0.8,1.2,1.6,2.2,2.4,3.4
	c0.2,0.2,0.3,0.5,0.2,0.6c-0.1,0.3-0.5,0.1-1.6-0.9c-1.8-1.6-3-3.1-3-3.1H101.2z M94.7,21.4h1.6c3.3,5.5,9.2,8.5,11.2,9.2
	c0.5,0.6,1.1,1.7,1.4,2C103.3,31,97.2,26.2,94.7,21.4z M98.6,21.4c1.8,2.5,4.5,4.4,6.1,5.6c0.8,0.7,1.9,2,1.8,2.3
	c-3.5-1.1-7.5-5-9.4-7.9H98.6z M91.8,23l1,1.5c-2.3,3.9-5.3,7.3-9.1,10.1v-2C88,29.4,89.9,26.2,91.8,23L91.8,23z M93.4,25.2
	c2.8,3.8,8.8,9.6,18.3,11.3c0,0,0.5,0.5,1.3,1.6c1,1.4,1,1.4,1.2,3.7c0.1,4.1,1.4,9.7,2.8,13.3c-0.2,0.9-0.3,1.3-2,3.6
	c-6.9,9.3-21.4,18-28.6,6.1c-2.4-3.8-2.6-11.2-2.8-15.7c0,0,0-0.3,0.1-0.4c0.2-0.8,0.4-0.7,1.7-0.3c1.3,0.6,2.7,0.1,4.1-0.3
	c1.6-0.6,1.7-0.1,0.2,1.3c-0.5,0.5-1.2,1.3-1.1,1.2c0.1,0,1-0.4,1.4-0.7c1.2-0.9,1.5-0.6,1.1,0.5c-1.9,4.4-2.3,4.5,0.4,5.8
	c0.6,0.3,1,0.5,1.3,0.8c1.9,1.7,1.2,0.8,0.7,0c-0.8-1.3-0.1-1.9,1.3-1.1c0.9,0.5,2.1,0.9,2.7,0.7c1.2-0.4,1.6-1.8,1.3-3.3
	c-0.3-0.8-2-2.3-1.6-0.8c1,0,1.9,1.4,1,2.4c-0.7,0.9-1.9,0.4-3.7-0.8c-1-0.8-2.2-0.4-2.2,0.6c0,0.6-0.9,0.5-1.4-0.3
	c-0.3-0.4-0.1-1.7,0.5-3c3.8-7.7,0.6-15.1-6-13c-0.7,0.2-1.4,0.4-1.4,0.4v-2.9C87.4,32.9,91.5,28.7,93.4,25.2L93.4,25.2z M97.2,39
	c-1,1.2-0.6,2.3,1.5,1.2c1.8-0.9,2-1,4-1.1c2.8-0.1,5.2,0.8,8.3,2.7c2,1.2,2.3,1.3,1.8,0.6C111,39.2,101.4,34.5,97.2,39z M87.9,39.4
	c1.9,0.5,3.7,1.7,3.4,2.3c-0.1,0.2-0.2,0.2-0.5,0.1c-1.4-0.7-3.6-1.8-6.8-0.4c-0.4,0.2-0.6-0.1-0.6-0.5c0-0.8,1.4-1.5,2.9-1.6
	C86.9,39.2,87.4,39.3,87.9,39.4z M99,41.8c-1.1,0.6-1.5,0.9-2,0.6c-1.2-0.6-0.9-0.1-0.2,1.1c0.5,0.9,0.5,1.1,0.4,1.6
	c-0.1,0.6-0.1,0.6,0.5,1.3c1.1,1.4,2.2,2.8,3.8,3.9c0.5,0.3,1.2,0.7,1.2,0.7c0.2,0,0.1-0.1-0.2-0.4c-2.1-2-3.7-3.8-1.6-3
	c2.5,0.8,4.8-0.2,6.7-0.9c0.8-0.2,1.6-0.4,1.8-0.4c1.8,0,2.2-0.7,1.1-1.9C106.6,40.2,103.4,39.1,99,41.8z M108,42.6
	c0.8,0.7,1.2,1.1,1.1,1.3c-0.1,0.2-0.7-0.1-1.7-0.7c-2.1-1.1-4.4-1.4-7.3-0.5c-2.3,0.7-1.6-0.4,0.9-1.4
	C103,40.4,105.8,40.7,108,42.6L108,42.6z M86.9,41.1c1.7,0,3.5,0.5,4.7,1.6c0.8,0.7,0.2,0.9-1.1,0.3c-2.1-0.9-3.8-1-5.5-0.2
	c-0.5,0.2-1.1,0.5-1.3,0.5c-0.3-0.2-0.4-0.8-0.2-1.2C84.2,41.6,85.6,41.2,86.9,41.1z M115.4,41.7c0.1,0,0.3,0.2,0.6,0.6
	c0.5,0.7,0.5,1.1,0.1,2.4c-0.5,1.6-0.7,1.3-0.9-0.9C115.1,42.4,115.1,41.7,115.4,41.7z M117.1,44.1c0.2,0,0.4,0.3,0.8,1
	c0.3,0.5,0.2,0.7-0.6,3c-0.3,1-0.7,1.8-0.7,1.8c-0.2,0.2-0.2,0.2-0.3,0c-0.6-0.7-0.5-2.2,0-3.9C116.6,44.8,116.8,44.1,117.1,44.1
	L117.1,44.1z M101.5,44.3c0.1,0,0.4,0.1,0.4,0.1c0,3.5,2.7,2.8,3,0.3c0,0,0.7-0.1,0.8,0.1c0.3,0.5-0.4,2-1.5,2.5
	c-0.8,0.4-1.9,0.3-2.6-0.3c-0.2-0.3-0.7-1.6-0.6-2.2C101.1,44.4,101.3,44.3,101.5,44.3L101.5,44.3z M100,44.7L100,44.7
	c0.3,0,0.5,0.1,0.6,0.4l0.6,1.8c-0.4,0.5-2-0.5-2-1.3C99.2,45,99.6,44.7,100,44.7L100,44.7z M89,44.7c0.4,0,0.6,0,0.6,0.4
	c0.1,1.2-1,2.4-2.5,2.5c-1.4,0.2-2.2-1-2.2-2.1c0-0.8,0.7-0.9,0.8-0.3c0.2,1.9,1.9,2,2.6,1C88.6,45.7,88.5,44.7,89,44.7z
	 M106.7,45.1c0.1,0,0.3,0,0.5,0.1c1.5,0.5,1.5,0.7,0.3,1.2c-1.5,0.5-1.6,0.6-1.3-0.4C106.3,45.3,106.4,45.1,106.7,45.1z M90.9,45.2
	c1.1,0.1,1.2,1,0.2,1.3c-1.4,0.6-1.9,0.6-1.4-0.3C90.1,45.5,90.4,45.2,90.9,45.2z M84,45.6c0.1,0,0.3,0,0.4,0.2
	c0.2,0.5,0.4,0.9,0.7,1.4c-0.2,0.2-0.8,0.2-1.1-0.1C83.3,46.5,83.5,45.6,84,45.6L84,45.6z M118.7,46.6c0.4,0,0.9,0.7,1,1.2
	c-1.5,1.9-1.3,5.5-1.6,6.6c-0.3,0.9-0.4,0.1-1.2-2.2C116.5,51.3,118.2,46.8,118.7,46.6C118.6,46.6,118.7,46.6,118.7,46.6L118.7,46.6
	z M120.2,48.5c0.3,0.2,0.8,0.6,0.9,1.3c0,0.4-0.2,0.9-0.3,1.5c-0.3,1.3-0.7,3.6-0.9,5.8c-0.1,0.9-0.1,1.8-0.1,1.8
	c-0.5,0.9-1.4-1.5-1.3-3.4C118.8,54,119,48.7,120.2,48.5L120.2,48.5z M122.3,51.2c0.2,0.3,0.3,0.5,0.4,0.8c0.1,0.4,0,1-0.2,2.1
	c-0.7,3-0.6,6.2-0.1,9.5c0.1,0.7-0.4,0.3-1.1-0.9c-0.4-0.7-0.7-1.6-0.8-2.6c-0.3-2.3,0.2-5.5,0.7-8C121.3,51,121.4,50,122.3,51.2
	L122.3,51.2z M123.4,53.1l1.2,1.5c0,0-0.5,3.3-0.5,5.1c-0.1,0.7,0.6,7.9,0.8,8.5c-0.7-0.8-1.1-1.3-1.9-2.4c-0.1,0-0.8-7.2-0.3-9.9
	C123,54.2,123.4,53.1,123.4,53.1L123.4,53.1z M125.3,56c0.2,0,0.5,0.2,0.8,0.7c0.3,0.4,0.4,0.7,0.4,1.3c0,0.4-0.2,0.7-0.2,1.3
	c0,4,0.5,7.7,1.2,11.3c0.2,1.3-0.2,0.8-1-0.1c-0.7-0.7-0.7-1-1.1-2.1c-0.1-0.2-0.8-7.5-0.8-8.1c0-2.3,0.1-3.5,0.4-4.1
	C125.1,56,125.2,56,125.3,56z M121,63.9c0,0-1.4,0.7-1.8,0.5c-0.6-1.6-2.7-6-2.8-6.7c0-0.3,0.9-1.4,0.9-1.4
	C118.5,58.8,119.6,61.5,121,63.9z M94.7,58.7c-0.4,0.5-0.9,0.3-1.9-0.2c-0.5-0.2-0.4,0.1-1.3,0.5c-0.7,0.3-0.9,0.4-1.3,0.4
	c-0.6,0-0.8-0.2-0.8,0.2c0,0.2,0,1.3-0.2,1.8c-0.2,0.7-0.4,1-0.2,1.2c0.3,0.3,0.5,0.1,1.2-0.5c1-1,1.7-0.7,2.9-0.3
	c1.3,0.4,1.6,0.6,2.8,0.2c1.7-0.6,2.7-0.6,3.4-0.2c1.2,0.7,1.5,0.7,1-1.3c-0.2-0.7-0.2-1.7-0.3-1.9c-0.1-0.2-0.4,0.4-0.7,0.6
	c-0.6,0.4-0.9,0.4-2.3,0C96.2,58.8,95.3,57.9,94.7,58.7z M116.2,59c0.5,1.2,2.6,5.3,2.5,5.8c-0.4,0.4-0.9,0.6-1.3,0.3
	c-1-1.9-1.3-2.9-2.2-5C115.1,59.5,115.8,58.2,116.2,59L116.2,59z M127.3,58.8c0.1,0,0.5,0.3,0.7,0.6c0.7,1,0.8,1.1,0.8,2.1
	c0.1,3.7,0.5,8,1.6,11.4c0.2,0.7,0.6,1.5,0.5,1.6c-0.3,0.5-2-0.9-2.5-2.9c-0.7-2.6-1.1-5.4-1.3-7.2C126.9,61.2,126.9,59,127.3,58.8
	L127.3,58.8z M114.9,60.9c0.6,1.2,1.3,3.1,1.9,4.3c0.2,0.5-0.9,0.9-1.2,0.8c-0.5-0.4-0.7-1.3-1-1.9c-1-2.2-1.2-2.2-0.6-2.9
	C114.3,60.7,114.7,60.1,114.9,60.9z M129.6,62.2c0.1,0,0.2,0.1,0.3,0.3c0.6,0.7,1,1.3,1.2,1.8c0.1,0.4,0,0.7,0.1,1.4
	c0.1,1.9,0.6,4.5,2,9.7c0.1,0.5,0.3,1.1,0.3,1.3c-0.1,1-1.5-0.6-2-2.2c-0.5-1.8-1.3-4.2-1.6-6.3C129.4,64.7,129.1,62.2,129.6,62.2
	L129.6,62.2z M113.7,63.6c1.2,2.7,1.3,2.7,0.5,3c-0.8,0.2-0.8,0.2-1.7-1.7c-0.7-1.4-0.8-1.5-0.2-2C113.1,61.8,113.3,62.7,113.7,63.6
	z M97.4,62.9c-0.1,0-0.5,0.3-0.9,0.5c-1,0.4-2.7,0.4-3.7,0.1c-1.9-0.7-1.3,0.2,0.3,0.8c1.3,0.4,3.8,0.1,4.2-0.7
	C97.5,63.3,97.6,62.9,97.4,62.9z M111.5,64.4c1,1.6,1.4,2.3,1.2,2.4c-0.2,0.2-1,0.5-1.3,0.3c-0.4-0.2-0.8-1.2-1-2
	C110.5,64.7,111.2,64,111.5,64.4z M85.3,65c0.5,0,1.7,1.6,1.4,1.9c-0.1,0.2-0.5,0-1.6-0.3c-0.4-0.1-1.2-0.2-0.9-0.8
	C84.4,65.7,85.1,65,85.3,65z M110.4,67.3c-0.1,0.3-0.9,0.3-1.2,0.3c-0.3-0.6-0.4-0.9-0.4-1.3c0.1-0.2,0.7-0.9,0.9-0.7
	C109.8,65.7,110.3,67,110.4,67.3z M132.1,65.7c0.2,0,0.5,0.3,0.9,0.9c0.8,1.2,0.7,1.1,1.3,3.9c0.7,3.2,1.5,5.4,2.3,8.6
	c0,0.5-0.2,0.4-0.8,0c-1-0.6-1.3-1.2-1.6-3c-0.5-2.8-1.6-5.4-2-8.8C131.9,66.3,131.8,65.7,132.1,65.7L132.1,65.7z M107.8,66.8
	c0.6,0,0.5,0.9,0.3,1c-0.4,0.4-1.6,0.3-1.8,0.3C105.9,67.4,107.4,66.9,107.8,66.8z M135,69.8c0.2,0,0.6,0.7,1.5,1.9
	c0.8,1.1,0.6,1,1.1,2.8c0.7,2.6,1.8,4.5,2.5,6.9c0,0.3-0.3,0.2-0.6,0.1c-0.6-0.3-1.2-0.7-1.7-1.1c-0.4-0.4-0.4-0.9-1.4-4.5
	c-0.4-1.3-0.5-1.6-1-3.6C135,70.6,134.8,69.8,135,69.8L135,69.8z M47.4,77.6c2.8,5.1,1.7,7.3-4.2,8.1c-0.4-0.1,0,2.6,0,3.8
	c3-1.7,6.6-2.1,9.9-3.2c-0.9,2.9-2.5,6.2-7.3,5.7c-5-3.9-10.9-1.6-14.8-3.1c-2.2-0.8-3-3.2-3-3.7c2.6,0.3,5.6,0.8,8.1,0.6
	c-2.8-2.1-2-5.1-1.6-6.4c-3.2-4.1-0.5-8.7,4.2-7.6c0.5,0.1,1.4,0.6,1.4,0.6C44.5,68.3,49.7,72.1,47.4,77.6L47.4,77.6z M138.7,75.1
	c0.2,0,0.6,0.5,1.4,1.6c2.5,3.5,4.6,6.7,4.6,6.9c-0.1,0.6-2.7-0.4-3.3-1.3c-0.7-1-2.8-6-2.8-6.8C138.6,75.3,138.6,75.1,138.7,75.1z
	 M38.7,89.8c1.3,0.2,1.6,0.3,1.6,0.8c0.1,0.4-3.1,0.5-3.5,0.2c-0.3-0.3,0.1-0.8,0.4-0.9C37.8,89.7,38.3,89.8,38.7,89.8L38.7,89.8z
	 M127.1,90.3c-17.9,8.5-25.3,31.1-16.2,48.3l-1.3,0.9c-8.9-18.3-2.3-37.9,12.1-47.8c0.6-0.4,1.9-0.7,2.5-1.1c0,0-5.9,1.3-7.9,2.1
	c-0.4,0-1.6,0.4-2.9,1.8c-1.1,1-4.6,5.9-4.5,6l-9.3,0.4v0.3l9.1-0.2c-9.4,15.5-7.1,30.1-1.3,40.5l0.1,0.1c0.3,0.2,1.2-0.4,3.1-2.2
	c0.8-0.7,1.7-1.6,2.1-2c1.1-1,2.8-2.8,3.9-4.1c-6.3-12.9-0.1-29.8,14.6-37.4c0-0.4-0.2-1.7-0.2-1.7s-0.6-0.5-0.9-0.5
	c-16.4,7.3-23,25.2-16.3,41.6l-1.1,1.2c-8.4-16.9,0.6-38.1,16.3-44.2c0-0.4-0.3-0.9-0.8-0.6c-16.9,7.9-24.3,28-16,45.2l-1,0.9
	c-9.5-18.7,0.5-39.9,16-47C128,90.9,127.1,90.3,127.1,90.3L127.1,90.3z M35.9,90.5c0,0-0.1,1,0.2,1.3c0.2,0.7-0.1,0.6-0.7,0.5
	c-1.5-0.4-0.3,0.5,0.9,1.2s1,0.7,0,1.3c-0.7,0.4-0.6,0.6-0.5,1c0.1,0.5,0.2,0.2,0.5-0.1c0.6-0.6,1.1-0.7,1.7-0.7
	c0.8,0,0.9,0.7,0.8,1.2c-0.3,1.1-1.4,1-2.3,0.8c-1.5-0.4-3.9-3-3.9-4.5C32.5,91,34.3,90.4,35.9,90.5z M42.6,90.8
	c0.6,0.2,1.3,0.5,2.1,0.8c1.1,0.4,2.2,0.9,2.9,1.4c2.2,1.5,2.1,4.4,1.9,4.7l-11.2,10.8c0,0-0.6-0.3-1.2-0.6c-1.9-1-2.4-1.5-1.3-2
	c0.5-0.3,0.7-0.8,0.8-1.4c0.1-0.7,0.1-0.6,0.5-0.9c0.8-0.6,0.8-0.8,0.8-1.8c0-0.6,0.1-0.9,0.3-1.3c0.2-0.3,0.4-1,0.5-1.8
	c0-0.1,0-0.4,0.1-0.6c0.1-0.6,0.3-0.8,0.5-0.9c0.1-0.1,0.3-0.6,0.5-1c0.3-0.9,0.3-0.8,0.8-0.7c0.7,0.1,0.6,0.6,0.6,1.3
	c0,0.3-0.3,0.6-0.2,0.5s0.6-0.3,0.7-0.3c0.2-0.1,0.5,0,0.5,0.4c0,0.2-0.1,0.6-0.1,0.9c0,0.8,0,1.7,0.2,2.3c0.8,2.9,0.7,2.5,0.4,0.1
	c-0.1-0.6-0.1-1.4-0.1-2.1c0.1-0.5,0.2-1.1,0.4-1.5c0.5-0.9,0.5-1-0.6-1.5c-0.4-0.2-1.1-0.4-1.2-0.7c-0.2-0.3-0.7-0.8-1.4-1
	c-1.6-0.4-2.6-2-2.3-2.2c0.2-0.2,0.8,0,1.2,0.1c1.5,0.1,1.8,0,2.5-0.6c0.4-0.3,0.5-0.6,0.8-0.6C42,90.5,42.4,90.7,42.6,90.8
	L42.6,90.8z M119.4,92.5c-15.1,12.3-17.8,32.2-10.3,47.5l-1.3,1c-9.5-18-3.1-37.5,8.6-48L119.4,92.5z M32,94c0.3,0,0.6,0.4,1.6,1.5
	c0.7,0.8,1.5,1.4,1.9,1.7c0.9,0.4,0.7,0.3,0,1c-0.8,0.9-0.3,1.6-1.3,1.2c-2.4-1.1-4-4.4-2.5-5.2C31.8,94.1,31.9,94,32,94z
	 M30.8,97.5c0.1,0,0.1,0,0.2,0c0.3,0.1,0.6,0.6,1,1c1.1,1.1,1.5,1.5,2.4,1.9c0.8,0.4,0.8,0.5,0.3,1.1c-0.2,0.2-0.3,0.5-0.4,0.7
	c0,0.2-0.1,0.4-0.2,0.4c-0.9,0.2-4-1.7-4.1-3C30,98.4,30.3,97.5,30.8,97.5z M37.2,97.8c0.5,0,0.8,0.5,0.8,1.2c0,0.5-0.3,0.8-0.9,1
	c-1.3,0.5-2.1-0.4-1.2-1.5C36.3,98.1,36.8,97.8,37.2,97.8z M36.4,101c1,0,1.3,0.8,0.5,1.5c-0.7,0.7-2,0.7-2-0.1
	C34.9,101.9,35.8,101,36.4,101z M30.4,102c0.7,0.2,2.3,1.4,3,1.5c0,0.4-0.4,0.5,0.2,1.2c0.3,0.3,0.3,0.6,0.1,0.7
	c-0.8,0.4-3.6-0.9-3.8-2.3C29.8,102.4,30,102,30.4,102z M34,103.6c1,0,2.1,0.1,1.9,0.5c-0.1,0.3-0.4,1.2-0.9,1.1
	c-0.2-0.1-0.4-0.3-0.6-0.4C33.9,104.3,33.8,103.6,34,103.6z M70.4,107.7c2.8,2.6,12.9,29.1-8.3,48.5l-4.5,1.4
	c20.4-16,17-38.9,11.4-48.6c0-0.3-0.1-0.3-0.6,0.2c-0.4,0.4-0.5,0.5-0.3,0.6c6.2,9.6,8.6,36.7-15.9,49.7c-0.4,0.4,0.4,0.4,0.4,0.4
	c0-0.4,11-3,10.3-3.1c10.3-9.1,19.1-30.7,8.1-49.6C70.8,106.9,70.4,107.7,70.4,107.7L70.4,107.7z M66.9,110.6l-0.1,0.6
	c8.9,17.5,0.4,39-16.1,46.8c0.3,0.2,0.6,0.3,0.9,0.5c18.7-10.2,24.1-31.5,15.9-48.1L66.9,110.6z M65.4,111.8l-0.1,0.6
	c7.4,14.9,1.5,35.6-16,44c-0.2,0.9,0,0.6,0.8,0.6c20.3-11,22.2-31.7,15.8-45.2L65.4,111.8z M64.1,113.6c-0.6,0.8-1.6,1.2-2,2.1
	c5.9,15.7-1.7,30.7-14.6,37.1c0,0.8-0.6,2.7,0.8,2.4c15.9-7.3,22.9-26.5,15.9-41.7C64.2,113.5,64.1,113.6,64.1,113.6z M144.2,143.9
	c0.6,0,1.1,0.2,1.7,0.3c2,0.3,3.3,1.7,2.4,2.6c-0.3,0.3-0.7,0.1-2-0.5c-0.6-0.3-0.7-0.6-0.8-1.2c-0.1-0.8-0.3-0.9-0.5-0.3
	c-0.2,0.6-0.4,1-1.1,0.8C142,145.2,142.7,143.8,144.2,143.9z M123,157.2c-4.8-2.7-10.7-7.6-13.9-13.2c-1.7,3.2-3.6,8.9-3.6,8.9
	l-7.5-2.1L98,151l7.4,2.1l-0.7,2.5c-0.1,0.3-1.2,3.1-1.2,3.1l11.5,5.4c-0.7,1.1-1.5,1.9-2.5,2.9c-0.6,0.6-0.6,1.4-0.6,1.4l15.9-15.3
	c0,0,2.1,3.1,2.8,3.8c0.7,0.7,0.9,0.8,0.1,1c-3.8,0.6-6.7,3.4-5.7,7.3c0.2,0.4,0.5,0.3,1.2-0.2c2.5-2.3,8.6-4.4,8.8-3.8v2.4
	c-6.6,0.1-5.9,5-5.4,7.6c0,0.1-1.9,1.7-1.9,1.7c0.7,0.4,1.3,0.7,2,1.2c-0.6,3.2,2.2,7.9,7.6,5.5c0.5,0.5,0.9,1,1.4,1.6
	c0.6-0.6,1.2-2.2,1.2-2.2c2.7,1.2,8.3-1.5,5.4-7.8l1.6-1.5l-1.5-1c0-1.6-0.3-3-1.2-4.4c0,0,2.5,0.6,4.4,0.8l0,0
	c1.2,0.1,2.1,0.1,2-0.6c0-0.2-0.2-1.2-0.3-1.5c-0.6-1.6-3.5-2.8-6.3-3c-0.5,0-1,0-1.1-0.1c-0.2-0.2,0.1-0.5,0.4-0.5
	c1.5,0.3,3-0.9,3.3-2.3c0.1-0.3,0.4-0.7,0.8-1.2c0.8-0.9,0.9-0.9,0.9-2.1c0-0.9,0.1-1.1,0.6-1.7c0.5-0.8,0.8-1.9,0.5-3.1
	c-0.1-0.4-0.4-0.9-0.1-1.8c0.5-1.5-0.6-2.8-1.9-3.6c-0.1,0-0.1,0.1-0.2,0.2c-1.2,0.4-2.7-0.5-2.7-0.5c-0.3-0.2,1.1-8.1,3.9-7.4
	c0.5,0.3,0.7,1.7,0.6,1.7c0.1,0,0.2-0.8,0-1.4c-0.2-0.6-0.6-1.1-1.5-0.9c-0.7,0.1-1.4,1-1.8,1.4c-1.3,1.7-1.3,2.8-1.8,4.6
	c-0.2,0.8-0.2,0.8-1.4-0.1c-0.8-0.7-1.2-0.9-1-1.3c0.1-0.2,0.7-0.7,0.7-0.7l10.7-9.9v98.9h-58l0.4-13c1.1-8.9-0.8-27.6-2.3-29.4
	c1.1-1.3,4.6-4.3,4.4-4.4l-0.5-0.3l-1.8,1.7l-4.5-1.4c-1.9-1.3-3.9-2.6-5.9-3.1c-3.3-0.9-9.7,1.9-9.8,1.9
	c-10.2,0.8-18.4,4.9-18.2,4.9c-0.4-0.4-1-1.7-1.1-1.7c-5.3-7.4-10.5-11.5-17.5-16.4l9-5l-21.2-22.2l-0.2-18l30.7-29.5
	c0.2-0.5,9.8,6.8,13.3,12.8c0.7-2.9,2-5.6,3-8.4c0.1-0.3,6.1,2.2,7.9,2.3c0.3,0,0.5-0.3,0.5-0.3l-8-2.6l1.6-4.7c0,0,0.6-1.3-0.1-1.5
	c-3.6-1.2-7-3.2-10.5-5c0,0,1.6-1.8,1.6-1.9s0.7-1,0.5-1.4C64.3,83.3,50,96.7,50,96.7c-0.4-2.3-1.1-3.1-2.5-4.5c0.8,0,2-0.8,2.6-1.3
	c2.1-1.5,3.3-4.3,3-5.9c-2,0.6-3.9,1.4-6.4,1.9c-1.4,0.3-2.8,0.9-3.6,1.6L43,85.9c0,0,3.4,0.6,5-1.7c1.4-2,0.8-4.2,0.5-5.4
	c0-0.3,0-0.2,0.5-0.8c0.4-0.4,1.1-0.9,1.1-0.9c0-0.1-1.8-0.8-2.1-1.4c0.5-4.7-3.3-6.6-6.5-5.7c-0.6,0.2-0.9,0.3-1.6-0.5
	c-0.1-0.1-1-1-1-1s-0.4,0.9-0.6,1.3c-0.6,1.2-0.8,0.9-2.2,0.9c-3.4,0.2-5,2.9-4.2,6.4c0.2,0.8,0.1,0.7-0.4,1.7
	c-0.3,0.5-0.7,1.2-0.7,1.2s0.6,0.3,1.1,0.5c0.6,0.3,0.7,0.6,0.7,1.2c0.1,1.4,0.4,2.3,1.2,3.5c-2.7,0.1-4.8-0.2-7.2-1
	c0.4,3.8,3.1,5.1,6.5,5.7c0,0-0.4,0.3-0.7,0.5c-0.8,0.2-1.3,0.9-1.3,1.5c-0.1,0.6-0.5,1.2-0.9,1.5c-0.5,0.5-1,1.1-0.8,2.3
	c-0.1,0.9-0.3,1.2-0.5,1.5c-0.5,0.7-0.7,1.4-0.6,2.3c0.1,0.4,0.2,1.3,0.1,2.3c-0.1,1.6,0.4,2.1,1.1,3.2c0.5,0.7,0.4,0.7,0.3,1.2
	c-0.3,1.2-0.5,1.9-0.8,2.8c-0.6,2.1-0.6,3.7-0.1,4.1c0.8,0.6,1.6,0.4,2,0.3c3-0.9,2.5-3.9,2.6-5.8c0.1-0.5,0.3-0.8,0.4-0.7
	c0.8,1,1.7,1.6,2.9,2.2c-4,4.1-6.5,6.5-11.5,11V21.3h57.2c0,0,0.1,0.8-0.1,4.4c-0.2,7.3-0.6,14.9-0.1,22.2c0.1,2.6,0,5.1,0.4,7.6
	c0.4,2.5,0.5,5.1,1.7,7.4c0.5,1.2,0.5,1.2-1.3,2.8c-0.9,0.8-1.6,1.7-1.6,1.8c0,0,0,0.2,0.1,0.1s0.7-0.7,0.8-0.8
	c0.5-0.6,1.3,0.2,4,0.9c0.5,0.2,1.3,0.7,1.9,1.1c4.1,3.4,9.8,2.4,14,0.5c1.2-0.5,1.5-0.6,3.5-0.8c7.2-0.9,14.9-4,14.9-4l0.9,1.6
	c0,0,0.4-0.1,0.6,0.3c4.2,7.9,17.7,16.8,17.4,16.4l-8.9,4.9c6.5,8,21.3,21.5,21.3,21.5v19.5c-4,3.2-7.9,6.8-11.3,10.4
	c-1,1-1.7,1.6-1.3,1.6c0.9-0.1,1.7,0.8,2.4,1.4c0.5,0.5,0.4,0.5-0.2,1.2c-0.4,0.5-0.5,0.6-0.5,1c0,0.7,0,1.2-0.6,1.7
	c-0.4,0.5-0.6,0.8-0.7,1.4c-0.1,0.6-0.1,0.9-0.5,1.5c-0.7,0.1-0.7,1.1-0.6,1.6c0.7,0.7,0.4,1.5,0.4,1.3c-1.3,1.5-2.7,2.7-1.8,0.7
	c0.4-0.8,0.5-1.4,0.5-1.4s-0.6,0.7-1,1c-0.5,0.5-0.7,0.2-0.7-1.3c-0.1-1.1-0.5-2.7-0.7-3c-0.1-0.2-0.1,0.1-0.1,1.2
	c0.1,1.4,0.2,1.8-0.3,3.3c-0.7,1.9-1.2,2.2-0.1,2.1c1-0.1,1.9-0.1,2.4,0.5c0.2,0.2,0.4,0.6,0.8,0.8c0.9,0.5,1.5,1,2,1.5
	c1.5,1.7,1.1,3.2-1.9,2.2c-1.6-0.5-0.5-1.2,1.1-1.1c1,0.1,1.2-0.3,0.3-0.6c-1.7-0.3-1.9-0.5-3,0.8c-4.6-0.5-7.2-3-8.5-5.2
	c-0.5-0.9-0.7-1.1-0.3-1.5c0.1-0.2,0.1-0.1-0.2,0.1c-0.2,0.3-0.9,0.5-1.1,0.7C125.9,154.3,124.3,156,123,157.2L123,157.2z
	 M143,146.4c0.8,0.1,0.8,0.8,0.1,1.4c-0.7,0.5-1.1,0.6-1.5,0.2C141,147.3,141.8,146.3,143,146.4z M145.2,146.8
	c0.6,0,1.4,0.3,2.4,1.1c1.1,1,1.4,3.3,0.4,3.7c-0.4,0.2-0.5,0-1.4-0.9c-0.6-0.6-1.3-1.1-2-1.5c-1.4-0.7-1.6-0.9-0.6-1.4
	c0.2-0.1,0.5-0.3,0.6-0.5C144.8,146.9,144.9,146.8,145.2,146.8z M143.8,149.9c0.2,0,0.4,0.1,0.8,0.3c2.3,1.3,3.5,3.3,2.7,4.4
	c-0.5,0.7-1.4,0.5-2-0.6c-0.4-0.6-1.3-1.3-2.4-1.9c-1.2-0.6-1.3-0.7-0.4-1.2c0.4-0.2,0.6-0.4,0.8-0.7
	C143.6,149.8,143.6,149.9,143.8,149.9L143.8,149.9z M144.6,154.6c1.8,1.8,1.6,2.7,0.4,3.4c-0.8,0.5-2,0.6-2.4,0.2
	c-0.7-0.6-0.6-1.2,0.1-1.5c0.7-0.1,0.4-0.4-0.2-0.6c-2.3-0.6-3.7-1.9-1.2-1.6c0.7,0.1,1.4-0.5,1.8-0.9
	C143.5,153,144.3,154.3,144.6,154.6L144.6,154.6z M25.5,155.3l50.9,72.9H35.2c1.5-11.6-1.5-24.4-5.3-32.8c4.2-0.7,8.2-1.8,12.1-2.9
	l-0.8-1.1c-4.8,1.9-9.2,2.6-13.2,3.1c5.5,9.4,7.5,22.3,5.8,33.7H26v-56.5L25.5,155.3z M34.6,166.2c0.7,0,2.5,1.2,2.7,2.2
	c0,0.2,0.5,1.4,1,2.5c0,0.2,1.8,3.4,1,3.1c-1.6-2.1-4.3-5.7-5-7.5C34.3,166.3,34.4,166.2,34.6,166.2z M40.1,169.4
	c0.1,0.5,0.6,1.9,1.1,2.8c1.1,2.4,2.8,6.1,2.5,7.2c-0.2,0.7,0,0.7-0.6-0.2c-0.3-0.4-1.3-1.8-1.5-2.1c-0.6-0.8-0.2-0.1-0.5-1.3
	c-0.8-3.5-2-5.3-2.8-7.3C37.9,167.6,39.7,169,40.1,169.4z M41.1,169.9c0.1,0.1,2.2,1.5,2.4,1.7c0.7,2.6,3.6,10.8,2.8,12.2
	c-0.3-0.2-1.4-1.5-1.5-2.2c-0.3-3.9-1.6-6.8-2.9-9.7C41.5,171.1,41.2,170.2,41.1,169.9z M44.9,172.7c0.6,0.3,1.3,1,1.7,1.7
	c0.3,0.4,0.4,0.9,0.6,2c0.7,3.3,2.1,6.7,1.5,10.3c-0.4,0.5-1.2-0.7-1.4-1.9c-0.4-4-0.8-5.9-2.1-10.5
	C44.9,173.4,44.7,172.7,44.9,172.7z M48.1,175.8c0.1,0,0.4,0.3,0.9,0.7c0.9,0.9,1,1.2,1,2.6c0,2.1,0.7,4.5,0.8,6.6
	c0.1,1.2,0.3,4.4,0.1,4.6c-0.3,0.4-1.4-1-1.4-3c0.1-2.5,0-4.3-1-8.6C48.1,176.7,47.9,175.8,48.1,175.8L48.1,175.8L48.1,175.8z
	 M142.2,163.4c3.7,2.4,2.4,6.7,1.6,7.2c5,6.4-2.8,9.7-5.3,7.4c-3.7,3.7-10,0.6-7.6-5.5c0,0-4.6-8.9,4.5-8.3c0,0,0.2-3.6-0.1-3.7
	c-3.3-0.2-7.7,2.9-8.9,3.8c-0.7,0.4-0.8,0.2-0.8,0.2c-0.2-1.9-0.2-2.7,0.6-3.7c1.3-1.8,3.5-2.4,6.3-3c3.5,1.1,6.9,2.8,10.2,2.5
	c1.8,0,3.6,0.3,5.4,1.2c1.2,0.6,1.8,2.7,1.8,2.7C147.9,165.2,142.2,163.4,142.2,163.4z M140.5,150.3c0-0.6,0.7-1.3,1.4-1.3
	c1,0.1,1.1,1.2,0.2,1.6c-0.2,0.2-1.1-0.1-1.1,0.1c0.1,0.4-0.3,0.2-0.4,0.1C140.5,150.7,140.5,150.5,140.5,150.3z M139.9,152.8
	c0.4-0.2,0.7-0.3,1-0.3c0.5-0.1,1.3,0,1.4,0.6c0.2,0.6-0.9,0.9-1.8,0.9c-0.4,0-1,0.1-1.1-0.2S139.7,152.9,139.9,152.8L139.9,152.8z
	 M29.7,112.5c0.7-2.5,0.3-3.8,1.4-6.9l2.9,1c0,0,0.1,3-0.5,4.6C33,112.8,31.1,114.1,29.7,112.5z M50.9,178.7c0.3,0,1.2,1.2,1.5,2.3
	c0.3,1,0.2,2.3,0.5,3.4c0.6,3.7,0.5,7.4,0.4,8.5c-0.1,0.6-0.4,0.3-0.9-0.2c-0.7-0.8-0.6-0.8-0.6-2.9c0-1.8-0.4-6.4-0.6-7.3
	c-0.3-1.7-0.5-3.3-0.4-3.6C50.8,178.8,50.9,178.7,50.9,178.7z M84.2,179.2c3.7,0.6,6.6,3.1,8.3,7.3c1.6,4.2,2,10,2.3,15.3
	c0,1.3-0.5,0.9-1.9,0.2c-1.5-0.7-1.8-0.5-4,0c-1.4,0.3-1.2-0.6,1-2.2c0.8-0.5,1.6-1.2,1.4-1.3c-0.1-0.1-0.8,0.1-1.3,0.5
	c-2.2,1.8-2.8,2.2-2.2,0.5c0.2-0.4,0.7-1.6,0.9-2.2c0.8-2.2-0.1-3.1-2.8-4.5c-0.7-0.3-1.1-0.9-0.4,0.3c0.6,1-0.6,1.8-2,0.6
	c-1-0.8-3-0.3-3.6,0.7c-0.6,1-0.3,2.8,0.9,3.3c1.1,0.5,1.5,0.1,0.4-0.6c-1.3-0.9-1.1-2.5,0.4-2.5c0.4,0,1,0.4,2.7,1.3
	c1.2,0.6,2,0.4,2-0.6c0-0.6,0.4-0.6,1.1-0.2c1,0.5,0.9,1,0.4,2.4c-0.4,1-0.6,2.2-0.9,3.2c-0.9,3.6-1,7.6,0,8.8
	c2.6,3.3,5.3,3,7.7,0.8l-0.1,3.7c-2.4,1.9-5.2,3.2-9.5,10.4c-1.5-1.9-8-9.7-18.3-11.4l-2.3-3.2c0-0.2-1.7-11.9-2.9-15.8
	c0,0,1.3-2,2.5-3.4C68.6,184.8,76.5,178.2,84.2,179.2L84.2,179.2z M70.8,182.5c-0.4,0.1-0.5-0.7-0.3-0.8c0.5,0,0.7,0,1.1,0
	S72,182.1,70.8,182.5z M53.4,181.9c0.5,0.4,1.2,1.4,1.8,2.3c0.3,0.5,0.1,1.3,0.2,2.2c0.1,1.2,0.2,3.1,0.3,4.3
	c0.2,2.3-0.1,4.2-0.4,4.9c-0.3,0.8-1,0.3-1.2-0.9c0-0.3,0.2-3.1,0.2-4.7C54.2,187.3,53.5,184,53.4,181.9z M69,181.9
	c0.2,0,0.3,0,0.4,0.2c0.6,0.7,0.8,1.2,0.3,1.5c-0.7,0.6-1.3,0.4-1.7-0.7C67.8,182.2,68.4,181.9,69,181.9z M66.9,182.5
	c0.6,0.4,1.2,1.5,1.3,2.2c0,0.2-0.2,0.4-0.6,0.7c-0.4,0.4-0.5,0.3-1-0.4c-0.7-1.1-1-1.8-0.9-2.2C66,182.5,66.5,182.4,66.9,182.5z
	 M91.3,182.7c1,0.1,2,0.5,3,0.8l-1.5,1.4C92.4,184.1,91.9,183.4,91.3,182.7z M64.7,183.4c0.6,0.7,1.5,2.6,1.5,3.3
	c-0.1,0.2-0.4,0.5-0.6,0.6s-0.3-0.3-1-1.4c-1.1-1.9-1.4-2.5-0.8-2.7C64,183.2,64.5,183.2,64.7,183.4z M62.5,183.9
	c0.6,0.5,2,3.4,2.1,4.2c0,0.2-0.1,0.4-0.2,0.6c-0.9,1-0.7,0.8-2-2c-1.1-2.3-1.4-2.5-0.7-2.8C61.8,183.8,62.2,183.8,62.5,183.9
	L62.5,183.9z M60.3,184.6c0.4,0,0.5,0.7,1.3,2.2c1.3,2.9,1.8,3.3,1.5,3.6c-0.4,0.5-0.6,0.8-0.9,0.2c-0.8-1.3-1.6-2.9-2.3-4.3
	c-0.6-1.1-0.6-1.2-0.3-1.5C59.8,184.7,60.2,184.6,60.3,184.6L60.3,184.6z M83.3,185.4c-0.5,0.1-2.4,0.8-1.2,0.9
	c0.2,0,0.9-0.1,1.3-0.2c1.2-0.1,3.7,0.1,3.6-0.1C86.7,185.2,84,185.3,83.3,185.4z M58.6,185.7c0,0,0.3,0.6,0.6,1.2
	c1.8,3.6,2.9,4.9,2.5,5.4c-0.3,0.3-0.7,0.8-0.9,0.7c-0.4-0.2-0.9-1.3-2.2-4c-1.4-2.7-1.5-2.9-0.8-3.3
	C58.1,185.5,58.4,185.4,58.6,185.7L58.6,185.7z M56.8,186.9c0.8,1.4,0.7,1.2,0.7,5.7c0,2.8-0.4,4.6-0.8,5.3
	c-0.2,0.4-0.7,0.1-0.9-0.6c-0.1-0.3,0.2-0.8,0.2-1.3c0.3-3.4,0.1-6.7,0.1-9.9C56.4,186.1,56.6,186.7,56.8,186.9z M78.5,188
	c0.4,0.6,0.3,1,0.3,1.8c0,1.1,0.1,1.2,0.8,0.6c0.7-0.5,0.7-0.5,1.9,0.3c0.7,0.5,1.6,0.5,2.1,0c0.4-0.4,0.5-0.2,1.1-0.1
	c0.6,0.3,0.7,0.4,2-0.2c0.8-0.4,0.9-0.4,1.4-0.2c0.9,0.8,1,0.5,0.9-0.5c0-0.4,0.1-1,0.2-1.4c0.4-1.8-0.3-1.8-1.2-0.7
	c-0.4,0.4-1.2,0.6-1.9,0.3c-1.1-0.5-2.8-0.3-4.1-0.1c-1.5,0.3-2.2-0.2-2.8-0.7c-0.3-0.3-1.1-0.6-1.2-0.3C77.9,187,78,187.4,78.5,188
	L78.5,188z M58.5,190.6c0.2,0,0.5,0.5,0.9,1.7c0.5,1.5-0.4,6.8-1,7.7c-0.3,0.5-0.5,0.7-1.1-0.1c-0.2-0.4-0.1-0.5,0.2-1.5
	c0.4-1.6,0.7-4.1,0.7-5.3C58.2,191.4,58.3,190.6,58.5,190.6L58.5,190.6z M60.4,195.7c0.1,0,0.3,0.3,0.5,0.9c0.3,0.8,0.2,2.4-0.2,3.6
	c-0.2,0.7-0.5,1.5-0.8,2.1c-0.1,0.4-0.8,0.2-1-0.6c-0.1-0.5,0.3-1.1,0.5-1.9c0.2-0.8,0.4-1.8,0.5-2.3
	C60.1,196.3,60.2,195.7,60.4,195.7z M75.2,198C75.2,198,75.1,198,75.2,198C75.1,198,75.1,198.1,75.2,198c-0.1,0,1.4,1.7,1.8,2.1
	c0.2,0.2,2,2.3,0.9,1.8c-2.8-1.2-6-0.6-8,1.3c-0.2,0.2-0.5,0-1.2-0.1c-1.6-0.1-2.1,0.5-1.2,1.3c0.1,0.1,0.4,0.2,0.6,0.4
	c0.1,0.2,0.1,0.5,0.2,0.6c3,4,8.6,4.8,12,2.2c0.4-0.3,0.7-0.4,1.1-0.3c0.8,0.2,0.9-0.4,0.2-1.4c-0.3-0.4-0.7-0.9-0.5-1
	c0.4-0.4,0.7-1-0.1-1.2c-0.5-0.2-1.1-0.8-1.4-1.6C79,201.1,75.7,198.1,75.2,198L75.2,198z M61.5,199.8c0.7,0,0.7,3.9,0,5
	c-0.4,0.4-1.2-0.4-1.1-1.2c0.1-0.6,0.8-3.6,0.9-3.7S61.5,199.8,61.5,199.8L61.5,199.8z M74.9,202.2c0.5,0,1.3,0.2,1.9,0.8
	c0.3,0.3,0.9,1.6,0.7,2.1c-0.1,0.3-0.7,0.2-0.8,0.1c-0.4-2.6-2.4-2.9-3.1-0.5c0,0-0.4,0.4-0.5-0.3C73.2,202.8,73.8,202.2,74.9,202.2
	L74.9,202.2z M91.4,202.4c0.7,0,1.3,0.3,1.6,1c0.2,0.5,0.2,0.9,0.2,1.1c-0.1,0.2-0.3,0.1-0.3,0.1c-1-2.9-2.5-1.5-3,0
	c0,0-0.5,0.2-0.6,0s0-0.5,0.2-0.9C89.9,202.8,90.6,202.4,91.4,202.4L91.4,202.4z M77.5,202.6c0.4,0,1,0.3,1.5,0.8
	c0.5,0.5,0.5,0.8,0.1,1.1c-0.2,0.2-1.1,0.4-1.2,0.1l-0.7-1.6C77.1,202.8,77.3,202.6,77.5,202.6L77.5,202.6z M72.4,202.7
	c0.4,0,0.5,0.1-0.2,1.6c-0.1,0.3-1.8-0.1-1.5-0.8C71.2,202.9,72,202.7,72.4,202.7z M89.1,202.8c0.2,0,0.3,0,0.4,0.1
	c-0.1,0.1-0.8,1.7-0.8,1.7c-0.6-0.1-1.3,0-1.4-0.5c-0.1-0.5,0.1-0.7,1-1.1C88.4,202.8,88.8,202.8,89.1,202.8z M94,203.1
	c0.6,0.2,0.8,0.8,0.7,1s-0.4,0.2-0.6,0s-0.5-0.6-0.5-0.9C93.7,203,93.8,203,94,203.1z M62.5,204.6c0.2,0.4,0.5,2.5,0.1,2.4
	s-0.6-0.7-0.7-1.3C62,205.6,62.3,204.6,62.5,204.6z M69.5,205.7c0.2,0,0.6,0.1,1.3,0.5c2.3,1.1,4.6,1.3,7.1,0.7
	c1.4-0.4,1.8-0.6,2-0.3c0.3,0.4-0.2,0.8-2.2,1.5c-2.2,0.7-4.5,0.6-7.5-1.5C69.3,206,69.2,205.8,69.5,205.7L69.5,205.7z M94.6,206.3
	c0.4,0.7-0.9,1.4-1.5,1.6c-1.4,0.4-3.4,0.2-4.6-0.5c-0.1-0.1-0.2-0.1-0.3-0.2c-1-0.7-0.6-1.2,0.5-0.7c1.1,0.6,3.5,0.7,4.7,0.1
	C94,206.3,94.4,205.9,94.6,206.3z M66.5,207.6c-0.1,0,0.1,0.3,0.5,0.8c3.1,3.5,10.5,5.4,14.6,1.8c1.3-1.2,1.1-1.8-1-0.8
	c-2.3,0.8-5.5,0.8-8.3,0.4c-1.4-0.2-3.6-0.7-4.8-1.5C67,207.8,66.6,207.6,66.5,207.6L66.5,207.6z M87.8,207.7c0.2,0,0.5,0.1,1.2,0.5
	c1.1,0.5,3.4,0.4,4.2,0.1c1.7-0.6,2,0.2,0.4,1c-1.7,1.1-4.1,0.6-5.6-0.7c-0.4-0.4-0.7-0.9-0.5-0.9C87.7,207.6,87.8,207.7,87.8,207.7
	z M67.3,213.9c6.1,0.6,15.3,7,18.9,14.3h-2.1c-3.6-5.8-9.2-10.7-15.7-12.5C68.1,215.5,67.2,214.1,67.3,213.9L67.3,213.9z
	 M94.4,215.2l-0.3,2c-1,0.8-4.8,4-7.6,8.9c-0.6,0-0.9-0.7-0.8-1.2C88,220.5,90.7,218.1,94.4,215.2L94.4,215.2z M69.7,216.8
	c1.4-0.1,10.5,5.2,13.5,11.4h-1.7c-3.5-4.5-7.3-7.8-10.7-9C70.1,218.3,69.2,216.9,69.7,216.8z M94.1,218.2v2.7
	c-2.2,2.1-3.8,4.6-5,7.2h-1.7c0,0-0.4-1.1-0.2-1.5C89,223.2,90.9,220.6,94.1,218.2L94.1,218.2z M80.2,228.2h-1.6
	c-1.4-2-3.4-4.2-5.3-5.3c-0.8-1-1.6-2.2-1.3-2.3C72.1,219.8,79.2,225.1,80.2,228.2L80.2,228.2z M94.1,222.3v1.6
	c-1.1,1.4-2,3-2.9,4.3h-1.4C91,225.4,94.2,221.5,94.1,222.3L94.1,222.3z M75.4,225.4c0.5,0.1,2.4,2.2,2.3,2.8h-0.8
	c-0.5-0.6-1-1.6-1.3-2.2C75.3,225.6,75.1,225.3,75.4,225.4L75.4,225.4z M93.8,225.8L93.8,225.8v2.3h-1.4
	C92.2,228.2,93.1,226.3,93.8,225.8L93.8,225.8z"/>
<path d="
	M101.3,21.1l52.1,74.2V78.8l-16.7-21.6c3.8-1.2,8.5-2,12.1-2.3c-4.7-10.5-7.1-20.2-5-33.7C129.3,20.9,114.7,21,101.3,21.1z
	 M143.1,21.4c-0.4,4.8-0.9,10.1-0.1,15.9c-2.7-1-3.4,0.7-3.8,0.9c-0.5-1.1-2.4-3.1-4.6-0.8c-1.1,1.2-0.6,3.5,2,4.5
	c-3,0.2-4.5-2.3-5-4.9c-1.6-1-3.3-2-3.5-5.7l0.8,0.1c-0.3,2.5,2.3,3.8,3.9,2.6c1-0.8,1.1-1.9,0.7-3.7c0.8-0.2,2.7-0.9,2.2-3.3
	c-0.7-3.3-4.1-2.9-5.6-0.7c-1.3-1.6-3.6-1.9-4.6,0.6c-0.5,1.4,0.7,2.9,2,3.2c-3,0.6-4.6-3.6-4.7-6.4l-1.3-2.2
	C129.8,21.4,133.4,21.4,143.1,21.4z M102.2,21.5h6.1l44.2,57.3l0.1,14.3L102.2,21.5z M117.6,21.5h1c0.8,5.1,3.7,8.7,8.6,10.5
	c0.3,4.1,2.2,9.8,9.8,11.7c-0.2,4.7,2.8,9.1,6,11.3c0,0-0.9,0.2-1.5,0.3c-4.3-3.4-5.4-8.5-5.8-10.5c-0.1-0.3-0.6-0.4-0.9-0.4
	c-3.7-1.3-6.8-4.3-8.1-8l-0.8-3.6c0-0.5-0.1-0.2-1.2-0.7c-2.8-1-5.5-4.1-6.7-7.8C117.4,22.2,117.6,21.5,117.6,21.5L117.6,21.5z
	 M113.7,21.5h3.4c0,0,0,0.6,0.1,1c0.5,3.6,3.7,8.2,7,9.7c0.5,0.2,1.1,0.5,1.3,0.7c0.9,5.9,3.6,9.5,9.3,12c0.1,0.1,0.3,0.2,0.4,0.3
	c0.8,3.7,2.5,7.9,5.7,10.3l-1.4,0.1L113.7,21.5z M130.2,27.8c0.8,0,1.4,0.6,1.4,1.4s-0.6,1.4-1.4,1.4c-0.8,0-1.4-0.6-1.4-1.4
	S129.4,27.8,130.2,27.8z M83.4,35.4c0.1,0.2-18.9,16.3-17.1,46.8l-0.6,0.6l0.2,0.2c-0.6,0.7-1.2,1.3-1.9,2c4,2.5,10.9,5.3,10.9,5.2
	l-1.3,3.1l8.3,2.7l-1.1,2.9c0,0-5.7-1.9-8.1-2.7c-1.2,2.6-1.9,5.4-2.7,8.1c-0.1,0.2-0.3,0.1-0.6-0.3c-4.3-7.3-13-12.6-12.7-12.1
	l-31.2,29.6l-0.2,18.3L46.8,162c0,0-6.3,3.1-9.2,5.1c2.3,1.9,4.9,3.3,7.2,5.1c4.7,3.3,7.9,8.3,11,11.6c14.4-7.2,29-6.8,41.5-2.4
	c-1.5,1.5-3.1,2.9-4.6,4.6c3.7,9.6,2.5,28.6,2.3,29.2c7.6-7.8,18.9-24.4,17.3-47.9l3.2-3.2c-0.1-0.2-8-4.4-11.2-5.4l0.9-2.9
	l-7.9-2.5l0.9-2.3l7.9,2.3c1.5-3.7,3.1-8.9,3.1-8.9c3.2,4.7,6.6,9.1,13.7,13.4l31-29.7l-0.2-19.1l-21.1-21.1l8.8-4.6
	c-0.8-0.7-2.1-1.3-2.9-2c-0.1,0,0.2-0.2,0.1-0.2c-0.2-0.2-0.4-0.3-0.6-0.5c-0.1,0-0.2,0.2-0.3,0.2c-3-2.1-6-4.2-8.3-6.7
	c-0.1-0.1,0-0.3,0-0.4c-1.2-1.3-2.4-2.5-3.7-3.8c-0.6-0.6-1.5-2-1.5-2l-0.1-0.5l-1.3-1.7c-4.3,2.5-22.5,8.9-40.2,1.9l3.4-3.4
	c-0.9-2.2-1.5-4.6-1.7-6.6C83,49.6,83.4,35.4,83.4,35.4L83.4,35.4z M139.2,39.9c0.8,0,1.5,0.7,1.5,1.5c0,0.8-0.7,1.5-1.5,1.5
	s-1.5-0.7-1.5-1.5C137.7,40.6,138.3,39.9,139.2,39.9z M143.8,41.7c0.7,3.7,2.4,9,4,12.6l-2,0.2c-1.6-1-3.3-2.5-3.5-4.7
	c-4.3,0-5.6-6.7-4-5.9c-0.2,2.3,1.5,3.2,3.1,3c1.4-0.2,2.6-2.1,0.9-4.3C143.2,42.3,143.5,42.1,143.8,41.7z M83,52.4
	c0.3,4.7,1.2,8.1,2.1,11.7l-8.5,8C77.3,64.8,79.3,58.2,83,52.4z M123.5,67.9l1.1,1.6c-12.2,7.2-33.2,7.7-45.9,1.6l1.7-1.6
	C91.7,74.5,109.9,74.9,123.5,67.9L123.5,67.9z M44.1,70.3c-1.2,0-2.7,0.5-4.2,1.6c-5.6-2.6-9.3,3.4-5.8,7.4
	c-0.5,2.9-0.9,3.4,1.2,6.3c-2.3,0.3-5.2-0.3-7.6-0.7c0.4,4.2,6.5,5.2,9,4.8c2.7-0.6,5.3,0.8,5.4,0.8c1.6,0.4,2.6,1.2,4.2,1.6
	c2.6,0.6,6.4-2.4,7-5.4c0.1-0.4,0.2-0.7,0-0.8c-1.8,0.5-3.7,1.1-5.5,1.5c-1.7,0.4-3,0.8-4.3,1.8l-0.1-3.5c8.8,0.4,5-8,4.5-8.4
	C49.5,74.1,47.5,70.3,44.1,70.3L44.1,70.3z M124,70.5l1.9,4.6l-5.1,1.7l-1.3-4.5L124,70.5z M43.7,70.7c3,0,5.7,3.2,2.8,6.7
	c5.6,4.9-1.6,10.2-5,6.6c-4.5,4.2-9.4-0.2-6.8-4.7c-4.8-4.3,1.1-10.2,5.2-6.4C41,71.3,42.4,70.7,43.7,70.7z M78.4,72.4
	c0.7,0,1.3,0.6,1.3,1.3c0,0.7-0.6,1.3-1.3,1.3c-0.7,0-1.3-0.6-1.3-1.3C77.2,73,77.8,72.4,78.4,72.4z M45.3,72.5
	c-0.1,0-0.2,0-0.3,0.1c-0.1,0-0.5,0.6-1.3,1.5c-1.4,1.6-1.5,1.6-1.5,1.6c-1.5-0.5-2.5-0.2-3.4,0.4c0,0-1.1-0.2-2.6-1.5
	c-0.7-0.6-1.1-0.7-1.2-0.4s0.2,0.7,1.5,1.6c1.8,1.3,1.7,1.2,1.7,1.2c-0.1,1.1,0.1,2,0.5,2.8c0,0-0.3,0.8-1.6,2.5
	c-0.4,0.5-0.7,1-0.7,1.2c0,0.7,0.6,0.2,1.9-1.5c0.5-0.7,1.2-1.6,1.2-1.6c1.6,0.5,2.1,0.2,3.1-0.1c0,0,0.3,0.3,1.2,0.9
	c1.6,1.3,1.9,1.4,2.1,1.2c0.3-0.2,0.2-0.3-0.4-0.7c-1.8-1.3-2.4-2-2.4-2c0.4-1.4,0-2.6-0.4-3.3c0,0,0-0.2,1-1.3
	c0.7-0.8,1.7-2.1,1.7-2.3C45.6,72.6,45.5,72.5,45.3,72.5z M81.3,72.8l4.6,1.4l-1,4.8L80,77.4L81.3,72.8z M114.5,73.9l1.3,4.7
	l-4.8,1.3l-0.8-5L114.5,73.9z M117.9,74c0.7,0,1.3,0.6,1.3,1.3c0,0.7-0.6,1.3-1.3,1.3c-0.7,0-1.3-0.6-1.3-1.3S117.2,74,117.9,74z
	 M128.6,74.2l4,3.6l-4.5,2.3l-2.1-4.7L128.6,74.2z M90.9,75.2l4.7,0.6l-0.2,5L90,80L90.9,75.2z M74.8,75.3l5.2,2.3l-1.9,5.3
	l-5.3-2.3L74.8,75.3z M88.1,75.7c1.9,0.3,1.4,2.6,0,2.6c-0.7,0-1.3-0.6-1.3-1.3S87.4,75.7,88.1,75.7z M104.8,75.7l0.6,5l-4.8,0.3
	l-0.1-5.1L104.8,75.7z M108.2,76.3c0.7,0,1.3,0.6,1.3,1.3c0,0.7-0.6,1.3-1.3,1.3s-1.3-0.6-1.3-1.3C106.9,76.8,107.4,76.3,108.2,76.3
	z M41,76.7c0.7,0,1.3,0.6,1.3,1.3c0,0.7-0.6,1.3-1.3,1.3c-0.7,0-1.3-0.6-1.3-1.3C39.6,77.3,40.2,76.7,41,76.7z M98.2,76.7
	c0.7,0,1.3,0.6,1.3,1.3c0,0.7-0.6,1.3-1.3,1.3c-0.7,0-1.3-0.6-1.3-1.3C96.9,77.3,97.5,76.7,98.2,76.7z M120.9,77l1.9,5.2l-5.3,1.7
	l-1.5-5.3L120.9,77z M124.5,77.1c0.7,0,1.3,0.6,1.3,1.3s-0.6,1.3-1.3,1.3c-0.7,0-1.3-0.6-1.3-1.3S123.8,77.1,124.5,77.1z
	 M133.7,78.5l3.4,2.4l-1.7,0.9C135,80.8,134.2,79.6,133.7,78.5z M85,79l5.1,1.1l-0.8,5.3l-5.5-1.1L85,79z M70,79.3l2.7,1.3L70.9,85
	l-4.3-2.3L70,79.3z M81.9,79.6c0.7,0,1.3,0.6,1.3,1.3s-0.6,1.3-1.3,1.3c-0.7,0-1.3-0.6-1.3-1.3S81.2,79.6,81.9,79.6z M111,79.9
	l0.9,5.3l-5.7,0.8l-0.4-5.4L111,79.9z M132.3,80c0.7,0,1.3,0.6,1.3,1.3c0,0.7-0.6,1.3-1.3,1.3S131,82,131,81.3
	C131,80.5,131.5,80,132.3,80z M128.2,80l1.9,4.7l-5.6,2.3l-1.6-4.7L128.2,80z M114.1,80.3c0.7,0,1.3,0.6,1.3,1.3
	c0,0.7-0.6,1.3-1.3,1.3c-0.7,0-1.3-0.6-1.3-1.3C112.8,80.9,113.4,80.3,114.1,80.3z M95.4,80.9l5.3,0.1l-0.1,5.4l-5.8-0.2L95.4,80.9z
	 M137.8,81.2l2.1,1.5c-21.5,13.9-51.8,15.7-75.3,1.9c0,0,1-1,1.5-1.5C87.4,95.9,118.4,94.1,137.8,81.2z M92.5,81.8
	c0.7,0,1.3,0.6,1.3,1.3c0,0.7-0.6,1.3-1.3,1.3c-0.7,0-1.3-0.6-1.3-1.3C91.2,82.4,91.7,81.8,92.5,81.8z M103.3,82.1
	c0.7,0,1.3,0.6,1.3,1.3c0,0.7-0.6,1.3-1.3,1.3c-0.7,0-1.3-0.6-1.3-1.3C102,82.7,102.6,82.1,103.3,82.1z M78,82.9l5.6,1.6l-0.9,4.4
	l-6.1-1.8L78,82.9z M74.4,82.9c0.7,0,1.3,0.6,1.3,1.3c0,0.7-0.6,1.3-1.3,1.3c-0.7,0-1.3-0.6-1.3-1.3C73.1,83.5,73.7,82.9,74.4,82.9z
	 M117.5,83.8l1.3,5l-6.2,1.3l-0.7-4.9L117.5,83.8z M121,84.5c0.7,0,1.3,0.6,1.3,1.3c0,0.7-0.6,1.3-1.3,1.3c-0.7,0-1.3-0.6-1.3-1.3
	C119.7,85.1,120.3,84.5,121,84.5z M40.8,85.3v3.5c-1-0.8-2.2-1.7-3.4-2.7C38.7,86.2,39.8,85.9,40.8,85.3L40.8,85.3z M28.3,85.4
	c0.3,0,0.9,0.2,1.7,0.2c2.5,0,7.2,0.8,8.6,1.9c0.5,0.4,1.2,0.7,1.5,1.3c0,0.3-0.4,0.3-1-0.1c-1.2-0.7-3.1-1.4-5.7-1.7
	c-0.5-0.1-0.5,0-0.5,0.2c0,0.3,0.4,0.4,1.8,0.7c1.8,0.3,2.1,0.5,2.5,0.6c1,0.3,0.4,0.7-0.7,0.8c-4.4,0.4-7.7-1.5-8.4-3.7
	C28.1,85.4,28.1,85.4,28.3,85.4z M89.2,85.5l5.5,0.7l-0.3,4.6l-6.1-0.7L89.2,85.5z M42.4,85.9c1,0.8,0.3,3.1-0.2,3.7
	c-0.3,0.4-1.1,0.2-1.1-0.4c0.1-0.5-0.1-2.8,0.1-3.5C41.5,85.6,42,85.6,42.4,85.9L42.4,85.9z M106.2,86.1l0.3,4.8l-6,0.3v-4.7
	L106.2,86.1z M85.9,86.4c0.7,0,1.3,0.6,1.3,1.3c0,0.7-0.6,1.3-1.3,1.3c-0.7,0-1.3-0.6-1.3-1.3C84.6,87,85.2,86.4,85.9,86.4z
	 M52.5,86.5c0.2,3.5-5.2,5.9-7.2,4.8c-0.9-0.5-0.5-0.8,1.2-1.1c2.3-0.6,3.8-1.2,3.8-1.6c0-0.3-0.3-0.2-1.3,0.1
	c-1.4,0.5-2.9,0.7-4.3,1.3c-1,0.5-1.4,0.6-1.7,0.3c-0.5-0.6,1.8-2.1,4.2-2.5C49.1,87.5,50.8,86.6,52.5,86.5z M109.5,86.9
	c0.7,0,1.3,0.6,1.3,1.3c0,0.7-0.6,1.3-1.3,1.3c-0.7,0-1.3-0.6-1.3-1.3C108.2,87.5,108.8,86.9,109.5,86.9z M97.5,87.9
	c0.7,0,1.3,0.6,1.3,1.3s-0.6,1.3-1.3,1.3s-1.3-0.6-1.3-1.3S96.8,87.9,97.5,87.9z M126.3,90.1c8.7,8.3,18.2,17.8,26,25.7
	c0,4.1,0,12.4,0,12.4l-30,28.6c-5.4-3.3-10.1-7.5-14.2-14.9c0.5-0.4,0.9-0.7,1.3-1.1l-1.6,0.9c-5.5-8.9-7.9-26.5,1.5-40.7l-9.5,0.3
	l1.6-3.2l10.4-0.6l4.2-4.5c0,0,1.3-0.2,2.4-0.5c1.1-0.3,3.3-0.9,5-1.4C124.9,90.5,126.3,90.1,126.3,90.1L126.3,90.1z M56.3,92.4
	c0,0,8.9,4.9,13.8,14.6c-16,13.9-22,29.9-23.4,46.7c-8.7-8.2-13.1-12.7-21-20.6l0.3-11.9L56.3,92.4z M90,93.9
	c-2.3,5-4.3,10.4-6.1,16.1l-2.5-0.7c0,0,1.6-0.7,2.3-1.1l-1.3-2.1l2.5-1l-1.4-1.8L86,102l-1.2-1.6l2.3-1.1l-1.4-1.6l2.4-1.3
	l-1.2-1.6L90,93.9z M90.8,93.9c0,0,0.3,0.1,0.7,0.1c0.1,0-0.4,1.3-0.4,1.3c0.9,0.2,0.9,0.1,1.2,0.2l0.7-1.4l1.1,0.2
	c-2.2,5-4.5,10.4-5.9,16.2l-1.3-0.3c0,0,0.4-1.2,0.4-1.4c-0.2,0-0.9-0.3-1.1-0.4c-0.1,0.2-0.5,1.6-0.5,1.6h-1
	C86.2,103.8,89.1,96.7,90.8,93.9L90.8,93.9z M95,94.1l2.3,1.9l-2.6,1l1.3,1.8l-2.7,1l1.6,1.9l-2.7,1l1.6,2.2l-2.8,1l1.8,2l-2.5,1.2
	l1.5,1.5c0,0-1.6,0.5-1.7,0.5c-0.3,0.1-1.3-0.2-1.3-0.2C90.3,105.1,92.3,99.3,95,94.1L95,94.1z M39.8,95.1c-0.6,0.4-0.3,1.3-1.1,2.1
	c-0.1,0.1-0.1,0.4-0.2,0.7c0,0.2-0.7,2.7-0.7,2.7s0.2-0.2,0.4-1c0.2-0.7,0.4-2,0.5-2.2c0.6-0.2,0.7-2.1,1.3-1.8
	c0.3,0.1,0.3,0.5,0.1,1.2c-0.4,1.5-0.6,2.1,0.1,1.1c1.1-1.3,1.2-2.5,0-2.7C40.2,95.1,39.9,95.1,39.8,95.1L39.8,95.1z M56,95.6
	l-28,26.3l-0.1,9.9l9.8,9.9l6.9,6.7c2.5-15.1,8.3-29.4,22.4-41.9C64.9,103.1,61.1,98.7,56,95.6L56,95.6z M131.4,95.9
	c-16.4,7.8-20.2,23.6-15.1,38.1C124.1,123.8,130.3,114.3,131.4,95.9z M73,96.7l7.5,2.4l-2.8,9.7l-6.8-2.1l-0.7-1.7L73,96.7z
	 M130.6,97c-0.7,12.9-5.6,25.4-13.9,35.3C112.4,121.7,115,104.9,130.6,97z M90.4,97l-0.5,1.2l1,0.3l0.4-1.2L90.4,97z M89.4,99.9
	l-0.4,1.2l1.1,0.4l0.4-1.2L89.4,99.9z M133.4,100.1c-2.3,17.8-11.9,34.1-22.1,42.4c3.2,5.3,7.1,8.7,10.9,11.5l28.6-27.5l-0.1-9.2
	L133.4,100.1z M57.8,104.8c-0.2,0.7-0.2,1-0.2,1s0.3-0.3,1.2-0.8c5.6-2.8,3.8,1.5,1.2,3.1c-0.6,0.3-1.2,0.7-1.2,0.7s0.6,0.1,1.2,0.2
	c3.4,0.7,2.7,2.7-0.9,2.4c-0.5,0-1.1-0.1-1.1-0.1s0.2,0.8,0.5,1.4c1.2,3-1,3.3-2.5,1.3c-0.2-0.3-0.7-1-0.7-1s-0.1,0.6-0.2,1.1
	c-1.3,4.8-4.4,4.6-3.2-0.2c0.1-0.5,0.3-1.4,0.3-1.4s-0.7,0.4-1.5,0.8c-4.1,1.8-4.7-0.1-1-2.8c1.1-0.8,1.4-1.1,1.4-1.1
	c-0.7,0-1.3-0.2-1.8-0.3c-3-0.7-3.7-2.5,1-2.4c0.7,0,1.4,0.1,1.4,0.1s-0.2-1-0.5-1.8c-1.1-3.6,1.2-4,3.1-0.8
	c0.4,0.7,0.5,0.7,0.5,0.7c-0.1,0,0.1-1.2,0.6-2.3C57.6,98.2,58.5,102.2,57.8,104.8L57.8,104.8z M108.4,101.3c-2,3.5-3.7,7-4.5,10.6
	l-7.7-0.1c0.5-3.2,1.9-6.6,3.5-10.1C102.9,101.6,105.7,101.5,108.4,101.3z M88.3,102.9l-0.4,1.3l1.1,0.3l0.4-1.3L88.3,102.9z
	 M31.2,105.3c-0.8,2.1-1.1,4.5-1.6,6.4c-0.2,1.1,0,1.6,0.7,1.8c0.9,0.4,2.3-0.1,3.1-1.2c0.4-0.6,0.7-1.9,0.8-4.1l0.1-2
	C33.1,106,32.3,105.6,31.2,105.3L31.2,105.3z M87.2,105.5l-0.4,1.2l1.1,0.4l0.4-1.2L87.2,105.5z M136.7,106c1.3,0,1.5,0.1,2.7,0.9
	l2.3,2.4c-0.6,0.6-1,1.4-1,2.3c0,1.7,1.4,3.2,3.1,3.2c0.9,0,2.2-0.9,2.2-0.9l3.6,3.8c-2.1,0.9-4.2-1.2-4.9-2
	c-0.2-0.2-0.2-0.3-0.2-0.3s0,0.1,0,0.5c-0.3,1.7-1.9,6.6-3.5,6.3c-1.8-0.3,0-7.3,0.1-7.2c-1.2,1.3-7.1,2.7-6.7,1.2
	c0.8-2.9,5.3-4,5.8-4.5C137.8,110,134.8,106.2,136.7,106L136.7,106z M31.5,106.1c0.8,0.1,1.3,0.1,1.8,0.4c0.2,0.1,0.2,0.3,0.3,0.5
	c0,0.8,0.2,3.3-0.6,3.4c-0.9,0-1.7,0.2-2.3,0.6c-0.5,0.4-0.6,0.1-0.5-0.8c0.1-0.9,0.6-2.7,0.7-3.5C31,106.3,31.2,106.1,31.5,106.1z
	 M54.8,106.1c-1.7,0-3.1,1.4-3.1,3.2c0,1.7,1.4,3.2,3.1,3.2s3.1-1.4,3.1-3.2C57.9,107.5,56.4,106.1,54.8,106.1z M54.8,107.2
	c1.1,0,2,0.9,2,2.1c0,1.1-0.9,2-2,2c-1.1,0-2-0.9-2-2C52.8,108.1,53.7,107.2,54.8,107.2L54.8,107.2z M70.9,107.3
	c7.2,12.5,6.4,29.5-2.1,42l9.1-0.6l-1.2,2.3l-9.7,1c-1.5,1.4-2.8,2.9-4.3,4.4v0.5c-3.3,0.8-6.7,1.7-10.1,2.9
	c-1.8-1.8-5.2-5.3-5.2-5.4l0.2-1.1c23.1-11.8,16.3-35.5,14.7-37.5C64.9,112.6,67.9,109.8,70.9,107.3L70.9,107.3z M134.9,109.4
	c0.9,0,1.7,0.8,1.7,1.7s-0.8,1.7-1.7,1.7c-0.9,0-1.7-0.8-1.7-1.7S134,109.4,134.9,109.4z M142.5,109.9l2.8,2.9
	c-0.4,0.4-0.9,0.6-1.4,0.6c-1.1,0-2-0.9-2-2C141.8,110.8,142.1,110.3,142.5,109.9z M45.1,110.2c0.9,0,1.7,0.8,1.7,1.7
	c0,0.9-0.8,1.7-1.7,1.7c-0.9,0-1.7-0.8-1.7-1.7C43.4,111,44.2,110.2,45.1,110.2z M32.6,111c0.8,0.3,0.6,1-0.4,1.7
	c-0.7,0.4-1.3,0.5-1.9,0.2C29.2,112.2,31.5,110.6,32.6,111z M45.6,115.1L35.4,125c0.6-1.6,0.7-3.3,0.7-4.9c3.1,0.3,4.4-1.2,3.9-4.5
	C42,115.8,44,115.6,45.6,115.1L45.6,115.1z M61.9,116.3c4.7,13.6,0.6,27.8-14.1,36.1C48.4,139.5,53.8,127.1,61.9,116.3z M75.4,117.5
	c8.1,2.1,17.3,3.1,27,3.1c0.1,3.7,0.2,7.6,1,11.3c-8.2-2.2-17.3-3.2-27.3-3C76.5,125,75.9,120.6,75.4,117.5z M135.5,119.5l-8.7,10.2
	l0.4-5.6c2.9,0.4,4-1.2,3.5-4.2C132.3,120.1,133.9,119.8,135.5,119.5z M51.6,120l-0.7,4.1c-1.7,0-3.4,0.7-3.4,4.5l-5.2-0.1L51.6,120
	z M146.6,120.8c0.9,0,1.7,0.8,1.7,1.7c0,0.9-0.8,1.7-1.7,1.7c-0.9,0-1.7-0.8-1.7-1.7C145,121.5,145.7,120.8,146.6,120.8z
	 M43.8,121.3c0.9,0,1.7,0.8,1.7,1.7c0,0.9-0.8,1.7-1.7,1.7s-1.7-0.8-1.7-1.7C42.1,122.1,42.8,121.3,43.8,121.3z M142.9,123l-0.9,6.2
	c-2.4-0.2-4.3,0.2-3.7,4.3c-2-0.2-4.8,0.3-6.6,0.4L142.9,123z M134.5,124.2c0.9,0,1.7,0.8,1.7,1.7c0,0.9-0.8,1.7-1.7,1.7
	s-1.7-0.8-1.7-1.7C132.8,124.9,133.5,124.2,134.5,124.2z M31.4,125.5c0.9,0,1.7,0.8,1.7,1.7c0,0.9-0.8,1.7-1.7,1.7
	c-0.9,0-1.7-0.8-1.7-1.7C29.7,126.2,30.5,125.5,31.4,125.5z M36.9,127.5c2.2,0.5,1.2,5.6,0.7,6.9c0,0,6.1-3.2,6.4-1.8
	c0.2,2.9-5,4.9-5,4.9s3.6,3.1,3.7,5c0,1.3-1.5,1-3.4-0.6c-0.8-0.8-1.5-1.4-2-2c0.7-0.6,1.1-1.4,1.1-2.4c0-1.7-1.4-3.2-3.1-3.2
	c-1,0-1.8,0.4-2.4,1.1c-0.5-0.4-1-0.9-1.6-1.6c-1.1-1.1-1.9-1.9-1.8-2.3c1.5-1,4.4,1.8,4.7,2C33.8,133.2,35.4,127.8,36.9,127.5z
	 M34,133.7C34,133.8,34,133.8,34,133.7C34,133.8,34,133.7,34,133.7z M126.1,131.4c1,0,1,2.3,0.6,3.6c-0.3,0.9-0.5,1.7-0.5,1.7
	s0.9-0.7,1.3-0.9c2.8-1.3,3.9,0.2,2.4,1.9c-0.7,0.9-1.6,1.1-2.4,1.8c1.1,0,2.3,0.3,3.2,0.8c0.7,0.4,1.3,1,1.3,1.3
	c0,0.7-1.8,1.1-3.5,0.9c-0.7,0-2-0.4-2-0.4s0.6,0.9,0.8,1.5c0.6,1.7,0.4,3.8-0.5,3.8c-1.5-0.4-2.2-2.1-2.8-3.3c-0.5,1.3-1,2.8-2,3.8
	c-1.1,1-1.6,0.2-1.6-1.5c0-0.7,0.5-2.7,0.5-2.7c-6.3,2.1-5.9-0.8-0.9-3.3c-3-1.5-4.9-2.8,0.3-3.1c-0.1-0.1-1-2.9-0.1-3.6
	c0.9-0.6,2.8,1.5,2.9,1.6c0-0.2,0.5-1.8,1.4-3C125.2,131.8,125.7,131.5,126.1,131.4L126.1,131.4z M120.4,137.5L120.4,137.5
	L120.4,137.5z M147.9,135.7c-1.1,0.1-1.8,1.1-2.3,1.9c-0.1,0.2-0.3,0.2-0.4,0.5c-0.5,1.5-0.9,3.2-1.1,5.4c0.7,0.3,2.3,0.8,3,0.5
	c0.2-0.1,0.1-0.6,0.2-0.8c1.1-2.8,1.6-4.8,1.6-6.1C148.9,136.1,148.6,135.6,147.9,135.7z M35.1,135.5c1.1,0,2,0.9,2,2
	c0,0.7-0.3,1.2-0.8,1.6c-1.3-1.3-2-2-2.9-2.9C33.9,135.8,34.5,135.5,35.1,135.5z M148.2,136.5c0.3,0.7-0.6,1.4-1.8,1.4
	c-0.7,0-0.9,0.1-0.6-0.5C146.2,136.7,147.7,135.2,148.2,136.5L148.2,136.5z M132.9,136c0.9,0,1.7,0.8,1.7,1.7c0,0.9-0.8,1.7-1.7,1.7
	c-0.9,0-1.7-0.8-1.7-1.7C131.2,136.8,132,136,132.9,136z M43.7,136.2c0.9,0,1.7,0.8,1.7,1.7c0,0.9-0.8,1.7-1.7,1.7s-1.7-0.8-1.7-1.7
	C42,136.9,42.8,136.2,43.7,136.2z M123.7,136.8c-1.7,0-3.1,1.4-3.1,3.2s1.4,3.2,3.1,3.2s3.1-1.4,3.1-3.2S125.4,136.8,123.7,136.8z
	 M81.9,137.3c-0.8,3.6-2.1,7.1-3.7,10.5c-3,0.2-6.3,0.3-8.5,0.6c3.6-6.3,3.7-7.8,5-11.2L81.9,137.3z M87.1,137.8
	c0.9,0.1,1.8,0.2,2.6,0.4c-1.5,5.5-3.6,11.1-6.2,16.4l-1.6-0.2l-0.8-0.9l2.5-1l-2-2l3.3-1l-2-2l3.2-0.8l-1.7-2.1l2.9-1.1l-1.8-2.4
	l3.1-0.9L87.1,137.8z M123.7,137.9c1.1,0,2,0.9,2,2s-0.9,2-2,2s-2-0.9-2-2S122.7,137.9,123.7,137.9z M90.3,138.3l1.1,0.2l-0.3,1.2
	l1.2,0.3l0.4-1.3c0,0,1,0.1,1.1,0.2c-1.3,5.3-5.9,16.2-5.9,16.1l-1.2-0.2l0.3-1.1l-1.1-0.2l0,0l-0.5,1.2l-1.2-0.1
	C87,148.1,88.9,143.2,90.3,138.3L90.3,138.3z M147.4,138.7c0.9,0,0.8,0.4,0.2,2.1c-0.6,1.5-0.8,2.2-1.1,2.4c-0.7,0.5-2.2,0.1-2-0.6
	c0.4-2.3,0.5-3.3,1.1-3.6C146.2,138.8,146.8,138.7,147.4,138.7z M94.6,138.9l2.8,0.5l-2.4,1.4l1.5,1.8l-2.9,1.2l1.8,1.8l-2.8,1.1
	l1.7,2l-2.9,1.2l2,1.7l-3.3,1l1.2,1.9l-1.2,0.7l-1.5-0.2C91.2,149.1,92.8,144.3,94.6,138.9L94.6,138.9z M101.4,140.2l5.5,1.5l1.1,2
	l-2.6,8.8l-7.4-2.2L101.4,140.2z M90.6,141l-0.5,1.4l1.2,0.3l0.5-1.5L90.6,141z M89.5,144.3l-0.5,1.4l1.1,0.2l0.5-1.5L89.5,144.3z
	 M88.4,147.2l-0.5,1.4l1.1,0.2l0.5-1.4L88.4,147.2z M140.1,149.9c0,0-0.6,0.4-0.7,0.6c0.1,0.3,0.5,0.8,0.4,1.2
	c0,0.2-0.3,0.5-0.7,0.9c-1,1.2-1.4,1.1-0.8-0.2c0.2-0.4,0.3-0.8,0.3-0.8c-0.2,0.3-0.4,0.7-0.6,1.1c-0.3,0.7-0.7,1.3-0.7,1.3
	c0.7,0.2,1.1,0.7,1.5,1c0,0,0.2-0.6,0.4-1.1c0.2-0.8,0.6-1.1,1.1-1.4c0.3-0.2,0.6-0.5,0.6-0.5C140.4,151.3,140.4,150.5,140.1,149.9z
	 M87.3,150.2l-0.6,1.5l1.1,0.3l0.6-1.6L87.3,150.2z M25.1,154.1c-0.1,6.1,0.1,10.1-0.1,16.5l16.3,21.2l-2.6,0.9c0,0,0,0.3-0.2,0.3
	c-3.5,1-9.2,1.9-9.2,1.9c4.2,9.7,7,21.7,5.1,33.8l42.3-0.1L25.1,154.1z M114.5,164.4l-1.5,1.5c-21.5-11.7-51.1-11.7-72.8,2.5
	l-1.8-1.3C62.1,151.8,91.2,151.9,114.5,164.4z M25.9,156.2L75.7,228l-5.9,0.1l-43.9-57.6V156.2z M132.7,157.5c0,0-1.4,0.4-2.7,0.8
	c-3.5,1.1-5.1,3.1-4.8,5.9c0.1,0.8,0.3,0.8,1.7-0.1c3.3-2.1,3.5-2.2,7.6-3.4c0.3-0.1,0.8,0,0.8,0l-0.2,3.3c-6.9,0-6.5,5.4-4.5,8.3
	c-0.7,1.3-2.2,5.9,2.8,7.7c2.5,0.5,5.1-1.5,5-1.6c4.6,2.2,9.9-1.5,5.8-7.8c1.6-2.8,0.5-4.8-1-6.6c0,0,0.3,0,2.4,0.4
	c3.3,0.6,4.6,0.5,4.6,0.5c0-3-2.5-4.3-7.6-4.7C139,160.6,132.7,157.5,132.7,157.5z M77.6,157.8c0.2,0,0.5,0,0.7,0l-0.2,5.1l-5.6,0.3
	l-0.4-5.1C74.1,158,75.9,157.8,77.6,157.8L77.6,157.8z M84.2,158l6,0.7l-0.9,4.7l-5.5-0.6L84.2,158z M132.5,158
	c0.5,0.1,0.3,0.6-0.3,0.8c-1.1,0.2-3.8,1.8-3.8,2.2c0,0.3,0.1,0.2,1.1-0.3c0.5-0.3,1.6-0.7,2.3-1c0.8-0.3,1.7-0.7,2-0.8
	c0.9-0.4,1.4-0.1,1.1,0.7c-0.2,0.5-0.3,0.6-2.5,1.3c-1.9,0.6-2.3,0.8-3.5,1.6c-0.5,0.3-1.3,0.8-1.8,1c-1.3,0.7-1.5,0.7-1.5-0.2
	C125.5,160.7,128.4,158.7,132.5,158C132.4,158,132.6,158,132.5,158L132.5,158z M81,158.6c0.7,0,1.4,0.6,1.4,1.4
	c0,0.8-0.6,1.4-1.4,1.4c-0.7,0-1.4-0.6-1.4-1.4C79.6,159.2,80.2,158.6,81,158.6z M66.2,159l0.4,4.6l-5.5,1.4l-1.3-4.8
	C62,159.7,64.1,159.4,66.2,159L66.2,159z M136.6,159.3c1.5,0.2,1.4,3.7,0.6,4.3c-1.2,0.9-1.9-0.9-1.4-3.3
	C136,159.6,136.3,159.4,136.6,159.3L136.6,159.3z M69.4,159.5c0.7,0,1.4,0.6,1.4,1.4s-0.6,1.4-1.4,1.4c-0.7,0-1.4-0.6-1.4-1.4
	S68.6,159.5,69.4,159.5z M96.1,159.9l6.2,1.7l-1.5,4.8l-5.8-1.6L96.1,159.9z M92.7,160c0.7,0,1.4,0.6,1.4,1.4c0,0.8-0.6,1.4-1.4,1.4
	c-0.7,0-1.4-0.6-1.4-1.4C91.3,160.6,91.9,160,92.7,160z M143.2,160.4c2.7,0,6.2,1.4,6.2,3.4c-0.1,0.6-5.6-0.2-8.2-1.2
	c-0.9-0.4-2-1.5-2-1.9c0-0.3,0.5-0.3,0.8,0c0.4,0.4,1.6,0.9,4.6,1.6c2.3,0.6,2.5,0.6,2.5,0.2c0-0.3-1.3-0.7-2.8-1
	c-0.7-0.1-1.4-0.3-2.5-0.4c-0.5,0-0.6-0.3-0.2-0.6C142.1,160.5,142.6,160.4,143.2,160.4z M138.5,161.5c0.7,0.3,0.9,0.9,1.3,1.3
	c-0.5,0.2-0.7,0.4-1.4,0.5C138.4,162.8,138.3,162.2,138.5,161.5z M57.6,161.9c0.7,0,1.4,0.6,1.4,1.4s-0.6,1.4-1.4,1.4
	c-0.7,0-1.4-0.6-1.4-1.4S56.8,161.9,57.6,161.9z M54,162.3l1.5,4.7l-5.2,2.3l-1.9-4.7C50.2,163.6,52.2,162.9,54,162.3z M78.1,163
	c0,0,4.2,0,5.6,0l-0.3,5.3h-5.2L78.1,163z M72.6,163.3l0.3,5.3l-5,0.7l-1-5.3L72.6,163.3z M104.1,163.4c0.7,0,1.4,0.6,1.4,1.4
	c0,0.8-0.6,1.4-1.4,1.4c-0.7,0-1.4-0.6-1.4-1.4C102.8,164,103.4,163.4,104.1,163.4z M140.3,163.5c3.1,0,6,3.5,3,7.2
	c5,3.8-0.4,10.2-4.8,6.5c-6.3,6.2-9.8-2.2-7.2-4.4c-3.8-6.3,0.9-10.3,5.7-7.5C137.9,164,139.1,163.5,140.3,163.5z M89.4,163.6
	l5.5,1.2l-1.1,5.2l-5.4-1.1L89.4,163.6z M107.5,163.8l5,2.5l-3.9,3.8l-2.9-1.4L107.5,163.8z M75.4,164.4c0.7,0,1.4,0.6,1.4,1.4
	s-0.6,1.4-1.4,1.4s-1.4-0.6-1.4-1.4C74.1,165,74.7,164.4,75.4,164.4z M86.2,164.5c0.7,0,1.4,0.6,1.4,1.4s-0.6,1.4-1.4,1.4
	C84.2,166.9,84.7,164.6,86.2,164.5z M61.2,165.3l1.2,5.2l-5.1,1.7l-1.8-5.1L61.2,165.3z M64.7,165.7c0.7,0,1.4,0.6,1.4,1.4
	c0,0.8-0.6,1.4-1.4,1.4c-0.7,0-1.4-0.6-1.4-1.4C63.4,166.3,64,165.7,64.7,165.7z M139.9,168.1c-0.4,0.5-0.9,1-0.9,1
	c-1.3-0.5-2.5-0.3-3.3,0.3c0,0-0.9-0.7-1.7-1.3c-1.4-1.1-1.8-1.4-1.8-0.9c0,0.1,0.5,0.6,1,1.1c1.6,1.3,1.9,1.8,1.9,1.8
	c-0.4,1.2-0.4,2.2,0.3,3.2c0,0,0,0.1-0.5,0.7c-1,1.1-2,2.7-1.8,2.9c0.3,0.3,1.1-0.4,2.2-1.8c0.7-1,1-1,1-1c1.3,0.3,2,0.7,3.2-0.4
	c0,0,0.5,0.1,1.4,0.9c1.5,1.2,2,1.5,2.2,1.1c0.1-0.3-0.1-0.6-1.3-1.5c-0.8-0.6-1.7-1.4-1.7-1.4c0.3-0.4,0.5-2-0.5-3.1
	c0,0,0,0.1,1.4-1.7c0.9-1.2,1.1-1.3,0.8-1.6C141.4,165.8,140.1,167.9,139.9,168.1L139.9,168.1z M100.7,166.6l5,2.1l-1.8,5.2l-4.8-2
	L100.7,166.6z M46.3,166.9c0.7,0,1.4,0.6,1.4,1.4c0,0.8-0.6,1.4-1.4,1.4c-0.7,0-1.4-0.6-1.4-1.4C45,167.5,45.6,166.9,46.3,166.9z
	 M97,167.1c0.7,0,1.4,0.6,1.4,1.4c0,0.8-0.6,1.4-1.4,1.4c-0.7,0-1.4-0.6-1.4-1.4C95.6,167.7,96.2,167.1,97,167.1z M42.8,167.4l1.6,4
	l-3.7-2.8L42.8,167.4z M83.4,168.5l4.9,0.6l-0.8,4.7l-4.3-0.4L83.4,168.5z M78,168.5l-0.1,4.9l-4.7,0.2l-0.4-4.9L78,168.5z
	 M54,169.4c0.7,0,1.4,0.6,1.4,1.4c0,0.8-0.6,1.4-1.4,1.4c-0.7,0-1.4-0.6-1.4-1.4C52.6,170,53.3,169.4,54,169.4z M50.3,169.5l1.9,4.9
	l-3,1.4l-4-3.8L50.3,169.5z M67.9,169.5l0.8,4.6l-4.9,1.2l-1.2-4.7L67.9,169.5z M137.7,169.6c1.1,0,1.9,0.9,1.9,1.9
	s-0.9,1.9-1.9,1.9c-1.1,0-1.9-0.9-1.9-1.9S136.6,169.6,137.7,169.6z M80.5,169.7c0.7,0,1.4,0.6,1.4,1.4c0,0.8-0.6,1.4-1.4,1.4
	c-0.7,0-1.4-0.6-1.4-1.4C79.1,170.3,79.7,169.7,80.5,169.7z M93.8,170.2l5.2,1.7l-1.8,4.2l-4.5-1.2L93.8,170.2z M70.8,170.4
	c0.7,0,1.4,0.6,1.4,1.4s-0.6,1.4-1.4,1.4c-0.8,0-1.4-0.6-1.4-1.4S70,170.4,70.8,170.4z M90.6,170.9c0.7,0,1.4,0.6,1.4,1.4
	c0,0.8-0.6,1.4-1.4,1.4c-0.7,0-1.4-0.6-1.4-1.4C89.2,171.5,89.8,170.9,90.6,170.9z M57.5,172.4l1.8,4.2l-4.9,2.1l-2.1-4.2
	L57.5,172.4z M60.9,172.7c0.7,0,1.4,0.6,1.4,1.4s-0.6,1.4-1.4,1.4s-1.4-0.6-1.4-1.4C59.6,173.3,60.2,172.7,60.9,172.7z M79,173.9
	c8.1,0,15.3,1.7,21.1,4.1l-1.7,1.6c-18.9-6.5-31.3-3.6-43.9,2l-1.3-1.6C62.1,175.6,71,173.9,79,173.9z M100.3,174
	c0.7,0,1.4,0.6,1.4,1.4c0,0.8-0.6,1.4-1.4,1.4c-0.7,0-1.4-0.6-1.4-1.4C99.1,174.6,99.7,174,100.3,174z M51.2,176.9
	c1.1,0.1,1.2,2.1,0.7,1.5l-1.2-1.4C50.8,177,51,176.9,51.2,176.9z M101.6,177.8c0,1.5-1.5,11.9-6.4,18.9c-0.3-3.6-1.2-7.9-2.1-10.8
	C93.2,186,98.5,181.1,101.6,177.8z M38.9,193.5L64.4,228h-2.7c-0.6-2.5-1.4-5.1-3-7.1c-1.3-1.6-2.5-2.8-4.8-3.8
	c-1.4-0.6-1.6-0.5-1.7-1.6c-0.4-6.1-5.3-9.9-9.1-11.3c-0.4-3.7-2-7.3-6.1-10.3L38.9,193.5z M36.4,194.3c2.3,1.6,4.9,3,6.3,9.4
	c0.1,1.3,0.2,1.2,1.2,1.6c4.1,1.2,7.6,6.1,8,10.4c0,1.3,0.4,1.4,2,2.1c2,0.8,4,2.6,5.1,4.3c1.7,2.5,2.3,6.2,2.2,6h-1.4
	c-1-6.3-5-8.9-9.2-10.1c0.3-8.9-6.6-11.7-9-12.2c0.1-6.4-4-9.1-6.7-11.3C35.4,194.4,36.4,194.3,36.4,194.3L36.4,194.3z M32.4,195.2
	c2.1,0.7,3.7,3.6,3.5,5c2.8,0.3,5.7,3,5,5.8c-0.2,0.1-0.5,0.1-0.8-0.2c0.7-5.4-7.3-2.7-4.1,1.2l-1.4,0.9c-1.2-5.4-2.6-8.5-4.1-12.4
	C31,195.4,32.4,195.2,32.4,195.2z M38.9,206.4c0.7,0,1.3,0.6,1.3,1.3c0,0.7-0.6,1.3-1.3,1.3s-1.3-0.6-1.3-1.3
	C37.6,207,38.2,206.4,38.9,206.4z M45.9,212.3c3.1,0.9,4.1,4,4,5.1h-0.7c-1.1-5-6.7-2.3-4.4,1.7c-3,1.1-2.8,3.9-1.9,5
	c1.2,1.5,4.3,1.5,5.3-0.9c2.9,3.8,7-0.5,3.4-4c2.9,1.1,3.4,5,2.9,6.2c1.4,0.5,2.9,2.6,2.7,2.6H35.3c0,0,1.1-8.8-0.1-15.5
	c1.5,0.4,2.4,0.7,4.1-1.3c2.7,2.2,4.7,0.6,4.5-1.4c-0.2-1.4-0.9-2-2.1-2.7C44.3,206.6,46,210.7,45.9,212.3L45.9,212.3z M48.3,218.5
	c0.7,0,1.3,0.6,1.3,1.3c0,0.7-0.6,1.3-1.3,1.3c-0.7,0-1.3-0.6-1.3-1.3C47,219.1,47.6,218.5,48.3,218.5z"/>
<path fill="#D40000" d="M14.5,56.2c-1.7-2.9-3.5-5.6-5.8-8c2.3-2.4,4.1-5.1,5.8-8
	c1.7,2.9,3.5,5.6,5.8,8C18,50.5,16.2,53.3,14.5,56.2z"/>
<path fill="#D40000" d="M164.3,209.2c-1.7-2.9-3.5-5.6-5.8-8c2.3-2.4,4.1-5.1,5.8-8
	c1.7,2.9,3.5,5.6,5.8,8C167.7,203.5,166,206.3,164.3,209.2z"/>
<path fill="#D40000" d="M48.4,64.8c-4.1-6.9-8.5-13.5-13.9-19.1c5.5-5.7,9.8-12.3,13.9-19.1
	c4.1,6.9,8.5,13.5,13.9,19.1C56.8,51.2,52.5,57.9,48.4,64.8z"/>
<path fill="#D40000" d="M130.4,223c-4.1-6.9-8.5-13.5-13.9-19.1c5.5-5.7,9.8-12.3,13.9-19.1
	c4.1,6.9,8.5,13.5,13.9,19.1C138.9,209.5,134.6,216.2,130.4,223z"/>
<path fill="#D40000" d="M8.8,29H6.6v-3h2.2c0,0,0-1.6,0.1-4.5c0.1-6.1,0.3-7,2.1-8.7
	c3.5-3.3,9.3-0.6,9.2,4.4c-0.1,7,0,13.7-0.2,14.7c-0.4,1.7-0.4,1.8-0.3,2.1c0.3,0.6,2.9,0.9,2.9,0.7v3c-2,0.2-2.8,0-4.5-1.2
	c-1,1-4.1,1.9-6.5,0.8C9.8,36.4,8.4,34.1,8.8,29L8.8,29z M16.1,34.3c-1.1-1.6-2.9-3.7-4.7-4.5c-0.1,1.8,0,3.3,0.7,4.2
	C13.2,35.2,14.8,35.5,16.1,34.3L16.1,34.3z M17,16.9c-0.8-2.3-2.9-3.1-4.4-1.6c-1,0.9-1.1,1.8-1.1,7c0,3.2,0,4.5,0,4.5
	c3,1,5.7,4.4,5.7,4.4l0.1-9.5C17.3,20,17.3,18.4,17,16.9L17,16.9L17,16.9z"/>
<path fill="#D40000" d="M170,220.4h2.2v3H170c0,0,0,1.6-0.1,4.5c-0.1,6.1-0.3,7-2.1,8.7
	c-3.5,3.3-9.3,0.6-9.2-4.4c0.1-7,0-13.7,0.2-14.7c0.4-1.7,0.4-1.8,0.3-2.1c-0.3-0.6-2.9-0.9-2.9-0.7v-3c2-0.2,2.8,0,4.5,1.2
	c1-1,4.1-1.9,6.5-0.8C168.9,213.1,170.4,215.3,170,220.4L170,220.4z M162.6,215.2c1.1,1.6,2.9,3.7,4.7,4.5c0.1-1.8,0-3.3-0.7-4.2
	C165.6,214.2,163.9,213.9,162.6,215.2L162.6,215.2z M161.7,232.5c0.8,2.3,2.9,3.1,4.4,1.6c1-0.9,1.1-1.8,1.1-7c0-3.2,0-4.5,0-4.5
	c-3-1-5.7-4.4-5.7-4.4l-0.1,9.5C161.4,229.5,161.5,231,161.7,232.5L161.7,232.5L161.7,232.5z"/>
</svg>
