<?xml version="1.0" encoding="utf-8"?>
<!-- Generator: Adobe Illustrator 15.0.2, SVG Export Plug-In . SVG Version: 6.00 Build 0)  -->
<!DOCTYPE svg PUBLIC "-//W3C//DTD SVG 1.1//EN" "http://www.w3.org/Graphics/SVG/1.1/DTD/svg11.dtd">
<svg version="1.1" id="Layer_1" xmlns="http://www.w3.org/2000/svg" xmlns:xlink="http://www.w3.org/1999/xlink" x="0px" y="0px"
	 width="178.7px" height="249.6px" viewBox="0 0 178.7 249.6" enable-background="new 0 0 178.7 249.6" xml:space="preserve">
<path fill="#131F67" d="
	M24.3,19.8c0.1,63.3,0,140.9,0,209.8h130V19.8H24.3z M62.4,21c22.4,0.6,45-0.1,67.6,0.1c0,0-8.2,14.5-10.8,18.9
	c-0.5,1-0.6,1.7-0.3,2.1c0.5,0.6,0.4,1.7-0.1,2.4c-0.2,0.3-0.3,0.4-0.3,0.6c0,0.2,0.1,0.3,0.2,0.6c0.4,1.4-0.6,2.3-1.7,2.8
	c-0.7,0.3-2.4,0.5-3.6,0.4c-7.5-0.4-22.2-6.8-28.3-7.3c-4.2-1.2-9.7-0.8-14.1-0.5c-0.8,0.1-0.7-1.9-0.7-1.9
	C69.7,32.7,65.1,27,62.4,21z M131.2,21.7h21.5v3.4l-9.1,9.2c-0.8,0.9-1.5,1.6-1.5,1.6l-0.1,8.3c-6.1-3.3-7.3-7.2-8.4-11.6
	c-10.2,7.6-10.7,24.1,0.5,32.6c0.1-3.7,2.9-11,7.9-11.5l0.1,28.8l-6.1-6l-13.2,0.2c2.2-3.6,2.2-6.4,0.8-9.8
	c-2.4-5.5-6.1-17.9-5.8-17.9c0,0,0.1-0.3,0.4-0.3c1.1-0.2,1.8-1.3,1.5-2.6c-0.1-0.4-0.1-0.3,0.2-0.9c1.1-1.9-0.2-3.9-0.2-3.9
	L131.2,21.7z M60.9,21.7l8,14.6c0,0-0.1,0.7-0.1,1.1c0.1,0.6,0.3,1.1,0.6,1.6c0.2,0.3,0.4,0.8,0.4,1.3c0.1,0.7,0.1,0.7,1.1,1.7
	c0.2,0.2,0.3,0.3,0.2,0.5c-0.3,0.9-0.1,2.7,0.5,4.8c0.9,2.7,1.1,2.7-0.5,6.3c-0.3,0.8-0.7,1.8-1.2,2.7c-2,4.1-2.3,5.2,1.1,7.4
	c1,0.6,1.2,1.2,1,2.4c-0.2,1-0.2,1.6,0.2,2.1c0.3,0.4,0.6,0.4,0.5,0.7c-0.1,0.2-0.3,1-0.2,1.7c0.2,1.8-1.9,4.5-3.8,5.5
	c-0.4,0.3-0.5-0.1-0.7-0.4c-2-3.5-6.9-2.1-7.2,2.1c-0.1,1.1-0.1,1.6-0.3,1.8c-0.1,0.1-0.4,0.2-0.4,0.2s-7.4,4.8-12,7.3
	c-0.3,0.2-0.6,0.4-0.8,0.5c-0.3,0.1-0.4,0-0.6-0.2c-1.7-3.3-0.8-7.2-0.6-8.6c0-0.5-0.5-0.6-1.1-0.6c-1.1,0-2.6,1.1-2.9,2.1
	c-0.3,0.9-0.5,1.4-0.7,1.4c-0.3,0-0.4-0.4-1-1.6c-1.3-2.6-1.5-2.9-2.8-4.4c-1-1.2-1.8-1.4-2.8-0.5c-0.7,0.6-0.7,0.1-1.2-0.2
	c-1-0.7-2.5-0.1-2.5,0.9c0,0.8,0,1.4-0.9,1.5c-0.9,0.1-1.3,1.2-1,2.9c0.1,0.9,0.2,1-0.1,1.3c-0.9,1.1-1,1.8-0.5,3.3
	c1.4,4.2,3.4,7,5.2,10.8c0,0-4.6,2.7-7.4,4.3v-78H60.9L60.9,21.7z M152.8,25.9l0.1,67.7l-10.2-10.1c0,0-0.2-13-0.2-18.2
	c0-5.3,0.1-10.6,0.1-11.6s0.1-5.2,0.1-9.5c0.1-9.1-0.8-7.9,0.9-9.7L152.8,25.9z M133,34l0.6,1.6c-4.3,2.5-9.5,16.1,0.1,26.2
	l-0.2,2.1C123.4,54.7,125.2,41.7,133,34z M133.7,36c1.5,3,3.1,5.7,5.4,7.4c-1.2,2.9-1.8,6.2,0.3,10.6c-1.5,0.8-3.5,2.9-5.6,7.3
	C126.3,53.4,128,42.4,133.7,36z M77.6,41.7c4.2,0,8.6,0.7,12.5,1.9c2.5,12.9,7,21.4,7,26.5c0,0-0.4-0.1-1.1-0.6
	c-1.8-1.3-4.2-0.6-5.5,1.1c-1.2,1.6,0,3.8-0.6,4.8c-1.2,1.7-4.2,5-4.7,4.9c-0.4-0.1-0.3-0.2,1-2.3c1.4-2.1,2.4-4,2-4.5
	c-0.2-0.2-0.3,0.2-1.3,2c-2.4,4.2-4.5,6.7-5.3,6.4c-0.4-0.2-0.2-0.5,1.6-2.8c2-2.6,2.5-4.3,2.3-5c-0.2-0.6-0.5,0.3-1.3,2
	c-0.9,1.7-2.5,3.6-3.8,5.5c-0.4,0.7-0.9,1.1-1.6,1.4c-0.5,0.2-1.3,0.6-1.7,0.5c-0.2,0-0.1-0.2,0.3-0.5c2.5-2.6,4.7-5.6,6-8.4
	c0.2-0.4-0.1-0.9-0.4-0.5c-1.9,3.4-4.5,7.6-7.4,9.4c-0.6,0.4-1.5,0.7-2.4,0.7c-1.4,0-0.9-0.4,0.4-1.2c2.8-1.8,6.6-6.9,7.2-8.7
	c0.1-0.4,0-0.7-0.3-0.6c-2.3,3.6-5.3,7.7-8.7,9.3c-1.9,0.9-4.2,1.1-5.4,0.5c-0.9-0.4-0.6-0.6,0.9-0.7c3.6-0.4,7.9-3.8,10-7.4
	c1.2-2,0.4-1.6-1,0.4c-2.4,3.3-7.2,6.5-10.2,6.2c-3-0.2-4.7-2.5-4.3-4.5c0.2-1.2,1.1-2.5,2.8-2.8c2.9-0.6,4.8,4,2.1,4.8
	c-0.9,0.3-1.2,0.1-0.9-0.3c2-0.9,1.1-3.2-0.6-3.5c-1-0.2-2.2,0.6-2.3,2.2c0,1.2,1,2.4,3,2.4c2.3,0,5.9-1.7,8.1-4.8
	c1.5-2.4,0.1-1.6-1,0c-1,1.4-4.3,3.4-4.6,3.3l0.1-1.6c0.1,0.3,5.1-3.2,4.8-5.7c-0.2-1.9,0.1-2.4,2-2.4c1.4,0,3.3,0.5,3.8,1.2
	c0.6,0.7,1.2,0.9,0.9-0.2c-0.4-1.8,0.1-2.1-1-1.8c-0.7,0.2-1.4-0.3-2.1-0.9c-0.8-0.6-1.8-0.8-3-0.8c-0.9,0-1.3,0-1.2-0.9
	c0.1-0.6,0.2-1.1,0-1.5c-0.3-0.6-1.4-1.3-2.7-2.2c-1.5-1.1-1.2-1.2,2-8.5c1.3-3.1,1.3-3.7,0.5-6c-1.3-3.6-1.5-5,0.9-5.6
	C74.9,41.8,76.2,41.7,77.6,41.7L77.6,41.7z M91,43.8l1.2,0.4c0,0,3.8,13.2,6,19.5c0.7,2,1.2,4.6,1.3,7.1c-0.1,3.4-2,5.9-4.3,6.2
	c-1.7,0.2-3.5-0.7-4.3-2.5c-0.7-1.8-0.2-3.8,1.8-4.6c3.5-1.2,6,3.2,2.6,4.6c-1.8,0.7-3.4-0.6-2.6-2.1c0.6-1,2.1-0.9,2.5,0.1
	c0.3,1.1,0.8,0.6,0.6-0.2c-0.6-2.5-3.8-1.9-4.1,0.4c0,2.8,3.1,3.5,4.9,1.9c1.4-1.3,1.6-3.6,1.2-5.5c-0.5-4.1-2.8-9.5-4.5-15.5
	C92.6,50.5,91.4,46.8,91,43.8L91,43.8z M139.7,43.9l2.3,0.9l-0.1,7.6l-2,0.7C137.4,49.2,139.5,44,139.7,43.9L139.7,43.9z M93.1,44.4
	l1.7,0.7c0.9,5.4,5.3,15.6,6.8,23.3c0.4,4.6,0.5,6-2.6,8.5l0,0h-1.7c0,0,0-0.1,0.7-0.7c4.1-3.1,1.6-9.8,0.1-15
	C95.5,52.8,93.1,44.4,93.1,44.4L93.1,44.4z M77.4,45c-0.2,0-0.4,0-0.7,0c-2.6,0.1-3,0.3-3,0.9c0,1.1,0.4,1.5,2.8,1.3
	c2.1-0.2,5,0.1,7.1,1c2.3,1,2.9,1.3,3.7,1.7c2.1,1.1,1.7,0-0.2-1.3C83.2,46,80.5,44.9,77.4,45L77.4,45z M95.7,45.4l1.6,0.6
	c0,0,0.4,1.2,0.6,2c1.5,6.9,5.7,14.6,6.2,22.6c0.1,2.6-0.3,5.1-2.3,6.3h-1.5c1.6-1.6,2.6-2,2.2-7.4C101.7,62.5,97.3,53.8,95.7,45.4z
	 M98.5,46.5l1.5,0.5c1.7,9.3,10,23.1,4.7,29.8h-1.3c1.2-1.9,1.7-3.5,1.5-6C104.3,62.4,100.1,54.2,98.5,46.5L98.5,46.5z M100.9,47.2
	l1.6,0.5c2.1,9.4,10.4,24.8,4.5,29h-1.2C110.2,68.5,103.5,59.9,100.9,47.2z M103.6,48.1c0.5,0.3,1.2,0.4,1.7,0.6
	c1.7,7.1,4.7,14.1,6.1,20.7c0.5,3.6-0.3,6.4-2.6,7.4h-0.5c2-3.1,1.7-7,0.6-11.2C107.4,59.9,104.6,53.7,103.6,48.1z M78.9,48.2
	c-0.7,0-1.5,0.1-2.3,0.4c-0.8,0.3-0.7,1,0,0.8c0.3,0,0.7-0.1,1-0.2c1.9-0.3,4.2,0.4,7,2.1c0.7,0.4,1.4,0.8,1.6,1
	c0.5,0.4,1.1,0.4,0.9-0.1c-0.1-0.2-1.2-1-2.1-1.6C83,49.3,81.1,48.3,78.9,48.2L78.9,48.2z M106.3,48.9l1.6,0.2
	c3,13.8,9.5,22.3,3.9,27.4h-1.4c1.5-1.6,2.2-4,1.7-7c-0.5-3-2-7.7-3.3-11.9C107.3,53,106.2,48.9,106.3,48.9L106.3,48.9z M108.6,49.2
	l1.3,0.3c1.6,5.6,4.2,12.6,5.9,18.2c1,3.6,0.6,7.9-1.6,8.8h-1.1c1.9-2.5,2.1-5.1,1.3-8.5C112.6,61.1,109.9,55,108.6,49.2z
	 M116.9,49.2c1.4,5.8,4.6,14.7,5.8,17.6c1.6,3.1,1.1,7.8-1.3,9.6h-1.1c1.3-1.3,1.8-3.4,1.6-5.6c-0.6-6.2-5-14.8-6.6-21.4L116.9,49.2
	z M111,49.5l1.4,0.1c1.4,6.1,4.1,12,5.8,18c0.3,1.4,0.6,3,0.5,4.3c-0.2,2.6-1.3,4.6-2.2,4.6h-1c2-2.3,1.9-5.5,1-9
	C115.1,62,111.8,55.2,111,49.5z M75.1,49.6c-0.6,0-0.6,0.5,0.3,1.3c0.6,0.5,0.5,0.3,0.5,0.6c-0.1,1.3,0.1,2.6,0.6,1.2
	c0.1-0.4,0.4-0.8,0.6-0.7c0.4,0.1,0.2,0.9,0.4,1.3c0.3,0.7,0,0.8-0.8,0.6c-0.6-0.1-0.6,0.2-1,0.6c-0.6,0.7-0.5,1.1,0.4,0.9
	c0.2,0,0.3,0,0.4,0c0.3,0.1,0.6,0.3,1.3,0.8c0.9,0.7,2.2,1.7,3.1,1.8c1.4,0.2,1.1-0.4-0.1-0.9c-1-0.4-2.1-1.4-2.1-1.7
	c0-0.2,0.3-0.1,2-0.6c0.7-0.2,1.8-0.7,2.2-0.9c0.7-0.3,0.8-0.3,1.9-0.3c2,0.1,2.3,0,0.9-1c-2.8-2.1-6.5-3.4-8.4-2.6
	c-0.6,0.3-0.6,0.1-1-0.1C75.8,49.7,75.4,49.6,75.1,49.6L75.1,49.6z M114.5,49.7c1.9,7.4,5.6,14.1,6.5,21c0.2,2-0.1,4-1.8,5.7h-1.1
	c-0.2,0,1.6-2.7,1.4-5c0-1.2-0.1-2.6-0.4-3.9c-2.2-6.3-4.3-11.9-6-17.8H114.5z M80.1,52.2c0.4,0.1,0.4,0.3,0.3,0.5
	c-0.2,0.4-0.6,1.2-0.6,1.2s-0.5,0.1-0.6,0C79,53.6,79.6,52.4,80.1,52.2C79.9,52.2,80,52.2,80.1,52.2L80.1,52.2z M81.3,52.4
	c0.1,0,0.1,0,0.2,0.1c0.5,0.2,1.4,0.6,1,0.9c-0.4,0.4-2.2,0.5-2.1,0.4l0.6-1.1C81.1,52.5,81.2,52.4,81.3,52.4z M76.1,58.9L76.1,58.9
	c-0.2,0.1,0,0.5,0.4,0.9c1.5,2.1-0.6,2.7-2.1,1.6c-1.4-1.1-3.6-1-3.3,0.2c0.1,0.4,0,0.6,0.8,0.6c0.7,0,0.9,0,1.5,0.5
	c2.4,1.7,5.6-0.6,4-3C77.1,59.3,76.4,58.9,76.1,58.9z M82,62.2c-0.9,0-1.4,0.7-0.3,0.9c4,0.7,1.3,4.8-1.5,2.7
	c-2.5-2.3-5.9-2.3-5.9-0.6c0,0.4,0,0.4,0.6,0.5c1.4,0.3,3.5,0.9,4.3,1.3c0.5,0.2,1,0.5,1.1,0.5c1.7,0.6,3.8-0.2,4.2-1.6
	C84.9,64.5,84.6,62.2,82,62.2z M32.7,75.4c0.5,0,1.1,0.5,1.5,1.2c0.9,1.6,2.1,4.2,2.8,5.7c0.2,0.4,0.2,0.7,0.2,0.9
	c0.1,0.9,0.3,1.2,0.8,0.8c0.5-0.4,1.2-1,0.4-1.1c-0.8-0.6-1.3-1.5-0.8-2.1c0.4-0.4,0.2-0.7-0.1-0.7c-1.1,0-2.8-3.4-2-4.2
	c1.1-1,2.3,0.2,4.8,5.3c1.1,2.2,1.2,4.7,0.2,3.5c-0.3-0.3-0.3-0.1-0.6,0.8c-0.3,0.7-0.5,1.1-1.6,2.1c-1.3,1.3-2.1,2.3-2.2,2.5
	c-0.1,0.4,0.7,0,1.3-0.7c1.3-1.2,1.3-1.6,1.3,0.1c0,1.5-0.1,1.8,0.2,1.8c0.4,0,0.6-1.2,0.8-2.6c0.2-1.3,0.9-1.9,2-2.7
	c0.3-0.2,0.3-0.3,0.3-0.9c-0.2-1.8,0.8-5.2,1.3-4.4c0.1,0.2,0.3,0.6,0.4,0.9c0.1,0.5,0.4,1,0.8,1.1c0.6,0.4,0.6,0.7,0.8,2.2
	c0.1,0.5,0.3,1.3,0.4,1.7c0.3,0.8,0.6,1.2,0.4,1.4c-0.1,0.1-0.3,0.3-0.3,0.3l-9.3,5.5c0,0-0.7,0.4-1,0.5c-0.7,0.3-1.2,0.1-1.5-0.5
	c-2-2.9-3.3-6.2-4.7-9.3c-0.8-1.8,0-3,1.1-1.5c0.4,0.6,0.2,0.9,0,2c0,0.2,0.1,0.1,0.5,0.2c0.5-0.1,0.8,0.4,0.8,1.3
	c-0.3,1.2,0.1,0.5,0.4,0.5c0.4,0,0.5,0.3,0.8,0.8c0.1,0.7,0.5,0.5,0.9,0c0.4-0.4,0.4-0.4-0.4-1.3c-1.3-1.4-3-4.5-3.5-6.4
	c-0.1-0.5-0.1-0.9,0-1.2c0.6-1.3,1.4-1.3,2.2,0.5c0.1,0.3,0.4,0.8,0.6,1.1c0.3,0.5,0.5,0.9,0.5,1.7c-0.3,0.6-0.3,0.7-0.1,0.8
	c0.6,0.2,1.5,1.2,1.6,2.1c0,0.9,0.2,1.4,0.9,0.9c0.8-0.6,0.5-0.9-0.3-1.7c-0.8-1-0.9-1.9-0.4-2.6c0.1-0.2,0-0.3-0.3-0.3
	c-1,0.1-1.9-1.1-1.2-2.1c0.3-0.6,0.3-0.7-0.2-0.7c-0.2,0-0.6,0-0.8-0.1c-0.3-0.5-0.9-1.3-0.9-1.9C31.8,75.8,32.2,75.4,32.7,75.4
	L32.7,75.4z M90.4,75.5c1.6,1,3.2,2,5,2.5c-4.2,7.6-10.9,11.6-16.4,13.2c0.2,1,0.3,1.9,1.3,2.5c0-0.1-0.4-1.9-0.4-2.2
	c7.7-2,14.5-9.6,16.2-13.6l33.9-0.4c-25.1,24.3-26.2,58.4-5.7,87.1L122,166c-15.8-23.8-15.6-46.8-11-62.2c3.4-10.9,9.4-19.2,13.9-24
	c0,0-18.4-0.3-27.6,0.1c-1.3,2.1-2.6,3.7-4.4,5.7c0,0,4.7-4.5,4.5-5.3c8.5,0,17.2-0.5,25.7,0.1c-10,12-14.8,24.2-15.6,35.9
	c0,1.5-0.1,0.7-0.6,1.2l-1.6,2.5l-1.3-2.5c-0.9-0.3-2.5,0.2-3.3-0.1c-3.5,15.7,0,34.6,4.6,46.8c0,0-1.2,0.7-2.6,0.5
	c-1.6-0.3-1.9,0.1-3.3,0.4c-1.6,0.3-2.1,0.3-2.4,0.7c-0.2,0.2-0.5,0.5-0.9,0.7c-3.8,1.4-8.2,6.6-8.2,6.5l-4.2-1.9
	c3.8-7.6,8.3-10.3,16.2-13.7l-0.7-3.4c-8.4,3.2-13.7,6.9-17.9,14.3c-5.1-0.1-25.8-0.2-25.8-0.2c8.5-9.7,15.1-24.2,15.8-35.6
	c0.2-2.2-0.1-1.2,0.8-1.8l1.5-1.8l1.2,1.8c0,0,0.9,1.1,1.4,0.2c1.5-15.8-0.1-33.9-7.7-46.6c1.4-0.1,2.7-0.1,4,0.6
	c3,6.8,4.7,15.2,5.5,21.4c1,8,0.8,16.8-0.2,24.5l0.5,0.1c1.5-9.9,1-20.3-0.4-29.5c-0.7-4.8-3-12.3-4.5-15.8c-0.4-1-0.8-1.2-0.4-1.3
	C82.8,83.5,87.1,80.4,90.4,75.5L90.4,75.5z M64.8,76.3c0.7,0,1.3,0.6,1.3,1.3c0,0.7-0.6,1.3-1.3,1.3c-0.7,0-1.3-0.6-1.3-1.3
	C63.5,76.9,64,76.3,64.8,76.3z M134.3,77c-2.7,2.5-4.9,5-7.2,7.8c6.8,9.4,14.2,19.5,20.6,27.6c0,0,2.2-1.3,2.2-1.5
	c0-0.1-0.2-0.5-0.2-0.4c-0.1,0.2-1.8,1.2-1.8,1.2l-20-26.4c0,0,1.1-1.3,1.4-1.7c1.6-0.5,5.9-5.9,6.1-5.8c3.4,2.6,13.6,13.7,17.5,17
	l0.1,30.7c-0.4,1.2-11.3,6-19,23.6c-3.9,2.2-8.2,3.4-12.1,5.3c0,0,1,1.6,1.5,2.1c-0.6-1.3-0.7-1.6,0.7-2.1l28.8-11.9l-0.1,2.4
	c-2.9,2.3-22,16.1-27.9,19.4c-27.6-38.7-10-71.8,6.1-87.2L134.3,77z M44.6,79c0.8,0,0.6,1.8,0.3,2.4c-0.6,0.4-1.1,0-1.1-0.8
	c0-0.3,0-0.5-0.1-0.6C43.2,79.7,43.9,79,44.6,79z M61.4,80.1c0.6,0.5,0.9,1.1,1.1,1.8c-0.9-0.1-3.2-0.8-2.1-1.3L61.4,80.1z
	 M57.2,82.4c19.9,30.2,19,62.4-3.2,86.7h28.1c3.6-7.1,9.6-11.5,17.1-14.1l0.7,2.2c-8.8,2.8-13.1,7.5-16.7,14.1H49.8
	c12.8-14,18.7-25.7,19.7-41.6c0.9-15.2-3-29-14.5-45.7L57.2,82.4z M62.8,82.7l4.7,2.2l-0.7,4.9l-4.9-2.3L62.8,82.7z M54.4,84.1
	c25.1,38.2,14.3,65-5.7,87.3l-3.7,0.1l-8.6-8.1l0.2,48.8c0,0-8.4,8.3-9.4,9.3c-1,0.9-1.7-0.5-1.7-0.5v-64.7l0.4-2.5l0.1-14l5.4-2.8
	l20,26.4c0,0-0.8,1.2-1.2,1.4c0.4,1,1.9-1.4,2-1.8c-7.3-9.1-20.8-26.8-20.8-26.8l-5.6,3c0,0,0.2-11.6,0.1-16c0.2-1.1,1-0.8,1.5-1.2
	c7.3-4.8,13.3-11.7,18.4-23.3c3.9-1.3,8-3.1,11.8-4.7l-5.7-8.5L54.4,84.1z M39,84.6c-0.2,0-0.8,0.2-1.5,0.9
	c-1.3,1.2-3.1,3.3-3.1,3.6c0.4,0.1,0.7-0.1,1-0.4c1.1-1.7,2.9-2.3,3.9-3.8C39.4,84.7,39.2,84.6,39,84.6z M51.7,86.3
	c0,0,3.9,5.7,4.9,7.2c-10.3,4.1-21,9.5-30.5,13v-2.3C26.1,104.3,43.9,90.8,51.7,86.3z M66.9,90.1l3.8,2l-1.1,4.4l-3.9-2.2L66.9,90.1
	z M70.1,97.4l3.2,2.3l-1.4,3.7l-3.2-2.2L70.1,97.4z M44.4,100.1c0,0-0.5,1.7-1.3,3.3c-3.9,6.8-7.7,12.9-15.6,18.1
	c-0.3-0.3-1.2-1.8-1.2-1.8l-0.1-2c4.2-3.4,7.8-5.9,13.3-15.8l1.6-0.7l1.4,0.6l0.9-1.7L44.4,100.1z M60.7,100.1
	c-3.6,7.8-7.2,15.7-12.9,21.8l15.8,22.2C68.8,128.4,66.9,113.7,60.7,100.1z M40.8,101.8l-0.8,1.3l1.3,0.8l0.8-1.3L40.8,101.8z
	 M38.7,101.9c-2.9,6.5-7.2,11.5-12.8,15l-0.2-9.5L38.7,101.9z M39.7,103.9l-0.8,1.3l1.3,0.8l0.8-1.3L39.7,103.9z M72.1,104.2
	l2.9,2.7l-1.7,3l-2.9-2.4L72.1,104.2z M115.8,105.5L115.8,105.5c-5,15.7-3.5,30.7,3.4,43.8c3.4-8.5,6.2-14.2,12.7-23.1
	C127.8,120.7,116.2,105.3,115.8,105.5L115.8,105.5z M38.5,105.8l-0.8,1.3l1.3,0.8l0.8-1.3L38.5,105.8z M60.4,107.6
	c4.5,10.9,4.1,20.7,1.7,29.2l-11.2-14.4C55.1,117.2,57.7,112.3,60.4,107.6z M37.4,107.6l-0.9,1.3l1.3,0.9l0.9-1.3L37.4,107.6z
	 M36.1,109.3l-0.9,1.2l1.2,0.9l0.9-1.2L36.1,109.3z M73.4,110.6l2.6,2.5l-1.6,3.2l-2.6-2.4L73.4,110.6z M34.6,111.2l-1,1.2l1.2,1
	l1-1.2L34.6,111.2z M117.2,111.6l11.3,14.8c-3.8,4.6-7,10-9.8,15.8C115.6,132.2,114.1,122.3,117.2,111.6z M33.1,113.1l-1.1,1.1
	l1.1,1.1l1.1-1.1L33.1,113.1z M59.6,114.6l-5.2,7.6l6,7.7C61.1,125.7,61.2,120.9,59.6,114.6z M31.4,114.8l-1.1,1l1,1.1l1.1-1
	L31.4,114.8z M29.8,116.3l-1.2,1l1,1.2l1.2-1L29.8,116.3z M74.3,117.1l2.2,2.5l-2.2,2.6l-2-2.3L74.3,117.1z M101.4,117.5l1.5,0.1
	c-2.4,23.6,2.3,35.7,6.5,46.1c0,0,0,0.4-0.1,0.5c-0.7,0.2-2.1,0.5-3.2-0.5C100.5,149.3,99.3,131.5,101.4,117.5L101.4,117.5z
	 M27.8,117.8l-1.2,0.9l0.9,1.2l1.2-0.9L27.8,117.8z M118.9,118.7c-0.4,0-0.7,9.8,0.7,14.5l5.3-7.2L118.9,118.7z M105.3,120.3
	l1.8,2.4l-1.9,2.6l-1.9-2.4L105.3,120.3z M26.4,120.9c0.1,0,0.2,0.2,0.5,0.4c0.3,0.3,0.2,0.3-0.1,0.5c-0.5,0.4-0.6,0.3-0.6-0.3
	C26.3,121.1,26.3,121,26.4,120.9L26.4,120.9z M74.4,122.7l1.9,2.8l-2.2,2.8l-1.8-2.9L74.4,122.7z M105.2,126.3l2,2.5l-1.8,2.8
	l-2.2-2.6L105.2,126.3z M152.4,126.8l0.2,2.9l-0.7-1.1l-1.3,1l0.9,1.2l1.1-0.9l0.1,1.2c-7.2,5.2-10.3,11.3-13.2,15.8l-1.3,0.6
	l-1.5-0.5l-0.7,1.3l-1.3,0.3c0,0,2.5-5.5,6.9-11.2C145.5,132.4,152.4,126.8,152.4,126.8L152.4,126.8z M153.2,131.3l0.1,10.3l-12.8,5
	C143.8,140.8,147.7,135.6,153.2,131.3z M150,130.1l-1.2,1l1,1.2l1.2-1L150,130.1z M148.2,131.6l-1.1,1l1.1,1.1l1.1-1L148.2,131.6z
	 M105.3,132.2l2.4,2.6l-1.8,3.1l-2.5-2.4L105.3,132.2z M146.4,133.3l-1.1,1.1l1.2,1.1l1.1-1.1L146.4,133.3z M144.8,135l-1,1.1
	l1.2,1.1l1-1.1L144.8,135z M143.1,137l-1,1.2l1.3,1l1-1.2L143.1,137z M106.1,138.8l3,2l-1.5,3.6l-3-2.3L106.1,138.8z M141.7,138.8
	l-0.9,1.2l1.4,0.9l0.9-1.3L141.7,138.8z M140.3,140.7l-0.8,1.3l1.4,0.9l0.8-1.3L140.3,140.7z M139,142.6l-0.8,1.3l1.4,0.8l0.8-1.3
	L139,142.6z M137.9,144.7l-0.8,1.3l1.6,0.7l0.6-1.3L137.9,144.7z M107.8,145.5l3.1,2.1l-1.4,3.8l-3.3-2.3L107.8,145.5z M152.7,149.2
	v78.3h-33.8c0,0-1.6-2.8-5-9.4c-1.4-2.8-2.6-4-2.7-6.2c0.1-1.3-0.5-2.8-1.5-3.3c-0.4-0.2-0.9,0-0.7-0.5c0.2-0.6-0.4-1.5-0.6-1.7
	c-0.2-0.4-0.1-0.4-0.1-1.7s-0.1-1.8-0.4-2.8c-0.7-2.4-0.8-3.6-0.4-4.9c1-3.2,2.1-5.6,3.4-8.6c0.8-1.7,0.7-2.4-1.8-3.7
	c-1.8-0.9-2.1-0.9-1.8-2.3c0.1-0.6,0.2-1.1,0.1-1.4c-0.1-0.2-0.4-0.5-0.6-0.6c-0.2-0.2-0.2-0.6,0.1-0.9c0.2-0.3,0.2-0.7,0-1.5
	c-0.5-1.5,0.6-3.6,2.8-5c0.9-0.6,0.9-0.5,1.9,0.5c2.9,3,7.1,1.1,7.1-3.1c0-1.3-0.4-1.3,0.8-1.9c4.3-2.7,12.9-7.7,12.8-7.5
	c0.6,1.2,0.8,2.2,1.1,3.4c0.3,1.1,0.3,1.2,0.2,3.2c-0.1,1.9-0.2,2.3,0.3,2.5c2.5,0.3,3.1-0.6,3.6-2.3c0.2-0.7,0.6-0.6,0.9-0.3
	c1,1.8,2.2,3.6,3,4.8c1,1.6,2.7,2.4,3.5,1.6c0.2-0.6,0.3-0.6,1.4-0.4c1.3,0.3,2.1-0.5,2.2-1.4c0.1-0.4-0.2-0.4,0.5-0.8
	c1.8-1.3,1.1-3.2,0.8-4.2c0,0.1,0.8-0.5,0.8-1.5c0.1-5.3-4.5-13-4.4-12.8L152.7,149.2z M109.6,152.3l3.6,1.8l-0.9,4.4l-3.7-1.7
	L109.6,152.3z M145,153.9c2.1,2.4,3.6,6.5,4.4,9.2c0.4,1.3,0.4,2.8,0.1,3c-0.3,0.2-0.5,0-0.4-0.8c0.1-0.7,0.1-1.2-0.2-1.2
	c-0.8,0.2-0.8-1-0.8-1.3c0.1-0.2,0.2-0.3,0.2-0.4c0.2-0.5-0.3-0.4-0.9-0.4c-0.5,0-0.6-0.3-0.6-0.7c0-0.5-0.7-0.4-1.1,0
	c-0.3,0.4-0.3,0.8,0.2,1.1c0.7,0.4,1.3,1.4,2.9,5c0.9,2.1,0.6,3.5-0.4,3.5c-0.8,0-1.6-2.1-2.4-3.6c-0.2-0.4,0.3-0.8,0.4-1.1
	c0.4-0.6,0.4-0.7-0.3-0.7c-0.6,0-0.8,0-1.2-0.7c-0.1-0.3-0.2-0.7-0.2-0.9c0.3-0.8-0.3-1-0.9-0.7c-0.8,0.3-0.7,1,0.4,2.1
	c0.7,1.2,0.5,1.1-0.2,2c-0.1,0.3-0.1,0.5,0.3,0.5c0.9-0.3,1.9,1.3,1.6,1.9c-0.3,0.2-1,1.1-0.3,0.9c1.5-0.4,2.4,1.8,1.5,2.5
	c-1.3,0.6-1.6,0.4-3.6-3.5c-0.6-1.2-1.4-2.6-1.4-2.7c-0.1-0.1-0.1-0.5-0.1-0.8c0.1-0.7-0.2-0.9-0.8-0.6c-0.5,0.1-0.9,0.5-0.3,0.9
	c0.7,1.2,0.9,1.4,0.6,1.7c-0.9,0.7-0.5,0.7,0.5,0.9c0.5,0.1,0.7,0.4,0.8,0.7c0.5,1.1,1.4,2.7,1.5,3c0.3,0.8-0.2,1.2-1,1.2
	c-0.8,0-1.1-0.6-1.5-1.1c-1.4-1.9-2.4-3.8-3.8-6l0.2-2c0,0,0.4,0.1,0.6,0c0.4-0.2,0.6-0.8,0.9-1.7c0.4-0.7,2.5-2.4,3.4-3.3
	c0.2-0.1,0.3-0.3,0.3-0.4c0-0.3-0.9-0.1-1.6,0.6c-0.9,0.8-1.3,0.5-1.3-0.5c-0.1-1.3-0.9-0.6-0.9,0.6c-0.1,1-0.4,1.6-1.1,2.1
	c-1.3,1-1.1,0.8-1,2.2c0.1,2.5-0.9,4.6-1.5,3.2c-0.2-0.5-0.5-1-1.1-1.1c-0.4,0-0.6-0.4-0.8-1.4c-0.3-1.6-0.8-2.6-1.2-4.1L145,153.9z
	 M112.8,159.4l4.2,1.7l-0.8,4.4l-4.2-1.6L112.8,159.4z M144.7,159.8L144.7,159.8c-1.3,0.9-2.4,1.9-3.7,2.7c-0.5,0.3-1,1-1.1,1.2
	c0,0.2,0.6,0.2,1.1-0.1c0.5-0.2,3.6-3.1,3.6-3.4C144.9,160,144.9,159.8,144.7,159.8z M106.3,165.1c1,0,0.4,0.3-1.8,1.8
	c-2.1,1.5-5.6,6.1-6,7.9c-0.2,0.8,0.3,0.8,0.9-0.2c2.6-5,7.4-9.5,11.8-9.3c2.2,0.1,3.4,0.7,1.6,0.9c-4.9,0.6-8.6,3.4-11.8,9.1
	c0,0.1,0.3,0.1,0.6-0.1c3-3.6,6.3-8.5,12.1-8.1c4.2,0.3,5.4,5.3,1.9,7c-3.1,1.5-5.9-2.2-3.3-4.3c0.8-0.7,1.3-0.4,0.5,0.3
	c-1.7,1.5,0.4,4.3,2.4,3.3c1.3-0.5,1.8-2.3,0.7-3.7c-2.5-3-7.8-0.7-11.4,4.2c-0.4,0.5-0.7,1.6-0.4,1.5c0.6-0.2,0.9-0.7,1.3-1.2
	c1.3-1.8,2.3-2.8,4.1-3.8c1.4-0.8,1.5-0.6,1,0.7c-0.2,0.6-0.4,0.7-0.9,1.1c-2.3,1.5-3.7,3.6-3.7,4.9c0,1,0.7,2.2-0.1,2.5
	c-1.3,0.6-4.8,0.1-5.8-1.1c-0.7-0.9-0.9-0.4-0.4,1.1c0.3,0.9,0.3,1.5,0.8,1.4c0.6-0.3,1.1-0.3,2.3,0.4c0.6,0.3,1.7,0.6,2.3,0.8
	c1.2,0.3,1.4,0.2,1.4,0.7c0,0.2,0,0.6,0,0.9c-0.2,1.6,1.1,2.1,2.9,3.1c1,0.6,0.6,1.2-0.6,4.2c-0.6,1.3-1.2,3.2-1.9,4.5
	c-0.7,1.5-0.8,3.2-0.3,5.1c0.9,3.6,1.5,5.4-0.1,5.7c-3.9,0.6-12.5,0.6-17.3-1.3c-1.2-9.2-7.6-22.6-6.8-26.1c1.6,2.5,8.5,1.8,6.5-5.1
	c0,0,0.6-0.9,1.7-2c2.9-3,3.6-3.4,2.2-0.8c-1.1,2-2.4,4.6-2.4,5.1c0,0.4,0.3,0.5,0.5,0.2c0.2-0.2,0.4-0.8,0.6-1.3
	c1.7-4.1,4.7-7.7,6.7-8.6c0.5-0.2,0.5,0,0.1,0.5c-2.4,3-4.2,5.8-5.5,9.4c-0.1,0.4,0.5,0.5,0.6,0.2c2.2-4.7,2.9-5.8,5.7-9.1
	c1.1-1.3,2.1-2,2.9-1.9c0.7,0.1,0.5,0.2-0.2,0.9c-0.5,0.5-1.2,1.3-2.4,2.8c-2.1,2.6-4.2,6.9-3.4,6.7c0.1,0.4,0.8-0.8,1.3-1.9
	c1.5-2.6,3.1-5.9,6.7-8.2C104.7,165.3,105.5,165.1,106.3,165.1L106.3,165.1z M36.9,166l6.4,6.4l12.8-0.2c-2.1,3.3-1,8.5,0.2,11.5
	c2.3,5.9,5.7,15.5,5.4,15.7c0,0-1.9,0.5-2,1.7c-0.3,1.8,0.5,1.6-0.6,3.2c-0.2,0.4-0.1,1,0.2,1.6c0.2,0.4,0.3,1,0,1.5L48,227.7H26.3
	v-4l11-11l-0.1-8.1c5.9,1.8,7.9,7.9,8.4,12.4c10.7-9.8,10.4-24.4,0.3-33.6c-2,9.8-9,11.8-8.8,11.6L36.9,166z M116.8,167.1
	c0.7,0,1.6,0.2,2.3,0.5c-0.4,0.3-0.7,0.6-1,0.9C117.7,167.9,117.3,167.5,116.8,167.1z M134.6,167.2c0.6,0,1.3,1.7,0.9,2.1
	c-0.2,0.2-1,0.3-1.2,0.1C133.9,169.2,134.1,167.2,134.6,167.2z M114.4,170.1c0.7,0,1.3,0.6,1.3,1.3c0,0.7-0.6,1.3-1.3,1.3
	s-1.3-0.6-1.3-1.3C113,170.7,113.6,170.1,114.4,170.1z M57.8,171.9h1c-1.8,2.4-2,4.4-1.4,7.3c0.7,3.3,6,15.8,6.4,19.1
	c0,0.2,0,0.6,0,0.6l-1.3,0.1c0,0-0.1-0.4-0.1-0.5c-1.8-6.2-3.7-11-4.9-14.6C56.2,180.2,54.3,174.4,57.8,171.9L57.8,171.9z M64.9,172
	L64.9,172h1c0,0-1.4,2.9-1.5,4.7c-0.1,2,0.4,4.2,1,6.3c1.6,4.7,3.8,9.9,5.1,15.6c0,0.1,0.2,0.6,0.2,0.6l-1.4-0.2
	c0,0-0.1-0.6-0.2-0.7c-0.9-5.2-3.6-10.5-5.2-15.5c-0.8-2.3-1.4-5.2-1.1-7.3C63.1,174,64.6,172,64.9,172L64.9,172z M76.1,172
	c-1,1.5-1.9,3.4-1.9,5c-0.1,2.8,0.8,5.2,1.6,7.6c2.5,7.6,3.7,11.6,4.9,17.6l-1.3-0.6c0,0-0.1-0.3-0.1-0.4c-0.7-3.8-0.8-3.5-4.9-16.3
	c-1-3.1-1.9-5.8-1.7-8.4c0-1.5,1.3-4.4,2.6-4.6L76.1,172z M77.7,172h1.2c0,0-0.7,0.7-0.9,1c-2.2,3-1.5,6.2-0.5,10.1
	c1.5,5.3,4.2,11.2,5.6,19.2c0,0.1,0,0.9,0,0.9l-1.5-0.6c-1.3-7.4-4.6-15.1-6.2-21.7c-0.9-3.9-0.7-6.4,1.5-8.5
	C77.6,172,77.7,172,77.7,172z M62.6,172h0.9c0,0-1.5,2.6-1.5,4.1c-0.3,2.7,0.7,5.7,1.8,8.8c1.7,4.8,4,10.6,4.7,13.6
	c0,0.1,0.1,0.7,0.1,0.7l-1.6-0.1c0,0-0.1-0.7-0.2-1.1c-1.9-6.6-3.7-10.8-5.8-16.7c-0.3-0.9-0.8-4.5-0.2-6.8
	C61.3,172.6,62.6,172,62.6,172z M60.2,172h1c0,0-0.1,0.3-0.5,0.9c-1.8,3.3-1,6.3,0.1,9.7c1.5,4.5,3.9,10,5.3,15.2
	c0.1,0.3,0.2,1.2,0.2,1.2h-1.4c0,0-0.3-1.1-0.3-1.2c-0.8-4.8-5.2-12.8-6.3-18.9C57.6,175.6,58.1,173.6,60.2,172z M73.5,172
	c0,0-1.6,2.7-1.7,4.3c-0.3,3,0.7,5.5,1.7,8.9c1.9,5.8,4.5,12.7,4.7,15.7c0,0.1,0,0.5,0,0.5l-1.6-0.6c0,0-0.1-0.3-0.1-0.4
	c-1.4-5.7-3.1-11.3-5.3-17.6c-0.6-2.1-1.3-4.3-1.2-6.1c0.3-2.5,0.7-3.1,2.2-4.6L73.5,172z M80.6,172h1.3c0,0-0.4,0.2-1.3,1.2
	c-5.2,4.7,3.2,18,5.1,30.2c0,0.1,0.1,0.6,0.1,0.6l-1.4-0.5c-0.1-0.6-0.2-1.3-0.4-2c-1.6-6.2-3.6-12.6-5.6-18.3
	c-1.1-4.2-1.5-8,0.5-10C79.4,172.4,80.6,172,80.6,172z M67.2,172h1.4c-1,1.3-1.6,3.2-1.6,5c-0.1,2.1,0.5,4.1,1.2,6.2
	c1.4,4.4,3.4,9.1,4.8,15.1c0.1,0.4,0.1,0.6,0.2,0.8c0.1,0.3,0.2,0.7,0.2,0.7l-1.5-0.3c0,0-0.2-0.4-0.3-0.6c-0.1-0.3-0.3-0.7-0.4-1.2
	c-0.7-3.1-3.3-10.1-4.9-15C65,179.8,64.6,174.4,67.2,172L67.2,172z M84.5,172.1c1.8-0.1,3.4,1.5,3.8,2.9c0.4,1.5-0.1,3.2-1.8,4.1
	c-2.7,1.4-5.6-2.3-3.5-4.3c1.6-1.5,4-0.4,3.5,1.5c-0.3,1.3-2.2,1.3-2.6,0.1c-0.1-0.4-0.3-0.8-0.5-0.6c-1,2.3,2.3,3.4,3.7,1.3
	c0.8-1.7-0.7-4-3-3.6c-3.1,0.6-3.5,4.6-2.2,9.3c1.8,7.4,6.2,17.2,6.2,21.8c0,0.1,0,0.2,0,0.2l-1.4-0.4v-0.1
	c-0.8-6.4-5.5-16.8-6.9-24.9c-0.6-3.7,0.8-6.4,4.1-7.1C84.1,172.1,84.3,172.1,84.5,172.1z M70.9,172.1c-1,1.3-1.6,3.3-1.6,4.6
	c0,2,0.7,4,1.3,6.2c1.5,5.3,5.1,15,5,16.7c0,0.2,0.1,0.8,0.1,0.8l-1.4-0.4c0,0-0.1-0.1-0.2-0.3c-0.5-1.8-2.6-9.5-5.1-16.1
	c-0.9-2.7-1.4-4.8-1.3-6.6c0.2-2.5,0.9-3.5,2-4.8L70.9,172.1z M97,180.9c-3.6,0.2-3.2,4.6-1,5.3c0.8,0.2,1.3,0,1.4-0.1
	c0.1-0.2,0-0.5-0.5-0.6c-1.5-0.5-2-2.3-0.7-3c0.7-0.4,1.9-0.1,3.3,0.9c2.5,1.9,5.7,2,5.3,0.1c-0.1-0.5-0.3-0.5-2.2-0.8
	c-1.5-0.2-2.2-0.7-2.9-1C98.7,181.1,97.8,180.8,97,180.9z M46.2,184.9c9.2,9,7.8,23.1,0,30.2c-0.2-0.6-0.5-2-0.5-1.9
	c5.9-6.2,8.7-16.2,0.1-26.6C45.8,186.6,46,185.8,46.2,184.9z M103.6,185.2c-0.1,0-0.2,0-0.2,0c-2.4,0.7-2.9,3-1.3,4
	c0.9,0.6,1.7,0.2,0.5-0.5c-1-0.6-0.5-2.2,0.7-2.2c0.5,0,0.9,0.2,2.3,1.3c1.1,0.8,2.2,0.9,2.4-0.2c0.1-0.7-0.1-1-0.8-0.8
	c-0.3,0.1-0.5-0.1-0.9-0.4C105.3,185.6,104.2,185.1,103.6,185.2z M45.3,186.9c8.3,9.7,5.6,19.7,0,25.6c-1.5-4.6-5.3-7.4-5.3-7.4
	c1.4-3.2,2.3-6.5-0.4-10.7C42.1,192.3,44.1,189.9,45.3,186.9z M99,190.5c-0.4,0-0.3,0.4,0.7,1c2.2,1.5,2.4,1.8,0.3,1.7
	c-0.5,0-1.4,0.4-1.9,0.5c-2.8,0.9-2.9,0.9-4.2,0.5c-0.4-0.1-0.9-0.3-1.1-0.1c-0.3,0.3-0.6,0.5-0.3,0.9c0.3,0.3,0.8,0.5,1.4,0.9
	c3.2,1.9,3.5,2.3,7.3,2.4c0.4,0,0.7-0.2,0.9-0.2c0.6,0,0.9,0.1,1.6,0.7c1.1,1,1.2,0.3,0.5-1.1c-0.4-0.7-0.7-0.9-0.5-1.4
	c0.4-1.2-0.2-1.5-0.9-0.4c-0.6,0.9-0.6,0.8-1.1-0.3c-0.7-1.4-0.4-2,0.7-1.1c0.8,0.7,1,0.2,1.3-0.4c0.4-0.7,0.3-1.4-0.4-1.3
	c-0.4,0-0.8-0.2-1.1-0.5C101.3,191.6,100.2,190.7,99,190.5z M99.9,194.2c0.1,0,0.1,0,0.2,0.1c0,0.5-0.3,1.4-0.6,1.9
	c-0.1,0.2-0.2,0.2-0.4,0.3c-0.7,0.1-0.7-0.1-0.6-0.5C98.7,195.4,98.9,194.5,99.9,194.2C99.8,194.2,99.9,194.2,99.9,194.2L99.9,194.2
	z M98.2,194.6c0.3,0,0.3,0.1,0.2,0.3c-0.2,0.4-0.5,0.8-0.8,1.1c-0.5,0.3-1.4-0.7-1-1C97.1,194.8,97.5,194.6,98.2,194.6
	C98.1,194.6,98.2,194.6,98.2,194.6L98.2,194.6z M38.9,195.2c0.1,0,0.3,0,0.4,0.1c2,2.7,1.9,6.9,0.3,9.2c-0.1,0.2-0.2,0.2-0.4,0.1
	c-0.7-0.4-1.5-0.5-2.2-0.8v-8C37.8,195.7,38.3,195.2,38.9,195.2L38.9,195.2z M91.7,195.9c-0.2,0-0.2,0.1,0,0.3
	c2.9,2.1,7,4.6,10.7,3.6c0.3-0.1,0.6-0.3,0.6-0.6c0-0.2-0.4-0.4-0.8-0.3c-0.9,0.2-2.5,0.3-3.2,0.1c-2.6-0.4-4.8-2.1-6.8-3
	C92,195.9,91.8,195.9,91.7,195.9z M90.8,197.9c-0.1,0-0.1,0.1,0,0.4c0.4,1.2,4.6,4.1,7.8,5.1c2.8,0.8,6.8,0,6.6-1.3
	c-0.1-0.7-0.6-0.9-2.4-0.6c-3.9,0.8-7.8-0.9-10.6-2.7C91.4,198.2,91,197.9,90.8,197.9z M65.1,199.6c1.7,0,3.4,0.1,5.3,0.4
	c3.6,0.6,7.8,1.7,11.2,3.4c6,2.3,13.4,4,19.8,3.8c1.6,0,4.4-0.1,4.9-0.3c1.4-0.3,1.8,0,2.2,1.8c0.1,0.4,0.2,0.5,0.7,0.8
	c0.8,0.5,0.6,1,0.5,2.2c-0.1,1,0.5,1.5,2.8,5.8c2.6,4.9,5.2,10.5,5.2,10.5c-22.9,0-44.8-0.9-68.3-0.1c2.1-5.1,7.9-14.2,11.4-21.4
	c-0.9-2.3,0.2-2.6-0.2-3.2c-0.7-1.3-0.2-3,1.3-3.4C63,199.7,64,199.6,65.1,199.6z"/>
<path fill="#E2CF00" d="
	M49.7,227.9c0,0,7.6-15.3,10.7-19.8c4.6-5.8,25.1,2.5,35.3,4.6c4.2,0.8,13.8,0.4,13.8,0.4l8.1,14.7L49.7,227.9z M34,210.5l-0.3-47.6
	l2.4,1.5l0.5,47.8L26.5,222l-0.1-2.9L34,210.5z M40.2,205c2.4-4.9-0.3-10.9-0.3-10.9c1.4,0.3,5.3-7.2,5.7-6.9
	c6,7.4,7.1,18.4-0.3,25.2C43.4,207.7,40.2,205,40.2,205L40.2,205z M44.7,171.5c4.6-4.7,8.2-8.4,11.7-13.6
	c0.3-0.4-19.2-25.4-18.9-25.8c3-3.4,7.1-5.8,10.2-9.9c0,0,16,21.1,16.3,20.9c1.6-6.6,2.8-12.6,2.5-19.4c-1-17.6-8.5-28.4-8.6-28.2
	c-2.5,16.2-27.4,40.8-32.4,39.1v-11.4c0.3,0.6,15.7-10.1,19.8-24c0.3-1,12.3-4.9,12.2-5c-0.5-1.3-5.8-8.8-5.8-8.8s2.1-1,2.4-1
	C61,93,66.2,104.2,68,114.8c2.1,11.6,3.5,33.2-19.4,56.8L44.7,171.5z M113.4,141.6c-3.6-11.3-3.5-22.8-1.8-30.9
	c2.5-14.7,11.7-25.2,19.1-33.2h3.2c0,0-3.9,4-5.3,5.5c-2.4,2.8-5.9,8.6-5.9,8.6l19.1,25.2l11-2.4c0,0-0.3,11.3,0,11.3
	c-8.5,7.1-14.5,13.5-18.9,23.7c-2.7,1-11.5,4.9-11.5,4.9c-4.2-1,12.5-27.5,9.4-28c-1.3-1.1-15.9-20.9-16.1-20.8
	c-6.7,20.7-0.2,42.5,11.6,57.6c-1.3,0.9-2.6,1.6-2.5,1.4C119.8,157.2,115.3,148.7,113.4,141.6L113.4,141.6z M78.4,131.2
	c0.8,1.2,4.2-25.3-4.8-46.5c0.9-0.7,8.3-2.1,8.3-2.1l2,6.4l-5.1,2.2l0.9,3c3.9-1.9,12.3-4.7,17.6-13.5c0,0,25.3-0.2,25.9-0.2
	c0.5,0-5.2,5.6-10.6,16.6c-2.5,5.1-4.4,11.7-4.9,19.3c-0.1,1.5-5.8-7.2-5.8-7.2c1.4-7.4,5.3-14.6,9.1-21.7c0,0-5.8-0.3-9.9-0.2
	c-6.4,7-10.3,10.7-19.8,14c3.5,11.3,24.8,16.6,20,15.5c-1-0.2-2.2,10.3-1.2,22.2c0.2,9.5,5.3,25.3,5.5,25.2c0,0-3.4,0.8-3.7,0.2
	c0.6-0.1-5.1,1.3-5.1,1.3l-2-5.9l5.4-2.5l-0.9-3.3c0,0-11.9,3.7-17.8,14.2H55.5c10.1-11.1,14.2-21.9,16.4-36.4
	C74.1,132.3,78.4,131.2,78.4,131.2L78.4,131.2z M142.8,36.1c3.3-2.8,9.9-10,9.9-10l0.1,3.7l-7.5,7.9l0.1,48.4l-2.5-2.5L142.8,36.1z
	 M139.3,53.8c-1.4,0.6-4.1,3.8-5.3,7.4c-8.7-7.8-5.1-22.1-0.4-25.1c1.4,3.1,5.4,7.3,5.3,7.2C138,46.6,137.3,49.8,139.3,53.8z
	 M62.4,21.2l66.9,0.1C125.5,28.9,122,35,118,42.5c-2.1,2.6-47.8-8.3-48.1-7.2L62.4,21.2z"/>
<path fill="#D40000" d="
	M26.3,218.3l-0.4-63.6l7.6,7.5l0.5,48.8L26.3,218.3z M61.2,205.9c-1.6,0.2-0.7-1.2-0.4-2.6c0.2-0.8-0.6-1.5-0.6-1.8
	c0-1.4,1.1-2,5.7-1.9c11,0.8,16.6,4.3,22.9,6c6.1,1.6,12,1.5,18.6,1.4c0.5,0.3,2.3,4.9,1.9,5.4C94.4,215.4,75.2,204.2,61.2,205.9
	L61.2,205.9z M88.3,173c-1.6-1.2-3.1-1.4-4.6-1.6c2.6-4.6,5.7-8.8,11-11.4l2.4,6.1C94.1,167.7,91.1,169.6,88.3,173L88.3,173z
	 M56.6,157.3c0,0-2.3,3.7-4.4,5.5c-6.3-8.6-20.4-26.7-20.4-26.7l-6,3.1c0,0,0-3.5,0.1-3.8C42.2,127,53.3,111,58.1,96.2
	c0,0,2.6,2.7,2.3,3.8c-4.4,11.8-11.8,23.5-22.9,32.3L56.6,157.3z M76.9,140h20.4l0.9,7.2c-7.9,2.7-14.3,8.1-20.3,14.3l-9.7-0.2
	C71.3,154.3,75.8,147.1,76.9,140L76.9,140z M152.5,109.8c0.7,2,0,4.2,0.3,4.1c-24.5,12.2-31.5,39-31.5,39s-2.3-3.7-2.2-4.3
	c12.6-28.4,21.2-29.2,22.8-32.3l-19.3-25.1l4.4-6l20.7,27.1C149.6,111.3,150.8,110.5,152.5,109.8z M140.5,146.5
	c4.2-7.5,8.5-11.9,12.7-14.9l-0.2,10L140.5,146.5z M26,117l0.1-9.7l12.6-5.5C35.1,109.5,30.5,113.7,26,117z M82.1,108.4l-0.7-6.8
	c7.7-3.4,14.4-7.9,19.9-14.1c5.9-0.3,9.9,0.1,9.9,0c0,0-5.6,8.3-9.3,21.2L82.1,108.4z M145.5,37.2l7-7.1l0.2,63.4l-7-6.9L145.5,37.2
	z M84.3,88.7l-2.2-6.3c3.5-1.3,6.1-4.2,8.6-7c1.7,1.5,3.8,2,4.6,2.3C96.3,78,88.2,87.8,84.3,88.7z M71.3,41.3c0,0-0.9-0.5-0.8-1.2
	c0.3-0.9-0.9-3-0.9-3c14.8-4.5,36.4,8.3,49.3,5.6c-0.1,0.9,0,2-0.3,2.8c0.4,1.8,0.7,1.9-1.1,3C108.4,51,99,45.6,90.2,43
	C82.9,40.6,77.2,41.1,71.3,41.3L71.3,41.3z"/>
<path fill="#100F08" d="
	M61.7,20.3l2.7,5.2l-0.5,0.3c0.7,1.2,1.4,2.6,2.1,3.9l0.5-0.1c0.9,1.7,1.3,2.4,2.4,4.4h-0.5c0.3,0.9,1,1.5,1,2.2
	c0,0.8-0.2,1.6,0.3,2.2c0.6,0.7,0.7,0.8,0.5,1.2c-0.3,1,0.6,2.1,1.5,2c6.5-0.9,13.1-0.1,19.7,1.9c4.8,1.5,9,3.2,12.9,4.4
	c1.3,0.4,3.8,1,6,1.1c6.1,0.4,9.5-0.8,8.5-3.4c-0.1-0.2-0.3-0.4-0.3-0.5c0-0.2,0-0.4,0.3-0.7c1-1,0.4-1.8-0.2-2.9
	c0,0,7.8-14.1,11.7-21L61.7,20.3z M129.3,21.6l-5.7,9.9c-3.1-0.6-3.8,2-3.8,2.4c-4-1-3.4,4.2-1.4,4.5c0.1,0.8-3.3,1.7-5.1-0.1
	c2.7,0.4,3.7-3.3,0.4-4.1c4.4-3.3-3.9-8.3-4-1.4c-3.9-0.7-3.4,4.5-0.9,4.9c-1.3,1.4-5,1.4-6.9-1.5c3.3,1.7,5.1-2.7,1.7-4
	c4.2-3.7-4.1-7.2-3.9-1.1c-3.1-1.9-5.3,2.9-1.1,3.6c-0.2,0.9-5.7,0.9-7.1-1.4c3.9,0.9,4.1-3.9,0.6-4.3c3.4-4.4-5.3-6.6-3.8-0.6
	c-3.4-1.3-4.7,2.9-1.4,4.2c0.2,0.7-5.3,1.2-7.3-1.2c4.2-0.6,2.8-4.8,0-4.4c0,0,0-0.1,0.2-0.5c1.3-4.1-5.7-4.5-4.7-0.1
	c0.2,0.4,0.3,0.9,0.3,0.9c-1.9-0.4-3.1,0.4-3,2.2c0.5,2.4,1.7,2.2,3.4,1.7c0.7,0.7-3.9,3.1-6.8,1c3.5-1,1.7-5.2-1.2-4.6
	c-0.1-1.3-1.6-3.2-3.4-2.3l-2-3.9L129.3,21.6z M135,76.7l-4.1,0.1c-2.9,3-23.8,22.3-20.3,51.6c1.5,12.6,5,23.4,14.2,36.2l2.5-1.5
	l0.4,0.3l25.8-15v-4.5l-29.9,12.7c-0.6-0.6-0.9-1.3-1.4-2.1l11.9-5.1c0,0,0.3-0.7,0.4-1.1c4-10.1,11.9-17.3,18.9-22.9
	c0-9.9-0.1-30.6-0.1-30.6l-18-18c-2.3,2.1-4.4,4.3-6.4,6.7l20.7,27.4l-1.8,1.2l-20.5-27.3C129.8,81.8,132.4,79.2,135,76.7L135,76.7z
	 M153.4,94.5c0,0-0.1-47-0.2-69.8l0,0l-10.8,11.1v47.7L153.4,94.5z M152.5,29.2l-7.6,7.9l0.1,48.4l-2-1.9V36.5l9.5-10V29.2z
	 M78.6,28c0.2,0.4,0.1,1-0.2,1.4c-1.6,1.9,3.3,5.3,6.9,4.7c2.7-0.4,5-2.1,4-3.3c-0.8-1-0.3-2,0.7-2c1,0,1.8,0.8,0.9,1.9
	c-1.9,2.4,1,5.3,5.5,5.3c3.2,0,4.2-0.7,4-3c-0.1-1.1,0.1-1.4,0.9-1.5c1.2-0.3,1.8,1.1,0.8,2.1c-2.1,2.2,0.3,5.5,4.2,5.7
	c1.4,0.1,1.7,0,3.4-0.9c1.3-0.7,1.7-1.8,1.1-2.6c-0.8-1.1,0.3-2.4,1.5-1.8c0.9,0.4,1.3,1.1,0.3,2.2c-1.3,1.5-0.7,2.8,1.8,3.6
	c1.9,0.7,3.3,0.6,4.2-0.3c0.3-0.3,0.9-0.8,0.9-0.6c-0.6,1.1-1.1,2-1.1,2c-4,1.8-7.2-1.6-7.1-1.7c-4.2,2.4-7.9,1.9-11-2.2
	c-0.8,0.5-6.6,1.5-10.8-3.1c-4.2,2.1-8.2,1.2-11.6-1.2c-2.6,2.5-5.3,2.8-8.1,1.7L69,32.7c0.2-0.1,1.1,1.7,5.6,0.9
	c1.5-0.3,4-2.8,2.6-4c-0.7-0.9-0.7-1.4-0.1-1.9C77.4,27.2,78.3,27.4,78.6,28L78.6,28z M67.9,30.2c0.2,0.5,0.3,1.3,0,0.8
	c-0.1-0.3-0.9-1.4-0.9-1.4C67.4,29.6,67.7,29.9,67.9,30.2L67.9,30.2z M152.5,30.6l0.1,62.6l-6.5-6.5l-0.3-49L152.5,30.6z M77.7,33.7
	l2,1.3H76L77.7,33.7z M89.1,34.7l1.7,1.7l-3.6-0.8L89.1,34.7z M121.2,35.6l-0.8,1.6C120,36.7,119.8,35.6,121.2,35.6z M134,61.6
	c1.3-2.9,3-6.7,5.9-7.9c-2.1-4.2-1.8-8.4-0.3-10.7c-2.1-2-4.3-4.4-5.7-7.8C127.1,41.3,126.1,53.5,134,61.6z M133.8,36.5l0.5,1.1
	c-6,7.4-4.1,17,0.2,22.1l-0.6,1.3C128.6,55.4,126.2,43.6,133.8,36.5z M98.2,40.6c6.9,2,12.4,5.2,20.4,2.4v1.6
	c-5.1,3.3-15.2-0.2-22.1-2.7c-11-4.1-19.6-3.9-25.7-3.4c-0.5-0.1-1-1.5-0.1-1.5C82.2,36.8,80.3,35.4,98.2,40.6z M99.8,37.9l2.3,2.4
	c-1.7-0.5-3.4-1.1-4.9-1.9L99.8,37.9z M134.4,38.5l0.4,0.6c0.2,0.3-1.3,0.4-1,0.1L134.4,38.5z M95.4,42.9c8.3,3.1,17.3,6.3,23.3,3.5
	c0,0,0,1.2-0.6,1.5c0,0-0.6,0.5-2.7,0.8c-9.7,0.8-15.9-3.2-23.7-5.6c-3-0.9-7.7-2-12.5-2.2c-2.9-0.1-7.4,0.3-7.4,0.3
	c-1-0.1-1-0.7-1-1.2C79.1,38.8,86.8,39.7,95.4,42.9z M135.3,39.9c0.1,0,0.2,0,0.3,0l0.8,1.1l-1,1.6c0,0-0.9-0.8-1.3-1.6
	C133.9,40.5,134.5,40,135.3,39.9z M111,40.2l2.6,2c-2,0.1-4.2,0.2-6.4-0.7L111,40.2z M133.1,41.2c0.2,0,0.4,0.2,0.7,0.7
	c0.5,0.8,0.4,1-0.5,1.3c-1.2,0.4-1.3,0.3-0.9-0.8C132.6,41.6,132.8,41.2,133.1,41.2z M137.1,41.8l1.8,1.5c-1,2.6-1.6,5.8,0.3,10.5
	c-0.2,0-1.5,1.3-1.9,1.5C136.2,54.7,133.7,45.5,137.1,41.8L137.1,41.8z M135.1,43.7l-0.5,2.8c0,0.2-2-1.3-1.8-2.1
	C133.2,43.5,134.3,43.7,135.1,43.7z M131.9,44.7c0.2,0,0.6,0.6,1,1.3c0.4,0.6,0.3,0.8-0.5,1.5c-1.1,1.2-1.4,0.8-1.1-1.2
	C131.4,45.4,131.6,44.7,131.9,44.7z M134.2,47.2c0.2,0,0.3,0,0.4,0.1l0.1,2.8c0,0.2-2.1-0.1-2.4-1.2C132,48.2,133.4,47.2,134.2,47.2
	L134.2,47.2z M131.4,49.5c0.2,0,0.6,0.3,1.1,0.6c0.8,0.5,0.8,0.7,0.1,1.6c-0.8,1-1.2,0.9-1.3-0.9C131.2,50.1,131.2,49.5,131.4,49.5z
	 M134.5,50.6c0.1,0,0.1,0,0.2,0.1c0.4,0.3,1,3.1,0.7,3.4c-0.3,0.4-2.2-0.1-2.6-0.8C132.5,52.6,133.9,50.6,134.5,50.6z M132.3,53.8
	c0.2,0,0.6,0.1,1.2,0.4c0.3,0.2,0.9,0.5,1.1,0.8c0.2,0.5-0.1,1.2-0.6,1.8c-0.3,0.4-0.6,0.1-1.2-1.2
	C132.1,54.5,131.9,53.9,132.3,53.8z M136,55.1L136,55.1c0.7,0.3,0.6,1.4-0.1,2.2c-0.9,0.9-1.7,0.2-1-0.9
	C135.2,55.6,135.7,55.1,136,55.1z M84.5,80.7c-0.5,0-1.4,0.5-1.8,1c-0.5,0.6-0.9,0.5-1.4,0.5c-0.6,0-1.6,0.1-2.8,0.7
	c-0.7,0.3-1,0.4-2.1,0.5c-0.7,0-1.4,0.1-1.5,0.2s-0.6,0.3-1.1,0.4c-0.9,0.3-0.6,0.5-0.1,1.7c2.7,6.9,4.6,15,5.3,21.5
	c0.8,7.5,0.5,16.6-0.5,23.6c-2.6,0-4.2-0.1-6.9-0.1c-1.8,15.1-6.9,27-16.8,37.8l27,0.1c3.1-8.3,17.2-14.7,17.6-14.2l0.7,3
	c0,0-10.2,1.5-16.9,14.5c0.7-0.4,3.3-0.1,4.9,1.6c3.4-4.3,8.9-7.1,8.9-7l0.2-0.5c0,0,1-0.3,1.9-0.5c0.3-0.1,0.9-0.2,1.3-0.3
	c0.6-0.2,0.9-0.4,1.8-0.4c1.9,0.2,3.9-0.4,3.8-0.4c-5.7-15.8-7.1-30.2-4.9-46.9c2.1,0,6.8,0.1,6.8,0.1c0.5-4.7,1.1-9.4,2.5-13.8
	c1.8-5.7,4.1-11,7.6-15.7c2-3,3.8-5.2,5.9-8l-26.4,0.1c-3.5,5.9-10.3,10.9-15.6,12.9c-1.8,0.7-2.1,0.6-2.4-0.3
	c-0.5-1.6-0.5-1.5,0.9-1.9c0.5-0.1,2-1,4.4-2.1c5.1-2.6,8.6-7.4,10.7-10.6c0.8-1.3,0.3-1-1.1-1c-1.3-0.1-1.9-0.5-3-1.6
	c-0.4-0.4-0.6-0.7-0.8-0.7C89,77.1,86.5,79.9,84.5,80.7L84.5,80.7z M90.7,75.8c1.2,1.3,2.6,2,4.5,2.3c-3,4.7-6.6,8.4-10.8,10.6
	l-2.1-6C87.5,80.1,88.9,77.8,90.7,75.8z M133.7,77.7c-27.9,26-26.3,58.7-6.7,85.3l-2.1,1.2c-18.3-24.7-21.7-61.4,6.4-86.6
	L133.7,77.7z M116.2,80.8h6.9l-4.7,6.1h-6.3L116.2,80.8z M115.1,80.8l-3.8,6.1L101,87c-6.2,7.6-12.7,11.4-19.4,13.9l-1.3-6.5
	c0,0,10.7-2.6,17.5-13.7L115.1,80.8z M104.6,81.3l-2.4,2.7l2.5,2.5l2.3-2.6L104.6,81.3z M110,81.3l-2.4,2.5l1.9,2.5l2.5-2.5
	L110,81.3z M98.2,81.7l-0.4,4l3.1,1l0.5-3.4L98.2,81.7z M117,81.9l-2.3,3.6l3.4,0.1l2.4-3.5L117,81.9z M81.6,82.8l2.2,6.1l-1.9,0.9
	l-2-6.4L81.6,82.8z M79,83.8l2.3,6.4l-1.9,0.6l-2.1-6.6L79,83.8z M81.7,108.9c0.3,8.8,0.4,14.2-1.1,21.8c-0.1,0.4-1.7,0-1.7,0
	c0.2,0.1,0.9-8.8,0.8-14.3c-0.1-10.6-1.9-21-6-31.4c0.8-0.5,2.7-0.7,2.7-0.7C79.1,92.2,81.4,100.7,81.7,108.9z M54.4,84.3
	c9,12.1,15.4,28.3,14.3,44.5c-1,18.7-8.1,29.5-20.5,42.5l-3.2,0.1c14.6-14.2,21.1-26.2,21.7-42.3c0.6-18.3-5-30.6-14.3-43.7
	L54.4,84.3z M25.5,100.9v4.4L56.1,92l-4.4-6.6L25.5,100.9z M97.5,86.5l-3.4,0.2l0.1,3.4l3.5-0.1L97.5,86.5z M127.2,85.9l19.9,26.2
	l-4.9,3.7l-18.9-24.6L127.2,85.9z M111.6,87.7l6,0.1l-2.3,3.9h-5.8L111.6,87.7z M110.5,87.8c-2.7,5.1-6.5,11-8.7,20.4H82.2
	c0-2.2-0.3-4.3-0.6-6.5c8.5-3.1,14.9-7.8,19.8-14H110.5z M114.2,88.1l-2.6,1.5l1.6,1.8l2.8-1.1L114.2,88.1z M90.8,89.9L90,93.3
	l3.2,1.2l0.6-4L90.8,89.9z M109.1,92.5h5.7l-2.4,4.8l-5.7-0.1L109.1,92.5z M122.7,91.8l18.8,24.5l-1.8,1.4l-18.4-24L122.7,91.8z
	 M111.3,92.8l-2.6,2.2l1.9,2.3l2.4-1.9C113,95.3,111.3,92.8,111.3,92.8z M86.3,93l-0.8,3.3l3.3,0.9l0.6-3.5L86.3,93z M81.7,95.2
	L81,98.4l3.1,0.8l0.7-3.1L81.7,95.2z M56,94.9c0.2,0-0.5,3.8-1.5,4.5c-0.5,0.3-0.7,0.3-1.1-0.2c-0.3-0.3-1.6-2.4-1.6-2.4l1.1-0.6
	c1.3,2.2,1.3,1.1,1.9-0.7L56,94.9z M50.9,97.1c0.4,0,1,0.5,1.6,1.6c0.9,1.5,0.8,1.6-0.6,2.1c-2.6,0.7-3.5,0.9-2.7-0.9
	C50,98.1,50.3,97.1,50.9,97.1L50.9,97.1z M58.5,96.8l1.8,3c-7.1,18-18.4,31-34,38.9v-3C44.6,125.1,52.2,112.6,58.5,96.8z
	 M106.4,98.1l5.6,0.1l-1.5,4.3h-5.9L106.4,98.1z M49.2,97.9c-4.5,10.9-10.7,20.2-23,28.2v-2.9C40,114.8,46,99.1,46,99.1L49.2,97.9z
	 M119.3,97.9c3.3,0.1,6.8,3.7,6.4,6.7c-0.2,2.1,0.2,3.7,0.7,2.8c1.3-1.9,5-0.6,4.9,1.6c0,1.2-0.8,1.4-1.3,0.3
	c-0.7-1.6-2.6-1.7-2.9,0c-0.3,1.6,1.1,2.8,4.7,4.1c4.2,1,6.7,4.8,5.2,6.9c-0.5,0.6-0.8,0.7-0.9,0.4c0-0.1-0.1-0.5-0.2-1
	c-0.5-2.3-1.6-3.2-2.9-2.5c-0.7,0.4-0.6,0.9-0.2,1.6c0.5,0.9,0.2,1.3-0.7,0.8c-1.5-0.7-1.9-2.5-0.5-3.3c1.7-0.7,1.1-0.8-1-1.5
	c-4.6-1.6-6.5-4.4-6.7-9.9c0.1-2.5-0.3-3.4-1.4-3.7c-1.1-0.3-2.3,1.1-1.5,1.8c0.4,0.4,0.8,0.7,0.5,1c-0.7,0.7-2.5-0.4-2.5-1.6
	c0-0.8,0.3-0.9,1.5-1.9c0.3-0.3,0-0.7-0.4-0.7C118.2,100.3,118.3,98,119.3,97.9z M109,98.5l-2.8,1.6l1.4,2l3.1-1.5L109,98.5z
	 M55.1,100.1c0.3,0,0.6,0.3,0.6,0.6s-0.3,0.6-0.6,0.6s-0.6-0.3-0.6-0.6S54.8,100.1,55.1,100.1z M60.7,100.4
	c5.9,12.9,7.3,27.5,3.2,42.3l-15.8-20.7C54.2,115,58.2,107.2,60.7,100.4L60.7,100.4z M39.4,101.3l-14.1,6l-0.1,10.7
	C33.2,112.4,36.4,107,39.4,101.3z M53,101.2c1.4,0,0.7,3.7-1.1,5c-0.7,0.5-1.1,0.4-1.3-0.6c-0.1-0.5-0.7-1.7-1.4-2.6
	c-0.8-1.1-0.8-1.1,0.4-1.2C50.9,102,52,101.3,53,101.2L53,101.2z M51.6,102.8c-1,0-1.3,0.5-0.7,1.1c0.5,0.6,0.9,0.4,1.3-0.4
	C52.4,103.1,52.2,102.8,51.6,102.8z M26.2,116.6v-9.1l12-5.1C35.8,107.8,31.4,112.9,26.2,116.6L26.2,116.6z M133.2,123.9l-1.6,1.6
	l-15.5-20.4l1-2.6L133.2,123.9z M48,103.3c0.5,0,1.7,1.8,2,3.1c0.2,1,0,1.2-1.8,1.5c-0.8,0.2-2.8,0-2.6-0.5
	C45.8,106.5,47.8,103.3,48,103.3L48,103.3z M104.3,103.5l5.7,0.1l-1.3,4.7l-6-0.1L104.3,103.5z M106.8,103.8l-2.7,1.8l2.1,2.1
	l2.8-1.7L106.8,103.8z M115.7,105.8l15.7,20.5c-4.7,6-9.4,13-12.4,22C113.4,135.2,111.3,122.3,115.7,105.8z M51.8,107.5
	c0.3,0,0.6,0.3,0.6,0.6c0,0.3-0.3,0.6-0.6,0.6s-0.6-0.3-0.6-0.6C51.3,107.8,51.5,107.5,51.8,107.5z M50,108.3c1,0.1,0.1,3.2-1.4,4.4
	c-1.2,0.9-1.7,0.5-1.9-1.2c-0.1-0.6-0.7-1.6-1.3-2.4c-0.6-0.9-0.4-1,1.2-0.7C47.7,108.6,49,108.4,50,108.3z M102.5,109h6l-0.9,7.1
	L102.5,109z M44.6,109.3c0.9,0.9,2.1,4,1.5,4.2c-0.7,0.3-3.9-0.1-4.3-0.5c-0.2-0.3-0.2-0.3,0.3-1c0.3-0.4,0.8-1.2,1.2-1.7
	C43.7,109.9,44.1,108.9,44.6,109.3z M47.9,109.4c-0.9,0-1,0.2-0.5,1.1c0.4,0.8,0.6,0.9,1.2,0.3C49.4,110.2,49.1,109.4,47.9,109.4z
	 M152.4,110l0.2,3.5c-22.9,11.5-31.5,38.4-31.6,38.4l-1.7-3.1C129.8,122.8,143.9,115.3,152.4,110L152.4,110z M44.6,114.2
	c1.4,0,1.8-0.1,1.8,0.4c0,1.4-1.3,3.3-2.8,4.1c-1,0.5-1.1,0.5-1.2-0.7c-0.1-1-0.4-2.2-0.9-3.2c-0.2-0.4-0.7-1.2,0-1
	C42.2,114,43.7,114.2,44.6,114.2L44.6,114.2z M47.7,113.9c0.3,0,0.6,0.3,0.6,0.6c0,0.3-0.3,0.6-0.6,0.6c-0.3,0-0.6-0.3-0.6-0.6
	C47.1,114.2,47.3,113.9,47.7,113.9z M40.3,114.7c0.2,0,0.5,0.5,0.8,1.3c0.6,1.6,0.8,2.5,0.6,2.9c-0.3,0.6-4.1,0.2-4.7-0.5
	C36.9,118.5,39.8,115,40.3,114.7z M43,115.1c-0.5,0-0.3,0.4,0.1,1.3c0.3,0.7,0.7,0.8,1.1,0.3c0.6-0.6,0.7-1.1,0.3-1.4
	C44,115.1,43.6,115.1,43,115.1z M152.5,118.7v1.2c-0.9-0.3-1.4-0.6-2.5-1c-0.6-0.2-1-0.4-0.4-1c0.9-1,1.8-1.7,2.8-2.3v1.3
	C150.8,117.6,151,118.3,152.5,118.7L152.5,118.7z M86.4,117.5h6.3v4.2h5l-0.4,4.8h-4.6v4.2h-6.3v-4.2h-4.5l0.4-4.8h4.2L86.4,117.5z
	 M100.6,117.5c-3.2,15.9-0.3,32.9,4.7,46.8l-2.5,0.3c-3.9-11.1-6.9-26.8-3.8-46.9C99.1,117.5,100.2,117.5,100.6,117.5z M147.5,117.8
	c0.3,0,0.6,0.3,0.6,0.6s-0.3,0.6-0.6,0.6s-0.6-0.3-0.6-0.6S147.2,117.8,147.5,117.8z M36.4,119.1c0.2,0,0.9,0.3,1.4,0.4
	c0.9,0.2,1.5,0.3,2.3,0.4c1.6,0,1.8,0,1.1,1.3c-0.5,0.9-1.6,2.2-2.4,2.6c-1.1,0.6-1.5,0.5-1.4-0.6c0-0.7-0.3-2-0.7-2.9
	C36.4,119.6,36,119.1,36.4,119.1z M43.1,119.6c0.3,0,0.6,0.3,0.6,0.6c0,0.3-0.3,0.6-0.6,0.6s-0.6-0.3-0.6-0.6
	C42.5,119.9,42.7,119.6,43.1,119.6z M149.4,119.6c0.4,0,1.2,0.3,1.9,0.6c1.9,0.9,1.8,1.1-0.7,2.9c-1.8,1.4-2.3,1.5-2.3-0.6
	C148.2,120.6,148.4,119.6,149.4,119.6L149.4,119.6z M35.4,120.1c0.7,0,1.6,3.9,0.9,4.2c-1,0.5-4.2-0.5-4.2-1.4
	C32.2,122.6,35.1,120.1,35.4,120.1L35.4,120.1z M147.1,119.9c0.4,0,0.5,0.3,0.5,1.6c0,0.7,0.1,1.7,0.1,2.2c0.1,1,0,1.1-0.8,0.6
	c-0.5-0.3-1.6-0.8-2.7-0.9c-0.9-0.1-1-0.5-0.7-1.1C144.4,121,145.8,120.1,147.1,119.9z M38.2,120.5c-0.6,0-0.5,0.3-0.1,1.3
	c0.3,0.7,0.8,0.7,1.3,0.2c0.7-0.8,0.6-1.2-0.5-1.4C38.7,120.6,38.3,120.5,38.2,120.5z M146.3,121.4c-0.3,0-0.6,0.2-0.8,0.4
	c-0.6,0.4-0.8,0.7,0,1c0.8,0.3,1.2,0.4,1.1-0.3C146.6,122.1,146.6,121.5,146.3,121.4L146.3,121.4z M87,121.9v4.2h5.1v-4.2H87z
	 M141.9,122.3c0.3,0,0.6,0.3,0.6,0.6c0,0.3-0.3,0.6-0.6,0.6s-0.6-0.3-0.6-0.6C141.3,122.6,141.6,122.3,141.9,122.3z M47.7,123
	l15.8,20.5l-1.1,2.7l-16.3-21.6L47.7,123z M152.6,122.9v2.7c-1.8,1.3-13.1,9.7-19.1,23.6l-3.1,1.3
	C134.9,138.5,144.2,128.2,152.6,122.9L152.6,122.9z M31.9,124c1,0.3,2,1,3,1.2c1.1,0.1,1.5,0.1,1.2,0.7c-0.7,1.3-2,2.7-3.3,3.1
	c-1,0.3-1.4,0.2-1.3-0.4c0.3-1.1,0.3-2.1,0.3-3.1C32,124.9,31.5,124.1,31.9,124L31.9,124z M30.7,124.2c0.7,0.6,0.5,4.2-0.2,4.9
	c-0.4,0.4-1.5,0-3.2-0.9c-1.1-0.6-1.3-1-0.8-1.4C27.5,126.3,30.2,124.1,30.7,124.2L30.7,124.2z M144.1,124.3c0.3,0,0.8,0.1,1.3,0.2
	c2,0.4,2.4,0.9,0.7,2.3c-0.6,0.5-1.3,1.1-1.5,1.4c-0.9,1.1-1.5,0.3-1.7-1.7C142.8,124.9,143,124.1,144.1,124.3L144.1,124.3z
	 M141.6,124.5c0.3,0,0.5,0.2,0.5,0.6c0,0.5,0.4,2.7,0.6,3.4c0.4,1,0.1,1.3-0.8,0.8c-0.6-0.3-2.3-0.6-3.2-0.5c-1,0.1-1-0.2-0.7-1.1
	C138.6,126.2,140.7,124.5,141.6,124.5L141.6,124.5z M32.9,125.3c-0.4,0-0.4,0.5-0.1,1.7c0.1,0.4,0.4,0.4,1-0.1
	c0.7-0.5,0.7-0.8-0.1-1.3C33.3,125.4,33.1,125.3,32.9,125.3z M37.3,125.4c0.3,0,0.6,0.3,0.6,0.6s-0.3,0.6-0.6,0.6s-0.6-0.3-0.6-0.6
	S37,125.4,37.3,125.4z M139.7,127.6c0.3,0.3,1.3,0.3,1.5,0.1c0.3-0.3,0.1-1.4-0.1-1.6C140.6,126,139.4,127.2,139.7,127.6z
	 M44.5,129.9c0.3,1.7,2.7,1.6,2.4-0.2c-0.2-1-0.2-1,0.3-1c2.4,0.1,2,3.9-0.8,3.6c-0.6,0.1-0.7,0.3-0.2,0.5s2.3,0.7,2.6,0.7
	c3,0,7.4,4.6,7.2,8.8c-0.1,2.7,0.8,4.6,1.8,4.9c0.7,0.2,1.8-0.5,1.7-1.3c-0.1-1.1,0.8-0.8,1.3,0c0.8,1.1-0.2,2.8-2.2,2.6
	c-0.8,0.2,0.6,0.7,1.7,1c1,0.1,0.1,1.2,0,1.5c-0.5,0.6-2.3,0.1-3.7-1c-1.7-1.4-2.4-3.2-2.6-6.9c-0.1-2.3-0.3-2.8-1-1.9
	c-1.2,2.2-4.1,1.1-4.5-1.2c-0.2-1.2,0.9-2.1,1.2-1c0.9,2.3,3.1,1.7,2.8-0.5c-0.2-1.5-1.7-2.3-4.6-3.1c-3.5-1-4.6-2.2-5.3-5.1
	c-0.3-1.3-0.3-2,0.4-2.6c0.3-0.3,0.8-0.7,0.8-0.7S44.3,129,44.5,129.9L44.5,129.9z M136.2,128c0.3,0,0.6,0.3,0.6,0.6
	c0,0.3-0.3,0.6-0.6,0.6s-0.6-0.3-0.6-0.6C135.6,128.3,135.8,128,136.2,128z M26.1,128.6c1,0.4,1.9,0.9,3,1.3
	c0.7,0.2,0.5,0.8-0.2,1.6c-0.8,1-1.6,1.4-2.7,2v-1.6c1.4-0.5,2.2-1.6-0.1-2V128.6z M138.9,129.5c0.4,0,1,0,1.6,0.2
	c1.7,0.3,1.9,0.5,0.9,1.7c-0.4,0.4-0.9,1.1-1.2,1.5c-1,1.4-1.5,0.9-2-0.9C137.6,130,137.5,129.3,138.9,129.5z M31.4,130.1
	c0.3,0,0.6,0.3,0.6,0.6s-0.3,0.6-0.6,0.6c-0.3,0-0.6-0.3-0.6-0.6S31.1,130.1,31.4,130.1z M137.2,131.4c0.2,0.6,0.4,1.3,0.6,1.9
	c0.9,2,0.3,1.2-1.3,1.1c-1.1-0.1-2.8,0.1-3.3-0.2c-0.2-0.2,0-0.9,0.3-1.6c0.5-1,1.4-1.9,2.1-2.3
	C137.3,129.4,136.9,130.4,137.2,131.4z M40,130.7l18.1,24.1l-1.4,2L38.1,132L40,130.7z M153.6,130.8c-9.5,6.9-13,15.2-13.7,16.2
	l13.8-5.4L153.6,130.8z M135.6,131.6c-0.5,0.1-1.3,1.1-0.9,1.5c0.2,0.2,1,0.2,1.3,0.1C136.6,133,136.2,131.6,135.6,131.6z
	 M56.1,157.7l-3.9,4.9l-20.1-26.2l5.1-3.7L56.1,157.7z M152.6,132.2l0.1,9l-11.8,5C145,139.5,148.7,135.3,152.6,132.2z M71.8,133
	l4.8,6.2l-5.8-0.1L71.8,133z M131.7,133.5c0.3,0,0.6,0.3,0.6,0.6c0,0.3-0.3,0.6-0.6,0.6s-0.6-0.3-0.6-0.6
	C131.1,133.8,131.3,133.5,131.7,133.5z M135.1,135c2.2,0,2.9,0.1,2.3,1.2c-0.8,1-1.3,2-2.3,3c-0.5,0.5-1.2-0.6-1.8-2.4
	c-0.4-1.4-0.2-1.8,0.6-1.8C134.9,135,135,135,135.1,135z M132.6,136.9c0.2,0.6,0.6,1.5,0.9,2.1c0.3,0.6,0.7,1.2,0.7,1.3
	c-0.1,0.3-0.3,0.3-0.9,0.1c-1.2-0.6-4.2,0-4.2-0.2c-0.4-0.6,0.2-2.3,1.4-3.5c0.6-0.6,1.1-0.9,1.5-1
	C132.3,135.7,132.4,136.2,132.6,136.9L132.6,136.9z M31.6,136.5l20.5,26.8l-1.4,1.7L30,137.7c0,0-3.3,1.6-4.2,2.2l0.1,13.9h-0.6
	l0.1,70.2l11.4-11.5l-0.1-47.5c2.4,2.3,4.5,4.8,7.3,7h4.8c12.4-12.7,19.2-23.5,20.7-43.1c1-13.1-3.3-29.4-14.7-45.3L52,85.2l5.5,8.4
	l-11.6,5.2c-4.7,9.9-10.2,18.9-20.2,24.1l-0.1,12.8l-0.2,0.3l0.1,4L31.6,136.5z M131.6,137.4c-0.5,0-1.4,1.2-1,1.6
	c0.5,0.2,1.2,0.2,1.5-0.2C132.3,138.4,132.2,137.6,131.6,137.4z M70.6,140.2h6l-1.6,5.2l-5.9-0.1L70.6,140.2z M127.6,140.1
	c0.3,0,0.6,0.3,0.6,0.6c0,0.3-0.3,0.6-0.6,0.6c-0.3,0-0.6-0.3-0.6-0.6S127.3,140.1,127.6,140.1z M97.1,140.2l0.8,6.8
	c-6.6,2.4-13.6,6.5-19.8,14c-1.1-0.1-9.5,0.1-9.5,0.1c0.2,0,7.8-14.5,8.7-20.7L97.1,140.2z M73.2,140.8l-2.8,1.9l2.2,2.3l2.9-2
	L73.2,140.8z M130.6,140.9c0.6,0,1.4,0.1,2,0.2c1,0.2,1.2,0.2,0.8,1.1c-0.5,1.1-1.5,3.2-1.8,3.3c-0.9,0.6-3-3.6-2.3-4.3
	C129.5,140.9,129.9,140.9,130.6,140.9L130.6,140.9z M127.9,142.1c0.3,0,0.6,0.5,0.7,1c0.1,0.5,1.1,1.9,1.7,2.6
	c0.7,0.8,0.7,0.9-0.4,1c-1.3,0.1-2.5,0.4-3.2,0.6c-1.1,0.4-1.3,0.3-1.1-1C125.8,144.4,127.1,142.2,127.9,142.1L127.9,142.1z
	 M126.9,146.2c0.1,0.4,1.9-0.3,2-0.8c0-0.2-0.7-1.4-1.1-1.4C127.1,144.1,126.8,145.7,126.9,146.2z M69,145.9l5.7,0.1l-1.9,4.7h-5.6
	L69,145.9z M71.5,146.6l-2.7,1.7l2.1,2.1l2.6-1.8L71.5,146.6z M129.3,147.4c0.5,0,1,0,1.1,0.2c0.3,0.5-0.9,3.3-0.9,3.3l-2,0.8
	c-0.4-0.9-1.2-1.8-1.4-2.8c-0.1-0.4,0.1-0.6,0.6-0.8C127.4,147.7,128.5,147.4,129.3,147.4L129.3,147.4z M123.9,147.7
	c0.3,0,0.6,0.3,0.6,0.6s-0.3,0.6-0.6,0.6c-0.3,0-0.6-0.3-0.6-0.6C123.3,147.9,123.6,147.7,123.9,147.7z M98.1,147.7
	c0,0,1.2,7,1.3,6.2c-9.5,3.6-15,8.9-17.6,14.1H63.9l4-6.2l10.6-0.1C83.4,155.6,89.7,150.6,98.1,147.7z M95.8,149.4l-0.9,2.8l2.7,1.7
	l1-3L95.8,149.4z M124.8,149.4c0.2,0,0.5,0.4,0.9,1.2c0.3,0.6,0.8,1.5,0.8,1.5l-0.8,0.3c-0.6-2.2-1.2-1.4-1.3,0.6l-1.1,0.4
	c0,0,0.1-1.9,0.7-3C124.4,149.8,124.6,149.5,124.8,149.4L124.8,149.4z M66.9,151.4l5.5,0.1l-2.3,4.8l-5.6-0.2L66.9,151.4z
	 M90.9,151.8l-0.4,3.6l3,0.6l0.4-3.4L90.9,151.8z M69.3,151.8l-2.7,1.8l1.8,2.4l2.6-1.8L69.3,151.8z M86.7,154.9l-0.6,3.3l2.8,0.6
	l0.6-3.3L86.7,154.9z M26.2,155.1l7,7l0.4,48.5l-7,7L26.2,155.1z M64.1,156.9l5.6,0.2l-2.2,4.1l-1.9-0.1l2.5-1.7l-1.6-2.1l-2.6,1.7
	l1.4,2.1l-3.8-0.1L64.1,156.9z M100.1,158.1l1.9,6.3l-2.3,0.4l-1.7-5.9C98.7,158.5,99.4,158.4,100.1,158.1z M82.1,158.5v3.8l3.1,0.3
	l0.1-3.6L82.1,158.5z M97.3,159.1l1.7,6l-1.4,0.4l-2.1-5.7C96.1,159.5,96.7,159.3,97.3,159.1z M94.6,160.4l2.2,5.9
	c-3.1,1.3-6.3,4-8.7,6.6c-1.8-1.3-2.8-1.5-3.9-1.8C87.3,165.4,90.9,162.4,94.6,160.4L94.6,160.4z M61,161.8l5.9,0.2l-4.1,6.1h-6.6
	L61,161.8z M78.4,162.1l-0.4,3.6l3.1,1.9l0.5-3.7L78.4,162.1z M74.7,162.6l-2.2,2.4l2.4,2.7l2.2-2.8L74.7,162.6z M69.7,162.7
	l-2.7,2.4l2.1,2.8l2.4-2.8L69.7,162.7z M36,165l0.3,47.3l-9.8,9.5l-0.1-2.6l7.8-8.1c0-16,0-32.1-0.1-48L36,165z M61.8,163.4
	l-2.7,3.7h3.2l2.3-3.6L61.8,163.4z M45.3,186.4c-1.1,3.8-6,8-6,7.9c2.4,3.5,2.3,8.5,0.2,10.9c0-0.1,3.9,3.2,4.4,4.9
	c0.3,0.7,0.4,1.5,0.8,2.2c0.1,0.2,0.4,0.6,0.4,0.6C54.7,203.1,50.2,191.8,45.3,186.4z M45.5,187.4c9.2,11.5,3.1,21.9-0.1,24.9
	l-0.6-1c6.8-8,3.9-17.7,0-22.4L45.5,187.4z M44.5,189.6c0.1,0.2,0.4,0.7,0.2,0.7l-0.5-0.1L44.5,189.6z M44.4,190.9
	c0.2,0,0.4,0.1,0.5,0.2c0.2,0.3-0.8,3-1.4,2.3c-0.2-0.3-0.4-0.7-0.5-1c-0.2-0.4-0.1-0.6,0.4-1.1C43.6,191,44.1,190.9,44.4,190.9z
	 M45.7,191.6c0.5,0,1.1,1.5,1.2,2.6c0,0.1-1.6-0.2-2-0.7C45,193,45.4,191.9,45.7,191.6z M42.1,192.8c2.8,5.6,2.6,10,0.2,14l-1.9-1.6
	c1.3-3.1,1.9-6.3-0.2-10.5L42.1,192.8z M44,194.2c0.2,0,0.8,0.1,1.3,0.2c1.9,0.6,1.9,1.8,0.1,2.7c-0.7,0.4-1,0.2-1.4-1.7
	C43.8,194.6,43.7,194.2,44,194.2L44,194.2z M47.6,196.4c0.4,0,0.5,0.7,0.6,1.9c0,1.1-0.2,1.2-1.1,0.4c-1-0.9-1.1-1.1-0.2-1.8
	C47.1,196.6,47.4,196.4,47.6,196.4L47.6,196.4z M45.1,198.2c0.2,0,0.7,0.3,1.2,0.7c1.3,1,1,1.6-0.5,2.1c-1,0.3-0.9,0.4-0.9-1.4
	C44.9,198.8,44.8,198.2,45.1,198.2z M61.8,199.8c-1.6,0.4-2.2,1.8-1.7,3c0.2,0.6,0.6,0.6,0.2,0.9c-0.5,0.5-0.7,1.8-0.2,2.2
	c0.6,0.3,0.8-0.3,0.1,0.9l-11.6,21.5l69.8-0.1l-8.4-15.8c0,0,0.7-2.6-0.7-2.9c-0.4-0.1-0.7-0.5-0.8-0.9c0.1-1.1-0.4-1.6-0.8-2.1
	c-6.7,0.9-12.3,0.5-17.1-0.6c-6.9-1.6-11.7-4.3-14.9-5.1C71.3,199.6,65.9,199.1,61.8,199.8z M65.5,199.9c5.4,0,11.4,1.6,15.7,3.5
	c4.4,1.8,9.1,3.2,13.7,3.9c3.9,0.5,7.8,0.2,11.4-0.1c0.4-0.1,0.8,0,1.1,0.3c0.8,0.9,0.2,1.4-1.7,1.6c-3.1,0.3-7,0.1-10.4-0.4
	c-5.4-0.6-11.1-2.3-16-4.3c-6.2-2.3-11.8-3.1-16.2-2.4c-2.5,0.4-2.8,0.4-2.8-0.2C60.5,200.5,61.6,199.9,65.5,199.9L65.5,199.9z
	 M47.9,203.6c-0.2,0.5-1.9-1.3-1.9-1.8c0-0.2,1.4-1.1,1.9-1.5c0.3-0.2,0.2-0.1,0.2,0.1C48.1,201.3,48.1,202.9,47.9,203.6z
	 M45.3,202.4c0.8,0.1,2.1,2.2,0.9,2.5c-1,0.3-1.9,0.5-2-0.2C44.7,203,44.9,202.4,45.3,202.4C45.2,202.4,45.2,202.4,45.3,202.4
	L45.3,202.4z M90.4,209.5c5,0.9,11.4,1.4,15.7,1c2.4-0.2,3-0.2,2.9,0.9c0,0.6,0.1,0.6-3.1,0.6c-2.6,0.2-5-0.1-7.5-0.2
	c-5.3-0.3-10-1.2-14.3-2.7c-4.9-1.3-9.1-3.7-13.8-4.2c-4.4-0.4-8.3,0.3-9.2,0.8c-0.3,0-0.4-0.4-0.4-0.8c0-0.4,0.2-0.7,0.5-0.9
	C73.7,200.8,80.3,207.6,90.4,209.5z M46.9,205.3c0.4,0,0.3,0.6-0.4,2c-0.6,1.1-0.8,1.1-1.1,0c-0.4-1.2-0.3-1.4,0.4-1.5
	C46.1,205.5,46.5,205.3,46.9,205.3z M44,205.9c0.5,0,1.2,2.2,0.8,2.7c-0.3,0.3-1.3,0.1-1.6-0.3C42.7,207.6,43.3,205.9,44,205.9z
	 M65.9,206.5c2,0,3.9,0.2,5.7,0.5c-1,0.4-2.1,0.7-3.1,1.4C67.7,207.7,66.9,207.1,65.9,206.5z M68.4,209.2c6.9-3.9,9.8,1.5,10.8,2.3
	c6-1.3,7.2-0.7,10.6,3c6-3,9-0.4,11.4,1.2c3-2.8,6.7-2.9,8.7-1.5c0.4,0.6,0.9,1.4,0.9,1.6s-0.2,0-0.9-0.5c-3.5-2.6-9.4,0.6-7.9,4
	c0.4,0.9,0.4,1.3-0.3,1.7c-0.9,0.6-2-0.4-1.4-1.4c1-1.7,0.3-3.2-2.3-4.5c-3.6-1.9-9.5,0.2-8.2,3c0.8,0.9,0.1,1.5-1,1.5
	c-1.2,0-1.5-0.8-0.8-1.6c0.9-1.1,0.7-2.1-0.4-3.4c-3.2-4.6-9.7-2.8-8.9,1.3c0.4,1-0.7,1.4-1.8,1c-0.7-0.3-0.6-1.4,0.2-1.8
	c0.9-0.1,1-1.4,0.9-2.2c-0.2-1.2-1.9-2.4-3.7-3.1c-1.3-0.5-2.5-0.6-3.4-0.5c-2,0.2-3.1,1.5-2.8,3.6c0.2,1.2-0.1,2.4-1.5,1.8
	c-0.8-0.4-0.6-1.2,0.2-2c2.7-2.7-2.8-6-6.1-3.7c-0.6,0.5-1,0.5-1,0.5C61.9,204.1,68.5,209,68.4,209.2z M77.5,208.5l4.2,1.6
	c-1,0.2-1.6,0.5-2.3,0.7L77.5,208.5z M66.6,210.2c-3.8-0.7-4.1,3.6-1.5,4.3c-3.4,4.8,5.6,6.6,3.9,0.7c4.6,0.8,3.7-4.4,0.3-4.4
	c0.8-2,7.1-0.5,6.8,1c-4.2,0.5-2.5,4.3-0.7,4.3c-4.4,4.2,4.4,8.1,4.2,1.8c3.6,0.8,4-4,0.6-4.3c1.3-1.8,5.7-0.7,7,1.4
	c-3.5,0.5-3.3,3.6-0.5,4.1c-3.5,4.5,5.1,6.2,4.2,0.9c3.1,1.1,4.8-3.1,0.8-4.3c4.1-2.5,8.6,1.2,8.1,1.3c-4.7-0.3-3.8,4.4-0.4,4.2
	c-2.2,4.9,6.4,5.2,4.2,0.1c3.8,0.1,3.5-4.4-0.2-4.7c2.3-1.7,4.9-1.9,6.6-0.3c-3.5,0.9-2,5,1.5,3.9c0.3,3.4,3.1,2.7,3.2,2.6l2.5,4.7
	l-66.9,0.1l5.7-10.7c3.4,0.2,3.3-3.1,3.1-3.2c2.3,1.6,4.7-2.4,1.4-3.6C62.9,207.4,66.9,210,66.6,210.2L66.6,210.2z M44.8,209.9
	c-0.1,0.1-0.2,0.2-0.4,0C43.8,209.2,45.4,209.2,44.8,209.9z M58.6,211.7c0.3,0.2,0.1,0.9-0.1,1.1c-0.6,0.7-0.8,0.6-0.3-0.5
	C58.4,212,58.5,211.7,58.6,211.7L58.6,211.7z M88,212l3.5,0.9l-1.7,0.9C89.2,213.1,88.6,212.5,88,212z M98.9,213.4l3.8,0.2
	c-0.5,0.3-1,0.7-1.6,1.3C100.5,214.4,99.7,213.9,98.9,213.4z M111.5,217.3c0.2,0.4,1.1,2,1,2C111.2,219.5,110.9,217.7,111.5,217.3z"
	/>
<path fill="#D40000" d="M48.3,64.8c-4.1-6.9-8.5-13.5-13.9-19.1c5.5-5.7,9.8-12.3,13.9-19.1
	c4.1,6.9,8.5,13.5,13.9,19.1C56.7,51.2,52.4,57.9,48.3,64.8z"/>
<path fill="#D40000" d="M14.4,56.2c-1.7-2.9-3.5-5.6-5.8-8c2.3-2.4,4.1-5.1,5.8-8
	c1.7,2.9,3.5,5.6,5.8,8C18,50.5,16.2,53.3,14.4,56.2z"/>
<path fill="#D40000" d="M130.3,184.7c-4.1,6.9-8.5,13.5-13.9,19.1c5.5,5.7,9.8,12.3,13.9,19.1
	c4.1-6.9,8.5-13.5,13.9-19.1C138.9,198.2,134.5,191.6,130.3,184.7z"/>
<path fill="#D40000" d="M164.2,193.3c-1.7,2.9-3.5,5.6-5.8,8c2.3,2.4,4.1,5.1,5.8,8
	c1.7-2.9,3.5-5.6,5.8-8C167.7,198.9,165.9,196.1,164.2,193.3z"/>
<path fill="#D40000" d="M15.1,34.9h2.7l-3.9-9.7l-3,4.1v5.6H13v2.9H5.7v-2.9h2.4V14H5.7v-2.5h7.5
	v2.6h-2.1v10.2L17.5,14h-2.3v-2.5h8V14h-2.1l-5.4,8.4L21,34.8h2.3v2.9h-8.2V34.9L15.1,34.9z"/>
<path fill="#D40000" d="M163.6,214.6h-2.7l3.9,9.7l3-4.1v-5.6h-2.1v-2.9h7.4v2.9h-2.4v20.9h2.4
	v2.5h-7.5v-2.6h2.1v-10.2l-6.5,10.3h2.3v2.5h-8v-2.5h2.1l5.4-8.4l-5.3-12.5h-2.3v-2.9h8.2V214.6L163.6,214.6z"/>
</svg>
