<?xml version="1.0" encoding="utf-8"?>
<!-- Generator: Adobe Illustrator 15.0.2, SVG Export Plug-In . SVG Version: 6.00 Build 0)  -->
<!DOCTYPE svg PUBLIC "-//W3C//DTD SVG 1.1//EN" "http://www.w3.org/Graphics/SVG/1.1/DTD/svg11.dtd">
<svg version="1.1" id="Layer_1" xmlns="http://www.w3.org/2000/svg" xmlns:xlink="http://www.w3.org/1999/xlink" x="0px" y="0px"
	 width="178.7px" height="249.6px" viewBox="0 0 178.7 249.6" enable-background="new 0 0 178.7 249.6" xml:space="preserve">
<path fill="#D40000" d="M14.1,56.2c-1.7-2.9-3.5-5.6-5.8-8c2.3-2.4,4.1-5.1,5.8-8
	c1.7,2.9,3.5,5.6,5.8,8C17.7,50.5,15.8,53.3,14.1,56.2z"/>
<path fill="#D40000" d="M130.5,64.8c-4.1-6.9-8.5-13.5-13.9-19.1c5.5-5.7,9.8-12.3,13.9-19.1
	c4.1,6.9,8.5,13.5,13.9,19.1C139.1,51.2,134.7,57.9,130.5,64.8z"/>
<path fill="#D40000" d="M164.6,209.2c-1.7-2.9-3.5-5.6-5.8-8c2.3-2.4,4.1-5.1,5.8-8
	c1.7,2.9,3.5,5.6,5.8,8C168,203.5,166.3,206.3,164.6,209.2z"/>
<path fill="#D40000" d="M48.1,64.8c-4.1-6.9-8.5-13.5-13.9-19.1c5.5-5.7,9.8-12.3,13.9-19.1
	C52.2,33.4,56.5,40,62,45.7C56.5,51.2,52.3,57.9,48.1,64.8z"/>
<path fill="#D40000" d="M48.1,223c-4.1-6.9-8.5-13.5-13.9-19.1c5.5-5.7,9.8-12.3,13.9-19.1
	c4.1,6.9,8.5,13.5,13.9,19.1C56.5,209.5,52.3,216.1,48.1,223z"/>
<path fill="#D40000" d="M130.5,223c-4.1-6.9-8.5-13.5-13.9-19.1c5.5-5.7,9.8-12.3,13.9-19.1
	c4.1,6.9,8.5,13.5,13.9,19.1C139.1,209.5,134.7,216.2,130.5,223z"/>
<path fill="#D40000" d="M14.3,37.8v-2.3h2.1v-3.8H6V29l11.3-17.4h1.9V29h3.2v2.7h-3.2l-0.1,3.8
	h1.8v2.3H14.3L14.3,37.8z M16.4,17.8L9.3,28.9h7.2V17.8z"/>
<path fill="#D40000" d="M164.4,211.7v2.3h-2.1v3.8h10.5v2.7l-11.3,17.4h-1.9v-17.4h-3.2v-2.7h3.2
	l0.1-3.8h-1.8v-2.3H164.4L164.4,211.7z M162.3,231.7l7.2-11.1h-7.2V231.7z"/>
</svg>
