<?xml version="1.0" encoding="utf-8"?>
<!-- Generator: Adobe Illustrator 15.0.2, SVG Export Plug-In . SVG Version: 6.00 Build 0)  -->
<!DOCTYPE svg PUBLIC "-//W3C//DTD SVG 1.1//EN" "http://www.w3.org/Graphics/SVG/1.1/DTD/svg11.dtd">
<svg version="1.1" id="Layer_1" xmlns="http://www.w3.org/2000/svg" xmlns:xlink="http://www.w3.org/1999/xlink" x="0px" y="0px"
	 width="178.7px" height="249.6px" viewBox="0 0 178.7 249.6" enable-background="new 0 0 178.7 249.6" xml:space="preserve">
<path fill="#D40000" d="M14.2,56.2c-1.7-2.9-3.5-5.6-5.8-8c2.3-2.4,4.1-5.1,5.8-8
	c1.7,2.9,3.5,5.6,5.8,8C17.7,50.5,15.9,53.3,14.2,56.2z"/>
<path fill="#D40000" d="M130.6,64.8c-4.1-6.9-8.5-13.5-13.9-19.1c5.5-5.7,9.8-12.3,13.9-19.1
	c4.1,6.9,8.5,13.5,13.9,19.1C139.1,51.2,134.7,57.9,130.6,64.8z"/>
<path fill="#D40000" d="M164.6,209.2c-1.7-2.9-3.5-5.6-5.8-8c2.3-2.4,4.1-5.1,5.8-8
	c1.7,2.9,3.5,5.6,5.8,8C168,203.5,166.3,206.3,164.6,209.2z"/>
<path fill="#D40000" d="M48.2,64.8c-4.1-6.9-8.5-13.5-13.9-19.1C39.7,40,44,33.4,48.2,26.5
	c4.1,6.9,8.5,13.5,13.9,19.1C56.6,51.2,52.3,57.9,48.2,64.8z"/>
<path fill="#D40000" d="M89.4,143.8c-4.1-6.9-8.5-13.5-13.9-19.1c5.5-5.7,9.8-12.3,13.9-19.1
	c4.1,6.9,8.5,13.5,13.9,19.1C97.9,130.4,93.5,137.1,89.4,143.8z"/>
<path fill="#D40000" d="M48.2,223c-4.1-6.9-8.5-13.5-13.9-19.1c5.5-5.7,9.8-12.3,13.9-19.1
	c4.1,6.9,8.5,13.5,13.9,19.1C56.6,209.5,52.3,216.1,48.2,223z"/>
<path fill="#D40000" d="M130.6,223c-4.1-6.9-8.5-13.5-13.9-19.1c5.5-5.7,9.8-12.3,13.9-19.1
	c4.1,6.9,8.5,13.5,13.9,19.1C139.1,209.5,134.7,216.2,130.6,223z"/>
<path fill="#D40000" d="M5.9,30.9h2.6c0.5,1.6,1.6,3.2,3.1,3.7c4.2,1,6.9-1.4,7.8-4.1
	c1.1-3.3,0-8-2.9-9.7c-2.4-1.4-5.9-0.2-7.6,2.7l-1.8-1.1l1-11h11.7v2.6h-9.6l-0.2,4.6c2.1-1.5,5.2-1.5,7.3-0.4
	c3.9,1.9,5.7,6.2,5,11.3c-1.1,5.1-3.4,7.9-8.6,8.3C8,37.8,5.9,33.7,5.9,30.9L5.9,30.9L5.9,30.9z"/>
<path fill="#D40000" d="M172.8,218.5h-2.6c-0.5-1.6-1.6-3.2-3.1-3.7c-4.2-1-6.9,1.4-7.8,4.1
	c-1.1,3.3,0,8,2.9,9.7c2.4,1.4,5.9,0.2,7.6-2.7l1.8,1.1l-1,11h-11.7v-2.6h9.6l0.2-4.6c-2.1,1.5-5.2,1.5-7.3,0.4
	c-3.9-1.9-5.7-6.2-5-11.3c1.1-5.1,3.4-7.9,8.6-8.3C170.8,211.6,172.8,215.7,172.8,218.5L172.8,218.5L172.8,218.5z"/>
</svg>
