<?xml version="1.0" encoding="utf-8"?>
<!-- Generator: Adobe Illustrator 15.0.2, SVG Export Plug-In . SVG Version: 6.00 Build 0)  -->
<!DOCTYPE svg PUBLIC "-//W3C//DTD SVG 1.1//EN" "http://www.w3.org/Graphics/SVG/1.1/DTD/svg11.dtd">
<svg version="1.1" id="Layer_1" xmlns="http://www.w3.org/2000/svg" xmlns:xlink="http://www.w3.org/1999/xlink" x="0px" y="0px"
	 width="178.7px" height="249.6px" viewBox="0 0 178.7 249.6" enable-background="new 0 0 178.7 249.6" xml:space="preserve">
<path fill="#D40000" d="M14.1,56.2c-1.7-2.9-3.5-5.6-5.8-8c2.3-2.4,4.1-5.1,5.8-8
	c1.7,2.9,3.5,5.6,5.8,8C17.6,50.5,15.8,53.3,14.1,56.2z"/>
<path fill="#D40000" d="M130.5,64.8c-4.1-6.9-8.5-13.5-13.9-19.1c5.5-5.7,9.8-12.3,13.9-19.1
	c4.1,6.9,8.5,13.5,13.9,19.1C139,51.2,134.7,57.9,130.5,64.8z"/>
<path fill="#D40000" d="M164.5,209.2c-1.7-2.9-3.5-5.6-5.8-8c2.3-2.4,4.1-5.1,5.8-8
	c1.7,2.9,3.5,5.6,5.8,8C168,203.5,166.3,206.3,164.5,209.2z"/>
<path fill="#D40000" d="M48.1,64.8c-4.1-6.9-8.5-13.5-13.9-19.1c5.5-5.7,9.8-12.3,13.9-19.1
	C52.2,33.4,56.5,40,62,45.7C56.5,51.2,52.3,57.9,48.1,64.8z"/>
<path fill="#D40000" d="M48.1,143.8c-4.1-6.9-8.5-13.5-13.9-19.1c5.5-5.7,9.8-12.3,13.9-19.1
	c4.1,6.9,8.5,13.5,13.9,19.1C56.5,130.4,52.3,137,48.1,143.8z"/>
<path fill="#D40000" d="M130.5,143.8c-4.1-6.9-8.5-13.5-13.9-19.1c5.5-5.7,9.8-12.3,13.9-19.1
	c4.1,6.9,8.5,13.5,13.9,19.1C139,130.4,134.7,137.1,130.5,143.8z"/>
<path fill="#D40000" d="M48.1,223c-4.1-6.9-8.5-13.5-13.9-19.1c5.5-5.7,9.8-12.3,13.9-19.1
	c4.1,6.9,8.5,13.5,13.9,19.1C56.5,209.5,52.3,216.1,48.1,223z"/>
<path fill="#D40000" d="M130.5,223c-4.1-6.9-8.5-13.5-13.9-19.1c5.5-5.7,9.8-12.3,13.9-19.1
	c4.1,6.9,8.5,13.5,13.9,19.1C139,209.5,134.7,216.2,130.5,223z"/>
<path fill="#D40000" d="M6.4,29.6c-0.3-2.2-0.3-8-0.1-9.7c0.8-5.2,2.8-7.6,6.1-8.4
	c3.2-0.8,7.8,0.1,8.8,4.4L18.4,16c-1.5-2.9-5.2-2.2-7.2-0.9c-1.7,1-2.4,5.3-2.1,5.5c0,0,3.1-2.3,5.6-2.2c5.3,0.6,7.5,5.1,7.3,9.5
	c-0.2,5.2-1.8,9.4-7.4,9.7C9.4,37.6,7,34.7,6.4,29.6L6.4,29.6L6.4,29.6z M19.5,28.3c0-3.6-1.6-6.3-4.7-6.6c-3.1-0.3-6.2,2.7-6,6.4
	c0.2,3.7,1.7,6.8,5.4,6.8C18.2,34.9,19.5,30.8,19.5,28.3L19.5,28.3z"/>
<path fill="#D40000" d="M172.2,219.8c0.3,2.2,0.3,8,0.1,9.7c-0.8,5.2-2.8,7.6-6.1,8.4
	c-3.2,0.8-7.8-0.1-8.8-4.4l2.7-0.1c1.5,2.9,5.2,2.2,7.2,0.9c1.7-1,2.4-5.3,2.1-5.5c0,0-3.1,2.3-5.6,2.2c-5.3-0.6-7.5-5.1-7.3-9.5
	c0.2-5.2,1.8-9.4,7.4-9.7C169.2,211.9,171.7,214.8,172.2,219.8L172.2,219.8L172.2,219.8z M159.1,221.2c0,3.6,1.6,6.3,4.7,6.6
	s6.2-2.7,6-6.4c-0.2-3.7-1.7-6.8-5.4-6.8C160.4,214.6,159.1,218.6,159.1,221.2L159.1,221.2z"/>
</svg>
