<?xml version="1.0" encoding="utf-8"?>
<!-- Generator: Adobe Illustrator 15.0.2, SVG Export Plug-In . SVG Version: 6.00 Build 0)  -->
<!DOCTYPE svg PUBLIC "-//W3C//DTD SVG 1.1//EN" "http://www.w3.org/Graphics/SVG/1.1/DTD/svg11.dtd">
<svg version="1.1" id="Layer_1" xmlns="http://www.w3.org/2000/svg" xmlns:xlink="http://www.w3.org/1999/xlink" x="0px" y="0px"
	 width="178.7px" height="249.6px" viewBox="0 0 178.7 249.6" enable-background="new 0 0 178.7 249.6" xml:space="preserve">
<path fill="#D40000" d="M89.4,64.8c-4.1-6.9-8.5-13.5-13.9-19.1c5.5-5.7,9.8-12.3,13.9-19.1
	c4.1,6.9,8.5,13.5,13.9,19.1C97.9,51.2,93.5,57.9,89.4,64.8z"/>
<path fill="#D40000" d="M14.2,56.2c-1.7-2.9-3.5-5.6-5.8-8c2.3-2.4,4.1-5.1,5.8-8
	c1.7,2.9,3.5,5.6,5.8,8C17.7,50.5,15.9,53.3,14.2,56.2z"/>
<path fill="#D40000" d="M164.6,209.2c-1.7-2.9-3.5-5.6-5.8-8c2.3-2.4,4.1-5.1,5.8-8
	c1.7,2.9,3.5,5.6,5.8,8C168.1,203.5,166.3,206.3,164.6,209.2z"/>
<path fill="#D40000" d="M89.4,143.8c-4.1-6.9-8.5-13.5-13.9-19.1c5.5-5.7,9.8-12.3,13.9-19.1
	c4.1,6.9,8.5,13.5,13.9,19.1C97.9,130.4,93.5,137.1,89.4,143.8z"/>
<path fill="#D40000" d="M89.4,223c-4.1-6.9-8.5-13.5-13.9-19.1c5.5-5.7,9.8-12.3,13.9-19.1
	c4.1,6.9,8.5,13.5,13.9,19.1C97.9,209.5,93.5,216.1,89.4,223z"/>
<path fill="#D40000" d="M5.7,32l2-1.5c1.8,2.9,3.7,4.8,6.8,4.4c4.5-0.3,6.4-5.1,5.5-8.6
	c-0.9-3.2-4.7-4.8-7.6-3.1c-0.7,0.4-1.4,0.7-1.5,0.7c-0.3,0-1-1.4-0.9-1.8c2-2.9,6.9-8,6.9-8H9.1v3.4H6.2v-6.1H21v2.1
	c0,0-4,4.1-5.3,6.4c3.2,0.1,5.8,2.2,6.8,5.4c0.5,1.7,0.3,5.6-0.4,7.3c-1.2,2.8-4.5,5.1-7.4,5.2C9.7,38.1,7,34.6,5.7,32L5.7,32
	L5.7,32z"/>
<path fill="#D40000" d="M173.1,217.5l-2,1.5c-1.8-2.9-3.7-4.8-6.8-4.4c-4.5,0.3-6.4,5.1-5.5,8.6
	c0.9,3.2,4.7,4.8,7.6,3.1c0.7-0.4,1.4-0.7,1.5-0.7c0.3,0,1,1.4,0.9,1.8c-2,2.9-6.9,8-6.9,8h7.6V232h2.9v6.2h-14.7V236
	c0,0,4-4.1,5.3-6.4c-3.2-0.1-5.8-2.2-6.8-5.4c-0.5-1.7-0.3-5.6,0.4-7.3c1.2-2.8,4.5-5.1,7.4-5.2
	C169.1,211.4,171.7,214.9,173.1,217.5L173.1,217.5z"/>
</svg>
