<?xml version="1.0" encoding="utf-8"?>
<!-- Generator: Adobe Illustrator 15.0.2, SVG Export Plug-In . SVG Version: 6.00 Build 0)  -->
<!DOCTYPE svg PUBLIC "-//W3C//DTD SVG 1.1//EN" "http://www.w3.org/Graphics/SVG/1.1/DTD/svg11.dtd">
<svg version="1.1" id="Layer_1" xmlns="http://www.w3.org/2000/svg" xmlns:xlink="http://www.w3.org/1999/xlink" x="0px" y="0px"
	 width="178.7px" height="249.6px" viewBox="0 0 178.7 249.6" enable-background="new 0 0 178.7 249.6" xml:space="preserve">
<path fill="#D40000" d="M14.1,56.2c-1.7-2.9-3.5-5.6-5.8-8c2.3-2.4,4.1-5.1,5.8-8
	c1.7,2.9,3.5,5.6,5.8,8C17.6,50.5,15.8,53.3,14.1,56.2z"/>
<path fill="#D40000" d="M130.5,64.8c-4.1-6.9-8.5-13.5-13.9-19.1c5.5-5.7,9.8-12.3,13.9-19.1
	c4.1,6.9,8.5,13.5,13.9,19.1C139,51.2,134.7,57.9,130.5,64.8z"/>
<path fill="#D40000" d="M164.5,209.2c-1.7-2.9-3.5-5.6-5.8-8c2.3-2.4,4.1-5.1,5.8-8
	c1.7,2.9,3.5,5.6,5.8,8C168,203.5,166.3,206.3,164.5,209.2z"/>
<path fill="#D40000" d="M48.1,64.8c-4.1-6.9-8.5-13.5-13.9-19.1c5.5-5.7,9.8-12.3,13.9-19.1
	C52.2,33.4,56.5,40,62,45.7C56.5,51.2,52.2,57.9,48.1,64.8z"/>
<path fill="#D40000" d="M89.3,104.3c-4.1-6.9-8.5-13.5-13.9-19.1c5.5-5.7,9.8-12.3,13.9-19.1
	c4.1,6.9,8.5,13.5,13.9,19.1C97.8,90.8,93.5,97.5,89.3,104.3z"/>
<path fill="#D40000" d="M48.1,143.8c-4.1-6.9-8.5-13.5-13.9-19.1c5.5-5.7,9.8-12.3,13.9-19.1
	c4.1,6.9,8.5,13.5,13.9,19.1C56.5,130.4,52.2,137,48.1,143.8z"/>
<path fill="#D40000" d="M130.5,143.8c-4.1-6.9-8.5-13.5-13.9-19.1c5.5-5.7,9.8-12.3,13.9-19.1
	c4.1,6.9,8.5,13.5,13.9,19.1C139,130.4,134.7,137.1,130.5,143.8z"/>
<path fill="#D40000" d="M48.1,223c-4.1-6.9-8.5-13.5-13.9-19.1c5.5-5.7,9.8-12.3,13.9-19.1
	c4.1,6.9,8.5,13.5,13.9,19.1C56.5,209.5,52.2,216.1,48.1,223z"/>
<path fill="#D40000" d="M130.5,223c-4.1-6.9-8.5-13.5-13.9-19.1c5.5-5.7,9.8-12.3,13.9-19.1
	c4.1,6.9,8.5,13.5,13.9,19.1C139,209.5,134.7,216.2,130.5,223z"/>
<path fill="#D40000" d="M89.3,183.4c-4.1-6.9-8.5-13.5-13.9-19.1c5.5-5.7,9.8-12.3,13.9-19.1
	c4.1,6.9,8.5,13.5,13.9,19.1C97.8,170,93.5,176.5,89.3,183.4z"/>
<path fill="#D40000" d="M5.6,30c0.1-3.5,1.4-4.9,3.9-6.7c-2-1.5-2.9-3.6-2.7-5.4
	c0.4-4.4,3.8-6.6,7.5-6.5s6.9,3,7.2,6.3c0.2,2.8-0.6,4.1-2.6,5.6c2.3,2,3.8,3.3,3.8,6.8c-0.1,3.5-3,7.6-8.2,7.8
	C9.3,38.1,5.5,33.6,5.6,30L5.6,30L5.6,30z M20,30.1c0.2-3.2-2.6-5.4-5.8-5.4c-3.1,0-5.9,2.6-5.9,5.5c0,3.1,3.6,4.8,6,4.8
	C17.1,34.9,19.8,32.8,20,30.1L20,30.1z M18.9,18.6c0.1-2.7-2.4-4.6-5-4.6c-2.3,0.1-4.7,1.8-4.7,4.1c0,2.8,2.8,4.2,5.1,4.3
	C16.5,22.4,18.9,20.6,18.9,18.6L18.9,18.6L18.9,18.6z"/>
<path fill="#D40000" d="M155.9,219.4c0.1,3.5,1.4,4.9,3.9,6.7c-2,1.5-2.9,3.6-2.7,5.4
	c0.4,4.4,3.8,6.6,7.5,6.5s6.9-3,7.2-6.3c0.2-2.8-0.6-4.1-2.6-5.6c2.3-2,3.8-3.3,3.8-6.8c-0.1-3.5-3-7.6-8.2-7.8
	C159.7,211.6,155.8,215.9,155.9,219.4L155.9,219.4L155.9,219.4z M170.3,219.4c0.2,3.2-2.6,5.4-5.8,5.4c-3.1,0-5.9-2.6-5.9-5.5
	c0-3.1,3.6-4.8,6-4.8C167.4,214.5,170.1,216.6,170.3,219.4L170.3,219.4z M169.3,230.9c0.1,2.7-2.4,4.6-5,4.6
	c-2.3-0.1-4.7-1.8-4.7-4.1c0-2.8,2.8-4.2,5.1-4.3C166.9,227,169.2,228.8,169.3,230.9L169.3,230.9L169.3,230.9z"/>
</svg>
