<?xml version="1.0" encoding="utf-8"?>
<!-- Generator: Adobe Illustrator 15.0.2, SVG Export Plug-In . SVG Version: 6.00 Build 0)  -->
<!DOCTYPE svg PUBLIC "-//W3C//DTD SVG 1.1//EN" "http://www.w3.org/Graphics/SVG/1.1/DTD/svg11.dtd">
<svg version="1.1" id="Layer_1" xmlns="http://www.w3.org/2000/svg" xmlns:xlink="http://www.w3.org/1999/xlink" x="0px" y="0px"
	 width="178.7px" height="249.6px" viewBox="0 0 178.7 249.6" enable-background="new 0 0 178.7 249.6" xml:space="preserve">
<path id="path6399-9" fill="#D40000" d="M14.1,56.3c-1.7-2.9-3.5-5.6-5.8-8c2.3-2.4,4.1-5.1,5.8-8
	c1.7,2.9,3.5,5.6,5.8,8C17.6,50.6,15.8,53.4,14.1,56.3z"/>
<path id="path6403-1" fill="#D40000" d="M164.5,209.2c-1.7-2.9-3.5-5.6-5.8-8
	c2.3-2.4,4.1-5.1,5.8-8c1.7,2.9,3.5,5.6,5.8,8C168,203.6,166.3,206.4,164.5,209.2z"/>
<path id="path6413-1" fill="#D40000" d="M89.3,143.9c-4.1-6.9-8.5-13.5-13.9-19.1
	c5.5-5.7,9.8-12.3,13.9-19.1c4.1,6.9,8.5,13.5,13.9,19.1C97.8,130.5,93.5,137.1,89.3,143.9z"/>
<path id="path41-87-9-4-8" fill="#D40000" d="M6.1,37.8v-2.3h2.2l4.6-24h2.6l5.1,24h1.7v2.3h-5.9
	v-2.3h1.6l-0.6-3.7h-6l-0.5,3.7h1.6v2.3H6.1L6.1,37.8z M16.7,29.3l-2.6-12.9l-2.4,12.9H16.7z"/>
<path id="path41-8-5-6-1" fill="#D40000" d="M156.4,211.8v2.3h2.2l4.6,24h2.6l5.1-24h1.7v-2.3
	h-5.9v2.3h1.6l-0.6,3.7h-6l-0.5-3.7h1.6v-2.3H156.4z M167.1,220.3l-2.6,12.9l-2.4-12.9H167.1z"/>
</svg>
