<?xml version="1.0" encoding="utf-8"?>
<!-- Generator: Adobe Illustrator 15.0.2, SVG Export Plug-In . SVG Version: 6.00 Build 0)  -->
<!DOCTYPE svg PUBLIC "-//W3C//DTD SVG 1.1//EN" "http://www.w3.org/Graphics/SVG/1.1/DTD/svg11.dtd">
<svg version="1.1" id="Layer_1" xmlns="http://www.w3.org/2000/svg" xmlns:xlink="http://www.w3.org/1999/xlink" x="0px" y="0px"
	 width="178.7px" height="249.6px" viewBox="0 0 178.7 249.6" enable-background="new 0 0 178.7 249.6" xml:space="preserve">
<path fill="#D40000" d="M14.2,56.2c-1.7-2.9-3.5-5.6-5.8-8c2.3-2.4,4.1-5.1,5.8-8
	c1.7,2.9,3.5,5.6,5.8,8C17.7,50.6,15.9,53.3,14.2,56.2z"/>
<path fill="#D40000" d="M130.6,64.8c-4.1-6.9-8.5-13.5-13.9-19.1c5.5-5.7,9.8-12.3,13.9-19.1
	c4.1,6.9,8.5,13.5,13.9,19.1C139,51.3,134.8,57.9,130.6,64.8z"/>
<path fill="#D40000" d="M164.5,209.2c-1.7-2.9-3.5-5.6-5.8-8c2.3-2.4,4.1-5.1,5.8-8
	c1.7,2.9,3.5,5.6,5.8,8C168.1,203.6,166.2,206.4,164.5,209.2z"/>
<path fill="#D40000" d="M48.2,64.8c-4.1-6.9-8.5-13.5-13.9-19.1C39.7,40,44,33.4,48.2,26.5
	c4.1,6.9,8.5,13.5,13.9,19.1C56.6,51.3,52.2,57.9,48.2,64.8z"/>
<path fill="#D40000" d="M130.6,117.5c-4.1-6.9-8.5-13.5-13.9-19.1c5.5-5.7,9.8-12.3,13.9-19.1
	c4.1,6.9,8.5,13.5,13.9,19.1C139,104.1,134.8,110.7,130.6,117.5z"/>
<path fill="#D40000" d="M48.2,117.5c-4.1-6.9-8.5-13.5-13.9-19.1c5.5-5.7,9.8-12.3,13.9-19.1
	c4.1,6.9,8.5,13.5,13.9,19.1C56.6,104.1,52.2,110.7,48.2,117.5z"/>
<path fill="#D40000" d="M89.4,91.1c-4.1-6.9-8.5-13.5-13.9-19.1c5.5-5.7,9.8-12.3,13.9-19.1
	c4.1,6.9,8.5,13.5,13.9,19.1C97.8,77.7,93.5,84.3,89.4,91.1z"/>
<path fill="#D40000" d="M48.2,223c-4.1-6.9-8.5-13.5-13.9-19.1c5.5-5.7,9.8-12.3,13.9-19.1
	c4.1,6.9,8.5,13.5,13.9,19.1C56.6,209.5,52.2,216.1,48.2,223z"/>
<path fill="#D40000" d="M130.6,223c-4.1-6.9-8.5-13.5-13.9-19.1c5.5-5.7,9.8-12.3,13.9-19.1
	c4.1,6.9,8.5,13.5,13.9,19.1C139,209.5,134.8,216.2,130.6,223z"/>
<path fill="#D40000" d="M130.6,170.3c-4.1-6.9-8.5-13.5-13.9-19.1c5.5-5.7,9.8-12.3,13.9-19.1
	c4.1,6.9,8.5,13.5,13.9,19.1C139,156.8,134.8,163.4,130.6,170.3z"/>
<path fill="#D40000" d="M48.2,170.3c-4.1-6.9-8.5-13.5-13.9-19.1c5.5-5.7,9.8-12.3,13.9-19.1
	c4.1,6.9,8.5,13.5,13.9,19.1C56.6,156.7,52.2,163.4,48.2,170.3z"/>
<path fill="#D40000" d="M89.4,196.6c-4.1-6.9-8.5-13.5-13.9-19.1c5.5-5.7,9.8-12.3,13.9-19.1
	c4.1,6.9,8.5,13.5,13.9,19.1C97.8,183.1,93.5,189.8,89.4,196.6z"/>
<path fill="#D40000" d="M6.2,37.7V11.4h2.6v26.3H6.2z"/>
<path fill="#D40000" d="M16.3,11.4c-2.5,0-4.4,2.2-4.4,5v16.2c0,2.8,2,5,4.4,5h1.4
	c2.5,0,4.4-2.2,4.4-5V16.4c0-2.8-2-5-4.4-5H16.3z M17.1,13.9c1.5,0,2.6,1.1,2.6,2.5v16.4c0,1.4-1.2,2.5-2.6,2.5
	c-1.5,0-2.6-1.1-2.6-2.5V16.4C14.4,15.1,15.6,13.9,17.1,13.9L17.1,13.9z"/>
<path fill="#D40000" d="M172.6,211.8v26.3H170v-26.3H172.6z"/>
<path fill="#D40000" d="M162.4,238.1c2.5,0,4.4-2.3,4.4-5v-16.2c0-2.8-2-5-4.4-5H161
	c-2.5,0-4.4,2.2-4.4,5v16.2c0,2.8,2,5,4.4,5H162.4z M161.7,235.6c-1.5,0-2.6-1.1-2.6-2.5v-16.4c0-1.4,1.2-2.5,2.6-2.5
	c1.5,0,2.6,1.1,2.6,2.5v16.4C164.3,234.4,163.1,235.6,161.7,235.6L161.7,235.6z"/>
</svg>
