<?xml version="1.0" encoding="utf-8"?>
<!-- Generator: Adobe Illustrator 15.0.2, SVG Export Plug-In . SVG Version: 6.00 Build 0)  -->
<!DOCTYPE svg PUBLIC "-//W3C//DTD SVG 1.1//EN" "http://www.w3.org/Graphics/SVG/1.1/DTD/svg11.dtd">
<svg version="1.1" id="Layer_1" xmlns="http://www.w3.org/2000/svg" xmlns:xlink="http://www.w3.org/1999/xlink" x="0px" y="0px"
	 width="178.7px" height="249.6px" viewBox="0 0 178.7 249.6" enable-background="new 0 0 178.7 249.6" xml:space="preserve">
<path fill="#D40000" d="M14.1,56.2c0,0-1.8-2.6-4.2-5.6c-1.6-2-2.9-4.2-3-6.1
	c-0.1-2.1,1.2-4.3,3.5-4.4s3.3,1.6,3.7,3.1c0.4-1.4,1.3-3.2,3.7-3.1c2.3,0.1,3.6,2.2,3.5,4.4c-0.1,1.9-1.4,4-3,6.1
	C15.9,53.7,14.1,56.2,14.1,56.2z"/>
<path fill="#D40000" d="M164.6,193.3c0,0-1.8,2.6-4.2,5.6c-1.6,2-2.9,4.2-3,6.1
	c-0.1,2.1,1.2,4.3,3.5,4.4s3.3-1.6,3.7-3.1c0.4,1.4,1.3,3.2,3.7,3.1c2.3-0.1,3.6-2.3,3.5-4.4c-0.1-1.9-1.4-4-3-6.1
	C166.3,195.7,164.6,193.3,164.6,193.3z"/>
<path fill="#D40000" d="M48.1,64.8c0,0-3.7-6.1-8.8-13.3c-3.4-4.8-6.1-10-6.3-14.5
	c-0.3-5.1,2.4-10.3,7.4-10.5c4.9-0.2,6.9,4,7.7,7.4c0.8-3.5,2.8-7.7,7.7-7.4c4.9,0.2,7.6,5.4,7.4,10.5c-0.3,4.5-2.9,9.7-6.3,14.5
	C51.9,58.7,48.1,64.8,48.1,64.8z"/>
<path fill="#D40000" d="M130.6,64.8c0,0-3.7-6.1-8.8-13.3c-3.4-4.8-6.1-10-6.3-14.5
	c-0.3-5.1,2.4-10.3,7.4-10.5c4.9-0.2,6.9,4,7.7,7.4c0.8-3.5,2.8-7.7,7.7-7.4c4.9,0.2,7.6,5.4,7.4,10.5c-0.3,4.5-2.9,9.7-6.3,14.5
	C134.3,58.7,130.6,64.8,130.6,64.8z"/>
<path fill="#D40000" d="M130.6,184.7c0,0-3.7,6.1-8.8,13.3c-3.4,4.8-6.1,10-6.3,14.5
	c-0.3,5.1,2.4,10.3,7.4,10.5c4.9,0.2,6.9-4,7.7-7.4c0.8,3.5,2.8,7.7,7.7,7.4c4.9-0.2,7.6-5.4,7.4-10.5c-0.3-4.5-2.9-9.7-6.3-14.5
	C134.3,190.8,130.6,184.7,130.6,184.7z"/>
<path fill="#D40000" d="M48.1,184.7c0,0-3.7,6.1-8.8,13.3c-3.4,4.8-6.1,10-6.3,14.5
	c-0.3,5.1,2.4,10.3,7.4,10.5c4.9,0.2,6.9-4,7.7-7.4c0.8,3.5,2.8,7.7,7.7,7.4c4.9-0.2,7.6-5.4,7.4-10.5c-0.3-4.5-2.9-9.7-6.3-14.5
	C51.9,190.8,48.1,184.7,48.1,184.7z"/>
<path fill="#D40000" d="M14.3,37.8v-2.3h2.1v-3.8H6V29l11.3-17.4h1.9V29h3.2v2.7h-3.2l-0.1,3.8
	h1.8v2.3H14.3L14.3,37.8z M16.4,17.8L9.3,28.9h7.2V17.8z"/>
<path fill="#D40000" d="M164.4,211.7v2.3h-2.1v3.8h10.5v2.7l-11.3,17.4h-1.9v-17.4h-3.2v-2.7h3.2
	l0.1-3.8h-1.8v-2.3H164.4L164.4,211.7z M162.3,231.6l7.2-11.1h-7.2V231.6z"/>
</svg>
