<?xml version="1.0" encoding="utf-8"?>
<!-- Generator: Adobe Illustrator 15.0.2, SVG Export Plug-In . SVG Version: 6.00 Build 0)  -->
<!DOCTYPE svg PUBLIC "-//W3C//DTD SVG 1.1//EN" "http://www.w3.org/Graphics/SVG/1.1/DTD/svg11.dtd">
<svg version="1.1" id="Layer_1" xmlns="http://www.w3.org/2000/svg" xmlns:xlink="http://www.w3.org/1999/xlink" x="0px" y="0px"
	 width="178.8px" height="249.6px" viewBox="0 0 178.8 249.6" enable-background="new 0 0 178.8 249.6" xml:space="preserve">
<path fill="#D40000" d="M14.2,56.3c0,0-1.8-2.5-4.2-5.5
	c-1.6-2-2.9-4.2-3-6c-0.1-2.1,1.2-4.3,3.5-4.4c2.3-0.1,3.3,1.6,3.7,3.1c0.4-1.4,1.3-3.2,3.7-3.1c2.3,0.1,3.6,2.2,3.5,4.4
	c-0.1,1.9-1.4,4-3,6C16,53.7,14.2,56.3,14.2,56.3L14.2,56.3z"/>
<path fill="#D40000" d="M164.6,193.3c0,0-1.8,2.5-4.2,5.5
	c-1.6,2-2.9,4.2-3,6c-0.1,2.1,1.2,4.3,3.5,4.4c2.3,0.1,3.3-1.6,3.7-3.1c0.4,1.4,1.3,3.2,3.7,3.1c2.3-0.1,3.6-2.2,3.5-4.4
	c-0.1-1.9-1.4-4-3-6C166.4,195.9,164.6,193.3,164.6,193.3z"/>
<path fill="#D40000" d="M14.1,11.5v2.8h2.7c0,0,0.1,2.7,0.1,8.3c0,5.5,0.1,8.2-0.2,9.7
	c-0.9,3.6-6.1,3.6-7.2,1c-0.6-1.5-0.4-2.7-0.5-4.2H6.1c0,0,0,0.8,0,1.7c0,4,1.4,6,4.5,6.7c3.2,0.9,7-0.5,8.3-3.2
	c0.8-1.6,0.7-1.7,0.7-11.1c0-6.3,0.1-8.9,0.1-8.9h2.5v-2.8H14.1L14.1,11.5z"/>
<path fill="#D40000" d="M164.7,238.1v-2.8H162c0,0-0.1-2.7-0.1-8.3c0-5.5-0.1-8.2,0.2-9.7
	c0.9-3.6,6.1-3.6,7.2-1c0.6,1.5,0.4,2.7,0.5,4.2h2.9c0,0,0-0.8,0-1.7c0-4-1.4-6-4.5-6.7c-3.2-0.9-7,0.5-8.3,3.2
	c-0.8,1.6-0.7,1.7-0.7,11.1c0,6.3-0.1,8.9-0.1,8.9h-2.5v2.8H164.7L164.7,238.1z"/>
<g id="g3884-5-1-3" transform="matrix(0.99998259,0.0059011,-0.0059011,0.99998259,1.5988528,-2.1391077)">
	<g id="g3000-2-1-2">
		<g id="path2993-7-5-1">

				<path fill="#E2CF00" d="
				M151.6,30.7l-9.1,6.1l-0.1,7c-5.4-2.6-7.8-6.9-8.7-11.9c-1.5,2-1.2,11.8-1.2,11.8c-1.4,0.7-1.9,1.7-2.8,2.6
				c0.9,1.4,3.4,3.9,3.4,3.9c0,0-1.1,10.2,0.3,10.6c1.2-4.4,2.8-8.2,8.9-12.3c0,0,0.2,16.3-0.1,32.1c-2.6-1.8-8-4.9-11.6-8.2
				c4.5-5.9-0.2-13.6-6.9-8.4c-4.4-2.4-5.2-13.6-6.3-19.6c-0.2-1.2-1.3-4.7-1.3-4.7s-14.5-3.9-20.7-3.6c5.3,13.6,4.4,30.3-18.7,33.6
				c-11.1,5.2-23.9,10.9-36.2,21.6c-2.2,15.8-10.3,23.6-16,27.9c0.1,6.4,0,12.7,0.3,19.2c0,0,5.2-3.5,6-2.8
				c4.5,28.5,20.6,34,19,34.8c-0.3,0.1-5.2,5.3-5.2,5.3L24.9,163c-0.6,19.7,0,39.8,0.4,59.6c3.4-2,9.7-6.7,9.7-6.7l0.1-6.7
				c0-0.6,8.9,5.5,9,13c0.7,0.5,2.2-10.7,0.8-11.9l3.6-3.8l-4-3.8c0,0,1-6.3-1.1-9.9c-1.3,8.3-8.1,11-8.1,11s-0.3-30.4-0.5-30.5
				l12.3,7.7c-6.6,9.1,5.1,12,6.5,7.6c7.6,7,4.7,15.5,8.1,25.5l21.5,3.8c-8.9-16.4,0.5-35.2,17.9-34c3.2-1.4,6.2-3.4,6.2-3.4
				s-2.2-3.5-4.9-6.8l-37.2-0.4l17.1-32.7l-11.4-0.3c0,0,9.1-19.7,7.1-21.3c-0.7-0.6-0.4-6.9-0.4-6.9l10.2,0.3
				c0.4-4.6-5-21.8-12.6-33.1l41.7,0.1l-23.3,33l12.6,0.3l-7.4,15.6l1.3,12.1l-11.2,0.4c2,16.8,14.6,34.4,19,39.8
				c7.2-1.8,20.6-12.2,29-18.7c1-11.3,4.8-20.9,14.9-28.1l-0.1-18.5c0,0-5.7,3.8-5.8,3.5c0-4-2.1-12.3-6-19.8
				c-4.2-8-11-15.2-12.6-15.6c3.5-5.5,5.1-6,5-6l19.6,12.4L151.6,30.7z M53.4,70.8c0,0-3.8,1.5-7.1,1.4c-5.9,0.3-10.4,0.9-12.8,5.7
				c-0.5,1.5,0.6,2,1.4,2.4C39.3,74.8,51.2,82.1,53.4,70.8z M27.3,96.5c0,0.8,0.9,2.1,1.3,0.7c0.4-0.9,0.4-2.5,0-3.4
				C27.5,93.1,27.3,95.7,27.3,96.5z M91.5,122.9l-5.8,0.1l0,6.8l5.8,0L91.5,122.9z M148.4,156.4c-0.1,0.7-0.7,3.7,0.7,3.2
				C150.8,158.3,149.3,152.4,148.4,156.4z M143.1,173.5c-0.7-1-2.8,1.5-4.5,1.6c-7.7,0.5-13.4-0.5-14.3,7.5
				c4.4-2.9,10.6-1.6,14.6-2.6C141.8,179.1,145.1,176.5,143.1,173.5z"/>
		</g>
		<g id="path3504-0-2-5">

				<path fill="#131F67" d="
				M23.9,232.1L22.6,21.5l130.6-0.8l1.2,210.5L23.9,232.1z M29,95.6c0.1-2-0.7-2.9-1.5-1.5c-0.2,0.3-0.7,3.9,0.6,4
				C29.1,98.2,29,96.5,29,95.6z M26.9,98c0-0.5-0.3-0.7,0.3-4.8c-1.2-0.5-2.3-2.5-1.4-3.8c0.4-0.5,0.2-0.6,0.1-1
				c-0.4-1-0.2-1.9,0.8-2.5c0.6-0.4,0.6-0.5,0.4-1.1c-0.5-1.4,0-2.8,1.3-3.3c0.9-0.3,0.8-0.4,0.8-1c0.2-1.3,1-2.2,2.3-2
				c1.2,0.1,1.3,0.1,1.4-0.5c0.3-1.7,2.3-3.6,5-4.8c1.3-0.6,3.5-1.1,7.7-1.1c2.4-0.1,5.4-0.4,7.1-1.9c0.3-0.3,0.7-0.9,0.8-0.9
				c0.3,0.2,0.2,1.9-0.4,3.5c-1.8,4.5-4.2,5.7-11.1,5.7c-2.1-0.1-5.1,0.2-6.3,1.5c-0.4,0.4-0.6,0.8-0.5,1c2.9,0.4,5.8,1.7,7.5,7.3
				c5.2-3.7,13.4-9.4,23.5-14.5c-1.3-6.7,4.6-7.8,7.8-6.5c0,0,0.1-0.4,0-0.9c-0.1-0.5-0.3-1.1-0.9-2c-0.2-0.3-1.1-0.9-0.9-1.3
				c0.3-0.8,0.2-1-0.5-1.6c-0.4-0.4-0.1-1.4,0-1.8c0.1-0.7,0.6-1.8,0.2-2.2c-0.6-0.6-2.9-1.6-4-2.4c-1.3-0.9-1.3-1.7,0.5-4.8
				c0.8-1.8,1.6-3.6,2.3-4.9c1-1.9,1.1-3.2,0.5-4.3c-0.8-1.4-0.7-3.1-0.7-3.1c0,0-7.6-10.6-10.8-14.8l-35.5,0.2l0.5,80.7l6.1-5.9
				l-1.7-2c-0.2,1.1,0,2.2-1.4,2.3C27.5,98.6,27,98.4,26.9,98z M48.6,205.9c0.2-3.2-1.4-8.4-3.7-12.1c0.1,2.8,0.3,6.1-0.2,8.8
				L48.6,205.9z M104.4,213.9c-0.3-0.1-2.6-0.2-4.1-0.3c-4.8-0.2-8-2.5-10.1-5.7c-0.5-0.8-0.3-0.8,0.8,0.1c3.2,2.5,6.2,4,8.9,3.6
				c3.7-0.6,5.8,0.8,5.2,2.4C105.1,214.3,105.1,214.1,104.4,213.9z M91.7,206.8c-0.8-0.6-0.8-0.9,0.1-0.4c2.7,1.8,6,4.7,10,3
				c0.8-0.5,0.1-0.5-1.3-0.3c-2.1,0.2-4.8-0.8-8-3c-1.6-1.1-0.9-2,0.9-1.2c0.5,0.3,1.1,0.4,1.5,0.5c1.7-1.2,5.4-1.2,5.3-1.2
				c0.4-0.4-1-0.9-3-1.7c-1.3-0.5-1.7-0.7-0.7-0.7c0.9,0,2.2,0.4,3.2,1c1.6,1,2.5,1.6,2.9,1.7c0.8,0.1,1.6,0.2,0.2,0.8
				c-0.6,0.3-0.6,0.4-0.5,1.1c0.1,1.1,0.2,1.1,0.7,1.7c0.8,0.9,1.2,2.7,0,1.6c-0.3-0.1-0.3,0.1-1,0.4
				C97.9,211.3,94.8,209.5,91.7,206.8z M99.4,207.1c0.2-0.3,0.6-1.1,0.6-1.3c-0.1-0.5-0.5-0.4-0.8-0.1c-0.4,0.5-0.9,1.2-0.5,1.4
				C99,207.3,99.2,207.4,99.4,207.1z M98,206.8l0.9-1.7c-0.2-0.1-3.4,0.6-2.9,1C96.5,206.5,98,206.8,98,206.8z M101.5,201.2
				c-1.4-0.8-1.9-2.4-0.8-3.5c0.9-0.9,2.4-0.9,4.3,0.3c0.6,0.4,1,0.6,1.5,0.4c0.7-0.3,1,0.1,1,0.7c-0.1,1.3-2.1,1.6-3.4,0.2
				c-1.7-1.9-3.5-0.6-2.9,0.8c0.3,0.7,0.8,0.8,1.4,1.1C102.5,201.2,101.9,201.4,101.5,201.2z M94.9,192.6c2.4-0.6,5.9,1.8,7.9,1.5
				c0.8-0.2,0.7,1-0.1,1.5c-1,0.5-2.5,0.2-5.5-1.4c-2.5-1.3-4.5,0.9-2.9,2.6c0.4,0.3,0.9,0.5,1.5,0.5c0.8,0,1.1,0.2,0,0.5
				c-0.6,0.2-1.8-0.1-2.4-0.7C92.1,195.7,92.4,193.1,94.9,192.6z M44.5,185.5c-0.1-2.8,1.4-4.4,1.5-4.4l-10.8-7.2l0.3,29.1
				c5.3-3.4,7-7.7,7.3-13.2c10.5,11.7,7.4,26,0.9,34.2c-0.3-5-1.8-10.9-7.9-13.9l0,6l-10.1,7.2l0,7l23.8-0.1l11.3-17.1
				c-2.1-7.6-1.8-13.9-3.3-17.3c-1.1-2.8-3.1-6.5-4.4-5.9C48.9,193.2,44.6,189.2,44.5,185.5z M53.5,188.8c3.7,2.7,4.7,7,5.5,10.9
				c0,0,2,13.2,2.1,13.4c0.2,0.7,0.2,1.4-0.5,2c-3.4,4.7-10,14.9-10,14.9l65.6,0c-3.5-5.1-6.3-10.1-9.6-14.3c0.1-0.2-0.3-3.1-0.8-4
				c-0.6-0.9-0.7-1.5-0.3-2.3c0.9-2.2,1.9-4.5,2.8-6.5c1.7-3.8,1.9-3.8-0.5-5c-2.8-1.6-3.3-2.1-2.7-3.9c0.2-0.7,0.2-0.9-0.6-1.1
				c-0.4-0.1-1.4-0.3-2-0.5c-1.9-0.6-1.3-0.2-2,0.3c-0.5,0.3-1-0.7-1.6-1.9c-0.7-1.3-0.9-1.4,0.3-0.7c2.1,1.3,5.9,0.7,4.6-0.7
				c-0.6-0.7-1.3-1.1-1.2-2.7c0.1-1.6,0.1-2.1-1-2.3c-2.2-0.4-4.6-0.2-6.6,0.3c-6.2,1.6-11.1,7-13,11c-0.4,0.7,0.6,0.7,1,0.7
				c2-0.2,3.5,3,2.2,4.5c-0.6,0.7-1.2,0.3-0.6-0.6c0.7-1.4-0.4-3.2-2-2.8c-2.1,0.6-2.1,3.3-2.3,5.1c-0.7,5.4,2.1,12.5,2.8,14
				c0,0,0.2,0.2,0.1,0.2c0,0-0.4,0.3-0.5,0.2c-0.5-0.5-1.7-4.9-2.4-8c-1.3-8.7,0.9-16.6,8-21.2c6.3-4.6,9.5-3.7,13.1-3.9
				c1.2-0.4,2.9-1.1,4.2-1.8c11.3-6,21.6-11.9,31-19.6c6.9-5.3,10.2-9.6,16.1-15l-0.8-30c0,0-0.6-0.5-0.6-1c0.4-2-3.1,1.4-5.4,2.5
				c-1.5-13.8-9-27.3-18-35.1l0.4-0.5c0,0,3,2,4.5,2.9l0-1.9l-3.6-2.3c-0.2-0.7-0.1-0.8,0.7-0.8l2.9,2.1l0-1.7l-2.4-1.5l0.7-1
				l1.3,0.8c-0.5-1.4,0.2-1.3,1-0.4c0.3,0.4,0.7,1,0.9,1.5c0.1,0.2,0.3,0.7,0.3,0.7l2.1,1.5c0,0-0.1-0.7,0-1
				c0.3-1.1,2.8,2.4,2.5,2.5l2.1,1.5c0.5-0.8,2.4,0.7,2.5,1.5c0.2,0.3,7.3,4.9,7.3,4.9l0.1-2.5l0.8-1l0-58.4l-9.4,6.1l-0.1,7.1
				c-4.5-1.4-8.3-7.9-8.9-11.9c-0.3-0.2-1.5,8-0.8,11.5c-1.2,0.9-3.1,3-3.1,3l3.6,3.9c0,0-0.7,6-0.5,9c0.2,1.4,0.2,1.6,0.6,1.6
				c0.3,0,0.6-0.4,0.6-0.7c0.8-3.6,3.5-9.2,8.3-11.1c0.3,0,0.2,31.8,0.2,31.8l-11.9-8c-0.6-0.5,0.8-0.5,1.6-3.2
				c2.1-7-5.4-9.4-8.2-5.3c-0.5,0-2.5-2.4-2.8-3.5c-2.2-4.4-2.7-9.4-3.1-13.4c-0.3-1.8-1-4.8-1.5-6.6c-0.3-1-0.3-1.7,0.3-2.6
				c2.7-5.7,8-9.6,10-15.4L60.9,23c4.2,3.4,7.9,13,11.7,14.2c-1.8,0.2-1.2,1.8-0.5,3.5c0.9,2.1,0.8,2.5-1.4,6.9
				c-3.2,6.4-3.4,5.8-0.1,7.8c2,1.3,2.4,1.5,2.1,3.3c-0.3,1.7-0.4,1.2,1.3,1.3c0.9,0.1,1.6,0.2,2,0.4c0.4,0.2,0.8,0.5,1.4,0.3
				c1-0.3,1-0.1,1,0.6c0,0.3,0.5,0.9,0.6,1.2c0.4,0.6,0.2,0.7-0.5,0.3c-2.1-1.3-5.7-0.7-4.4,0.7c0.5,0.6,1.1,2.6,1.1,3.6
				c0.1,1.8,1.3,2.4,3.6,2c4.6-0.4,15-6.2,17.4-12.7c-5.3,1.9-4.3-4.7-2.4-4.5c0,0-0.5,1.2-0.5,1.8c0,2.4,1.9,2.5,3.3,0.9
				c0.6-0.9,1.3-4.1,0.9-7.8c-0.4-4.4-2.3-9.4-2.6-10.6c7.7,18.2,0.8,26.3-9.9,31.6c-4.1,1.7-4.7,1.7-7.1,1.9
				c-1.7,0.1-3.1,1-4.7,1.5c-9.1,4.5-20.4,10-30.5,18.2c-7.2,5.4-12.9,10.3-18.6,16.5l0.2,32.2c1.7-0.3,4.5-2,6.1-3
				c2,12,8.2,26,18.5,34.2c0,0-0.2,0.5-0.2,0.4c-1.5-1-2.9-1.9-4.3-2.7l-0.1,1.5l3.5,2.4c0.1,0.4-0.6,0.9-0.6,0.9l-2.9-2l0,1.6
				l2.2,1.4c0.6,0.6-0.7,0.9-0.7,0.9l-1.3-0.9c0,0,0.1,0.8,0.1,0.9c-0.3,1.2-2.2-1.4-2.6-2.6l-1.9-1.1c0.3,0.7-0.4,0.9-0.9,0.7
				c-1.4-0.7-1.3-1.9-1.6-2.6l-2.5-1.5c-0.4,2.4-2.9-0.9-2.5-1.7l-3.2-2.1c0.2,0.1-1.2,0.4-1.7,0.1c-0.5-0.4-0.7-1.8-0.7-1.8
				l-1.9-1.2l0,2.1l19.6,13.5l-0.3,0.5L24,162.3l1.2,60.6l9.9-6.9c-0.2-2.3,0.2-4.3,0-6.9c5.1,3.2,6.8,5.3,9.1,12
				c1.4-3.8,1.2-7.5,0.5-10.8c1.3-1.1,2.6-2.1,3.2-3.7c-1.2-1.7-2.4-2.2-3.7-3.7c-0.1-1.9,1-7.6-0.5-9.5c0,0-2.7,8.3-8.6,10.8
				c-0.2-8.7-0.2-30.7-0.2-30.7s6.1,4.2,9.2,5.8c1.5,0.8,2.5,1.3,2.5,1.8c0,0.3-0.6,0.6-0.8,1c-0.2,0.2-0.8,2.6-0.5,4.5
				c0.1,1.4,0.8,2.2,1.4,2.9C48.5,191.4,52.1,190.5,53.5,188.8L53.5,188.8z M65.1,173.3l23.1-32.9c2.8,12,7.6,23,13.8,33L65.1,173.3
				z M76.5,138.9c0,0,1.6-3.2,2.3-5l-2.9,0l1.7-1.9l4.3,0l-2.3,4.9l1.8,0l2.5-4.9l6.6,0l-2.3,4.9l1.5,0l2.5-4.9l6.2,0l-2.1,4.9
				l1.4,0l1.3-2.5l0.3,4.5l-6.1,0l2.4-5l-2,0l-2.7,5l-5.7,0l2.5-5l-2.2,0l-2.7,5L76.5,138.9z M95.2,121.3l2.4-5.2l-2,0l-2.7,5.1
				l-6.1,0l2.4-5.1l-1.5,0c-1,1.6-2.7,4.9-2.7,4.9l-6.5,0c0,0,1.8-3.5,2.5-5.1l-1.6,0l-1.3,2.1c-0.5-0.8-0.2-2.8-0.3-3.7l6.1,0
				l-2.4,5l1.9,0l2.7-5l6.4,0l-2.6,5l1.5,0l2.6-4.8l6.6,0l-2.3,4.8l2,0l-0.9,2.1L95.2,121.3z M89.2,112.2l-1.2,0.2
				c-1.7-13.6-9.2-27.4-12.4-33.1l37.3,0.3L89.2,112.2z M132.5,33.6c0,0-3.5,4.6-3.7,12.3l3.4-2.7C131.8,35.4,132.5,33.6,132.5,33.6
				z M128.8,46.5c0,5.7,1.5,9.4,3.4,12.2c0-3.7,0.4-7.4,0.6-8.4L128.8,46.5z M37.2,156.5l-12.1-8.2l0,1.8l14.4,9.7L37.2,156.5z
				 M35,152c-3.2-1.6-9.9-6.6-9.9-6.6l0,1.7l10.6,7.4c0.2,0.2,0.5,0.2,0.6-0.1C35.9,153.7,35.3,152.7,35,152z M32,144.8l-7-4.8
				l0,1.5c1.8,1.6,7.7,5.3,7.7,5.3L32,144.8z M25,138.9l6.5,4.2l-0.4-1.9l-4.6-3.1L25,138.9z M141.7,79.7l0.2-30.1
				c-6.8,3.3-8.1,12.7-7.8,12.9c-6.8-6.9-9.4-22,0-32.2c0.7,3.2,1,8,7.7,12.2l0.1-6.4l9.3-6.1l0-7.5l-22.6,0.1
				c-3.5,4.5-6.9,9.6-10.4,14.4c-1.3,1.8-1.6,2.6-1.4,3.5c2.3,8.2,1.9,18.3,6.7,23c6.4-6.1,12.4,3,7.5,8.6L141.7,79.7z M45.1,210.4
				c0.9,2.7,0.3,8.3,0.3,8.3c1-0.6,3.8-8.6,3.1-11.6 M80.2,59.9c-1.6-0.4-2.8-1.1-4.5-1c-1.3,0.1-1.8-0.3-1-1c1-0.9,2.1-1.3,4-0.3
				c5.9,3,6.1-1.5,3.4-1.8c-0.8-0.1-0.7-0.6,0-0.4C86.3,55.6,85.1,61.1,80.2,59.9z M73.3,55.4c-0.8-0.3-1.7-0.8-2.1-0.6
				c-0.9,0.2-0.9-0.2-0.8-0.8c0.2-1.4,1.7-1.1,3.5,0c2.7,1.7,3.7-0.8,1.3-2.1c-0.8-0.4-0.6-0.6-0.1-0.6c1.3-0.1,2.5,1.7,2.1,3.1
				C76.4,56.7,74.3,55.8,73.3,55.4z M81.1,51.2c-1.7-0.3-4.2-2.6-5.4-2.8c-0.6-0.1-1.4,0-1.6-0.2c-0.6-0.8,1.2-0.8,1.3-1.1
				c0-0.7,0-1.1,0-1.3c-0.3-0.4-1.6-2.2-1.5-3c0,0,0.7,0.5,1,0.5c3.1-1.6,5.2-0.9,7.8,0.2c1.1,0.5,3.9,2.6,3.9,2.9
				c0.1,0.6-1.2-0.5-2.1-1.1c-2.4-1.6-4.5-2.8-7.5-1.8c-0.5,0.2-0.4,0.2,1.1,0.1c1.5-0.1,2.7,0.4,4.6,1.6c0.5,0.3,1,0.8,1.4,1
				c2.4,1.1,2.9,2.3,1.4,2c-0.3-0.1-1-0.4-1.6-0.6c-1.1-0.4-0.7-0.3-1.8,0.2c-0.4,0.2-1.3,0.5-2,0.6c-0.6,0.1-2.4,0.1-1.6,0.9
				c0.9,0.9,2.3,1.5,3.3,1.9C82.4,51.4,81.9,51.4,81.1,51.2z M81.3,47.5c1.1-0.4,0.2-1.4-1.2-1.6c-0.3,0-1,1.5-1,1.8
				C79,48,80.6,47.7,81.3,47.5z M78.2,47.7c0.3-0.2,1.1-1.4,1.1-1.6c0-0.8-1-0.6-1.2,0.3C77.7,47.3,77.7,48,78.2,47.7z M74.5,41.2
				c-0.9-0.4-2.2-2.2-0.8-1.9c0.3,0.1,1.9,0.1,3,0.1c3.5,0,7.1,1.6,9.3,3.9c1.2,1.3,1.3,2.3,0.1,1.4C81.6,40.8,78.9,41.5,74.5,41.2z
				 M110.3,180.2l-1.2,0.7c0,0.7,0.3,0.6,0.8,1.1c0,0-0.8,0.1-1.3,0.1c-0.9-0.1-1.1,0-0.7,0.6c0.2,0.3,0.4,0.7,0.4,0.7
				s-0.5,0.1-1.2-0.1c-1.1-0.3-1.7-0.1-1.3,0.5c0.1,0.2,0.4,0.5,0.4,0.5c-0.8-0.2-2.3-0.9-2.3-0.9l-1.1,0.3
				C104.8,187.9,112.4,185.2,110.3,180.2z M147.2,174c1.2-1,0.6-2.2-1.1-3.1c-0.7-0.4-0.6-0.4-1.8,0.3c-1.4,0.9-1.5,0.9-0.5,2
				C145,174.5,146.4,174.7,147.2,174z M142.9,171.2c1.1-0.5,0.7-0.4,0.6-1.5c-0.3-1.3,0.4-1.4,0.8-2.6c0.1-0.7-0.4-0.4-1.5,0.6
				c-0.9,0.8-1.2,0.9-1.2,0.6c0.1-0.3-0.6-1.1-1.3-1.2c-0.5-0.1-0.5-0.2,0-0.9c0.9-1.2,1.3-2.7,0.7-4c-0.8-1.7-1-1.9-2.8-0.4
				c-0.9,0.8-2.1,1.5-2.7,2.5c-0.4,0.7-0.2,1.5,0.5,2.9C137.8,170.7,140.4,172.4,142.9,171.2z M148.9,171.2c1.9-0.8,1.1-2.8-1.9-4.9
				c-1.8-1.2-2.3-1.2-0.8,0.1c1,0.9,1.1,1.2,0.7,1.8c-0.3,0.5-0.7,1.1-0.4,1.6C147.2,170.6,148.1,171.6,148.9,171.2z M41.9,168.4
				l-2.1-1.3l0,1.8l2.1,1.2L41.9,168.4z M145.5,169.5c0.4-0.3,0.8-1.1,0.8-1.5c0.1-0.8-1.3-0.6-1.9,0.3
				C143.6,169.3,144.4,170.2,145.5,169.5z M150.1,166.6c0.9-1,0.5-2.1-1.5-3.3c-0.8-0.5-1.1-0.8-1,0.2c0,0.3-0.3,0.7-0.5,0.9
				c-0.7,0.8-0.4,0.9,1.6,2.1C149.6,167.1,149.5,167.2,150.1,166.6z M41.8,165.3l-2.1-1.2l0,1.6l2.1,1.4L41.8,165.3z M37.3,167
				l0-1.6l-2.7-1.8l0,1.8L37.3,167z M142.9,165.7c-0.3,0.9,1,0.5,1.1,0.4c0.2-0.5,0-0.5-0.1-0.6
				C143.7,165.4,142.8,165.6,142.9,165.7z M143.5,164.5c0.5-0.2,0.5-0.1,0.5-1c-0.1-1.3,0.1-1.4,0.9-2c0.7-0.5,0.7-0.4,0.7-1.2
				c0-1,0-1.4,1.3-1.6c0.5-0.1,0.8-0.2,0.8-0.6c0.1-0.7-1-1.8-2.4-2.5c-0.2,0-3.3,2.7-4.1,3.6l-0.5,0.6l0.6,1.2
				c1,1.8,0.8,2.5,0.3,4.9c-0.1,0.7,0.4,0.6,0.5-0.2C142.3,165,142.4,164.7,143.5,164.5z M148.1,158c-0.2,1.5,0.5,2.4,1.2,1.6
				c0.4-0.4,0.7-3.7,0.4-4.2C148.3,153.9,148.2,157.6,148.1,158z M124.5,182.6c5.5-3.3,12.6-0.7,16.5-3.3c1.9-2.1,3.7-3.4,2.6-4.8
				c-0.8-1.1-1.4-1.3-1.4-1.3c0.1,0.1-2.9,2.6-7.2,2C127.9,175.1,124.6,177.3,124.5,182.6z M133.8,174.9c3.5,0.1,6.4-0.5,7.6-1.5
				c0.8-0.6,0.9-0.7-0.3-0.9c-2.7-0.2-5.5-3.4-6.4-6.4c-0.2-0.6-0.4-1.3-0.4-1.3c-7.2,5.8-23.1,15.1-23.1,15.1
				c1.1,4.9-2.5,7.9-7.3,6.2c-0.8-0.1-0.7,1-0.6,1.5c0.3,0.7,0.8,1.3,1,1.4c0.7,0.6,0.9,1,0.8,1.6c-0.1,0.6-0.1,0.6,0.3,0.8
				c0.7,0.4,0.7,0.9,0.3,2.1c-0.4,1.6-0.4,2,0.7,2.8c1.5,0.9,4.4,2,4,3.4c-1,3.3-2.5,6.1-3.9,9.2c-0.5,0.9-0.4,2.2,0,2.9
				c0.5,1,0.5,2.2,1.1,3.1c3.7,5.4,6.9,10.1,10.2,15l34.5-0.2l-0.5-80.4c0,0-5.8,5.4-5.8,5.7c0,0.4,1.3,1.1,1.8,1.2
				c0-0.2,0-1.2,0.1-1.5c0-0.5,1.6-0.4,2.1,0c0.4,0.3,0.3,2.2-0.1,3.8c-0.3,1.3-0.2,1.3,0.3,2c0.7,0.9,0.9,1.7,0.8,2.7
				c0,0.6,0,1,0.1,1.4c0.4,0.9,0.3,2.1-0.1,2.7c-0.6,0.8-0.6,1-0.5,1.4c0.5,1.5,0.3,2.8-1.4,3.5c-0.2,0.1-0.5,0.5-0.6,0.8
				c-0.7,2.5-2.1,2.5-4,1.8c-1.3,5.3-6.8,6.7-10.8,6.5c-4.1-0.1-8.3,0.2-10.2,2.9C124.1,177.8,126.9,174.7,133.8,174.9L133.8,174.9z
				 M146.2,164.1c0.7-0.3,0.8-1,0.2-1.5c-0.9-0.7-1.9,0-1.5,1.1C145.1,164.3,145.5,164.4,146.2,164.1z M37.4,162.4l-2.8-1.9l0,1.7
				l2.7,1.7L37.4,162.4z M42.6,163.8l-2-2.3c-5.8-3.5-10.8-7.4-15.6-10.5l0,2.2l1.4,0.7c0,0,0.1-0.5,0.2-0.8
				c0.2-0.5,1.8,0.9,2.3,2.1c0.1,0.3,0.4,0.9,0.4,0.9l1.9,1c0,0,0-0.5,0-0.7c0-1.1,2,0.4,2.9,2.2c0.2,0.4,0.5,0.9,0.5,0.9l1.7,1.1
				c0.7-0.9,2.4,0.3,2.9,1.5c0.6,1.4,1.6,1.6,1.6,1.6L42.6,163.8z M32.2,163.6l0-1.7l-2.9-1.9l0,1.7L32.2,163.6z M150.4,163
				c0.1-0.4-0.4-2.1-1-2.2c-0.4-0.1-1,0.6-1,1C148.3,162.3,150.3,163.5,150.4,163z M148.1,161c0.6-0.7-0.2-1.6-1.1-1.3
				c-1.1,0.4-0.7,1.4,0.5,1.4C147.7,161.1,147.9,161.1,148.1,161z M32.1,160.4l0-1.6l-2.7-1.7l0,1.5L32.1,160.4z M26.8,159.9l0-1.5
				l-1.7-1.2l0,1.8L26.8,159.9z M26.9,155.3l-1.8-1.2l0,1.7l1.9,1.1L26.9,155.3z M34.1,150.3c-0.2-0.5-0.9-2-0.9-2l-8.1-5.6l0,1.7
				l9.1,6L34.1,150.3z M30.2,136.9l-0.1-0.7l-0.7,0.4L30.2,136.9z M28.5,137l-1.1,0.6l3.4,2.2l-0.3-1.6L28.5,137z M146.8,117.6
				l0.9-0.6l-1.6-1.1L146,117L146.8,117.6z M148.4,116.6l1.2-1l-3.9-2.7l0.3,1.7L148.4,116.6z M151.1,115.1l0-1.2l-6.3-4.2l0.4,2.1
				c1.1,0.6,2.5,1.6,3.9,2.6C150,115.1,150,115.3,151.1,115.1z M151.1,113l0-1.9l-7.3-4.8l0.6,2.2L151.1,113z M151.1,110.2l0-1.9
				l-8.8-5.8l1,2.6L151.1,110.2z M151,105.3l-11.1-7.4l1.4,2.8l9.7,6.4L151,105.3z M151,102.5l-13.9-9.2l1.6,2.6l12.4,8.3L151,102.5
				z M151,99.5l-0.5,0c0,1.3-1.5,0.4-2-1.1c-0.4-1-0.5-1.2-0.5-1.2l-2.8-1.9c0.1,0.4,0.2,1.5,0.2,1.5l-1.9-1.1c0,0-0.6-1.8-0.6-1.8
				l-3.2-2.2c0.1,0.4,0.1,1-0.1,1c0,0-1-0.4-1.4-1.1c-0.5-0.7-0.5-1.4-0.5-1.4l-2.6-1.7l-0.6,0.1c0,0-0.4-0.2-0.7-0.5
				c-0.6-1.1-1.4-1.3-2.2-1.7c0,0,1.9,2.2,2.9,3.4c0.9,1.2,2,2,2,2l14.7,9.7L151,99.5z M151,96.4l-1.1-0.7l0.1,1.8l1,0.7L151,96.4z
				 M36.6,93.2c0.1-0.1-0.2-0.2-0.5-0.9c-0.8-1.7-0.9-2.3-0.5-4.2c0.2-0.9-0.6-1.2-1-0.3c-0.3,0.7-0.7,1.1-1.1,1.1
				c-0.4,0-0.5,0.1-0.3,0.7c0.2,0.8-0.2,1.7-0.9,2c-0.6,0.2-0.8,0.6-0.6,1.2c0.3,1-0.7,1.8-1.6,1.8c-1.3-0.1-0.8,1.1,0.8,2.2
				c0.6,0.4,0.8,0.6,1.3,0.4C33.4,96,35.6,94.4,36.6,93.2z M147.8,96.1l-0.1-1.7l-3.2-2.2l0.4,2.3L147.8,96.1z M151,95.4l0-1.7
				l-1.3-0.9l0.1,1.8L151,95.4z M29.6,93.4c0.3,0.3,0.6,0.3,1.1,0c0.6-0.3,0.3-0.7-0.2-1C30,92.1,29.2,93,29.6,93.4z M28.7,92.7
				c0-0.4,0.4-0.9,0.7-0.9c0.7,0,0.5-0.4-0.2-0.9c-0.4-0.2-1-0.7-1.2-0.9c-1.1-0.8-2.2,0.5-1.4,1.5C27.3,92.5,28.3,93,28.7,92.7z
				 M147.5,93l-0.3-1.9l-2.9-1.9l0.2,2.1L147.5,93z M41.7,89c0.2-0.3,0.2-0.5,0.2-0.8c-0.1-1.2-0.7-2.6-1.6-3.8
				c-0.6-0.9-1.4-1.6-2.2-2c-2.2-1.1-5.2-0.6-4.8,0.9c0.3,1,0.2,1.8-0.6,2.3c-0.6,0.3-0.6,0.8,0,0.8c0.4,0,1.6-0.4,2.1-1.2
				c0.7-1.1,1.1-1.7,0.9,0c-0.1,0.8,0,0.7,1.2,0.6c1.6-0.1,1.3,0.2,0.4,0.9c-1.3,1-1.6,2.8-0.9,4.3c0.4,0.9,0.7,1.4,1.3,1.3
				C38.8,91.6,40.7,90,41.7,89z M142.3,90.7l-2.9-1.9l0.1,2l3.1,1.8L142.3,90.7z M32.4,89.4c-1.1-1.3-2.3,0.4-1.5,1.1
				C31.5,91.1,32.9,90.5,32.4,89.4z M29.9,89.6c-0.1-0.4,0.6-1.1,0.7-1.3c0.3-0.8-2.8-2.9-3.7-1.6c-0.7,0.9-0.2,1.7,1.6,2.9
				C29.6,90.3,30.1,90.3,29.9,89.6z M142.1,87.7l-2.7-1.6l0.1,1.7l2.8,1.7L142.1,87.7z M137.4,89.3l0-1.8l-2.7-1.9l0,1.8L137.4,89.3
				z M33.7,87.8c0.5-0.5,0.3-0.6-0.6-0.6c-0.6,0-0.8-0.1-0.8,0.2C32.1,88,33.2,88.3,33.7,87.8z M31.4,87.1c0-0.1-0.3-0.4-0.8-0.8
				c-1-0.9-1.2-1.4-0.2-2.1c1.4-1-0.1-2.4-1.7-1.8c-1.3,0.5-1.3,1.8-0.5,2.7C29.2,85.8,31.2,87.9,31.4,87.1z M137.4,84.7l-2.6-1.8
				l0,1.8l2.6,1.5L137.4,84.7z M31.9,85.5c1.2-0.6,1.2-2.1,0-1.5c-0.5,0.2-1.1,0.9-1.1,1.1C30.9,85.6,31.3,85.8,31.9,85.5z M32.7,82
				c1.5-0.8,1.3-1.6-0.2-2.5c-1.9-1.1-3.1,1-1.6,2.4C31.7,82.6,31.9,82.5,32.7,82z M34.7,80.5c2.5-2.7,4.1-2.5,7.3-2.5
				c8.4,0,10.9-4,10.6-6.8c-4.1,2.1-7.7,1-11.6,1.6c-6.7,1.5-7.5,4.7-7.9,6.5L34.7,80.5z M68.3,71.3c2.2,0,2.1,0.1,1.2-1.7
				c2.1,0.3,3,1.3,2.3-0.8c1.1,0.4,1.8,0.7,2.9,1.1l0.7-0.4c-4.5-4.3-9.4-0.6-8.1,3.8l1.7-0.8L68.3,71.3z"/>
		</g>
		<g id="path3502-5-8-1">

				<path fill="#D40000" d="
				M80.1,230.1l1-5l9.2,0.4c0,0,1.1,3.2,1.5,4.6L80.1,230.1z M58.7,230.1l4.9-8.2l7,1.9l-1.6,6.4L58.7,230.1z M72.3,230.1l2.1-8.7
				c-4-0.9-7.7-1.4-12.1-2.6l-7.1,11.3l-4.3-0.1c3.7-5,10.4-15,10.4-15c15.5,5.2,31.1,6.1,46.9,3.1c0,0,5.8,7.6,7.9,11.8l-4.1-0.2
				l-5.1-8.5c-3.5,0.4-7,0.9-10.7,1.1l2.6,7.5l-4.1,0l-2.3-7.5c-4.4-0.1-8.1,0.2-13.4-0.6l-1.8,8.2L72.3,230.1z M101.5,229.9
				l-1.4-5.3l5-0.6c0,0,2.3,4.1,3.6,5.9L101.5,229.9z M56.5,180.7c6.1-9.5,27.8-39.9,27.8-39.9l3.2,0.1c0,0-19.4,27.5-28.8,41.3
				L56.5,180.7z M24.8,166.2l7.7,5.5l0.3,42.9l-7.7,5.5L24.8,166.2z M56.1,95.7l4.7,9.1c-19.5,18.8-15.6,40.7-4.9,56.2
				c0,0-1.3,3.5-4.3,7.2c-14.3-9.3-18.8-33.8-18.7-34C48.5,120,50.6,115.6,56.1,95.7z M136.7,162.1c0.9-13.8,7.6-22.9,15.1-28.5
				l0.5,14.1C147.4,152.5,142.2,157.5,136.7,162.1z M116.1,148.3c17.1-16.2,17.6-39.1,4.9-55.8l5.1-7.2c7.3,7.8,14.5,15.9,17.6,34.9
				c-10.8,8.7-20.4,23-22.9,37.3L116.1,148.3z M92.3,129.7l-0.1-6.6l6.4-0.1l-0.1,6.6L92.3,129.7z M78.7,129.8l-0.1-6.6l6.4,0
				l-0.1,6.7L78.7,129.8z M89.6,112.1c0,0,21.2-30.1,29.5-40.9l1.8,1.3l-28.1,39.8L89.6,112.1z M39.7,91.5
				c0,11.8-7.4,21.2-15.1,27.4l0-13.4L39.7,91.5z M151.4,33.8l0.4,52.4l-7.2-4.3l0.4-44L151.4,33.8z M117,37.1
				c-16.3-4.1-31.1-5.3-46.7-1.9c-2.1-2.4-8.9-12.5-8.9-12.5l3.9,0l5.6,8.9l10.6-1.5L78.8,23l4.4,0l2.2,7.1c0-0.1,8.6,0,13.5,0.6
				c0.8-2.7,2.1-7.9,2.1-7.9l4.8,0c-0.6,2.5-2.2,8.6-2.2,8.6c3.9,0.5,11.3,2.4,11.4,2.4c2.5-3.7,4.9-7.3,7.2-11l4.7,0
				C125.5,25.1,117.3,37.3,117,37.1z M114,30.9l-7.2-1.6l1.8-6.4l10-0.1L114,30.9z M72.7,28.8l-3.4-5.9l6.4,0l2.2,5.2L72.7,28.8z
				 M87.3,27.5l-1-4.7L98,22.8l-1.2,5L87.3,27.5z"/>
		</g>
		<g id="path3500-9-6-1">
			<path d="M60.6,22.6l10.5,15c0,0,5.8-1.2,11.5-1.5c5.6-0.3,12.4,0,12.4,0.2c0,0,1.8,5.4,2.4,8
				c0.8,3.5,0.8,7.6-0.1,10.3c-1.2,3.9-1.9,5.1-4.6,7.9c-2,2-4.9,4.2-7.9,5.3c-4.1,1.7-4.5,1.7-6.9,1.9c-1.6,0.1-1.8,0.2-2.6,0.6
				c-0.3,0.1-0.4,0.4-0.7,0.5c-0.2,0.1-0.6,0-0.6,0c-13.3,6-23.7,12.6-31.6,18.4c-0.1,0.1-0.2,0.4-0.2,0.4c-0.6,0.5-1.2,0.9-1.9,1.4
				c-0.1,0.1-0.3,0-0.4,0c-9.3,7.2-14.5,13.1-16.4,14.8l0.4,33.4c0,0,4.2-2.2,6.4-3.5c1.6,12.9,8.1,25.5,18.3,34.2l-4.4,6.1
				L23.9,162l0.6,61.7l10.8-7.6l0-6.5c3.2,2.2,6.4,3,8.7,12.9c1.8-3.5,1.6-8.7,0.8-12.1c0,0,2.7-2.3,3.6-4l-4-3.5
				c0,0,1-8.7-0.9-10.4c-1.5,3.9-2.6,8.1-8.2,11.2l-0.2-30.1c2.8,1.7,5.4,3.7,8.2,5.5l0.4-0.1l2.9,1.9c0,0-0.3,0.6-0.6,1
				c-3.4,5.3,2.4,11.7,7.1,7.8c1.8-1.5,5.3,4.8,6,10.9c0.7,3.9,1.1,8.8,2.2,12.2c0.3,1,0.2,1.6-0.5,2.2
				c-3.6,5.1-10.8,15.4-10.8,15.4l5.2,0l0.4-0.6l-3.8,0c3.3-4.4,6.4-9.6,9.8-13.9c12.8,4.8,33.8,5.7,46.4,2.7
				c2.6,3.7,5.2,7.5,7.7,11.2l-3.6,0l0.5,0.8l4.9,0l-10.5-15.3c-7.1,2.2-24.6,1.5-24.3,1.3c0,0,0-0.1-0.7-1.9
				c-3.1-9.7-3.4-18.3,4.1-25.3c4-3.6,8.4-6,13.4-5.5c2.2-0.1,2.3-0.2,3.2-0.6c0.5-0.2,1.6-0.5,1.6-0.5l5-2.8l0.7-0.1l1.4-0.8
				l0.3-0.4l2.3-1.2l0.3,0l3.2-1.8l0-0.3l1.2-0.8l0.3,0.3c0.3,0,12.4-8,17.4-12.4l0.3,0.1c5.8-4.8,13.8-12.4,16.2-15.2l-0.2-14.3
				l-0.2-0.2l-0.2-15.8l-0.5,0l0-2c-2.6,1-5.4,3.4-5.6,3.3c-1.7-13.4-8-25.7-18.1-34.7l4.2-6l20,13.3l0-3.9l0.2,0
				c0.2-15,0.1-54,0.1-54l-0.2,0l0-3.1l-10.1,6.6l-0.1,6.6c-4.5-1.5-7.4-6.9-8.4-11.7c-1.3,0.5-1.9,5.6-1.4,12.1
				c-1.4,0.8-2.3,1.8-3.1,2.9c1.1,1.4,2.3,2.5,3.7,3.7c-0.3,0.6-0.8,9.2-0.2,10.3c0.3,0.8,1.2,0.7,1.2-0.2c1.3-6.7,7.7-11.2,8-10.8
				l0,31l-11.3-7.9c2.4-2.7,2.8-7.2-0.2-9.4c-3-2.2-5.9-0.3-6.6,1.1c-3.7-2.4-5-11.3-5.5-14.7c-0.1-1.7-0.6-4-1.1-6.1
				c-0.3-1.3-0.7-2.5-0.8-3.7c0-0.5,0-0.8,0.5-1.5l10.9-15.7l-5.6,0l-0.1,0.1l4.4,0l-9.8,14.2c-14.9-4.6-30.4-5.6-46.9-2.6
				l-8.2-11.5l3.7,0l-0.2-0.2L60.6,22.6L60.6,22.6z M69.2,22.7l0.2,0.3l6.4-0.1l-0.1-0.2C75.7,22.7,69.2,22.7,69.2,22.7z M78.7,22.7
				l0.1,0.3l4.4,0l-0.1-0.3L78.7,22.7L78.7,22.7z M101.1,22.6l0,0.2l4.8,0l0-0.2L101.1,22.6z M86.3,22.7l0,0.2L98,22.9l0-0.2
				L86.3,22.7z M108.7,22.7l0,0.2l10-0.1l0.1-0.2L108.7,22.7L108.7,22.7z M151.1,31.1l0,2.1l-6.7,4.3c-0.1,9.1-0.2,43.9-0.2,43.9
				l-1.6-1.1l0.1-43.7C142.7,36.7,148.7,32.9,151.1,31.1z M133.4,32.9l0.2,0l0.1,0.5l-0.4,0L133.4,32.9z M133.9,34.1l0.2,0.7l-1,0
				l0.2-0.6L133.9,34.1L133.9,34.1z M151,34.4l0,1.4l-5.8,3.7l0-1.4L151,34.4z M133,35.6l1.5,0l0.3,0.8l-1.9,0L133,35.6z M95.6,36.3
				l1,0.1c2.4,5.6,3,10.4,3.4,15.4c1,6.5,2.9,13,4.2,15.7l-1.5,0c-0.2,0-3.4-9.4-4.1-14.9c-0.2-1.1-0.1-2.1-0.2-3.1
				C98.2,45.1,97.6,41.9,95.6,36.3L95.6,36.3z M97.5,36.5l1.3,0.1c0.9,4,2.3,7.7,2.8,11.7c0.9,6.4,1.4,12.9,4.5,19.1l-1.2,0
				c-1.9-4.2-3.1-8.7-3.8-13.4c-0.6-2.7-0.6-4.8-0.9-7.3C99.8,43.7,98.6,39.9,97.5,36.5z M99.5,36.7l1.3,0.2
				c0.9,3.9,2.4,8.2,2.8,11.8c0.8,7.2,2,14,4.3,18.8l-0.9,0c-3.6-6.8-3.7-12.9-4.7-19.3C101.7,44.3,100.5,40.5,99.5,36.7L99.5,36.7z
				 M101.6,37l1.2,0.2c0.8,3.9,2.3,8.3,2.6,12.3c0.6,7,1.9,12.3,4.6,18l-1.1,0c-3.2-5.5-3.6-12.3-4.7-19.2
				C103.6,44.5,102.4,40.7,101.6,37z M151,36.7l0,1.7l-5.8,3.8l0-1.7L151,36.7z M103.5,37.3l1.2,0.2c0.8,3.8,2.3,7.8,2.6,11.5
				c0.6,6.3,1.8,12.6,4.4,18.5l-1.1,0.1c-2.8-5.9-4-11.3-4.6-18C105.7,45.6,104.2,41,103.5,37.3z M135.2,37.1l0.4,1l-2.8,0.2l0-1.1
				L135.2,37.1L135.2,37.1z M105.4,37.7l1.4,0.3c1.5,6,2,11.7,3,17.4c1.3,7.1,2.7,10.7,3.8,12l-1.2,0c-2.9-6.1-4-12.3-4.7-18.6
				C107.4,45.1,106.2,41.4,105.4,37.7L105.4,37.7z M107.6,38l1.1,0.2c1.3,4.9,1.9,9.5,2.5,14c1.1,8.5,3.9,14.9,4.5,15.2l-1.2,0
				c-2.6-3.6-3.6-9.7-5-18.4C109,45.2,108.5,41.6,107.6,38L107.6,38z M109.4,38.4l1.2,0.3c0,0,1.1,4.3,2,10.1
				c0.7,4.8,1.1,14.2,6.4,19.6c2.6,2.7,7.2,5,10.3,2.4c1.3-1.1,2.2-3,1.4-4.9c-1.4-3.3-5.9-2.7-4.4,0.7c0.2,0.8-0.9,0.9-1.7,0.1
				c-0.8-0.9-0.6-1.8,0-2.7c1.2-1.9,4.3-2.1,6.1-0.4c3,2.9,1.7,7.8-2,9.4c-4.3,1.9-9.8-1.9-12-5.5c-3.7-6.3-4.3-12.2-5.1-18.5
				C111,45.5,110.2,41.9,109.4,38.4L109.4,38.4z M111.2,38.9l1.2,0.3c0,0,1.4,6.1,1.9,9.7c0.6,4.5,1.2,9.7,3.1,13.8
				c1.2,2.5,2.9,4.6,4.7,5.8c1.5,1.1,2.9,1.7,4.8,1.3c2.3-0.5,2.4-4.1,0.2-4.1c-1.1,0-0.4-1.1,0.5-1.1c3.3-0.1,3.4,5.1,0.3,6.3
				c-3.6,1.4-7.4-1.1-9.8-4.3c-4.2-6.5-4.1-12.4-5-17.7C112.9,46.1,111.3,39,111.2,38.9z M136.2,38.9l0.8,1l-4.2,0l0-1L136.2,38.9
				L136.2,38.9z M113,39.4l1.2,0.4c0,0,1.2,4.7,2,10.3c0.9,5.4,1.2,9.9,4,13.7c1.2,1.6,3.4,3.8,4.7,4c0.8,0.2,1.7,0,1.9-0.7
				c0.4-1.1,1.3-0.6,1.3,0.4c0,0.7-0.5,1.4-1.3,1.6c-4.1,0.7-7.9-4.4-9-7c-1.6-3.8-2.2-8-2.9-13.3C114.6,46.7,113.2,39.5,113,39.4z
				 M151,39.4l0,1.7l-5.8,3.7l0-1.7L151,39.4z M114.8,39.9l1.3,0.4c0,0,1.1,4.1,1.8,9.3c0.7,5.2,2.2,11.3,4.9,14.4
				c0.2,0.3,0.4,0.5,0.5,0.7c0.2,0.4,0,1.1-0.2,1.1c-4.8-2.5-6-12.5-6.4-15.9C116.1,44.6,114.8,39.9,114.8,39.9z M133.4,40.6
				l4.2,0.1l1,1l-5.6,0C132.5,41.1,132.9,41.1,133.4,40.6z M151,41.9l0,1.4l-5.8,3.7l0-1.5L151,41.9z M133.6,42.4l6.2,0.1l2.2,1.3
				l-9.4,0L133.6,42.4z M151,44.1l0,1.7l-5.8,3.7l0-1.6L151,44.1z M131.3,44.6l10.5,0l0,1.1l-11.4-0.2L131.3,44.6z M130,46.5l11.9,0
				l0,1.3l-10.8,0L130,46.5L130,46.5z M151,46.6l0,1.8l-5.8,3.7l0-1.7L151,46.6z M132.2,48.6l9.1,0l-1,1.1l-6.9,0L132.2,48.6z
				 M151,49.1l0,1.7l-5.8,3.7l0-1.6L151,49.1z M139.1,50.4l-1.1,1.1l-4.7,0l0.2-1L139.1,50.4z M151,51.5l0,1.8l-5.8,3.6l0-1.5
				L151,51.5z M133.2,52.3l3.9,0.1l-0.6,0.8l-3.4,0L133.2,52.3L133.2,52.3z M98.2,53.9c0.6,4.5,3.9,13.6,3.9,13.6l-1.3,0
				c0.1,0.1-2.4-5.7-3.3-11.2C97.5,55.8,97.8,54,98.2,53.9L98.2,53.9z M133,54l3,0l-0.6,1.2l-2.4,0L133,54L133,54z M151.1,54.1
				l0,1.6l-5.8,3.6l0-1.4L151.1,54.1z M132.9,55.8l2,0l-0.5,1.1l-1.5,0L132.9,55.8z M151.1,56.6l0,1.7l-5.8,3.7l0-1.6L151.1,56.6z
				 M97,57.2c0.6,3.3,3.1,9.9,3.3,10.3l-1.1,0c0,0.2-2.6-5.9-2.9-8.5C96.2,58.5,96.5,57.4,97,57.2L97,57.2z M132.9,57.7l1.2,0
				l-0.2,0.6l-1,0L132.9,57.7z M133,59.2l0.6,0l-0.1,0.6l-0.4,0L133,59.2L133,59.2z M151.1,59.1l0,1.3l-5.8,3.7l0-1.3L151.1,59.1z
				 M95.6,59.6c0.9,2.6,1.8,5.3,2.9,7.9l-1.3,0c-0.9-1.8-1.5-3.9-2.2-6C94.8,60.6,95.1,59.9,95.6,59.6L95.6,59.6z M94.3,61.4
				l2.2,6.1l-1.2,0c-0.5-1.2-1.1-2.6-1.5-3.8C93.3,62.3,93.4,62.2,94.3,61.4z M151.1,61.4l0,1.6l-5.8,3.7l0-1.4L151.1,61.4z
				 M92.8,63c0.3,0,0.3,0.3,0.6,1.1l1.2,3.4l-1.5,0c-0.4-1.1-0.7-2-0.8-3c0-0.5-0.1-1,0.2-1.2C92.6,63.1,92.7,63.1,92.8,63L92.8,63z
				 M91.2,64.3c0.3,0,0.4,0.5,0.6,1.2l0.6,2l-1.4,0c-0.4-0.9-0.6-1.6-0.5-2.6C90.8,64.5,91.1,64.3,91.2,64.3L91.2,64.3z M151.1,64
				l0,1.7l-5.8,3.5l0-1.5L151.1,64z M89.8,65.5l0.6,1.9l-1.3,0c-0.2-0.4-0.1-1-0.1-1.5L89.8,65.5z M88.1,66.5
				C88.1,66.5,88.1,66.5,88.1,66.5c0.2,0.9,0.1,0.9,0.1,0.9l-1.8,0C86.4,67.5,87.8,66.5,88.1,66.5L88.1,66.5z M151.1,66.7l0,1.3
				l-5.8,3.7l0-1.4L151.1,66.7z M81.9,69.2l35-0.1l1.2,1.6c0,0-3.4,0.1-14.5,0.1c-9.4,0.2-28.2,0-28.2,0l1.8-0.9
				C79.7,69.9,82,69.2,81.9,69.2z M151.2,69l0,1.5l-5.8,3.6l0-1.4L151.2,69z M52.7,71c-2.8,1.3-5.4,1.6-7.4,1.4
				c-4.2-0.3-10.7,1.5-12,5.6c-0.4,1.4-0.4,1.5,0.4,2.2c0.4,0.4,0.8,0.6,0.8,0.6c0.7-0.6,1.6-1.7,2.5-2.1c1.3-0.4,2-0.4,4-0.6
				c4.5-0.2,5.5-0.4,6.6-0.7c2.5-0.7,4.9-3.1,5-5.8C52.9,71.4,52.7,71,52.7,71z M52.6,71.4c-0.4,5.6-6.5,6.4-9.2,6.3
				C38,77.3,35.9,79,35,80c-0.3,0.3-0.4,0.2-0.4,0c0.6-3.1,5.6-3.3,8.2-3.2c6.2,0.2,7.7-2.8,7.6-2.8c-0.5,0.2-0.8,0.4-1.3,0.6
				c-0.2,0.1-0.2,0-0.7-0.3c0,0-0.6,1.4-1.4,0.1c0,0.1-0.6,1.2-1.6,0.2c0,0.1-0.6,1.1-1.7,0.1c-1,0.9-1.5,0.4-1.9-0.2
				c-0.3,0.2-1.2,1.4-2,0.1c-0.8,0.5-1.2,1.1-1.9,0.8c-1.6,0.3-3.1,2-3.6,3.6c-0.2,0.5-0.5,0.6-0.6,0c-0.2-1.6,2.4-4.4,5.1-5.2
				c2.1-0.6,3.5-1.1,8-0.9C49.3,72.8,52.6,71.4,52.6,71.4z M119,71.4l1.7,1.1l-28.3,39.6l-2.5,0L119,71.4L119,71.4z M73.2,71.7
				l3.2,0l0,5.4l-2.8,0l-1-1.5c0.3,0.2,0.6,0.2,0.9,0.2c1,0,1.7-0.8,1.7-1.7c0-1-0.8-1.7-1.7-1.7c-1,0-1.7,0.8-1.7,1.7
				c0,0.1,0,0.2,0,0.2l-1.1-1.5c0,0,0.4-0.3,1.5-0.7C72.6,71.9,73.2,71.7,73.2,71.7z M83.2,71.6l5.5,0l0,5.4l-5.5,0L83.2,71.6z
				 M95.2,71.6l5.7,0l0,5.4l-5.7,0L95.2,71.6z M107.5,71.5l5.7,0l0,5.4l-5.7,0L107.5,71.5z M151.1,71.4l0.1,1.7l-5.8,3.6l0-1.7
				L151.1,71.4z M110.2,72.2c-1,0-1.8,0.8-1.8,1.9c0,1,0.8,1.8,1.9,1.8c1,0,1.8-0.8,1.8-1.9C112,73,111.2,72.1,110.2,72.2z M86,72.4
				c-1,0-1.8,0.8-1.8,1.9c0,1,0.8,1.8,1.9,1.8c1,0,1.8-0.8,1.8-1.9C87.8,73.2,87,72.4,86,72.4z M98,72.4c-1,0-1.8,0.8-1.8,1.9
				c0,1,0.8,1.8,1.9,1.8c1,0,1.8-0.8,1.8-1.9C99.8,73.2,99,72.4,98,72.4z M104.2,72.6c0.8,0,1.5,0.7,1.6,1.5c0,0.9-0.7,1.5-1.5,1.6
				c-0.8,0-1.5-0.7-1.6-1.5C102.6,73.2,103.3,72.6,104.2,72.6z M79.8,72.7c0.8,0,1.5,0.7,1.6,1.5c0,0.9-0.7,1.5-1.5,1.6
				c-0.8,0-1.5-0.7-1.6-1.5C78.2,73.4,78.9,72.7,79.8,72.7z M116.3,72.6c0.4,0,0.7,0.1,1,0.4l-1.7,2.3c-0.4-0.2-0.7-0.7-0.7-1.2
				C114.9,73.2,115.5,72.6,116.3,72.6z M92.2,72.7c0.8,0,1.5,0.7,1.6,1.5c0,0.9-0.7,1.5-1.5,1.6c-0.8,0-1.5-0.7-1.6-1.5
				C90.6,73.4,91.3,72.7,92.2,72.7z M73.6,72.9c0.6,0,1.2,0.5,1.2,1.1c0,0.6-0.5,1.2-1.1,1.2c-0.6,0-1.2-0.5-1.2-1.1
				C72.4,73.4,72.9,72.9,73.6,72.9z M70,73c9.9,12.5,15.2,25.1,17.5,38.9l-1.7-0.1c-2.8-15-9-27.9-17.4-38.3L70,73L70,73z
				 M110.2,72.8c0.7,0,1.2,0.5,1.2,1.2c0,0.7-0.5,1.2-1.2,1.2c-0.7,0-1.2-0.5-1.2-1.2C109,73.3,109.5,72.8,110.2,72.8z M86,73
				c0.7,0,1.2,0.5,1.2,1.2c0,0.7-0.5,1.2-1.2,1.2c-0.7,0-1.2-0.5-1.2-1.2C84.8,73.6,85.3,73,86,73z M98,73c0.7,0,1.2,0.5,1.2,1.2
				c0,0.7-0.5,1.2-1.2,1.2c-0.7,0-1.2-0.5-1.2-1.2C96.8,73.5,97.3,73,98,73z M128.5,73.7c0.7,5-0.6,8.2-4.4,8.7
				c-4.8,0.7-5.4,1.1-5.4,5.6c0,5.4-0.8,7-4.6,7.4c-4.3,0.5-5.3,1-4.9,6.4c0.3,3.9-1.2,5.6-4.5,6.3c-2.6,0.6-4.8,1.5-5.8,4.1l-2.4,0
				c0.6-4.1,4.7-6.1,7.3-6.3c2.9-0.7,3.4-1.7,2.9-6.7c-0.4-3.8,1-4.9,5.4-5.8c3.5-0.7,4.4-1.7,4.2-4.6c-0.4-6.2,0-7.1,3.5-7.9
				c1.8-0.4,4.7-0.6,5.8-2c1.3-1.6,0.9-2.9,0.8-4.8L128.5,73.7L128.5,73.7z M151.2,73.7l0,1.6l-5.8,3.6l0-1.6L151.2,73.7z
				 M65.6,75.2c-1.2,5.4,3.1,6.5,5.7,7.4c3,1,3.8,2.6,3.5,7.9c-0.2,4.1,0.2,5,2.8,6.3c4,2,5.1,5,3.3,9.3c-1.1,2.7-0.5,3.4,0.2,5.7
				l-1.9,0c-0.1,0-1.8-2.9-0.4-6.1c1.6-3.8,1.6-5.6-2.1-7.3c-2.9-1.3-3.7-2.5-3.9-5.2c-0.1-1.1-0.1-1.7,0.2-4.1
				c0.3-3.1-0.8-4.4-5.4-6.1c-2-0.7-3.4-2.5-3.9-5.3c-0.1-0.8,0-1.7,0-1.7L65.6,75.2L65.6,75.2z M133.9,75.4l17.4,11.5l-0.1,2.6
				l-18.5-12.2L133.9,75.4z M122.7,75.7c0.8,0,1.5,0.7,1.5,1.5c0,0.8-0.7,1.5-1.5,1.5s-1.5-0.7-1.5-1.5
				C121.2,76.4,121.9,75.7,122.7,75.7z M68.1,76.7c0.8,0,1.4,0.6,1.4,1.4c0,0.8-0.6,1.4-1.4,1.4c-0.8,0-1.4-0.6-1.4-1.4
				C66.8,77.3,67.4,76.7,68.1,76.7z M151.1,76.3l0,1.5l-5.7,3.6l0-1.5L151.1,76.3z M74.3,77.8l39.5-0.2l-1,1.4l-37.8-0.2L74.3,77.8z
				 M60.6,78c5.3,6.8,10.5,13.9,14.5,27.2l-1.7,0.7C70.1,95.1,65,86.2,59,78.9L60.6,78L60.6,78z M151.2,78.6l0,1.7l-4.4,2.7
				l-1.3-0.8L151.2,78.6z M58.3,79.4l0.8,1c0,0-0.8,0.7-1.8,1.3c-2.6,1.9-2.9,2.1-3.1,3.3c-0.4,2.9,2.6,4.3,5.5,2.6
				c1-0.5,3.4-2,3.4-2l0.7,1c0,0-3.3,2.5-5.3,3.1c-4.3,1.3-7.5-4.2-4.4-7.4c0.5-0.5,1.5-1.2,2.3-1.7C57.3,80.1,58.3,79.4,58.3,79.4z
				 M75.9,79.9l36.4,0l-23.1,32l-1,0C86.4,100,81.8,89.6,75.9,79.9L75.9,79.9z M60.1,81.4l2.1,3c0,0-1.4,1.3-3.7,2.6
				c-1.8,1-3.8-0.8-2.7-2.5C57,82.9,60.1,81.4,60.1,81.4z M151.2,81.2l0,1.6l-2.5,1.6l-1.2-0.7L151.2,81.2z M59.8,82.9
				c-1,0.1-2.7,1.2-3.2,2.2c-0.2,0.4-0.2,0.8,0.1,1.1c0.4,0.4,0.8,0.4,2-0.2c2.5-1.3,2.9-2.1,1.8-2.9C60.3,82.9,60.1,82.9,59.8,82.9
				C59.9,82.9,59.8,82.9,59.8,82.9z M59.7,83.5c0.2,0,0.3,0,0.5,0c0.4,0.2,0.3,0.7-0.1,0.8c-0.1-0.2-0.8-0.2-0.8,0.6
				c-0.2,0.4-0.2,0.4-0.7,0.5c-0.4-0.1-0.6,0.2-0.7,0.3c-0.4,0.2-0.8,0.1-0.9-0.1c-0.1-0.2,0.2-0.9,0.5-0.9c0.1,0,0.3-0.2,0.6-0.3
				c0-0.4,0.5-0.5,0.6-0.5c0.1,0,0.6,0,0.8-0.4C59.5,83.6,59.6,83.6,59.7,83.5z M151.2,83.4l0,2.4l-1.8-1.2L151.2,83.4z M50.2,84.3
				c6.7,7.8,11.5,16.2,14.6,27.7l-1.3,0.9c-2.1-8.1-5.2-16.7-14.4-27.7L50.2,84.3z M127.8,83.9c3,2.5,15.4,14.1,17.9,34.7l-1.6,1
				c-1.4-10.9-5.7-23.3-17.3-34.3L127.8,83.9z M121.9,84.7c0.8,0,1.5,0.7,1.5,1.5s-0.7,1.5-1.5,1.5c-0.8,0-1.5-0.7-1.5-1.5
				C120.3,85.4,121,84.7,121.9,84.7z M48.3,85.7c0,0,1.4,1.4,1.4,1.8c0,0.7-0.5,1.1-3.7,2.3c-0.5,0.2-2.9,0.8-2.9,0.8L43,89.4
				c1.2-0.4,4.4-1.2,4.7-1.9c0.1-0.3-0.5-1-0.3-1L48.3,85.7z M70.4,85.9c0.8,0,1.4,0.6,1.4,1.4c0,0.8-0.6,1.4-1.4,1.4
				c-0.8,0-1.4-0.6-1.4-1.4C69.1,86.5,69.7,85.9,70.4,85.9z M126.3,86c10.1,9.8,15.7,21.9,17,34.4c-11.6,9.6-19.5,21.6-22.6,36.6
				c-1.6-2.6-2.9-5.6-4.4-8.5c15.5-13.8,18.6-38.6,5.1-55.8L126.3,86L126.3,86z M65,88.2l0.7,1.1c0,0-0.2,0.1-2.3,1.5
				c-3.2,2-3.7,3.3-2.6,5.3c1.1,2.1,2.3,2.2,5.7,0.5c1.2-0.6,2.2-1.2,2.2-1.2l0.6,1.1c0,0-1.5,1.3-4.5,2.4c-2.8,1-5.4-0.7-5.9-3.9
				c-0.4-2.3,0.6-3.6,4.7-5.9C64,88.8,65,88.2,65,88.2z M112.7,88.4c0.8,0,1.5,0.7,1.5,1.5c0,0.8-0.7,1.5-1.5,1.5
				c-0.8,0-1.5-0.7-1.5-1.5C111.2,89.1,111.9,88.4,112.7,88.4z M50.8,88.8l0.9,0.9c0,0-0.4,0.6-2.6,2c-2,1.2-2.2,1-1.2,1.9
				c1.9,1.6,4.5,5.1,4.5,6c0,0.9-0.8,1.7-2.3,2.4c-0.8,0.4-4.1,1.6-4.6,1.7c-1,0.1-1.2,0.5-0.3,1.4c1.6,1.9,3,5.8,2.5,7.1
				c-0.6,1.4-1.4,1.6-7.4,1.9c-0.7,0-1-0.2-0.6,0.7c0.3,0.6,0.6,1.5,1.1,4.2c0.5,2.4,0.4,3.5-0.5,4c-0.5,0.3-4.7,0.2-6.4-0.1
				c-2-0.4-2.2-0.4-1.9,0.9c0.4,1.8,0.7,6.5-0.6,7.5c-0.6,0.4-1.2,0.3-3.6-0.5c-1.6-0.5-2.9-1.1-2.9-1.1l0-1.5
				c1.3,0.5,4.8,2,5.8,1.5c1.2-1.7-0.5-7.6-1.1-8.9c-0.8-1.5,0-1.9,1.8-0.9c0.9,0.6,8.8,3.7,8.3,0.9c-0.5-2.6-1.4-5.6-3-7.5
				c-1.5-1.7-0.8-2.5,0.9-1.7c3,1.3,9.3,1,8.9-0.4c-0.4-2.3-2.5-5.4-5.4-7.8c-0.8-0.7-0.8-0.9,0.1-1.1c2.6-0.2,10.2-1.1,9.1-2.8
				c-0.9-1.5-2.1-3.1-3.2-3.9c-1.7-1.4-3.4-2-4.2-2.3l0-1.1C46.5,91.7,48.3,90.6,50.8,88.8z M42.4,90c-1.2,13-6.5,23.7-17.6,31.3
				l-0.1-1.5c9.8-7.5,14.4-18,15.7-28.2L42.4,90z M51.9,90.5l0.9,0.8c0,0-0.2,0.4-1.6,1.4c-1,0.8-0.7,0.5,0,1.4
				c0.6,0.7,1.7,2.2,1.7,2.2l-0.3,2c-1.2-1.7-2.1-2.9-3.9-4.6c-0.9-0.9-0.8-0.9,0.4-1.6C50.2,91.7,51,91.1,51.9,90.5z M66.3,90.6
				C66.3,90.6,66.3,90.6,66.3,90.6c0,0,1.8,3.2,1.8,3.5c-1.1,1-3.9,2.5-5,2.1c-1.8-0.6-2.1-2.4-0.4-3.6C64.2,91.6,66,90.7,66.3,90.6
				L66.3,90.6L66.3,90.6z M77.1,91.7c0.8,0,1.4,0.6,1.4,1.4c0,0.8-0.6,1.4-1.4,1.4c-0.8,0-1.4-0.6-1.4-1.4
				C75.7,92.3,76.3,91.7,77.1,91.7z M65.9,91.8c-1.3,0.4-2.6,1.5-3.3,2.1c-0.3,0.2,0,1.1,0.2,1.5c0.3,0.4,0.9,0.3,1.6-0.1
				c0.3-0.2,0.8-0.4,1.2-0.6c1-0.5,1.4-0.8,1.4-1.2C66.9,93,66.4,91.8,65.9,91.8z M39.5,92.5c0.3,1.5-0.6,4-1,5.5
				c-2.9,3.9-7.2,5.9-11.2,7.2c-0.9,0.3-2.1,0.2-2.1,0.2C30.7,99.6,35.4,95.3,39.5,92.5z M66,92.5c0.4,0,0.6,0.5,0.5,0.8
				c-0.6,0.3-1,0.1-0.9,0.5c0,0,0.1,0.7-0.9,0.8c-0.2-0.1-0.6-0.1-0.8,0.1c-0.6,0.3-1.2-0.3-0.5-0.6c0.2-0.1,0.7-0.2,0.8-0.5
				c0.1-0.4,0.4-0.6,0.7-0.4c0.2,0,0.6,0,0.7-0.2C65.5,92.5,65.8,92.5,66,92.5C65.9,92.5,65.9,92.5,66,92.5L66,92.5z M28,93.3
				c-0.2,0-0.3,0-0.3,0c-0.3,0.3-0.7,4.3-0.4,4.6c0.4,0.4,1.5,0.5,1.6,0c0.3-1.6,0.2-2.8,0.4-4.1C29.3,93.6,28.4,93.4,28,93.3
				L28,93.3z M28.4,93.8c0.1,0,0.3,0.2,0.3,0.6c0,0.7-0.1,2-0.3,2.8c-0.2,0.6-0.6,0.5-0.8-0.1c-0.2-0.6,0-2.2,0.3-2.9
				C28.1,93.9,28.3,93.7,28.4,93.8z M54.4,93.6l1,1.2c-1.9,19.4-15.6,36.2-30.3,43l0-1.3C41.8,127.5,51.8,112.7,54.4,93.6z
				 M121.1,93.3l1.8,2.5l-2.6,0.1L121.1,93.3z M42.7,94.6c0.9,0,5.7,2.9,5.1,4.4c-0.5,1.2-4.5,1.3-6.4,1.1l0.3-1.1
				c0,0,0.6,0.2,2.7,0c2.3-0.2,2.1-0.9-0.5-2.6c-1.1-0.7-1.4-0.9-1.4-0.9L42.7,94.6L42.7,94.6z M56,96.1c1.5,2.5,2.9,5.3,4.3,8.5
				c-18,17.3-16.5,40.7-5,56l-4.9,6.7c-9.9-9.4-15.4-21-17.2-33.3C47.5,123.5,54.2,108,56,96.1L56,96.1z M123.4,96.5l1.1,2.1l-2.6,0
				L123.4,96.5z M112.2,97.6c0.8,0,1.5,0.7,1.5,1.5c0,0.8-0.7,1.5-1.5,1.5c-0.8,0-1.5-0.7-1.5-1.5C110.7,98.3,111.4,97.6,112.2,97.6
				z M70,98.2l0.5,1.2c0,0.2-3.7,1.3-4.8,2.8c-1.1,1.4-1,2.8-0.4,3.8c1.1,1.4,1.8,1.6,3.6,1.1c1.4-0.4,2.5-1.1,3.9-1.8l0.2,0.6
				c0,0-2.1,1.2-3.6,2.1c-0.6,0.3-1.3,0.5-1.9,0.5c-3.6-0.1-5.5-4.7-2.6-7.5c0.4-0.4,1.9-1.2,3.1-1.9C68.9,98.8,70,98.2,70,98.2z
				 M117.4,98.7c11.9,17.1,4,35.9-3.7,42.6l-0.2-2c12.8-14.8,8.2-31.9,2.8-39.5L117.4,98.7z M125.1,99.4l0.9,2.1l-2.7-0.3
				L125.1,99.4z M77.4,100.4c0.8,0,1.4,0.6,1.4,1.4c0,0.8-0.6,1.4-1.4,1.4c-0.8,0-1.4-0.6-1.4-1.4C76,101,76.6,100.4,77.4,100.4z
				 M116,100.4c10.5,15.1,4.8,39.2-14.9,46.7l-0.1-1.7c20.1-8.6,22-31.1,13.8-43.8L116,100.4z M71.1,100.8l1.3,3.5
				c-1.6,1.1-2.3,1.3-4.1,1.8c-1.5,0.3-2.6-2.2-1.5-3.2C68,101.8,69.4,101.3,71.1,100.8z M37.4,101c0.2,0,0,0.6-0.6,2.1
				c-1.4,3.4-1.5,3.4-4.9,4c-1.8,0.3-3.1,0.4-4.4,0.3c-1.9-0.2-2.8-0.7-1.5-1c3.6-0.8,7.7-2.7,10.3-4.6
				C36.8,101.3,37.2,101,37.4,101z M103.4,101c0.9,0,1.7,0.8,1.7,1.7c0,0.9-0.8,1.7-1.7,1.7c-0.9,0-1.7-0.8-1.7-1.7
				C101.7,101.8,102.4,101,103.4,101z M51.8,101.8l-0.1,1.3c0,0-2.1,1.1-3.1,1.5c-0.8,0.3-0.8,0.4-0.6,1.1c0.5,1.4,1.5,3.2,1.5,3.2
				l-0.9,2c-0.5-1.8-1.1-3.7-2.1-5.4c-0.9-1.3-1.1-1.5,0.3-1.7C48.7,103.2,50.1,102.7,51.8,101.8z M70.6,102.1c-1,0-3.2,0.9-3.4,1.8
				c-0.1,0.5,0,1.1,0.4,1.3c1.1,0.4,3.2-0.5,3.8-1.3c0.2-0.2-0.1-0.8-0.3-1.1C71,102.5,71,102.1,70.6,102.1z M70.6,102.8
				C70.7,102.8,70.7,102.8,70.6,102.8c0.2,0,0.9,0.8,0.2,0.7c-0.2,0-0.5,0.1-0.7,0.3c0,0.4-0.6,0.5-0.8,0.4
				c-0.2-0.1-0.5,0.1-0.5,0.2c-0.4,0.3-0.9,0.3-1,0.1c-0.1-0.1,0.3-0.7,0.6-0.7c0.1,0,0.3-0.2,0.6-0.4c0.1-0.4,0.5-0.3,0.8-0.3
				C70.1,103.2,70.4,102.9,70.6,102.8z M126.4,102.6l0.8,2.1l-2.7-0.2L126.4,102.6z M113.8,103.1c0.9,0.2,1.4,1.1,0.9,2
				c-0.6,0.7-1.1,0.7-1.9,0.7c0.7,0.8,1,1.9,0.3,2.6c-1,1-2.9-0.5-2.8-0.7L113.8,103.1z M39.9,104.3c0,0,4.2,3.6,4.2,5.2
				c0,0.6-0.2,0.8-0.7,1c-1.6,0.6-6.2-0.8-6.2-0.8l0.6-1.1c0.7,0.2,4.3,1.1,4.6,0.6c0.3-0.5-3-3.7-3-3.7L39.9,104.3z M60.7,105.7
				l0.5,1.7l-1.7-0.4L60.7,105.7z M127.6,105.6l0.5,2.4l-2.7-0.6L127.6,105.6z M75.3,106l0.4,1.4c-18.1,8.6-23.3,28-13.8,44
				l-1.1,1.5C48.1,132.3,60.8,111.3,75.3,106z M33.9,107.6c0.4,0,0.4,0.2,0.4,0.4c0,0.3-1.8,2.6-2.4,3.2c-1.3,0.5-6.3-1.5-7-3.1
				c-0.2-0.5,0.3-0.3,1.4,0C29.1,108.8,31.9,107.7,33.9,107.6L33.9,107.6z M82.3,107.4c0.8,0,1.4,0.6,1.4,1.4c0,0.8-0.6,1.4-1.4,1.4
				c-0.8,0-1.4-0.6-1.4-1.4C81,108,81.6,107.4,82.3,107.4z M58.9,107.5l0.3,2.2l-2.1-0.1L58.9,107.5z M25.1,109.4
				c1.4,1.2,3.4,2.3,5.2,2.6c1.1,0.2,0.8,0.4-0.2,1.4c-1,1-0.9,1.2-1.9,0.6c-1.7-0.8-3.5-2.7-3.4-3.8
				C24.8,109.9,24.9,109.4,25.1,109.4z M128.4,109l0.4,2.3l-2.6-0.9L128.4,109z M56.4,110.3l0.9,2.1l-2.3,0L56.4,110.3L56.4,110.3z
				 M113.3,110.4c1.1-0.1,1.5,0.8,1.5,1.5c0,0.3-0.1,0.8-0.1,0.8c1.3-0.9,3.1-0.2,3.1,1.2c-0.1,2-1,2-2.6,1.7
				c0.9,1.4-0.1,2.8-1.8,2.3c-1.5-0.5-1.2-2-0.5-3c-3.5,0.6-4.4,5.5-0.4,7c-0.8-1.2-1-2.7,0.7-3c1.6-0.2,2.3,1,1.6,2.5
				c1.5-0.5,3,0.3,2.5,1.8c-0.5,1.8-2.1,1.7-3.1,0.6c0.7,1.6-0.9,2.8-2.1,2.2c-1.9-1-1-2.8,0.3-3.2c-4.8-0.5-5.9,6.2-2.3,7.1
				c-0.9-0.6-1-3.2,1-2.8c2,0.4,1.6,2.3,0.3,3.2c1.6-0.3,3.1,1,2.1,2.4c-1.1,1.7-2.7,0.5-3.3-0.6c0.2,1.5-0.8,2.5-2,1.9
				c-2.1-1-0.6-3.4,1.1-3.2c-3.3-1.9-7.8,2.2-5.2,5.6c-0.1-1.5,0.6-2.8,1.7-2.7c0.9,0.1,1.8,1.2,1.5,2c-0.2,0.7-1,1.3-1.9,1.5
				c2.5,0.3,2.8,2.1,1.7,3c-1.8,1.5-2.6-0.2-3-1.2c-0.4,2.5-3.3,1.7-3.5-0.1c-0.1-2,2.2-2,2.6-1.9c0.1-0.1-1.8-1.9-3.8-2.1l0-1.2
				c7.7-4.9,10.3-13.4,7.8-21.5l0.5-0.5c1.3,1,2.5,3,4.9,2.3c0,0-0.5-0.4-0.8-0.7C110.9,111.9,111.6,110.5,113.3,110.4L113.3,110.4z
				 M62.2,112.2l0.8,1.2c-11.7,13.9-9.4,29.6-2.6,40.1l-1,1.2C53.4,147,48.4,128.4,62.2,112.2L62.2,112.2z M25,112.6
				c1,0.6,1.6,1.4,2.5,2.1c0.7,0.6,0.7,0.7,0.1,1.2c-1.3,1.3-2-0.6-2.5-1.3C24.7,113.7,24.6,112.6,25,112.6L25,112.6z M70.8,112.4
				c0.9,0.1,1.5,0.9,1.4,1.6c0,0.3,0,0.6,0,0.6s0.2-0.3,0.4-0.7c1-1.7,3.2-0.7,2.8,1.2c-0.2,0.9-1.7,1.3-2.1,1
				c0.4,1.1,1.5,1.3,2.8,1.8c0.4,0.1,1.2,0.3,1.2,0.3l0,0.7c-7,4.5-11,12.1-8.3,22.4l-0.8,1.1c-1.4-3.4-2.7-3.3-5.1-3.5
				c0,0,0.6,0.4,0.9,0.8c0.7,0.8,0.4,2.3-0.6,2.5c-2.3,0.4-2.3-1.3-2-2.3c0,0-0.4,0.3-0.6,0.5c-0.9,0.6-2,0-2.1-1.2
				c-0.1-1.1,0.3-1.8,1.4-1.9c0.4,0,1,0,1,0s-0.2-0.4-0.4-0.7c-0.5-1.1,0.6-2,1.7-1.7c1.7,0.4,1.6,1.9,0.6,3.1
				c2.7,0.2,4-1.6,3.8-3.3c-0.2-2.1-1.2-3.2-3.3-3.6c0,0,0.3,0.5,0.5,0.8c0.5,0.9-0.2,2.1-1.3,2.1c-1.2,0-1.9-1.1-1.5-2.1
				c0.1-0.3,0.5-0.6,0.5-0.6c0,0-0.6,0.2-0.8,0.2c-1.4,0.2-2.3-1-1.7-2.2c0.4-0.9,1.6-1.1,2.5-0.7c0.1,0,0.3,0.2,0.3,0.2
				c0,0-0.1-0.3-0.1-0.5c-0.3-1.1,0.2-1.7,1.4-1.6c1.7,0.1,2.3,1.5,1.2,2.7c-0.3,0.3-0.7,0.8-0.7,0.8c0.1,0.2,2.4,0.4,3.6-0.9
				c1.4-1.5,1.6-4.5,0.2-5.5c-0.2-0.2-0.7-0.5-0.7-0.5c0.7,1.3-0.5,2.9-1.6,2.6c-2.2-0.5-2-2.3-0.6-2.9c0,0-1.5-0.5-1.9-1.1
				c-0.6-0.8-0.4-1.6,0.3-2.2c0.9-0.7,2.1-0.3,2.8,0.6c0.4-1.1,0.9-1.9,2.4-1.3c1.1,0.5,1.1,1.9-0.1,2.7c-0.4,0.2-1,0.5-1,0.5
				s1,0.6,2.3,0.6c2.4,0,4.3-2.8,3.3-5c-0.2-0.4-0.7-1-0.7-1s0,0.8-0.2,1c-0.5,1.1-1.8,1.1-2.6,0.4c-0.7-0.6-0.5-1.4,0-2
				c0.4-0.4,0.8-0.5,1.3-0.8c-0.6-0.2-1.3-0.4-1.7-1c-0.3-0.6-0.1-1.4,0.7-1.9C70.2,112.4,70.5,112.4,70.8,112.4L70.8,112.4z
				 M129,112.3l0.2,2.4l-2.7-1L129,112.3z M54.5,112.9l1,2.2l-2.5,0L54.5,112.9z M107,112.6c2.4,8.7-0.9,15-7.1,20l-0.7-0.9
				c4.9-4.2,8.5-9.2,6.9-18L107,112.6z M34.6,113.1c0,0,3.7,4.7,3,6.3c-1,1.5-6.7-1.7-6.6-1.9l0.7-0.7c0.9,0.4,3.8,1.9,4.4,1.7
				c0.2-1.4-1.5-3.3-2.1-4.5L34.6,113.1z M78,112.8l27.7,0.3l-0.8,1.5l-2.2,0l-4.2,7.6l-19.9,0.1L78,112.8L78,112.8z M47,113.8
				l-0.9,1.7c-0.9,0.3-3.6,0.3-3.8,0.5c0.3,0.9,0.7,3.5,0.7,3.5l-1.1,1.4c-0.3-1.7-0.8-3.8-1.2-5.4c-0.4-1.3-0.3-1,2.5-1.3
				C44.5,114.2,45.8,114,47,113.8L47,113.8z M52.7,115.8l1.2,2l-2.3,0L52.7,115.8z M24.9,116.1c0.1,0,0.8,0.7,1,1
				c0,0.5-0.9,0.8-1,0.6C24.9,117.7,24.9,116.5,24.9,116.1C24.9,116.1,24.9,116.1,24.9,116.1z M129.4,115.5l0,2.5l-2.7-1.2
				L129.4,115.5z M151.1,116l0,1.6c-9.9,4.9-24.7,18.1-28.8,41.6l-0.9-1C125.6,135.8,140.1,122.5,151.1,116z M51.1,118.8l1.3,1.9
				l-2.2,0.3L51.1,118.8z M129.4,119.1l-0.2,2.2l-2.7-1.5L129.4,119.1z M77.5,119.9c0,0.5,0.1,0.9,0.1,1.5c-6.1,4-8.1,10.3-7.1,18.2
				l-0.8,1.3C67.6,133.6,69.6,124.8,77.5,119.9z M27.3,120.5c0,0,2.4,5.3,1.5,6.5c-0.9,0.7-3-0.5-3.9-1l0-1.3c0,0,0.7,0.4,1.4,0.7
				c1.5,0.6,1.5-0.1,0.7-2.3c-0.3-0.8-0.6-1.7-0.6-1.7L27.3,120.5z M148.5,119.9c0.6,0.4,2.7,0.9,2.7,0.9l0,1.5l-4.2-1.5
				L148.5,119.9z M49.7,122.1l1.6,1.7l-2.2,0.5L49.7,122.1z M146.5,121.7c0.2,0,0.3,0,0.5,0c1.4,0,4.2,1.1,4.2,1.1l0,1.7
				c-1.4-0.4-3-1.2-4.5-1.4c-1.2-0.2-1.1,0.5-1.1,2.1c0,2.2,0.6,4.2,1.7,6.4c0.9,1.8,0.4,2.3-1,1.5c-2.6-1.7-8.1-3.1-8.9-2
				c-0.9,1.1,0.9,6.3,2.9,8.8c0.8,1,0.9,1.2,0.5,1.6c-0.3,0.3-0.8,0.3-1.7,0.1c-2.9-0.9-7-1.1-8.2-0.3c-1.2,0.8,1.9,6,4.5,7.7
				c1.7,1.2,1.4,1.8-1.3,1.9c-4.4,0-7.8,1.1-7.6,2.3c0.3,2.1,3.2,4.9,6.5,6.3c2,0.8,1.2,1.1-0.2,1.6c-2.2,0.8-4.4,2-6.5,3.1l-1-1.3
				c0,0,2.1-1.4,4.4-2.7c0.5-0.3,0.5-0.4-0.2-1.1c-2.5-2-4.3-4.3-4.7-5.9c-0.4-1.5,0.4-2.5,2.6-3.3c1.4-0.5,1.9-0.7,3.1-1
				c1.7-0.4,1.8-0.5,1-1.8c-0.3-0.6-0.9-1.6-1.2-2.2c-2.6-4.5-1.3-6.1,4.8-6.2c1.5-0.1,1.8-0.1,1.7-0.6c-0.3-2.1-1.3-4.5-1.2-6.3
				c0.3-2.7,3-3.4,7.9-2.2c1.1,0.3,1.2,0.2,1-0.7C143.5,125.4,144.3,121.9,146.5,121.7L146.5,121.7z M129.2,122.1l-0.4,2.6l-2.6-1.7
				L129.2,122.1z M32.7,123.3l7.1,0.4l-1.1,1.3l-4.3-0.1l-0.1,3.7l-1.4,1.2L32.7,123.3z M78.9,123.3l5.9,0l0,6.2l-5.8,0L78.9,123.3z
				 M85.9,123.3l5.4,0l0,6.2l-5.4,0.1L85.9,123.3L85.9,123.3z M92.4,123.3l5.8,0l0,6.2l-5.8,0L92.4,123.3z M143.4,123.4
				c-0.1,1.6,0.2,4.5,0.4,5.7c-0.1,0.4-0.4,0.3-1.9,0c-1.1-0.4-4-0.4-4-0.4l1.2-1.3c1,0.1,1.8,0.1,2.9,0.2c0-1.1,0-3,0-3
				L143.4,123.4L143.4,123.4z M48.8,125.2l1.7,1.6l-2.1,0.6L48.8,125.2z M128.7,125.3l-0.6,2.7l-2.4-2.1L128.7,125.3z M147.9,125.3
				c1.2,0,2.2,0.4,3.3,1.3l0,1.4l-2.3-1c0,1.5,1.4,4.3,1.4,4.3l-1.1,0.5c-1-1.6-1.6-3-1.7-4.7C147.4,126.4,147.3,125.3,147.9,125.3z
				 M48,128.5l2,1.1l-2.1,0.9L48,128.5z M128,128.7l-0.9,2.7l-2.1-2.4L128,128.7z M24.9,130.1l5.3,1.7l-0.9,1l-4.4-1.4L24.9,130.1z
				 M98.5,130.4l0.5,9.7l-27.7-0.1l1-1.4l1.8,0l4.7-8L98.5,130.4z M47.7,131.5l2.1,1.4l-2.1,1L47.7,131.5z M151.3,131.7l0,1.6
				c-6.7,5-13.9,13.6-15,28.7l-1.8,1.6C135.3,148.8,141.4,138.6,151.3,131.7z M126.9,131.9l-1,2.5l-1.9-2.3L126.9,131.9z
				 M134.9,132.3c0,1.5,1.2,6,1.2,6c-1.8,0.1-3.6-0.1-5.6,0.5l0.9-1.7c0,0,0.9-0.1,1.6-0.2c1.5-0.3,1.4-0.1,1-1.5
				c-0.3-1.3-0.4-1.5-0.4-1.5S134.7,132.3,134.9,132.3z M140,132.6c1.8,0,4.6,1.6,5.8,2.6l-0.6,0.7c-0.2,0.1-2.7-1.3-4.8-1.6
				c0.7,1.3,1,2.3,2.5,4.3l-0.9,0.9c-0.3-0.1-3.9-5.4-3-6.7C139.2,132.7,139.5,132.6,140,132.6z M32.6,134.5
				c2.5,14.5,8.3,24.5,17.3,33.4l-0.9,1.2c-10.7-9.7-16.5-22-18.1-33.7L32.6,134.5L32.6,134.5z M47.5,135l2,1.1l-2,1.2L47.5,135z
				 M151.3,134.5l0,2.1l-1.2-1.2C150.4,135.1,150.8,134.8,151.3,134.5z M125.5,135.1l-1.3,2.5l-1.7-2.3L125.5,135.1z M149.4,136
				c1.8,0.2,2.4,3.8,1.8,4.5c-0.3-0.4-2.7-1.9-3.8-2.6C147.3,137.7,149,136.1,149.4,136z M120.9,138l2.8,0.2l-1.5,2.4L120.9,138z
				 M47.6,138.4l2.2,1.1l-2,1.4L47.6,138.4z M147.2,138.8c0.4,0,0.8,0.2,1.3,0.4c2,1.1,3.1,2.3,2.9,3.4c0,0.5-0.3,0.6-0.6,0.2
				c-0.6-0.6-2.5-1.5-4.2-1.8c-1.3-0.2-1.4-0.4-1-0.9C146.1,139.3,146.6,138.8,147.2,138.8z M113.1,140.1
				c3.1,11.6,8.6,20.6,15.4,27.9l-1.4,1.2c-5.2-5.9-10.9-12.8-15.6-27.7L113.1,140.1z M119.2,140.7l2.8,0.4l-1.7,2.1L119.2,140.7z
				 M79.2,141c0.3,0-0.9,5-5.4,5.3c-2.9,0.5-3.2,1-3.2,5.4c0,6-1,7.4-5.9,7.8c-3.3,0.3-3.7,0.9-3.1,5.6c0.6,4.5-1.1,6.7-5.3,6.8
				c-3.6,0.3-5.1,2-5,5.3c0,1.3,0,1.7,0,1.7l-2.3,0.2c0,0,0-2.2,0.2-3.3c0.7-4.3,2.5-6.1,6.4-6.1c3-0.2,3.5-0.7,3.3-5.3
				c-0.1-4.6-0.2-4.6,1-5.8c0.8-0.8,1.7-1.1,3.2-1.3c4.9-0.5,5.3-0.8,5.2-5.9c-0.5-4.2,0.7-6.8,3.3-7c5.4-0.5,5.2-3.4,5-3.5
				L79.2,141C79.2,141,79.2,141,79.2,141L79.2,141z M90.2,140.9c3.3,17.1,13.3,33,18.8,38.8l-1.1,0.6c-8-9.9-15.4-21.3-19.1-39.4
				L90.2,140.9L90.2,140.9z M84.5,141l2.5,0l-28.5,40.7l-1.5-1.1L84.5,141L84.5,141z M88,141c2.8,9.8,4.9,19.4,13.5,32.2l-36,0
				L88,141z M98,141c0.2-0.1,1.1,5-0.2,7.3c-1.1,3.2-0.6,5,1.9,6.1c4.2,2,5.3,3.9,4.8,8.8c-0.4,3.4,0.7,5.1,3.9,6.1
				c3.8,1.3,5.5,3.3,5.5,6.7c0,0.5-0.2,1.1-0.2,1.1l-2.1,1.3c0,0,0-0.5,0.1-1c0.5-3.7-0.2-4.8-4.6-6.5c-4.2-1.6-5.2-3.6-4.5-8.4
				c0.2-1.6-0.1-3.1-0.8-4.3c-1.1-1.9-3.5-1.9-5.2-3.7c-1.4-1.5-1.6-3.6-0.4-7.3c0.7-2.2,0.8-3.1,0.2-5c-0.4-1.2-0.5-1.3-0.5-1.3
				L98,141z M47.9,141.8l2.5,0.7l-1.8,1.9L47.9,141.8z M145,141.8c0.8,0,2.5,0.3,3.8,0.9c3.1,1.5,3.6,2.8,0.9,2.1
				c-1.5-0.4-3.7-0.3-5.8,0.3c-2.2,0.6-2.2,0.6-1.4-0.8C143.5,142.6,143.8,141.8,145,141.8z M134,142.5c1.9,0,3.7,0.5,5.5,1.1
				l-0.6,1c-1.2-0.2-2.5-0.8-4.3-0.6c0.8,1.4,1.7,2.2,2.9,3.5l-0.4,1c-0.1,0.1-3.5-2.7-4.2-4.6C132.5,142.9,132.8,142.5,134,142.5z
				 M94,142.9c0.9,0,1.7,0.7,1.7,1.6c0,0.9-0.7,1.7-1.6,1.7c-0.9,0-1.7-0.7-1.7-1.7C92.3,143.6,93.1,142.9,94,142.9z M128.2,142.8
				c0,0,2.7,5.3,2.5,5.5c-1.7,0.7-3.5,1.1-5.3,1.8l0.3-1.5c0,0,0.6,0,2.7-0.8c1-0.4-1.1-3.1-1.1-3.1L128.2,142.8z M117.2,143.2
				l2.8,0.5l-1.9,2.1L117.2,143.2z M65.1,143.5c0.7-0.1,1.7,1.2,1.7,1.2l-3.3,4.7c-1.6-0.3-1.3-2.8,0.2-2.8c0.3,0,1,0.1,1,0.1
				s-0.4-0.2-0.7-0.6C62.8,144.9,63.8,143.7,65.1,143.5z M109.5,144.4c3.9,0,4,4.8,3.3,6.4c-0.5,1.1-1.4,1.7-3.9,2.9
				c-2.2,1-2.4,0.9-2.4,0.9l-0.5-1.2c0,0,1.3-0.6,2.6-1.1c2.8-1.2,3.5-2,3.2-4.1c-0.5-2.9-2.7-3.3-7-1.4c-0.5,0.2-1.1,0.5-1.1,0.5
				l-0.3-0.6c0.1-0.1,3.5-1.9,5.4-2.3C109,144.5,109.3,144.4,109.5,144.4z M48.8,145.3l2.2,0.7l-1.6,1.6L48.8,145.3z M147.8,145.4
				c2,0,3.6,0.3,3.6,1c0,0.3-0.1,0.4-1.8,0.6c-2.7,0.4-7.1,2.7-9.6,4.9c-1.5,1.3-1.1,1-0.5-0.9c0.6-1.8,1.5-4,2-4.3
				C142.7,145.8,145.6,145.4,147.8,145.4z M115.7,145.8l1.9,0.4l-1.2,1.2L115.7,145.8z M109.4,146.9c0.7,0,1,0.3,1.3,0.9
				c0.6,1.4,0,2.2-2.2,3.2c-1,0.4-1.9,1.1-3,1.3l-1.4-3.7c0,0,0.4-0.2,1.9-0.8C107.6,147.2,108.7,146.9,109.4,146.9z M103,147.4
				c4.4,12.4,9.8,20.4,15.5,27l-1.4,0.9c-6-7.1-11.6-15.4-15.7-27.7L103,147.4z M151.3,147.5c0.2,0,0.3,0.1,0.2,0.2
				c0,0.5-7.8,8-12.3,11.9c-2,1.7-2,1.7-2.1,1.5c-0.1-1.3,0.7-5.9,1.2-6.7c3-3.2,7.6-5.8,12.1-6.8
				C150.8,147.5,151.1,147.4,151.3,147.5z M109.1,147.8c-0.5,0-1.3,0.3-2.4,0.8c-1.5,0.6-1.7,1.3-1,2.2c0.3,0.4,0.6,0.3,2.1-0.3
				c1.5-0.6,2.2-0.9,2.3-1.4C110.2,148.2,109.7,147.7,109.1,147.8z M109.2,148.2c0.3,0,0.5,0.2,0.5,0.6c0,0.2-0.3,0.5-0.7,0.5
				c-0.1,0-0.4,0.1-0.6,0.3c-0.2,0.3-0.3,0.6-0.7,0.5c-0.2,0-0.6,0-0.7,0.1c-0.7,0.6-1.4,0.1-1.1-0.5c0.1-0.2,0.4-0.2,0.6-0.2
				c0.2,0,0.6,0,0.7-0.3c0.1-0.3,0.5-0.4,0.8-0.4c0.3,0,0.6-0.1,0.7-0.3C108.9,148.3,109,148.2,109.2,148.2
				C109.1,148.2,109.2,148.2,109.2,148.2L109.2,148.2z M73.6,148.5c0.9,0,1.7,0.7,1.7,1.6c0,0.9-0.7,1.7-1.7,1.7
				c-0.9,0-1.7-0.7-1.7-1.7C72,149.2,72.7,148.5,73.6,148.5z M49.8,148.7l2.5,0.3l-1.6,2L49.8,148.7z M99.7,149.7
				c0.9,0,1.7,0.7,1.7,1.6c0,0.9-0.7,1.7-1.6,1.7c-0.9,0-1.7-0.7-1.7-1.6C98.1,150.4,98.8,149.7,99.7,149.7z M50.9,151.8l2.7,0.2
				l-1.5,2.1L50.9,151.8z M65.2,152.1c0.9,0,1.7,0.7,1.7,1.6c0,0.9-0.7,1.7-1.6,1.7c-0.9,0-1.7-0.7-1.7-1.6
				C63.6,152.9,64.3,152.1,65.2,152.1z M133.1,152.8c1.1,0,2.5,0.1,2.5,0.1l-0.3,1.3c-1.4,0.1-3.1-0.2-4.6,0.4
				c0.6,0.9,3.8,2.2,4.2,2.5c0,0.1-0.3,1.3-0.3,1.3c0.1,0.3-5.5-2.2-5.7-4.4C128.8,153.2,131.2,152.8,133.1,152.8z M114,154.2
				c3.1,0,4.7,4.4,3.5,6.4c-0.5,0.9-1.6,1.9-3,2.9c-0.7,0.4-2.5,1.4-2.5,1.4l-0.8-1.3c0,0,0.7-0.3,1.4-0.7c1.7-1,5.2-3.1,3.5-5.9
				c-1-1.5-2.4-1.8-5.4-0.3c-2.2,1.1-2.7,1.3-2.7,1.3l-0.6-1C107.6,156.9,111.9,154.3,114,154.2z M124.2,154.3
				c1.5,2.9,4.1,5.1,4.8,5.6c0,0-2.5,1.7-4.1,2.7l-0.9-1.1l2.2-1.9l-2.5-3.5L124.2,154.3z M52.5,155l2.5,0l-1,2.2L52.5,155L52.5,155
				z M148.3,154.9c-0.3,1.4-0.3,3-0.4,4.7c0.5,0.5,1,0.7,1.5,0.7c0.5-1.5,0.8-3.2,0.6-5C149.4,154.9,148.8,154.9,148.3,154.9z
				 M149,155.3c0.1,0,0.1,0,0.2,0c0.3,0.2,0.3,0.4,0.3,0.7c0,0.9,0.1,2.1-0.3,3c-0.2,0.5-0.8,0.3-0.8-0.4c0-1,0.2-1.8,0.2-2.6
				C148.7,155.6,148.8,155.4,149,155.3z M113.8,156.8c1.6,0.1,2.3,1.5,1.7,2.4c-1.5,1.9-2.9,2.2-4.9,3.3l-1.9-3.6
				C108.7,159,112.4,156.9,113.8,156.8z M113.8,157.6c-1.1,0.1-1.7,0.7-2.7,1.1c-1.1,0.6-1.5,1.4-0.7,2.2c0.8,0.9,3.7-1.3,4.2-1.8
				c0.3-0.5,0.2-0.9-0.2-1.2C114.3,157.7,114.1,157.6,113.8,157.6z M54.6,158.1l2.4,0l-1.3,1.9L54.6,158.1z M113.7,158.1
				c0.1,0,0.2,0,0.3,0.1c0.4,0.3,0.4,0.8-0.2,1c-0.3,0.1-0.8,0.1-0.8,0.5c0,0.3-0.4,0.4-0.7,0.4c-0.3,0-0.7-0.1-0.8,0.3
				c-0.2,0.4-0.4,0.4-0.7,0.1c-0.3-0.3-0.2-0.8,0.5-0.8c0.3,0,0.5-0.2,0.6-0.4c0-0.3,0.2-0.4,0.5-0.4c0.4,0,0.7-0.2,1-0.6
				C113.5,158.1,113.7,158,113.7,158.1z M99.9,158.3c0.9,0,1.7,0.7,1.7,1.6c0,0.9-0.7,1.7-1.6,1.7c-0.9,0-1.7-0.7-1.7-1.7
				C98.2,159,99,158.3,99.9,158.3z M64.6,161.5c0.9,0,1.7,0.7,1.7,1.7c0,0.9-0.7,1.7-1.7,1.7c-0.9,0-1.7-0.7-1.7-1.6
				C63,162.3,63.7,161.5,64.6,161.5z M134.2,162.5l0,1.3c0,0.1-2.6,1.2-4.1,1.9c-0.5,0.3-0.3,0.8-0.3,1.3l-0.7,0.5
				c0,0-1-0.7-1.2-1.2C127.6,164.8,132.4,163,134.2,162.5z M25.1,163.2l19,12.9l-1.3,1.9l-17.6-11.9L25.1,163.2z M120.1,163.1
				c1.2,0,2.2,0.7,3.1,2.1c1.8,2.8,0.9,5.1-2.8,7.4c-1.7,1.1-1.8,1.1-1.8,1.1l-0.9-1.1c0,0,1.3-0.8,1.8-1.1c3.1-2,3.9-3.7,2.6-5.7
				c-1.3-1.9-2.7-1.7-6.5,0.7c-0.8,0.5-1.7,0.9-1.7,0.9l-0.8-1.1c0,0,2.2-1.1,2.9-1.6C117.6,163.6,119,163.1,120.1,163.1z
				 M106.9,164c0.9,0,1.7,0.7,1.7,1.6c0,0.9-0.7,1.7-1.7,1.7c-0.9,0-1.7-0.7-1.7-1.7C105.2,164.8,106,164,106.9,164z M55.7,164.8
				c0.9,0,1.7,0.7,1.7,1.6c0,0.9-0.7,1.7-1.6,1.7c-0.9,0-1.7-0.7-1.7-1.6C54,165.6,54.7,164.8,55.7,164.8z M120,165.7
				c0.6,0,1.1,0.4,1.4,1c0.7,1.6-0.2,2.8-3.4,4.6c-0.3,0.2-0.8,0.5-0.8,0.5l-2.4-3.3c0,0,0.8-0.6,1.6-1.1
				C118.1,166.3,119.2,165.8,120,165.7z M119.7,166.5c-0.2,0-0.3,0.1-0.5,0.2c-0.8,0.5-2.2,1-2.9,1.9c-0.4,0.5-0.2,1.1,0.5,1.7
				c0.6,0.4,3.8-2,3.9-2.6C120.4,167,120.2,166.5,119.7,166.5z M25.3,167.3l0.5,0.4l-0.5,0.4L25.3,167.3z M119.8,167.1
				c0.2,0,0.4,0.1,0.5,0.2c0.2,0.3,0.1,0.8-0.4,0.9c-0.2,0-0.6,0.1-0.7,0.5c-0.1,0.2-0.4,0.4-0.8,0.4c-0.4-0.1-0.6,0.2-0.6,0.3
				c-0.2,0.3-0.7,0.4-1,0.1c-0.2-0.2,0.2-0.9,0.4-0.9c0,0,0.3,0.1,0.7-0.4c0.1-0.3,0.5-0.6,0.8-0.5c0.3,0.1,0.5-0.2,0.6-0.4
				C119.4,167.1,119.6,167.1,119.8,167.1z M26.6,168.1l0.8,0.5l-2,1.5l0-1.2L26.6,168.1z M28,169l1,0.7l-3.7,2.7l0-1.5L28,169z
				 M30,170.3l1.1,0.7l-5.7,3.9l0-1.5L30,170.3z M32.1,171.3l0,1.3l-6.7,4.8l0-1.3L32.1,171.3z M32.8,172.2l1.4,1l0.6,42.5l-9,6.3
				l0-1.9l7.6-5.6L32.8,172.2L32.8,172.2z M142.2,172.7c-2,2.3-4.8,2.5-7.1,2.5c-6.4,0.1-10.4,0.5-11.2,8.2c2.6-2,5.4-2.2,8.6-2.2
				c4.1,0,5.9-0.3,7.5-1.1c2.6-1.3,4.3-3.7,4-5.4C143.7,174.3,142.8,172.8,142.2,172.7z M32.1,173.7l0,1.5l-6.7,4.6l0-1.5
				L32.1,173.7z M108.9,173.4c0.9,0,1.7,0.7,1.7,1.6c0,0.9-0.7,1.7-1.7,1.7c-0.9,0-1.7-0.7-1.7-1.6
				C107.3,174.2,108,173.4,108.9,173.4z M65,173.8c11.9,0.3,37.2,0,37.2,0l1.4,1.9l-39.7-0.2L65,173.8z M142.5,173.4
				c0.4,0,0.4,0.5-0.3,1.2c-1.4,1.4-2.9,2.1-7.6,2c-4.9-0.1-6.9,0.7-8.1,3c-0.4,0.6-0.4,0.9,0.2,0.4c0.4-0.5,1.5-1.6,1.9-0.6
				c0.8-0.6,1.6-1.4,2-0.3c0.2-0.1,1.7-1.5,2-0.2c0.7-0.8,1.3-1,1.6,0.1c1-0.5,1.5-1.3,2-0.1c0.8-0.6,1.4-1.3,1.8-0.2
				c0.7-0.2,1.3-1.4,1.7-0.4c0.1,0,2.5-1.4,3.1-2.9c0.6-1.3,1.1-0.4,0.4,0.9c-1.6,3.2-4.4,4.3-10.8,4.4c-3.9,0-5.5,0.4-6.7,1.1
				c-1.9,1.2-0.9-1.7,0.4-3.5c1.7-2.2,3.7-2.9,9.1-2.7c2.9,0,4.8-0.4,5.6-1.1C141.6,173.8,142.1,173.5,142.5,173.4z M54.8,174.6
				c0.9,0,1.7,0.7,1.7,1.7c0,0.9-0.7,1.7-1.7,1.7c-0.9,0-1.7-0.7-1.7-1.6C53.1,175.4,53.9,174.7,54.8,174.6z M32.1,176l0,1.5
				l-6.7,4.6l0-1.5L32.1,176z M64.6,176.5l5.2,0l0,5.5l-5.2,0L64.6,176.5z M76.3,176.5l5.6,0l0,5.5l-5.6,0L76.3,176.5z M88.8,176.6
				l5.4,0l0,5.4l-5.4,0L88.8,176.6z M100.6,176.6l3.6,0.1c0,0,2,2.6,2.9,3.7l-2.7,1.4l-3.8,0L100.6,176.6L100.6,176.6z M67.1,177.2
				c-1,0-1.8,0.8-1.8,1.9c0,1,0.8,1.8,1.9,1.8c1,0,1.8-0.8,1.8-1.9C69,178,68.2,177.2,67.1,177.2z M79.1,177.3c-1,0-1.8,0.8-1.8,1.9
				c0,1,0.8,1.8,1.9,1.8c1,0,1.8-0.8,1.8-1.9C81,178.1,80.2,177.3,79.1,177.3z M91.4,177.3c-1,0-1.8,0.8-1.8,1.9
				c0,1,0.8,1.8,1.9,1.8c1,0,1.8-0.8,1.8-1.9C93.3,178.1,92.4,177.3,91.4,177.3z M62.1,177.8c0.4,0.3,0.6,0.7,0.6,1.2
				c0,0.8-0.6,1.4-1.4,1.4c-0.3,0-0.5-0.1-0.8-0.2L62.1,177.8z M67.1,177.8c0.7,0,1.2,0.5,1.2,1.2c0,0.7-0.5,1.2-1.2,1.2
				c-0.7,0-1.2-0.5-1.2-1.2C65.9,178.4,66.5,177.8,67.1,177.8z M97.4,177.7c0.8,0,1.5,0.6,1.5,1.5c0,0.8-0.6,1.5-1.5,1.5
				c-0.8,0-1.5-0.6-1.5-1.5C96,178.3,96.6,177.7,97.4,177.7z M103.7,177.6c-1,0-1.8,0.8-1.8,1.9c0,1,0.8,1.8,1.9,1.8
				c1,0,1.8-0.8,1.8-1.9C105.5,178.4,104.7,177.6,103.7,177.6z M73.1,177.9c0.8,0,1.5,0.7,1.5,1.5c0,0.8-0.6,1.5-1.5,1.5
				s-1.5-0.7-1.5-1.5C71.6,178.5,72.3,177.9,73.1,177.9z M79.2,177.9c0.7,0,1.2,0.5,1.2,1.2c0,0.7-0.5,1.2-1.2,1.2s-1.2-0.5-1.2-1.2
				C77.9,178.5,78.5,177.9,79.2,177.9z M32.1,178.2l0,1.5l-6.7,4.8l0-1.5L32.1,178.2z M91.4,177.9c0.7,0,1.2,0.5,1.2,1.2
				c0,0.7-0.5,1.2-1.2,1.2c-0.7,0-1.2-0.5-1.2-1.2C90.2,178.4,90.8,177.9,91.4,177.9z M85.3,178.1c0.8,0,1.5,0.6,1.5,1.5
				c0,0.8-0.6,1.5-1.5,1.5c-0.8,0-1.5-0.6-1.5-1.5C83.8,178.8,84.5,178.1,85.3,178.1z M103.7,178.3c0.7,0,1.2,0.5,1.2,1.2
				c0,0.7-0.5,1.2-1.2,1.2c-0.7,0-1.2-0.5-1.2-1.2C102.5,178.8,103,178.3,103.7,178.3z M51.3,179.9c3.1-0.1,6.5,1.5,8.5,4.2
				c2.9,3.9,4.9,8.8,5.8,15.3c0.4,3.2,2,12.9,2.9,15.1l-1.2-0.2c-0.2,0.1-1.7-6.1-2.7-14.2c-0.4-3-1-6.9-2.8-10.4
				c-2-4-5.4-8.3-9.9-8.6c-2.6-0.2-5.1,1.5-5.3,3.8c-0.4,1.8,0.7,3.5,2.1,4.1c1.4,0.6,3,0.1,3.2-1.8c0-0.3,0-0.6-0.1-0.9
				c0.6-0.1,1.1,0.2,1.4,0.7c0.1,0,0,2.7-2.1,3.3c-2.6,0.9-5.6-1.7-5.8-4.3c-0.2-2.2,1.5-4.9,3.6-5.7
				C49.6,180,50.4,179.9,51.3,179.9z M32.1,180.8l0,1.5l-6.7,4.7l0-1.5L32.1,180.8z M51.5,181.6c3.8-0.1,7.5,4.1,9,6.8
				c1.6,2.9,2.9,7.5,3.4,11.8c0.8,7.4,2.2,13.4,2.5,13.6l-1-0.2c-0.2,0.1-1.7-6.5-2.6-13.9c-0.5-4.1-2.1-8.2-3.9-11.4
				c-1.7-2.9-4-5.1-6.7-5.4c-1.7-0.2-3.4,0.3-3.7,2.1c-0.2,1.1,0.4,2.1,1.6,2.2c0.3,0,0.6,0,0.6,0c0.6,0.1-0.4,1.2-1.1,1.1
				c-2.4-0.3-3.5-3.5-1.7-5.3C49.2,182.1,50.3,181.7,51.5,181.6z M59.5,182.7l42.3,0.2c0,0,0,0.8-2.6,0.7c-2.2-0.1-3.7,0.2-5.2,0.7
				l-33.2,0.1L59.5,182.7z M32.1,183.3l0,1.4l-6.7,4.8l0-1.6L32.1,183.3z M51.8,183.8c0.8,0,1.6,0.2,2.3,0.5c5.3,3,7.3,10.6,8,15.3
				c1,7,2.1,13.6,2.4,13.7l-1.1-0.2c-0.2,0-1.4-6.1-2.3-12.9c-0.7-5.5-2.6-11.1-6.3-13.4c-2.4-1.6-2.9-1.8-4-0.8
				c-1,0.8-1.9-0.4-1.1-1.4C50.2,184.1,51,183.8,51.8,183.8z M32.1,185.8l0,1.2l-6.7,4.7l0-1.4L32.1,185.8z M62.9,185.7
				c0.1-0.1,3.7,5.9,4.8,15.5c0.6,5,2.4,13.6,2.6,13.6l-1.2-0.1c-1.3-5-2-9.8-2.7-14.1c-0.8-4.9-1.4-9.2-4.5-14.8L62.9,185.7
				C62.9,185.7,62.9,185.7,62.9,185.7L62.9,185.7z M63.7,185.7l1.1,0c1.9,3.6,3.9,9.1,4.7,14.7c0.6,4.8,1.2,9.7,3,14.8l-1.2-0.3
				c-1.5-4.1-2.1-9.2-2.9-14.3C67.5,194.9,66.1,189.9,63.7,185.7z M70.5,185.7c2,5,3.2,7.4,4.1,13.5c0.7,4.8,1.7,10.7,3.9,17l-1.1,0
				c-1.7-4.3-2.9-10.2-3.5-15.8c-0.8-7.6-4.3-14.7-4.3-14.7L70.5,185.7L70.5,185.7z M68.6,185.7c0.1-0.2,3.7,7,4.6,14.8
				c0.6,5.2,1.8,10.4,3.5,15.4l-1.1,0c-1.3-1.5-2.3-8.7-3.5-15.5c-1.1-6.9-2.7-11.1-4.5-14.7L68.6,185.7
				C68.6,185.7,68.6,185.7,68.6,185.7L68.6,185.7z M65.7,185.8l1,0c2.7,5.8,3.8,9.2,4.6,14.8c1.1,7.1,2.1,13.5,3.2,15.1l-1.2-0.1
				c-1.7-5.1-2.5-10.2-3.2-15.3C69.5,194.8,67.9,190.1,65.7,185.8L65.7,185.8z M71.3,185.8l1.2,0c2.1,4.2,3.8,9.3,4.5,15.1
				c0.4,3.2,1,8,3.4,15.5l-1-0.1c-2-5-3.2-10.9-3.9-16.1C74.8,195.1,73.5,190.8,71.3,185.8L71.3,185.8z M78.7,185.8
				c1.2,2.9,2.1,5.8,2.7,8.8l-0.7,1.3c-1.1-3.9-2.3-7-3.5-10.1L78.7,185.8z M73.2,185.8l1.5,0c2.5,5.8,3.9,12,4.2,14.1
				c0,0,0.4,1.8,0.4,2.4c0,5.1,0.8,8.7,2.8,14.2l-0.9-0.1c-2.2-6.4-2.9-10.9-3.4-15.2C77.3,195.8,75.5,190.2,73.2,185.8L73.2,185.8z
				 M76.6,185.8c1.5,3.7,2.7,7.4,3.7,11c0,0.8-0.1,1.7-0.6,2.4c-1.2-4.4-2.3-9-4.2-13.3L76.6,185.8L76.6,185.8z M79.4,185.8l1.2,0
				l2.3,6.6l-0.9,1C81.3,191.3,80.6,188.9,79.4,185.8z M86.1,185.9l0.9,2l-0.9,0.8c0,0-0.9-1.9-1.2-2.7L86.1,185.9z M87.8,185.8
				l0.4,1.1l-0.8,0.6l-0.6-1.7L87.8,185.8z M81.2,185.9l1.2,0c0.5,1.4,1.8,4.8,1.8,4.8l-0.8,0.9C83.3,191.6,81.7,187.3,81.2,185.9
				L81.2,185.9z M83.1,185.9l1,0c0.3,0.9,1.3,3.4,1.3,3.4l-0.7,0.7L83.1,185.9z M88.6,185.9l1,0l-0.1,0.3l-0.6,0.3L88.6,185.9z
				 M54.3,187.6c4.4,2.3,5.6,9.2,6.1,13c0.9,6.7,1.8,12.1,2,12.2l-1-0.2c0,0-0.7-3.4-1.3-6.7c-0.4-2.7-0.8-5-0.9-6
				c-0.1-0.6-0.2-1.4-0.2-1.7c-0.6-2.7-0.8-3.4-1.6-5c-0.8-1.6-1-2-2.3-3.4c-0.5-0.5-1-0.9-1.1-1.3
				C53.8,188.1,54.3,187.6,54.3,187.6z M32.1,188.1l0,1.3l-6.7,4.8l0-1.5L32.1,188.1z M32.2,190.4l0,1.5l-6.7,4.5l0-1.3L32.2,190.4z
				 M32.2,192.9l0,1.4l-6.7,4.8l0-1.4L32.2,192.9z M43.4,194.3l0.6,0l0,1l-0.9,0L43.4,194.3L43.4,194.3z M32.2,195.5l0,1.5l-6.7,4.5
				l0-1.4L32.2,195.5z M42.7,196.1l1.4,0l0,1l-1.8,0L42.7,196.1L42.7,196.1z M41.9,197.7l2.3,0l0,1l-2.9,0L41.9,197.7L41.9,197.7z
				 M32.2,198l0,1.6l-6.7,4.5l0-1.6L32.2,198z M40.7,199.6l3.4,0l0,0.8l-4.1,0L40.7,199.6z M32.2,200.5l0,1.5l-6.7,4.4l0-1.4
				L32.2,200.5z M39.3,201.2l4.7,0l-0.1,0.8l-5.4,0L39.3,201.2z M32.2,202.9l0,1.5l-6.7,4.4l0-1.4L32.2,202.9z M37.6,202.9l6.2,0.1
				l1.3,1.2l-9.6,0.1L37.6,202.9L37.6,202.9z M35.7,205.1l10.6,0.1l0.7,0.7l-11.4,0.1L35.7,205.1z M32.3,205.4l0,1.6l-6.7,4.5l0-1.4
				L32.3,205.4z M35.7,206.8l11.8,0l-0.8,1l-10.9,0.1L35.7,206.8L35.7,206.8z M32.3,208l0,1.4l-6.7,4.6l0-1.6L32.3,208z M35.5,208.7
				l10.2,0l-1.2,0.9l-7,0.2L35.5,208.7L35.5,208.7z M32.3,210.5l0,1.4l-6.7,4.9l0-1.5L32.3,210.5z M38.4,210.6l6,0l0.1,0.8l-5.1,0
				L38.4,210.6z M40.1,212.3l4.6,0l0.2,1l-4.1,0L40.1,212.3L40.1,212.3z M32.3,213l0,1.3l-6.7,4.8l0-1.4L32.3,213z M45,214l0.1,1
				l-2.7,0.1l-0.8-1L45,214L45,214z M45,215.8l0,1l-1.9,0l-0.4-1L45,215.8L45,215.8z M43.3,217.6l1.5,0l-0.1,0.8l-1.2,0L43.3,217.6z
				 M43.8,219.6l0.7,0l-0.1,0.6l-0.4,0L43.8,219.6z M58.7,230.1l-0.4,0.4l10.5-0.1L69,230L58.7,230.1z M72.3,230l-0.2,0.6l4.8,0
				L77,230L72.3,230z M80.1,230.1l-0.1,0.6l12.1-0.1l-0.2-0.6L80.1,230.1z M94.6,230l0.2,0.7l4.1,0l-0.3-0.7L94.6,230z M108.7,229.9
				l-7.2,0l0.3,0.8l7.4,0L108.7,229.9L108.7,229.9z"/>
		</g>
	</g>
</g>
<path fill="#D40000" d="M48.2,64.8c0,0-3.7-6.1-8.7-13.3
	c-3.4-4.8-6-10-6.3-14.5c-0.3-5.1,2.4-10.3,7.3-10.5c4.9-0.2,6.9,3.9,7.7,7.4c0.8-3.5,2.8-7.7,7.7-7.4c4.9,0.2,7.6,5.4,7.3,10.5
	c-0.2,4.5-2.9,9.7-6.3,14.5C51.9,58.7,48.2,64.8,48.2,64.8L48.2,64.8z"/>
<path fill="#D40000" d="M130.6,184.8c0,0-3.7,6.1-8.7,13.3
	c-3.4,4.8-6,10-6.3,14.5c-0.3,5.1,2.4,10.3,7.3,10.5s6.9-3.9,7.7-7.4c0.8,3.5,2.8,7.7,7.7,7.4c4.9-0.2,7.6-5.4,7.3-10.5
	c-0.2-4.5-2.9-9.7-6.3-14.5C134.4,190.9,130.6,184.8,130.6,184.8z"/>
</svg>
