<?xml version="1.0" encoding="utf-8"?>
<!-- Generator: Adobe Illustrator 15.0.2, SVG Export Plug-In . SVG Version: 6.00 Build 0)  -->
<!DOCTYPE svg PUBLIC "-//W3C//DTD SVG 1.1//EN" "http://www.w3.org/Graphics/SVG/1.1/DTD/svg11.dtd">
<svg version="1.1" id="Layer_1" xmlns="http://www.w3.org/2000/svg" xmlns:xlink="http://www.w3.org/1999/xlink" x="0px" y="0px"
	 width="178.7px" height="249.6px" viewBox="0 0 178.7 249.6" enable-background="new 0 0 178.7 249.6" xml:space="preserve">
<path fill="#D40000" d="M14.2,56.2c0,0-1.8-2.6-4.2-5.6
	c-1.6-2-2.9-4.2-3-6.1c-0.1-2.1,1.2-4.3,3.5-4.4c2.3-0.1,3.3,1.6,3.7,3.1c0.4-1.4,1.3-3.2,3.7-3.1c2.3,0.1,3.6,2.2,3.5,4.4
	c-0.1,1.9-1.4,4-3,6.1C15.9,53.7,14.2,56.2,14.2,56.2z"/>
<path fill="#D40000" d="M164.5,193.3c0,0-1.8,2.6-4.2,5.6
	c-1.6,2-2.9,4.2-3,6.1c-0.1,2.1,1.2,4.3,3.5,4.4c2.3,0.1,3.3-1.6,3.7-3.1c0.4,1.4,1.3,3.2,3.7,3.1c2.3-0.1,3.6-2.3,3.5-4.4
	c-0.1-1.9-1.4-4-3-6.1C166.3,195.7,164.5,193.3,164.5,193.3z"/>
<path fill="#D40000" d="M89.4,64.8c0,0-3.7-6.1-8.8-13.3
	c-3.4-4.8-6.1-10-6.3-14.5C74,32,76.7,26.8,81.7,26.6c4.9-0.2,6.9,4,7.7,7.4c0.8-3.5,2.8-7.7,7.7-7.4c4.9,0.2,7.6,5.4,7.4,10.5
	c-0.3,4.5-2.9,9.7-6.3,14.5C93,58.7,89.4,64.8,89.4,64.8z"/>
<path fill="#D40000" d="M89.4,143.8c0,0-3.7-6.1-8.8-13.3
	c-3.4-4.8-6.1-10-6.3-14.5c-0.3-5.1,2.4-10.3,7.4-10.5c4.9-0.2,6.9,4,7.7,7.4c0.8-3.5,2.8-7.7,7.7-7.4c4.9,0.2,7.6,5.4,7.4,10.5
	c-0.3,4.5-2.9,9.7-6.3,14.5C93,137.7,89.4,143.8,89.4,143.8z"/>
<path fill="#D40000" d="M89.4,184.7c0,0-3.7,6.1-8.8,13.3
	c-3.4,4.8-6.1,10-6.3,14.5c-0.3,5.1,2.4,10.3,7.4,10.5c4.9,0.2,6.9-4,7.7-7.4c0.8,3.5,2.8,7.7,7.7,7.4c4.9-0.2,7.6-5.4,7.4-10.5
	c-0.3-4.5-2.9-9.7-6.3-14.5C93,190.8,89.4,184.7,89.4,184.7z"/>
<path fill="#D40000" d="M5.6,32l2-1.5c1.8,2.9,3.7,4.8,6.8,4.4c4.5-0.3,6.4-5.1,5.5-8.6
	c-0.9-3.2-4.7-4.8-7.6-3.1c-0.7,0.4-1.4,0.7-1.5,0.7c-0.3,0-1-1.4-0.9-1.8c2-2.9,6.9-8,6.9-8H9.2v3.4H6.3v-6.1h14.7v2.1
	c0,0-4,4.1-5.3,6.4c3.2,0.1,5.8,2.2,6.8,5.4c0.5,1.7,0.3,5.6-0.4,7.3c-1.2,2.8-4.5,5.1-7.4,5.2C9.6,38.1,6.9,34.6,5.6,32L5.6,32
	L5.6,32z"/>
<path fill="#D40000" d="M173.1,217.5l-2,1.5c-1.8-2.9-3.7-4.8-6.8-4.4c-4.5,0.3-6.4,5.1-5.5,8.6
	c0.9,3.2,4.7,4.8,7.6,3.1c0.7-0.4,1.4-0.7,1.5-0.7c0.3,0,1,1.4,0.9,1.8c-2,2.9-6.9,8-6.9,8h7.6v-3.4h2.9v6.1h-14.6v-2.1
	c0,0,4-4.1,5.3-6.4c-3.2-0.1-5.8-2.2-6.8-5.4c-0.5-1.7-0.3-5.6,0.4-7.3c1.2-2.8,4.5-5.1,7.4-5.2
	C169.1,211.4,171.7,214.9,173.1,217.5L173.1,217.5L173.1,217.5z"/>
</svg>
