<?xml version="1.0" encoding="utf-8"?>
<!-- Generator: Adobe Illustrator 15.0.2, SVG Export Plug-In . SVG Version: 6.00 Build 0)  -->
<!DOCTYPE svg PUBLIC "-//W3C//DTD SVG 1.1//EN" "http://www.w3.org/Graphics/SVG/1.1/DTD/svg11.dtd">
<svg version="1.1" id="Layer_1" xmlns="http://www.w3.org/2000/svg" xmlns:xlink="http://www.w3.org/1999/xlink" x="0px" y="0px"
	 width="178.7px" height="249.6px" viewBox="0 0 178.7 249.6" enable-background="new 0 0 178.7 249.6" xml:space="preserve">
<path fill="#D40000" d="M14.2,56.2c0,0-1.8-2.6-4.2-5.6
	c-1.6-2-2.9-4.2-3-6.1c-0.1-2.1,1.2-4.3,3.5-4.4s3.3,1.6,3.7,3.1c0.4-1.4,1.3-3.2,3.7-3.1c2.3,0.1,3.6,2.2,3.5,4.4
	c-0.1,1.9-1.4,4-3,6.1C16,53.7,14.2,56.2,14.2,56.2z"/>
<path fill="#D40000" d="M164.5,193.3c0,0-1.8,2.6-4.2,5.6
	c-1.6,2-2.9,4.2-3,6.1c-0.1,2.1,1.2,4.3,3.5,4.4s3.3-1.6,3.7-3.1c0.4,1.4,1.3,3.2,3.7,3.1c2.3-0.1,3.6-2.3,3.5-4.4
	c-0.1-1.9-1.4-4-3-6.1C166.3,195.7,164.5,193.3,164.5,193.3z"/>
<path fill="#D40000" d="M48.1,64.8c0,0-3.7-6.1-8.8-13.3
	c-3.4-4.8-6.1-10-6.3-14.5c-0.3-5.1,2.4-10.3,7.4-10.5c4.9-0.2,6.9,4,7.7,7.4c0.8-3.5,2.8-7.7,7.7-7.4c4.9,0.2,7.6,5.4,7.4,10.5
	c-0.3,4.5-2.9,9.7-6.3,14.5C51.8,58.7,48.1,64.8,48.1,64.8z"/>
<path fill="#D40000" d="M130.6,64.8c0,0-3.7-6.1-8.8-13.3
	c-3.4-4.8-6.1-10-6.3-14.5c-0.3-5.1,2.4-10.3,7.4-10.5c4.9-0.2,6.9,4,7.7,7.4c0.8-3.5,2.8-7.7,7.7-7.4c4.9,0.2,7.6,5.4,7.4,10.5
	c-0.3,4.5-2.9,9.7-6.3,14.5C134.4,58.7,130.6,64.8,130.6,64.8z"/>
<path fill="#D40000" d="M89.4,143.8c0,0-3.7-6.1-8.8-13.3
	c-3.4-4.8-6.1-10-6.3-14.5c-0.3-5.1,2.4-10.3,7.4-10.5c4.9-0.2,6.9,4,7.7,7.4c0.8-3.5,2.8-7.7,7.7-7.4c4.9,0.2,7.6,5.4,7.4,10.5
	c-0.3,4.5-2.9,9.7-6.3,14.5C93,137.7,89.4,143.8,89.4,143.8z"/>
<path fill="#D40000" d="M130.6,184.7c0,0-3.7,6.1-8.8,13.3
	c-3.4,4.8-6.1,10-6.3,14.5c-0.3,5.1,2.4,10.3,7.4,10.5c4.9,0.2,6.9-4,7.7-7.4c0.8,3.5,2.8,7.7,7.7,7.4c4.9-0.2,7.6-5.4,7.4-10.5
	c-0.3-4.5-2.9-9.7-6.3-14.5C134.4,190.8,130.6,184.7,130.6,184.7z"/>
<path fill="#D40000" d="M48.1,184.7c0,0-3.7,6.1-8.8,13.3
	c-3.4,4.8-6.1,10-6.3,14.5c-0.3,5.1,2.4,10.3,7.4,10.5c4.9,0.2,6.9-4,7.7-7.4c0.8,3.5,2.8,7.7,7.7,7.4c4.9-0.2,7.6-5.4,7.4-10.5
	c-0.3-4.5-2.9-9.7-6.3-14.5C51.8,190.8,48.1,184.7,48.1,184.7z"/>
<path fill="#D40000" d="M5.9,31h2.6c0.5,1.6,1.6,3.2,3.1,3.7c4.2,1,6.9-1.4,7.8-4.1
	c1.1-3.3,0-8-2.9-9.7c-2.4-1.4-5.9-0.2-7.6,2.7l-1.8-1.1l1-11h11.7v2.6h-9.6l-0.2,4.6c2.1-1.5,5.2-1.5,7.3-0.4
	c3.9,1.9,5.7,6.2,5,11.3c-1.1,5.1-3.4,7.9-8.6,8.3C7.9,37.8,5.8,33.8,5.9,31L5.9,31L5.9,31z"/>
<path fill="#D40000" d="M172.8,218.5h-2.6c-0.5-1.6-1.6-3.2-3.1-3.7c-4.2-1-6.9,1.4-7.8,4.1
	c-1.1,3.3,0,8,2.9,9.7c2.4,1.4,5.9,0.2,7.6-2.7l1.8,1.1l-1,11h-11.7v-2.6h9.6l0.2-4.6c-2.1,1.5-5.2,1.5-7.3,0.4
	c-3.9-1.9-5.7-6.2-5-11.3c1.1-5.1,3.4-7.9,8.6-8.3C170.8,211.7,172.9,215.7,172.8,218.5L172.8,218.5L172.8,218.5z"/>
</svg>
