<?xml version="1.0" encoding="utf-8"?>
<!-- Generator: Adobe Illustrator 15.0.2, SVG Export Plug-In . SVG Version: 6.00 Build 0)  -->
<!DOCTYPE svg PUBLIC "-//W3C//DTD SVG 1.1//EN" "http://www.w3.org/Graphics/SVG/1.1/DTD/svg11.dtd">
<svg version="1.1" id="Layer_1" xmlns="http://www.w3.org/2000/svg" xmlns:xlink="http://www.w3.org/1999/xlink" x="0px" y="0px"
	 width="178.7px" height="249.6px" viewBox="0 0 178.7 249.6" enable-background="new 0 0 178.7 249.6" xml:space="preserve">
<path fill="#D40000" d="M14.1,56.2c0,0-1.8-2.6-4.2-5.6
	c-1.6-2-2.9-4.2-3-6.1c-0.1-2.1,1.2-4.3,3.5-4.4c2.3-0.1,3.3,1.6,3.7,3.1c0.4-1.4,1.3-3.2,3.7-3.1c2.3,0.1,3.6,2.2,3.5,4.4
	c-0.1,1.9-1.4,4-3,6.1C15.9,53.7,14.1,56.2,14.1,56.2z"/>
<path fill="#D40000" d="M164.6,193.3c0,0-1.8,2.6-4.2,5.6
	c-1.6,2-2.9,4.2-3,6.1c-0.1,2.1,1.2,4.3,3.5,4.4c2.3,0.1,3.3-1.6,3.7-3.1c0.4,1.4,1.3,3.2,3.7,3.1c2.3-0.1,3.6-2.3,3.5-4.4
	c-0.1-1.9-1.4-4-3-6.1C166.3,195.8,164.6,193.3,164.6,193.3z"/>
<path fill="#D40000" d="M89.3,104.4c0,0-3.7-6.1-8.8-13.3
	c-3.4-4.8-6.1-10-6.3-14.5c-0.3-5.1,2.4-10.3,7.4-10.5c4.9-0.2,6.9,4,7.7,7.4c0.8-3.5,2.8-7.7,7.7-7.4c4.9,0.2,7.6,5.4,7.4,10.5
	c-0.3,4.5-2.9,9.7-6.3,14.5C93.1,98.2,89.3,104.4,89.3,104.4z"/>
<path fill="#D40000" d="M48.1,64.8c0,0-3.7-6.1-8.8-13.3
	c-3.4-4.8-6.1-10-6.3-14.5c-0.3-5.1,2.4-10.3,7.4-10.5c4.9-0.2,6.9,4,7.7,7.4c0.8-3.5,2.8-7.7,7.7-7.4c4.9,0.2,7.6,5.4,7.4,10.5
	c-0.3,4.5-2.9,9.7-6.3,14.5C51.9,58.7,48.1,64.8,48.1,64.8z"/>
<path fill="#D40000" d="M130.6,143.8c0,0-3.7-6.1-8.8-13.3
	c-3.4-4.8-6.1-10-6.3-14.5c-0.3-5.1,2.4-10.3,7.4-10.5c4.9-0.2,6.9,4,7.7,7.4c0.8-3.5,2.8-7.7,7.7-7.4c4.9,0.2,7.6,5.4,7.4,10.5
	c-0.3,4.5-2.9,9.7-6.3,14.5C134.3,137.8,130.6,143.8,130.6,143.8z"/>
<path fill="#D40000" d="M130.6,64.8c0,0-3.7-6.1-8.8-13.3
	c-3.4-4.8-6.1-10-6.3-14.5c-0.3-5.1,2.4-10.3,7.4-10.5c4.9-0.2,6.9,4,7.7,7.4c0.8-3.5,2.8-7.7,7.7-7.4c4.9,0.2,7.6,5.4,7.4,10.5
	c-0.3,4.5-2.9,9.7-6.3,14.5C134.3,58.7,130.6,64.8,130.6,64.8z"/>
<path fill="#D40000" d="M48.1,143.8c0,0-3.7-6.1-8.8-13.3
	c-3.4-4.8-6.1-10-6.3-14.5c-0.3-5.1,2.4-10.3,7.4-10.5c4.9-0.2,6.9,4,7.7,7.4c0.8-3.5,2.8-7.7,7.7-7.4c4.9,0.2,7.6,5.4,7.4,10.5
	c-0.3,4.5-2.9,9.7-6.3,14.5C51.9,137.8,48.1,143.8,48.1,143.8z"/>
<path fill="#D40000" d="M130.6,184.7c0,0-3.7,6.1-8.8,13.3
	c-3.4,4.8-6.1,10-6.3,14.5c-0.3,5.1,2.4,10.3,7.4,10.5c4.9,0.2,6.9-4,7.7-7.4c0.8,3.5,2.8,7.7,7.7,7.4c4.9-0.2,7.6-5.4,7.4-10.5
	c-0.3-4.5-2.9-9.7-6.3-14.5C134.3,190.8,130.6,184.7,130.6,184.7z"/>
<path fill="#D40000" d="M48.1,184.7c0,0-3.7,6.1-8.8,13.3
	c-3.4,4.8-6.1,10-6.3,14.5c-0.3,5.1,2.4,10.3,7.4,10.5c4.9,0.2,6.9-4,7.7-7.4c0.8,3.5,2.8,7.7,7.7,7.4c4.9-0.2,7.6-5.4,7.4-10.5
	c-0.3-4.5-2.9-9.7-6.3-14.5C51.9,190.8,48.1,184.7,48.1,184.7z"/>
<path fill="#D40000" d="M10.2,37.8c1.7-9.2,3.6-16,8.4-23.4H8.7v3.2H6.1v-6.1h14.3l1.8,2.8
	c-5.2,5.6-9.9,23.7-9,23.4L10.2,37.8L10.2,37.8z"/>
<path fill="#D40000" d="M168.5,211.7c-1.7,9.2-3.6,16-8.4,23.4h9.9V232h2.6v6.1h-14.3l-1.8-2.8
	c5.2-5.6,9.9-23.7,9-23.4L168.5,211.7L168.5,211.7z"/>
</svg>
