<?xml version="1.0" encoding="utf-8"?>
<!-- Generator: Adobe Illustrator 15.0.2, SVG Export Plug-In . SVG Version: 6.00 Build 0)  -->
<!DOCTYPE svg PUBLIC "-//W3C//DTD SVG 1.1//EN" "http://www.w3.org/Graphics/SVG/1.1/DTD/svg11.dtd">
<svg version="1.1" id="Layer_1" xmlns="http://www.w3.org/2000/svg" xmlns:xlink="http://www.w3.org/1999/xlink" x="0px" y="0px"
	 width="178.7px" height="249.6px" viewBox="0 0 178.7 249.6" enable-background="new 0 0 178.7 249.6" xml:space="preserve">
<path fill="#D40000" d="M14.2,56.2c0,0-1.8-2.6-4.2-5.6
	c-1.6-2-2.9-4.2-3-6.1c-0.1-2.1,1.2-4.3,3.5-4.4c2.3-0.1,3.3,1.6,3.7,3.1c0.4-1.4,1.3-3.2,3.7-3.1c2.3,0.1,3.6,2.2,3.5,4.4
	c-0.1,1.9-1.4,4-3,6.1C16,53.7,14.2,56.2,14.2,56.2z"/>
<path fill="#D40000" d="M164.5,193.3c0,0-1.8,2.6-4.2,5.6c-1.6,2-2.9,4.2-3,6.1
	c-0.1,2.1,1.2,4.3,3.5,4.4s3.3-1.6,3.7-3.1c0.4,1.4,1.3,3.2,3.7,3.1c2.3-0.1,3.6-2.3,3.5-4.4c-0.1-1.9-1.4-4-3-6.1
	C166.3,195.7,164.5,193.3,164.5,193.3z"/>
<path fill="#D40000" d="M89.3,104.3c0,0-3.7-6.1-8.8-13.3
	c-3.4-4.8-6.1-10-6.3-14.5c-0.3-5.1,2.4-10.3,7.4-10.5c4.9-0.2,6.9,4,7.7,7.4c0.8-3.5,2.8-7.7,7.7-7.4c4.9,0.2,7.6,5.4,7.4,10.5
	c-0.2,4.5-2.9,9.7-6.3,14.5C93,98.2,89.3,104.3,89.3,104.3z"/>
<path fill="#D40000" d="M48.1,64.8c0,0-3.7-6.1-8.8-13.3
	c-3.4-4.8-6.1-10-6.3-14.5c-0.3-5.1,2.4-10.3,7.4-10.5c4.9-0.2,6.9,4,7.7,7.4c0.8-3.5,2.8-7.7,7.7-7.4c4.9,0.2,7.6,5.4,7.4,10.5
	c-0.3,4.5-2.9,9.7-6.3,14.5C51.8,58.7,48.1,64.8,48.1,64.8z"/>
<path fill="#D40000" d="M130.5,143.8c0,0-3.7-6.1-8.8-13.3
	c-3.4-4.8-6.1-10-6.3-14.5c-0.3-5.1,2.4-10.3,7.4-10.5c4.9-0.2,6.9,4,7.7,7.4c0.8-3.5,2.8-7.7,7.7-7.4c4.9,0.2,7.6,5.4,7.4,10.5
	c-0.2,4.5-2.9,9.7-6.3,14.5C134.3,137.7,130.5,143.8,130.5,143.8z"/>
<path fill="#D40000" d="M130.5,64.8c0,0-3.7-6.1-8.8-13.3
	c-3.4-4.8-6.1-10-6.3-14.5c-0.3-5.1,2.4-10.3,7.4-10.5c4.9-0.2,6.9,4,7.7,7.4c0.8-3.5,2.8-7.7,7.7-7.4c4.9,0.2,7.6,5.4,7.4,10.5
	c-0.2,4.5-2.9,9.7-6.3,14.5C134.3,58.7,130.5,64.8,130.5,64.8z"/>
<path fill="#D40000" d="M48.1,143.8c0,0-3.7-6.1-8.8-13.3
	c-3.4-4.8-6.1-10-6.3-14.5c-0.3-5.1,2.4-10.3,7.4-10.5c4.9-0.2,6.9,4,7.7,7.4c0.8-3.5,2.8-7.7,7.7-7.4c4.9,0.2,7.6,5.4,7.4,10.5
	c-0.3,4.5-2.9,9.7-6.3,14.5C51.8,137.7,48.1,143.8,48.1,143.8z"/>
<path fill="#D40000" d="M89.3,145.1c0,0-3.7,6.1-8.8,13.3
	c-3.4,4.8-6.1,10-6.3,14.5c-0.3,5.1,2.4,10.3,7.4,10.5c4.9,0.2,6.9-4,7.7-7.4c0.8,3.5,2.8,7.7,7.7,7.4c4.9-0.2,7.6-5.4,7.4-10.5
	c-0.2-4.5-2.9-9.7-6.3-14.5C93,151.3,89.3,145.1,89.3,145.1L89.3,145.1z"/>
<path fill="#D40000" d="M130.5,184.7c0,0-3.7,6.1-8.8,13.3
	c-3.4,4.8-6.1,10-6.3,14.5c-0.3,5.1,2.4,10.3,7.4,10.5c4.9,0.2,6.9-4,7.7-7.4c0.8,3.5,2.8,7.7,7.7,7.4c4.9-0.2,7.6-5.4,7.4-10.5
	c-0.2-4.5-2.9-9.7-6.3-14.5C134.3,190.8,130.5,184.7,130.5,184.7z"/>
<path fill="#D40000" d="M48.1,184.7c0,0-3.7,6.1-8.8,13.3
	c-3.4,4.8-6.1,10-6.3,14.5c-0.3,5.1,2.4,10.3,7.4,10.5c4.9,0.2,6.9-4,7.7-7.4c0.8,3.5,2.8,7.7,7.7,7.4c4.9-0.2,7.6-5.4,7.4-10.5
	c-0.3-4.5-2.9-9.7-6.3-14.5C51.8,190.8,48.1,184.7,48.1,184.7z"/>
<path fill="#D40000" d="M5.6,30.1c0.1-3.5,1.4-4.9,3.9-6.7c-2-1.5-2.9-3.6-2.7-5.4
	c0.4-4.4,3.8-6.6,7.5-6.5c3.7,0.1,6.9,3,7.2,6.3c0.2,2.8-0.6,4.1-2.6,5.6c2.3,2,3.8,3.3,3.8,6.8c-0.1,3.5-3,7.6-8.2,7.8
	C9.4,37.9,5.5,33.6,5.6,30.1L5.6,30.1L5.6,30.1z M20,30.1c0.2-3.2-2.6-5.4-5.8-5.4c-3.1,0-5.9,2.6-5.9,5.5c0,3.1,3.6,4.8,6,4.8
	C17.1,35,19.8,32.8,20,30.1L20,30.1L20,30.1z M18.9,18.6c0.1-2.7-2.4-4.6-5-4.6c-2.3,0.1-4.7,1.8-4.7,4.1c0,2.8,2.8,4.2,5.1,4.3
	C16.5,22.5,18.9,20.6,18.9,18.6L18.9,18.6L18.9,18.6z"/>
<path fill="#D40000" d="M155.9,219.4c0.1,3.5,1.4,4.9,3.9,6.7c-2,1.5-2.9,3.6-2.7,5.4
	c0.4,4.4,3.8,6.6,7.5,6.5s6.9-3,7.2-6.3c0.2-2.8-0.6-4.1-2.6-5.6c2.3-2,3.8-3.3,3.8-6.8c-0.1-3.5-3-7.6-8.2-7.8
	C159.7,211.6,155.8,215.9,155.9,219.4L155.9,219.4L155.9,219.4z M170.4,219.4c0.2,3.2-2.6,5.4-5.8,5.4c-3.1,0-5.9-2.6-5.9-5.5
	c0-3.1,3.6-4.8,6-4.8C167.5,214.5,170.2,216.7,170.4,219.4L170.4,219.4z M169.4,230.8c0.1,2.7-2.4,4.6-5,4.6
	c-2.3-0.1-4.7-1.8-4.7-4.1c0-2.8,2.8-4.2,5.1-4.3C166.9,226.9,169.3,228.8,169.4,230.8L169.4,230.8L169.4,230.8z"/>
</svg>
