<?xml version="1.0" encoding="utf-8"?>
<!-- Generator: Adobe Illustrator 15.0.2, SVG Export Plug-In . SVG Version: 6.00 Build 0)  -->
<!DOCTYPE svg PUBLIC "-//W3C//DTD SVG 1.1//EN" "http://www.w3.org/Graphics/SVG/1.1/DTD/svg11.dtd">
<svg version="1.1" id="Layer_1" xmlns="http://www.w3.org/2000/svg" xmlns:xlink="http://www.w3.org/1999/xlink" x="0px" y="0px"
	 width="178.7px" height="249.6px" viewBox="0 0 178.7 249.6" enable-background="new 0 0 178.7 249.6" xml:space="preserve">
<path fill="#D40000" d="M14.3,56.2c0,0-1.8-2.6-4.2-5.6
	c-1.6-2-2.9-4.2-3-6.1c-0.1-2.1,1.2-4.3,3.5-4.4s3.3,1.6,3.7,3.1c0.4-1.4,1.3-3.2,3.7-3.1c2.3,0.1,3.6,2.2,3.5,4.4
	c-0.1,1.9-1.4,4-3,6.1C15.9,53.7,14.3,56.2,14.3,56.2z"/>
<path fill="#D40000" d="M164.6,193.3c0,0-1.8,2.6-4.2,5.6
	c-1.6,2-2.9,4.2-3,6.1c-0.1,2.1,1.2,4.3,3.5,4.4s3.3-1.6,3.7-3.1c0.4,1.4,1.3,3.2,3.7,3.1c2.3-0.1,3.6-2.3,3.5-4.4
	c-0.1-1.9-1.4-4-3-6.1C166.4,195.7,164.6,193.3,164.6,193.3z"/>
<path fill="#D40000" d="M48.2,64.8c0,0-3.7-6.1-8.8-13.3
	c-3.4-4.8-6.1-10-6.3-14.5c-0.3-5.1,2.4-10.3,7.4-10.5c4.9-0.2,6.9,4,7.7,7.4c0.8-3.5,2.8-7.7,7.7-7.4c4.9,0.2,7.6,5.4,7.4,10.5
	c-0.3,4.5-2.9,9.7-6.3,14.5C51.9,58.7,48.2,64.8,48.2,64.8z"/>
<path fill="#D40000" d="M130.6,143.8c0,0-3.7-6.1-8.8-13.3
	c-3.4-4.8-6.1-10-6.3-14.5c-0.3-5.1,2.4-10.3,7.4-10.5c4.9-0.2,6.9,4,7.7,7.4c0.8-3.5,2.8-7.7,7.7-7.4c4.9,0.2,7.6,5.4,7.4,10.5
	c-0.3,4.5-2.9,9.7-6.3,14.5C134.3,137.7,130.6,143.8,130.6,143.8z"/>
<path fill="#D40000" d="M130.6,64.8c0,0-3.7-6.1-8.8-13.3
	c-3.4-4.8-6.1-10-6.3-14.5c-0.3-5.1,2.4-10.3,7.4-10.5c4.9-0.2,6.9,4,7.7,7.4c0.8-3.5,2.8-7.7,7.7-7.4c4.9,0.2,7.6,5.4,7.4,10.5
	c-0.3,4.5-2.9,9.7-6.3,14.5C134.3,58.7,130.6,64.8,130.6,64.8z"/>
<path fill="#D40000" d="M48.2,143.8c0,0-3.7-6.1-8.8-13.3
	c-3.4-4.8-6.1-10-6.3-14.5c-0.3-5.1,2.4-10.3,7.4-10.5c4.9-0.2,6.9,4,7.7,7.4c0.8-3.5,2.8-7.7,7.7-7.4c4.9,0.2,7.6,5.4,7.4,10.5
	c-0.3,4.5-2.9,9.7-6.3,14.5C51.9,137.7,48.2,143.8,48.2,143.8z"/>
<path fill="#D40000" d="M130.6,184.7c0,0-3.7,6.1-8.8,13.3
	c-3.4,4.8-6.1,10-6.3,14.5c-0.3,5.1,2.4,10.3,7.4,10.5c4.9,0.2,6.9-4,7.7-7.4c0.8,3.5,2.8,7.7,7.7,7.4c4.9-0.2,7.6-5.4,7.4-10.5
	c-0.3-4.5-2.9-9.7-6.3-14.5C134.3,190.8,130.6,184.7,130.6,184.7z"/>
<path fill="#D40000" d="M48.2,184.7c0,0-3.7,6.1-8.8,13.3
	c-3.4,4.8-6.1,10-6.3,14.5c-0.3,5.1,2.4,10.3,7.4,10.5c4.9,0.2,6.9-4,7.7-7.4c0.8,3.5,2.8,7.7,7.7,7.4c4.9-0.2,7.6-5.4,7.4-10.5
	c-0.3-4.5-2.9-9.7-6.3-14.5C51.9,190.8,48.2,184.7,48.2,184.7z"/>
<path fill="#D40000" d="M6.5,29.7c-0.3-2.2-0.3-8-0.1-9.7c0.8-5.2,2.8-7.6,6.1-8.4
	c3.2-0.8,7.8,0.1,8.8,4.4l-2.7,0.1c-1.5-2.9-5.2-2.2-7.2-0.9c-1.7,1-2.4,5.3-2.1,5.5c0,0,3.1-2.3,5.6-2.2c5.3,0.6,7.5,5.1,7.3,9.5
	c-0.2,5.2-1.8,9.4-7.4,9.7C9.5,37.6,7,34.7,6.5,29.7L6.5,29.7L6.5,29.7z M19.6,28.3c0-3.6-1.6-6.3-4.7-6.6c-3.1-0.3-6.2,2.7-6,6.4
	s1.7,6.8,5.4,6.8C18.3,34.9,19.6,30.9,19.6,28.3L19.6,28.3L19.6,28.3z"/>
<path fill="#D40000" d="M172.2,219.8c0.3,2.2,0.3,8,0.1,9.7c-0.8,5.2-2.8,7.6-6.1,8.4
	c-3.2,0.8-7.8-0.1-8.8-4.4l2.7-0.1c1.5,2.9,5.2,2.2,7.2,0.9c1.7-1,2.4-5.3,2.1-5.5c0,0-3.1,2.3-5.6,2.2c-5.3-0.6-7.5-5.1-7.3-9.5
	c0.2-5.2,1.8-9.4,7.4-9.7C169.4,211.9,171.7,214.8,172.2,219.8L172.2,219.8L172.2,219.8z M159.2,221.2c0,3.6,1.6,6.3,4.7,6.6
	s6.2-2.7,6-6.4c-0.2-3.7-1.7-6.8-5.4-6.8C160.5,214.6,159.2,218.6,159.2,221.2L159.2,221.2L159.2,221.2z"/>
</svg>
