<?xml version="1.0" encoding="utf-8"?>
<!-- Generator: Adobe Illustrator 15.0.2, SVG Export Plug-In . SVG Version: 6.00 Build 0)  -->
<!DOCTYPE svg PUBLIC "-//W3C//DTD SVG 1.1//EN" "http://www.w3.org/Graphics/SVG/1.1/DTD/svg11.dtd">
<svg version="1.1" id="Layer_1" xmlns="http://www.w3.org/2000/svg" xmlns:xlink="http://www.w3.org/1999/xlink" x="0px" y="0px"
	 width="178.7px" height="249.6px" viewBox="0 0 178.7 249.6" enable-background="new 0 0 178.7 249.6" xml:space="preserve">
<path fill="#D40000" d="M48.1,117.5c0,0-3.7-6.1-8.8-13.3
	c-3.4-4.8-6.1-10-6.3-14.5c-0.3-5.1,2.4-10.3,7.4-10.5c4.9-0.2,6.9,4,7.7,7.4c0.8-3.5,2.8-7.7,7.7-7.4c4.9,0.2,7.6,5.4,7.4,10.5
	c-0.2,4.5-2.9,9.7-6.3,14.5C51.9,111.4,48.1,117.5,48.1,117.5z"/>
<path fill="#D40000" d="M14.2,56.2c0,0-1.8-2.6-4.2-5.6
	c-1.6-2-2.9-4.2-3-6.1c-0.1-2.1,1.2-4.3,3.5-4.4c2.3-0.1,3.3,1.6,3.7,3.1c0.4-1.4,1.3-3.2,3.7-3.1c2.3,0.1,3.6,2.2,3.5,4.4
	c-0.1,1.9-1.4,4-3,6.1C16,53.7,14.2,56.2,14.2,56.2z"/>
<path fill="#D40000" d="M164.6,193.3c0,0-1.8,2.6-4.2,5.6
	c-1.6,2-2.9,4.2-3,6.1c-0.1,2.1,1.2,4.3,3.5,4.4c2.3,0.1,3.3-1.6,3.7-3.1c0.4,1.4,1.3,3.2,3.7,3.1c2.3-0.1,3.6-2.3,3.5-4.4
	c-0.1-1.9-1.4-4-3-6.1C166.3,195.7,164.6,193.3,164.6,193.3z"/>
<path fill="#D40000" d="M89.3,98.8c0,0-3.7-6.1-8.8-13.3
	c-3.4-4.8-6.1-10-6.3-14.5C74,66,76.7,60.8,81.7,60.6c4.9-0.2,6.9,4,7.7,7.4c0.8-3.5,2.8-7.7,7.7-7.4c4.9,0.2,7.6,5.4,7.4,10.5
	c-0.2,4.5-2.9,9.7-6.3,14.5C93.1,92.7,89.3,98.8,89.3,98.8L89.3,98.8z"/>
<path fill="#D40000" d="M48.1,64.8c0,0-3.7-6.1-8.8-13.3
	c-3.4-4.8-6.1-10-6.3-14.5c-0.3-5.1,2.4-10.3,7.4-10.5c4.9-0.2,6.9,4,7.7,7.4c0.8-3.5,2.8-7.7,7.7-7.4c4.9,0.2,7.6,5.4,7.4,10.5
	c-0.2,4.5-2.9,9.7-6.3,14.5C51.9,58.7,48.1,64.8,48.1,64.8z"/>
<path fill="#D40000" d="M130.5,117.5c0,0-3.7-6.1-8.8-13.3
	c-3.4-4.8-6.1-10-6.3-14.5c-0.3-5.1,2.4-10.3,7.4-10.5c4.9-0.2,6.9,4,7.7,7.4c0.8-3.5,2.8-7.7,7.7-7.4c4.9,0.2,7.6,5.4,7.4,10.5
	c-0.2,4.5-2.9,9.7-6.3,14.5C134.3,111.4,130.5,117.5,130.5,117.5z"/>
<path fill="#D40000" d="M130.5,64.8c0,0-3.7-6.1-8.8-13.3
	c-3.4-4.8-6.1-10-6.3-14.5c-0.3-5.1,2.4-10.3,7.4-10.5c4.9-0.2,6.9,4,7.7,7.4c0.8-3.5,2.8-7.7,7.7-7.4c4.9,0.2,7.6,5.4,7.4,10.5
	c-0.2,4.5-2.9,9.7-6.3,14.5C134.3,58.7,130.5,64.8,130.5,64.8z"/>
<path fill="#D40000" d="M89.3,150.7c0,0-3.7,6.1-8.8,13.3
	c-3.4,4.8-6.1,10-6.3,14.5c-0.3,5.1,2.4,10.3,7.4,10.5c4.9,0.2,6.9-4,7.7-7.4c0.8,3.5,2.8,7.7,7.7,7.4c4.9-0.2,7.6-5.4,7.4-10.5
	c-0.2-4.5-2.9-9.7-6.3-14.5C93.1,156.8,89.3,150.7,89.3,150.7z"/>
<path fill="#D40000" d="M130.5,132c0,0-3.7,6.1-8.8,13.3
	c-3.4,4.8-6.1,10-6.3,14.5c-0.3,5.1,2.4,10.3,7.4,10.5c4.9,0.2,6.9-4,7.7-7.4c0.8,3.5,2.8,7.7,7.7,7.4c4.9-0.2,7.6-5.4,7.4-10.5
	c-0.2-4.5-2.9-9.7-6.3-14.5C134.3,138,130.5,132,130.5,132z"/>
<path fill="#D40000" d="M48.1,132c0,0-3.7,6.1-8.8,13.3
	c-3.4,4.8-6.1,10-6.3,14.5c-0.3,5.1,2.4,10.3,7.4,10.5c4.9,0.2,6.9-4,7.7-7.4c0.8,3.5,2.8,7.7,7.7,7.4c4.9-0.2,7.6-5.4,7.4-10.5
	c-0.2-4.5-2.9-9.7-6.3-14.5C51.9,138,48.1,132,48.1,132z"/>
<path fill="#D40000" d="M130.5,184.7c0,0-3.7,6.1-8.8,13.3
	c-3.4,4.8-6.1,10-6.3,14.5c-0.3,5.1,2.4,10.3,7.4,10.5c4.9,0.2,6.9-4,7.7-7.4c0.8,3.5,2.8,7.7,7.7,7.4c4.9-0.2,7.6-5.4,7.4-10.5
	c-0.2-4.5-2.9-9.7-6.3-14.5C134.3,190.8,130.5,184.7,130.5,184.7z"/>
<path fill="#D40000" d="M48.1,184.7c0,0-3.7,6.1-8.8,13.3
	c-3.4,4.8-6.1,10-6.3,14.5c-0.3,5.1,2.4,10.3,7.4,10.5c4.9,0.2,6.9-4,7.7-7.4c0.8,3.5,2.8,7.7,7.7,7.4c4.9-0.2,7.6-5.4,7.4-10.5
	c-0.2-4.5-2.9-9.7-6.3-14.5C51.9,190.8,48.1,184.7,48.1,184.7z"/>
<g id="path31-8-2-9-8">
	<path fill="#D40000" d="M6.2,37.7V11.4h2.6v26.3H6.2z"/>
</g>
<g id="path33-2-3-1-6">
	<path fill="#D40000" d="M16.3,11.4c-2.5,0-4.4,2.2-4.4,5v16.2c0,2.8,2,5,4.4,5h1.4
		c2.5,0,4.4-2.2,4.4-5V16.4c0-2.8-2-5-4.4-5H16.3z M17.1,13.9c1.5,0,2.6,1.1,2.6,2.5v16.4c0,1.4-1.2,2.5-2.6,2.5
		c-1.5,0-2.6-1.1-2.6-2.5V16.4C14.4,15,15.6,13.9,17.1,13.9L17.1,13.9z"/>
</g>
<g id="g10963-5-1" transform="translate(-5.30767,-0.32920043)">
	<g id="path31-1-3-2-1-5">
		<path fill="#D40000" d="M177.9,212v26.3h-2.6V212H177.9z"/>
	</g>
	<g id="path33-5-5-3-3-1">
		<path fill="#D40000" d="M167.7,238.3c2.5,0,4.4-2.3,4.4-5v-16.2c0-2.8-2-5-4.4-5h-1.4
			c-2.5,0-4.4,2.2-4.4,5v16.2c0,2.8,2,5,4.4,5H167.7z M167,235.8c-1.5,0-2.6-1.1-2.6-2.5v-16.4c0-1.4,1.2-2.5,2.6-2.5
			c1.5,0,2.6,1.1,2.6,2.5v16.4C169.6,234.7,168.4,235.8,167,235.8L167,235.8z"/>
	</g>
</g>
</svg>
