<?xml version="1.0" encoding="utf-8"?>
<!-- Generator: Adobe Illustrator 15.0.2, SVG Export Plug-In . SVG Version: 6.00 Build 0)  -->
<!DOCTYPE svg PUBLIC "-//W3C//DTD SVG 1.1//EN" "http://www.w3.org/Graphics/SVG/1.1/DTD/svg11.dtd">
<svg version="1.1" id="Layer_1" xmlns="http://www.w3.org/2000/svg" xmlns:xlink="http://www.w3.org/1999/xlink" x="0px" y="0px"
	 width="178.8px" height="249.6px" viewBox="0 0 178.8 249.6" enable-background="new 0 0 178.8 249.6" xml:space="preserve">
<path fill="#D40000" d="M14.2,56.3c0,0-1.8-2.5-4.2-5.5
	c-1.6-2-2.9-4.2-3-6c-0.1-2.1,1.2-4.3,3.5-4.4c2.3-0.1,3.3,1.6,3.7,3.1c0.4-1.4,1.3-3.2,3.7-3.1c2.3,0.1,3.6,2.2,3.5,4.4
	c-0.1,1.9-1.4,4-3,6C16,53.7,14.2,56.3,14.2,56.3z"/>
<path fill="#D40000" d="M164.6,193.3c0,0-1.8,2.5-4.2,5.5
	c-1.6,2-2.9,4.2-3,6c-0.1,2.1,1.2,4.3,3.5,4.4c2.3,0.1,3.3-1.6,3.7-3.1c0.4,1.4,1.3,3.2,3.7,3.1c2.3-0.1,3.6-2.2,3.5-4.4
	c-0.1-1.9-1.4-4-3-6C166.3,195.9,164.6,193.3,164.6,193.3L164.6,193.3z"/>
<path fill="#D40000" d="M16.1,35.9h2.6l-3.9-9.7l-3,4.1v5.6h2.1v2.9H6.6v-2.9H9V15H6.6v-2.5h7.5
	v2.6H12v10.2L18.5,15h-2.3v-2.5h7.9V15H22l-5.4,8.4l5.2,12.5h2.3v2.9h-8.2L16.1,35.9L16.1,35.9z"/>
<path fill="#D40000" d="M163.9,214.7h-2.6l3.9,9.7l3-4.1v-5.6h-2.1v-2.9h7.3v2.9H171v20.9h2.4v2.5
	h-7.5v-2.6h2.1v-10.2l-6.5,10.3h2.3v2.5h-7.9v-2.5h2.1l5.4-8.4l-5.2-12.5h-2.3v-2.9h8.2L163.9,214.7L163.9,214.7z"/>
<path fill="#E2CF00" d="
	M65,211.4c14,1.6,28.3,2,43,0.9c3.8,5.3,11.4,16.1,11.4,16.1L50.1,229L65,211.4z M47,215.1c1.9-3.8,2.2-7.4,1.9-12.7
	c-0.3-4,2.2-7.2,4.8-6c2,0.9,1.1,4.7-1,3.9c-0.8-0.3-1.5,0-1.4,1.8c0.2,4.5,1.4,9.5,0.3,13.8C51,220.1,45.3,218.2,47,215.1z
	 M29.6,209.3c-2.2-3.3,1.7-6.4,4.2-4.9c1.2,0.5,1,1.7-0.5,1.1c-2-0.9-4.3,2.3-2.5,3.5c0.8,0.6,1.1,0.5,0.5-0.2
	c-1.7-1.9,2.6-2.8,2.5-1.5c-0.3,1.6-0.3,2.2-0.5,2.5C32.5,211.2,30.9,210.5,29.6,209.3z M35.7,195.3c-2.4-3,0.3-5.3,0.3-5.2
	c0.7-0.8-5.6-12.7-4.8-12.8c8-0.9,16.1-0.2,24.1,0c0,0-4.3,7.8-6,11.6c-0.7,1.5,0.9,3.4,0.3,4.5c-2.1,2.3-0.8,4.8-2.1,4.9
	c-3.3-0.6-6.8-1-11.1,0C36.1,198.3,36.2,196.4,35.7,195.3L35.7,195.3z M70.4,112.6c4,20.8-1.9,42.8-15.6,57.3
	c-1.9-1.9-3.4-5.4-5.3-7.7c-5.3-1.6-9.2,0.3-12.9,2.2c-3.3-1.9-7.1-3.1-10.7-3l-0.1-3.2c3.7-0.1,7.6,0.3,10.9,2.3l5.2-2.1
	l-16.1-16.8l0.2-2.9l19.5,19.8l2.5,0.1C42.3,143.8,47.2,120.3,70.4,112.6L70.4,112.6z M97.5,138.7l2.8,13.6c0,0-15.8,15.8-24.1,23.9
	l-6.9-0.6c3.5-5.2,5.4-10.5,7.7-15.7L97.5,138.7z M153.5,157.3c-6.6,7.5-14.5,12.2-23.3,17.5c-3.5-4-7.8-8.3-10.2-12.2
	c7.7-4.1,15-7.3,22.5-14.6c-0.4,0.5-9.6,3.6-9.5,3.2c-0.3,1.5-0.1,2.5-1.6,2.9c-1.8-2.5-3.5-4.5-6.2-5.6c-1.2,0.1-2.7-0.7-2.7-0.7
	c0.8-0.2,0.4-9.7,0-9.8c0.9-0.3,1.7-0.9,2.9,0.4c0.5,0.4,5.8-5,7.6-6.8c7.1-0.6,13.3,0.1,20.2-0.1C153,140,153.5,148.8,153.5,157.3
	L153.5,157.3z M108.7,135.8c-0.2-0.4-2-14.4-0.3-23.2c4.6-14.8,3.5-19,15.5-33.6c0.8-0.8,3.5,1.7,5.6,6.1c6,3.8,13.7-1.1,13.7-1.1
	s3,2.5,9.7,3.8l-0.1,2.6c0,0.8-7.6-0.8-9.2-2.4c0,0-5.7,1.9-5.7,2.2c0,1.5,15.1,15.5,15.1,15.5l-0.1,3.3c0.1,0-20.6-21.7-20.9-19.4
	C137.9,115.1,127.9,128,108.7,135.8L108.7,135.8z M83.8,131.3l-0.3-13.5l12.7,0.2l0.5,13.6L83.8,131.3z M25.7,116.7
	c0.3-0.5-0.5-25.1-0.4-25.1c8.1-8.1,16-12.7,23.9-17.6c3.6,3.6,6.6,6.6,9.3,11l-10.9,6.8c0.4,1.7-0.7,2.3,6.4,8.7
	c0.1-0.4,2.4-1.8,2.8,0.2c-1,4.1,0.4,7.7,0.6,9.9c-1,1.3-3.1-0.1-3.1-0.1c-1.4-1.5-6.8,5.8-8.4,6.6C39,116.8,25.3,117.2,25.7,116.7z
	 M102.1,72.8c0,0.1,7,0,6.9,0.2c-1.3,3.1-4.1,9.4-7,16.2c-2.4,4-19.7,20.7-19.7,20.7c-0.8-4.8-2-9.6-3.3-14.3L102.1,72.8z
	 M132.1,49.6c2.5,1.1,9.5,0.5,10.6,0c1.4,1,0.5,2.3,0.4,3c1.5,1.9,2.3,2.5,0.6,5.6c-0.4,0,5.1,12.5,5.3,12.5c0,0-5.8-2.8-7.9-4.7
	l-4,5.4l-4.7-6.1c0,0.5-9,6.6-9.1,6.3c-0.3-0.3,8.2-9.5,6.5-14.9c-0.4-1.3,0.5-2.6,1.2-3.8C131.4,52.2,130.8,50.6,132.1,49.6
	L132.1,49.6z M127.4,48.5c0.4-0.4-2.2-11.8,0.6-16.3c1.2-1.7,3.3-1.7,4.2-0.4c0.7,1.9-1.3,4.5-1.7,5.8c-1.3,3.6,0.6,8.3-0.3,11.7
	C127.3,56.6,122.2,48.5,127.4,48.5L127.4,48.5z M146.4,43.4c-1.5,0.1-0.5-4.5-0.2-5.8c0-0.3,2.7-0.9,3.7,0.9
	C151.5,41.2,149.6,44.6,146.4,43.4L146.4,43.4z M128.5,20.6L114.4,38c-14.3-1.7-28.6-2.7-43.2-0.5L59.4,20.9L128.5,20.6z"/>
<path fill="#131F67" d="
	M154.7,19.5H24.1V230h130.6V19.5z M128.3,20.6l-15.7,19.5l-0.4,0.1c1,3.1,2.5,6.9,4,9.9c2.3,4.7,8,13.4,4.4,20.4
	c-0.3,0.6-0.7,0.9-1.1,0.9c-0.6,0-0.6-0.4-0.2-1.1c0.8-1.5,1.3-5.2,1-7.1c-0.2-1.2-0.9-3.1-2.2-6c-5.9-11.1-7.8-17-7.5-17
	c-0.1-0.1-0.2-0.1-0.4-0.2l-0.6-0.2c2.1,7,5.4,12.9,8.1,18.4c2.2,5.1,2.4,7,1.3,10.7c-0.4,1.4-1.2,2.3-2,2.3c-0.6,0-0.6-0.1-0.2-0.8
	c2.1-3.8,1.6-7.9-1-12.7c-3.8-7.9-6-12.9-7.4-18c0,0-0.7-0.2-0.9-0.3c1.1,5.3,4.2,11.4,7.1,17.7c2.4,4.8,3.1,8.3,2.2,11.1
	c-0.3,1.2-1.2,3-2.3,3c-0.4,0-0.5-0.2-0.1-0.9c1.8-3.1,2.1-5.9-1.1-12.4c-2.9-6-5.9-12.6-6.9-18.4c-0.1-0.5-1.3-1-1.1-0.3
	c1.6,6.9,4.7,13.9,8,20.8c1.9,4.3,2.1,7,0.7,9.4c-0.8,1.3-1,1.6-1.6,1.6c-0.7,0-0.7,0-0.3-0.8c1.7-3.6,1.4-6.7-0.9-11.9
	c-3.1-7.1-5.7-13-6.8-19.2c-0.2-0.1-1.3-0.5-1.1-0.2c1.6,6,3.5,11.5,6.1,17.1c0.9,1.9,2.3,5.7,2.8,7.6c0.9,3.6-1.1,8.5-3.7,8.8
	c-1,0.1-0.9-0.4,0.2-1.4c1.9-1.8,2.2-4.6,1.6-7.8c-0.5-2.5-1.3-5.2-2.4-7.9c-2.3-5.5-4.8-11.3-5.6-16.4c0-0.5-1-0.5-0.7,0
	c0.6,3.6,1.9,7.7,3.4,11.5c1.6,4.2,4,8.8,4.8,13.9c0.6,4.2-1.9,8.1-5.1,8.3c-3.8,0.3-4.5-3.5-3.6-5.2c1.5-2.6,5.8-1.1,4.5,1.6
	c-0.7,1.6-3,1.1-2.9-0.6c0-0.2,0.2-0.6,0.2-0.6c-0.1,0-0.4,0.3-0.5,0.4c-0.8,1.4,1.5,3.2,3.1,2.1c5.3-2.9,1.7-11.8-0.6-17.3
	c-2.2-5.1-3.9-9.6-4.6-14.3c-0.2-0.1-1.1-0.4-1-0.2c0.6,2.5,0.9,4.6,1.6,6.7c1,3.3,2.8,7,4.3,10.7c1.3,3.6,2.7,6.7,2.1,10.5
	c-0.1,0.4-0.2,0.8-0.4,1c-0.2,0.3-0.4,0.2-0.5-0.8c0-0.1-0.2-0.3-0.2-0.5c0.1-1.4,0-2.8-0.3-4.2c-0.3-1.1-0.9-2.3-2.2-4.5
	c-0.5-0.8-1.8-3.3-1.3-1.6c0.3,1,1.1,3.1,2.1,4.7c0.6,1,1.2,3.6,1,4.1c-0.2,0.5-0.6,0.5-0.8,0.4c-0.2-0.2-0.2-0.9-0.2-1.3
	c-0.2-1.8-2-4.9-3.3-6.2c-0.9-1,2.1,4.4,2.4,5.8c0.1,0.6,0.3,1.1,0.1,1.4c-0.1,0.2-0.4,0.2-0.7,0.1c-0.3-0.1-0.2-0.2-0.5-1.2
	c-0.5-1.6-1-2.4-2.2-3.8c-0.4-0.5-0.7,0.1,0,0.9c0.9,1.4,1.6,2.4,1.8,4.2c-0.6,0.8-0.9,0.7-2.1-1.5c-0.8-1.4-1.3-1.8-1.5-1.8
	c-0.5,0,0,0.7,1.5,3.1c0.8,1.3,0.8,2.1-0.1,2.1c-0.3,0-2-1.9-2.4-2.7c-0.3-0.7-0.8-1.2-0.8-0.4c0,0.3,1,2.1,1.8,2.9
	c1.1,1.3,1.5,1.6,1.6,2.2c0.1,0.3,0.2,0.8,0.3,1.1c0.3,1,0.1,1.2-0.4,0.7c-0.3-0.7-0.5-0.8-1.2-1.3c-0.6-0.5-1.5-1.6-2-2.5
	c-0.2-0.3-0.4-0.7-0.6-1c-0.5-1-1.3-1.1-0.7-0.1c0.2,0.5,0.7,1.3,1.1,1.9c0.7,1,0.6,1.6-0.3,1.5c-0.4,0-1.4-1.3-2-2.4
	c-0.4-0.7-1.1-1.2-1-0.5c0,0.2,0.5,1.4,1.3,2.3c0.8,1,0.9,1.6,0.1,1.6c-0.5,0-1-0.5-1.7-1.6c-0.6-1-1.1-1.4-1.2-1.2
	c-0.2,0.1,0.9,2.1,1.9,3.2c0.9,1,0.2,1.6-0.8,0.7c-0.6-0.5-1.7-2-2-2.7c-0.6-1.3-0.9-0.9-0.6,0.1c0.4,1.1,1,2.3,1.8,3.1
	c0.4,0.4,1.2,0.7,1.6,1.1c1.1,1,1.9,1.9,1.8,2.1c-3.2,0.2-5.9-3.3-6.6-5.4c-0.5-1.4-1.1-1.6-0.5,0.4c1.6,4.9,6.5,7.4,9.9,5.2
	c2.1-1.3,0.2-4.8-1.4-3.6c-0.5,0.3-0.5,1.2,0.1,0.7c1.1-0.9,2.2,1.3,1,1.9c-1.7,0.9-3.5-0.8-2.4-2.9c1.1-2.1,5.6-0.9,4.7,2.5
	c-0.5,1.6-2.9,3.5-4.9,3.5c-3.7,0.1-6.3-2.8-7.7-5.7c-0.2-0.4-0.5-1.1-0.8-1.7c-0.2-0.5-0.4-0.9-0.4-0.9c0.4,3.5,3.7,7.8,6.6,8.5
	c4.9,1.2,6.2-1.8,9.4-4.8c0,0,2.3,0.3,2.4,0.3c0.2-0.1,4.5-0.3,4.7-0.2c-17.4,32-16.1,69.9-1.1,98.7c1,2.1,1.2,1.7-0.5,1.3
	c-1.7-0.4-3.2,0.2-4.6-0.1c-2.8-0.6-3.5,1.4-5.6,2.4c-2.7,1-2.1,3-2.8,4.8c-0.2,0.3-0.4,0.5-0.2,0.5c0.2-0.1,0.8-0.6,0.8-1.1
	c0.1-1.2,0.5-2.2,1-2.7s0.8-0.7,0.9-0.5c0.1,0.2,0,0.7-0.2,1.2c-0.7,1.3,0.2,5.5,0.3,2.5c0-2.4,1.5-5.1,3.5-6.2
	c1.6-0.8,2.1-0.7,0.8,0.5c-1.5,1.6-2.5,3.5-2.6,5.8c0,1,0.4,1.8,0.5,0.9c-0.1-4.4,4.3-9.3,9-6.9c0.2,0.2,0.4,0.5,0.4,0.7
	c-4.5-0.8-8.5,1.7-7.9,7.7c0,0,0.4-1.2,0.6-2.3c0.7-3.6,4.8-5.2,7.6-4.2c0.5,0.2,1,1,0.9,1.1c-3.5-1.1-7.3,2.2-7.5,5.8
	c-0.1,1.2,0,2.2,0.5,0.1c2.2-8,9.2-4.4,8.3-3.7c-5.4-0.6-7.3,3-7.2,7.2c0.1,0.4,0.3,0.5,0.4,0.9c0.7,1.6,1,3,1.1,5.9
	c-0.1,0.7,0.6,5.5-0.1,5.3c-2-0.7-3.4-1.6-6.8-0.1c-0.3,0-0.4-0.2-0.3-0.4c0.1-0.4,0.7-1.1,1.6-2.1c2.1-2.2,0.9-1.6-0.8-0.1
	c-1.1,1-0.9,0.3,0.2-3.1c0.4-1.4,0.2-1.6-1.7-2.5c-1.9-1-3.2-1.1-1.6-0.1c0.6,0.4,1.3,0.8,2,1.1c0.8,0.5,0.7,0.6,0.1,2.7
	c-1.2,3.9-1.6,5.3-1.5,7.9c0.2,6.4,6.1,5.7,9.6,4.3l0.1,4.2l12.9,18.3c0,0-44.9,0-69,0.4c1.4-3.3,15.9-17.5,16.8-20
	c0.1,0-1.6-5.2-2.5-7.4c-4.2-10.6-9.7-15.1-6.5-22.1c0.7-1.4,0.8-1.9,1.3-1.8c0.7,0,0.9,0.5,0.1,1.8c-3.4,5.8,3.9,15.9,6.4,22.3
	c0.4,1,2.1,5.8,2.3,7.5c0,0.5,1.2,0.7,0.9,0.1c-0.9-3.3-2.1-6.9-2.6-8.1c-2-4.7-4-8-5.9-12.6c-1.1-2.9-1.6-6.3,0-9.3
	c0.6-1.1,0.8-1.7,1.2-1.8c0.3,0,0.5,0.1,0.6,0.4c0,0.3-0.2,0.8-0.6,1.6c-2.9,5,2.2,13,4.8,18.7c1.7,3.7,3.1,7.7,3.7,11.2
	c0,0.2,0.3,0.9,1,0.5c-1.1-6.6-4.3-13-7.2-19.2c-2.4-4.8-3.3-9-0.1-13c0.3-0.3,0.9-0.2,0.9,0.2c0,0.3-0.2,0.8-0.7,1.9
	c-2.8,6,1.6,10.9,3.6,16.7c2,4.8,3.9,8.8,4.6,14c0.6,0.2,0.9,0.5,0.9-0.2c-1.5-7.2-4.7-13.7-7.4-20c-1.3-2.7-1.7-4-1.8-5.8
	c-0.1-2.5,1.1-5.7,2.2-6.5c0.3-0.2,0.5-0.3,0.7-0.1c0.4,0.2,0.3,0.3-0.4,1.7c-1.4,2.6-1.5,5.6-0.2,8.7c2.2,4.8,4,8.7,5.4,12.2
	c1.4,3.8,2.2,7.2,2.6,10.2c0,0,1,0.4,0.8-0.2c-0.6-4.2-2-8.6-3.5-12.3c-1.4-3.5-3.2-6.9-4.6-10.3c-1.7-4.2-0.3-8.7,3.2-11h1.6
	c-0.1,0-3.7,1.4-3.9,6.7c-0.2,5,2.2,8.1,3.8,12.3c2.1,5.1,3.9,9.6,4.3,15c0.2,0.2,1.1,0.2,1,0.1c-0.4-3.7-1.5-7.2-3-11.4
	c-1.6-4.6-3.2-6.6-4.7-11.4c-1-3.2-0.9-7.6,1.4-9.6c3.4-3.4,8.1-1,6.9,2.9c-0.9,2.8-4.7,2.2-4.6-0.4c0-1.7,2-2.1,2.7-0.9
	c0.2,0.2,0.3,1.3,0.3,1.4c0,0.1,0.3-0.8,0.3-1c0-1.4-1.8-2.5-3.2-1.8c-1.9,1-3.1,3.2-3,6.1c0.1,3.1,0.7,5.2,3.2,10.1
	c3,5.7,3.9,11.9,4.6,16.1c0.3-0.1,0.6,0,0.7,0c-0.4-5.7-2.3-11.5-4.6-16.4c-2.8-5.9-3.6-9.5-2.6-12.1c0.1-0.4,0.3-0.7,0.4-0.7
	c0.3,0,0.4,0.5,0.7,1.5c0.1,0.3,0,0.8-0.1,1.2c-0.2,2.4,1.4,7.4,3,9.7c0.5,0.6,1,0.6,0.5-0.5c-1.6-2.9-2.6-5.6-2.7-9.1
	c0-1,1.2-0.6,1.2-0.1c0.1,1.7,0.3,3.7,1.1,5.1c1.6,2.8,2.5,2.9,0.9-0.2c-0.4-0.7-1.4-3.8-1-4.9c0.2-0.2,0.5-0.3,0.7,0
	c0.5,1.7,1.1,3.5,2.3,4.8c0.6,0.7,0.7,0.4,0.4-0.5c-0.5-1-2.2-4.4-1.4-5.1c0.2-0.2,0.1-0.1,0.8,1c0.9,1.5,1.4,2.1,1.9,2.6
	c0.6,0.6,0.7,0.2,0.1-0.9c-1.2-2.1-2-3.8-1.5-4.3c0.4-0.4,0.5-0.2,1.5,1.5c0.4,0.8,1.1,1.9,1.3,2.1c0.2,0.3,0.4,0.3,0.4,0.1
	c-0.2-2-2-4.4-2.7-4.8c-0.1-0.2-0.1-1.8-0.1-1.8c2.6,1.4,2.7,2.9,4.4,5.2c0.2,0.2,0.4,0,0.4-0.4c-0.1-0.4-1.1-2.4-1.7-3.3
	c-0.5-0.7-0.5-1.1-0.1-1.3c0.7-0.3,1.7,0.7,2.7,2.6c0.5,0.9,1.1,1.4,1.1,0.9c0-0.2-0.9-2.5-1.5-3.1c-1-1.1-0.5-1.8,0.7-0.8
	c0.5,0.4,1.3,0.8,2,2.4c0.4,1,0.8,1.1,0.8,0.3c0-0.9-1.4-2.9-2.4-3.5c-0.7-0.4-1.2-0.9-1-1.3c0.6-1,3.3,1.5,4.2,3.8
	c0.3,0.7,0.7,1,0.8,0.7c0.2-0.2-0.3-1.8-0.9-2.6c-0.9-1.7-3-3.4-4.3-3.2c-0.2,0-0.9-1.4-0.9-1.4c3.2-0.5,6.3,3.4,6.9,4.8
	c1.1,2.8,1.6,2.4,0.7,0c-1.8-4.7-7.4-7.4-10.5-5.1c-1.8,1.3-0.7,4.4,1.1,3.9c0.7-0.3,1.4-1,0.2-0.8c-1.4,0.1-1.9-2-0.4-2.5
	c2.3-0.7,2.9,3,1,3.9c-1.9,0.8-3.9-0.4-3.7-2.6c0.3-4.1,5.3-5.3,10.2-2c1.4,0.9,3.1,3.9,3.6,5.9c0.2,0.6,0.8,0.9,0.9,0.8
	c0.2-0.2-1.4-3.6-1.9-4.4c-2.1-4.9-9.8-5.2-9.8-4.9c0,0-3,1.9-5.7,5.1l-6.9-0.6c17.5-28.4,18.9-70.3,0.9-99.9c0.2,0.2,3.5,1,4.6,0.1
	c0.8-0.4,1.1-0.5,2-0.2c1,0.4,2.1,0,3.2-1c0.8-0.8,0.9-1,1.4-0.9c1.6,0.2,2.7-0.7,3-3.1c0.1-0.9,0.2-1.9,0.1-1.7
	c-0.1,0.1-0.3,0.9-0.4,1.4c-0.3,1.4-0.6,1.9-1.1,2.3c-0.9,0.7-1.4,0.3-1-0.8c0.3-0.7,0.6-2.6,0.2-3.4c-0.1-0.2-0.1,0.4-0.2,0.9
	c-0.9,3.6-1.9,5.5-3.7,5.9c-0.8,0.2-1.2,0.1-0.9-0.4c3-3.3,2.8-6.9,2.6-6.6c-0.6,2.1-1.8,5.2-3.8,6.5c-1.7,1.1-4.2,1.2-5.6,0.3
	c-0.8-0.5,0.4-0.7,2.2-0.7c3,0,5.8-4.1,5.3-7.5c-0.1-0.6-0.3,0-0.5,1.1c-1.1,3.7-3,6.3-7.3,5.5c-0.3-0.1-0.6-0.3-0.7-0.4
	c-0.7-0.5-0.4-0.8,1-0.6c3.1,0.4,5.9-2.6,5.8-6.1c0-1.7-0.3-1.7-0.5-0.4c-0.4,1.8-1.8,7.3-6.8,5.5c-0.9-0.5-1.4-1.1-1.1-1.2
	c3,0.6,5.7-0.1,6.7-4c0.5-1.7,0.3-3.3-0.1-4.7c-0.1-0.9-0.5-1.7-0.6-2.6c-0.3-2.6-0.7-5.4-0.6-8.2c0.2-0.2,0.3-0.2,1.1,0.4
	c1.7,1.1,2.9,0.9,4.6,0.2c2.2-0.8,2-0.7-0.3,2c-0.5,0.5-1,1.2-1,1.3c-0.6,1.1,0.5,0.3,1.3-0.7c1.1-1.4,1.4-1.8,1.6-1.8
	c0.1,1.6-0.5,3.4-0.8,4.7c-0.4,1.4-0.4,1.7,0.5,2.1c0.4,0.2,1.1,0.5,1.5,0.7c1.9,0.9,1.7,0.2,0.2-0.7c-2-1.1-2-1.1-1.5-3
	c0.7-2.2,1-4.2,1.4-6.4c0.9-5.5-3.2-8.5-8.6-6.6c-0.3,0.2-0.7-2.9-0.6-3.7c0-0.3-0.8-0.2-1.5-1.1c0.2-0.2-8-10.6-11.8-16.9
	C83.3,21.1,106.8,20.6,128.3,20.6L128.3,20.6z M110.7,40.2C110.7,40.2,110.8,40.2,110.7,40.2L110.7,40.2z M129.3,21.1h23.6v50.3
	l-2.3,0.1c0,0-3.8-6.7-4.9-9.8c-0.3-0.8-0.7-1.9-0.9-2.3c-0.4-1-0.7-1.1-0.1-1.7c1-1.2,0.8-3.6-0.2-4.7c-0.3-0.4-0.5-0.2-0.5-1.2
	c0-0.8,0.1-1.3-0.1-1.7c-0.3-0.7-0.6-0.7-0.1-1.5s1.2-2,1.5-3c0.5-1.6,0.1-1.9,1.2-1.5c2.6,0.8,4.8-1,4.7-3.7
	c-0.1-2.2-2.1-4.2-4.5-3.6c-0.6,0.1-0.7,0.1-1.5-0.4c-0.2-0.2-0.6-0.5-0.9-0.6c-0.4-0.2-0.7-0.1-0.9-0.4c-0.3-0.6-1.3-1.4-2.5-1.4
	c-0.7,0-1.7-0.2-2-0.4c-0.4-0.2-1.6,0-3.1-0.3c-0.7-0.1-1.2,0.2-1.5,0.2c-0.9,0-0.6-0.1-0.7-0.8c-1.2-3.7-4.6-3.3-6.1-0.5
	c-0.6,1.1-1,2.7-1.2,4.4l-9.2-0.1L129.3,21.1z M58.1,21.2c3.4,4.4,6.7,9.4,10.2,13.9c4.3,5.5,4.4,6.1,3.3,11.6
	c-0.6,3.1-0.9,3.8-2.2,3.6c-1.2-0.2-2.2,0.7-2.4,2c-0.3,2.3,1.9,3.7,4.1,2.6c1.2-0.6,1.2-0.7,0.8,1.3c-0.6,2.9-1.7,5.3-2.4,5.3
	c-1.8-4-6.3-1.1-4.8,3c-0.5,0.7,0.1,1.6,0.4,2.4c0,0,0,0.1-2.6,0.9c-12.6,3.8-28,13.6-36.5,22.9V21.5L58.1,21.2z M130.5,30.7
	c0.5,0,1,0.2,1.5,0.5c1.1,1,0.8,2.4-0.7,5c-1.6,3.7-1.2,6.5-0.8,10.4c0,2.2-0.8,4.3-1.9,5.3c-1.9,1.5-4.3-0.5-3.3-2.5
	c0.5-1,1.6-0.4,1.9-1.4c0.4-3.5-0.5-7.1-0.6-10.5c0-1.5,0.5-3.5,1.2-4.9C128.4,31.4,129.4,30.7,130.5,30.7L130.5,30.7z M133.5,36.6
	c-0.4,0.4-1.2,0.4-1.2-0.1s0.4-2,0.6-2.2C134.4,34,133.9,36.2,133.5,36.6z M135.8,34.2c1.3-0.1,2.2,3.3,1,5.3c-0.2,0-1.8,0-1.8,0.1
	c0-0.4,0.1-1.1,0.2-1.7c0.1-0.6,0.2-1,0-1.6C134.8,34.7,134.5,34.4,135.8,34.2L135.8,34.2z M138.3,34.3c0,0,0.1,0,0.2,0
	c1.3,0,2.1,2.6,1.7,5.4c-0.1,0.4-0.1,0.8-0.2,0.9c-0.6-0.2-2.1,0.4-2.1,0.4c-0.1-0.1-0.1-1,0.1-1.7c0.4-1.3,0.5-2.2,0-3.6
	C137.6,34.5,137.6,34.3,138.3,34.3L138.3,34.3z M141.6,35c1.5,0.2,1.5,4.3,1,5.6c-0.1,0.2-0.7,0.1-0.9,0.2c-1.2,0.4-1,0.5-0.8-1.4
	c0.1-1.4,0.1-2.4-0.1-3.6c-0.1-0.5-0.1-0.8,0.2-0.9C141.2,35,141.4,35,141.6,35L141.6,35z M134.4,36.6c0.6,0.8,0.1,2.7-0.3,3.3
	c-0.5,0.8-0.7,0.8-0.4,1.2c0.1,0.1,0.4,0.9,0.2,1.2c-0.3,0.6,0.4,0.7,1.1,1c1,0.6,1.6,1.6,2.3,3.4c0.3,0.6,0.8,0.4,0.6-0.3
	c-0.2-0.6-0.3-1.5-0.5-2.1c-0.2-0.6,0-0.9,0.7-0.7c1,0.3,0.9,0,1.3-0.1c0.8-0.5,1.4,0.2,0.9,0.6c-0.3,0.2-0.9,0.3-1.6,0.5
	c-0.6,0.2-0.4,0.7,0.1,0.7s2.1-0.4,3.1-0.7c2.9-0.9,3-1.3,2.7,0.3c-0.4,2.2-1.5,3.8-3.5,4.4c-1.7,0.5-5.6,0.4-7.4-0.2
	c-1.7-0.8-1.8-1.3-2.3-2.8c-0.7-2-1.1-5.4-0.3-7.4c0.7-1.7,0.6-1.5,1.3-1.4c0.6,0.2,1.4,0,1.6-0.4C134,36.9,134.3,36.6,134.4,36.6
	L134.4,36.6z M145.4,37.8c0.2,0.9,0.2,1.8-0.1,2.5c-0.2,0.3-1.2,0.3-1.6,0.3c-0.2,0.1-0.2-3,0-3.4C144.3,36.4,145,37.1,145.4,37.8
	L145.4,37.8z M116.2,37.3h2.8V38h-3.4L116.2,37.3z M126.2,37.4v0.9h-4.3V44h4.8v1.2h-6.4v-7.8H126.2L126.2,37.4z M147.9,37.2
	c4.4,1,2.4,5.9,0.8,6.2c-2.1,0.4-3.8,0.1-3.2-1.7c0.6-1.2,0.2-2.8,0.3-3.9C146.2,37.5,147.3,37.1,147.9,37.2z M114.8,39h4.2v0.9
	h-4.8L114.8,39z M124.2,39.8c0.7,0,1.2,0.6,1.2,1.2c0,0.6-0.5,1.2-1.2,1.2c-0.7,0-1.2-0.6-1.2-1.2C123,40.4,123.6,39.8,124.2,39.8z
	 M136.2,40.3c0.8,0.1,0.9,1.3,0.5,1.7c-0.4,0.4-1.2,0.2-1.4-0.4C135.1,41,135.5,40.3,136.2,40.3z M113.7,40.8h5.4v0.8h-5.5l-0.1-0.5
	L113.7,40.8z M144.1,41.2c0.8,0,1.2,0.6,0.7,1.2C144.1,43.1,142.7,41.9,144.1,41.2z M86.5,42.8c-1.2,1-0.2,2.1,1.4,1.1
	c3.5-2.1,8.6-0.4,11.9,1.3c0.7,0.3,0.7-0.5,0.1-1C96.8,41.5,90.2,39.9,86.5,42.8L86.5,42.8z M138.9,41.4c0.8,0,0.8,1.1,0.3,1.5
	c-0.5,0.2-0.6,0.2-1,0C137.7,42.7,138,41.4,138.9,41.4L138.9,41.4z M141.9,41.4c1,0.1,0.9,2.1-0.6,1.4
	C140.7,42.2,141,41.4,141.9,41.4z M113.9,42.5h5.3v0.9l-4.9-0.1L113.9,42.5z M80,44.5c1.4,1.2,1,1.2-1.4,0.4
	c-1.6-0.4-3.1-0.1-4.1,0.3c-1.2,0.5-1.4,0.3-0.9-0.5C74.9,43.2,78.6,43.5,80,44.5L80,44.5z M86.9,46.4c-0.1,0.4-0.6-0.3-1.3-0.2
	c-0.9,0.2-0.7,0.2,0.3,1.4s1.3,1.4,1.3,1.9c-0.1,0.7,0.1,1,0.7,0.9c0.3,0,0.7,0.3,1.2,0.8c1.6,1.5,2.5,2.3,3,2.5
	c2.2,1,1.2-0.1-0.2-1.1c-2.3-1.6-3.1-2.7-1.5-2.1c1.8,0.6,4.5,0.3,5.9-0.6c0.7-0.4,1.1-1,2.1-0.7c1.3,0.4,1.8-0.4,1.5-0.8
	c-0.6-0.4-2-0.9-3.3-1.8c-2.8-1.4-5.8-1.4-7.7-0.2c-1.2,0.7-1.6,0.2-0.4-0.5c4.6-2.5,8.2-0.1,11.1,1.7c0.5,0.3,0.9,0.3,0.9,0.1
	c-0.1-0.7-1.4-1.2-1.9-1.5C94.4,43.7,90.1,42.9,86.9,46.4L86.9,46.4z M114.6,44.2h4.6v0.9H115L114.6,44.2z M77.5,45.4
	c1.3,0,4,1.1,4,2.1c-0.1,0.4-0.7,0-1.3-0.3c-1.2-0.7-2.9-0.9-4.6-0.6c-1.3,0.2-1.7,0.5-1.9,0.3C73.2,45.8,76.3,45.4,77.5,45.4z
	 M126.8,46.1v1.6c-2.5,0.2-3,3-1.4,4.5c1.3,1.3,3.5,0.8,4.5-1c0.2-0.3,0.2-0.5,0.3-0.4c0.1,0.1,0.1,0.4,0.2,0.7
	c0.2,0.9-0.1,1.1-0.6,1.8c-0.9,1.2-1,2.7-0.5,3.8c0.2,0.3,0.5,0.7,0.4,0.9c0.3,0-2.8,8.9-7.4,13.4c-0.8,0.5-1.3-0.1-0.9-0.9
	c3.7-8.6-3.4-16.7-6.2-24.4H126.8L126.8,46.1z M93.7,47.6l0.7,0.1c-0.5,4-4.3,3.3-4.5,0.1h0.5C91.2,50.7,93.7,49.5,93.7,47.6
	L93.7,47.6z M72.2,47.6c0,0,0.3,0.4,0.3,0.7c0,0.9,0,2.3,0,2.7c-0.2,3.8-5,4.5-4.6,1.3c0.3-1.4,2-1.5,2.4-0.3c0.6,1.6,0.7-0.4,0.7-1
	C71.5,50,71.9,48.8,72.2,47.6L72.2,47.6z M95.3,47.9c0.2,0,0.5,0.2,0.8,0.5c0.3,0.3,0.2,0.5-0.5,0.9c-0.8,0.4-1.2,0.4-0.9-0.5
	C94.9,48.3,95,47.9,95.3,47.9z M131.1,48.1c0.1,0,0.4,0.1,0.3,0.6c-0.1,0.7-0.7,1.1-0.9,0.9C130.7,49.2,130.8,48.3,131.1,48.1z
	 M89.6,49.5c-0.1,0.3-0.3,0.2-0.7-0.2c-0.5-0.4-0.4-0.7,0-0.9C89.6,47.9,89.7,49.2,89.6,49.5L89.6,49.5z M75.1,48.4
	c0.8,2.6,2.4,2.2,3.2,0.1H79c-0.2,3.3-4.3,3.2-4.3,0L75.1,48.4z M73.6,48.7c0.2,0,0.1,0.8,0.1,0.8s-0.7-0.4-0.3-0.7
	C73.5,48.8,73.6,48.7,73.6,48.7z M79.7,49c0.1,0,0.2,0.1,0.4,0.2c0.4,0.3,0.3,0.4-0.1,0.8c-0.7,0.6-1,0.3-0.6-0.5
	C79.5,49.1,79.6,49,79.7,49z M132.2,49.5c0.3,0,0.7,0.1,1.6,0.4c2.4,0.7,5.7,0.6,8.5-0.1c0.9-0.2,1.5,1.3,1.1,2.4
	c-0.2,0.5-0.2,0.6,0.5,1.2c0.9,1,1,2.5,0.4,3.9c-0.5,1-0.5,0.9,0.1,2.7c1.3,3.8,3.1,7.3,5.1,10.8l-2.6-1c0,0-11.9,10.3-20.2,10.7
	l3,4.8c4.8,1.9,9.3,1.4,13.7-1.3c-0.1,0.4,5.3,3.1,9.7,3.4v3.2c-3.3-0.4-6.6-0.5-9.7-2.4c0,0-2.8,1.2-5.6,2.1l15.8,16.6v2.8
	c0,0-6.7-6.4-13.7-13.6l0.1,35.4l13.7,0.3c-0.4,9.2-0.3,15.1-0.2,25.6c-6.5,6.7-15.3,13.4-23.5,17.5c-3.9-3.8-7.1-7.9-9.9-12.3
	c-0.1-0.1,0.3-0.3,0.2-0.4c-0.1-0.1-0.6-0.2-0.7-0.3c-1.7-2.6-5.7-9.7-5-9.9c1.2,0.1,6.8-0.6,8-4c0-0.2-0.1-0.8,0-1.5
	c0.4-1.9,0.6-4.7-0.1-6.5c-1.2-3.2,2.4-2.2,2.5-2v-12.2c-4.7,3.8-9.5,7.6-15.8,9.2c-3.9-20.1,2.3-45.2,20.1-62.1l-1-0.1
	c-18.3,19.2-23.1,40.3-19.9,62.5c0,0,0.1,0.7,0.1,0.9c0,0.6-0.1,0.8-0.6,1.2c-0.5,0.3-0.9,0.6-0.8,1c0.1,0.7-0.6,0.7-1.5,0.7
	c-0.4-0.4-1,0.1-1.3,0.3c-0.5,0.1-0.7-1.8-1.3-0.4c-0.2,0.9-0.6,0.9-1.6,0.5c-0.6-0.2-0.6,0.1,0,0.8c0.8,0.9,1.5,2.2,1.4,2.6
	c-0.3,0.9-0.2,1.8,1.1,2.3c-0.1,0-0.8,2.7,1.2,2.7c0.6,0,2.2,0.3,2.2,0.3c0.1,0.5-0.1,0.8-0.3,1l-1.3-0.7l-0.4,1.6l-1.8-0.1l4.4,5.5
	l0.5-4.3l5.1,0.7c0.8,2.2,6,14.1,15.8,23c-0.1,0.3-6.8,3.1-6.8,3.1l-1.1-3.3l-0.8,1.2l-1.5-0.4l-0.2,1.4l-1.3,0.4l2.4,1.6l-6.1,1.8
	c-17.2-28.1-24.9-66.8-3.5-108.1l5.4,0.1l-1.1,1.8l1.5-0.2l0.4,1.3l1.1-0.5l1.1,1.4l1.3-3.9c0,0,3.8,0.1,4.3,0
	c0.4,0,8.1-6.6,7.9-6.9c-0.1-0.2-8.4,6-8.7,5.7c0,0-0.8,0.2-0.2-0.6c1.2-1.4,2-2.5,3.2-4.5c1.9-2.7,2.8-6,3.3-8.2
	c0-0.2,0-0.5-0.1-0.8c-0.7-1.5-0.6-2.5,0.8-4.2c0.5-0.6,0.5-0.8,0.4-1.2c-0.3-0.9,0-1.6,0.6-2.2C131.9,49.6,132,49.5,132.2,49.5
	L132.2,49.5z M86.8,55.5c3.4,1.4,0.7,4.5-1.8,1.8c-1.3-1.4-2.4-1.3-3.1-0.3c-0.3,0.5,0.1,1.3,0.6,1c0.4-0.2,0.8-0.5,1.4,0
	c4.3,4,7.4-1.6,3.7-3C87,54.8,86.3,55.3,86.8,55.5L86.8,55.5z M72.8,55.3h0.1c0.2,0.1,0.2,1.5,0,2.1c-0.5,3-2.7,10-7,6.6
	c-1.7-1.4-0.2-4.8,1.9-3.6c1.6,0.9,0.5,3.1-1.2,1.8c-0.8-0.6-0.6,0.6,0.1,1c1.2,0.6,3.4-0.5,4.4-2.4c0.4-0.8,0.8-2.2,1.2-4.2
	C72.6,55.7,72.7,55.4,72.8,55.3L72.8,55.3z M73.2,60.6c0.4,2.2-1.3,6-3.6,6.6c-1.8,0.4-4-0.7-3.8-1.8c0-0.3,0.2,0.1,1.8,0.4
	c2.3,0.4,3.7-0.9,5-3.7C72.9,61.1,73.1,60.6,73.2,60.6L73.2,60.6z M78.8,61.6c0,0.2-0.1,0.9-0.2,1.3c-0.2,1-0.4,1.4,0.7,0.9
	c0.7-0.3,1.8-0.7,2.9-0.1c1.2,0.7,2.4,0.6,3.8-0.1c1.2-0.4,1.8-0.4,2.5,0c1.3,0.7,0.8,0.3,0.7-1.6c-0.1-1.3-0.5-1.1-0.9-0.6
	c-0.3,0.3-0.9,0.4-1.6,0c-0.8-0.4-1.9-0.2-2.3,0.1c-0.4,0.3-0.9,0.4-1.7-0.2c-0.5-0.3-0.8-0.2-1.4,0.1c-1,0.4-1.4,0.2-1.9-0.2
	C79,61,78.8,61.1,78.8,61.6L78.8,61.6z M73.9,63.2c0.1,0,0.1,0.5,0.1,1.5c-0.4,3.7-3.3,5.8-6.7,4c-1.5-0.9-1.3-1.5,0.2-0.9
	c2.3,0.9,4.7-0.3,5.8-3.4C73.6,63.6,73.8,63.2,73.9,63.2z M82.2,65.8c1.7,0.7,3.5,0.5,4-0.1c0.5-0.7-0.3-0.6-0.7-0.5
	c-1.5,0.4-2.5,0.2-3.1,0C80.7,64.5,80.8,65.2,82.2,65.8z M64.7,67.9c2.2,2.7,2.5,3.2,4.3,6.3c13.7,23.6,18.1,53.4,9.1,80.5
	c-2.5,7.5-6,15.1-9.9,21.2l-4.7,0.1l1.6-1.9l-2.2,0.2l-0.1-1.2l-1.7,0.5l-0.8-1.9l-1.5,4.3h-8.7c20.4-20.1,24.4-44.4,20.6-64
	c0,0,1.7-1.1,1.9-1.7c0.1-0.2,0.2-0.8,0.3-0.9c0.8-0.5,1.3-1,1.6-0.9c0.2,0.1,0.3,0.2,0.5,0.4c0.7,1.1,0.9,1.2,1.3,0.2
	c0.3-0.8,0.2-1.1,1.1-0.9c0.5,0.3,1.3,0.3,1.2,0.2c0-0.1-0.8-1-1.2-1.5c-0.9-1.2-1.1-1.5-1-2c0.1-0.8-0.5-1.7-0.9-1.9
	c0.1-2.2-0.7-2.4-3.1-2.9c0-0.4,0.1-0.7,0.2-1l1.4,1.1l0.5-2.1l1.9,0.1l-5.5-5.4c0,1.5,0.1,3,0,4.5c-2.6-0.1-5.1-1-5.1-0.8
	c-3.8-9-9.5-16.6-15.5-22.5l6-2.9l1.7,3.3l0.4-1.9l1.5,0.3l0.3-1.2l1.7-0.2l-1.8-1.8L64.7,67.9z M100.7,71.8
	c0.2,0.3,0.4,0.3,0.7,0.6l-0.6,0.4C100.8,72.4,100.8,72.2,100.7,71.8L100.7,71.8z M60.5,72.9c-0.5,0-0.9,0.4-0.9,0.9
	s0.4,0.9,0.9,0.9s0.9-0.4,0.9-0.9S61,72.9,60.5,72.9z M65.5,73.1c-0.5,0-0.9,0.4-0.9,0.9s0.4,0.9,0.9,0.9s0.9-0.4,0.9-0.9
	S66,73.1,65.5,73.1z M49.2,73.8c3,2.5,5.7,5.8,9.1,11l-0.1,0.7l1,0.4c0,0,5.6,7.4,5.3,10.7c-1.9,0.4-3.6-0.1-7.1,3.1
	c-1.6-0.9-2.6-0.6-4.2-0.1c0,0,0,0.7,0.6,1c1.1-1.3,2.3-0.7,3-0.4c-0.2,0.1-0.8,7.5,0.3,9c0.9,2.5-1.4,2-3,1.4l0.5,11.7
	c5.3-6.1,16.4-10.2,15.6-9.8c5.6,30-7.7,50.1-21.6,64.7h7.3c0,0-6.3,10.3-6.8,13.1c0.4,0.9,1.3,2.9-0.3,4.3
	c-0.6,0.6-0.6,3.5-0.6,3.5c-3.8,0.1-7.2-1.2-11.6,0.4c-0.5,0.2-0.6-2.4-0.6-2.9c-2.5-2.2-0.2-6.1,0.1-5.8c-2-6-6-13.1-6-13.1
	s-2.4-0.1-3.9-0.2c-0.3-0.3-0.5-7.2-0.2-7.4c10.9,0.9,28.1-0.1,28.1-0.1l-4.6-6.5c-5.7-2.2-13.4,1.6-13.1,1.8c0,0-6.2-3.5-10.5-3
	l0.1-3.4c3.8,0,7.4,0.7,10.5,2.6l5.3-2l-16.1-17.2l0.2-2.8c5.3,4.9,13.9,14.5,13.9,14.5v-36H25.9l-0.4-7.3l-0.4-0.6l-0.2-5.2
	l0.4-0.5l-0.1-2.2l-0.1-0.3l-0.2-5.3l0.3-0.4v-3.4C32,85,49.2,73.8,49.2,73.8L49.2,73.8z M61.1,74.8l1.6,7.2l1.1-1.4l1.7,0.5
	l0.1-1.7l1.5-0.5L61.1,74.8z M116.1,76c-0.5,0-0.9,0.4-0.9,0.9s0.4,0.9,0.9,0.9s0.9-0.4,0.9-0.9C117.1,76.4,116.7,76,116.1,76z
	 M111.8,76.6c-0.5,0-0.9,0.4-0.9,0.9s0.4,0.9,0.9,0.9s0.9-0.4,0.9-0.9S112.3,76.6,111.8,76.6z M58.4,77.4c-0.5,0-0.9,0.4-0.9,0.9
	s0.4,0.9,0.9,0.9s0.9-0.4,0.9-0.9S58.9,77.4,58.4,77.4z M115.1,78l-6.5,6.2l1.8-0.1l0.3,1.8l1.6-0.8l1.3,1.2L115.1,78z M117.9,80.1
	c-0.5,0-0.9,0.4-0.9,0.9s0.4,0.9,0.9,0.9s0.9-0.4,0.9-0.9S118.4,80.1,117.9,80.1z M66.3,81.3c-0.5,0-0.9,0.4-0.9,0.9
	s0.4,0.9,0.9,0.9s0.9-0.4,0.9-0.9S66.9,81.3,66.3,81.3z M70.4,82.1c-0.5,0-0.9,0.4-0.9,0.9s0.4,0.9,0.9,0.9s0.9-0.4,0.9-0.9
	S70.9,82.1,70.4,82.1z M66.7,83.5c0.2,2.5,0.5,5.5,0.5,8.1l1.2-1.2l1.4,0.6l0.5-1.6l1.5-0.1L66.7,83.5z M106.6,85.6
	c-0.5,0-0.9,0.4-0.9,0.9s0.4,0.9,0.9,0.9s0.9-0.4,0.9-0.9C107.6,86,107.1,85.6,106.6,85.6z M64,85.7c-0.5,0-0.9,0.4-0.9,0.9
	s0.4,0.9,0.9,0.9s0.9-0.4,0.9-0.9S64.6,85.7,64,85.7z M110.3,86c-0.5,0-0.9,0.4-0.9,0.9s0.5,0.9,0.9,0.9c0.4,0,0.9-0.4,0.9-0.9
	C111.3,86.4,110.8,86,110.3,86z M109.8,88l-5.4,5.6l1.8,0.2l0.6,1.6l1.1-1l1.4,1L109.8,88z M112.7,89.2c-0.5,0-0.9,0.4-0.9,0.9
	s0.4,0.9,0.9,0.9s0.9-0.4,0.9-0.9S113.2,89.2,112.7,89.2z M70.4,91c-0.5,0-0.9,0.4-0.9,0.9s0.4,0.9,0.9,0.9s0.9-0.5,0.9-0.9
	C71.3,91.5,70.9,91,70.4,91z M47.4,91.7L46,92.8c1.1,0.4,1.7,1.4,1.7,1.4S47.6,93.6,47.4,91.7L47.4,91.7z M74.8,92.4
	c-0.5,0-0.9,0.4-0.9,0.9s0.4,0.9,0.9,0.9s0.9-0.4,0.9-0.9S75.3,92.4,74.8,92.4z M68.1,93.7c-0.5,0-0.9,0.4-0.9,0.9s0.4,0.9,0.9,0.9
	s0.9-0.4,0.9-0.9C69,94.1,68.6,93.7,68.1,93.7z M106.6,95.6c-0.5,0-0.9,0.4-0.9,0.9s0.4,0.9,0.9,0.9s0.9-0.4,0.9-0.9
	S107.1,95.6,106.6,95.6z M102.9,97c-0.5,0-0.9,0.4-0.9,0.9s0.4,0.9,0.9,0.9s0.9-0.4,0.9-0.9S103.4,97,102.9,97z M140.4,97.2l1.9,2.1
	v31.2h-1.9V97.2z M65.1,97.5c1.6,0,3.3,0.2,3.9,1.2c0.9,1.1-1,0.7-2.5,0.9c-1.4,0.2-0.6,0.5,1.4,0.6c2.8,0.2,3.9,0.2,4.3,0.9
	c0.2,0.6,0.1,1,0.1,1.7l-3.2-0.2c-1.6,0-2.6,0-3.1,0.1c-0.4,0.1-0.3,0.4-0.1,0.6c0.1,0.1,1.3,0.1,2.8,0.1c4,0.1,4.9,0.2,5.1,1.5
	c0.2,1.2-0.7,1-4.8,0.6c-1.8-0.2-2.8,0.3-3.1,0.4c-0.4,0.2,1.3,0.4,1.9,0.3c0.4-0.1,3,0.2,3.9,0.4c0.8,0.1,0.1,0.1-0.3,0.6
	c-0.3,0.4-0.2,0.9-0.6,1.1c-0.5,0.3-1.6,0.3-3.4,0.3c-2.1,0-3.1,0.5-0.2,0.7c1.9,0.1,2,0,2.1,0.6c0.4,1.4-0.5,1.6-2.4,1.9
	c-0.9,0.2-2.3,0.1-3.3,0c-4.1-0.3-5.5-1.3-6-3.1c-2-6.8,0.5-10.9,6.4-11.2C64.3,97.5,64.7,97.5,65.1,97.5L65.1,97.5z M106.1,97.8
	l-4.6,6.8l1.8-0.7l0.8,1.8l1.4-1l1.4,0.9L106.1,97.8z M71.8,98.6c0.2,0.3,0.1,0.5-0.3,0.7c-0.3,0.2-0.9,0-1.3-0.1
	c-0.5-0.2-0.5-1.1-0.1-1.2C70.7,97.9,71.4,98.2,71.8,98.6L71.8,98.6z M38.6,98.2l-2.1,2.3c0,0,1.9-0.7,3-1.1L38.6,98.2z M108.9,99.3
	c-0.5,0-0.9,0.4-0.9,0.9s0.4,0.9,0.9,0.9s0.9-0.4,0.9-0.9S109.4,99.3,108.9,99.3z M143,100.1c0,0,2.3,2.3,3.3,3.3h-0.9v1.8h2.8
	l1.5,1.5h-4.2v1.9h5.2v-0.8l2.1,1.9l0.2,20.9h-9.9C143,120.4,143.1,110.4,143,100.1L143,100.1z M74.8,102.4c-0.1,0.5-0.5,0.5-1,0.2
	c-0.8-0.3-0.7-1.2-0.1-1.3C74.9,101.1,75.1,101.7,74.8,102.4L74.8,102.4z M77.9,102.8c-0.5,0-0.9,0.4-0.9,0.9s0.4,0.9,0.9,0.9
	s0.9-0.4,0.9-0.9S78.4,102.8,77.9,102.8z M74.6,103.5c0.4,0,0.7,0.2,0.9,0.4c0.5,0.5,0.3,1-0.2,1.3c-0.6,0.3-1.1-0.1-1.3-0.9
	C73.9,103.8,74.2,103.5,74.6,103.5z M103.9,106c-0.5,0-0.9,0.4-0.9,0.9s0.4,0.9,0.9,0.9s0.9-0.4,0.9-0.9S104.4,106,103.9,106z
	 M73.1,107.1c0.8,0,1,0.9,0.6,1.3c-0.6,0.6-1.5,0.3-1.7-0.2C72,107.5,72.5,107.1,73.1,107.1z M100.5,107.5c-0.5,0-0.9,0.4-0.9,0.9
	s0.4,0.9,0.9,0.9s0.9-0.4,0.9-0.9C101.5,107.9,101.1,107.5,100.5,107.5z M103.8,108.1l-4.2,7.1l1.7-0.7l1,1.4l1.1-0.9l1.6,0.8
	L103.8,108.1z M71.1,109.3c0.7,0,1,0.6,0.4,1.1c-0.4,0.4-0.8,0.4-1.2,0C69.7,110,70.2,109.3,71.1,109.3z M106.8,109.4
	c-0.5,0-0.9,0.4-0.9,0.9s0.4,0.9,0.9,0.9s0.9-0.4,0.9-0.9S107.3,109.4,106.8,109.4z M76.4,110.2c-0.5,0-0.9,0.4-0.9,0.9
	s0.4,0.9,0.9,0.9s0.9-0.4,0.9-0.9C77.4,110.6,76.9,110.2,76.4,110.2z M145.5,110.4v2h5.3v-2H145.5z M76.5,112.1l-2,7.5l1.7-1l1,1.1
	l1-1.2L80,119L76.5,112.1z M80.1,113c-0.5,0-0.9,0.4-0.9,0.9s0.4,0.9,0.9,0.9s0.9-0.4,0.9-0.9C81,113.4,80.6,113,80.1,113z
	 M73.5,113.3c-0.5,0-0.9,0.4-0.9,0.9s0.4,0.9,0.9,0.9s0.9-0.4,0.9-0.9C74.4,113.8,74,113.3,73.5,113.3z M145.5,113.9v1.8h5.3v-1.8
	H145.5z M102.3,116.3c-0.5,0-0.9,0.4-0.9,0.9s0.4,0.9,0.9,0.9s0.9-0.4,0.9-0.9S102.8,116.3,102.3,116.3z M145.5,117.3v1.9h5.3v-1.9
	H145.5z M37.2,117.5H39v33.8l-1.8-1.9V117.5z M36.4,117.6l-0.1,30.9l-3.5-3.7h0.9v-2.1h-3l-1.3-1.3h4.3v-2.1h-5.1v1.3l-2.5-2.7
	v-20.2L36.4,117.6z M102.4,118.5l-2.8,7.4l1.8-1l0.9,0.9l0.9-0.9l1.6,0.8L102.4,118.5z M28.6,118.9v2h5.2v-2H28.6z M105.6,119.3
	c-0.5,0-0.9,0.4-0.9,0.9s0.4,0.9,0.9,0.9s0.9-0.4,0.9-0.9C106.5,119.7,106.1,119.3,105.6,119.3z M99.2,119.4c-0.5,0-0.9,0.4-0.9,0.9
	s0.4,0.9,0.9,0.9s0.9-0.4,0.9-0.9C100.2,119.8,99.7,119.4,99.2,119.4z M77.3,119.7c-0.5,0-0.9,0.4-0.9,0.9s0.4,0.9,0.9,0.9
	s0.9-0.4,0.9-0.9C78.2,120.2,77.8,119.7,77.3,119.7z M145.5,120.5v2.1h5.3v-2.1H145.5z M77.2,121.7l-0.8,1.2l-1.8-0.6l2.4,7.5l3-7.8
	l-1.8,1L77.2,121.7z M28.6,122.2v2h5.1v-2H28.6z M145.5,124v2.1h5.2V124H145.5L145.5,124z M28.6,125.7v2h5.1v-2H28.6z M102.3,126.1
	c-0.5,0-0.9,0.4-0.9,0.9s0.4,1,0.9,1s0.9-0.4,0.9-1C103.3,126.5,102.8,126.1,102.3,126.1z M74.3,127.1c-0.5,0-0.9,0.4-0.9,0.9
	s0.4,0.9,0.9,0.9s0.9-0.4,0.9-0.9S74.8,127.1,74.3,127.1z M80.3,127.3c-0.5,0-0.9,0.4-0.9,0.9s0.4,0.9,0.9,0.9s0.9-0.4,0.9-0.9
	S80.8,127.3,80.3,127.3z M145.5,127.4v1.9h5.2v-1.9H145.5L145.5,127.4z M102.3,128.3l-1.1,1.2l-1.6-0.5l3.6,6.9l1.8-7.4l-1.6,1
	L102.3,128.3z M28.6,129v2.2h5.2V129H28.6z M77.2,130c-0.5,0-0.9,0.4-0.9,0.9s0.4,1,0.9,1s0.9-0.4,0.9-1
	C78.2,130.4,77.7,130,77.2,130z M77.2,131.9c-0.4,0.3-0.6,0.8-1,1l-1.7-0.7l1,9.3l4.7-8.8l-2.2,0.4L77.2,131.9z M28.6,132.2v2.3h5.1
	v-2.3H28.6z M106,133.3c-0.5,0-0.9,0.4-0.9,1c0,0.5,0.4,0.9,0.9,0.9s0.9-0.4,0.9-0.9C106.9,133.7,106.5,133.3,106,133.3z
	 M99.9,133.4c-0.5,0-0.9,0.4-0.9,1c0,0.5,0.4,0.9,0.9,0.9s0.9-0.4,0.9-0.9S100.4,133.4,99.9,133.4z M28.6,135.6v2.3h5.1v-2.3H28.6z
	 M103.3,136.1c-0.5,0-0.9,0.4-0.9,0.9s0.4,0.9,0.9,0.9s0.9-0.4,0.9-0.9S103.8,136.1,103.3,136.1z M116.5,136.2
	c5,0.2,5.7,1.8,5.8,7.4c0,4.5-1.3,6.3-4.5,7.1c-1.2,0.3-5.6,0-6.8-0.4c0-0.4-0.6-1.3-0.8-2c0.3-0.1,1.3,0.1,3.2,0.2
	c1.5,0.1,1.9-0.1,1.5-0.4c-2.9-0.7-4.9-0.5-7.7-1c0-0.8-0.7-1.8-0.7-1.8c0.2-0.1,4.3,0.4,6.5,0.3c1,0,0.4-0.5,0-0.6
	c-2.6-0.4-4.2-0.3-6.9-0.7c0.1-0.7-0.3-1.3-0.7-1.9c0,0,1.4,0,4.2,0c1.5,0,2.8,0.1,3.4,0.1c1.1,0,1-0.5,0-0.6
	c-1.2-0.1-5.7-0.2-5.7-0.2c0.3-0.2,0.8-2.2,0.6-2.2c0,0,1.2,0,1.9,0c3.6-0.1,4.3-0.1,4.3-0.2c0.5-0.4-0.8-0.6-2.2-0.6
	c-0.6,0-1.4,0.1-1.4-0.2c0-0.3,0-0.9-0.3-1.5C112.4,136.3,114.5,136.2,116.5,136.2L116.5,136.2z M73.3,137.4c-0.5,0-0.9,0.4-0.9,0.9
	s0.4,1,0.9,1s0.9-0.4,0.9-1C74.2,137.7,73.8,137.4,73.3,137.4z M109,137.6c0.6,0,0.8,1.1,0.2,1.3c-0.9,0.3-1.4,0.1-1.3-0.5
	C108,138.1,108.6,137.6,109,137.6L109,137.6z M79.4,138.6c-0.5,0-0.9,0.4-0.9,1c0,0.5,0.4,0.9,0.9,0.9s0.9-0.4,0.9-0.9
	S79.9,138.6,79.4,138.6z M106.1,139.6c2.1,0,1,2.9-0.6,1.8C104.6,140.9,105.2,139.6,106.1,139.6z M72.6,142c0,0-0.1,0-0.1,0.1
	L73,151l5.1-8.3l-2,0.8l-0.9-1.3l-1.1,0.9C73.7,143.3,72.8,142,72.6,142L72.6,142z M104.1,142.9c0.9,0.1,1.6,1.1,0.9,1.6
	C103.5,145.1,102.7,142.9,104.1,142.9z M101.8,144.8c-0.5,0-0.9,0.4-0.9,1c0,0.6,0.4,0.9,0.9,0.9s0.9-0.4,0.9-0.9
	S102.3,144.8,101.8,144.8z M105.4,145.6c0.8,0,1.2,1.2,0.4,1.6c-0.2,0.1-0.7,0.1-0.9,0C104,146.4,104.4,145.7,105.4,145.6
	L105.4,145.6z M70.4,147.1c-0.5,0-0.9,0.4-0.9,0.9s0.4,0.9,0.9,0.9s0.9-0.4,0.9-0.9S70.9,147.1,70.4,147.1z M141.8,148.3l-3.5,1.2
	v1.7C139.9,150.6,140.7,149.4,141.8,148.3L141.8,148.3z M109.4,149.1c0.6,0.3,0.8,1.1,0.2,1.4c-0.4,0.2-1.5,0.2-1.8-0.2
	C107.1,149.1,108.6,148.8,109.4,149.1L109.4,149.1z M76.7,149.4c-0.5,0-0.9,0.4-0.9,0.9s0.4,0.9,0.9,0.9s0.9-0.4,0.9-0.9
	S77.2,149.4,76.7,149.4z M72.8,151c-0.5,0-0.8,0.4-0.8,0.8c0,0.4,0.4,0.8,0.8,0.8c0.5,0,0.8-0.4,0.8-0.8
	C73.6,151.4,73.3,151,72.8,151z M111.7,152.5c-0.5,0-0.9,0.4-0.9,0.9s0.4,0.9,0.9,0.9s0.9-0.4,0.9-0.9S112.2,152.5,111.7,152.5z
	 M69.8,152.5v8.4l5.5-6.9l-1.9,0.4l-0.8-1.7l-1.2,0.8L69.8,152.5z M104.8,154.4c-0.5,0-0.9,0.4-0.9,0.9s0.4,1,0.9,1s0.9-0.4,0.9-1
	C105.7,154.7,105.3,154.4,104.8,154.4z M132.4,154.5l-0.9,1.6l2.6-1.4L132.4,154.5z M108.6,155.6c-0.5,0-0.9,0.4-0.9,0.9
	s0.4,0.9,0.9,0.9s0.9-0.4,0.9-0.9C109.5,156,109.1,155.6,108.6,155.6z M111.7,156.6l-1.1,1.6l-1.5-0.5l-0.4,1.5l-1.8-0.1l5.7,5.1
	L111.7,156.6z M66.9,157.3c-0.5,0-0.9,0.4-0.9,1c0,0.6,0.4,0.9,0.9,0.9s0.9-0.4,0.9-0.9S67.4,157.3,66.9,157.3z M152.9,159.5v69h-32
	l-13.4-18.9c-0.3-3-0.1-6.2,1.1-10.2c1.3,0.9,4.2,0.4,4.1-3.2c-0.1-2.3-3.6-3.5-5.4-1.8c0.1-2.3,1-5.7,2.3-6.7
	c0.9,0.8,1.1,2.1,3.1,1.7c1.4-0.2,2.6-1.9,2-3.8c-0.2-0.5-0.2-1.1-0.2-1.5s0-1.1,0-1.5c-0.1-0.5-0.1-1.1-0.1-1.1
	C129.2,178.2,142.3,169,152.9,159.5L152.9,159.5z M73.5,159.8c-0.5,0-0.9,0.4-0.9,1c0,0.5,0.4,0.9,0.9,0.9s0.9-0.4,0.9-0.9
	S74,159.8,73.5,159.8z M69.1,160.7c-0.5,0-0.9,0.4-0.9,0.9s0.4,0.9,0.9,0.9s0.9-0.4,0.9-0.9S69.6,160.7,69.1,160.7z M115.3,161.2
	c-0.5,0-0.9,0.4-0.9,1c0,0.5,0.4,0.9,0.9,0.9s0.9-0.4,0.9-0.9C116.3,161.6,115.9,161.2,115.3,161.2z M65.7,162.2l-1.5,8.8l6.4-6.6
	h-1.7l-0.3-1.5l-1.6,0.5L65.7,162.2z M109,164.1c-0.5,0-0.9,0.4-0.9,1c0,0.5,0.4,0.9,0.9,0.9s0.9-0.4,0.9-0.9
	C109.9,164.5,109.5,164.1,109,164.1z M113.1,165.1c-0.5,0-0.9,0.4-0.9,0.9s0.4,0.9,0.9,0.9s0.9-0.4,0.9-0.9S113.6,165.1,113.1,165.1
	z M61.7,166.3c-0.5,0-0.9,0.4-0.9,0.9s0.4,0.9,0.9,0.9s0.9-0.4,0.9-0.9S62.3,166.3,61.7,166.3z M116.9,167l-1.5,1.2l-1.4-0.9
	l-0.3,1.9l-1.2,0.6l5,3.6L116.9,167z M120.6,169.5c-0.5,0-0.9,0.4-0.9,1c0,0.6,0.4,0.9,0.9,0.9s0.9-0.4,0.9-0.9
	C121.5,170,121.1,169.5,120.6,169.5z M67.7,169.9c-0.5,0-0.9,0.4-0.9,0.9s0.4,0.9,0.9,0.9s0.9-0.4,0.9-0.9S68.2,169.9,67.7,169.9z
	 M63.5,171.1c-0.5,0-0.9,0.4-0.9,1c0,0.5,0.4,0.9,0.9,0.9s0.9-0.4,0.9-0.9C64.4,171.5,64,171.1,63.5,171.1z M118.2,173.6
	c-0.5,0-0.9,0.4-0.9,1c0,0.5,0.4,0.9,0.9,0.9s0.9-0.4,0.9-0.9C119.1,174,118.7,173.6,118.2,173.6z M114.2,174.5
	c-0.5,0-0.9,0.4-0.9,0.9s0.4,0.9,0.9,0.9s0.9-0.4,0.9-0.9S114.8,174.5,114.2,174.5z M78,175.8L78,175.8c0.1,0.1,0.4,1,0.2,1.4
	c-0.1-0.1-0.8-0.7-0.6-0.9C77.6,176.2,77.9,175.8,78,175.8L78,175.8z M56.8,177.3c0,0,0.9,0,1.1,0.1c0,0.2-0.2,0.7-0.5,1.3
	c-1.2,2.9-1.4,6.1-0.2,9.2c1.9,4.2,7.4,14.2,7,15.1l-12.1,0.1l0.1-1.9c3.4-0.1,3.9-2.3,3.1-4c-0.6-1.2-2.2-1.9-3.8-1.3
	c-2.2,0.9-2.3,2-3.1,3.7l-0.3-0.4c0.7-0.9,0.9-1.7,0.8-2.7c-0.1-1-0.1-0.7,0.2-1.2c1.9-2.1,0.7-4.8,0.7-4.8
	C49.6,188.8,55.5,178.3,56.8,177.3L56.8,177.3z M29,177.6c3.5,2.8,6.4,12.2,6.3,12.3c-0.2-0.1-2.8,3,0,6c0,0-0.2,1.8,0.4,2.7
	c-1.2,2.6-1.5,2.8-1.6,5c0,0-0.2,0-1.4,0c-5.7,0-6,7.4-0.3,7.8c0.8,0.1,1.1-0.1,1.5,0.3c0.5,0.6,0.9,1.2,1.7,0.9
	c0.2,0,0.5,0.2,0.8,0.5c0.5,0.8,1.3,1.3,2.5,1.1c0.4,0,0.8,0.2,1.3,0.3c0.5,0.4,1.4,0.7,2.1,0.4c0.2-0.1,0.6-0.1,0.9,0
	c0.8,0.4,1.7,0.1,2-0.1c0.8-0.4,0.9,0.2,0.9,0.8c-0.4,1.4,0.5,2.6,1.8,3.2c2.7,0.9,4.1-0.9,4.7-4.3c0.1-0.7,0.3-1.6,0.3-1.6l9.2,0.2
	l-13.2,15.4h-23v-51C26.9,177.5,28.1,177.6,29,177.6L29,177.6z M111.7,180.3c1.7,0.7,1.8,1.9,0.1,1.3c-2.7-0.8-5.6,0.8-6.2,3.2
	c-0.1,0.4-0.2,0.8-0.3,0.9c-0.4,0.5-0.4,0-0.2-1.3c0.2-2.6,2-4.5,4.4-4.5C110.2,179.9,111.1,180.1,111.7,180.3L111.7,180.3z
	 M110.9,182.2c0.7,0,1.4,0.2,2,0.7c0.6,0.7,0.4,1.2,0,1.1c-2.3-1-5.2,0.2-6.3,3.1c-0.7,1.8-0.8,0.8-0.5-0.6
	C106.6,184.1,108.5,182.2,110.9,182.2L110.9,182.2z M95.1,182.9c-1,0-1.9,0.2-2.4,0.7c-0.9,0.9-0.2,0.9,1.5,0.3
	c0.8-0.3,2.3-0.2,3.3,0.2c0.8,0.3,1.1,0.4,1.1,0.2C98.5,183.4,96.8,182.9,95.1,182.9z M113.6,185.8c0.4,1,0.1,2.7-1.3,2.9
	c-1.7,0.2-2.6-2.7,0.5-2.2c-0.4-1.2-1.8-0.8-2.5-0.6c-1.4,0.6-2.4,2-3.3,4.6c-0.3,0.8-0.4,1.2-0.5,1.1c-0.2-0.1-0.2-1.3,0.1-2.8
	c0.7-2.6,2.4-4.2,4.1-4.2C111.9,184.4,113.3,184.9,113.6,185.8L113.6,185.8z M89,184.7c-0.2,0,0.1,0.6,0.5,1.4
	c0.2,0.5,0.4,1.1,0.4,1.2c0,0.5,0.3,0.6,0.9,0.3c0.6-0.3,0.7-0.6,1.5-0.2c0.8,0.4,1.6,0.7,2.3,0.3c0.4-0.2,0.6-0.2,1.4,0
	c0.9,0.2,1,0.3,1.7,0c0.9-0.4,1.9-0.1,2.1,0.1c0.2,0.2,0.1-0.1,0.6-1.2c0.2-0.5,0.5-1.1,0.4-1.3c-0.1-0.2-0.9,0-1.8,0.3
	c-0.5,0.1-0.9,0.1-1.8-0.2c-1.9-0.5-3-0.4-4.2,0.2C92.4,185.8,90.7,185.4,89,184.7C89,184.7,89,184.6,89,184.7L89,184.7z
	 M92.7,189.7c-0.8,0-1.6,0.5-2,1.3c-0.4,1,0.3,2.9,1.3,3c0.9,0.1,0.9-0.4,0.4-0.6c-0.7-0.2-1.6-1.3-1-2.2c0.4-0.6,1.5-0.6,2.3,0.1
	c1.6,1.5,3.4,1.6,3.7,0.3c0.1-0.5-0.3-1.2-0.9-1c-0.5,0.2-1.6,0.2-2.5-0.4C93.6,189.9,93.1,189.7,92.7,189.7z M109.3,194.6
	c4-0.2,2.3,5.3,0,3.9c-0.8-0.5-0.5-2.4,1.7-2.4c-2.2-1.7-3.6,0.4-3.1,2.7c-0.5,0.8-0.6,2.2-0.9,3c-0.5,0.9-0.9-1.5-0.4-3.9
	C107.1,195.7,107.9,194.7,109.3,194.6L109.3,194.6z M86.5,194.8c-0.8,0,0,0.9,0.2,1c2.5,2,3.7,3.2,1.7,2.6c-3.3-0.8-4.1,0.1-6.6,1.3
	c-0.5,0.2-0.6,0.1-1.1-0.1c-2.2-0.7-2,0.7,0.3,2c3.5,1.9,6.3,2.3,9,0.9c1.7-0.9,1.8-0.3,0.2,0.7c-2.8,1.6-5.7,1.4-10.1-1.4
	c-1.4-0.9-1.6-0.3-0.2,0.7c3.4,2.1,7.9,3.9,11.6,0.9c0.7-0.7,0.9-1,1.4-0.7c1.5,0.7,1-0.6,0-1.8c-0.4-0.4-0.6-0.8-0.6-1.1
	c0.1-1.1-0.5-1.1-1-1c-0.6,0-0.6-0.2-1.3-1.1C88.8,196.4,87.4,195,86.5,194.8L86.5,194.8z M53,200.5c-1.4,0.1-1.7,0.2-1.4,3.1
	c0.1,0.5,0.3,2.2,0.4,2.8c0.8,7.6,0.2,11-1.9,11.9c-0.8,0.3-1.5,0.2-2,0c-1.3-0.5-1.9-2.2-0.9-4.1c0.3-0.5,0.6-1.3,0.7-1.8
	c0.1-0.5,0.4-1.5,0.6-2.3c0.5-1.9,0.8-4.8,0.5-7.6c-0.2-1.9-0.2-2,0.3-3.3c1-1.9,1.7-2.8,3.8-2.9C55.4,196.6,56.1,200.2,53,200.5
	L53,200.5z M104.3,200.3h-0.7c-0.8-2.7-2.4-1.8-2.7,0.1h-0.6C100.5,196.8,104.8,197.8,104.3,200.3L104.3,200.3z M43,198.3
	c4.5,0.4,5.3,1.6,5.6,7c0,2.6-0.1,4.2-0.5,4.8c-0.7,0.3-1.3-0.3-2.3,0.3c-0.5,0.3-0.4,0.4-0.6,0c-0.2-0.3,0-1.7,0.4-2.8
	c0.3-1.1-0.2-1.7-1.7-3c-0.4-0.4-0.7-0.9-1.1-1.6c-0.8-2.1-1.2-1.2-0.5,0.6c0.3,0.8,0.4,1.2-0.6,0.8c-0.6-0.2-1.1,0-1.5,0.3
	c-1.2,0.3-2.3-0.4-1.2-0.8c0.6-0.2,1.8-0.6,2.2-0.6c0.3,0,0.4-0.1,0.4-0.2c0-0.5-2.4-0.5-4.2,0.2c-2.2,1-2.3,0.8-2.1-0.8
	C35.7,198.5,39.4,198,43,198.3L43,198.3z M86.5,198.7c1.1-0.1,2.2,1.3,2,2.4H88c-0.3-2.1-2.2-2.2-2.8,0.2h-0.8
	C84.9,199.4,85.8,198.7,86.5,198.7z M99.8,198.7c0.4,0.3,0.1,1-0.3,1.2c-0.2,0-0.8-0.4-0.6-0.6C99.1,199,99.5,198.8,99.8,198.7
	L99.8,198.7z M104.9,199.1c0.3,0,0.7,0.2,0.8,0.6c0,0.6-0.5,0.5-0.6,0.4C104.8,199.8,104.6,199.1,104.9,199.1L104.9,199.1z
	 M89.3,199.6c0.8,0.1,1.1,1.2,0.2,1.2C89,200.9,89,199.8,89.3,199.6z M84.2,199.7c0.1,0-0.1,0.9-0.3,1c-0.4,0.3-0.9,0-0.9-0.3
	C83.1,199.8,83.8,199.7,84.2,199.7L84.2,199.7z M98.8,201.8c1.6,0.6,3.7,1.2,5.6,0.5c0.7-0.3,1.3-0.6,1.3-0.3c0,0.3-0.6,0.8-1.6,1.1
	c-2.1,0.6-3.6,0.4-5.1-0.7C98.6,202.1,98.5,201.8,98.8,201.8L98.8,201.8z M98.1,202.7c2.6,1.5,4.9,1.7,7,0.6c0.8-0.3,0.9,0,0.9,0.5
	C102.2,207.2,97.5,203.7,98.1,202.7z M34.8,205.1c-0.6,1.3-1,4.5-2,5.5C25.6,210.1,30.2,200.6,34.8,205.1z M79,204
	c-0.4,0.2,0,1.2,0.6,1.5c5.5,2.4,8.2,2.7,11.3,1.6c1.3-0.5,2-1.5,2.1-2c0.1-0.6-0.8-0.7-2.2,0c-4.4,1.8-7.2,0.4-10.8-1
	C79.6,203.9,79.3,203.9,79,204L79,204z M58.1,204.1v8.1l-5.2-0.1l0.1-1.2l3.9,0.1l-0.1-5.8h-4.5v-1.1H58.1L58.1,204.1z M59.3,204.1
	h5.2l0.3,0.8h-5.4v-0.8H59.3z M38.4,206.6c-0.3,0.3-0.9,0.4-1.2,0.1c-0.5-0.6,0-1.6,0.9-1.6C39,205.2,39,206,38.4,206.6L38.4,206.6z
	 M40.8,205.3c0.8,0,1,0.7,0.4,1.3c-0.4,0.4-0.6,0.4-1,0.1C39.8,206.4,40,205.4,40.8,205.3z M35.7,205.5c0.2,0,0.4,0,0.5,0.2
	c0.5,1-1.1,1.7-1.4,0.9C34.5,206.1,35.1,205.5,35.7,205.5z M65,205.6l0.3,1h-6v-1H65z M43.6,205.9c0.9,0.1,0.8,1,0.3,1.4
	c-0.7,0.7-1.4,0.5-1.2-0.4C42.8,206.4,43.2,205.9,43.6,205.9z M38.8,208.9c-0.3,1.1,0.4,3.4,0.2,3.7c-0.4,0.5-1.1,0.3-1.4,0.1
	c-1.1-0.7-1.1-4.8-0.1-5.1c0.7,0.3,1.1-0.3,1.4-0.4C39.1,207.1,38.9,207.7,38.8,208.9z M54.6,207.2c0.6,0,1.1,0.5,1.1,1.1
	c0,0.6-0.5,1.1-1.1,1.1c-0.6,0-1.1-0.5-1.1-1.1C53.5,207.7,54,207.2,54.6,207.2z M59.3,207.4h6.1c0.4,0.5,0.3,0.9,0.2,1.2h-6.3
	V207.4L59.3,207.4z M41.3,207.5c0.3,0,0.4,0.6,0.2,1.3c-0.3,1.2-0.3,3-0.1,3.7c0.2,0.5,0.3,0.9,0.2,1c-0.3,0.5-1.3,0.2-1.7-0.5
	c-1-1.9-0.8-5.4,0.4-5.1C40.8,208.1,41.1,207.7,41.3,207.5z M36,208c-0.3,0.5-0.1,3.2-0.1,3.4c0,0.3-0.8,0.1-1.2-0.1
	c-1-0.5-0.8-1.7-0.6-2.8c0.2-0.8,0.7-0.9,1.3-0.9C35.8,207.6,36.2,207.6,36,208L36,208z M44.3,208.1c0.3,0,0.4,0.2,0.3,1.2
	c-0.1,0.8-0.1,1.4,0,2.2c0.3,1.6,0.3,2-0.1,2.3c-0.5,0.4-1.1,0.3-1.6-0.2c-1-0.8-1-4.7-0.3-5C43.4,208.8,43.9,208.2,44.3,208.1
	L44.3,208.1z M65.4,209.3l-0.9,1.2h-5.2v-1.2H65.4L65.4,209.3z M46.8,210.9c0.8,0,0.7,1.5,0.2,2.4c-0.4,0.6-0.6,0.6-1.2,0.1
	C45.2,212.8,46,210.9,46.8,210.9z M63.8,211.3l-0.7,0.7h-3.8v-0.7H63.8L63.8,211.3z"/>
<path fill="#D40000" d="
	M38.3,182.2l-6.3-5c7.5-0.2,15.1,0,22.6,0.1l-7.5,5.4c-1.5-1.7-2.4-4-4.6-5.1C40.8,178.3,39.7,180.7,38.3,182.2z M93.5,180.4
	c-0.2-0.1-0.3-0.4-0.4-1.2c-1.9-8.9-11.1-8.3-11.1-8c-0.1-0.4,11.5-10.9,18.3-19.2c2.1,6.3,8.3,20.8,8,20.8c0,0-1.8,0-6.5-0.1
	c-4.2,1.9-7.2,3.8-7.1,6.6c0,1-0.3,1.4-0.6,1.3C94,180.5,93.7,180.4,93.5,180.4z M114.5,151.8c6-0.1,7.1-3.1,7.8-3.4
	c3.9-0.7,6.4,1.9,8.1,4.7c2.2,1.3,1.9,0.1,2.4-2l5.5-1.6v1.8c-1.7,0.9-4.2,3.3-4.2,3.3l-1.7-0.1l-1,1.3c-3.8,2.1-7.6,4.6-11.6,6.2
	C119.9,162,115.1,155.7,114.5,151.8L114.5,151.8z M39.7,152.4l-0.1-35.2c2.5-0.2,7.1-0.2,7.1-0.2c1.9-3.4,4.5-5,7.2-7
	c0.4,4.3,0.5,8.5,0.4,12.8c-7.1,8.8-11.1,19.7-6.7,35.9l-2.6-0.3L39.7,152.4z M79,154.4c2-7.3,3.6-14.8,4.3-22.5l13.6-0.2l0.3,4.7
	L79,154.4z M125.2,138.4l-0.3-13.2c9.9-12,10.5-22.5,6.8-35.7c3.3,0.8,4.9,3.3,8.1,6.9v34.3c-2.2,0.3-7.5,0.6-7.5,0.6
	C132.1,133,127.6,136.8,125.2,138.4L125.2,138.4z M83.3,117.6l-0.6-5.8l17.6-17.1c-1.5,7.4-3.2,15-3.7,22.9H83.3z M54.1,99.5
	c-1.3,0.8-5.9-4.1-6.6-7.3c1.2-1.6,11.4-6.7,11.4-6.7s6,7.8,5.7,11c-2.6,0.7-4.9,0.9-7,3.1C56.4,99.7,56,98.4,54.1,99.5z M46,92.9
	c1.4,0.2,0.5,2.2,0.3,3.6l-7.5,2.3C41.4,96.6,43.2,94.7,46,92.9L46,92.9z M70.4,75.8c1.5,0,3.1,0.6,4.3,0.1c0.4-0.2,1.3-0.4,2.3-0.3
	c2.2,0.7,3-1.8,4.5-1.8c1.8,0,2.9-1.3,2.9-3.9c0-1.1,0.1-1.3,0.3-1.4c0.6-0.3,1.3,0.1,1.4,0.8c1.3,4.8,4.7,9.2,9.9,8.8
	c-4.2,4.3-17,17.7-17,17.7C76.8,88.7,73.7,82.1,70.4,75.8L70.4,75.8z M124.8,71.6l7.7-5.7l4.6,5.7l4-5.4c2.3,1.7,7.7,5.5,7.7,5.5
	S132.8,71.9,124.8,71.6L124.8,71.6z"/>
<path d="
	M129.2,20.2l-70.8,0.5l13.8,18.6c14.6-3,27.3-1.1,40.5,1.3L129.2,20.2z M127.4,21.1l-4.7,5.9c-1.3-1.2-4.2-0.8-3.8,1.9
	c-3.6-1.9-4.4,3.3-1.3,3.1c-0.4,1-3.5,1.3-4.4-0.6c-3.2,1.8-4.1,0.1-5-1.1c4,2.8,6-2.9,1.6-3.3c1.7-3.6-4.5-5.2-4.1-0.5
	c-4.1-0.9-3.2,4.9-0.1,3.7c-2,3-5.2,1-5.8,0.4c-1.7,1.3-4.8,1.3-5.7-0.7c4.6,0.9,4.1-5.2,0-3.8c2.2-4.7-5-4.1-3.3-0.2
	c-4.1-0.2-3.2,5,0.4,4.1c-3.2,3.1-5.6,0.2-6.1,0.1c-1.9,2.1-5.2,1-5.7-0.3c3.3,1.3,4.3-4.3,0.2-3.9c1.1-3.6-4.9-4-3.6,0.1
	c-3.3-0.7-3.4,4.5,0.2,3.7c0.2,1.5-2.6,2.8-4.4,1.4c-1.3,0.7-2.7,1.8-4.4,0.2c2.6-0.4,3-4.8-1.2-3.9c0.2-2.7-1.3-2.9-3.2-2.2L60,21
	L127.4,21.1z M78.5,27.8c-0.2,0.5-0.6,0.8-0.5,1.2c0.1,0.3,0.4,0.8,0.8,1.3c3.5,4.7,10.7,4.5,12.9-0.3c0.4-0.9,0.4-1.1-0.2-1.9
	c-0.6-0.9,0.1-1.9,0.9-1.8c1.2,0.1,1.4,1.2,0.8,1.9c-1.2,1.6,2.1,5.1,5.5,5.6c4.3,0.7,8.4-2.4,7.8-5.1c0-0.2-0.1-0.3-0.1-0.5
	c-0.5-2.3,3.1-1.2,1.8,0.3c-0.5,0.5-0.7,0.7-0.7,1.3c1,4.9,6.9,5.4,9.7,3.9c-3.6,5.9-9.3,1.4-10.3-2.8c-5,7.4-11.1,5.8-14.4-0.6
	c0.4,0.4-6.6,11.6-14.6,0.1c-3.4,9.3-9.5,3-9.1,2.6c2.8,1.6,8,1,8.5-3.9c0.1-0.6-0.4-0.6-0.7-1.1C75.2,25.6,79.5,25.5,78.5,27.8
	L78.5,27.8z M65.2,28.4c0.6,0.1,0.7,0.3,0.6,1L65.2,28.4z M120.2,30.1l-0.9,1.2C119,30.7,119,30.2,120.2,30.1z M130.3,30.5
	c-2.2,0.1-3.9,3.2-3.8,7.3c0.1,2,0.4,7,0.5,7.8c0.2,1,0,2.5-0.4,2.6c-1,0.4-1.3,0.6-1.6,1.1c-0.7,1.2-0.1,2.6,1.3,3.2
	c1,0.4,2.3-0.2,3.1-1.5c0.5-0.7,0.6-1,1-2.9c0.2-0.8,0.2-2.2,0-3.5c-0.5-2.9-0.1-6.5,0.9-8.2c1.8-3.1,1.7-5.1-0.1-5.7
	C130.9,30.6,130.6,30.5,130.3,30.5L130.3,30.5z M130.1,31c2.6,0,2.5,2.6,1.1,3.4c-0.6,0.2-1.2,0.3-1.9-0.1c-0.8-0.4-0.7,0.1,0.1,0.6
	c0.9,0.7,1.3,0.6,0.8,2.2c-0.5,1.5-0.7,4.7-0.5,6.5c0.7,5,0.1,7.4-2,8.3c-1,0.4-2.1-0.2-2.4-1c-0.4-1.3,0.3-2.4,2.3-2.1
	c0,0,0.1-0.4-0.4-4.7c-0.7-6-0.4-10.2,0.7-11.7C128.6,31.6,129.4,31,130.1,31z M147.5,37.2c-0.6,0-1.2,0.2-1.9,0.5
	c0,0-0.1,2.7-0.1,3.1c-0.4,2.3-0.3,2.6,0.7,2.9c2.5,0.8,4.6-0.9,4.5-3.6C150.7,38.6,149.3,37.2,147.5,37.2z M147.9,37.5
	c1.4,0,2.7,1.6,2.5,3.2c-0.1,1.9-1.8,2.9-3.4,2.5c-0.5-0.1-0.9-0.2-1.1-0.5c-0.3-0.5,0.2-0.7,1.2-0.7c1.2,0,1.4-0.2,1.8-0.8
	c0.8-1.3-0.2-3-1.5-2.6c-0.4,0.1-0.5,0.3,0,0.4c1.5,0.7,1,1.7,0.4,2.1c-0.6,0.5-1.7-0.2-1.8-0.6l0.1-2.5
	C146.1,38,146.6,37.5,147.9,37.5L147.9,37.5z M132.2,49.2c0,0-0.6,0.3-0.9,0.5c-0.6,0.6-0.7,1.4-0.4,2.3c0.1,0.4,0.1,0.4-0.4,1.1
	c-1.3,1.8-1.5,2.6-0.8,4.2c0.3,0.7,0.3,0.7,0,1.7c-1.3,4.1-3.7,8.7-6.4,11.9c-0.4,0.5-0.6,1-0.6,1s0.6,0,1-0.2
	c2.7-1.4,5.6-4.1,8.3-5.8c-4.2,3.5-8.8,6.6-8.8,6.6l5.8,0.3c-1.4,1.5-26.8,23.3-20,62.3c7.9-2,11.6-5.3,15.8-9.1
	c0,3.1,0.1,11.6,0.1,11.6c0.1-0.1-3.7-1.4-2.8,1.7c0.5,1.7,0.8,6-0.1,8.5c0,0.1,0.4,0.3,0.4,0.4c0,0.1-0.6,0.1-0.6,0.1
	c-1.4,2.7-5.1,3.3-7,3.2c-0.7-0.1-0.4,0.9-0.3,1.2c0.3,1.4,1.9,4.4,4.9,9.2l0.8,0.1l-0.5,0.4c0.3,0.6,1.3,1.9,1.3,1.9v0.4
	c0,0,1.6,2.3,2.5,3.4c0.1,0.1,0.2-0.1,0.3,0c0.5,0.6,1.1,1.3,1.6,1.8c0,0-0.1,0.2,0,0.3c0.9,1,2.8,3.1,2.8,3.1l0.4-0.1l1.4,1.6
	c11.9-5.5,24.3-17.6,24.2-17.6l0.1-26.1h-14.1l-0.1-34.6l14.1,14.1l-0.1-4c-3.2-3.1-16-16.2-16-16.2c1.9-0.3,3.7-0.9,5.4-1.8
	c3.1,1.7,6.3,2.7,10.1,2.2V87c-4.3,0-6.9-1.4-8.8-3.2l-2.6-0.1c-4.9,3.7-8.3,2-12,1.3l-2.5-3.7l26.1-0.1l-0.2-9l-4,0.1l-2.6-1.9
	l3,1.3c0,0,0-0.5-0.6-1.4c-1.6-2.7-3.7-6.6-4.9-10c-0.6-1.7-0.6-1.7-0.1-2.7c0.7-1.4,0.5-3.1-0.4-4.1c-0.6-0.7-0.6-0.8-0.4-1.3
	c0.8-2-1.2-2.7-1.2-2.6C137.9,51,132.1,49.3,132.2,49.2L132.2,49.2z M142.4,49.9c0.9,0,1,0.4,1,1c-0.1,1.2-1.6,1.6-2.3,1.8
	c-3.4,0.8-9.2,0.3-9.6-1.3c-0.3-1.2,0.4-1.8,2.8-1.2C138.1,51.1,140.4,50.2,142.4,49.9z M131.5,53.3c0.3,0,0.8,0.4,0.9,0.9
	s-0.4,2-0.8,2.3c-1.1,0.8-2-0.5-1.3-1.9C130.7,53.8,131.1,53.3,131.5,53.3L131.5,53.3z M143,53.5c0.2,0,0.4,0,0.6,0.2
	c0.8,0.6,0.9,2.7,0.1,3c-0.8,0.3-1.6-0.5-1.5-1.9C142.2,53.9,142.5,53.4,143,53.5L143,53.5z M140.3,53.9c0.2,0,0.4,0,0.5,0.1
	c0.7,0.3,1,2.5,0.3,3.2c-0.5,0.5-1.7,0.5-2-0.6C138.7,55.3,139.4,53.9,140.3,53.9L140.3,53.9z M134.3,54c1,0,1.3,2.3,0.3,3.3
	c-0.8,0.8-2.1,0-1.7-1.6C133.1,54.9,133.5,54,134.3,54z M137.3,54.3c1.5,0.3,1.4,4-0.6,3.6C135.6,57.2,135.6,54.4,137.3,54.3z
	 M130.7,58.3l2.1,0.2c-0.1,0-3.4,7.2-6.4,9.1C128.1,64.8,129.5,61.5,130.7,58.3L130.7,58.3z M143.5,58.4c1.2,3.4,2.5,6.8,4.2,10.2
	c-2.6-2.5-4.9-6.4-7-10.1L143.5,58.4z M133.4,58.7h1.4c0.5,2.2,1.3,3.6,2.2,4.8c0.8-1.4,1.4-3,1.9-4.6h1.1c0.4,0.3-1.3,6.8-3,7.6
	C135.2,65,133.7,60.9,133.4,58.7z M132.8,60.3c-0.1,0.2,2.2,5.8,4.2,7.6c1.8-1.8,3-4.2,3.8-7.1l6.1,8.6l-5.9-4.1
	c-1.2,2-2.4,3.9-3.9,5.5c-1.6-1.8-3-3.9-4.5-5.9c-2.3,1.7-3.9,3.5-6.8,5.2C125.7,70.1,131.5,63.7,132.8,60.3z M132.3,66.4l4.1,5.1
	l-11-0.2L132.3,66.4z M141.2,66.5l6.9,4.8l-10.3,0.1L141.2,66.5z M86,68.9c0,0,0.1,0.3,0.1,0.5c1.2,5.1,4.6,9.3,9.7,8.8L79,95.2
	c0,0-2.8-9.5-8.4-19.3c0,0,1,0.2,1.8,0.4c0.8,0.1,1.3,0.1,1.9-0.1c0.4-0.1,0.8-0.4,1.1-0.4c0.6-0.1,1.5,0.1,1.9,0.3
	c1.2,0.2,1.9-0.4,3.4-1.7c0.4-0.3,0.5-0.3,1-0.3c1.8,0,3-1.6,2.8-4L84.4,69l-0.2,1.2c-0.4,2.3-0.7,3.3-3,3.4c-0.5,0-0.7,0.4-1.6,1.1
	c-1.2,1-2.1,1.1-2.9,0.7c-0.9-0.4-1-0.2-1.8,0.2c-0.9,0.5-2.3,0.4-3.5,0c-1.7-0.5-1.5-0.3-1.5-0.3c10,18,13.5,35.3,13.3,50.7
	c-0.3,21.9-7.9,39.5-14.5,50.2c0,0,1.1-0.1,2.1-0.3c0.5-0.1,0.9,0,1.3,0.2c0.5,0.2,0.8,0.2,1.2,0.1c0.3,0,1.2,0,1.7,0.1
	c1.2,0.2,1.3,0,2.6-1.3c3.8-3.7,3.5-3.6,6.3-3.5c4.1,0.1,7.4,2.9,8.8,7.4c0.2,0.6,0.4,1.4,0.4,1.4l-0.3-1.2c-1.2-6-6.3-8.2-10.5-8.1
	l17.8-18.1c-0.1,0,4.1,13.8,7.8,19.9c0,0-1.1-0.5-3.2-0.2c-1.1,0.1-2.4,0-3.1-0.1c-0.9,0-1.5,0.2-2.6,1.2c-0.5,0.4-0.9,0.8-1.8,1.2
	c-2.2,0.9-3,1.9-3,4.3c0,0.4-0.1,1-0.1,1.2c0,0.1,0,0.2,0,0.2s0.1-0.1,0.1-0.2c0.1-0.2,0.3-0.6,0.5-1.6c0.3-1.8,0.7-2.4,2.4-3.2
	c0.5-0.2,1.6-0.9,2-1.3c1.6-1.3,2.1-1.5,3.3-1.2c0.7,0.2,1.3,0.3,2.3,0.1c1.1-0.1,1.2-0.2,2.4,0.1c0.8,0.2,1.9,0.4,1.9,0.4
	c-17.3-35.2-16.7-67.8,0.3-101c0,0-5,0.1-5.3,0.2c-0.1,0.1-0.7,0-1.4-0.1c-1.4-0.3-1.1-0.1-4.3,3.2c-4,4.1-10.4,0.8-12.3-6
	c-0.1-0.4-0.2-0.6-0.3-0.8C86.1,69,86,68.9,86,68.9L86,68.9z M102.3,72.9c0.7,0.1,1.3,0.3,1.2,1L79.7,97.5L79.3,96L102.3,72.9z
	 M107.3,73c-0.3,0.6-1.1,1.3-1.4,1.9l1.3,1.6l-0.7,1.3l-2-1.7l-3.8,3.8l3.2,3.6l-3,3.1l-1-1.1l1.6-1.7L99,81.5l-4.3,4.3l3.5,3.6
	l-2.6,2.5l-1-1l1.4-1.5L93.7,87l-4,4.2l3.2,3.6l-2.5,2.5l-1.1-1.1l1.2-1.3l-2.3-2.4l-4.1,4.1l3.3,3.7l-2.4,2.2l-0.9-0.9l1.2-1.3
	l-2.2-2.4l-2.5,2.3l-0.4-1.6l25.2-25.4L107.3,73z M108.8,73.4l-1.1,2.2l-0.8-0.9l1.1-1.1L108.8,73.4z M49.4,73.6
	c-0.7,0.2-15.6,8.6-24.2,17.9V95l-0.3,0.4l0.2,5.4l0.2,0.3l0.1,2.2l-0.3,0.6v6l0.5,0.1l0.1,7.4h14v35.1c0,0-8.2-9.2-14.2-14.6v4.1
	l15.7,16.5c-1.1,0.2-2.5,0.4-4.6,1.6c-5.1-3.2-11-2.2-11-2.2v4.2c3.7-0.4,7.1,0.2,11.1,2.8c3.2-2.2,7.1-3.6,13-1.8
	c1.3,2.1,2.6,4.2,3.8,5.6l-27.8,0.2v8.5c1.2,0,4.3,0,4.3,0c1.6,3.1,4.6,7.3,5.9,12.7c-1.8,2.1-1.6,3.9,0.1,6c0,1-0.3,2,0.8,3.1
	c3.5-1.8,7.5-1,10.5-0.1c1,0.3,1.4-0.9,1.4-2.3c-0.1-0.8-0.1-1.2,0.5-1.8c1.5-1.3,0.6-4.1,0.3-4.1c-0.1-2.4,7.5-14.4,7.5-14.2
	l-1.5,0.6H49c17-16.6,24.1-35.6,22.6-57.1c-0.3-5.4-1.2-7.9-1.2-7.9c-6,2.7-10.9,4.7-15.7,9.9L54.4,111c0.3,0.5,2,1,2.8,0.3
	c0.5-0.4,0.6-0.7,0.1-2.1c-0.7-2-0.9-6.2-0.4-7.6c0.1-0.2,0.1-0.6,0.2-1C57.2,100,57,100,57,100c0.1,0,0.7,0.1,0.8,0
	c2-1.8,4.2-3,6.9-3.1l0.1-1.3c-2-5.1-3.7-7.1-5.5-10c0,0-0.5-0.2-0.8-0.1l0.4-0.4C56.3,80.8,52.7,77.1,49.4,73.6L49.4,73.6
	L49.4,73.6z M49.3,74.3l1.8,1.7c-8.6,4.2-17,10.3-25.4,18.6l0.1-3.1C35.2,82.5,42.3,78.2,49.3,74.3L49.3,74.3z M104.4,77.3l1.1,1.1
	l-1.5,1.8l1,1l-0.5,1.3l-2.5-2.6L104.4,77.3z M50.8,77.4c0.6,0,1,0.5,1,1c0,0.6-0.5,1-1,1s-1-0.5-1-1S50.2,77.4,50.8,77.4z
	 M124.2,78.9c17.5,19.8,8.5,48.5-14.8,55.4l-0.3-1.6c23.6-8.1,29.1-35,13.8-51.9L124.2,78.9z M53.8,79l1.1,1.3
	c-10,4.8-19.7,12.1-29.1,22.5l-0.1-2.6C34.6,90.8,44,84,53.8,79L53.8,79z M47.4,79.4c0.6,0,1,0.5,1,1c0,0.6-0.5,1-1,1
	c-0.6,0-1-0.5-1-1S46.8,79.4,47.4,79.4z M44.3,81.4c0.6,0,1,0.5,1,1c0,0.6-0.5,1-1,1c-0.6,0-1-0.5-1-1
	C43.3,81.8,43.7,81.4,44.3,81.4z M54.6,82.1c0.6,0,1,0.5,1,1s-0.5,1-1,1s-1-0.5-1-1S54.1,82.1,54.6,82.1z M99.1,82.8l1,1.1l-1.6,1.7
	l2.3,2.4l2.2-2.2l-1.1,3.2l-19.6,19.9l-0.4-2.1l1.5-1.6l-2.4-2.4l-0.4-1.6l2.3-2.2l1,1l-1.4,1.6l2.2,2.2l4-3.7l-3.3-3.7l2.7-2.7
	l0.9,0.9L87.7,96l2.3,2.5l4.1-4l-3.3-3.6l2.7-2.7l1,1l-1.4,1.7l2.3,2.3l4-4l-3.3-3.5L99.1,82.8z M41.2,83.5c0.6,0,1,0.5,1,1
	c0,0.6-0.5,1-1,1c-0.6,0-1-0.5-1-1C40.2,83.9,40.7,83.5,41.2,83.5z M57.4,83.7l0.8,1.3C46.3,91.1,38.1,97.2,26,111.2v-1.8
	C35.3,97.7,45,90.2,57.4,83.7L57.4,83.7z M51.4,83.8c0.6,0,1,0.5,1,1c0,0.6-0.5,1-1,1c-0.6,0-1-0.5-1-1S50.8,83.8,51.4,83.8z
	 M143.2,84.2c2.1,1.9,6.5,3.8,9.3,3.6l0.1,2.3c-4.9,0.5-9.3-2.7-9.3-2.7c-3.8,2.4-7.7,2.7-11.7,1.6l-1.6-3.4
	C136.1,88.4,141.7,85.7,143.2,84.2L143.2,84.2z M119.6,84.8c0.2,0.4,1,0.9,1,0.9c4.6-1.2,6,3.6,3.9,6.4l0.6,2
	c0.8,0.2,1.5,0.4,2.1,0.9c1.1,0.8,1.7,2.2,1.6,3.6c0.2,1.6-2.1,3-2.3,2.9v2.2c0.6,0.5,1.4,1.1,1.9,1.8c1.1,1.9,0.7,3.8-1,5
	c-1,0.7-2.1,0.8-2.2,0.7l-1.1,2.5c0.9,0.5,1.2,1.5,1.3,2.1c0.3,1.4-0.7,3.3-1.9,3.9c-1.6,0.9-3.7,0.1-3.7,0.1l-1.5,1.5
	c0.4,1.3,0.5,2.1,0.3,2.9c-0.5,1.9-2.5,2.7-4.1,2.5c-1.3-0.1-2.2-1-2.2-1l-1.7,0.7c0,0,0,2.2-0.8,2.8c-0.3,0.3-1.2,0.9-1.2,0.9
	l-0.2-1.5c0.7-0.5,1.1-1.7,0.9-2.5l3.6-1.8c0,0.1,1,1.1,1.7,1.2c1.4,0.3,2.8-0.8,2.8-2.1c0-0.8-0.4-1.3-0.5-1.9l3.1-3.2
	c1.3,0.4,2.2,0.5,2.7,0.2c1.1-0.6,1.4-1.9,1.2-2.7c-0.2-0.9-1.1-1.5-1.1-1.6l1.7-4.4c0.8,0,1.3-0.1,1.9-0.5c1.3-0.8,1.1-2.5,0.6-3.3
	c-0.7-1-1.6-1.1-1.7-1.1l0.1-4.6c0,0,1.7-0.8,1.9-1.9c0.3-1.5-0.3-2.5-2.2-2.9c-1-0.2-1,0-1,0l-1.4-4.1c2.3-1.4,1.6-3.6,0.4-4.4
	c-1.2-0.8-2.9-0.1-2.9-0.1s-0.8-0.8-1.4-1.4L119.6,84.8z M58.7,85.7c1.5,2,4,6.1,5.4,9.8c0.1,0.2,0,1,0,1c-4,0.4-5.4,2-6.9,3.1
	c-1.1-0.6-1.6-1.3-3.6,0c0,0.1-5.1-3.1-6.1-7.5C51.3,89.8,54.8,87.6,58.7,85.7L58.7,85.7z M38.2,85.7c0.6,0,1,0.5,1,1
	c0,0.6-0.5,1-1,1c-0.6,0-1-0.5-1-1S37.7,85.7,38.2,85.7z M47.9,85.9c0.6,0,1,0.5,1,1s-0.5,1-1,1c-0.6,0-1-0.5-1-1
	S47.4,85.9,47.9,85.9z M117.9,87.2c1.8,2.4,4.4,6.8,5.1,10.8c0.9,5.5,0.3,11.4-2.2,15.4c-4.5,8.7-12.4,10.5-12.4,10.9l-0.1-1.8
	c0.1,0.4,6-2.1,10.1-7.9c2.5-3.9,3.9-9.5,3.4-13.8c-0.3-6.3-4.7-12-4.7-12.1L117.9,87.2z M35,88c0.6,0,1,0.5,1,1c0,0.6-0.5,1-1,1
	c-0.6,0-1-0.5-1-1S34.5,88,35,88z M44.7,88c0.6,0,1,0.5,1,1c0,0.6-0.5,1-1,1c-0.6,0-1-0.5-1-1S44.2,88,44.7,88z M132.1,89.8
	c2.3,0.2,5,4.4,7.6,6.8v34.1l-7.5,0.2c-1,2.4-3.3,4.8-6.9,7.1v-12.8C137.6,111.7,134.2,97,132.1,89.8L132.1,89.8z M32.3,90.2
	c0.6,0,1,0.5,1,1c0,0.6-0.5,1-1,1c-0.6,0-1-0.5-1-1C31.2,90.7,31.7,90.2,32.3,90.2z M41.6,90.4c0.6,0,1,0.5,1,1c0,0.6-0.5,1-1,1
	c-0.6,0-1-0.5-1-1C40.6,90.8,41,90.4,41.6,90.4z M137.4,90.5l15.4,15.8l-0.1,2.3l-17.4-17.9L137.4,90.5z M47.2,91.9l0.4,2
	c-0.5-0.8-0.5-1.1-1.4-1.2L47.2,91.9z M38.9,92.5c0.6,0,1,0.5,1,1c0,0.6-0.5,1-1,1c-0.6,0-1-0.5-1-1S38.3,92.5,38.9,92.5z
	 M29.6,92.8c0.6,0,1,0.5,1,1c0,0.6-0.5,1-1,1s-1-0.5-1-1S29.1,92.8,29.6,92.8z M116.5,92.8l3,2.2l-1,3.9l-3.1-2.8L116.5,92.8z
	 M46.1,93.1l0.5,0.3L46,96.1l-7,2.6C41.2,96.8,43.5,94.6,46.1,93.1L46.1,93.1z M47.2,94.4c0.5,2,1.6,5,2.9,7.5
	c-0.9,0.5-4.1,2.3-4.1,3.2c0.5,1.6,3.9,3,3.9,3c-1.3,2.1-2.5,4.6-3.5,7.5c-0.6-1-0.7-5,0.6-6.6c-1.2-0.5-2.9-1.6-4.2-2.8
	c0.8-3,4.4-4.8,4.5-4.8C47.2,101.5,46.2,95.1,47.2,94.4L47.2,94.4z M35.8,94.9c0.6,0,1,0.5,1,1s-0.5,1-1,1c-0.6,0-1-0.5-1-1
	S35.3,94.9,35.8,94.9z M113.9,95c4.6,8.6,1.8,16.1-5.4,21.4l0.2-2c5-3.7,8.3-11,4.6-17.9L113.9,95z M27.2,95.2c0.6,0,1,0.5,1,1
	c0,0.6-0.5,1-1,1c-0.6,0-1-0.5-1-1S26.6,95.2,27.2,95.2z M100,95.3c-3.3,12.6-3.3,18.4-3.6,21.9l-13,0.1l-0.5-4.6L100,95.3z
	 M48.2,95.6c0,0,2.8,2.7,5.3,5l-0.3,0.6l-2.5,0.3C48.9,97.8,48.2,95.6,48.2,95.6z M45.9,97L45.9,97l0.2,1.9c-0.8,0-10,3.8-17,10
	c1-1.9,2.8-3.7,4.5-5.2C37.2,100.1,45.9,97,45.9,97L45.9,97z M32.9,97.4c0.6,0,1,0.5,1,1s-0.5,1-1,1c-0.6,0-1-0.5-1-1
	S32.3,97.4,32.9,97.4z M38.6,98.6l0.5,0.5l-2.4,1.3L38.6,98.6z M55.5,99.2L55.5,99.2c0.5,0,0.6,0.2,0.8,0.4
	c-0.5-0.1-0.9-0.2-1.4-0.1C55.1,99.3,55.3,99.2,55.5,99.2L55.5,99.2z M46.3,99.6l0.2,1.4c-5.2,3-11.5,5.9-20.6,14.6v-2.9
	C31.6,107.3,38.2,102.8,46.3,99.6z M53.3,99.7c0.3,0.1,0.6,0.1,0.9,0c0,0-0.2,0.4-0.4,0.4C53.6,100.1,53.3,99.7,53.3,99.7L53.3,99.7
	z M55.5,99.8c0.7,0,1.1,0.6,1,1.4c-0.5,2.7-0.5,5.4,0.1,7.3c0.4,1.5,0.5,2,0.2,2.2c-3.1,2.2-4.8-7.6-2.2-10.4
	C54.9,100,55.2,99.8,55.5,99.8L55.5,99.8z M30.3,100.1c0.6,0,1,0.5,1,1s-0.5,1-1,1c-0.6,0-1-0.5-1-1S29.7,100.1,30.3,100.1z
	 M119.2,100.4l1.9,3.3l-2.7,3l-1.6-3.5L119.2,100.4z M53,102.1l-0.1,1.1c-1.4,0.4-2.6,1-3.6,1.9c-0.2,0.2,3.2,1.7,3.6,1.4v1.2
	c0,0.4-5.6-1.4-6-2.7C47.4,104.1,50.9,102.1,53,102.1L53,102.1z M27.6,102.7c0.6,0,1,0.5,1,1c0,0.6-0.5,1-1,1c-0.6,0-1-0.5-1-1
	S27,102.7,27.6,102.7z M42.8,103.9c-0.4,0.8-1,1.8-1.1,2.9c-3.8,2.4-7.8,4.6-12.5,10h-2.6l-0.1-0.7C31.8,111,37.4,106.7,42.8,103.9
	L42.8,103.9z M52.6,104.3v1.4c-0.9,0-1.4-0.3-2-0.6C51.2,104.7,51.6,104.3,52.6,104.3L52.6,104.3z M81.4,104.4l0.7,0.8l-0.4,0.4
	L81.4,104.4z M42.7,107.4l1.4,0.9c-3.6,1.9-7.5,4.8-10.8,8.5h-2.8C34,112.9,37.8,109.4,42.7,107.4L42.7,107.4z M118.2,108.4l0.3,3.9
	l-3.6,2l0.1-4.1L118.2,108.4z M50.6,108.4l2.4,0.3l0.3,1c-2.1,1.3-3.8,2.9-5.5,4.5C48.4,112.2,49.4,110.1,50.6,108.4z M44.7,108.8
	l1,0.5l-0.4,1.8c-3,1.4-5.4,3.2-7.9,5.6h-2.9C37,114,41.2,110.6,44.7,108.8L44.7,108.8z M53.8,110.5L53.8,110.5l0.4,11.9
	c-10.6,12.6-10,24.7-6.9,35.7l-2-0.1c-2.3-3-5.5-6-5.5-6v-34.7h7.3C48.8,113.4,53.5,110.6,53.8,110.5L53.8,110.5z M45.2,112.2
	l0.1,1.6c-1.5,0.9-2.8,1.9-3.9,3h-2.7C40.6,115,42.4,113.2,45.2,112.2z M70,113l0.4,1.9c-24.5,9-29,35.2-14.5,53.2l-1,1.1
	C38.4,151,45.7,121.4,70,113z M45.4,114.9c0,0,0.1,1.4,0.2,1.9h-2.7C43.4,116,44,115.3,45.4,114.9z M114.4,115.5l-1.6,3.7l-4.2,0.1
	l1.9-3.7L114.4,115.5z M87.7,118h3.8v3.7h-3.8V118z M71.1,118.4l0.1,1.6c-1.7,0.9-1.3,2.3-1.7,2.3c-1,0.3-3.8,1.8-3.8,1.8
	c-1-0.9-2.3-0.7-2.9-0.2c-0.9,0.6-1,1.9-0.8,3l-2.9,3.5c-1.4-0.6-2.8-0.6-3.5,0.4c-0.8,1.1-0.5,2.4,0.8,3.9l-1.6,4.2
	c-0.2-0.2-2.9,0.5-2.9,2.2s2.2,2.8,2.2,3l-0.1,4.6c-0.1-0.2-2.3,0.7-2,2.9c0.3,2,3,1.8,3,1.9l1.5,4.4c-0.1-0.1-2,1.8-0.8,3.5
	c1,1.5,3.8,0.5,3.8,0.4l0.8,1.1l-0.9,1c0,0-0.4-0.5-0.6-0.4c-1.6,0.3-3.5-0.1-4.4-1.4c-1.2-1.9,0.1-4.8,0.6-4.8l-1-2.5
	c-1.9,0-3.4-1.7-3.5-3.1c-0.2-2.9,2.2-4.2,2.2-4.2l0.1-2.7c-0.1,0.2-2.4-1.4-2.3-3.2c0-1.3,1.1-2.9,2.5-3.5c0.4-0.2,1-0.5,1-0.5
	l0.9-2.2c0,0-1.3-1.9-1-3.8c0.6-2.9,4.4-2.7,5-2.4l1.7-2.2c-0.9-2,0.6-4.4,2.6-4.7c0.9-0.1,3.3,0.4,3.3,0.4l2.2-1.2
	C68.5,119.9,69.9,119.1,71.1,118.4L71.1,118.4z M83.7,122.5H87v3.7h-3.3V122.5z M92.5,122.5h3.7v3.7h-3.7V122.5z M71.4,123.4v1.4
	c-21.3,10.5-12.6,32.1-9.5,34.7l-0.7,1.5C57.4,158.7,47.7,133.7,71.4,123.4L71.4,123.4z M87.7,127.2h4v3.8h-4V127.2z M70.4,129
	l-1.3,3.5l-3.9,0.3l1.4-3.5L70.4,129z M150.2,131.6h2.7c-5,5.9-10.4,10-15.7,12.2c0,0,0-0.5,0.1-0.9c0.1-0.3-0.1-1.2-0.1-1.2
	C143.2,138.7,147.2,135.3,150.2,131.6L150.2,131.6z M136.5,131.6c-0.7,0.8-1.5,1.6-2.4,2.1l-0.4-2.2
	C134.5,131.6,136.5,131.6,136.5,131.6z M141.2,131.6c0.3,0.7-7,4.7-7,4.3v-1.3l3.9-3H141.2z M142.8,131.6L142.8,131.6h2.1
	c-1.9,3-11.6,8.3-11.2,7.6l0.4-2.2C137.2,135.6,140.1,133.7,142.8,131.6L142.8,131.6z M146.3,131.6h2.7c-4.1,5.2-8.2,7.1-12.1,9.4
	c-0.2,0-0.1-0.1-0.9-0.1l-1.4-1.1C134.9,140.1,143.7,134.8,146.3,131.6z M70.8,131.8l-0.1,1.6c-5.7,5-8,11.3-5,18.6l-0.7,1.6
	C61.8,145.7,62.8,138.1,70.8,131.8L70.8,131.8z M96.6,132l0.3,4.3l-17.6,17.4c2.7-9.7,3.4-15.6,4.1-21.7H96.6z M153.1,133v2.4
	c-6.9,7.8-14,11.3-20,12.7l-0.1-0.9l2.8-1.8C144.8,141.4,148.7,137.4,153.1,133L153.1,133z M132,133.1c0.1,1.7-1.4,4.9-3.1,6.8H126
	l-0.3-1.3C128.1,137.2,130.3,135.4,132,133.1L132,133.1z M132.9,133.6c1.1,1.8-0.5,6.3-0.6,6.1c-0.1,0.3,9.2,2.3-0.4,7
	c0.2,1.4,1.1,4.3,0.4,6.2c-0.2-0.7-1.9-5.4-3.2-6.6c3-0.9,5.2-2.7,4.9-3.3c-0.5-0.9-1.8-1.9-4.1-2.7
	C131.9,137.5,132.5,135.5,132.9,133.6L132.9,133.6z M64.1,134.5l0.3,3.6l-3.4,2.1l-0.3-3.9L64.1,134.5z M123.6,137.8
	c0.3,0,0.5,0.1,0.6,0.2c1.7,0.7,1.8,9.1,0.3,9.9c-1.1,0.7-1.9-0.4-1.9-0.6c0.7-3.8,0.3-6.2,0-8.9C122.7,138,123.2,137.8,123.6,137.8
	L123.6,137.8z M153.1,137.9v3c-9.9,10.5-20.6,18.7-31.6,23.3l-1-1.7C133.8,156.3,144.9,147.4,153.1,137.9z M151.3,138.2
	c-4.6,6.5-10.2,10.7-17.9,12.7l-0.1-1.8C142.9,146.8,151.6,138.2,151.3,138.2z M26.1,139.3c6,6.2,12.1,12.4,18.2,18.8l-2.4,0.1
	L26,141.5L26.1,139.3z M97.5,139.6l0.2,1.5L96,143l2.8,3l0.1,0.7l-2.4,2.5l-1.1-1.1l1.3-1.5l-2.2-2.4l-4.1,4l3.4,3.7l-2.6,2.5
	l-1-1.1l1.3-1.5l-2.3-2.4l-4.2,4.2l3.2,3.6l-2.1,2.4l-1-1.1l1.1-1.3l-2.3-2.4l-4,3.9l3.3,3.7l-2.7,2.7l-1-1l1.5-1.7l-2.5-2.4l-2,1.9
	c0,0,0.8-1.9,0.9-2.2c0.2-0.5,0.8-0.8,5-5C87.3,149.9,92.5,145.1,97.5,139.6L97.5,139.6z M126.2,140.6c1.5,0,4,0.4,5.2,1
	c2.2,1.2,1.5,2.1,0.1,2.9c-1.7,0.8-3.2,1.3-5.1,1.3l0.1-1c1.1-0.3,2.3-0.6,3.3-1.1c0.7-0.4,0.9-0.7,0.9-0.7s-0.7-0.7-1.8-1.1
	c-0.8-0.3-1.9-0.3-2.5-0.4L126.2,140.6z M60.7,141.9l1.8,2.8l-2.2,3.7l-2.1-3.2L60.7,141.9z M97.9,142.2c0.1,0.5,0.7,2.6,0.4,2.2
	l-1.2-1.4L97.9,142.2z M126.3,142.5c1,0.1,2.1,0.1,2.8,0.5c-0.9,0.7-1.8,0.8-2.8,1V142.5z M151.9,143.9c0.6,0,1.1,0.5,1.1,1.1
	c0,0.6-0.5,1.1-1.1,1.1s-1.1-0.5-1.1-1.1C150.8,144.4,151.3,143.9,151.9,143.9z M94.4,145.8l1,0.9l-1.2,1.5l2.2,2.4l2.8-2.6l0.4,1.7
	l-25.9,25.8l-1.4-0.1l1.6-2l-1.9-1.9l0.8-1.4l2.2,2l4-3.9l-3.3-3.5l2.8-2.9l1.1,0.9l-1.6,1.8l2.3,2.4l4.2-4.2l-3.3-3.7l2.6-2.6
	l1,0.9l-1.2,1.3l2.4,2.5l3.6-3.8l-3.2-3.6l2.9-2.8l0.9,0.9l-1.3,1.5l2.4,2.5l3.9-4.1l-3.2-3.5L94.4,145.8z M149.3,146.5
	c0.6,0,1.1,0.5,1.1,1.1s-0.5,1.1-1.1,1.1c-0.6,0-1.1-0.5-1.1-1.1S148.7,146.5,149.3,146.5z M128.3,146.6c1.8,2.1,2.8,4.4,3,6.9
	c-1.4-2.2-3.2-4.1-5.5-5.7l0.4-1L128.3,146.6z M153.1,146.7v2.5c-7.8,9-17.3,15.8-27.1,20.5l-1.7-2
	C135.9,162.5,144.2,156,153.1,146.7z M141.6,148.5l-3.2,2.5v-1.1L141.6,148.5L141.6,148.5z M125.2,148.7c2.7,1.3,5,3.6,6.3,7
	c-3.7,2.4-7.7,4.3-11.6,6.2c-1.9-3-3.7-5.9-5.2-9.8c6,0,7.6-3.3,7.6-3.4C123.8,149.2,124.1,149.3,125.2,148.7L125.2,148.7z
	 M146.6,149.2c0.6,0,1.1,0.4,1.1,1.1c0,0.6-0.5,1.1-1.1,1.1c-0.6,0-1.1-0.5-1.1-1.1C145.6,149.5,146.1,149.2,146.6,149.2
	L146.6,149.2z M138.4,149.9v1.1c-1.5,1.4-4.5,3.5-4.5,3.5l-1.2-0.1l0.4-3.1C134.9,151,136.7,150.5,138.4,149.9L138.4,149.9z
	 M60.6,150l2.9,2.4l-0.9,3.8l-2.9-2.2L60.6,150z M99.7,150.8l0.3,1.1l-24,24l-1.4-0.2L99.7,150.8z M143.9,151.7
	c0.6,0,1.1,0.5,1.1,1.1c0,0.6-0.5,1.1-1.1,1.1s-1.1-0.5-1.1-1.1C142.8,152.2,143.3,151.7,143.9,151.7z M152.8,151.7
	c0.1,0,0.3,0,0.3,0.1v2.1c-0.1,0-0.2,0.1-0.4,0.1c-0.6,0-1-0.5-1-1.1S152.2,151.7,152.8,151.7z M150.1,154.2c0.6,0,1.1,0.5,1.1,1.1
	c0,0.6-0.5,1.1-1.1,1.1c-0.6,0-1.1-0.5-1.1-1.1C149,154.7,149.5,154.2,150.1,154.2z M140.7,154.2c0.6,0,1.1,0.5,1.1,1.1
	c0,0.6-0.5,1.1-1.1,1.1s-1.1-0.5-1.1-1.1C139.6,154.7,140.1,154.2,140.7,154.2z M132.7,154.6h1.1l-2.1,1.3
	C132.1,155.4,132.4,155,132.7,154.6L132.7,154.6z M153.1,155.1v2.3c-5.5,5.6-12.4,11.3-23,16.9l-1.3-1.4
	C137.4,168.7,145.5,162.9,153.1,155.1z M137.5,156.4c0.6,0,1.1,0.5,1.1,1.1c0,0.6-0.5,1.1-1.1,1.1c-0.6,0-1.1-0.5-1.1-1.1
	C136.4,156.9,136.9,156.4,137.5,156.4z M147.4,156.4c0.6,0,1.1,0.5,1.1,1.1c0,0.6-0.5,1.1-1.1,1.1s-1.1-0.5-1.1-1.1
	C146.3,156.9,146.8,156.4,147.4,156.4z M36.4,161c3.8-2.2,6.8-2.5,11.2-1.8l1.3,2.6c-4.2-0.8-8.7-0.7-12.5,2.3
	c-3.9-2.5-6.9-3.3-10.2-2.8l-0.1-2.7C30.4,157.9,34.2,159.3,36.4,161L36.4,161z M134.4,158.5c0.6,0,1.1,0.5,1.1,1.1
	s-0.5,1.1-1.1,1.1s-1.1-0.5-1.1-1.1S133.8,158.5,134.4,158.5z M144.6,159c0.6,0,1.1,0.5,1.1,1.1s-0.5,1.1-1.1,1.1
	c-0.6,0-1.1-0.5-1.1-1.1S144,159,144.6,159z M131.1,160.7c0.6,0,1.1,0.5,1.1,1.1c0,0.6-0.5,1.1-1.1,1.1c-0.6,0-1.1-0.5-1.1-1.1
	C130,161.2,130.5,160.7,131.1,160.7z M141.5,161.3c0.6,0,1.1,0.5,1.1,1.1c0,0.6-0.5,1.1-1.1,1.1c-0.6,0-1.1-0.5-1.1-1.1
	C140.4,161.8,140.9,161.3,141.5,161.3z M127.7,162.7c0.6,0,1.1,0.5,1.1,1.1c0,0.6-0.5,1.1-1.1,1.1s-1.1-0.5-1.1-1.1
	C126.5,163.2,127,162.7,127.7,162.7z M138.5,163.6c0.6,0,1.1,0.5,1.1,1.1c0,0.6-0.5,1.1-1.1,1.1c-0.6,0-1.1-0.5-1.1-1.1
	C137.4,164.1,137.9,163.6,138.5,163.6z M124.4,164.4c0.6,0,1.1,0.5,1.1,1.1c0,0.6-0.5,1.1-1.1,1.1s-1.1-0.5-1.1-1.1
	C123.3,164.9,123.7,164.4,124.4,164.4z M75.1,165.4l2.8,2.6l-2.9,2.9l-1-1l1.6-1.7l-1.1-1.5L75.1,165.4z M135.4,165.7
	c0.6,0,1.1,0.5,1.1,1.1c0,0.6-0.5,1.1-1.1,1.1s-1.1-0.5-1.1-1.1C134.3,166.2,134.8,165.7,135.4,165.7z M132.2,167.6
	c0.6,0,1.1,0.5,1.1,1.1c0,0.6-0.5,1.1-1.1,1.1s-1.1-0.5-1.1-1.1C131.1,168.1,131.6,167.6,132.2,167.6z M128.7,169.5
	c0.6,0,1.1,0.5,1.1,1.1s-0.5,1.1-1.1,1.1s-1.1-0.5-1.1-1.1S128.1,169.5,128.7,169.5z M71.4,172.7l0.9,0.7l-1.4,1.7h-1.1L71.4,172.7z
	 M53.9,177.4c-3.2,1.6-4.7,2.6-6.9,4.5l-3.2-4.4L53.9,177.4z M32.4,177.4l8.4,0.1l-2.8,4C36.2,179.6,34.3,178.3,32.4,177.4z
	 M42.4,177.9c0.9,0.3,3.3,3.7,4.4,5.6c2.4-1.9,4.7-4.1,7.3-5.2c-3,3.3-5.7,6.6-7.6,9.9c-0.5-1.5-2-5.7-3.9-7.5
	c-3,2.8-4.2,6.3-4.2,6.3c-1.6-2.8-3.5-5.6-5.8-8.2c-0.4-0.5,2.7,1.4,5.8,4.5C39.3,181,41.6,178,42.4,177.9L42.4,177.9z M32.3,180
	c1.4,1.2,5.4,6.3,5.8,9.4l-1.9,0.1C35.3,186.4,33.6,183.2,32.3,180L32.3,180z M53.2,180.6c-1.4,3-3.2,6-4.5,9.3l-1.9-0.1
	C49,185.2,49.7,184.4,53.2,180.6z M42.6,181.9L42.6,181.9c1.8,2.5,2.6,4.8,3.2,7.7l-1.4-0.1c0,0-1-2.9-1.6-3.9
	c-0.4-0.6-0.8-0.5-1.1,0c-0.7,1.2-0.9,2.5-1.3,3.8l-1.6-0.1C38.5,187.1,42,181.9,42.6,181.9L42.6,181.9z M42.3,190.3
	c0.6,0,1.3,0.7,1.3,1.9c0,0.6-0.4,1.9-0.9,1.9c-0.9,0.5-1.9-1-1.7-2.3C41.3,190.9,41.8,190.3,42.3,190.3L42.3,190.3z M39.2,190.6
	c1.3,0.1,1.5,3,1,3.6c-0.6,0.6-2.1,0.2-2.3-0.9C37.5,192,38.4,190.6,39.2,190.6z M45.5,190.5c1.4,0.2,1,3.4,0.3,3.8
	c-1.1,0.6-1.9-0.4-1.6-1.9C44.5,191.3,45,190.6,45.5,190.5z M48.6,191.1c1.6,0.2,0.7,3,0,3.5c-1,0.8-2-0.4-1.5-1.8
	C47.5,191.7,48.1,191.1,48.6,191.1L48.6,191.1z M35.9,191.1c1.1,0.2,1.8,2.8,1.1,3.6c-0.4,0.4-1.4-0.2-1.9-0.9
	C34.6,192.9,35.2,191.1,35.9,191.1z M48.1,196.9c0.1,1.4-0.9,1.4-3.9,0.7c-1.5-0.3-4.1-0.1-5.5,0.1c-2.3,0.4-2.6,0.3-2.6-0.7
	c0-1.1,1.3-1.7,4.2-1.8C42.5,195.2,47.8,195.1,48.1,196.9z M52.7,196.1c-3.5,0.3-4.5,4.8-4.1,6.5c0.3,2.8,0.2,5.7-0.3,7.6
	c-0.4,1.4-0.7,2.8-1.3,4.1c-0.9,1.9-0.7,3.3,0.7,4c1.1,0.6,2.5,0.4,3.4-0.5c1.6-1.7,1.8-5.4,0.8-13.6c-0.3-2.9-0.2-3.5,1.2-3.3
	C56,200.6,55.9,196.1,52.7,196.1L52.7,196.1z M52.3,199.8c-0.8-0.3-1.3,0.4-1.2,2.2c0,0.8,0.2,1.7,0.3,2.4
	c1.1,7.9,0.7,13.3-1.7,13.5c-2.1,0.3-3.5-1.2-2.5-2.8c0.6-0.9,1.1-1,2.2-0.6c1.5,1,1.2-0.4-0.2-1.5c-0.9-0.6-1-0.6-0.5-2.6
	c0.6-2.7,0.9-4.6,0.6-8c-0.3-2.4,0.5-5.6,3.5-5.8C55.9,196.5,54.9,200.9,52.3,199.8z M30.7,210.3c1,0.5,2,0.4,2.9,0
	c0.4-1.7,0.4-3.1,1.5-5.4c-1.9-1.9-5-1.1-5.9,0.8C28.3,207.7,29.2,209.5,30.7,210.3L30.7,210.3z M33.7,204.4c1.1,0.2,1,1.4-0.1,1.1
	c-2.5-1.2-4.6,2.4-2.6,3.8c1,0.6,1.5,0.3,0.5-0.6c-0.4-0.5-0.3-0.7-0.1-1.2c0.5-1,2.5-0.8,2.3-0.1c-0.4,2.3-0.7,3-1.4,3
	C28.4,210.6,27.6,203.1,33.7,204.4L33.7,204.4z M67.1,208.6c0,0-11.7,13.5-17.4,20.3l70.8-0.3L107,209.7
	C95.5,212.4,81.9,211.7,67.1,208.6z M66.7,212.9c1.8,0,3.8,1.3,5.5,5.7c0.1,0,7.8-11.9,14.4,0.5c1.1-2.8,7.4-10,14.6-0.7
	c2.6-6.2,8.5-4.1,9.1-1.9c-0.1-0.5-5.7-1.8-8.1,2.3c-0.4,0.9-0.5,1.7,0,2.2c1.2,1.2-0.1,2.8-1.5,1.9c-0.5-0.4-0.6-1.1-0.2-1.7
	c1.2-0.9-1.3-3.7-3.3-4.8c-2.8-1.4-6.7-0.8-8.5,1.2c-1,1.1-1.6,2-1.8,2.8c-0.1,0.4,0,0.5,0.2,0.8c0.8,1,0.3,2.3-0.8,2.2
	c-1.4-0.2-1.2-1.6-0.3-2.3c0.3-0.1,0.2-0.3,0.1-0.6c-2.6-7.5-12.4-6.1-13.4-0.9c0,0.2-0.1,0.4-0.1,0.6c0.1,0.5,0.4,0.9,0.3,1.3
	c-0.4,1.6-2.4,1.1-2.5-0.2c0-0.6,0.6-0.8,0.9-1.3c0.2-0.3,0.3-0.8,0.1-1.1c-2.6-5.6-7.2-4.4-9.4-3.2
	C62.1,215.6,64.1,212.8,66.7,212.9L66.7,212.9z M63.8,216.1c1,0,1.8,0.4,2.7,1.4c2.8-1.5,4.7,1.1,4.4,1.3c-3.9-2.6-5.2,3.4-1.3,3.2
	c-1.7,3.6,4.4,5.1,3.7,0.5c3.7,1.3,4.4-3.9,0.6-3.8c1.2-2.2,4.4-1.6,5.8-0.2c1.6-2,5.5-0.1,5.9,1.6c-4.4-2.3-4.8,4.7-0.6,3.2
	c-1.2,4.4,5.5,3.8,3.6,0c4.2,1.4,3.6-4.9-0.5-3.7c-0.2-0.3,3.2-4,5.8-0.5c0.3-0.6,4.3-2.6,6.5,0.5c-4.7-1.6-3.8,4.8-0.4,3.5
	c-0.9,4.3,5.2,3.6,3.6-0.1c4.7,1.2,2.6-6.1-0.7-3.4c0.5-2.9,4.5-1.7,4.5-1.3c0,0,2.1-2.3,4.5-0.6c-3.7,0.3-2.4,5.4,1.1,3.9
	c0,1.7,1.4,2.8,3.3,2.3l3,4.2l-67.8,0.4l5.4-6.6c1.8,1.5,3.7,0.8,3.9-1.6c3.9,2.5,5-3.4,1.3-3.6C62.4,216.4,63.1,216.2,63.8,216.1
	L63.8,216.1z M60,218c0.2,0.2-0.1,1-0.6,0.7L60,218z M112.9,219.7c0.2,0.3,0.3,0.5,0.5,0.8C113.5,220.8,112.4,220.4,112.9,219.7z"/>
<path fill="#D40000" d="M48.1,64.8c0,0-3.7-6.1-8.7-13.3
	c-3.4-4.8-6-10-6.3-14.5c-0.3-5.1,2.4-10.3,7.3-10.5c4.9-0.2,6.9,3.9,7.7,7.4c0.8-3.5,2.8-7.7,7.7-7.4c4.9,0.2,7.6,5.4,7.3,10.5
	c-0.2,4.5-2.9,9.7-6.3,14.5C51.9,58.7,48.1,64.8,48.1,64.8z"/>
<path fill="#D40000" d="M130.6,184.8c0,0-3.7,6.1-8.7,13.3
	c-3.4,4.8-6,10-6.3,14.5c-0.3,5.1,2.4,10.3,7.3,10.5c4.9,0.2,6.9-3.9,7.7-7.4c0.8,3.5,2.8,7.7,7.7,7.4c4.9-0.2,7.6-5.4,7.3-10.5
	c-0.2-4.5-2.9-9.7-6.3-14.5C134.3,190.9,130.6,184.8,130.6,184.8L130.6,184.8z"/>
</svg>
