<?xml version="1.0" encoding="utf-8"?>
<!-- Generator: Adobe Illustrator 15.0.2, SVG Export Plug-In . SVG Version: 6.00 Build 0)  -->
<!DOCTYPE svg PUBLIC "-//W3C//DTD SVG 1.1//EN" "http://www.w3.org/Graphics/SVG/1.1/DTD/svg11.dtd">
<svg version="1.1" id="Layer_1" xmlns="http://www.w3.org/2000/svg" xmlns:xlink="http://www.w3.org/1999/xlink" x="0px" y="0px"
	 width="178.7px" height="249.6px" viewBox="0 0 178.7 249.6" enable-background="new 0 0 178.7 249.6" xml:space="preserve">
<path fill="#D40000" d="M14.1,56.2c0,0-1.8-2.6-4.2-5.6
	c-1.6-2-2.9-4.2-3-6.1c-0.1-2.1,1.2-4.3,3.5-4.4c2.3-0.1,3.3,1.6,3.7,3.1c0.4-1.4,1.3-3.2,3.7-3.1c2.3,0.1,3.6,2.2,3.5,4.4
	c-0.1,1.9-1.4,4-3,6.1C15.9,53.7,14.1,56.2,14.1,56.2z"/>
<path fill="#D40000" d="M164.5,193.3c0,0-1.8,2.6-4.2,5.6
	c-1.6,2-2.9,4.2-3,6.1c-0.1,2.1,1.2,4.3,3.5,4.4c2.3,0.1,3.3-1.6,3.7-3.1c0.4,1.4,1.3,3.2,3.7,3.1c2.3-0.1,3.6-2.3,3.5-4.4
	c-0.1-1.9-1.4-4-3-6.1C166.3,195.7,164.5,193.3,164.5,193.3z"/>
<path fill="#D40000" d="M89.3,143.8c0,0-3.7-6.1-8.8-13.3
	c-3.4-4.8-6.1-10-6.3-14.5c-0.3-5.1,2.4-10.3,7.4-10.5c4.9-0.2,6.9,4,7.7,7.4c0.8-3.5,2.8-7.7,7.7-7.4c4.9,0.2,7.6,5.4,7.4,10.5
	c-0.3,4.5-2.9,9.7-6.3,14.5C93,137.7,89.3,143.8,89.3,143.8z"/>
<path fill="#D40000" d="M6.1,37.8v-2.3h2.2l4.6-24h2.6l5.1,24h1.7v2.3h-6v-2.3h1.6l-0.6-3.7h-6
	l-0.5,3.7h1.6v2.3H6.1L6.1,37.8z M16.7,29.2l-2.6-12.9l-2.4,12.9H16.7z"/>
<path fill="#D40000" d="M156.4,211.7v2.3h2.2l4.6,24h2.6l5.1-24h1.7v-2.3h-6v2.3h1.6l-0.6,3.7h-6
	l-0.5-3.7h1.6v-2.3H156.4L156.4,211.7z M167.1,220.3l-2.6,12.9l-2.4-12.9H167.1L167.1,220.3z"/>
</svg>
