<?xml version="1.0" encoding="utf-8"?>
<!-- Generator: Adobe Illustrator 15.0.2, SVG Export Plug-In . SVG Version: 6.00 Build 0)  -->
<!DOCTYPE svg PUBLIC "-//W3C//DTD SVG 1.1//EN" "http://www.w3.org/Graphics/SVG/1.1/DTD/svg11.dtd">
<svg version="1.1" id="Layer_1" xmlns="http://www.w3.org/2000/svg" xmlns:xlink="http://www.w3.org/1999/xlink" x="0px" y="0px"
	 width="178.7px" height="249.6px" viewBox="0 0 178.7 249.6" enable-background="new 0 0 178.7 249.6" xml:space="preserve">
<path d="M130.6,223c7.4-10.5,15.2-16.5,15.3-24.7
	c0-2.7-1.4-7.2-5.9-8c-2.9-0.6-6.9,1.8-7,6.6c0,1-1,0.9-1-0.4c0.1-3.8,1.3-8.2,3.4-11.8c-3.2,0-6.4,0-9.7,0c2,3.6,3.2,8,3.4,11.8
	c0,1.3-1,1.3-1,0.4c-0.1-4.8-4.1-7.2-7-6.6c-4.5,0.9-5.9,5.4-5.9,8C115.4,206.4,123.2,212.5,130.6,223L130.6,223z"/>
<path d="M164.6,209.2c3.4-4.4,7.1-6.9,7.2-10.3
	c0-1.1-0.7-3-2.8-3.4c-1.4-0.2-3.2,0.8-3.3,2.8c0,0.4-0.5,0.4-0.5-0.2c0.1-1.6,0.6-3.4,1.6-4.9c-1.5,0-3,0-4.5,0
	c0.9,1.5,1.5,3.3,1.6,4.9c0,0.5-0.5,0.6-0.5,0.2c0-2-1.9-3-3.3-2.8c-2.1,0.4-2.8,2.2-2.8,3.4C157.5,202.4,161.2,204.8,164.6,209.2
	L164.6,209.2z"/>
<path d="M14.2,40.3c3.4,4.4,7.1,6.9,7.2,10.3
	c0,1.1-0.7,3-2.8,3.4c-1.4,0.2-3.2-0.8-3.3-2.8c0-0.4-0.5-0.4-0.5,0.2c0.1,1.6,0.6,3.4,1.6,4.9c-1.5,0-3,0-4.5,0
	c0.9-1.5,1.5-3.3,1.6-4.9c0-0.5-0.5-0.6-0.5-0.2c0,2-1.9,3-3.3,2.8C7.7,53.5,7,51.7,7,50.5C7.1,47.1,10.8,44.7,14.2,40.3L14.2,40.3z
	"/>
<path d="M48.2,223c7.4-10.5,15.2-16.5,15.3-24.7
	c0-2.7-1.4-7.2-5.9-8c-2.9-0.6-6.9,1.8-7,6.6c0,1-1,0.9-1-0.4c0.1-3.8,1.3-8.2,3.4-11.8c-3.2,0-6.4,0-9.7,0c2,3.6,3.2,8,3.4,11.8
	c0,1.3-1,1.3-1,0.4c-0.1-4.8-4.1-7.2-7-6.6c-4.5,0.9-5.9,5.4-5.9,8C33,206.4,40.8,212.5,48.2,223L48.2,223z"/>
<path d="M130.6,26.5c7.4,10.5,15.2,16.5,15.3,24.7
	c0,2.7-1.4,7.2-5.9,8c-2.9,0.6-6.9-1.8-7-6.6c0-1-1-0.9-1,0.4c0.1,3.8,1.3,8.2,3.4,11.8c-3.2,0-6.4,0-9.7,0c2-3.6,3.2-8,3.4-11.8
	c0-1.3-1-1.3-1-0.4c-0.1,4.8-4.1,7.2-7,6.6c-4.5-0.9-5.9-5.4-5.9-8C115.4,43.1,123.2,37,130.6,26.5L130.6,26.5z"/>
<path d="M48.2,26.5C55.6,37,63.4,43.1,63.5,51.2
	c0,2.7-1.4,7.2-5.9,8c-2.9,0.6-6.9-1.8-7-6.6c0-1-1-0.9-1,0.4c0.1,3.8,1.3,8.2,3.4,11.8c-3.2,0-6.4,0-9.7,0c2-3.6,3.2-8,3.4-11.8
	c0-1.3-1-1.3-1-0.4c-0.1,4.8-4.1,7.2-7,6.6c-4.5-0.9-5.9-5.4-5.9-8C33,43.1,40.8,37,48.2,26.5L48.2,26.5z"/>
<path d="M89.4,143.9c7.4-10.5,15.2-16.5,15.3-24.7
	c0-2.7-1.4-7.2-5.9-8c-2.9-0.6-6.9,1.8-7,6.6c0,1-1,0.9-1-0.4c0.1-3.8,1.3-8.2,3.4-11.8c-3.2,0-6.4,0-9.7,0c2,3.6,3.2,8,3.4,11.8
	c0,1.3-1,1.3-1,0.4c-0.1-4.8-4.1-7.2-7-6.6c-4.5,0.9-5.9,5.4-5.9,8C74.2,127.4,82,133.4,89.4,143.9L89.4,143.9z"/>
<path d="M172.8,218.5h-2.6c-0.5-1.6-1.6-3.2-3.1-3.7c-4.2-1-6.9,1.4-7.8,4.1c-1.1,3.3,0,8,2.9,9.7
	c2.4,1.4,5.9,0.2,7.6-2.7l1.8,1.1l-1,11h-11.7v-2.6h9.6l0.2-4.6c-2.1,1.5-5.2,1.5-7.3,0.4c-3.9-1.9-5.7-6.2-5-11.3
	c1.1-5.1,3.4-7.9,8.6-8.3C170.8,211.7,172.8,215.7,172.8,218.5L172.8,218.5L172.8,218.5z"/>
<path d="M5.9,31h2.6c0.5,1.6,1.6,3.2,3.1,3.7c4.2,1,6.9-1.4,7.8-4.1c1.1-3.3,0-8-2.9-9.7
	c-2.4-1.4-5.9-0.2-7.6,2.7l-1.8-1.1l1-11h11.7v2.6h-9.6l-0.2,4.6c2.1-1.5,5.2-1.5,7.3-0.4c3.9,1.9,5.7,6.2,5,11.3
	c-1.1,5.1-3.4,7.9-8.6,8.3C8,37.9,5.9,33.8,5.9,31L5.9,31L5.9,31z"/>
</svg>
