<?xml version="1.0" encoding="utf-8"?>
<!-- Generator: Adobe Illustrator 15.0.2, SVG Export Plug-In . SVG Version: 6.00 Build 0)  -->
<!DOCTYPE svg PUBLIC "-//W3C//DTD SVG 1.1//EN" "http://www.w3.org/Graphics/SVG/1.1/DTD/svg11.dtd">
<svg version="1.1" id="Layer_1" xmlns="http://www.w3.org/2000/svg" xmlns:xlink="http://www.w3.org/1999/xlink" x="0px" y="0px"
	 width="178.7px" height="249.6px" viewBox="0 0 178.7 249.6" enable-background="new 0 0 178.7 249.6" xml:space="preserve">
<path d="M48.2,26.5C40.8,37,33,43.1,32.9,51.2
	c0,2.7,1.4,7.2,5.9,8c2.9,0.6,6.9-1.8,7-6.6c0-1,1-0.9,1,0.4c-0.1,3.8-1.3,8.2-3.4,11.8c3.2,0,6.4,0,9.7,0c-2-3.6-3.2-8-3.4-11.8
	c0-1.3,1-1.3,1-0.4c0.1,4.8,4.1,7.2,7,6.6c4.5-0.9,5.9-5.4,5.9-8C63.4,43.1,55.6,37,48.2,26.5L48.2,26.5z"/>
<path d="M14.2,40.3c-3.4,4.4-7.1,6.9-7.2,10.3
	c0,1.1,0.7,3,2.8,3.4c1.4,0.2,3.2-0.8,3.3-2.8c0-0.4,0.5-0.4,0.5,0.2c-0.1,1.6-0.6,3.4-1.6,4.9c1.5,0,3,0,4.5,0
	c-0.9-1.5-1.5-3.3-1.6-4.9c0-0.5,0.5-0.6,0.5-0.2c0,2,1.9,3,3.3,2.8c2.1-0.4,2.8-2.2,2.8-3.4C21.3,47.1,17.6,44.7,14.2,40.3
	L14.2,40.3z"/>
<path d="M164.6,209.2c-3.4-4.4-7.1-6.9-7.2-10.3
	c0-1.1,0.7-3,2.8-3.4c1.4-0.2,3.2,0.8,3.3,2.8c0,0.4,0.5,0.4,0.5-0.2c-0.1-1.6-0.6-3.4-1.6-4.9c1.5,0,3,0,4.5,0
	c-0.9,1.5-1.5,3.3-1.6,4.9c0,0.5,0.5,0.6,0.5,0.2c0-2,1.9-3,3.3-2.8c2.1,0.4,2.8,2.2,2.8,3.4C171.7,202.4,168,204.8,164.6,209.2
	L164.6,209.2z"/>
<path d="M130.6,26.5c-7.4,10.5-15.2,16.5-15.3,24.7
	c0,2.7,1.4,7.2,5.9,8c2.9,0.6,6.9-1.8,7-6.6c0-1,1-0.9,1,0.4c-0.1,3.8-1.3,8.2-3.4,11.8c3.2,0,6.4,0,9.7,0c-2-3.6-3.2-8-3.4-11.8
	c0-1.3,1-1.3,1-0.4c0.1,4.8,4.1,7.2,7,6.6c4.5-0.9,5.9-5.4,5.9-8C145.8,43.1,138,37,130.6,26.5z"/>
<path d="M48.2,105.7c-7.4,10.5-15.2,16.5-15.3,24.7
	c0,2.7,1.4,7.2,5.9,8c2.9,0.6,6.9-1.8,7-6.6c0-1,1-0.9,1,0.4c-0.1,3.8-1.3,8.2-3.4,11.8c3.2,0,6.4,0,9.7,0c-2-3.6-3.2-8-3.4-11.8
	c0-1.3,1-1.3,1-0.4c0.1,4.8,4.1,7.2,7,6.6c4.5-0.9,5.9-5.4,5.9-8C63.4,122.1,55.6,116.1,48.2,105.7L48.2,105.7z"/>
<path d="M48.2,223c-7.4-10.5-15.2-16.5-15.3-24.7
	c0-2.7,1.4-7.2,5.9-8c2.9-0.6,6.9,1.8,7,6.6c0,1,1,0.9,1-0.4c-0.1-3.8-1.3-8.2-3.4-11.8c3.2,0,6.4,0,9.7,0c-2,3.6-3.2,8-3.4,11.8
	c0,1.3,1,1.3,1,0.4c0.1-4.8,4.1-7.2,7-6.6c4.5,0.9,5.9,5.4,5.9,8C63.4,206.4,55.6,212.5,48.2,223L48.2,223z"/>
<path d="M130.6,223c-7.4-10.5-15.2-16.5-15.3-24.7
	c0-2.7,1.4-7.2,5.9-8c2.9-0.6,6.9,1.8,7,6.6c0,1,1,0.9,1-0.4c-0.1-3.8-1.3-8.2-3.4-11.8c3.2,0,6.4,0,9.7,0c-2,3.6-3.2,8-3.4,11.8
	c0,1.3,1,1.3,1,0.4c0.1-4.8,4.1-7.2,7-6.6c4.5,0.9,5.9,5.4,5.9,8C145.8,206.4,138,212.5,130.6,223z"/>
<path d="M130.6,105.7c-7.4,10.5-15.2,16.5-15.3,24.7
	c0,2.7,1.4,7.2,5.9,8c2.9,0.6,6.9-1.8,7-6.6c0-1,1-0.9,1,0.4c-0.1,3.8-1.3,8.2-3.4,11.8c3.2,0,6.4,0,9.7,0c-2-3.6-3.2-8-3.4-11.8
	c0-1.3,1-1.3,1-0.4c0.1,4.8,4.1,7.2,7,6.6c4.5-0.9,5.9-5.4,5.9-8C145.8,122.1,138,116.1,130.6,105.7z"/>
<path d="M6.5,29.7c-0.3-2.2-0.3-8-0.1-9.7c0.8-5.2,2.8-7.6,6.1-8.4c3.2-0.8,7.8,0.1,8.8,4.4
	l-2.7,0.1c-1.5-2.9-5.2-2.2-7.2-0.9c-1.7,1-2.4,5.3-2.1,5.5c0,0,3.1-2.3,5.6-2.2c5.3,0.6,7.5,5.1,7.3,9.5c-0.2,5.2-1.8,9.4-7.4,9.7
	C9.5,37.6,7,34.7,6.5,29.7L6.5,29.7L6.5,29.7z M19.6,28.3c0-3.6-1.6-6.3-4.7-6.6s-6.2,2.7-6,6.4c0.2,3.7,1.7,6.8,5.4,6.8
	C18.3,34.9,19.6,30.9,19.6,28.3L19.6,28.3z"/>
<path d="M172.3,219.8c0.3,2.2,0.3,8,0.1,9.7c-0.8,5.2-2.8,7.6-6.1,8.4c-3.2,0.8-7.8-0.1-8.8-4.4
	l2.7-0.1c1.5,2.9,5.2,2.2,7.2,0.9c1.7-1,2.4-5.3,2.1-5.5c0,0-3.1,2.3-5.6,2.2c-5.3-0.6-7.5-5.1-7.3-9.5c0.2-5.2,1.8-9.4,7.4-9.7
	C169.3,211.9,171.8,214.8,172.3,219.8L172.3,219.8L172.3,219.8z M159.2,221.2c0,3.6,1.6,6.3,4.7,6.6c3.1,0.3,6.2-2.7,6-6.4
	c-0.2-3.7-1.7-6.8-5.4-6.8C160.5,214.6,159.2,218.6,159.2,221.2L159.2,221.2z"/>
</svg>
