<?xml version="1.0" encoding="utf-8"?>
<!-- Generator: Adobe Illustrator 15.0.2, SVG Export Plug-In . SVG Version: 6.00 Build 0)  -->
<!DOCTYPE svg PUBLIC "-//W3C//DTD SVG 1.1//EN" "http://www.w3.org/Graphics/SVG/1.1/DTD/svg11.dtd">
<svg version="1.1" id="Layer_1" xmlns="http://www.w3.org/2000/svg" xmlns:xlink="http://www.w3.org/1999/xlink" x="0px" y="0px"
	 width="178.7px" height="249.6px" viewBox="0 0 178.7 249.6" enable-background="new 0 0 178.7 249.6" xml:space="preserve">
<path d="M48.1,26.5C40.7,37,32.9,43.1,32.8,51.2
	c0,2.7,1.4,7.2,5.9,8c2.9,0.6,6.9-1.8,7-6.6c0-1,1-0.9,1,0.4c-0.1,3.8-1.3,8.2-3.4,11.8c3.2,0,6.4,0,9.7,0c-2-3.6-3.2-8-3.4-11.8
	c0-1.3,1-1.3,1-0.4c0.1,4.8,4.1,7.2,7,6.6c4.5-0.9,5.9-5.4,5.9-8C63.3,43.1,55.5,37,48.1,26.5z"/>
<path d="M14.1,40.3c-3.4,4.4-7.1,6.9-7.2,10.3
	c0,1.1,0.7,3,2.8,3.4c1.4,0.2,3.2-0.8,3.3-2.8c0-0.4,0.5-0.4,0.5,0.2c-0.1,1.6-0.6,3.4-1.6,4.9c1.5,0,3,0,4.5,0
	c-0.9-1.5-1.5-3.3-1.6-4.9c0-0.5,0.5-0.6,0.5-0.2c0,2,1.9,3,3.3,2.8c2.1-0.4,2.8-2.2,2.8-3.4C21.3,47.1,17.6,44.7,14.1,40.3
	L14.1,40.3z"/>
<path d="M164.6,209.2c-3.4-4.4-7.1-6.9-7.2-10.3
	c0-1.1,0.7-3,2.8-3.4c1.4-0.2,3.2,0.8,3.3,2.8c0,0.4,0.5,0.4,0.5-0.2c-0.1-1.6-0.6-3.4-1.6-4.9c1.5,0,3,0,4.5,0
	c-0.9,1.5-1.5,3.3-1.6,4.9c0,0.5,0.5,0.6,0.5,0.2c0-2,1.9-3,3.3-2.8c2.1,0.4,2.8,2.2,2.8,3.4C171.6,202.4,167.9,204.8,164.6,209.2
	L164.6,209.2z"/>
<path d="M130.6,26.5c-7.4,10.5-15.2,16.5-15.3,24.7
	c0,2.7,1.4,7.2,5.9,8c2.9,0.6,6.9-1.8,7-6.6c0-1,1-0.9,1,0.4c-0.1,3.8-1.3,8.2-3.4,11.8c3.2,0,6.4,0,9.7,0c-2-3.6-3.2-8-3.4-11.8
	c0-1.3,1-1.3,1-0.4c0.1,4.8,4.1,7.2,7,6.6c4.5-0.9,5.9-5.4,5.9-8C145.7,43.1,137.9,37,130.6,26.5z"/>
<path d="M89.3,66.1C81.9,76.6,74.1,82.6,74,90.8
	c0,2.7,1.4,7.2,5.9,8c2.9,0.6,6.9-1.8,7-6.6c0-1,1-0.9,1,0.4c-0.1,3.8-1.3,8.2-3.4,11.8c3.2,0,6.4,0,9.7,0c-2-3.6-3.2-8-3.4-11.8
	c0-1.3,1-1.3,1-0.4c0.1,4.8,4.1,7.2,7,6.6c4.5-0.9,5.9-5.4,5.9-8C104.5,82.6,96.7,76.6,89.3,66.1z"/>
<path d="M48.1,105.7c-7.4,10.5-15.2,16.5-15.3,24.7
	c0,2.7,1.4,7.2,5.9,8c2.9,0.6,6.9-1.8,7-6.6c0-1,1-0.9,1,0.4c-0.1,3.8-1.3,8.2-3.4,11.8c3.2,0,6.4,0,9.7,0c-2-3.6-3.2-8-3.4-11.8
	c0-1.3,1-1.3,1-0.4c0.1,4.8,4.1,7.2,7,6.6c4.5-0.9,5.9-5.4,5.9-8C63.3,122.1,55.5,116.1,48.1,105.7z"/>
<path d="M48.1,223c-7.4-10.5-15.2-16.5-15.3-24.7
	c0-2.7,1.4-7.2,5.9-8c2.9-0.6,6.9,1.8,7,6.6c0,1,1,0.9,1-0.4c-0.1-3.8-1.3-8.2-3.4-11.8c3.2,0,6.4,0,9.7,0c-2,3.6-3.2,8-3.4,11.8
	c0,1.3,1,1.3,1,0.4c0.1-4.8,4.1-7.2,7-6.6c4.5,0.9,5.9,5.4,5.9,8C63.3,206.4,55.5,212.5,48.1,223z"/>
<path d="M130.6,223c-7.4-10.5-15.2-16.5-15.3-24.7
	c0-2.7,1.4-7.2,5.9-8c2.9-0.6,6.9,1.8,7,6.6c0,1,1,0.9,1-0.4c-0.1-3.8-1.3-8.2-3.4-11.8c3.2,0,6.4,0,9.7,0c-2,3.6-3.2,8-3.4,11.8
	c0,1.3,1,1.3,1,0.4c0.1-4.8,4.1-7.2,7-6.6c4.5,0.9,5.9,5.4,5.9,8C145.7,206.4,137.9,212.5,130.6,223z"/>
<path d="M89.3,183.4c-7.4-10.5-15.2-16.5-15.3-24.7
	c0-2.7,1.4-7.2,5.9-8c2.9-0.6,6.9,1.8,7,6.6c0,1,1,0.9,1-0.4c-0.1-3.8-1.3-8.2-3.4-11.8c3.2,0,6.4,0,9.7,0c-2,3.6-3.2,8-3.4,11.8
	c0,1.3,1,1.3,1,0.4c0.1-4.8,4.1-7.2,7-6.6c4.5,0.9,5.9,5.4,5.9,8C104.5,167,96.7,172.9,89.3,183.4z"/>
<path d="M130.6,105.7c-7.4,10.5-15.2,16.5-15.3,24.7
	c0,2.7,1.4,7.2,5.9,8c2.9,0.6,6.9-1.8,7-6.6c0-1,1-0.9,1,0.4c-0.1,3.8-1.3,8.2-3.4,11.8c3.2,0,6.4,0,9.7,0c-2-3.6-3.2-8-3.4-11.8
	c0-1.3,1-1.3,1-0.4c0.1,4.8,4.1,7.2,7,6.6c4.5-0.9,5.9-5.4,5.9-8C145.7,122.1,137.9,116.1,130.6,105.7z"/>
<path d="M5.6,30.1c0.1-3.5,1.4-4.9,3.9-6.7c-2-1.5-2.9-3.6-2.7-5.4c0.4-4.4,3.8-6.6,7.5-6.5
	c3.7,0.1,6.9,3,7.2,6.3c0.2,2.8-0.6,4.1-2.6,5.6c2.3,2,3.8,3.3,3.8,6.8c-0.1,3.5-3,7.6-8.2,7.8C9.4,37.9,5.5,33.6,5.6,30.1L5.6,30.1
	L5.6,30.1z M20,30.1c0.2-3.2-2.6-5.4-5.8-5.4c-3.1,0-5.9,2.6-5.9,5.5c0,3.1,3.6,4.8,6,4.8C17.1,35,19.8,32.8,20,30.1L20,30.1z
	 M19,18.6c0.1-2.7-2.4-4.6-5-4.6c-2.3,0.1-4.7,1.8-4.7,4.1c0,2.8,2.8,4.2,5.1,4.3C16.5,22.5,18.9,20.6,19,18.6L19,18.6L19,18.6z"/>
<path d="M156,219.4c0.1,3.5,1.4,4.9,3.9,6.7c-2,1.5-2.9,3.6-2.7,5.4c0.4,4.4,3.8,6.6,7.5,6.5
	s6.9-3,7.2-6.3c0.2-2.8-0.6-4.1-2.6-5.6c2.3-2,3.8-3.3,3.8-6.8c-0.1-3.5-3-7.6-8.2-7.8C159.8,211.6,155.9,215.9,156,219.4L156,219.4
	L156,219.4z M170.3,219.4c0.2,3.2-2.6,5.4-5.8,5.4c-3.1,0-5.9-2.6-5.9-5.5c0-3.1,3.6-4.8,6-4.8C167.4,214.5,170.1,216.7,170.3,219.4
	L170.3,219.4z M169.3,230.9c0.1,2.7-2.4,4.6-5,4.6c-2.3-0.1-4.7-1.8-4.7-4.1c0-2.8,2.8-4.2,5.1-4.3
	C166.9,227.1,169.3,228.9,169.3,230.9L169.3,230.9L169.3,230.9z"/>
</svg>
