<?xml version="1.0" encoding="utf-8"?>
<!-- Generator: Adobe Illustrator 15.0.2, SVG Export Plug-In . SVG Version: 6.00 Build 0)  -->
<!DOCTYPE svg PUBLIC "-//W3C//DTD SVG 1.1//EN" "http://www.w3.org/Graphics/SVG/1.1/DTD/svg11.dtd">
<svg version="1.1" id="Layer_1" xmlns="http://www.w3.org/2000/svg" xmlns:xlink="http://www.w3.org/1999/xlink" x="0px" y="0px"
	 width="178.8px" height="249.6px" viewBox="0 0 178.8 249.6" enable-background="new 0 0 178.8 249.6" xml:space="preserve">
<path d="M14.2,40.3c-3.4,4.4-7.1,6.9-7.2,10.3
	c0,1.1,0.6,3,2.7,3.3c1.4,0.2,3.2-0.8,3.3-2.7c0-0.4,0.5-0.4,0.5,0.2c-0.1,1.6-0.6,3.4-1.6,4.9c1.5,0,3,0,4.5,0
	c-0.9-1.5-1.5-3.3-1.6-4.9c0-0.5,0.5-0.6,0.5-0.2c0,2,1.9,3,3.3,2.7c2.1-0.4,2.8-2.2,2.7-3.3C21.3,47.1,17.6,44.6,14.2,40.3z"/>
<path d="M164.6,209.2c-3.4-4.4-7.1-6.9-7.2-10.3
	c0-1.1,0.6-3,2.7-3.3c1.4-0.2,3.2,0.8,3.3,2.7c0,0.4,0.5,0.4,0.5-0.2c-0.1-1.6-0.6-3.4-1.6-4.9c1.5,0,3,0,4.5,0
	c-0.9,1.5-1.5,3.3-1.6,4.9c0,0.5,0.5,0.6,0.5,0.2c0-2,1.9-3,3.3-2.7c2.1,0.4,2.8,2.2,2.7,3.3C171.7,202.3,168,204.8,164.6,209.2
	L164.6,209.2z"/>
<path d="M8.4,29.1H6.2v-3h2.2c0,0,0-1.6,0.1-4.5c0.1-6.1,0.3-7,2-8.7c3.5-3.3,9.3-0.6,9.2,4.4
	c-0.1,7,0,13.7-0.2,14.6c-0.4,1.7-0.4,1.8-0.3,2.1c0.3,0.6,2.9,0.9,2.9,0.7v3c-2,0.2-2.8,0-4.4-1.2c-1,1-4,1.9-6.5,0.8
	C9.4,36.4,8,34.1,8.4,29.1L8.4,29.1L8.4,29.1z M15.8,34.3c-1.1-1.6-2.9-3.7-4.6-4.5c-0.1,1.8,0,3.3,0.7,4.1
	C12.9,35.2,14.5,35.5,15.8,34.3L15.8,34.3L15.8,34.3z M16.7,17c-0.8-2.3-2.9-3.1-4.4-1.6c-0.9,0.9-1.1,1.8-1.1,6.9
	c0,3.1,0,4.5,0,4.5c3,1,5.7,4.4,5.7,4.4l0.1-9.5C17,20,17,18.5,16.7,17L16.7,17L16.7,17z"/>
<path d="M170.4,220.4h2.2v3h-2.2c0,0,0,1.6-0.1,4.5c-0.1,6.1-0.3,7-2,8.7
	c-3.5,3.3-9.3,0.6-9.2-4.4c0.1-7,0-13.7,0.2-14.6c0.4-1.7,0.4-1.8,0.3-2.1c-0.3-0.6-2.9-0.9-2.9-0.7v-3c2-0.2,2.8,0,4.4,1.2
	c1-1,4-1.9,6.5-0.8C169.3,213.1,170.7,215.3,170.4,220.4L170.4,220.4L170.4,220.4z M162.9,215.2c1.1,1.6,2.9,3.7,4.6,4.5
	c0.1-1.8,0-3.3-0.7-4.1C165.9,214.2,164.3,213.9,162.9,215.2L162.9,215.2z M162,232.5c0.8,2.3,2.9,3.1,4.4,1.6
	c0.9-0.9,1.1-1.8,1.1-6.9c0-3.1,0-4.5,0-4.5c-3-1-5.7-4.4-5.7-4.4l-0.1,9.5C161.7,229.4,161.8,231,162,232.5L162,232.5L162,232.5z"
	/>
<path fill="#E2CF00" d="
	M81.8,228.6l18.7-34.2c0,0,4.5,1.8,9.7,3.1c-5.1,13.2,0,30.7,0,30.7L81.8,228.6z M30.6,170.3c-1.1-14.5,0.6-26.8,1.3-40.1
	c0-0.2-6.1-4-6.1-4l14.4-8.1c1.4,0.7,2.3,0.6,2.6-0.8c-1.5-4.9-1.7-9.7,1.6-13.8c2.5-3,8.2-1.5,9.8-1.5c1.3,0,4.3-10.2-0.8-13.2
	c-1.1-0.6-1.6,6-2.4,8.7c-3.3-2-9.5-3.6-10.3-7c-0.4-1.9,5.6-5.6,4.4-7.7c-1.7-3.1-6.2-7.8-8.1-6.5c-1.8,1.6-6.1,5-6.1,7.3
	c1.3,4.1,4.8,4.4,6.6,8.3c0.4,0.8,3.8,4.4,3.8,4.4c-1.2,1.9,0.8,5.2,0.9,4.7l-15.7-6.9c0,0,3.6,27.1-0.2,31.1
	c-0.4,0.4,3.4-1.1,3.4-0.8c1.1,1.5,13.8,9.5,17.4,12.4c6.4-9,8.8-13,17.1-21c1.8-1.5,5.9-4.3,8.2-7.6c1.9-2.7,2.6-5.7,2.3-8
	c-0.4-3-0.7-5.1-2.6-7.5c-4.3-5.5-11.1-10.8-11-10.9l2.3-1.9c0,0,8.4,7,11.9,12.1c2.4,3.4,1.3,7.4,3.4,8.1c0.5,0.2,3.9-0.1,5,0.1
	c0.1,0,24.7,17.4,20.2,18.4c-6.2,1.4-16,0.5-16,0.5c-7-6.9-10.4-9.1-14.6-7c0,0-10.6,9.3-16.7,16.6c-3.5,4.1-9,12.8-9,12.8
	c-0.4-0.2-12.5-9.8-12-8.7c0,0,2.9,26.3,1.6,36c-0.9,8.2-2.1,17-2.6,24.5c1.7-0.4,4.3-0.9,4.7,1.8c0.4,3.6-4.2,2.8-4.3,2.4l2.6,5.5
	c0,0-4,6.9-3.9,6.6c0.1-0.2-3.6-6.1-3.6-6.1s2.7-5,3.2-6c0.3-0.7-4.2,1.8-4.4-1.8c-0.2-3.8,4.7-2.9,4.4-2.4
	C32.8,185.3,31.4,177,30.6,170.3L30.6,170.3z M90.7,188.3c0.1-0.1-10.6-4.3-20.5-3.9c-3.5-1.4-9.1-2.8-12.9-0.2
	c-4.2-2.9-7.9-6.1-11.6-9.2c1,0,5.5-25.9,7.5-34c-1.1-10.9,9.3-10.9,10.3-2.2c11.3,11.7,25.1,23.8,39.4,35.7
	C100.5,179.2,92.4,182.8,90.7,188.3L90.7,188.3z M115.4,111.2C102.5,98,75.6,74.5,75.6,74.5l12.6-12.3c6.6,2,13.4,3.6,21.1,3.7
	c0,0,8.4,3.8,12.9,0l11.6,9.2c0,0-4.8,25.5-7.7,34.4c0.1,3.5-1.3,7.8-4.7,8.4C118.5,118.4,116.2,114.2,115.4,111.2L115.4,111.2z
	 M141.4,80.7c1.3-8.3,1.6-14.3,2.6-24c-5.8,1.7-5.7-6.1,0-4.1l-2.6-5.8l3.9-6.6l3.6,6.2l-3.1,5.5c6.4,0.3,4.9,6.3-0.7,4.9
	c1,9.3,3.3,18.6,3.2,27.7c2,14.7-2.4,35.1-1.7,35.6l6.3,4.3l-1.1,31.9l-9.9-4.4l-2.9,2c0.9,1.9,2.2,3.7,2.6,5.7c0,0,6.8,5.6,5.9,7.4
	c0.4,0.3-4.9,7.3-6.4,7.1c-3-0.3-6.4-4.2-7.4-6.9c-0.8-2.7,6.1-5.4,5.2-7.5c-1-2.4-3.7-3.6-6.1-4.3c-3.2-1-4.7-3.5-4.9-3.5
	c0,0-1.3,10.2-2.5,9.4c-4.9-3.3-1.5-13.7-0.6-13.4c0,0,2.1,0.5,4.6,0.7c8.9,0.9,8.3-10,6.5-15.3c-0.6-2.1,2-1.4,3.1-1.7
	c4.3-1.3,11-5.7,11-5.7c-6.9-3.9-13-8.3-18.5-12.4c0,0-5.1,8.7-11.1,14.8c-4.4,4.4-5.1,5.9-12.5,11.6c-0.1,0.1-5.6,6.6-3,14.2
	c2.2,6.5,12.9,13.6,12.8,14l-2.1,2c0.1,0.1-15.1-9.4-14.7-19.7c0-0.4-6.9-0.5-6.9-0.5l-20-18.5l16.9-0.1l8.7,7.1l5.4,0.3
	c0.4,0.3,0.6-1.4,5.3-5c9.1-6.8,20.4-24.4,20.4-24.4l12,8.4C142.2,105.2,140.2,91.6,141.4,80.7L141.4,80.7z M97.9,20.8
	c0,0-12.4,23.4-19.2,34.4L69,52.4c4-10.8,0.2-31.3-0.8-31.8L97.9,20.8z"/>
<path fill="#131F67" d="
	M24.1,19.5V230h130.6V19.5H24.1z M114.4,172.2c6.2-5.8,12.3-10.5,18-14c2.2-1.3,2.9-1.5,3.8-0.7c1.4,1.3,2.3,2.4,1.8,3.3
	c-0.1,0.2-0.4,0.5-0.4,0.5l-3.4-1.3l1.1,3.9c-3.1,1.3-3,4.6-0.1,6.4l-2,4.7l4.7-2.1c0.2,1,3.6,3.5,5.7,0l4.3,2.1l-1.5-5.3
	c1.4-1.3,2.2-3.5,0-5.5l1-4.1l-3.9,1.3c-1-1.3-1.5-1.2-1.8-1.6c-0.1-0.5-0.1-1.7-0.7-2.7c-0.5-0.9-1.1-1.8-1.7-2.5
	c-0.3-0.5-0.1-0.6,1.5-1.4c0.7-0.4,1.3-0.8,1.3-0.8s7.6,3.8,10.7,5.3v70.5h-41.6c-4.7-14.1-1.3-26.3-0.1-31.4
	c-2.2-0.2-13.5-3.9-13.8-5.1C101.9,184.6,107.9,178.1,114.4,172.2L114.4,172.2z M33,192.7c-5.5-1.8-5.5,4.8-2.7,5.3
	c0.7,0.1,1.5,0.2,2.6-0.1c0.3,0.1-3.3,5.5-3.3,5.5s2.8,5.2,4.2,7.4l4.3-7.6l-2.8-5.3c4.4,2.2,6.7-4.4,2.1-5.3
	c-1.1-0.2-2.3,0.4-2.3,0.4l2.4-22.9c2,1.3,5.5,4,5.5,4c0.8,12.6,0.2,23.1,7.2,41.5l0.1,12.7H25.8v-66.6l4.5,3
	c0.1,0.4-0.7,0.1-0.3,4.8C30.4,173.7,31.7,180.9,33,192.7L33,192.7z M119.7,21.4c0.2,0.3,0.2,0.7,0.3,1.2c1,3.3,4.4,7.2,7.1,8.2
	c0.9,0.4,1.3,0.9,0.8,1.5c-0.7,0.7-3.5-1.2-5.6-3.7c-1.9-2.2-3.2-4.1-3.5-5.5c-0.2-0.8-0.3-1.4-0.1-1.8
	C119,20.9,119.4,21.1,119.7,21.4z M123,21.1c0.4,0,0.8,0.4,1.1,1.2c0.7,1.8,1.8,3.2,3.5,4.4c0.5,0.3,0.6,0.8,0.4,1.1
	c-0.1,0.1-0.2,0.2-0.3,0.2c-1.3,0.4-4.8-3.7-5.1-6.2C122.6,21.2,122.8,21.1,123,21.1z M127.4,21.1c0.7,0,1,1.5,0.6,2.2
	c-0.3,0.2-0.9-0.1-1.4-1.1C126.2,21.4,126.4,21.1,127.4,21.1z M125,21.2c0.2,0,0.5-0.1,0.7,0.1c0.3,1.5,1.4,2.6,2.3,3.5
	c0.2,0.3,0.2,0.9-0.1,1.1c-0.8,0.4-3.2-2.4-3.2-4C124.7,21.4,124.8,21.2,125,21.2L125,21.2z M122,22.1c0.8,2.8,2.9,5.1,4.7,6.2
	c1.3,0.8,1.8,1.3,1.2,1.7c-0.2,0.1-0.3,0.2-0.3,0.2c-3.1-1.2-6.9-5.6-7-8.8C121.3,20.6,121.8,21.6,122,22.1z M111.3,34.2
	c-1.6,0-3.6,0.4-5.2,1.1c-2.2,1-2.8,1.7-2.5,1.9c0.2,0.2,1.7-0.4,2.4-0.5c3.9-1,6.6-1.2,9.1-0.1c2,0.9,2,0.5,0.7-1
	C114.9,34.6,113.1,34.2,111.3,34.2L111.3,34.2z M125.1,36.4c1.3,0,2.6,0.3,3.1,0.9c0.4,2-0.6,1.1-1.4,0.7c-1.1-0.5-2.4-1-3.6-0.8
	c-0.8,0.1-0.8,0.1-0.4-0.2C123.4,36.6,124.3,36.4,125.1,36.4L125.1,36.4z M109.8,37.1c-3.7,0.3-5,2.2-7.3,4.1
	c-1,0.7-0.8,1.3,0.4,1.1c1.5-0.2,2.1-0.2,4.1,0.5c2.2,0.8,3.8,1.1,5,0.6c2.3-0.9,2.1-0.7-1.2,2.4c-1.7,1.4-1,1.3,0.7,0.1
	c1.3-1,2.2-1.7,2.5-2.3c0.1-0.3,0.1-1.3,0.4-1.3c0.8,0,0.4-1-0.4-1.5c-0.5-0.4-0.4-0.7,0.3-1.4c1-1.1,0.7-1.5-0.4-0.9
	c-0.2,0.1-0.3-0.2-1-0.6C111.8,37.4,110.9,37.1,109.8,37.1L109.8,37.1z M112.4,38.5c0.9,0.8,0.5,1-1.4,0.9c-1.6,0-3,0.2-5,0.8
	c-2.2,0.7-2.4,0.8-1-0.4C106.7,38.4,110.4,36.8,112.4,38.5z M123.9,37.9c0.9,0,1.6,0.1,2.3,0.5c1.9,1,2.3,1.9,0.2,1.2
	c-1.3-0.5-3.1-0.4-4.3-0.1c-1.3,0.3-1.5,0.5-1.3-0.2C121.1,38.5,122.5,37.9,123.9,37.9z M109.3,40.9c0.4,2.2,2.1,1.5,2.3,0.2h0.6
	c-0.3,1.8-2.7,3.3-3.6-0.2C108.8,40.9,109.7,41,109.3,40.9L109.3,40.9z M122.7,40.9h0.5c0.3,1.7,1.9,2.3,2.6,0.1h0.5
	C125.8,44.6,122.1,42.9,122.7,40.9z M108.1,41.1c0.3,0.1,0.4,0.9,0.4,1.2c-0.1,0.5-1.6,0-1.9-0.5C106.9,41.5,107.6,40.9,108.1,41.1z
	 M128.2,41.5v0.6c-0.7,0.2-1,0.5-1.6,0.4c0-0.4,0-0.9,0.3-1.4C127.4,40.9,127.9,41.2,128.2,41.5L128.2,41.5z M113.3,42.2
	c-0.3,0.2-0.7,0.3-0.7,0.3c-0.1-0.6-0.2-1.3,0.6-1.3C113.6,41.3,113.6,41.9,113.3,42.2z M121.8,41.2c0.3,0,0.6,0.7,0.6,1
	c-0.1,0.6-1.6,0.4-1.6-0.2C120.8,41.7,121.4,41.2,121.8,41.2L121.8,41.2z M107.9,64.6c-1.2-0.6-10.1-6-12.3-15.6l-0.5,1
	c1,2.3,2.4,6,2.4,6c-0.1-0.3,0.4,2.5,1.3,7.3c-0.5,0-1-0.1-1.5-0.3c-1.2-4.4-1.5-7.8-2.4-12.1l-0.4,1.2c0,0,1.2,7.7,2.1,10.7
	c-0.5,0-1.4-0.2-1.4-0.2c-0.7-3.2-1.2-5.4-1.9-8.7l-0.6,0.8c0.9,2.7,1.2,5.1,1.6,7.6c-0.6-0.1-1.2-0.1-1.8-0.5c0,0-0.9-4.7-1-4.7
	c-0.3,0.3-0.5,0.8-0.5,0.8s0.8,2.6,0.7,3.7c-0.6-0.1-1.6-0.4-2.3-0.6c-0.4,0.2-0.6,0.6-0.8,1c0.3,1.5,20.7,4.7,19.5,3.5
	c0,0.1,9,4,14,0.7c0,0,8.7,6.5,12.2,9.1c0,0.3,1.2,1.7,2.4,2.5l3.5,2.7c1,0.8,1.4,0.2,1.6-1.3c0.2-1.6,1.4-12.7,1.6-15.1
	c1-8,1-7.9-0.2-7.5c-1.8,0.6-3.5-0.2-3.5-2.1c0-1.2,0.5-2.1,1.8-2.6c0.3-0.1,0.8-0.1,1.3-0.1c0.2,0,0.7,0.1,0.7,0.1
	c0.6,0-2.3-5.2-2.3-5.2s2.7-4.9,4-6.7l3.5,6.4l-2.9,5.7c5.6-0.4,5.1,6.7-0.4,4.3c0,0,0,2.1,0,2c0.1-0.6,0-1.1,0.2-1.2
	c5.3,2,6.4-5.8,0.7-5.4c0.9-1.7,2-3.4,3-5.2l-4.2-7.6l-4.7,7.8l2.4,4.9c-0.5-0.1-1-0.1-1.5,0c-3.5,0.7-2.7,6.3,1.2,5.6
	c0.5-0.1,1.1-0.4,1.1-0.4l-2.6,23c0,0-0.3,0.2-1.3-0.5c-1.2-0.9-3.7-2.7-3.8-2.9c0.9-14.7-2.8-30.2-7-39.8
	c-0.3-0.7-0.1-15.3-0.1-15.3h23.9v67.8c-1.2-0.8-2.7-1.8-4-2.7c-0.4-0.3-0.6-0.7-0.5-1.3c-0.4,0.9-0.2,1.3-0.2,1.3l5.2,4.2
	l-0.2,66.6c0,0-8.5-4.4-13.7-6.5c-2.3-1-2.5-0.7-2.5-0.7s1.7,3.7,1.2,4.4c1.1,1.1,3,3.3,3.1,5.5c1,0.9,1.3,1,2,2.2l3.1-1.1l-0.7,3.3
	c3.3,2.3,0.1,5.5-0.5,5.2c0,0,1.5,3.2,1.8,4.6c-0.5,0-3.2-1.5-3.9-1.8c-1.9,3.8-5.2,0.6-5.2,0.1l-3.6,1.6l1.3-4.1
	c-2.3-1.4-3.9-3.5-0.1-5.8l-0.9-3.2l3.1,1.2c0,0,0.6-0.9,1-1.6c-1.2-5-8.7-4.1-11.1-8.6c0,0-0.6,5.6-1.2,7.7c-0.2,5.4-4-0.1-4-5.8
	c0-1.3,1.6-5.6,2.2-5.8c0.6-0.1,6,2.5,9.6-0.1c1.7-1.7,4.5-6.6,1.8-14.2c-0.9-1.8,1.7-2,2.6-1.4c0,0,7.9-4.1,11.5-6.1
	c-6-3.3-18.4-12.1-18.4-12.5c-1.7,2.6-3.6,4.9-6.2,8.6c-4.3,5.1-7.7,10-13.2,14.1c-7.7,5.6-9.5,11.3-7.4,18c0.9,2.9,2.6,5.8,5.5,6.8
	c1.5,1.5,7.3,7.1,7.3,7.1c-9.8,9-16.5,16.3-21.3,24.5c4,2.1,13.6,5.1,13.6,5.1c-3.6,11.9-1.9,21.4,0.4,30.9c0,0-27.9,0-42.4-0.4
	c-0.1,0.1-1.7,0-1.7-0.1c-0.1-1.1,2.6-4,3.4-3.6c0.4-0.4,1.2-0.6,1.1-1.1c-2-0.2-5,3.2-5.1,4.7h-1.2c-0.2-0.2,2.2-5.8,7-6.3
	c0,0.2,0.6-0.4,0.1-0.7c-5.6,0.7-8.2,6.9-8.1,7h-0.9c1.9-6.2,6.9-8.1,9.8-8.4c0,0,0.9-0.3,0.7-0.9c-6.4,1.1-9.5,3.9-11.1,9.2h-1.1
	c0.8-5.4,6.4-10.2,12.7-10c0.2-0.1,0.4-0.3,0.3-0.9c-7,0.8-10.5,3.1-13.4,9.2c-2.6-6.7-9.7-9.9-9.8-9.9c0,0-0.2-1.9,0.2-1.8
	c6.1,2.2,8.4-3.1,8.2-6.2c-0.1-1.7,0-2.7-0.6-5.1c-0.5-2.2-0.9-3.7-0.8-4.6c0-0.9,0.3-1.1,1-1.5c1.3-0.6,2.1-2.7,1.8-3
	c-0.7,1.6-2.4,1.8-3.3,2.9c-0.7,0.9-0.4,2.2,0.8,7c0.7,2.9-0.1,1.6-1.8,0.7l-1.1-0.6c0.7,0.8,1.5,1.5,2.3,2.2c0.7,0.6,0.3,1-0.7,0.6
	c-1.4-0.7-4.1-0.4-5.1,0.5c-0.4,0.3-0.5,0.3-0.6,0c-0.5-7.4,0.3-12,2.8-17.6c1.6-3.8,3.9-6.6,7.1-6.8c3.2-0.3,7.7,0.9,11.9,3.7
	c4.9,3.3,9.6,8.4,10.1,14.5c0,0.1,0.4-0.5,0.5-0.8c0.2-0.7-0.6-2.9-1.9-5.5c-0.2-1.9-0.9-5.3-1.4-7.6c0.4-0.2,1.2-0.1,1.5,0.2
	c0.9,3.8,1.5,6.7,2.3,11.8c0,0.5,0.6-0.7,0.6-1.1c-0.1-0.8-2.2-10.7-2.2-10.4c0-0.3,2,0.1,1.7,0.4c0,0,1.5,8.3,1.6,8l0.5-0.7
	c0,0-1.4-6.1-1.3-7.2c0.1-0.2,1.2,0.2,1.6,0.4c0.4,0.6,0.7,2.8,0.9,4.2c0.5,0.4,0.6-0.7,0.6-1c-0.4-0.6-0.8-2.8-0.5-2.9
	c0.2-0.1,1.5,0.4,1.8,0.6c0.3,0.3,1.4-1.3,1.1-1.6c-6-2.3-13.6-3.7-19.4-3.8c-1.3,0-1.9-0.2-3.9-0.9c-5.2-1.9-9.5,0-10.1,0.6
	c-6.3-4.4-13.4-10.6-19.1-14.5c-0.3-0.2-0.9-0.3-1-0.3c-0.9,6.9-1.5,14.8-2.3,21.1c-0.3,2.5-0.3,2.7-0.2,2.8c0.1,0.1,0.3,0,0.4-0.1
	c1.9-0.7,3.5-0.2,4.4,1.4c0.4,2.4-1.6,4-3.9,2.8c-0.8-0.4-0.9-0.3-0.6,0.5c0.6,1.4,2.5,5.2,2.5,5.2s-2.5,5.2-3.8,6.6
	c-1.2-2-2.8-4-3.5-6.2c1-1.9,2.8-4.4,3.4-6.3c-0.1-0.1-0.6,0-0.9,0.2c-3.2,1.5-3.7-1.4-3.7-2.4c0.1-2.1,1.9-2.6,4.6-1.6
	c-2.9-19.1-3.5-30-2.7-28.8c0,0-3.5-2.5-5.2-4.2l0.2-139.2h41.1c4.2,11.4,3.1,25,0.5,32.2c4.5,0.8,9,1.9,14.1,4.8
	C72.3,71,58.8,84.8,44.1,93.6c-0.8,0.4-3.6-1.3-3.9-3c-0.1-0.4,0.1-1.2,0.6-1.2c1.1,0.4,2.1,0.8,3.2,1.3c0,0-1.5-3.7-0.8-4.3
	c0.5-0.3,0.8-0.6,1.1-0.9c1.1-1.4,1-2.9-0.1-4.1c-0.5-0.5-1-0.8-1.2-0.9c0,0,1-2.9,1.6-4.2l-4.1,1.4c-1.3-1.8-3.8-3.3-5.5-0.5
	c-0.3,0.7-0.3,0.6-2.8-0.5c-1.4-0.6-2.3-1-2.3-1c0.5,1.6,1.2,3.1,1.9,5c-2.8,1.8-2.2,4.8,0.2,5.7l-1.2,4.1c0,0,2.7-1,4.1-1.4
	c0,0,1.3,1.3,1.6,2.5c0.6,2.1,2.1,3.6,3,4.4c-1.5,1.1-2.3,1.5-4,2.3l6,2.4c-0.4-1.3-1.2-2.2-1.2-3.8c-0.1-1.4-0.1-1.4-1-2.3
	c-1.6-1.4-1.8-3.1-2.3-4.2c-0.7-0.4-1.2-1.1-1.6-1.9c-0.4-0.8-3,1.1-3.4,0.7c-0.5-0.5,0.8-3.1,0.7-3.4c-1-0.1-4-2.4-0.5-4.9
	l-1.1-4.2c0,0,2.7,1.2,3.9,1.8c0.9-4.2,4.9-2.2,5.6-0.4c0,0,3.2-1.1,3-0.2c-0.1,0.8-0.6,2.7-0.6,2.7c2.9,2.6,2.3,3.8-0.1,5.5
	c0,1.4,0.5,3.5,0.5,3.5s-1.6-0.7-2.7-1c-0.4,0.4-0.9,1.2-0.8,1.6c0.7,3.2,4.7,4.1,10.6,7.4c0.2-2.1,1.6-5,1.8-7.5
	c0.1-1.8,0.2-1.9,1.4-1.3c3.4,2.4,2.3,9.2,1.1,11.9c-0.7,1.6-0.8,1.5-2.3,1.1c-2-0.6-5.4-0.4-7.3,0.3c-2.6,1.1-3.9,7-3.9,8.8
	c0,1.7,0.1,3.4,1,5.5c0.4,1.3-0.3,2.4-1.5,2c-0.3-0.1-0.9-0.3-0.9-0.3L28.5,124l2.1,1.3c0,0-1.6-0.9-0.6-1.5l9.8-5.1
	c1.8,0.7,1.6,0.9,2.8-0.4c0.7-0.7,1.1-0.7,2-0.7c5.8,0.6,8.3-0.3,9.3-2.7c0.1-0.4,0.1-0.4,0.7-0.6c1.1-0.4,1.6-1.2,1.7-2.2
	c0-0.6,0.3-0.7,0.8-1.2c0.9-0.8,1.1-1.9,0.5-2.9c-0.3-0.5-0.5-0.7-0.4-1.2c0.2-0.9-0.1-1.8-1-2.7c-1-1.1-1-0.9,0.9-2.6
	c3.5-3.4,6.7-6,10.1-9c2.4-2.1,2.1-1.9,3-1c3.4,3.5,4.7,9,3.2,13.9c-0.1,0.2-0.1,0.2,0.1,0c1-1.1,1-6.6,0.2-9c-1-3-2-4.5-5.3-7.5
	c-2.1-1.9-7.7-7.2-7.7-7.2c8.1-7.1,16.9-15.9,21.8-24C80,55,68.3,52.5,68.3,52.5c1.5-3,4.3-16.7-0.6-31.8
	c14.5,0.7,29.1-0.4,43.6,0.6c0,0,0.2-0.1,0.3-0.1c0.4-0.1,0.6,0.2,0.5,0.6c-0.3,1.2-2,3.9-3.2,3.6c-0.5-0.2-0.4,0.8-0.6,1.2
	c1.9-0.2,4.1-2.6,4.6-5c0.3-0.5,0.5-0.6,0.8-0.5c0.3,0.1,0.3,0.4-0.1,1.6c-1.2,2.9-3.6,5.5-6.3,5.2l-0.4,1c3.7-0.1,6.6-3.6,7.5-6.2
	c0.6-1.6,0.6-1.8,1.2-1.6c0.5,0.5,0.2,1.1,0,1.7c-1.9,6-7,7.6-9.6,7.4c-0.3,0-0.4,0.3-0.3,0.7c5.5,0.4,9.9-4.4,10.5-8.5
	c0.3-1.1,0.8-1.5,1.1-1c0.2,0.5,0.1,0.9,0,1.4c-1.5,6.5-8.4,10.1-12.6,9.1c-0.2-0.2-0.5,0.7-0.1,1c8.5-0.3,11.1-4.7,13-8.6
	c2.3,3.5,4.2,7.1,9.7,9.2c0,0,0.6,1.2,0.1,1.5c-0.2,0.1-0.6,0.1-1.1,0c-6.7-1.1-9,5.2-6.1,14.6c0.8,2.6,0.4,2.2-1.2,3.8
	c-0.8,0.8-1.2,2.1-1,2.2c0.3-0.2,0.4-0.6,1.1-1.2c0.3-0.3,0.9-0.5,1.4-0.8c1.2-0.7,1.2-1.2,0.8-2.9c-0.3-1.3-1.2-5.1-1.2-5.5
	c0-0.7,0.2-0.7,1.1,0c1.3,1,2,0.9,0.5-0.3c-0.6-0.5-1-0.8-1.2-1.1c-0.2-0.4-0.1-0.6,0.4-0.4c2.3,0.7,4.3,0.7,6.6-0.7
	c0.3,6.2-0.6,15.6-5.8,22.4C118.3,69.5,110.7,66.1,107.9,64.6L107.9,64.6z M114,50.4c-0.2,0-0.7,0.1-1.1,0.3c-1.5,0.9-1.2,4,0.5,4.4
	c0.7,0.2,1.3,0.3,2.4-0.3c0.7-0.3,1.6-0.6,1.9-0.5c0.6,0.2,0.7-0.3,0.8-0.8c0.3-1.2-1.8-1.3-3.4,0c-2,1.6-3.6-0.8-1.7-2.6
	C114.2,50.6,114.1,50.4,114,50.4L114,50.4z M98.2,57l1.7,2l1.1,4.7c-0.7,0.1-1.4-0.3-1.4-0.3C99,61.3,98.5,59.2,98.2,57z
	 M121.4,58.2L121.4,58.2c-0.1,0-0.4,0.2-0.9,0.2c-0.3,0-0.6-0.2-0.9-0.1c-0.7,0-1.4,0.3-1.6,0.3c-0.2,0.1-0.5,0.1-0.7,0
	c-0.6-0.3-2.2-0.2-2.7,0.1c-0.6,0.2-1.2,0.3-1.7,0c-0.2-0.1-0.4-0.4-0.5-0.3c-0.1,0.1-0.4,1.4-0.5,1.9c0,0.2-0.1,0.5,0,0.5
	c0.1,0,0.4-0.2,0.8-0.4c0.8-0.4,1.6-0.4,3.2,0c1.9,0.5,2.6,0.3,3.7-0.2c0.9-0.5,1.4-0.6,2-0.4c0.1,0,0.5,0.2,0.6,0.2
	c0.1-0.1-0.2-0.7-0.4-1.2C121.6,58.4,121.6,58.2,121.4,58.2L121.4,58.2z M101.2,60.3c1.7,1.6,1.5,1.4,2.6,2.2l-0.1,1.5
	c0,0-1.3,0-1.9-0.2C101.6,63.3,100.7,60.4,101.2,60.3z M114.7,61.4c0.1,0.1,0.3,0.2,0.5,0.2c2.6,1-0.1,0.7-0.4,1.7
	c0,0.1,0.1,0.1,0.2,0c0.9-0.4,3.1-0.6,4.1-0.4c1.3,0.4,1.4,0.1,0.1-0.5c-0.9-0.4,0.2-0.6,0.6-0.9c0.8-0.5,0.2-0.7-0.7-0.2
	c-1,0.5-2.8,0.5-3.6,0c-0.4-0.2-0.7-0.3-0.9-0.4C114.4,60.9,114.6,61.3,114.7,61.4L114.7,61.4z M104.4,63.1l1.5,1.2l-1.6-0.2
	L104.4,63.1z M69.5,93.4c-0.3,0-0.6,0.3-0.6,0.6s0.3,0.6,0.6,0.6s0.6-0.3,0.6-0.6S69.9,93.4,69.5,93.4z M71.6,93.9l-7.1,3.4l1.9,0.6
	v1.9l1.7-0.5l0.7,1.8L71.6,93.9z M71.9,95.5c-0.3,0-0.6,0.3-0.6,0.6s0.3,0.6,0.6,0.6c0.3,0,0.6-0.3,0.6-0.6S72.2,95.5,71.9,95.5z
	 M63,99c-0.3,0-0.6,0.2-0.6,0.6c0,0.4,0.3,0.6,0.6,0.6s0.6-0.3,0.6-0.6S63.3,99,63,99z M65.1,100l-7.9,3.7l2.3,0.7l-0.6,2.4l1.9-0.8
	l1.1,1.6L65.1,100z M65.4,101.8c-0.3,0-0.6,0.3-0.6,0.6c0,0.3,0.3,0.6,0.6,0.6c0.3,0,0.6-0.3,0.6-0.6
	C65.9,102,65.7,101.8,65.4,101.8z M49.6,102.1c3,0,6.3,1.1,7.5,3.7c0.3,1.3-1,2-3.6,1.3c-4.4-1.2-5.2-1.4-4.5-0.6
	c0.1,0.1,0.3,0.3,1,0.6c1.7,0.6,4.9,1.2,5.8,1.1c1.2-0.2,2,0.4,1.7,1.4c-0.3,1.1-1.9,1.6-4.2,1.3c-2.4-0.3-3.7-0.6-4.5-0.9
	c-1-0.3-1.1-0.3-0.6,0.4c0.3,0.4,0.3,0.7,0.7,0.7c1.6-0.1,3.3,0.2,4.7,0.4c2.6,0.2,3,1,1.1,2.1c-0.9,0.5-3.6,0.4-5.2-0.2
	c-1.1-0.4-3.6-1-2.7-0.2c0.2,0.2,0.2,0.6,0.6,0.8c1.3,0.2,5.1,0.5,5.7,1c0.4,0.3-0.5,1.2-2.2,1.7c-2.7,0.5-6.7,0.3-7.7-0.4
	c-1.9-4-0.9-10.5,2.2-13C46.2,102.5,47.9,102.1,49.6,102.1L49.6,102.1z M67.1,104.2c-0.3,0-0.6,0.3-0.6,0.6s0.2,0.6,0.6,0.6
	c0.3,0,0.6-0.2,0.6-0.6C67.7,104.5,67.4,104.2,67.1,104.2z M69.5,104.8l-8.2,4.1l2.1,0.6l-0.5,2.4l1.9-0.8l1.2,1.6L69.5,104.8z
	 M69.5,106.8c-0.3,0-0.6,0.3-0.6,0.6c0,0.3,0.3,0.6,0.6,0.6s0.6-0.3,0.6-0.6C70.1,107.1,69.8,106.8,69.5,106.8z M74.3,111.6
	c-3.6,3.5-7.7,6.3-11.5,9.8h0.8l2-1.8l57.3-0.2l-1.3,2l0.6,0.2c0,0,1.7-2.5,1.6-2.7c-12.6,0-22.3,0-36.1,0.1
	c-2.5-2.5-5.2-4.8-7.8-7.2L74.3,111.6z M56.9,113.9c-0.3,0-0.6,0.3-0.6,0.6s0.3,0.6,0.6,0.6c0.3,0,0.6-0.3,0.6-0.6
	C57.4,114.1,57.2,113.9,56.9,113.9z M131.7,114.3c5,3.7,10.8,8.2,15.7,10.9c1.9,0.8,1.8,1.1-0.2,2.1c-1.9,1.2-5.2,2.8-7.9,4.1
	c-1.2,0.4-1.7-0.1-2.5,0c-0.6,0.2-0.8,0.3-1.1,0.7c-0.6,0.8-0.4,0.8-3.6,0.6c-3.2-0.1-4.5-0.1-5.1,0.3c-0.7,0.3-1.8,1.5-1.8,1.9
	c0,0.5-0.4,1-1,1.2c-0.8,0.2-1.6,0.8-1.6,1.7c-0.2,0.7-0.6,1-1,1.4c-0.9,0.9-0.8,1.6-0.5,2.5c0.1,0.4,0.3,0.3,0.2,1.4
	c-0.2,2.6-0.4,2.4,2.3,4.3l-14,12.2c-0.3,0.3-0.4,0.2-0.7,0c-1.7-1.3-2.9-3.4-3.6-5.5c-2.4-6.5,0.5-11.9,4.4-15.2
	c1.3-1.1,3.1-2.5,3.6-2.8C120.5,130.1,126.7,121.4,131.7,114.3z M59,114.8l-8,3.8l2.6,0.4l-0.5,2.2l1.9-0.7l1,1.9L59,114.8z
	 M59.4,116.6c-0.3,0-0.6,0.3-0.6,0.6c0,0.3,0.3,0.6,0.6,0.6c0.3,0,0.6-0.2,0.6-0.6C60,116.8,59.8,116.6,59.4,116.6z M132.7,119.1
	l-0.9-2.2c0,0-2.5,6.2-3.1,8.4c2.1-1.1,8.4-4.3,8.4-4.3l-2.7-0.5l0.3-2.4L132.7,119.1z M41.4,119.4c-0.3,0-0.6,0.3-0.6,0.6
	s0.3,0.6,0.6,0.6c0.3,0,0.6-0.3,0.6-0.6S41.7,119.4,41.4,119.4z M43.8,120c0,0-6,2.8-8.6,4l2.5,0.5l-0.4,2.4l2.3-0.9l0.9,2.4
	L43.8,120z M44.1,121.8c-0.3,0-0.6,0.3-0.6,0.6c0,0.3,0.3,0.6,0.6,0.6s0.6-0.2,0.6-0.6C44.7,122,44.4,121.8,44.1,121.8z
	 M128.4,122.2c-0.3,0-0.6,0.2-0.6,0.6s0.3,0.6,0.6,0.6c0.3,0,0.6-0.3,0.6-0.6S128.7,122.2,128.4,122.2z M138.1,122.7l-2.8,7.9
	l7.7-3.9l-2.1-0.6v-2l-1.7,0.5L138.1,122.7z M47.5,124.6c-0.3,0-0.6,0.3-0.6,0.6c0,0.3,0.3,0.6,0.6,0.6s0.6-0.3,0.6-0.6
	C48.1,124.9,47.9,124.6,47.5,124.6z M131.3,124.8c-0.3,0-0.6,0.3-0.6,0.6c0,0.3,0.2,0.6,0.6,0.6c0.3,0,0.6-0.2,0.6-0.6
	C131.9,125,131.7,124.8,131.3,124.8z M49.9,125.3l-8.1,4l2.5,0.6l-0.3,2.5l2-1.2l1.1,2.3L49.9,125.3z M50.4,127
	c-0.3,0-0.5,0.3-0.5,0.6s0.3,0.6,0.6,0.6s0.6-0.2,0.6-0.6C51.1,127.2,50.7,127,50.4,127z M134.8,127.5c-0.3,0-0.6,0.3-0.6,0.6
	s0.3,0.6,0.6,0.6s0.6-0.2,0.6-0.6C135.4,127.8,135.1,127.5,134.8,127.5z M123.6,130.1l-0.8-2.1l-3,7.8l8.1-3.7l-2.6-0.6v-2
	L123.6,130.1z M115.4,128.4c-0.1,0-0.2,0-0.2,0.1c0,0.2-2.1,2.2-2.1,2.2l-23.8,0.2l2,0.5c3.1,2.5,8,7,8,7l5.9-0.2
	c3.3-3.2,8.2-5.7,10.4-9.7C115.6,128.5,115.5,128.4,115.4,128.4L115.4,128.4z M137.8,130.1c-0.3,0-0.6,0.3-0.6,0.6
	c0,0.3,0.3,0.6,0.6,0.6s0.6-0.2,0.6-0.6C138.3,130.3,138.1,130.1,137.8,130.1z M119.4,132.8c-0.3,0-0.6,0.2-0.6,0.6
	c0,0.3,0.2,0.6,0.6,0.6c0.3,0,0.6-0.3,0.6-0.6C119.9,133,119.7,132.8,119.4,132.8z M131.5,133.6c1.7,0,3.4,0,3.8,0.4
	c2.6,2.2,1.4,12.7-1.9,14c-3.7,0.8-6.2,1-9.4-1.1c-0.9-0.4-2.7-1.8-2.3-2.9c0.5-1.3,1.8-1.2,5.5-0.1c1.4,0.4,2.1,0.3,2.5,0.1
	c0.3-0.2-0.1-0.5-0.8-0.5c-0.3,0-1.5-0.3-2.5-0.6c-1.4-0.4-1.8-0.6-2.8-0.6c-1.6-0.1-2-0.2-2-1.1c0-1.8,2.5-2,7-1
	c0.5,0.1,1.5,0.3,1.8,0.3c0.2,0.1-0.3-0.6-0.4-1c-0.2-0.1-0.5-0.2-1.2-0.2c-2.9-0.3-5.3-0.5-5.4-0.9c-0.3-1.9,3.5-2.4,7.4-0.9
	c1,0.4,1,0.2,1-0.1c0-0.5-1.7-1.5-4.2-1.5c-2.4,0-2.1-1.2-0.1-2.1C128.1,133.4,129.8,133.6,131.5,133.6z M122.2,135.6
	c-0.3,0-0.6,0.3-0.6,0.6c0,0.3,0.2,0.6,0.6,0.6c0.3,0,0.6-0.3,0.6-0.6C122.7,135.9,122.5,135.6,122.2,135.6z M113.5,139.5l-0.5-2.1
	l-3.3,8.2l8.3-4.2l-2.7-0.5l0.2-1.7L113.5,139.5z M109.3,142.8c-0.3,0-0.6,0.3-0.6,0.6c0,0.3,0.3,0.6,0.6,0.6s0.6-0.3,0.6-0.6
	C109.9,143.1,109.6,142.8,109.3,142.8z M117.5,145.1l-0.7-2l-2.8,7.1l7.1-3.2l-2.1-0.6l0.3-2.2L117.5,145.1z M111.9,145.1
	c-0.3,0-0.6,0.3-0.6,0.6c0,0.3,0.3,0.6,0.6,0.6c0.3,0,0.6-0.3,0.6-0.6C112.5,145.4,112.2,145.1,111.9,145.1z M113.7,147.9
	c-0.3,0-0.6,0.2-0.6,0.6c0,0.3,0.3,0.6,0.6,0.6c0.3,0,0.6-0.3,0.6-0.6C114.2,148.1,114,147.9,113.7,147.9z M110.1,149.5l-2.4,6.8
	l6.6-3.2l-1.9-0.6c0,0,0.1-1.5-0.1-1.4c-0.1,0-1.4,0.4-1.4,0.4L110.1,149.5z M116,150.3c-0.3,0-0.6,0.2-0.6,0.6
	c0,0.3,0.3,0.6,0.6,0.6s0.6-0.3,0.6-0.6C116.6,150.6,116.4,150.3,116,150.3z M107.2,153.6c-0.3,0-0.6,0.3-0.6,0.6
	c0,0.3,0.3,0.6,0.6,0.6c0.3,0,0.6-0.3,0.6-0.6C107.8,153.9,107.6,153.6,107.2,153.6z M109.8,156.2c-0.3,0-0.6,0.2-0.6,0.6
	s0.3,0.6,0.6,0.6s0.6-0.3,0.6-0.6S110.1,156.2,109.8,156.2z M74.7,187.3c-0.3,0-1.1-0.7-1.2-1c0.5-0.1,0.9,0,1.2,0.2
	C74.9,186.7,75,187.2,74.7,187.3z M77.2,186.9c-0.1,0.8,0.4,2.3,0.3,2.7c-0.3,0.1-1.6-1.3-1.9-1.6c-0.1-0.5,0-1.1,0-1.3
	C76,186.5,76.8,186.5,77.2,186.9L77.2,186.9z M79.5,187.3c0.3,1.8,1.1,4.8,1,5.8c-0.1-0.1-1.1-1.1-1.9-2.2c-0.3-0.6-0.7-2.9-0.6-3.9
	C78.5,186.9,79.1,186.9,79.5,187.3z M63.6,187.1c-0.8,0.4-1.7,0.7-2.9,0.7c-0.9,0-2.5-0.5-2.4-0.4c0.4,0.8,1.5,0.4,1.6,0.9
	c-0.3,0.5-1,0.4-1.4,0.9c-0.1,0.1,0.1,0.2,0.6,0.2c1.6-0.7,3.6-0.7,5.5-0.1c0.4,0.1,0.1-0.3,0-0.4c-0.2-0.2-0.6-0.4-1-0.4
	c-1.6-0.3-0.9-0.5,0.2-1C64.6,187.2,64.8,186.5,63.6,187.1L63.6,187.1z M67.1,189.4c-0.2,0-0.8,0.3-1.4,0.5c-1,0.4-1.9,0.3-3.3-0.1
	c-1.2-0.3-1.6-0.2-2.8,0.4c-0.8,0.5-1.6,0.6-2.3,0.3c-0.8-0.5-0.8-0.3-0.4,0.8c0.1,0.3-0.1,1.1,0.3,1.3c0.3,0.1,0.6-0.3,0.8-0.4
	c0.2-0.1,1.5,0.5,2.2-0.1c1.3-0.5,1.7,0.3,2.6,0.2c1.4-0.5,2.3-1,3.6-0.1C66.5,191.9,66.8,189.9,67.1,189.4
	C67.2,189.4,67.2,189.4,67.1,189.4L67.1,189.4z M64.5,195.2c-1,0-1.6,0.7-2.9,0.5c-1.1-0.1-1.4,0.9-1,1.6c0.3,0.5,0.7,0.6,2.2-0.1
	c0.6-0.3,1.4-0.9,1.9-0.8c1.4,0.1,1.8,1.5,0.6,2.7c-0.6,0.3-0.6,0.7-0.4,0.7c0.5,0,1.4-0.5,1.6-1.2
	C67.1,196.8,66.1,195.1,64.5,195.2L64.5,195.2z M69.2,203.5c-1.4,0.3-3.3,1.8-4,2.8c-0.6,1-1.2,2.1-0.8,2.6c0.4,0.4,0.9,0.9,0.9,1.1
	s-0.3,0.4-0.5,0.7c-1.2,1.3-0.9,1.4,0.8,0.5c0.8-0.4,1.2-0.6,1.8-0.5c1.6,0.4,3.6,0.1,5-0.4c0.6-0.2,1.2-0.5,1.3-0.4
	c-2.5,2.7-5.6,2-6.7,1.9c-0.2-0.1-0.3,0-0.3,0c0,0.1,0.3,0.4,1,0.7c1.1,0.5,3.9,0,5.6-1.3c3.4-2.2,5.2-4.3,2.6-3.5
	c-1.2,0.4-1.7,0.3-3.2-0.3c-2.2-1-3.9-1.3-5.8-0.7c-2.3,0.8-0.5-1.1,2.1-2.8C69.4,203.9,69.5,203.4,69.2,203.5L69.2,203.5z
	 M56.6,209.2h-0.8c-0.6-1.9-1.9-1.9-2.5,0h-0.7C53.3,206.8,55.7,206.4,56.6,209.2L56.6,209.2z M70.4,209.4h-0.6
	c-0.4-1.1-1.6-2.1-2.5-0.3l-0.4-0.1C67.7,206.1,70.5,207.7,70.4,209.4L70.4,209.4z M66.5,207.7c0.4,0,0.5,0.4,0,1.1
	c-0.3,0.5-0.6,0.4-1,0.1c-0.3-0.3-0.3-0.4,0-0.7C66,207.8,66.3,207.7,66.5,207.7z M70.8,207.7c0.2,0,0.5,0.1,0.8,0.2
	c0.9,0.3,1.1,0.5,0.7,0.9s-1,0.5-1.3,0.3c0-0.4-0.5-0.8-0.5-1.2C70.5,207.7,70.7,207.7,70.8,207.7z M56.9,207.7
	c0.6,0,1.4,0.3,1.4,0.7c-0.1,0.4-0.7,0.6-1.2,0.7c-0.3,0-0.3-0.1-0.4-0.3c-0.1-0.2-0.2-0.5-0.2-0.7
	C56.4,207.6,56.6,207.7,56.9,207.7L56.9,207.7z M52.7,207.8c0,0-0.3,1-0.5,1.4c-1.3-0.1-1.2-0.6-0.6-1
	C52,207.9,52.3,207.9,52.7,207.8z M51.7,210.3c0.2,0,0.5,0.2,0.9,0.3c1.1,0.4,3,0.3,4.5,0c0.7-0.2,1-0.4,1.2-0.3
	c0.3,0.2,0,0.9-1,1.4c-1.3,0.5-3.4,0.8-4.9,0C51.1,211,51,210.3,51.7,210.3L51.7,210.3z M51.4,211.7c1.2,0.8,2.4,1.1,3.9,0.9
	c2.2-0.1,2.6-0.4,0.8,0.6c-1.7,0.9-4.4,0.8-4.9-0.2C50.8,212.5,51,211.8,51.4,211.7z M62.2,213.1L62.2,213.1
	c0.2,1.2,2.2,2.3,3.2,2.6c2.1,0.9,5.3,0,7.8-1.1c1.8-0.8,2.5-2,0.3-1.3c-3.5,1.1-7.8,1.2-10,0.3C62.8,213.3,62.3,213.1,62.2,213.1
	L62.2,213.1z M50.8,217.6c4.3,1,9.5,7.7,9.5,10.6h-1.4c-2.1-7.4-7.6-9-8.2-9.5C50.5,217.8,50.9,217.6,50.8,217.6L50.8,217.6z
	 M50.8,219.5c5.1,2.3,7,6.3,7.7,8.7H57c-1.1-3.3-3.1-5.7-6.2-7.2C50.6,220.5,50.8,219.5,50.8,219.5L50.8,219.5z M50.8,221.8
	c2.6,0.8,4.9,4.2,5.6,6.4h-1.3c-0.9-2.4-2.2-4-4.3-4.9C50.6,222.9,50.7,222.3,50.8,221.8L50.8,221.8z M50.7,224.1
	c1.2,0.2,3.3,2.2,3.6,4.1h-1.2c-0.4-1.3-1.7-2.4-2.4-2.9C50.7,225,50.7,224.1,50.7,224.1z M50.9,226.1c0.1-0.1,2,1.6,1.7,2h-1.7
	C50.8,227.7,50.8,226.1,50.9,226.1L50.9,226.1z"/>
<path fill="#D40000" d="
	M97.9,21.2c-3.1,6.1-19.2,33.5-19.4,34.4l4.1,1.8l20-36.1C102.6,21.3,98.5,21.2,97.9,21.2z M145.1,44.1l-1.7,2.5l1.4,2.8l1.7-2.7
	L145.1,44.1z M71.7,71.5c0,0-5.8,5.7-8,8.4c4.8,4.8,14.1,10.9,14.2,20.3h6.4l20.6,18.5c0,0,18.7,0.1,19,0.1c0.4-0.1,7-9.6,7-9.6
	l11.8,8.7c0,0-0.6-9.3-1-15c-0.1-3.8-0.3-6.2,2.5-7.9c-3.8-1.8-3.6-5.2-0.8-7.7c-0.9-1.3-2.3-1.5-2.5-6.1c-0.6-0.6-1.1-1-1.9-1.5
	l-0.8,0.7c-2.5,2.2-4.1,4.5-4.4,5.9c-0.5,2.8,2.3,4.7,3.9,2.7c0.5-0.6,0.9-0.4,0.9,0.3c0,1.5-1.9,2.4-3.5,1.6
	c-0.4-0.2-0.7-0.3-0.7-0.3c-0.1,0.1,1.6,4.1,2.1,5c0.7,1.5,1.1,3,1.2,4.6c0.1,1.7,0,1.9-0.8,4.8c-0.7,2.7-0.4,4.4,0.9,4.4
	c0.7,0,0.7,0.7,0,1c-1.6,0.6-2.6-0.6-2.6-3.1c0-1.5-0.1-1.6-0.8-1.2c-2.7,1.3-5.7-1-4.4-3.4c0.3-0.5,0.6-0.3,0.8,0.4
	c0.3,1.4,1,2,2.3,1.9c2.9,0,4.2-4.2,2.5-8.4c-0.3-0.8-0.5-0.8-1,0.3c-0.7,1.7-1.9,2.2-2.9,1.2c-0.3-0.3-0.5-0.9-0.3-0.9
	c0.1,0,0.4,0,0.7,0c1.7-0.1,2.3-1.7,1.5-4.2c-0.7-2.2-0.8-2.6-1-3.8c-0.3-1.9-0.1-3.3,0.8-5.1c0.2-0.3,1.2-1.4,2.4-2.7
	c1.3-1.3,2.4-2.3,2.4-2.3c-1.2-1-2.3-1.8-3.7-2.9c0,0-8.8,24.2-8.2,33.6c-1.1,12.4-10.2,9-10.9,0.4L71.7,71.5z M71.3,75.1
	c3-0.1,5,3.9,6.1,12.2c0.4,2.7,2,6.6,3.2,7.5c3,2.3,7.8,0.5,7.8-2.9c0-4.2-5.9-4.9-6-0.6c0,1-0.5,1.1-1,0.1c-0.4-0.8,0-2.4,0.8-3.2
	c0.5-0.5,0.5-0.6-0.5-1.2c-3.6-2-5.2-5-3.2-6.3c0.8-0.6,2,0.1,1.5,0.9c-0.8,1.2-0.8,1.4-0.1,2.3c0.8,1.1,1.7,1.7,3.9,2.3
	c1.9,0.6,2.2,0.7,3,1c2.5,1.1,3.7,3.7,2.8,6.1c-0.2,0.6-0.4,1.2-0.4,1.3c-0.1,0.3,0.1,0.3,1.8,0c2.8-0.4,5.9,0.6,7.5,2.4
	c0.8,1,1.5,3.1,1.5,4.9c0,0.3,0.1,1.1,0.2,1.7c0.1,0.6,0.3,1.6,0.4,2.3c0.7,6.1,5.8,9.3,8,5c1.4-2.7-1.8-5.5-3.5-2.9
	c-0.6,0.9-1.2,0.5-0.8-0.6c0.6-2,3.2-2.4,4.9-0.7c0.9,0.9,1.4,3,0.9,4.4c-0.2,0.7-0.2,0.7,0.3,0.6c1.2-0.4,3.2,0,3.9,0.8
	c1.7,1.8,1.4,4-0.7,4.7c-1,0.3-2,0-2.4-1.1c-0.2-0.8,0.4-1,0.8-0.3c0.8,1.3,2.5,0.2,2.1-1.3c-0.5-1.7-1.9-2.1-4.6-1.2
	c-4.3,1.5-5.7,1.4-7.8-0.7c-1.5-1.5-2-2.7-2.4-5.5c-0.4-3.1-0.5-3.2-1.2-2.5c-3.7,3.1-8.5-1.6-5.4-4.7c1-1,1.7-0.1,0.8,0.9
	c-1.3,1.6,0.4,3.7,2.4,3.2c3.7-0.9,3-6.4-1.1-7.7c-1.2-0.4-4.6-0.2-7.2,0.3c-7.3,1.6-10.5-1.5-12-11.6c-0.2-1.2-0.4-2-1.1-4.6
	c-0.8-3-3.6-4.6-5.1-3c-1.2,1.3-0.6,3.1,1.1,3.1s1.2,1.2-0.6,1.3c-3,0.3-3.6-4.8-0.7-6.3C70,75.3,70.7,75.1,71.3,75.1L71.3,75.1z
	 M31.5,77l1,3.7l3.8,1.1l-1.2-3.4L31.5,77z M41.2,78.1l-1,3.3l2.8-1l1-3.1L41.2,78.1z M72.1,83.4c0.6,0,1.1,0.5,1.1,1.1
	c0,0.6-0.5,1.1-1.1,1.1c-0.6,0-1.1-0.5-1.1-1.1C71.1,83.9,71.5,83.4,72.1,83.4z M36.2,85.3l-3.3,1.1L32.3,89l3-0.7L36.2,85.3z
	 M43,86.5l-2.3-0.7l0.6,2.7l2.6,1.1L43,86.5z M148.1,86l-1.6,1.2c4.5,4-0.4,7.8-0.5,7.5c3.3,2.2,2.7,5.6,2.3,8.8
	c-0.8,5.6-1.1,10.9-1.9,16.7c0,0,4,2.7,6.6,3.8V90.2L148.1,86z M92.1,91.1c0.6,0,1.1,0.5,1.1,1.1c0,0.6-0.5,1.1-1.1,1.1
	c-0.6,0-1.1-0.5-1.1-1.1C91,91.6,91.5,91.1,92.1,91.1z M25.7,93.9l0.1,31.5l6.5-11.7l-4.5-5.2l3.9-4.1C29.5,101,27.6,97.4,25.7,93.9
	z M89,98.7c0.6,0,1.1,0.5,1.1,1.1s-0.5,1.1-1.1,1.1c-0.6,0-1.1-0.5-1.1-1.1S88.4,98.7,89,98.7z M103.8,101.9c0.6,0,1.1,0.5,1.1,1.1
	c0,0.6-0.5,1.1-1.1,1.1s-1.1-0.5-1.1-1.1C102.7,102.4,103.2,101.9,103.8,101.9z M146.1,137l4.8,4.9l-3.8,4.7l5.9,10l-0.1-30.9
	L146.1,137z M25.6,126.6l0.2,33.9l5.1,3.7l1.3-1.2c-3.3-3.5-1.3-6.2,1.2-7.7c-4.4-1-3.1-6.9-2.8-9.6c-0.1-5,1.7-10.7,1.2-15.6
	L25.6,126.6z M55.1,131.4l-7.3,10.2c0,0-8-6.1-12.1-8.9c0.4,4.4,0.8,10,1.4,14.8c1.3,6.9-2.1,7.1-2.1,7.7c5.4,4.1,0.9,8,0.1,7.8
	c2.9,1.6,2.7,6.4,2.7,6.4l1.4,0.8c0,0,0.4-0.3,0.6-0.4c1.5-0.8,3.9-3.6,4.4-5.5c0.9-3.2-1.8-5.8-3.5-3.4c-0.8,1.2-1.5,0.4-0.8-1
	c0.6-1.2,2.3-1.9,3.4-1.3c0.6,0.3,0.5-0.5-0.5-3c-0.3-0.8-0.6-1.7-1.1-3.6c-0.5-1.8-0.3-3.9,0.5-6.1c1.1-3.2,0.7-5.1-1.1-5.3
	c-1-0.1-1.1-0.4-0.3-0.8c1.8-1,3.5,0.4,3.4,2.8c0,1.3,0,1.3,0.7,1c3.5-1.4,6.2,2.2,3.8,5c-0.7,0.8-1.2,0.3-0.7-0.8
	c0.8-1.8,0-3-1.7-3c-2.6,0-4,3.5-3,7.4c0.3,1.2,0.4,1.2,1.2,0.4c0.8-0.7,1.3-0.9,1.9-0.8c1.2,0.4,1.5,1.7,0.4,1.5
	c-2-0.3-2.5,1.8-1.4,5.5c1.5,4.9,0,8.9-4.4,11.8c-0.2,0.1-0.6,0.4-0.6,0.4c1.7,1.5,2.8,2.4,5,3.8l8-32.6c0,0-0.1-1.8-0.3-2.7
	c0-8.7,8.1-9.6,10.7-1.6c0.2,0.8,1.5,2.7,1.5,2.7l42.3,37.7c0,0,7.9-7.7,7.8-7.9c-6-6.1-14.1-10.4-14.4-20c-1.4,0-6.2,0-6.2,0
	l-20.6-18.9C67.5,131.6,61.8,131.2,55.1,131.4L55.1,131.4z M66.6,132.1c1.1,0,2.3,0.6,2.3,1.5c0,0.8-0.5,1-1,0.3
	c-0.6-0.9-1.4-1-2.1-0.2c-2.1,2.2,1.1,4.2,4.8,3c2.3-0.7,3.4-0.9,4.2-0.7c3.5,0.7,5.2,3.1,5.5,7.7c0.2,2.3,0.1,2.3,1.2,1.4
	c2.5-2.3,6-1,6.5,2.3c0.2,1.4-1.3,3.2-2.7,3.2c-0.6,0-0.5-0.6,0.1-0.9c1.5-0.7,1.5-3,0.1-4c-1.9-1.2-4.4,0.7-4.4,3.3
	c0,3.2,2.4,4.6,7,4.3c0.7,0,2.4-0.1,3.8-0.2c2.2-0.1,4.6-0.5,6.9,1.2c2.4,1.9,3.9,5.6,4.6,11.1c1.1,6.7,1.9,8.5,4.1,8.6
	c1.3,0.1,2.4-1,2.4-2.4c0-0.9-1.2-1.7-2.2-1.4c-1.1,0.4-1.3-0.8-0.2-1.3c1.5-0.6,3.4,0.6,3.8,2.5c0.2,1.1-1,3.3-2.3,3.8
	c-3.5,1.4-5.9-1.5-6.7-7.9c-0.5-2.9-0.8-4.9-1.7-7.4c-1.7-4.6-4.4-6.5-7.4-5.2c-3.4,1.6-2.7,6.7,0.9,6.6c2,0.2,2.4-1.3,2.4-2.9
	c0-1.2,1.3-0.1,1.5,0.7c0.1,1-0.8,2.2-1.5,2.7c-1.2,0.8-0.8,0.8,0.5,1.1c3.4,0.6,5.9,5.1,3.9,6.6c-1,0.6-2.2-0.3-1.4-1.2
	c1.2-1.5-0.8-3.8-4.4-4.6c-4.7-1-6.5-4.5-4.8-8.1c0.6-1.2,0.6-1.2-1.7-1c-5,0.3-6.8-0.4-8.5-3.3c-0.5-0.9-0.7-2-0.8-4.4
	c-0.2-4.2-0.6-6.8-1.1-7.5c-2.6-3.6-8-2.5-7.3,1.5c0.4,2.1,2.5,2.8,4,1.2c1.1-1.2,1.6-0.1,0.5,1.1c-2.6,2.9-7.2-0.5-5.8-4.3
	c0.3-0.9,0.4-0.9-1.3-0.9c-3.7-0.1-5.5-3.3-3.1-5.6C65.4,132.3,66,132.1,66.6,132.1L66.6,132.1z M75.6,145.8c0.6,0,1.1,0.5,1.1,1.1
	c0,0.6-0.5,1.1-1.1,1.1c-0.6,0-1.1-0.5-1.1-1.1C74.5,146.3,75,145.8,75.6,145.8z M90.6,149.6c0.6,0,1.1,0.5,1.1,1.1
	c0,0.6-0.5,1.1-1.1,1.1c-0.6,0-1.1-0.5-1.1-1.1C89.5,150.1,90,149.6,90.6,149.6z M87.3,156.7c0.6,0,1.1,0.5,1.1,1.1
	s-0.5,1.1-1.1,1.1s-1.1-0.5-1.1-1.1C86.3,157.2,86.7,156.7,87.3,156.7z M135,160.9l0.7,3.2l2.5,0.7l-0.4-2.7L135,160.9z M143.6,162
	l-0.1,1.9l2.2,0.3l0.8-3.3L143.6,162z M106.6,164.9c0.6,0,1.1,0.5,1.1,1.1c0,0.6-0.5,1.1-1.1,1.1c-0.6,0-1.1-0.5-1.1-1.1
	C105.5,165.4,106,164.9,106.6,164.9z M138.3,169.3l-2.6,0.7l-1.2,3.6l3.3-1.2L138.3,169.3z M143.3,169.7l0.3,2.7l3.2,1.4l-1.1-3.8
	L143.3,169.7z M96.2,192.5l-19.8,36l5.4-0.1l18.7-33.9L96.2,192.5z M33.8,201.2l-1.8,2.4l1.7,2.7l1.9-2.8L33.8,201.2z"/>
<path d="
	M67.5,20.3c3.7,11.1,4,22.1,0.8,32.6c1.8,0.1,9.7,2.1,14,4.8c-0.8,2.1-13.1,17.2-21.5,24.1c2.4,2.4,5,4.7,7.7,7.3
	c4.2,4,5.6,6.7,5.9,11.8c0,2.5-0.9,5.5-2.5,7.7c-1.2,1.6-2.5,2.9-5,4.6c-2.3,1.6-5.7,4.9-10,9.8c-1.6,1.9-4.4,5.3-6.7,8.6
	c-0.9,1.2-3.4,4.9-3.4,4.9c-8.5-7-17.6-12.3-17.8-12.3c0,0,9.2-4.9,11.1-5.9c1.5,1,3.5,0.1,2.5-2c-1.9-4.8-0.6-9.7,1.7-13.1
	c0.5-0.8,1.9-1.3,4-1.5c0.9-0.1,1.9,0,2.9,0c0.4,0,1.3,0.1,1.8,0.4c1.7,1,2.1-0.3,3.2-4.4c1.1-4.1-0.7-9.3-3.1-9.3
	c-0.6,0-0.9,0.2-0.8,1.7c0.1,1.1-0.2,1.7-0.5,2.4c-0.6,1.5-0.9,3-1.1,5c0.4,0.1-2.3-2.7-6.5-3.7c-2.7-0.3-4.1-3.7-4-3.7
	c0,0,0.4-0.9,0.8-1.3c0.9,0.4,1.8,1,2.9,1.3c0,0-0.3-1.4-0.4-1.7c-0.5-1.9-0.5-2.2,0.3-2.6c1.8-1,2-2.7,0.6-4.3
	c-0.4-0.4-0.7-0.7-1.1-0.9l0.9-3.6c0,0-0.8,0.2-1.5,0.4c-1.9,0.6-1.8,0.6-2.6-0.3c-1.8-2-4.4-1.6-4.8,0.7c0,0.3-0.2,0.7-0.2,0.7
	l-4-2c0.1,0.9,1.2,4.2,1.2,4.2c-3.5,2.8-0.5,5.2,0.4,5.4c0,0-0.8,2.6-1.1,3.7l4-1.1c0.3,0.8,0.7,1.3,1.6,1.9
	c0.2,2.2,1.9,4.1,3.1,5.1c0,0,0.2,0.8,0.1,1.3c-0.3,1.3,1.1,3.4,1.3,3.5c-5.5-2.2-11.2-4.9-16.7-7.6l0.3,67.8c0,0,1.3,1.2,3.8,3
	c1.2,0.9,1.2,0.9,1,1.9c-0.3,1.3-0.3,2.3,0.9,11.1c0.6,4.6,1.3,9.4,1.8,13.8c0.2,1.6,0.3,2.6,0.3,2.6c-1.2-0.6-3-0.6-3.9,0.4
	c-1.6,1.8-0.3,4.7,2,4.6c0.5,0,0.9-0.2,1.3-0.5c0.3-0.2,0.6,0,0.6,0l-3.5,6.1l4,6.8l4-7.2l-2.9-5.7c0,0,0.3,0,0.7,0.2
	c0.4,0.2,0.9,0.3,1.3,0.4c2,0,2.4-0.9,2.7-2.6c0-2.2-1.7-3.1-4.1-2.3c-0.4,0.1-0.8,0.2-0.8,0.2l2.5-23.6l1.3,1l0.4-0.2l-1.2-1
	c0.3-3.8-1-5.1-2.3-6c4.5-2.6,2.5-6.6-0.4-7.9c0,0,1.9-1.1,2.3-2.3c0.3-1.1,0.2-2.8-0.2-5.8c-0.3-4.6-1.3-14.2-1.3-14.2
	c3.9,3,8,6.2,11.8,9.2l7.6-10.6l18.3,0.1c0,0,13.9,12.7,21,19.2l6.1,0.1c0,0,0.1,0.6,0.1,1.1c0.6,6.3,4.8,10.6,8.6,13.6
	c1.6,1.4,5.4,5.1,5.4,5.1l-7.1,7.2l-43.6-39.1c0,0-0.2-0.6-0.3-0.9c-1-4.1-3.7-5.9-6.2-5.6c-2.6,0.3-4.8,2.9-4.7,7.3
	c0,0.7,0.3,1.9,0.3,1.9l-8,33.3c0,0-3.2-2.4-4.9-3.6l-0.4,0.2l4.7,3.5l0.3-0.2l1.3,1L46,177c4.1,2.8,11,8,11,8
	c3.3-2.4,6.7-1.6,10.1-0.7c0,0,2.5,0.8,3.8,0.8c6.8,0.2,12.7,1.5,19,3.7L67,229.5l43.6,0.1c-2.2-8.5-4.4-17.2-0.4-31.7
	c-4.3-0.9-13.9-4.7-13.9-4.7s0-0.2,0.4-0.7c1.8-2.5,6.2-9.4,10.4-13.4c0.5-0.4,7.8-7.5,7.9-7.7c0-0.1,0.2-0.6,0.5-0.8
	c0.7-0.5,2.5-2.1,2.5-2.1l-9.1-8c0,0-0.4,0-0.5-0.1c-1.3-0.7-3.6-4.7-4.1-7.4c-1.3-6.2,1.1-11,7.9-16c6.6-4.6,19.2-22.3,19.3-22.7
	c6.8,5.6,12.1,8.6,18.1,12.3c-3.6,2.1-6.6,3.5-9.1,4.8c-1.6,0.9-1.9,1.1-3.2,0.7c-1.6,0-2.1,0.6-1.7,2c2.4,3.8,1.4,12.5-1.9,14.2
	c-2.8,1.5-5.5,1.1-7.7,0.2c-1.7-0.6-1.7-0.6-2.5,1c-1.7,3.6-1.8,6.7-0.2,10.1c1.3,2.8,3.2,4.1,3.4,0.3c0.1-2.2,1.1-4.8,1.1-7.2
	c1.9,2.2,3.2,3.1,6.4,4c2.1,0.3,4.4,3,4.3,4.1c-0.6,0.6-0.8,1.4-0.9,1.3c-1-0.3-3.3-1.3-3.3-1.3l1,3.4c0,0-0.2,0.2-0.6,0.4
	c-2.1,1.1-2,4,0.2,5.2c0.5,0.2,0.5,0.4,0.3,1c-0.3,1.4-0.9,2.3-1.2,3.7c0,0,0.3,0,2.9-1.2l1-0.5l0.6,0.6c1.3,1.4,2.9,1.4,4.3,0
	l0.6-0.7l1.8,0.9c1.7,0.8,2.1,1,2.1,1s-1-3.7-1.1-4.2c-0.1-0.2-0.3-0.5-0.4-0.5c-0.2-0.1-0.2-0.1,0.4-0.6c1.6-1.3,1.8-3,0.4-4.4
	c-0.5-0.5-0.6-0.6-0.6-0.6l0.8-3.5l-3.4,1.1c-0.5-1.2-1.4-1.7-2-1.9c-0.1-1.6-0.3-3.2-2.9-5.6c0.9-0.8-0.2-2.8-1.1-4
	c1.5,0.5,5.3,2.1,5.3,2.1h0.6l1.8,0.9l0.2,0.3c0,0,5.7,2.7,8.3,3.9c0-0.1,0-2.9,0-33.8c0-18.4,0-33.6,0-33.7c0-0.1-0.7-0.6-1.3-1.1
	c-1.2-0.9-1.4-1.1-3-2.1c-1.2-0.8-1.1-0.8-0.9-1.7c0.3-1.1,0.3-2.6-0.1-5.3c-0.3-2-1.3-9.2-2-15c-0.5-4.1-0.6-5-0.7-5.6
	c-0.2-1.6,0-2.4,0-2.4c5.7,2.5,6.1-5.7,0.4-4.6c1.1-2.2,2-3.2,2.9-5.6c-1.2-2.6-3.8-6.9-3.8-6.9l-4.2,7.3l2.5,5
	c-2.8-0.5-4.3,1.5-3.8,3.4c0.6,1.6,2.1,2.1,3.5,1.4c1.1-0.4,1.1-0.5,0.1,7.5c-0.3,2.4-1.5,13.4-1.7,15c-0.1,1.1-0.2,1.4-0.6,1.2
	c-0.6-0.3-1-0.6-1.6-1l-0.3,0.3c0.5,0.4,1.2,1,1.8,1.6c-0.2,2.9-0.1,4.6,2.3,6c-4.4,2.8-1.8,7,0.8,7.6c-1.5,0.4-3.1,2.4-2.7,6.3
	l1.2,16.3l-11.9-8.9l-7,10h-18.4L84.3,100c0,0-4.6-0.1-6.4-0.1c0.2-0.1-0.4-5.8-3.4-9.6C71.2,86.4,63.8,80,63.8,80l7.8-8l43.9,39.6
	c0,0,0.2,1.1,0.3,1.6c1.5,6.3,8.6,6.6,10.1,0.3c0.2-1,0.5-3.4,0.4-3.7c0-0.1,0.2-1.1,0.5-2.3c2.4-9.3,4.4-17.3,6.7-26.2
	c0.3-1.2,0.7-2.6,0.8-3c0.4-1.8,0.3-1.8,2.2-0.4c1.2,0.9,1.6,1.2,1.6,1.2l0.4-0.4c-1.3-1-3.5-2.6-3.5-2.6v-0.7
	c-7.1-5.1-8.6-6.5-12.8-9.8c-3.3,2.9-7.9,1.7-10.9,0.7c-0.8-0.3-2.6-0.8-2.6-0.8c-7.3,0-13.7-1.4-19.8-3.4l23.4-41.7h-9l-0.3,0.4
	h-4.7v-0.4L67.5,20.3z M94.2,21.2l3.2,0.1L78.5,55.1l-2-0.8c0,0,0.2-0.1,0.2-1.5c0-1.5-0.3-2.2-1-3.1c-0.6-0.8-0.8-0.8,0.9-0.6
	c3.4,0.5,5.9-3.3,4.5-6.2c-0.5-1.1-0.5-1.2,0.9-1.3c3.8-0.4,5.3-5.3,2.6-7.7c-0.6-0.5-0.3-0.8,0.7-0.6c3.3,0.7,5.9-3,4.6-5.9
	c-0.4-0.8,0-0.9,0.6-1C93.3,25.7,94.2,23.4,94.2,21.2L94.2,21.2z M68.7,21.2h14.8c-2,3.1,1.5,4.9,2,4.6c-3.2,1.7-2.3,4.2-0.7,5.1
	c1.6,0.8,4,0.1,3.4-3.5l0.8-0.3c0.8,0.9,1.5,6.3-4.3,5.5c-1-0.1-1.6,0.8-0.7,1.4c4.6,5.3-2.6,7.7-2.9,6.8v-0.9
	c2,0.4,4.5-2.2,2.3-4.4c-1.3-1.3-4.9-0.7-4.3,3.2c-2.1-3.2-4.5-2.2-5.1-0.5c-0.5,1.3,0.1,3.1,2.3,3.4c-2.4,2-1.2,4.3,0.4,4.7
	c1.8,0.5,3.7-0.2,3.2-3.5c0-0.3,0.7-0.2,0.7-0.2c1.9,4.7-2.6,6.4-5,5.5c-0.9-0.3-1.4,1-0.4,1.7c1.4,1.1,1,4.2,0.8,4.2
	c-2.7-1-6.5-1.8-6.4-1.7C71.9,42.1,71.8,31.7,68.7,21.2L68.7,21.2z M92.3,21.2h1.3c0,1.9-0.8,4.3-4.1,4.6c0-0.5,0-1-0.2-1.5
	C90.6,24,92.2,24.4,92.3,21.2L92.3,21.2z M98.1,21.3h4.3L82.3,57l-3.2-1.7L98.1,21.3z M87.6,24c0.8,0,1.4,0.6,1.4,1.4
	c0,0.8-0.6,1.4-1.4,1.4s-1.4-0.6-1.4-1.4C86.2,24.6,86.8,24,87.6,24z M79,39.6c0.7,0,1.3,0.6,1.3,1.3c0,0.7-0.6,1.3-1.3,1.3
	s-1.3-0.6-1.3-1.3C77.7,40.2,78.3,39.6,79,39.6z M145.1,40.6l3.4,5.9l-3.9,6.9l-3.2-6.6L145.1,40.6z M145.1,42.6l-2.4,4l2.2,4.1
	l2.5-3.9L145.1,42.6z M145.1,44.3l1.2,2.4l-1.5,2.4l-1.2-2.6L145.1,44.3z M141.8,52.4c0.3,0,0.5,0.1,0.8,0.2c2.3,1,1.6,4.5-0.9,4.2
	c-0.3,0-0.7-0.2-1.1-0.4C139,55,140,52.4,141.8,52.4z M147.4,52.5c2,0,3.2,2.8,1.1,4.1c-1,0.6-2.5,0.2-3.1-0.8
	c-0.5-0.9-0.3-2.3,0.9-3.1C146.6,52.5,147,52.4,147.4,52.5z M144.6,56.4c0.2,0,0.4,1,0.6,2.7c0.1,0.6,0.3,2.1,0.4,3.4
	c0.3,2.7,0.6,5.2,0.9,7.8c0.1,0.5,0.2,1.6,0.3,2.4c1.2,8.4,1.4,11.1,1.1,11.9c-0.7,2.5-4.2,2.7-5.6,1.2c-1.1-1.1-1.2-2.3-0.8-5.5
	c0.2-1.8,0.3-2.7,1.1-9.7c0.2-1.6,0.4-3.8,0.5-4.8c0.3-2.7,0.6-5.3,1-8C144.4,56.9,144.5,56.4,144.6,56.4z M88.5,62.7
	c0,0,11,3.6,19.3,3.5c1.2,0,1.4,0,3,0.5c0.9,0.3,2.3,0.7,3.2,0.9c2.6,0.5,4.8,0.4,6.8-0.5c0.3-0.1,0.8-0.5,1.2-0.4
	c0.3,0.1,0.7,0.7,0.7,0.7c-7.3,1.9-24.4,1.6-35.1-2.9L88.5,62.7z M144.9,63.9c0,0-0.1,0.1-0.1,0.2c-0.2,0.3,0,2.1,0.6,8.1
	c1.3,11.3,1.3,11.5-0.3,12.7c-0.8,0.6-0.9,0.8-0.5,1c0.3,0.2,0.2,0.2,0.8,0c1.3-0.4,1.8-1.4,1.8-3.5c0-1.6,0-1.8-0.5-5.7
	c-0.2-1.4-0.4-3.3-0.5-4.3C145.3,65.3,145.1,63.8,144.9,63.9L144.9,63.9z M87.4,65c10.9,3.9,22.3,5,36.1,2.9c0,0,1.3,0.9,2,1.3
	l-0.5,0.1l0.2,1.9l2.3-0.4c0,0,1.3,1,2.2,1.6c-12.3,3.8-32.1,3.1-44.3-2.3c-0.5-0.3-0.7-0.5-0.7-0.5c0.3-0.6,0.6-1,0.9-1.4l2.2,0.6
	l0.6-2l-1.7-0.6L87.4,65z M90.3,67.5l-0.7,2l3.1,0.9l0.5-2.1L90.3,67.5z M95,68.7L94.6,71l3.1,0.6l0.4-2.2L95,68.7z M100.2,69.8
	L100,72l3.3,0.4l0.2-2.2L100.2,69.8z M123.1,69.8l-2.8,0.3l0.2,1.9l2.9-0.3L123.1,69.8z M118.1,70.4l-2.8,0.2l0.1,2l2.8-0.2
	L118.1,70.4z M105.4,70.4v2.2l2.9,0.1v-2.2L105.4,70.4z M113.3,70.7h-2.6v2.1h2.7L113.3,70.7z M82.6,71.1c0.3,0,0.9,0.6,1.2,1.3
	c0.5,1.4,0.3,3-0.5,3.5c-1.1,0.7-2.5-0.4-1.7-1.4c0.1-0.2,0.4-0.4,0.5-0.4c0.6-0.2,0.7-1.1,0.4-2.7C82.4,71.2,82.5,71.1,82.6,71.1z
	 M86.9,71.6c11.8,3.9,25.2,5.2,39.1,2.3c0,0-6.6,26.8-6.7,26.8L86.9,71.6z M81.1,71.7c0.6,0,0.7,1.1,0.2,1.6
	c-0.7,0.7-2.1,0.1-1.8-0.8C79.5,72.3,80.6,71.7,81.1,71.7z M84.5,72.3c0.1,0,0.4,0.2,0.8,0.8c1.3,1.8,1.4,3.8,0.2,4.7
	c-1.4,1.1-2.4-0.6-1.3-2c0.3-0.4,0.3-1.1,0.2-2.6C84.3,72.6,84.3,72.3,84.5,72.3z M130.3,73c0.2,0,0.4,0.1,1,0.4
	c0.8,0.4,1.1,1,0.7,1.5c-0.6,0.7-2.2-0.7-1.9-1.7C130.1,73.1,130.2,73,130.3,73L130.3,73z M129,73.9c0.2,0,0.6,0.4,0.9,1.2
	c0.3,0.5,0.4,0.7,0.8,0.8c1,0.4,1.2,1.4,0.3,1.7c-1,0.3-1.7-0.4-2.1-2.1C128.7,74.5,128.8,73.9,129,73.9z M86.7,74.7
	c0.1,0,0.4,0.3,0.9,1c1.3,2,0.9,5.7-0.8,6.6c-0.7,0.4-1.2,0.3-1.8-0.3c-0.9-0.9-0.6-1.5,0.6-2c1.1-0.4,1.4-1.6,1.1-3.9
	C86.6,75.1,86.6,74.7,86.7,74.7L86.7,74.7z M93,75.3c8.1,6.7,15.4,13.8,24.8,22.2c2.2-6.9,5.5-21.2,5.5-21.2
	C122.9,76.5,107.5,78.7,93,75.3z M123.3,76.2L123.3,76.2L123.3,76.2z M128.3,75.3c0.1,0,0.5,1,0.7,1.9c0.2,0.8,1,2.2,1.3,2.3
	c1.6,0.3,2.3,1.2,1.5,1.9c-0.6,0.6-1.8,0.2-2.4-0.6C128.3,79.1,127.5,75.3,128.3,75.3L128.3,75.3z M38.2,76.2c1,0,1.9,0.6,2.1,1.9
	c0.3,1.5-0.5,2.5-1.2,2.3c-0.8-0.3-1-1.5-1-1.5s-0.2,1-0.5,1.5c-0.7,1-2.1-0.5-1.8-2C36,77,37.1,76.2,38.2,76.2z M95.7,76.6
	c8.8,1.3,16.4,1.7,26.9,0.5l-4.9,19.3L95.7,76.6z M89,76.6c0.1,0,0.4,0.2,0.8,0.7c1.4,1.4,1.8,3.5,0.9,4.5c-0.5,0.6-0.9,0.7-1.5,0.3
	c-0.7-0.5-0.8-1.3-0.1-1.6c0.6-0.3,0.7-1,0.2-2.4C88.9,77.1,88.8,76.6,89,76.6L89,76.6z M31.7,77.1l3.2,1.3l1.2,2.7l-3.2-0.8
	L31.7,77.1z M43.8,77.5l-1,2.7l-2.5,0.9l1-2.9L43.8,77.5z M127.6,78.1c0.1,0,0.3,0.3,0.5,1c0.5,1.8,0.8,2.2,1.2,2.4
	c0.8,0.4,0.8,1.3,0.1,1.7c-0.5,0.2-0.6,0.2-1-0.3c-0.5-0.7-0.9-2-1-3.2C127.4,78.6,127.5,78.1,127.6,78.1z M91.8,79.3
	c0.1,0,0.2,0.1,0.4,0.4c1.2,1.5,1.4,3.8,0.3,4.5c-1.1,0.7-2.6-0.7-1.7-1.5c0.1-0.1,0.3-0.2,0.4-0.3c0.3-0.2,0.3-0.3,0.3-1.6
	C91.7,79.7,91.7,79.3,91.8,79.3z M101.3,79.4l15.4,14l3.5-13.9C114.2,80.1,107.8,80,101.3,79.4z M63.5,80.1
	c4.9,5.1,11.2,9.3,12.7,14.4c2.7,7,0.7,15.2-5.6,19.9c-3.5,2.7-6.9,5.4-9.8,8.8c-4.7,5-7.8,10.5-10.9,14.4c-0.5,0.7-1.9,2.8-1.9,2.8
	s-0.7,0.8-3-1.1c-6.1-5.4-12.4-9.3-18.9-13.1l2.7-1.5c5.4,3.1,12.1,7.5,18.2,12.6c0,0,4.8-7,6.3-9.1c2.2-2.9,3.8-4.8,5.9-7
	c5.3-6.6,10.8-8.7,13-12c3.3-4.9,3.5-10.6,0.7-15.5c-2.7-4.7-8-7.9-11.4-11.8L63.5,80.1z M109.7,80.5h6c0,0-0.9,0.7-1.6,1.2
	c-0.4,0.3-0.9,0.2-1.9-0.1C111.4,81.2,109.7,80.5,109.7,80.5L109.7,80.5z M116.6,80.5h1.4c-1,1.3-2.1,2.2-3.5,3.3
	c-0.2,0.1-0.3,0.1-0.7,0c-2.9-1-5.5-2.2-8.3-3.3h2.5c0,0,1.2,0.4,3,1.1c2.1,0.9,2.6,1.1,3.4,0.6C115.1,81.8,115.7,81,116.6,80.5
	L116.6,80.5z M119.4,80.5l-0.5,1.8c-0.8,1-2.5,2.3-4,3.5c-0.3,0.2-0.3,0.2-1.8-0.4c-5.3-2.1-7.9-3.4-7.9-3.4l-1.1-1
	c0,0,1.4,0.4,2.3,0.8c0.6,0.2,1.7,0.7,2.4,0.9c0.7,0.2,2.2,0.9,3.2,1.3c2.3,0.9,2.2,0.9,4.4-1C118.8,80.9,119.4,80.5,119.4,80.5
	L119.4,80.5z M38.4,80.7l2.3,2.7L37.6,86l-2.3-2.8L38.4,80.7z M126.9,80.7c0.5,1,0.9,2.2,1.8,3c0.7,0.6,0.8,1.1,0.4,1.5
	c-1,0.6-1.2-0.4-1.5-1.1C127.1,83,126.4,81.4,126.9,80.7L126.9,80.7z M42.6,81c0.1,0,0.1,0,0.2,0c2.5,0,3.1,3.7,0.7,4.6
	c-0.8,0.3-1.8,0.2-2.3-0.3s-0.6-0.9-0.2-1.2c0.5-0.4,1.8-0.4,1.8-0.4s-1.2-0.4-1.7-0.7C40.1,82.3,40.9,81,42.6,81L42.6,81z M93.8,81
	c0.1,0,0.4,0.3,0.7,0.9c1.3,2.1,1.2,6-0.1,7c-0.7,0.5-1.5,0.4-2.1-0.2c-0.8-0.8-0.5-1.7,0.6-2.2c1.1-0.5,1.3-1.5,0.9-4.2
	C93.6,81.4,93.6,81,93.8,81z M33.4,81c0.7,0,1.5,0.3,1.8,0.9c0.3,0.4,0.1,0.8-0.4,1c-0.6,0.2-1.8,0.5-1.8,0.5s1.1,0.2,1.8,0.5
	c0.8,0.4,0.8,1.1-0.5,1.6c-2.4,1.1-4.6-2-2.7-3.7C32.3,81.3,32.9,81.1,33.4,81L33.4,81z M95.8,82.5C95.8,82.5,95.9,82.5,95.8,82.5
	c0.3,0,0.7,0.3,1.1,0.9c1.4,1.9,1.7,4.7,0.5,5.3c-1.3,0.6-2.2-0.6-1.3-1.7c0.6-0.7,0.6-1.8-0.3-4C95.7,82.7,95.7,82.5,95.8,82.5
	L95.8,82.5z M126.4,82.6c0.1,0,0.3,0.4,0.6,1.4c0.7,2,1.3,2.9,2.1,2.9c0.9,0,1.4,1.3,0.7,1.8c-1.4,1-3.3-1.5-3.5-4.6
	C126.2,83.1,126.2,82.6,126.4,82.6L126.4,82.6z M118.7,83.6l-0.4,1.6c0,0-1,1-1.7,1.6c-1.1,1-1.4,1.2-2.3,0.9
	c-1.4-0.5-2.7-0.9-4.1-1.3l-3.3-2.7l7.5,2.9c0,0,0.6,0.2,0.9,0C116.2,85.6,117.3,84.8,118.7,83.6z M125.8,85.2
	c0.1,0,0.2,0.1,0.3,0.4c0.3,1.5,0.8,2.7,1.2,2.8c0.5,0.2,0.7,0.7,0.5,1.1c-0.6,1.3-2.3-1-2.3-3.3C125.5,85.6,125.6,85.2,125.8,85.2
	L125.8,85.2z M98.7,85.3c0.1,0,0.2,0.1,0.5,0.4c1,1,1.3,3.9,0.5,4.8c-1.2,1.2-2.5-0.6-1.3-1.8c0.3-0.3,0.3-0.4,0.2-1.8
	C98.6,85.7,98.6,85.3,98.7,85.3z M35.9,85.6l-0.8,2.7L32.5,89l0.6-2.2L35.9,85.6z M39,85.8c0.2,0,0.4,0.1,0.7,0.2
	c1.1,0.8,1.1,2.1,0.6,3c-0.5,0.9-1.4,1.2-2.4,1.1c-1.2-0.1-2.1-1-2.1-2.3c0-0.6,0.3-1.4,0.7-1.7c0.3-0.2,0.6-0.1,0.8,0.3
	c0.2,0.4,0.7,1.4,0.7,1.4s0-1,0.2-1.5C38.4,86.1,38.7,85.8,39,85.8z M41,86.1l1.9,0.6l0.7,2.6l-2.1-0.8L41,86.1z M148,86.5
	c0,0,0.5,0.2,3.1,2.3c0.6,0.5,1.7,1.5,1.7,1.5l-0.1,33.4l-6.1-3.8l0.3-2.9c0,0,0.8-8.8,1.5-13.4c0.4-5.2,1.4-6.6-2-8.8
	c3.7-2.3,2.7-6,0.3-7.5L148,86.5z M117.8,86.7l-0.3,1.5c-1.2,2.1-2.3,2-4.2,1l-2.2-1.9c1.4,0.3,2.2,0.8,3.6,1.2
	c0.7,0.2,1,0.1,1.5-0.4S117.1,87.2,117.8,86.7L117.8,86.7z M101.2,87.5c0.8,0.8,1,1.6,0.9,3.7c-0.1,1.4-0.1,2.5-1.3,3.3
	c-0.6,0.4-1.6,0.4-2,0c-1.1-0.7-0.5-2.1,0.9-2.2c0.9,0,1.2-2.9,0.7-4.7c-0.1-0.3-0.1-0.5,0.1-0.5C100.7,87,100.9,87.2,101.2,87.5
	L101.2,87.5z M125,87.4c0.2,0,0.5,0.4,0.7,1.2c0.3,1,0.6,1.6,1.2,1.9c0.7,0.4,1,1.1,0.5,1.5c-0.9,0.8-1.9-0.2-2.2-2.3
	C125.1,89.4,124.7,87.4,125,87.4z M145,87.7c2.1,0,3.3,1.5,3.3,3.3c0,1.3-0.7,2.6-2,3.1c-3.1,0.9-4.7-1.2-4.7-3.1
	C141.6,89.3,142.9,87.7,145,87.7z M103,88.9c1.8,1.8,1.8,5.5,0.1,5.5c-2.1-0.7-0.5-1.9-0.4-2.2c0.2-1.3-0.1-2.1-0.4-3.3
	C102.1,88.1,102.8,88.7,103,88.9z M145.1,88.7c-0.4,0-0.3,0.4,0.3,0.9c1.2,1.1,0.6,3-0.9,3c-0.7,0-0.9,0.5-0.3,0.7
	c2.4,1,4-2.7,1.9-4.2C145.7,88.9,145.4,88.7,145.1,88.7z M53.3,89.2c1.9,0.7,2.6,4.4,2.7,5.7c0.1,2.3-1,6-1.9,6.7
	c-2.4,1.9-3.6-4.9-1.5-9.2c0.2-0.4,0.4-0.8,0.3-1.7C52.8,89.7,53,89.2,53.3,89.2L53.3,89.2z M117.2,89.6c0,0-0.2,1.1-0.5,1.7
	c-0.3,0.7-0.5,0.7-1.2,0.1c-0.4-0.3-1-1-1-1c0.6,0.1,1.1,0.4,1.7,0.2C116.6,90.2,117.1,89.7,117.2,89.6z M124.5,89.6
	c0.1,0,0.3,0.4,0.5,1.2c0.6,2.1,1.2,2.9,2,2.9c1.4,0,1.7,1.7,0.4,2.1c-0.5,0.2-0.6,0.2-1.3,0c-0.9-0.2-2.2-3.4-2-5
	C124.3,90,124.4,89.6,124.5,89.6L124.5,89.6z M39.5,90.8c0.5,0,0.7,0.2,1,0.9c0.3,0.7,1.2,1.6,2,2c1.8,0.9,3.7,1.6,5.5,2.5
	c2.3,1.2,4.4,4.8,3,5.1c-0.5,0.1-1.1,0.1-1.6,0.1c-0.2-0.1-0.5-0.5-0.7-0.9c-1.1-1.7-3-3.4-6.1-4.2c-2.2-0.6-4.1-3.2-4.5-4.5
	c-0.1-0.3-0.1-0.6,0.2-0.7C38.7,90.9,39.2,90.8,39.5,90.8L39.5,90.8z M105,91c0.1,0,0.2,0.1,0.5,0.3c1.3,1.4,1.4,3.9,0.3,4.6
	c-1.2,0.8-2.3-0.5-1.4-1.6c0.4-0.5,0.4-0.5,0.4-1.9C104.8,91.5,104.9,91.1,105,91L105,91z M123.7,92.6c0.2,0,0.4,0.4,0.7,1.3
	c0.4,1.2,0.5,1.3,0.9,1.5c0.8,0.4,0.9,1,0.3,1.6c-1,1.1-2.1-0.6-2.1-3.4C123.5,93,123.6,92.6,123.7,92.6L123.7,92.6z M106.9,92.8
	c0.1,0,0.4,0.2,0.6,0.5c1.6,1.9,1.3,6.2-0.5,6.9c-0.6,0.2-0.8,0.2-1.1,0.1c-1.3-0.6-1.1-2,0.5-2.8C107.5,96.8,106.7,92.9,106.9,92.8
	z M26.5,94.2l6.5,3.2c0,0,1.8,3.8,2.6,5.2c0.6,1,1.7,1.9,0.5,2.6c-2,1.3-3.1,2.1-3,2.9c0,0.7,0.8,1.3,2,2.7c1.6,1.9,1.6,1.5,0.1,4.3
	c-1.1,2-2.1,6.6-2.1,6.6l-6.6,3.4c2-4.7,4.2-8.7,6.8-11.5c-1.9-1.4-3.5-2.9-5.2-4.9c1.2-1.7,2.9-3,4.4-4.5
	C29.5,100.8,27.6,97.4,26.5,94.2L26.5,94.2z M108.6,94.3C108.6,94.3,108.7,94.3,108.6,94.3c0.3,0,0.9,0.7,1.5,1.8
	c0.7,1.4,0.8,3.2,0.1,3.8c-1.1,1.1-2.5-0.3-1.5-1.5c0.7-0.5,0.5-1.8,0-3.2C108.5,94.6,108.5,94.3,108.6,94.3L108.6,94.3z M25.8,94.9
	c1.7,3.6,3.6,6.5,5.5,9.3l-4.2,4.4c1.3,1.5,2.9,3.1,5.1,5c-2.7,3-4.5,7.3-6.3,11.3L25.8,94.9z M123,95c0.1,0,0.4,0.4,0.6,1.3
	c0.3,1.1,0.5,1.4,1.1,1.7c1,0.4,1,1.4,0,1.8c-0.4,0.1-1.1-0.2-1.3-0.7c-0.4-0.7-0.6-1.6-0.6-2.5C122.7,95.5,122.8,95,123,95z
	 M146.4,95.7c1.6,0.4,2.2,2.1,1.9,5c-0.4,4-0.9,8.4-1.3,12.1c-0.5,4.2-0.8,6.9-0.8,6.9l-0.4-0.3c0,0,0.1-2.3,0.3-3.7
	c0.4-3.1,0.6-5.9,0.9-9c0.7-7,0.5-9.2-0.8-9.9c-1-0.5-1.4-0.2-0.7,0.5c1.4,1.1,1.3,1.5-0.1,18.7c-0.2,1.8-0.2,3-0.2,3l-1.9-1.2
	c0,0-0.1-1.5-0.3-3.7c-0.4-4.2-0.7-8.7-0.9-12.7c-0.3-4.3,0.5-5.8,3.2-5.9C145.5,95.5,146,95.5,146.4,95.7L146.4,95.7z M112.1,98.1
	c0.2,0.6,1.1,4.8-1.2,3.6c-0.6-0.4-0.7-0.9-0.2-1.5c0.5-0.6,0.6-1.5,0.4-2.7c-0.2-0.8-0.4-1.4-0.4-1.4
	C111.2,96.3,112.1,98,112.1,98.1L112.1,98.1z M41.7,96.8c2,0.4,4.2,1.6,5.6,3c0.9,0.9,0.8,1.7-0.5,1.8c-1.3,0.2-1.4,0.4-2-0.1
	c-0.3-0.2-0.8-0.8-1.5-0.9C41.3,100.3,40.3,96.6,41.7,96.8z M122.6,97.9c0.2,0.3,0.2,1,0.4,1.5c0.3,1.3,1.2,2.3,2,2.2
	c0.6-0.1,1.3,0.1,1.4,0.8c0.2,0.6-0.1,1.1-0.7,1.3c-0.7,0.3-1.5,0.1-2-0.4C122.4,102.1,121.7,98.3,122.6,97.9L122.6,97.9z M112.9,98
	c0.7,0.3,1.6,2.6,1.7,4.4c0,1.3-0.2,3-1.3,3.6c-0.7,0.4-1.5,0.2-1.8-0.4c-0.4-0.8-0.1-1.6,0.7-1.9c1-0.5,1.3-2.5,0.7-4.5
	C113,98.8,112.5,97.8,112.9,98z M36.4,98.9l5.3,2.7c-0.8,1.1-1.4,2-1.8,3.1C38.2,102.9,37.3,100.9,36.4,98.9z M114.9,99.9
	c0.1,0,0.4,0.3,0.7,0.5c1.3,1.3,1.9,3.6,1.1,4.5c-0.6,0.7-1.8,0.6-1.9-0.1c-0.1-0.4,0.3-1,0.5-1.3c0.2-0.5,0.3-1.8-0.1-2.8
	C115,100.2,114.8,99.9,114.9,99.9z M78.2,100.4l6,0.2l20,18.1h-1.9l-18.4-16.8h-5.7V100.4z M43.7,103.6c-2.3,3.6-2.9,8.2-1.5,12.3
	c1.1,2.9-1.3,3.1-2.2,1.2c-0.7-1.4-1.2-3.9-0.9-6.5c0.3-4.3,2.3-8.6,3.8-9.1C44.5,101,44.2,103.1,43.7,103.6z M125.8,112.4
	c-0.6,2.8-1.7,4.3-3.3,4.9c-6.5,2.4-9.4-10.8-3.3-14C124.9,101.4,126.6,108.6,125.8,112.4L125.8,112.4z M77.8,103.8l5.6,0.1
	c5.1,4.7,10.7,9.1,16.2,14.8h-2.7c0,0-0.8-0.7-1-0.9c-5-4.5-8.7-8.1-13.4-12.2l-5-0.1L77.8,103.8z M120.8,104.6
	c-3,0.1-3.3,4.3-3.2,5.8c0.2,2.3,1.1,5.6,4,5.3c2.1-0.2,3.1-2.7,2.9-5.7C124.3,107.3,123.2,104.6,120.8,104.6L120.8,104.6z
	 M77.3,106l4.9,0.1c4.4,3.8,9,8,13.5,12.5h-2.2c0,0-0.6-0.5-0.7-0.7c-3.7-3.4-7.5-7.1-11.1-10.1l-5.1-0.2L77.3,106z M120.9,106.2
	c0.9,0.3,1,2.4,0.3,3.3c-0.5,0.6-1.7-0.5-1.8-2C119.3,106.6,120.1,105.9,120.9,106.2z M39.1,106.4c-0.4,1.4-0.7,2.9-0.8,4.6
	l-2.1-2.6L39.1,106.4z M122.5,109c0.5,0,0.9,0.4,0.9,0.9s-0.4,0.9-0.9,0.9s-0.9-0.4-0.9-0.9S122,109,122.5,109z M80.9,109.4l9.9,9.3
	H88l-8.1-7.4l-5.1-0.2l1-1.8L80.9,109.4z M119.3,109.6c0.5,0,0.9,0.4,0.9,0.9s-0.4,0.9-0.9,0.9s-0.9-0.4-0.9-0.9
	C118.3,110,118.8,109.6,119.3,109.6z M131,109.6c5.6,4.3,13.4,10.1,21.6,14.7c0,0-1.3,1.1-2.6,1.4c-6.3-3.5-13.9-8.5-18.6-12.5
	c-4.4,6.5-12.9,18.4-20.4,23.8c-4.8,3.4-7.2,7.6-7.1,12.5c0,5.1,1.8,8.4,6.8,12.6c3.2,2.7,6.7,6.1,6.7,6.1l-1.8,1.6
	c-0.3,0-5.4-4.4-10.5-9.6c-2.8-2.8-4.1-9.1-3.6-12.5c0.7-4.6,2.2-7.9,6.5-11.4c1.7-1.3,3.3-2.3,4.8-3.8
	C126.2,118.2,131,109.6,131,109.6L131,109.6z M122,112c0.5,1.1,0.8,2.4-0.8,2.5c-0.9,0.1-1.5-1.5-0.7-2.9
	C121.1,110.5,121.7,111.4,122,112L122,112z M74.5,111.7l5.3,0.2c0,0,5.2,4.6,7.9,7.1h17.8c9.8,0,17.9,0,17.9,0.1
	c0.1,0.1-1.3,2-1.3,2H63.3c0,0,3.6-3.2,4.9-4.1C70.6,115.4,72.7,113.9,74.5,111.7z M38.4,113.9c0.4,1.4,0.7,2.9,1.4,4.2l-4.1,2.2
	C36.5,118.1,37.3,116,38.4,113.9L38.4,113.9z M151.8,125.8c-0.8,2.2-2.9,6.7-5.5,10.2c-0.5,0.7-0.9,1.2-0.9,1.2l5,4.8l-4.3,4.6
	c2.4,2.5,4.5,6.4,5.6,9.5c-2-0.8-3.1-1.3-5.5-2.6c-0.7-1.7-1.4-3.6-2.2-5.1c-1.8-3.6-1.7-3.2-0.3-4.3c2.1-1.6,2.7-1.9,2.2-2.7
	c-0.4-0.5-2.9-3.5-3-3.6c-0.2-0.1-0.1-0.6,0.3-1.3c1.4-2.6,2.6-5.5,3.4-8L151.8,125.8z M152.7,125.9l0.1,30.3
	c-1.8-3.6-3.7-7.3-5.7-9.6c-0.1-0.2,4.5-4.7,4.5-4.7c-1.7-1.6-2.7-2.5-5-4.7C148.9,133.9,150.8,129.6,152.7,125.9z M25.9,127
	l5.7,3.3c-0.3,4.3-0.7,9.9-1.3,15.6c-0.5,4.4-0.7,6.5,0.1,7.7c0.7,0.9,2.5,1.9,2.5,1.9c-3,1.2-4.2,4.8-0.8,7.5c0,0-0.8,0.6-1.2,1
	l-4.7-3.5L25.9,127z M115.7,128.5c-1.4,1.6-3.7,4-5.4,5.1c-2.3,1.5-5.5,4.4-5.4,4.5c0,0-3.4,0-5.7-0.1l-7.9-7.1c0,0,0.3-0.1-10.5,0
	c-13.9,0.1-25.1,0-25.1,0l1.6-2.2L115.7,128.5z M143.8,129.9c-0.8,2.5-2,4.8-3.5,7c-0.4-1.5-0.5-3.2-1.3-4.5L143.8,129.9z
	 M32.4,130.7l0.7,0.5c0,0-0.4,5.2-0.5,6.8c-0.2,2.8-0.4,5.4-0.6,8.2c-0.5,5.7-0.4,6.6,0.7,7.4c0.9,0.6,1.4,0.4,0.7-0.5
	c-0.5-0.6-0.5-0.6-0.7-1.6c-0.1-0.7-0.1-1.7,0.1-4.3c0.9-15.1,1-15.6,1-15.6l1.7,1.1c-0.1,0.2,1.6,15.2,1.4,18.9
	c-0.2,4.4-6,3.4-6.3,0.2c-0.1-0.7,1-13,1-13L32.4,130.7z M80,131.6l2.3,0.1l14.1,13l4.8,0.1l-0.4,1.6h-4.7L80,131.6z M88.8,131.6H91
	l8.1,7.4l5,0.1l-1,1.4l-5-0.1L88.8,131.6z M86.1,131.6l12,10.8l4.1,0.2l-0.6,1.5l-4.8-0.1l-13.5-12.4H86.1z M74.5,131.6H77
	l18.7,16.9l4.9,0.1l-0.1,1.5h-5.9L74.5,131.6z M137.5,132.1c1,0.2,1.5,1.2,2.2,4.8c0.8,4.2-0.9,10.9-3.2,12.2
	c-1.1,0.9-2.4-0.1-1.6-1.2c2.6-3.8,3-10.1,1.4-13.6C135.9,133.1,136.4,131.9,137.5,132.1z M58.1,132.7c6,0.1,7.5,12.4,1.6,14.1
	c-3.8,0.6-5.8-2.9-6.3-6C52.7,136.9,54.4,132.7,58.1,132.7z M54.8,140.1c0.4,2.5,1.9,5.3,4.1,5.1c2.9-0.3,3.3-4.2,3-6.2
	c-0.3-2.4-1.7-4.5-3.7-4.6C55.1,134.2,54.5,138.2,54.8,140.1z M58,135.3c0.8,0,1.4,1.1,1.2,2.5c-0.1,0.9-0.5,2-1.5,1.3
	c-0.5-0.4-0.9-1.7-0.8-2.6C57,135.8,57.3,135.4,58,135.3z M140.5,138.2l2.8,3.3l-3.2,2.2C140.5,142,140.7,140.1,140.5,138.2z
	 M60,138.5c0.5,0,0.9,0.4,0.9,0.9s-0.4,0.9-0.9,0.9s-0.9-0.4-0.9-0.9S59.5,138.5,60,138.5z M56.8,139c0.5,0,0.9,0.4,0.9,0.9
	s-0.4,0.9-0.9,0.9s-0.9-0.4-0.9-0.9C55.8,139.5,56.3,139,56.8,139z M58.6,140.2c0.5,0.1,0.8,0.6,1,0.9c0.6,0.9,0.7,2.1,0.3,2.5
	c-0.9,1-2.3-0.1-2.1-1.7C57.9,140.8,58.2,140.1,58.6,140.2L58.6,140.2z M66.5,143.8c1.3,0,1.7,1.6,0.6,2.3c-0.7,0.5-0.9,2.1-0.4,4.3
	c0.4,1.6,0.2,1.9-0.8,0.4C64.2,148.2,64.6,143.8,66.5,143.8z M63.4,144.7c1.2,0,1.5,0.8,0.8,1.5c-0.4,0.4-0.4,1.6,0.1,2.5
	c0.6,1.4,0.5,1.8-0.7,0.5C62,147.5,62.1,144.7,63.4,144.7z M139.5,145.3c1.3,1.7,2.5,4,3.5,6.6l-5.7-2.6L139.5,145.3z M56.7,152.3
	c-0.4-0.5-0.6-2-0.9-2.6c-0.3-0.8-0.5-1.2-0.9-1.2c-2.4,0.2-2.3-2.1-0.9-2.5C56.8,145.1,57.9,152,56.7,152.3z M68.6,150
	c-0.4,1.2-0.1,1.9,0,3.2c0.1,0.6,0.1,0.7-0.4,0.3c-1.1-1-1.7-4.4-0.7-5C68.9,147.7,69.3,149.1,68.6,150z M125.4,148.4
	c0.6,0,1.2,0.4,1.5,1.2c0.4,1.1,0.4,4,0.2,5.5c-0.3,2.3-0.9,4.4-1.1,6c-0.8,1-2.8-2.4-3-5.1c-0.3-2.1,0.4-6.5,2-7.4
	C125.1,148.5,125.2,148.4,125.4,148.4L125.4,148.4z M133,148.8c0.5,0,0.4,0.1,0.8,0.5c0.6,0.6,0.8,0.7,1.6,1
	c1.6,0.5,3.4,2.8,2.7,3.5c-0.5,0.4-2-0.4-2.5-0.6c-0.5-0.2-1.2-0.4-1.5-0.5c-1.4-0.5-3.3-3-2.7-3.5
	C131.6,148.9,132.6,148.8,133,148.8z M129.1,149.2c1,0,1.3,0.3,1.9,1.3c0.9,1.6,2.4,2.7,4.7,3.4c2.9,0.9,5.5,2.6,5.4,5.8
	c-0.7,0-1.4,0.1-2.1,0.3c-0.8-2.3-2.8-3.6-4.6-4c-4-0.9-7.8-5-6.7-6.6C128.1,149.1,128.6,149.2,129.1,149.2L129.1,149.2z
	 M59.7,149.4l34.7,30.3c-14.7-5.5-28.1-5.3-41.1-3.3L59.7,149.4z M74.5,151.4c-0.1,0.9-1.4,1.1-1.6,1.4c-0.6,0.6-0.6,2.2-0.3,4.1
	c0.2,1.1-0.1,1.1-0.7,0.2c-1.1-1.6-1-4.3-0.3-6C72.5,149,74.6,150.1,74.5,151.4z M54.6,149.9c1.3,0.1,1.7,2,1.8,3.2
	c0,1.7-0.5,1.6-0.7,0c-0.1-0.7-0.3-1-0.9-1.2C53.4,151.5,53.3,149.9,54.6,149.9z M70.7,151.8c-0.3,0.4-0.3,2.1,0,3.3
	c0.2,0.7-0.1,0.7-0.6,0.2c-1.4-1.7-1.6-4.6-0.2-5.1C70.9,149.9,71.2,151.2,70.7,151.8L70.7,151.8z M55.7,155.2
	c0,1.7-0.4,1.8-0.9,0.2c-0.1-0.4-0.4-0.8-0.5-0.9c-0.9-0.6-1.1-1.2-0.6-1.7C55.1,151.7,55.7,154.7,55.7,155.2z M60.8,153.7
	l-4.7,20.1c11.6-1,16.9-1.2,29.2,1.2L60.8,153.7z M74.8,154c0.7,0.2,1,1.1,0.1,2c-0.3,0.3-0.5,0.9-0.2,2.3c0.5,1.9-0.3,1.3-1.2-0.5
	C72.9,156.6,73.2,153.6,74.8,154z M52.6,154.1c1.3,0,2.4,2,2.4,4.3c0,1.8-0.2,1.7-0.9-0.1c-0.5-1.1-0.9-1.6-1.7-1.9
	C50.9,155.9,51,154.1,52.6,154.1z M61.1,154.7l21.8,19.1c-8.9-1.4-17.7-1.5-26.2-0.5L61.1,154.7z M79.3,155.4c1.7,0,2.4,2.1,0.3,2.9
	c-1.2,0.4-0.7,3-0.5,4.5c0.1,0.6-0.1,0.6-0.5,0.1C77.3,160.9,76.6,156,79.3,155.4L79.3,155.4z M77,157.8c-0.3,0.5-0.3,1-0.1,2
	c0.6,2,0.7,2.4-0.5,1.4c-1.2-1.3-1.8-3.9-0.7-4.6C76.8,155.6,77.8,156.6,77,157.8L77,157.8z M33.9,156.2c2,0,3.5,1.3,3.4,3.1
	c-0.1,2-1.3,3.3-3.2,3.4c-2.1,0.1-3.3-1.5-3.4-3.3C30.7,157.9,31.6,156.2,33.9,156.2L33.9,156.2z M33.9,157c-2.3,0-3.2,3.1-1.3,4.5
	c0.8,0.6,1.5,0.4,0.8-0.2c-1.3-1.2-0.8-3.2,0.9-3.6C35.1,157.5,34.8,157,33.9,157L33.9,157z M62.1,157.5l-2.8,13.6
	c5.7-0.9,12.6-0.6,17.9-0.1L62.1,157.5z M52.7,158c1.4-0.1,1.8,2,1.8,2.9c0,1.1-0.1,1.6-0.3,1.1c-0.5-1.4-0.9-2.1-1.4-2.1
	c-0.3-0.1-0.5-0.2-0.7-0.4C51.5,158.8,52,158.1,52.7,158z M62.3,158.6l1.8,1.6c-1.2-0.5-2.2,0.8-2.2,0.8L62.3,158.6z M81.2,161.1
	c-0.5,0.7-0.5,2.1-0.1,3.7c0.1,0.5-0.3,0.1-0.7-0.4c-0.8-1-1.2-2.3-1.1-3.3C79.5,158.7,82.7,159.2,81.2,161.1z M52.2,159.9
	c1.2,0.1,1.6,2.6,1.6,3.4s-0.2,1.3-0.4,0.8c-0.3-1-0.9-2.5-1.5-2.9C51,160.7,51.2,160,52.2,159.9L52.2,159.9z M143.2,162.7
	c0,0.9-0.3,1.8-0.9,2.1s-0.9-0.1-1.2-1.1c-0.2-0.7-0.3-1-0.3-1s-0.2,0.9-0.3,1.1c-0.4,1.3-1.8,1.3-2.4-0.1c-0.6-1.7,1.1-3.4,2.5-3.3
	C142.1,160.3,143.2,161.3,143.2,162.7L143.2,162.7z M63.8,160.8c0.4,0,2,0.7,2,0.7l1.6,1.4c0,0-1.5-0.6-2-0.8
	c-1.2-0.4-1.2-0.4-2.2,0.4c-1,0.9-1.9,1.5-1.9,1.5l0.3-1.8C61.6,162.2,63.1,160.8,63.8,160.8L63.8,160.8z M53.2,165.4
	c0.2,1.9-0.3,2.1-0.8,0.3c-0.5-1.6-0.9-2.2-1.7-2.2c-1.4,0.2-1.9-1.9-0.6-2.3C52.5,160.5,53.1,164.6,53.2,165.4z M135.1,161.1l2.2,1
	l0.5,2.3l-2-0.5L135.1,161.1z M85.7,161.3c2.1-0.6,2.4,2.1,0.8,2.5c-1,0.2-1,1.8-0.7,4c0.1,0.5,0.2,1.1,0.2,1.2
	c-0.2,0.4-0.7-0.2-1.3-1.6C83.6,164.7,83.9,161.8,85.7,161.3L85.7,161.3z M146.4,161.3l-0.6,2.6l-1.9-0.1l-0.1-1.6L146.4,161.3z
	 M83.5,163c-1,1.5-0.1,2.9,0.1,4c0,0.7-0.8,0-1.3-1c-1-2.1-1.1-3.7-0.2-4.4C83.5,160.8,84.1,162.2,83.5,163z M64.4,162.6
	c0.4,0,0.8,0.2,1.9,0.6c0.8,0.3,2.6,1,2.6,1l2.4,2.1c0,0-2.1-0.8-3.5-1.4c-3.3-1.4-2.8-1.4-5.4,0.5c-0.7,0.6-1.5,1.2-1.5,1.2
	l0.3-1.7c0,0,1-1,2.2-1.9C63.8,162.8,64,162.6,64.4,162.6z M33.9,163.4c1.7,0,2.8,1.3,3.2,2.8c0.2,0.9,0,1.7,0,2.5
	c-1.2,8.9-1.7,17.2-2.7,25.4c-0.1,0.4-0.3,0.2-0.4-0.5c-1.2-7.5-2-15.7-3.1-23.1c-0.2-2.8-0.9-6.4,2.5-7.1
	C33.5,163.4,33.7,163.4,33.9,163.4L33.9,163.4z M33.8,164.4c-0.7,0-1.6,0.5-1.9,1.2c-0.6,1.3-0.5,4.1,0.7,12.3
	c0.1,0.7,0.2,1.8,0.3,2.5c0.2,2.2,0.5,3.9,0.7,4.2c0.4,0.6,0.4,0,0.2-2.2c-0.1-1.1-0.3-2.7-0.4-3.7c-0.5-3.9-0.7-6.6-1-10.2
	c-0.2-1.7,0.5-3,1.8-3.4c0.7-0.2,0.7-0.5,0.1-0.7C34.1,164.4,34,164.4,33.8,164.4z M144.8,164.5c2.5,0,3.4,3.4,1,4.7
	c-0.9,0.5-2.4,0.2-2.8-0.5c-0.2-0.6,0-0.9,0.5-1.1c0.5-0.3,1.3-0.5,1.3-0.5s-1.3-0.3-1.7-0.9C142.4,164.8,143.8,164.5,144.8,164.5
	L144.8,164.5z M52.6,168.2c0,0.6-0.4,0.4-0.4,0c-0.3-0.9-0.8-1.8-1.3-2.2c-0.6-0.5-0.7-1.1-0.3-1.4
	C51.9,163.4,52.5,167.8,52.6,168.2z M135.7,164.5c0.6,0,1.5,0.2,2,0.7c0.7,0.7,0.7,1-0.5,1.4c-0.6,0.2-1,0.4-1,0.4s0.5,0.2,0.9,0.3
	c1.1,0.4,1.1,1,0,1.8c-1.4,1-3.7-0.3-3.6-2.2C133.6,165.5,134.5,164.5,135.7,164.5L135.7,164.5z M140.9,164.5l2.2,2.5l-2.6,2.7
	L138,167L140.9,164.5z M64.8,164.7C64.8,164.7,64.9,164.7,64.8,164.7c0.8,0,1.9,0.5,4.6,1.6c1.5,0.6,3.2,1.3,3.2,1.3l2.4,2.2
	c0,0-3.3-1.1-4.5-1.6c-0.3-0.1-0.8-0.4-1.2-0.5c-0.4-0.2-1.5-0.6-2.4-0.9c-1.9-0.8-1.9-0.8-2.5-0.2c-0.3,0.2-0.9,0.7-1.5,1.1
	c-0.6,0.4-1.3,1-1.7,1.3c-0.5,0.4-1.1,0.9-1.1,0.9l0.4-2.1c0,0,0.4-0.3,1-0.8c0.5-0.4,1.4-1.1,1.9-1.5C64,165,64.3,164.8,64.8,164.7
	z M88.8,166.6c0.1,0.4,0,0.5-0.5,1c-0.6,0.6-0.7,1.7-0.3,3.1c0.1,0.4,0.3,0.8,0.2,0.9c-0.7,0.7-2.4-3.6-2-4.8
	C86.9,165.2,88.5,165.2,88.8,166.6L88.8,166.6z M50.4,166.8c0.5,0,1,0.3,1.3,1.1c0.7,2,0.3,4.5-0.5,2.2c-0.2-0.5-0.5-1-0.8-1.3
	c-0.3-0.3-0.8-0.6-0.8-1C49.7,167.1,50,166.8,50.4,166.8L50.4,166.8z M65.4,166.8c0.3,0,0.7,0.2,1.4,0.4c0.6,0.3,2.4,0.9,3.4,1.3
	c1.6,0.6,3.2,1.4,3.2,1.4l-3.6-0.2c0,0-1.2-0.4-1.9-0.7c-2.6-1.1-2.5-1.1-3.8-0.1c-0.5,0.4-1.1,0.9-1.1,0.9l-1.8,0.1
	c0,0,0.9-0.9,2.1-1.8c0.4-0.3,1-0.7,1.2-1C64.9,166.9,65.1,166.8,65.4,166.8z M93.4,167.5c1-0.2,1.5,0.8,1.5,1.4
	c-0.1,0.7-0.7,1.3-1.6,1.5c-0.2,0.7-0.8,2.4-0.4,4.9c0.3,1.2-0.2,1.2-0.7,0.1C91.3,173.5,90.2,168.1,93.4,167.5z M90.6,169.5
	c-0.4,0.9-0.6,1.6-0.3,2.8c0.3,1.3,0.3,1.6-0.4,0.8c-1.4-1.9-1.6-4.8-0.3-5.2C90.8,167.6,91,168.9,90.6,169.5z M48.8,168.1
	c2.2,0.3,2.8,4.1,2.5,5.7c-0.6,1.9-0.5,0.6-0.7-0.2c-0.5-1.9-1.2-3-1.8-3.1C46.9,170.2,47.2,167.9,48.8,168.1L48.8,168.1z
	 M65.5,168.9L65.5,168.9c0.8,0.1,2.7,0.7,1.9,0.9h-2.8C64,169.8,64.9,168.9,65.5,168.9L65.5,168.9z M141.7,169.5
	c0.3,0,0.6,0.3,1.1,0.7c1,1,0.6,2.7-0.8,3.5c-2.1,1.3-4.6-1.1-3.4-3.3c0.6-1.2,1.4-1,2.1,0.7c0.1,0.2,0-0.2,0.2-0.7
	C141.1,169.8,141.4,169.5,141.7,169.5L141.7,169.5z M138.1,169.6l-0.6,2.6l-2.6,1.3l0.9-3.2L138.1,169.6z M143.5,170l2.1,0.2
	l1.2,3.4l-3-1.3L143.5,170z M94.5,171.9c1.5,0.1,1.7,1.5,0.8,2.1c-0.5,0.5-0.7,1.1-0.6,2.2c0,0.5,0.1,1.1,0.1,1.1
	c0,0.2-0.2,0.2-0.5-0.1C92.8,175.6,93,171.9,94.5,171.9z M48.9,172.5c1,0,2,2.7,1.5,3.8c-0.3,0.6-0.7,0.5-0.8-0.3
	c-0.1-0.5-0.4-1.2-1.2-1.4C47.3,174.3,47.7,172.5,48.9,172.5z M97.3,174.1c0.7,0.4,0.8,1.2,0.1,1.7c-0.5,0.4-0.6,0.7-0.7,1.7
	c0.2,2.3-1.1,0.8-1.2-1.2C95.4,175.2,96,173.5,97.3,174.1z M48.1,174.8c0.7,0,1.5,1.2,1.3,2c-0.1,0.6-0.4,0.5-0.8,0
	c-0.2-0.1-0.5-0.3-0.7-0.3C46.9,176.2,47,174.8,48.1,174.8L48.1,174.8z M67.6,175.8c9.3,0,18.9,1.4,26.9,4.6l-0.7,1.2l-2.1-0.7
	l-0.7,1.9l1.7,0.7l-0.8,1.8c-9.5-3.1-19.7-5.4-36.6-2.9c-0.8-0.6-2.4-1.7-2.4-1.7l1.4-0.3l-0.2-1.9l-3.4,0.6l-1-1
	C55.1,176.6,61.2,175.8,67.6,175.8L67.6,175.8z M98.7,176.2c0.9,0,1.4,1,0.8,1.4c-0.5,0.3-1.5,0.4-1.7,0.1
	C97.4,177.3,98,176.2,98.7,176.2z M66.3,177.4v2l2.8-0.1l0.1-1.9H66.3z M71.1,177.4v1.9l2.7,0.1l0.1-1.9L71.1,177.4z M64,177.5
	l-2.7,0.2l0.1,1.8l2.7-0.1L64,177.5z M76.3,177.8l-0.1,1.9L79,180l0.2-1.9L76.3,177.8z M58.9,177.9l-2.8,0.4l0.2,1.8l2.7-0.3
	L58.9,177.9z M81.7,178.5l-0.3,1.9l2.6,0.4l0.3-1.8L81.7,178.5z M86.8,179.6l-0.3,2l2.6,0.6l0.4-1.8L86.8,179.6z M68.2,181.9
	c8.7,0,16.6,1.5,23.3,4c0,0-0.9,1.9-1.2,2.1c-4.8-1.9-13-3.7-18.5-3.8c-2-0.1-2.5-0.1-3.2-0.4c-4.2-1.4-7.9-2-11.3,0.1l-1.4-1
	C60.2,182.2,64.3,181.9,68.2,181.9L68.2,181.9z M31.5,193.1c2,0,2.9,3.1,0.8,4.4c-0.6,0.3-1.3,0.3-1.9,0c-1.7-0.8-1.8-3.4,0.2-4.2
	C30.9,193.1,31.2,193,31.5,193.1L31.5,193.1z M96.5,193.2c0.7,0.4,3.3,1.6,3.3,1.6l-18.5,33.5h-4.5L96.5,193.2z M36.9,193.2
	c1.1-0.1,1.9,0.8,2.2,1.6c0.4,1.1-0.3,3-2.3,2.9C34.6,197.6,33.6,193.6,36.9,193.2z M100.4,195c0.5,0.3,2.3,0.6,2.4,0.9
	c0.1,0.2-0.1,0.5-0.1,1c-0.1,1.1,0.2,2.2,0.8,3.2c1.1,1.5-0.1,0.8-1.1,0.8c-2.4-0.6-5.4,2.6-4.2,6c0.3,0.7,0.2,0.8-1.1,1.2
	c-2.9,0.9-4.1,4-2.8,6.7c0.7,1.4,0.7,1.4-0.5,1.5c-3.5,0.3-5.6,3.4-4.1,6.7c0.2,0.5,0.1,0.6-0.7,0.8c-2.4,0.4-3.5,2.5-3.8,4.7H82
	L100.4,195z M103.5,196.2l6.1,1.7c-2.5,8.7-2.9,18.8,0.2,30.4H95.7c2-1.8,1.2-4.2-1.1-4.7c2.2-1.3,2.2-4.7-0.4-5.1
	c-2.3-0.4-3.5,1.9-2.5,4.1l-1,0.3c0,0-0.4-0.6-0.5-0.9c-0.9-2.6,1-5.1,4.1-5.1c1.9,0,2.3-0.5,1.3-1.7c-1.9-2.1-1.3-5.1,1.2-6.3
	c1.2-0.5,1.8-0.2,1.8-0.2l0.1,1.4c0,0-0.5,0-0.8,0.1c-2.8,0.4-2.3,4.9,0.6,4.8c1.5,0,2.7-1.2,2.7-2.9c0-0.5,0-1.2,0-1.2
	c1.4,2.4,3.9,2.6,4.9,0.6c1.2-2.3-1-3.8-3.2-3.6c0,0,0.5-0.3,0.8-0.5c2.4-1.2,1.6-4.7-1.1-4.7c-1.8,0-2.8,1.7-2.3,3.5
	c0.1,0.3,0.3,0.7,0.3,0.7l-1.1,0.3c0,0-0.2-0.2-0.4-0.4c-1.8-2.9,1.1-6,4.8-5.3c1.4,0.4,1.3-0.5,0.6-1.4
	C103.5,198.9,102.9,197.5,103.5,196.2L103.5,196.2z M34.2,197.4l3.2,5.7l-3.6,6.6l-3.6-6.1L34.2,197.4z M33.9,200.4l-2.2,3.1
	l2.2,3.5l2.1-3.6L33.9,200.4z M33.8,201.5l1.5,2l-1.5,2.4l-1.4-2.2L33.8,201.5z M100.3,207.7c0.7,0,1.2,0.5,1.2,1.2
	c0,0.7-0.6,1.2-1.2,1.2s-1.2-0.5-1.2-1.2C99.1,208.2,99.6,207.7,100.3,207.7z M91.6,223.1c0.7,0,1.3,0.6,1.3,1.3
	c0,0.7-0.6,1.3-1.3,1.3s-1.3-0.6-1.3-1.3C90.4,223.7,90.9,223.1,91.6,223.1z M89.7,224c-0.1,0,0,1.2,0.3,1.6
	c-1.8,0.1-2.3,1.5-2.5,2.7h-1.6C86.1,224.3,89.6,224.2,89.7,224L89.7,224z"/>
<path d="M48.2,26.5C40.9,37,33,43,32.9,51.2
	c0,2.7,1.4,7.2,5.9,8c2.9,0.6,6.9-1.8,7-6.6c0-1,1-0.9,1,0.4c-0.1,3.8-1.3,8.2-3.3,11.8c3.2,0,6.4,0,9.6,0c-2-3.6-3.2-8-3.3-11.8
	c0-1.3,1-1.3,1-0.4c0.1,4.8,4.1,7.1,7,6.6c4.5-0.9,5.9-5.4,5.9-8C63.4,43,55.5,37,48.2,26.5L48.2,26.5z"/>
<path d="M130.6,223c-7.3-10.5-15.2-16.5-15.3-24.7
	c0-2.7,1.4-7.2,5.9-8c2.9-0.6,6.9,1.8,7,6.6c0,1,1,0.9,1-0.4c-0.1-3.8-1.3-8.2-3.3-11.8c3.2,0,6.4,0,9.6,0c-2,3.6-3.2,8-3.3,11.8
	c0,1.3,1,1.3,1,0.4c0.1-4.8,4.1-7.1,7-6.6c4.5,0.9,5.9,5.4,5.9,8C145.8,206.5,138,212.5,130.6,223L130.6,223z"/>
</svg>
