<?xml version="1.0" encoding="utf-8"?>
<!-- Generator: Adobe Illustrator 15.0.2, SVG Export Plug-In . SVG Version: 6.00 Build 0)  -->
<!DOCTYPE svg PUBLIC "-//W3C//DTD SVG 1.1//EN" "http://www.w3.org/Graphics/SVG/1.1/DTD/svg11.dtd">
<svg version="1.1" id="Layer_1" xmlns="http://www.w3.org/2000/svg" xmlns:xlink="http://www.w3.org/1999/xlink" x="0px" y="0px"
	 width="178.7px" height="249.6px" viewBox="0 0 178.7 249.6" enable-background="new 0 0 178.7 249.6" xml:space="preserve">
<path d="M14.1,40.3c-3.4,4.4-7.1,6.9-7.2,10.3
	c0,1.1,0.7,3,2.8,3.4c1.4,0.2,3.2-0.8,3.3-2.8c0-0.4,0.5-0.4,0.5,0.2c-0.1,1.6-0.6,3.4-1.6,4.9c1.5,0,3,0,4.5,0
	c-0.9-1.5-1.5-3.3-1.6-4.9c0-0.5,0.5-0.6,0.5-0.2c0,2,1.9,3,3.3,2.8c2.1-0.4,2.8-2.2,2.8-3.4C21.2,47.1,17.5,44.7,14.1,40.3
	L14.1,40.3z"/>
<path d="M164.5,209.2c-3.4-4.4-7.1-6.9-7.2-10.3
	c0-1.1,0.7-3,2.8-3.4c1.4-0.2,3.2,0.8,3.3,2.8c0,0.4,0.5,0.4,0.5-0.2c-0.1-1.6-0.6-3.4-1.6-4.9c1.5,0,3,0,4.5,0
	c-0.9,1.5-1.5,3.3-1.6,4.9c0,0.5,0.5,0.6,0.5,0.2c0-2,1.9-3,3.3-2.8c2.1,0.4,2.8,2.2,2.8,3.4C171.6,202.4,167.9,204.8,164.5,209.2
	L164.5,209.2z"/>
<path d="M89.3,26.5C81.9,37,74.1,43.1,74,51.2
	c0,2.7,1.4,7.2,5.9,8c2.9,0.6,6.9-1.8,7-6.6c0-1,1-0.9,1,0.4c-0.1,3.8-1.3,8.2-3.4,11.8c3.2,0,6.4,0,9.7,0c-2-3.6-3.2-8-3.4-11.8
	c0-1.3,1-1.3,1-0.4c0.1,4.8,4.1,7.2,7,6.6c4.5-0.9,5.9-5.4,5.9-8C104.5,43.1,96.7,37,89.3,26.5z"/>
<path d="M89.3,223c-7.4-10.5-15.2-16.5-15.3-24.7
	c0-2.7,1.4-7.2,5.9-8c2.9-0.6,6.9,1.8,7,6.6c0,1,1,0.9,1-0.4c-0.1-3.8-1.3-8.2-3.4-11.8c3.2,0,6.4,0,9.7,0c-2,3.6-3.2,8-3.4,11.8
	c0,1.3,1,1.3,1,0.4c0.1-4.8,4.1-7.2,7-6.6c4.5,0.9,5.9,5.4,5.9,8C104.5,206.4,96.7,212.5,89.3,223z"/>
<path d="M6.7,37.7l0.1-1.6c0.4-5,1.5-6.7,7.6-12c3-2.5,4-3.8,4.1-5.3c0.4-3.4-2.7-4.5-4.6-4.5
	c-2.6,0-5.5,1.5-4.1,5.2l-2.9,0.9c-0.6-3.4,0-6.6,2.7-8c3.6-1.8,8.2-1.1,10.5,1.8c1.6,1.9,1.9,4.6,1.1,6.7
	c-2.5,5.4-10.8,7.7-11.4,14h9.2v-3.5h2.7v6.4L6.7,37.7L6.7,37.7z"/>
<path d="M171.9,211.8l-0.1,1.6c-0.4,5-1.5,6.7-7.6,12c-3,2.5-4,3.8-4.1,5.3
	c-0.4,3.4,2.7,4.5,4.6,4.5c2.6,0,5.5-1.5,4.1-5.2l2.9-0.9c0.6,3.4,0,6.6-2.7,8c-3.6,1.8-8.2,1.1-10.5-1.8c-1.6-1.9-1.9-4.6-1.1-6.7
	c2.5-5.4,10.8-7.7,11.4-14h-9.2v3.5h-2.7v-6.4L171.9,211.8L171.9,211.8z"/>
</svg>
