<?xml version="1.0" encoding="utf-8"?>
<!-- Generator: Adobe Illustrator 15.0.2, SVG Export Plug-In . SVG Version: 6.00 Build 0)  -->
<!DOCTYPE svg PUBLIC "-//W3C//DTD SVG 1.1//EN" "http://www.w3.org/Graphics/SVG/1.1/DTD/svg11.dtd">
<svg version="1.1" id="Layer_1" xmlns="http://www.w3.org/2000/svg" xmlns:xlink="http://www.w3.org/1999/xlink" x="0px" y="0px"
	 width="178.7px" height="249.6px" viewBox="0 0 178.7 249.6" enable-background="new 0 0 178.7 249.6" xml:space="preserve">
<path d="M14.2,40.3c-3.4,4.4-7.1,6.9-7.2,10.3
	c0,1.1,0.7,3,2.8,3.4c1.4,0.2,3.2-0.8,3.3-2.8c0-0.4,0.5-0.4,0.5,0.2c-0.1,1.6-0.6,3.4-1.6,4.9c1.5,0,3,0,4.5,0
	c-0.9-1.5-1.5-3.3-1.6-4.9c0-0.5,0.5-0.6,0.5-0.2c0,2,1.9,3,3.3,2.8c2.1-0.4,2.8-2.2,2.8-3.4C21.3,47.1,17.6,44.7,14.2,40.3z"/>
<path d="M164.6,209.2c-3.4-4.4-7.1-6.9-7.2-10.3
	c0-1.1,0.7-3,2.8-3.4c1.4-0.2,3.2,0.8,3.3,2.8c0,0.4,0.5,0.4,0.5-0.2c-0.1-1.6-0.6-3.4-1.6-4.9c1.5,0,3,0,4.5,0
	c-0.9,1.5-1.5,3.3-1.6,4.9c0,0.5,0.5,0.6,0.5,0.2c0-2,1.9-3,3.3-2.8c2.1,0.4,2.8,2.2,2.8,3.4C171.6,202.4,167.9,204.8,164.6,209.2
	L164.6,209.2z"/>
<path d="M89.4,105.7c-7.4,10.5-15.2,16.5-15.3,24.7
	c0,2.7,1.4,7.2,5.9,8c2.9,0.6,6.9-1.8,7-6.6c0-1,1-0.9,1,0.4c-0.1,3.8-1.3,8.2-3.4,11.8c3.2,0,6.4,0,9.7,0c-2-3.6-3.2-8-3.4-11.8
	c0-1.3,1-1.3,1-0.4c0.1,4.8,4.1,7.2,7,6.6c4.5-0.9,5.9-5.4,5.9-8C104.6,122.1,96.8,116.1,89.4,105.7z"/>
<path d="M6.2,37.8v-2.3h2.2l4.6-24h2.6l5.1,24h1.7v2.3h-5.9v-2.3H18l-0.6-3.7h-6L11,35.5h1.6v2.3
	H6.2z M16.8,29.2l-2.6-12.9l-2.4,12.9H16.8z"/>
<path d="M156.5,211.7v2.3h2.2l4.6,24h2.6l5.1-24h1.7v-2.3h-5.9v2.3h1.6l-0.6,3.7h-6l-0.5-3.7h1.6
	v-2.3H156.5L156.5,211.7z M167.2,220.3l-2.6,12.9l-2.4-12.9H167.2L167.2,220.3z"/>
</svg>
