<?xml version="1.0" encoding="utf-8"?>
<!-- Generator: Adobe Illustrator 15.0.2, SVG Export Plug-In . SVG Version: 6.00 Build 0)  -->
<!DOCTYPE svg PUBLIC "-//W3C//DTD SVG 1.1//EN" "http://www.w3.org/Graphics/SVG/1.1/DTD/svg11.dtd">
<svg version="1.1" id="Layer_1" xmlns="http://www.w3.org/2000/svg" xmlns:xlink="http://www.w3.org/1999/xlink" x="0px" y="0px"
	 width="178.8px" height="249.6px" viewBox="0 0 178.8 249.6" enable-background="new 0 0 178.8 249.6" xml:space="preserve">
<path d="M14.2,40.3c-3.4,4.4-7.1,6.9-7.2,10.3
	c0,1.1,0.6,3,2.7,3.3c1.4,0.2,3.2-0.8,3.3-2.7c0-0.4,0.5-0.4,0.5,0.2c-0.1,1.6-0.6,3.4-1.6,4.9c1.5,0,3,0,4.5,0
	c-0.9-1.5-1.5-3.3-1.6-4.9c0-0.5,0.5-0.6,0.5-0.2c0,2,1.9,3,3.3,2.7c2.1-0.4,2.8-2.2,2.7-3.3C21.3,47.1,17.6,44.6,14.2,40.3
	L14.2,40.3z"/>
<path d="M164.6,209.2c-3.4-4.4-7.1-6.9-7.2-10.3
	c0-1.1,0.6-3,2.7-3.3c1.4-0.2,3.2,0.8,3.3,2.7c0,0.4,0.5,0.4,0.5-0.2c-0.1-1.6-0.6-3.4-1.6-4.9c1.5,0,3,0,4.5,0
	c-0.9,1.5-1.5,3.3-1.6,4.9c0,0.5,0.5,0.6,0.5,0.2c0-2,1.9-3,3.3-2.7c2.1,0.4,2.8,2.2,2.7,3.3C171.7,202.3,168,204.8,164.6,209.2
	L164.6,209.2z"/>
<path d="M14.8,34.9h2.6l-3.9-9.7l-3,4.1v5.6h2.1v2.9H5.3v-2.9h2.4V14H5.3v-2.5h7.5v2.6h-2.1v10.2
	L17.2,14h-2.3v-2.5h7.9V14h-2.1l-5.4,8.4l5.2,12.5h2.3v2.9h-8.2L14.8,34.9L14.8,34.9z"/>
<path d="M163.9,214.6h-2.6l3.9,9.7l3-4.1v-5.6h-2.1v-2.9h7.3v2.9H171v20.9h2.4v2.5h-7.5v-2.6h2.1
	v-10.2l-6.5,10.3h2.3v2.5h-7.9v-2.5h2.1l5.4-8.4l-5.2-12.5h-2.3v-2.9h8.2L163.9,214.6L163.9,214.6z"/>
<path fill="#131F67" d="
	M24.1,19.5h130.6V230H24.1V19.5z M116.8,228.7c-4.9-8.9-12.5-23.3-12.8-23.4c-2.8,1.5-31.8,5.4-45.7,1.6
	c-4.8,7.2-9.4,14.3-13.6,21.4L116.8,228.7z M72.3,202.2c-0.7,0-1.5,0.5-1.4,0.1c0.1-0.2,0.3-2.5,0.4-3.3c0.2-0.4,0.5,0.6,0.5,1.5
	c0,0.5,0.2,0.1,1.9,0.2c1.8,0.1,3.2,0.4,3.8,0.6c2.1,0.5,6.2,0.1,7.9-1.1c0.9-0.7,1.3,0.1,0.3,0.8c-4.4,3.4-7.9,2.1-11.7,1.5
	C73.5,202.3,72.9,202.2,72.3,202.2L72.3,202.2z M74.2,199c-0.3-0.2-0.5-0.2-0.8,0c-1.4,0.6-1-0.3,0-1.2c0.4-0.4,0.4-0.6,0.1-1.1
	c-0.2-0.2-0.5-0.2-0.4-0.6c0.3-1.4,2.3-3.6,4.5-4.6c0.9-0.4,1.1,0-0.1,0.7c-1.8,1.1-2.4,2-1.4,1.6c2-0.7,3.8-0.2,6.4,1.1
	c0.7,0.4,1.1,0.4,1.7,0.4c0.5-0.4,0.9,0.1,1.2,0.3c0.2,0.1,0.2,0.2,0.4,0.2c1.5-0.3,0.6,0.6-1.4,2C80.8,200.3,76.9,201.5,74.2,199
	L74.2,199z M79.7,199.6c1.5-0.4,3.2-1.4,4.3-2.3c1.3-1.2,0.6-1-0.9-0.3c-2.2,1.1-3.7,1.4-6.2,1.3c-2.1,0-2-0.1-2.1,0.1
	C74.5,199.4,77.3,200.3,79.7,199.6z M75.6,196.1c0.1-0.4,0.2-0.9,0.1-1.1c-0.2-0.3-0.6-0.1-1.1,0.6c-0.3,0.4-0.3,0.5,0,0.8
	c0.2,0.1,0.3,0.2,0.4,0.2C75.5,196.8,75.5,196.4,75.6,196.1L75.6,196.1z M76.5,196.6c0.6-2.2,2.1-2.1,3.1-0.1h0.7
	c-1.5-4-4.3-2-4.4,0C76.3,196.7,76.5,196.6,76.5,196.6z M81.9,196.2c0.7-0.4,0.6-0.6-0.3-1.1c-0.6-0.3-0.9-0.4-1-0.2
	c0,0.4,0,1.1,0.3,1.4C81.1,196.6,81.5,196.4,81.9,196.2z M72.4,190c-0.1-0.2-0.1-0.6,0.4-0.8c2.9-1.3,0.8-4.2-1.4-2
	c-0.7,0.6-1.8,0.9-2.6,0.5c-0.8-0.3-0.8-1.3,0.2-1.5c0.3-0.1,1.2-0.2,1.5-0.5c3.9-2.1,5.9,2.4,3.2,3.9
	C73.2,190.1,72.6,190.2,72.4,190L72.4,190z M61.6,185.9c-1.6-0.7-1.8-3.2-0.3-4.2c0.9-0.6,1.9-0.8,4.5,0.5c1.8,0.9,2.9-0.1,2.8,1
	c0,0.6-0.1,1.3-1.1,1.4c-1.7,0.2-2.9-2.1-5.1-1.9c-1.6,0.2-1.4,2.1-0.2,2.5C63.7,185.8,62.7,186.4,61.6,185.9z M90.5,186.3
	c-0.3,0.1-0.4-0.5-0.3-0.8c0.8-1.9,1.5-3.3,2.2-5.1c0.6-1.4,0.9-2,1.2-2c0.3,0,0.4,0.2-0.1,1.1C92.9,181.2,90.5,186.5,90.5,186.3
	L90.5,186.3z M77.6,185.8c-0.7-0.5-0.6-1.2,0.2-0.7c1,0.7,2.7-0.6,2.3-1.8c-0.4-1.5-2.4-1.9-4-0.5c-2.6,2.1-5.5,2.2-5.5,0.6
	c0-0.5-0.1-0.6,1-0.7c1.3-0.1,2.7-0.7,3.4-1.1c3.2-1.9,6.6-0.6,5.9,2.6C80.6,185.8,78.7,186.5,77.6,185.8z M65.9,181
	c-0.3,0-0.7,0.3-0.9,0.2c-0.3-0.2-0.2-0.8-0.4-1.4c-0.4-1.1,0-0.8,0.7-0.5c0.9,0.4,1.8,0.3,2.6,0s1.9-0.2,3.5,0
	c1.4,0.2,2.1,0.1,3.4-0.2c1.3-0.4,1-0.3,0.8,0.6c-0.1,0.5-0.3,1.3-0.5,1.4c-0.9-0.5-1.6-0.3-2.2,0c-1,0.4-1.7,0.5-2.5,0.3
	c-0.8-0.4-1.2-0.4-1.8,0C67.4,181.9,66.9,181.1,65.9,181L65.9,181z M85.9,178.8c0.2-0.3,0.5-0.8,0.7-1.3c2.1-4.1,2.2-5.3,0.7-6.6
	c-2-1.9-3.6-1.1-5.5,2.7c-0.5,0.9-0.7,1.6-0.9,1.9s-0.5,0.1-0.6-0.1c-0.2-0.2,1.9-4.2,2.7-5.1c2.1-2.3,6.1-0.5,5.9,2.6
	c-0.1,1.5-0.4,2.4-1.8,5.2c-0.3,0.7-0.7,1.3-0.8,1.6C85.5,180.1,85.7,179.1,85.9,178.8L85.9,178.8z M66.4,178.6
	c0.3-1.5,5-2.1,6.2-0.2c0.1,0.2,0,0.2-0.5,0c-2.4-0.8-2.9-0.7-5.1,0.2C66.7,178.7,66.4,178.8,66.4,178.6L66.4,178.6z M84.3,178.3
	c0-0.1,0.2-0.7,0.4-1.2c1.6-3.1,2-3.8,1.5-4.4c-0.9-1.1-2.2-0.1-3.3,3.1c-0.4,1.2-0.7,1-0.9,0.8c-0.4-0.4,1.4-4.1,2.2-4.7
	c1.9-1.2,3.5,0.2,2.6,2.7c-0.7,1.1-1.2,2.9-1.8,3.8C84.7,178.8,84.3,178.7,84.3,178.3L84.3,178.3z M77.3,173.3
	c-0.1-0.2,0.1-0.4,0.8-1.8c0.9-2,1.2-2.7,0.8-3.9c-0.7-2-3.2-2.5-4.7-1.2c-0.5,0.4-0.8,1-1.1,1.5c-0.6,1.2-1,2.8-1.3,3.2
	c-0.3,0.3-0.7,0.3-0.7-0.2c0.4-1.1,0.5-1.9,1.4-3.5c2.1-4.7,8.3-2.5,6.9,2.4c-0.5,1.8-1.2,3.1-1.5,3.6
	C77.6,173.8,77.3,173.5,77.3,173.3z M75.8,172.4c0-0.2,0.2-0.6,0.5-1.2c1-2.6,1.1-3.4-0.5-3.4c-0.9,0.1-1,0.5-1.8,2.5
	c-0.3,0.7-0.4,1.1-0.6,1.3c-0.2,0.2-0.5,0.1-0.6,0c-0.3-0.3,1.1-3.7,1.9-4.3c1.7-1.5,4,0.6,2.9,2.6c-0.5,1.3-0.9,2.3-1.2,2.7
	C76.1,172.9,75.8,172.9,75.8,172.4L75.8,172.4z M39,142.2l-5.3-0.4c0.9,5.7,1,11.9,0,16.3c-0.8,3.8-0.8,6.6-0.6,9.8
	c0.3,3.8,1.9,7,2.3,11.1c0.3,2.9-0.4,6-0.9,8.9c-1,4.9-0.8,5.4-0.6,11.1c0.1,5.3-0.4,5.1-0.7,4.8c0,0-0.1-1-0.1-2.1
	c0-1.1-0.1-3.8-0.1-5.7c-0.1-3.8,0.3-7.1,0.6-8.5c0.6-2.8,1.3-5.7,0.9-8.7c-0.9-3.9-2.1-7.8-2.5-11.6c-0.5-4.6,0.8-9.3,1.2-12.7
	c0.4-3.3,0-8.9-0.9-11.2c-0.1-0.8-0.8-1.8-0.8-1.8c-0.8-0.1-1.6-0.2-2.7-0.2c-0.1,22.3,0,44.7,0,67l4.9,4.6l5-4.8L39,142.2z
	 M39.3,167.8c0,0,7.5,4.3,15.7,8.6c-0.8-4.9,1.7-5.6,4-6.2c-0.6-9.4,8-7.5,9.3,0.7h0.8c1.5-4.1,3-6.9,6.3-7.6
	c2.6-0.5,5.2,1.2,5.9,5.1c-0.1-0.3,8.7-5.2,8.9,5.2c4-2.5,6.9-0.3,8,2.8c1.7-2.6,5.9-2.7,7.3-2.9c0.5-0.5,1.3-0.9,2.8-0.8
	c1.3-0.1,3-1,3.9,0.1c1.4,0.2,2.4,0,3.6,0.9c0.9,0.7,2,2.3,3.5,1.2c2.9-1.4,6.2-2.1,8.9-3.8c0,0-0.7-0.9-0.5-0.8
	c0.1,0,0.4,0.5,0.9,0.7c0.2,0.1,1.8-0.9,1.8-0.9c-10.9-12.7-19.9-37.4-14-60.3c0.2-0.4-0.5-0.5-0.8-0.7c0.1-0.2,1.7,0.1,1,1.5
	c-0.7,4.4-1.5,9.1-1.6,12.8c0,0.4,0,0.8,0,0.8c24.5,11.4,21.5,36,15.2,44.6l1,1.3c0.4,0.3,19.3-10.8,18.7-11.2l3.6-1.8l-0.6-48.3
	l-14.1-1.1c0,0,0.2-0.4,0.3-0.5c0.1-3-0.1-7.3,0-11c0.1-10.4,0.2-14,0-14.3c-4.4-2.9-10.8-7.1-16.3-9.1c0.2,0.1-0.1,4.3-0.3,4.6
	c-5.1,1.6-2.7,3.7-4.6,6c-1.3,1.4-4.2,1.7-5.7,0c-1.7-1.7-2.5-5.5-2.5-5.5c-2.7,2.9-2.1,6.4-5.8,7.7c-5.8,2.9-7.7-5.8-7.3-5.6
	c-2.2,2.2-8.5,3.9-9.2-5.2c-2.8,2.6-6,1.3-7.3-1.9c-1.7,0.1-3.6,1.4-5.4,2.1c-1.6,0.7-3.7,1.1-5.2,1.1c-1.9,0.2-3.5,0.2-5.2-0.3
	c-0.8,0.3-2.6-0.5-3.2-1.7c-0.9-1-1.6-1.1-2.4-0.9c-2.8,1.5-5.8,1.8-9.1,3.4c-0.2,0.1,0.3,0.4,0.1,0.4c-0.1,0-1.7,0.8-1.7,0.8
	c16.7,22.1,17.6,44.4,14.1,60.2c-0.1,0.5-0.2,0.9,0.1,1.4c-0.5-0.1-0.5,0.1-0.6-0.3l1.7-13.3c0.1-1.6,0.3-1.5-1.1-2.1
	c-1.3-0.6-2.5-1.1-3.6-1.7c-4.1-3-8.7-6.8-10.9-11.4c-6.4-10-4.3-22,0.5-31.5L47,77.9C33,85,24.7,92.6,24.7,92.6l0.1,47.4l14.4,1.7
	L39.3,167.8z M32.4,136.2c-0.5-0.5-1.6-0.6-2.1-0.2c-0.1,0.1-0.4,0.6-0.4,0.6c-0.7-0.2-1.1-0.3-1.2-0.9l0.7-1.1
	c0.5-0.8,1.3-1.1,2.7-1.4c0.5-0.1,1.2-0.2,1.4-0.3c1-0.4,1.3-1.4,0.3-1c-0.7,0.2-1.8,0.1-1.9-0.5c-0.1-0.6-0.6-0.8-1.1-0.7
	c-1,0.2-1.9,0.7-2.7,1.3c-0.4,0.2-1.1,0.8-1.1,0.8c-0.1,0.2-0.5-1.1-0.1-1.5c0.5,0.1,0.9,0.1,1.4-0.1c1.2-0.5,2.3-1.1,3.5-1.5
	c0.8-0.3,0.8-0.3,0.6-0.8c-0.1-0.2-0.2-0.9-0.1-1.2c0.1-0.4,0.1-0.6-0.1-0.7c-0.5-0.4-1.8,0-3.7,0.9c-0.6,0.3-0.9,0.4-1.3,0.7
	c0.2-0.6,0.1-0.7,0.1-1.3c0.7,0.1,1.4-0.2,2-0.5c0.5-0.3,1-0.5,2.4-0.7c0.4,0,0.2-1.4-0.2-1.8s-1.2-0.4-2.2-0.1
	c-0.9,0.2-2,0.4-2.6,1.4c-0.8,0.7,0-1.2,1.4-2c0.6,0,2-0.3,2.3-0.4c0.5-0.1,0.6-1.4-0.2-2c-0.5-0.4,1.8-0.5,1.8-0.3
	c0,0.1-0.1,0.6,0.1,0.8c1,0.3,1,1.1,1.1,1.5c1.1,1.9,1.7,0.7,2.5,0.1c-0.2,4.1,1.3,4.6,1.5,4.8c-2,3.7-0.5,3.8,1.4,4.6
	c0,0-0.7,0.3-1.2,0.3c-0.7,0-2.1,0.8-2.8,1.3c-0.3,0.3-0.3,0-1.7,0c-1.3,0-1.4,0.1-2,0.3c-1.1,0.5-1.1,1,0,0.8
	c1.2-0.2,2.4,0.5,2.5,1.5c0.1,0.2,0,0.5,0,0.5c-0.2,0-0.8,0-0.8-0.1C32.6,136.9,32.6,136.5,32.4,136.2L32.4,136.2z M34.1,131.2
	c0.3-0.2,0.4-0.8,0.1-1c-0.3-0.2-1.3-0.1-1.7,0.2C31.9,130.9,33.1,131.8,34.1,131.2z M34.8,128.7c0.4-0.3,0.5-1.1,0.1-1.5
	c-0.6-0.7-2.1-0.3-2.2,0.6C32.6,128.8,34,129.3,34.8,128.7L34.8,128.7z M34.3,125.3c0.1-0.8-0.7-1.3-1.5-1c-0.9,0.5-0.4,1.5,0.8,1.4
	C34.3,125.7,34.3,125.7,34.3,125.3z M31.6,122c-0.4,0.2-0.5,0.7,0,1.1C33.2,123.9,32.7,121.5,31.6,122z M145.1,126.9
	c-0.7-2.6-2.7,0-2.7,0c-0.1-2.7,0.4-3.9-1.6-4.8c2-3.1,1.6-3.5-0.5-4.7c0.2,0,2.9-0.6,3.3-2.1c0.1,0.1,4.2,1.1,4.7-1.2
	c-1.2,0.6-3.6,0.6-3.7-1.8c0.2-0.1,0.8,0,0.8,0.1c-0.3,1.5,2.5,1.9,2.9,0.7c0,0,0.9,0.6,1.3,0.7c0,0-1.3,1.9-2.5,2.1
	c-2.2,0.7-2.9,0.9-2.9,1.3c0,0.2,0.4,0.2,1,0.3c1.3,0.1,1.3,0.4,1.5,0.8c0.2,0.4,0.3,0.5,0.8,0.4c1.5-0.5,2.3-0.8,3.4-1.9
	c0.1,0,0.3,1.1,0.4,1.2c0-0.2-1.1,0.1-2.8,1.1c-1.4,0.8-1.9,0.9-2.1,1.1c-0.1,0.2,0.2,0.7,0.2,1.2s-0.3,0.7-0.1,0.8
	c0.3,0.2,0.7,0.1,1.2,0c1.2-0.3,2.1-0.8,3.1-1.4c-0.2,0.4,0.2,1.5,0.2,1.5s-0.5-0.4-1-0.2c-0.8,0.4-2.2,0.9-2.6,1
	c-0.4,0.1-0.5,0.1-0.6,0.2c-0.2,0.1-0.1,0.5-0.1,1c0,0.4-0.1,0.7,0.1,0.8c0.5,0.2,1.5,0.1,2.5-0.2c0.4-0.2,1.4-0.7,1.4-0.7l-0.3,1.5
	c-0.4-0.4-1.5-0.1-2.3,0.2c-0.4,0.1-0.5,0.4-0.6,0.7c-0.2,0.6,0.2,1,0.6,1.1c0.3,0.1,0.7,0.1,0.7,0.1c-1.9,0.7-1.6,1-2.7,0.5
	C145.7,128.1,145.3,127.6,145.1,126.9L145.1,126.9z M147.1,126.9c-0.3-0.4-0.9-0.6-1.2-0.4s-0.2,0.5-0.1,0.7
	C146.1,127.8,147.8,127.6,147.1,126.9z M146,125c0.5-0.6,0-1.4-0.9-1.4c-0.6,0-0.9,0.4-0.9,0.8C144.2,125.3,145.6,125.5,146,125z
	 M145,122.7c0.8-0.2,1.1-1.1,0.5-1.6c-0.4-0.4-1.7-0.5-2.1-0.1C142.6,121.9,143.6,123.1,145,122.7L145,122.7z M145.7,119.7
	c0.5-0.3,0.6-0.7,0.2-1.2c-0.8-0.7-2.2-0.1-1.7,0.8C144.4,119.9,145.1,120,145.7,119.7L145.7,119.7z M44.5,96.9
	c0.7-0.3,1.3-0.9,2.1-1.3c0.5-0.3,0.4-0.2-0.3-0.6c-0.5-0.2-1.6-1.3-1.7-1.1C44.3,94.3,44.3,96.9,44.5,96.9z M63.3,123.4
	c0-0.5,0.1-1.3,0.1-1.9c0.1-1.1-0.1-0.8-0.7-0.4c-0.4,0.3-1.1,0.7-1.4,0.8c-1.1,0.5-0.9,0.6,0.6,1.3
	C63.1,123.8,63.3,123.7,63.3,123.4L63.3,123.4z M61.8,120.8c1-0.6,1.4-1,1.4-1.7c0-0.8-0.1-1.1-0.8-0.6c-2.5,2-5.1-1.9-2.8-4.1
	c0.5-0.4,1.1-1.1,1.1-1.3c0-1.3-1.4,0-2.5,1.7c-1.3,1.6-2.1,3.5-0.9,5.4C58.1,121.6,60.1,121.9,61.8,120.8L61.8,120.8z M56.1,118.3
	c0-0.6,0.1-1.3,0.2-1.5c0.3-0.7,0.3-0.8-1-0.2c-0.5,0.2-1.1,0.3-1.3,0.3c-1,0-0.8,0.3,0.7,1.6C56.2,119.7,56.3,119.8,56.1,118.3
	L56.1,118.3z M59.7,112.3c0.2-0.4-0.2-0.5-0.5-0.5c0,0-0.6,0.4-1.2,0.9c-1.9,1.5-3.4,1.7-4.3,0.5c-1-1.2-0.6-2.6,1.6-4.2
	c1-0.7,1.2-0.8,0.7-1.1c-0.4-0.2-0.4-0.2-1.8,0.7c-2.8,1.9-3.6,3.2-3.3,5.1c0.1,0.8,0.5,1.2,0.8,1.5
	C54.4,117.7,58.1,114.4,59.7,112.3z M62.5,113.4l-0.2-2.6c-2.8-2.5-5.5-6.6-6.4-10.1c-0.9-3.1-0.2-9.5,0-9l-1.5-2.9
	c-1.3,3.1-1.9,7.8-0.5,12.6C55.1,105.4,57.5,110.3,62.5,113.4L62.5,113.4z M50.6,111.9c0.9-1.7,0.9-1.5-0.8-1.6
	c-2,0-1.8-0.3-0.6,1.4C50,113.1,49.9,113.3,50.6,111.9z M51.8,109.5c1.1-0.4,0.9-0.3,2.4-1.3c1.7-1.1,1.8-1.8,0.1-0.9
	c-2.2,1.1-4.2,0.8-4.9-0.6c-0.7-1.3,0.7-2.9,2.9-3.6c0.8-0.2,1.2-0.4,1.2-0.7c0-1-3.8,0.3-5.4,1.9C45,107.3,47.6,110.8,51.8,109.5
	L51.8,109.5z M46.9,104.8c0.1-0.2,0.4-0.5,0.6-0.9c1.1-1.3,0.2-0.9-0.8-1.2c-0.5-0.2-1-0.4-1.3-0.3c-0.6,0.1,0.2,1.2,0.4,1.9
	C46.3,105.9,46.2,105.8,46.9,104.8z M50.9,102c1.9-0.2,2.1-0.4,2.1-0.8c0-0.4-0.2-0.3-1.2-0.2c-2.6,0.4-4.2-0.3-4.6-1.7
	s1.4-2.8,3.7-2.7c1.2,0,2.1-0.4,1.3-0.8c-0.4-0.2-3.8-0.2-4.6,0.1c-2.3,0.7-3.2,1.9-3,3.7c0.3,2.2,1.5,2.8,4.4,2.7
	C49.5,102.3,50.2,102,50.9,102z M52.4,94.9c0-0.3-0.5-0.4-2.4-0.7c-2.4-0.4-3.5-2.6-2-4c0.6-0.5,1.9-0.7,2.6-0.6
	c1.6,0.3,2.6,0.6,2.6,0.1s-0.5-0.5-3.4-1.2c-4.5-1-7,3.5-3.4,5.7C47.7,95.1,52.4,95.5,52.4,94.9z M53.5,88.5c0-0.2-0.1-0.3-0.5-0.4
	c-0.5-0.2-0.8-0.2-2-1c-1.5-1-1.9-3-0.9-4.1c1-1-0.8-2.2-2.2-1.1c-1.4,1.2-1.3,3.1,0.3,4.6C49.8,87.9,53.5,89.3,53.5,88.5z
	 M46.2,88.2c1.6-0.7,2.7-0.3,1.5-1.3C47,86.3,46.5,84.5,46,86c-0.4,0.9-0.6,2.5-0.6,2.7C45.5,88.7,45.4,88.6,46.2,88.2z M101.7,84.4
	c-1.8-0.4-3-2.5-2.6-4.5c0.3-1.1,1.3-3.8,1.5-4c0.8-0.6,0.7,0.2,0,1.7c-0.7,1.5-1.2,2.7-1,3.6c0.3,1.3,0.8,2.2,2.1,2.5
	c0.9,0.2,1.8-0.2,2.4-0.6c0.8-0.5,1.5-2,2.4-3.9c0.3-0.5,0.7-2.2,1.1-1.2c0.2,0.5-1.6,4.1-2.3,5C104.4,84,102.9,84.7,101.7,84.4z
	 M112.5,83.2c0.9,0.8,2.3,1.3,3.3,1c2.4-0.8,3.4-3.1,2.5-6.7c-0.5-2-0.8-3.3-1.2-3.5c-0.2-0.1-0.4,0.1-0.6,0.4
	c-0.2,0.3,0.1,0.6,0.4,1.6c1.1,4,0.8,5.8-0.5,6.6c-2,1.1-3.7-0.2-4.3-3c-0.1-0.4-0.4-1.3-0.4-1.3c-0.2-0.4-1.4-0.3-0.9,1
	C110.9,80.2,111.8,82.6,112.5,83.2z M122.6,72.7c0-1.4-3-7.5-3.2-6.9c0,0,0,1.4,0.1,2c0,0.2,0.2,0.4,0.3,0.6
	c2.6,4.6,2.2,7.8-0.1,8.5c-0.8,0.3-0.9,0.7-0.6,1c0.7,0.7,2.4-0.7,2.7-1.3C122.8,75.6,122.6,73.4,122.6,72.7z M79.7,71.7
	c1-1.1,3.1-4.8,3.7-6.8c2-5.8,4.1-12.5,4.7-18.8c0.1-0.8,0.1-2,0.1-2.1c-0.2-0.2-1.2-0.1-1.5,0.1c-0.2,0.2-0.1,0.7-0.1,1.3
	c-0.9,7-2.6,13.3-5,19.8c-1.1,2.8-2.1,4.7-3.4,6.6c-0.2,0.3-0.5,0.7-0.6,0.9c-0.3,0.5-0.1,0.8,0.3,0.6
	C78.7,72.9,79.3,72.2,79.7,71.7L79.7,71.7z M76.5,73.4c3.1-4.3,5.3-9.4,7-15.4c1.1-3.9,2-7.9,2.6-11.9c0.1-0.9,0.2-1.4,0-1.7
	c-0.4-0.1-1.2,0-1.5,0.2c-0.2,0.2-0.1,0.8-0.2,1.9c-0.4,3-1,6-2,9.9c-2.6,8.7-5,13.6-8.2,17.9c-0.3,0.4-0.5,0.6-0.5,0.7
	c0,0.2,0.3,0.2,0.8-0.1C75.2,74.4,76,73.9,76.5,73.4L76.5,73.4z M71.8,75.6c1.5-0.9,4.2-4.6,6-8.6c2.1-4.8,3.9-10.1,5-14.8
	c0.5-2,1.2-7.1,1.1-7.5c-0.1-0.4-1.6-0.1-1.4,0.2c0,0-1.5,8.2-3,12.7c-2.9,8.4-5.4,14-8.2,16.8c-0.4,0.4-1.1,1.1-1.1,1.1
	s0,0.3,0.2,0.4C71.1,76,71.4,75.8,71.8,75.6L71.8,75.6z M69.5,75.3c3.4-1.9,7.4-10.8,10.6-22.1c0.6-1.9,1.6-8.3,1.6-8.3
	s-1.4,0.1-1.6,0.3c-0.3,0.4-0.2,1.4-0.6,3.7c-1.5,7.1-3.7,13.6-7,20c-1.4,2.8-3.8,5.5-5.3,6.3c-0.8,0.4-1.1,0.9-0.5,0.9
	c1,0,1.1,0.3,1.9-0.2L69.5,75.3z M116,175.2c-2.5,0-4.7,2.5-6.6,5.5c-4.1,6.3-6.9,16.9-7.5,22.6l1.5-0.3c-0.2,0.1,2.9-15,7.6-21.4
	c2.6-4.1,2.5-4.1,3.9-4.5c1.8-0.5,3.3,1.5,2.4,2.7c-0.3,0.4-0.7,0.1-0.6-0.5c0.3-1.8-2.3-2.2-3.1-0.4c-0.9,2.1,1.4,3.9,3.7,3.1
	c2-0.7,2.8-3.5,1.4-5.6C118,175.7,117,175.1,116,175.2z M102.6,174.9c-3,3.9-4.6,7.8-6.4,13.2c-1.9,5.4-3.2,10.7-3.8,16.8l1.6-0.2
	c-0.1-3.9,4.2-22.5,10.1-29.4c0.3-0.4,0.6-0.8,0.6-0.9C104.4,173.4,103,174.5,102.6,174.9z M109.3,173.5c-4,3.3-7.1,10.4-9.2,17
	c-2.2,7.1-3.3,13.6-3.1,13.6l1.6-0.2c-0.1-0.4,4.4-25.5,12.8-30.1c0.7-0.4,0.9-0.7,0.3-0.9C110.7,172.8,110,173.1,109.3,173.5z
	 M113.7,173.5c-8.6,1.1-14.3,27.8-14.5,30v0.2l1.7-0.4v-0.1c1.2-6.8,2.3-11.6,5-17.8c2.1-4.6,5-10.4,9.3-11c0.4,0,0.7,0.1,0.6-0.3
	C115.6,173.5,114.3,173.5,113.7,173.5L113.7,173.5z M62.3,165.1c-3.1,0.8-3.2,4.6-1.1,9.4c0.2,0.4,0.1,0.6,0.3,0.7
	c0.4,0.3,0.6-0.1,0.7-0.4c0.1-0.4-0.1-1-0.5-1.9c-1.3-3.3-1-5.3,0.3-6.1c3.3-1.7,4.1,1.8,4.6,3.4c0.1,0.4,0.2,0.9,0.4,1
	c0.7,0.1,1-0.1,1-0.1s-0.9-3-1.4-4.1C65.7,165,63.7,164.7,62.3,165.1L62.3,165.1z M39.7,168.6v39.7l-6,5.7c-2.6-2.2-5.9-5.7-5.9-5.7
	l0.1-67.1L26,141c-0.5,28.8,0,58.3,0,87.2h17.5l14.6-23c0,0,0.2-0.3,0.2-0.4c0.2-0.4,0.2-1.1,0.1-3.6c0-1,0.1-1.8-0.1-2
	c-0.1-0.2-0.5-0.1-0.8,0.1c-0.3,0.1-0.5,0.1-0.3-0.3c0.1-0.2,0.4-0.6,0.6-1.1c0.8-1.4,1-1.8,0.7-3.3c-0.1-0.4-0.4-0.7-0.7-1.1
	c-2.5-3.7-3.5-9.1-2.2-13.1c0.4-1.8,0.2-2.1-0.6-3.5L39.7,168.6z M117,125.9c-1.6-0.8-1.6-0.8-1.6,0.8c0,1.2,0,1.5,0.5,1.3
	c0.6-0.3,1.4-0.6,2-0.9C119,126.8,117.5,126.3,117,125.9z M123.3,130c-1.2-1-0.8-0.9-1.1,1.4c-0.2,1.4-0.5,1.4,0.9,0.9
	c0.8-0.3,2.4-0.1,1.7-1C124.8,131.3,123.6,130.2,123.3,130z M73.3,164.8c-1.9,1.2-3.9,6.8-3.9,6.8c-6.7,0.8-9.5,7.4-9.8,13
	c-0.2,4.4-0.5,9.5-0.1,9.9c4.4-2,6.1,0.3,6.5-0.3c0.2-0.3-1-1.2-2.4-2c-0.3-0.2-0.9-0.5-1.1-0.7c-0.5-0.4,1.1-0.1,2.1,0.6
	c1.3,0.9,1.5,0.7,0.9-1.9c-0.6-2.8-0.7-3.1,1.4-4.3c0.9-0.4,1.3-0.8,2-1.5c0.5-0.6,0.6-0.7,0.4,0.1c-0.3,1.4-1.6,2-2.7,2.6
	c-0.6,0.3-0.8,0.9-0.8,1.4s0.6,3.2,0.8,4.1c0.2,0.8,0.3,1.7,0.5,2.5c0.5,2.2,0.5,2.6,0.3,4.2c-0.1,0.9-0.2,1.5-0.2,2
	s0.1,1.2,0.1,1.2s-1.2-1.2-3.8-0.2c-1.9,0.7-3.4,0-4.4-0.6c-0.2,0.9-0.2,1.8-0.2,2.8c10.9,2,20.1,1.7,28,0.9
	c0.2-2.3,1.2-9.8,3.3-16.4c0.9-2.8,1.8-5.7,2.9-7.7c0.7-1.3,1.5-2.2,1.8-2.4c0.1-0.1,0.1-0.1,0.1-0.1v-0.2c0-0.4-0.1-1.1-0.5-1.4
	c-0.9-0.7-2.3,0.2-2.8,1.8c-0.4,1-2.3,5.2-2.4,5.1c-0.1-0.1-0.4-0.1-0.3-0.4c0.7-1.7,1.7-3.5,2.3-5c0.8-2.2,2.5-3.4,3.7-2
	c0.4,0.5,0.6,0.9,0.8,1.1c0.1,0.1,0.3,0,0.5-0.2c0.5-0.7-0.6-2.4-1.8-2.7c-1.7-0.5-3,0.8-4.9,4.8c-1.1,2.3-1.3,2.9-1.5,2.8
	c0,0-0.3,0-0.2-0.4c0.2-1,1.7-3.8,2.8-5.6c1.6-2.7,4.5-2.9,5.8-0.6c0.2,0.3,0.2,0.7,0.4,1c0.4,0.5,1,0.4,1.2-0.4
	c-0.2-0.5-1.2-2.5-1.9-2.8c-1.7-1.1-3.7-0.9-5.4,0.6c-0.4,0.3-0.8,1-1.9,3.3c-1.7,3.7-1.7,3.7-2.1,3.1c0.7-1.8,2.4-4.7,3.1-6.5
	c0.1-0.3,0.2-0.6,0.2-0.8c0-1.3,0.2-3.6-2.6-5.2c-2.3-1.3-5.4,0.1-6.4,2.6c-0.8,1.9-1.4,3.2-1.8,3.5c-0.6,0.4-0.5-0.1-0.4-0.3
	c0.8-1.7,1.9-3.5,2.1-5.2C81.1,164.1,76.3,162.4,73.3,164.8L73.3,164.8z M49,76.8c3.7-1.7,6.2-2.6,9.9-3.7c0.5-0.2,0.6-0.3,0-1.4
	c-2.4-4.7,4.1-8.5,6.4-3.9c0.3,0.6,0.4,1,0.7,0.7c0.5-0.7,1.2-1.7,1.9-2.9c2.5-3.9,3.6-8.3,4.9-12.3c0.6-2.3,1.3-4.7,1.5-7.2
	c-4.9-8.7-13.6-24.6-13.6-24.6H25.9v69.7C35.6,83,42.2,80.1,49,76.8L49,76.8z M87.9,74.2c0.4-0.4,0.8-1.2,2.3-4.3
	c0.3-0.6,0.7-1.4,0.9-1.8c0.2-0.7,1.1-1.2,0.7,0.1c-0.1,0.3-0.3,0.7-0.5,1.2c-0.5,0.9-1,2-1.3,2.8c-1.9,3.9-1.8,6.2,0.3,7.9
	c1.6,1.6,5,1.7,6.8-0.8c0.3-0.4,0.5-0.9,0.6-1.1c0.8-1.9,1.4-2.9,1.5-3.1c0.8-1,0.9,0.2-0.3,2.2c-1.4,2.2-1.4,4.7-0.2,6.4
	c1.8,2.5,5.1,2.6,7.2,0.6l0,0c1.1-1.3,1.9-2.9,2.6-5c0.2-0.5,0.3-0.8,0.4-1.1c0.2-0.4,0.4-0.6,1.1-0.7c4.4-0.9,8.2-5.5,8.7-10.5
	c0.1-0.7,0.3-1.9,0.3-2.6c0.1-1.4,0.1-8.8,0-9.3c-0.1-0.2-0.2-0.4-0.5-0.4c-0.2,0-0.5,0.1-1,0.2c-1.5,0.5-2.1,0.7-3.6,0.2
	c-0.5-0.2-0.8-0.2-1-0.2c-0.6,0.1,0.2,1,2,1.9c0.8,0.4,1.4,1,0.8,1c-0.2,0-2.4-1.2-2.7-1.3c-1-0.6-0.7,0.2-0.2,2.2
	c0.7,2.7,0.3,3.5-1.9,4.6c-0.4,0.2-0.9,0.6-1.2,0.9c-1.1,1.7-0.8,0.4-0.3-0.5c1-1,0.4-1.4-1.6-0.7c-2.3,0.8-3.3,0.2-4-1.1
	c-0.7-1.5,0.6-3.3,1.8-3.3c0.4,0,0.3,0.1-0.2,0.5c-0.7,0.5-1,0.9-1,1.7c-0.1,1.6,1,2.2,2.5,1.2c0.7-0.5,1.3-0.8,1.9-1
	c0.6-0.1,1.4,0.1,1.4,0.5c0,0.2,0,0.6,0,0.7c0.1,0.5,0.9-0.2,1.3-0.5c1.2-0.9,1.1-1.1,0.8-2.5c-0.5-2-0.8-3.8-1.3-5.9
	c-0.3-1.1-0.3-2.3-0.1-3.4c0.1-0.5,0.3-1.7,0.3-2.4c0-0.8,0-1.9,0-1.9c1.2,0.9,1.6,1.1,2.8,0.6c1.8-0.7,2.9-0.7,4.3,0.1
	c0.5,0.3,1,0.5,1,0.5l0.1-2.3c0,0-1.4-0.3-3.9-0.6c-7.6-1-23.2-1.2-23.8-0.3c-0.1,0.2-0.3,1.9-0.7,4.2c-0.9,4.8-2,9.5-3.3,14.1
	c-0.3,0.9-0.6,1.3-0.4,1.4c0.1,0,0.3-0.4,0.5-0.5c0.7-0.9,0.2,1.2-0.9,3.7c-0.1,0.2-0.2,0.5-0.2,0.5c0,0.1-0.7,1.9-1.2,2.9
	c-0.3,0.6-0.6,0.8-0.5,0.4c0.3-1.4,1.2-3.3,1.4-4.5c-0.8,1.1-1.9,3-2.8,4.2c-0.2,0.3,0,0.4,0.1,0.8c0.5,1.4,1.8,1.5,2.5,0.3
	c0.4-0.7,1.7-3.4,2.1-4.6c0.5-1.2,0.8-1.8,0.9-1.9c0.3-0.2,0.4,0.5-0.2,1.7c-1.6,3.5-2.3,5.4-3.1,6.1c-0.6,0.6-1.7,0.5-2.3-0.5
	c-1-1.7-1.9-1.1-0.9,0.6c1,1.8,3.1,1.9,4.3,0.3c0.4-0.5,2.1-3.9,2.7-5.3c0.3-0.8,0.6-1.4,0.8-1.4c0.6-0.2-0.1,1.5-1.8,5.1
	c-0.6,1.4-1.4,2.8-2.6,3.2c-2.9,0.6-3.3-0.9-4.3-2.7c-0.5-0.4-0.9,0.3-0.8,1c0.3,1.3,0.9,1.8,1.8,2.4C84.4,76.4,87,75.6,87.9,74.2
	L87.9,74.2z M100.9,81.6c-0.3-0.6-0.2-1.2-0.1-1.8c0.3-1.3,0.8-2.5,1.4-3.6c1-0.5,0.2,1.4,0.1,1.6c-1.2,2.4-1.3,3.4-0.2,3.7
	c0.9,0.2,1.4-0.3,2.3-2.5c0.4-1.1,0.6-1.6,0.8-1.7c0.3-0.1,0.5,0,0.5,0.3c-0.6,1.4-1,2.9-2,4.1C102.8,82.7,101.4,82.7,100.9,81.6z
	 M92.3,79.8c-0.4-0.1-1.1-0.6-1.6-1c-1.6-1.5-1.4-3.6,0.7-7.5c0.2-0.3,0.7-1.5,0.9-1.9c0.3-0.7,0.7-0.4,0.7,0c0,0.1-0.5,1.2-1,2.2
	c-2.2,4.4-2.2,6.2,0,7.3c2.1,1,3.1,0.4,4.8-2.9c1-2.5,1.5-2.6,1.4-1.6c0,0.4-1.2,2.8-2,3.9C95.1,79.8,94.1,80.1,92.3,79.8z
	 M92.4,77.6c-0.8-0.5-1.2-1.8-0.7-2.9c0.4-0.9,1.6-4.2,2.1-4.4c0.9,0,0.4,0.7-0.7,2.8c-1.3,2.7-1.2,3.5-0.2,3.9
	c0.9,0.4,1.3-0.4,2.7-3.6c0.2-0.5,0.5-1,0.7-0.9c0.2,0,0.6,0.1-0.1,1.6c-0.2,0.3-0.5,1.1-0.8,1.7C94.5,77.8,93.5,78.3,92.4,77.6
	L92.4,77.6z M107.5,71.8c-0.4-0.2-2.1-0.9-1.8-1.4c0-0.1,0.1,0,0.2,0c1.6,1.1,3.5,1.3,5.6-0.1c0.3-0.3,0.6-0.1,0.4,0.3
	C111.2,71.8,108.4,72.3,107.5,71.8z M102.4,70c0-0.1,0.2-0.5,0.3-0.9c0.2-0.7,0.1-1.2,0.3-1.2c0.7,0.4,2,0.4,2.6,0
	c0.7-0.4,2.1-0.6,2.6-0.2c0.7,0.5,1.1,0.3,1.6-0.1c0.6-0.5,0.6-0.3,1.6,0.1c0.8,0.3,1.1,0.5,1.4,0.4c0.1,0,0.4-0.3,0.5-0.3
	c0.2,0,0.3,0.8,0.5,1.6c0.2,0.7,0.1,0.9-0.6,0.5c-0.5-0.3-1.8-0.5-3.3,0c-1,0.3-1.3,0.2-2.1,0.1c-1.9-0.3-3.3-0.6-4.7,0.3
	C102.4,70.5,102.2,70.8,102.4,70L102.4,70z M97.6,66.5c-0.9-1.9,1.2-4.4,3.1-3.5c0.6,0.3,1.2,1.4,0.3,0.9c-4.3-0.9-3.2,5.5,1.4,2.1
	c3.1-2,5.2-2.4,5.4-0.4c-0.1,0.7-0.7,0.6-1.2,0.7c-1.3,0.2-1.7,0.4-3.2,1C101.1,68,98.9,68.6,97.6,66.5L97.6,66.5z M114.4,67.4
	c-1-0.3-2-0.7-3-0.9c-1.1-0.2-1.6-0.8-1.4-1.5c0.2-0.8,1.3-0.9,2.9,0.1c1.8,1.1,3.1,1.4,3.8,1c1.3-0.8,0.6-2.2-0.7-2.6
	c-1-0.3-0.3-0.6,0.8-0.3c1.7,0.6,1.7,3.6,0,4.3C116.2,67.6,115.2,67.5,114.4,67.4L114.4,67.4z M99.8,57.4c1.2-0.8,2.4-1.4,2.8-1.9
	c0.2-0.2,0.8-1,0.4-0.8c-2.5,1.5-5.4,0.3-7.4-0.8c-1-0.5-0.8-0.3-1.5-0.2c-0.5,0-0.9,0.1-1-0.2c0-0.2-0.3-0.1-0.5-0.1
	c-0.8-0.1-0.3-1.1,1.3-2.2c1.9-1.3,3.6-2.2,5.2-2.6c1.7-0.4,3.5-0.2,4.7,1.1c0.5,0.5,0.4,0.8,0.9,0.5c1-0.7,1,0.2,0.2,1
	c-0.6,0.6-0.4,0.7,0.4,1.3c0.3,0.3,0.1,0.5-0.1,0.9c-0.1,0.2,0,0.5-0.1,0.7c-0.2,0.8-3.8,3.7-5.1,4.1C99,58.3,99.5,57.6,99.8,57.4
	L99.8,57.4z M102.3,52.1h-0.6c-0.7,2.1-2,2.8-3,0.3h-0.5C98.2,54.6,101.9,56,102.3,52.1z M98.4,54.1c-0.2-0.4-0.5-1.4-0.8-1.4
	c-0.7,0-1.7,0.1-1.5,0.5C96.5,54,98.7,54.6,98.4,54.1z M103.2,53.8c0.7-0.4,0.8-0.7,0.4-1.1c-0.5-0.6-0.8-0.3-1,0.6
	C102.4,54,102.5,54.2,103.2,53.8z M94.4,52.3c4.4-2,6-2.3,7.8-1.8c0.4,0.1,0.8,0.3,1,0.3c0.9-0.1,0.3-1-1.2-1.6
	c-1.7-0.6-2.8-0.3-6.2,1.4C93.8,51.7,92.2,53.3,94.4,52.3L94.4,52.3z M107,49.8c-0.1-0.1-0.3-0.9-0.4-1.2s-0.1-0.6-0.2-0.6
	c-2,0.3-3.8-0.1-4.3-0.2c-3.1-0.7-6-0.6-8.2,0.3c-0.5,0.2-1.2,0.6-1.3,0.6c-0.2,0.2-0.4,0-0.4-0.2s1.4-1.3,2.2-1.8
	c2.6-1.3,5.4-1.5,8.4-0.7c2,0.8,3.2,0.6,4.5,0.1c0.6-0.3,0.2,0.4,0,1.3c-0.1,0.6,0,1.1,0,1.5C107.3,49.8,107.3,50.2,107,49.8
	L107,49.8z M152.7,228.2v-69.9c-17.4,12.1-25,14.5-33.2,17.5c2.7,5.6-3.3,10.5-6.8,4.7c-3.6,4-8.5,18.2-8.6,22.9
	c0,0,9.5,16.5,14.1,24.8H152.7z M89.4,205.3c0.3-3.5,1.1-9.5,3.4-16.4c1-2.9,2.1-6.2,3.8-9.2c0.7-1,0.7-1.4,0-1.1
	c-0.4,0.2-2.5,2.5-2.7,3.1c-3.1,6.6-4.5,14.6-5.7,20.6c-0.3,1.4-0.3,3.1-0.3,3.1L89.4,205.3z M91.7,205c0.7-8.5,3.9-20.1,8.5-27.6
	c0.4-0.7,1-1.3,1-1.6c-0.1-0.7-1.9,0.5-3.3,2.7c-1.6,3.1-3.1,6.5-4.3,10.1c-1.7,5.2-2.9,10-3.4,16.5L91.7,205z M96.2,204.3
	c0.5-4.9,2-9.4,3.3-14c1.6-5.5,3.6-9.6,6-13.3c0.8-1.2,1.7-2.3,2.6-3.4c0.1-0.1,0.2-0.4,0.2-0.5c-0.6-0.1-1,0.1-1.4,0.3
	c-0.6,0.3-1.4,1.2-1.9,1.8c-3.4,4.4-5.3,9.6-7,14.8c-1.6,5-2.8,9.8-3.1,14.4L96.2,204.3z M65.3,200.5c0.7-0.1,1.1,0.1,1.3-0.1
	c0.2-0.2,0.1-0.7,0.2-1.3c0.1-1.4,0-1.3-0.8-0.4c-1.4,1.4-3.9,2-5.4,1.1c-0.8-0.4-1.3-0.7-1.4-0.4c-0.1,0.4,0,0.8,0.4,1
	C61.4,201.3,63.1,200.7,65.3,200.5z M63.7,199.5c1-0.3,1.9-0.8,2.5-1.6c0.5-0.8,0.5-0.9,0.1-0.7c-2,1-3.2,1.5-5,1.2
	c-2.4-0.4-2.5-0.1-0.9,0.9C61.4,199.9,62.2,199.9,63.7,199.5z M60.2,196.5c0.4-0.3,0.5-1.4,0.2-1.4c-0.3-0.1-0.7,0.5-0.8,0.9
	C59.4,196.5,59.8,196.7,60.2,196.5L60.2,196.5z M63.8,196.4l0.6-0.1c-0.3-2.8-3.3-2.9-3.9,0.3l0.5,0.1
	C61.7,194.2,63.5,194.2,63.8,196.4L63.8,196.4z M65.8,196c0.9-0.5,0.6-1.2-0.6-1.4c-0.8-0.2-0.8,0.5-0.3,1.4
	C65,196.4,65.2,196.3,65.8,196L65.8,196z M58.8,192.6c0-0.3-0.1-0.8-0.3-1.1c-1.1-2.2-1.6-4.8-1.5-8c0.1-2.3,0.1-3-0.4-3
	c-0.7,0.3-1.1,4.6-0.2,8.2C57,191.1,58.8,194.2,58.8,192.6z M58.7,189.1c-0.1-1.2,0.2-3.9,0.1-4.5c-0.2-0.8-0.6-1.5-0.9-1.7
	c-0.4-0.3-0.5,0.3-0.4,1.7C57.9,188,58.4,190.6,58.7,189.1L58.7,189.1z M59.1,182.9c0.3-0.5,0.2-1-0.4-2.1c-2.3-4.5-2.6-7.5-0.2-8.6
	c0.3-0.1,0.4-0.1,0.6-0.2c0.7-0.4,0.5-1.2-0.7-0.9c-3.1,0.9-3.7,3.8-1.1,9.2C58.6,182.9,58.9,183.3,59.1,182.9z M59.6,180.4
	c0-0.2,0.1-0.9,0.2-1.1c0-0.1-0.3-0.6-0.6-1.4c-0.9-2.2-0.9-3.2,0.1-3.8c0.3-0.2,0.6-0.2,0.7-0.4c0.1-0.3,0.1-0.9-0.1-1
	c-1.4,0-2,0.8-2.2,1.6c-0.4,1.2,0,3,1.1,5.1C59.1,180,59.4,181.3,59.6,180.4L59.6,180.4z M60.7,177.5c0.7-1.5,0-3.4-1-2.7
	c-0.6,0.4-0.7,0.9-0.3,2.1C59.9,178.3,60.2,178.5,60.7,177.5z M63.2,173.5c0.3-0.3,0-0.7-0.5-2.3c-0.5-1.4-0.2-2.4,0.6-2.6
	c1.3-0.3,1.7,1.8,2,2.6c0.1,0.7,0.6,0.9,1,0.4c0.1-0.1,0.1-0.2,0-1c-0.8-3.2-1.9-4.2-3.6-3.4c-1.6,0.7-1.4,2.4-0.2,5.9
	c0.2,0.5,0.3,0.8,0.4,0.9C62.9,174,63.1,173.7,63.2,173.5z M64.6,172.4c0.4-0.4,0.4-0.2-0.1-1.5c-0.5-1.5-0.7-1.8-1.3-1.3
	c-0.3,0.3-0.2,0.7,0.2,1.9C63.9,173,64,173,64.6,172.4L64.6,172.4z M130.4,167.2c2.5-1.7,1.5-4.9-1.8-6c-0.4-0.1-0.8-0.3-1-0.4
	c-1.5-0.7-2.7-1-2.7-0.4c0,0.3,0.5,0.5,1.9,1.2c2.1,1.1,2.6,2.3,1.6,3.8C127.6,166.6,129,167.8,130.4,167.2z M132.6,163.4
	c0.2-0.9,0.5-1.7,0.7-2.2c0.2-0.8-0.1-0.6-0.6-0.5c-1.4,0.7-2.4,0.3-1.7,1.3C131.8,163.4,132.4,164.4,132.6,163.4z M132.5,160.3
	c1.7-1,2.1-3.7,0.5-5c-0.4-0.3-1-0.7-1.8-1c-1.6-0.5-4-0.7-4.8-0.5c-0.2,0.2-0.2,0.6,0,0.7c0.2,0.1,0.7,0.1,1.3,0.2
	c2.4,0.2,3.6,1,3.5,2.7c-0.1,1.8-1.5,2.4-4,1.9c-1.4-0.3-2-0.2-1.4,0.2c0.6,0.4,2,0.9,3.4,1.2C130.1,160.8,131.5,160.9,132.5,160.3
	L132.5,160.3z M124.2,159.8c1.9-4.4,3-15.9-8.1-24.2l0.4,2.3c6.5,5.8,8.1,13.1,6.7,19.8L124.2,159.8z M134.1,152
	c-0.7,0.5-1.3,0.9-2.2,1.3c-0.5,0.2-0.5,0.3,0.2,0.7c0.3,0.2,0.9,0.5,1.1,0.8c0.4,0.4,0.8,0.6,1,0.4
	C134.2,154.6,134.5,152.4,134.1,152z M130.8,152.8c2.2-0.7,3.4-1.8,3.2-3.6c-0.4-2.7-2.6-3.2-6.7-2.2c-2,0.5-2.2,1.4-0.3,1
	c2.4-0.6,4.3,0.3,4,2.1c-0.1,1.5-1.4,2.4-3.5,2.4c-1.1,0-1.5,0.1-1.3,0.5C126.3,153.2,129.9,153.1,130.8,152.8z M127.1,146.5
	c3.7-1.3,5.4-3.2,4.5-5.4c-1-2.6-4.2-2.6-7.4-0.2c-1.5,1.1-1.3,1.5,0.2,1c1.9-0.9,3.1-1,3.9-0.3c1.4,1.3,0.5,3.4-1.7,4.2
	c-1,0.4-1.4,0.7-1.4,1C125.3,147.2,125.5,147,127.1,146.5L127.1,146.5z M133.3,146.4c0.1-0.8-0.8-3.4-1.1-2.8
	c-0.1,0.2-0.4,0.9-0.9,1.3c-1.3,1.1-1,0.7,0.2,1.1C132.2,146.2,133.2,146.7,133.3,146.4z M123.6,140.8c3.7-2.2,5.1-5.2,3.2-7.3
	c-1.7-1.8-4.6-0.8-7.2,2.6c-1.2,1.5-0.3,1.3,1.3-0.1c1.9-1.7,4.3-0.9,4.3,1.2c0,0.9-1.3,2.4-2.5,3.1c-0.4,0.2-0.4,0.6-0.3,0.8
	C122.6,141.3,122.9,141.2,123.6,140.8z M130.1,138.5c-0.2-0.6-1.6-3.1-1.9-3c-0.3,0.6-0.3,1.5-0.7,2.2c-0.5,1-0.5,0.9,1.2,0.9
	C129.9,138.5,130.1,138.7,130.1,138.5L130.1,138.5z M119.2,135.7c3.1-3.3,3.4-7.1,0.5-7.9c-1.6-0.5-4.2,0.7-4.2,1.9
	c0,0.8,0.1,0.9,0.8,0.6c2.7-1,4.9,1.6,2.4,4.7c-0.6,0.9-0.7,1.1-0.5,1.3C118.4,136.5,118.5,136.4,119.2,135.7z M152.7,107.9V21.5
	h-18.2L120,44.4V50c0,0.2,0.3,0.3,0.5,0.1c0.8-0.6,0.5,0-0.4,1.5c-1,1.5-0.7,2.7,0.4,4.2c2.2,3.3,3.4,9.4,2.4,12.6
	c-0.4,1.2-0.4,1.7-0.2,2.4c0.3,0.8,0.4,1.2,1.2,1.7c0.7,0.5,6.2,2.6,15,8.4V40.4l5.6-5.4l5.9,5.7l0.2,66.8
	C150.6,108.3,152.7,108.9,152.7,107.9L152.7,107.9z M149.5,40.9l-4.9-4.6l-4.9,4.6c0,21.8,0.1,66.5,0.1,66.5l4.8,0.4
	c0,0,0.4-1-0.1-3.7c-0.7-4-0.6-8.8,0.5-16.1c0.7-4.5,0-8.4-1-12.5c-0.9-2.7-0.9-5.3-0.8-7.7c0.3-3.9,1.4-6.9,1.5-12.5
	c0.1-3.2-0.1-6.3,0-10.3c0-0.5,0.3-0.5,0.3,0.1c0.1,3.6,0.3,7,0.3,10.5c-0.1,4.5-1.2,9.2-1.3,13.4c-0.1,2.9-0.1,3.9,1.1,7.4
	c1.9,5.5,0.6,14,0.6,14.1c-0.8,5.4-1.4,12.4,1.3,17.6l2.6,0.2L149.5,40.9z M115.6,82c1.5-0.7,1.7-1.9,1-4.7
	c-0.1-0.5-0.3-1.1-0.4-1.4c-0.2-0.7-0.5-0.8-0.9-0.2c-0.3,0.3,0,0.4,0.4,2c0.6,2.4,0.2,3.2-0.6,3.2c-0.8,0-1.4-0.7-1.6-2.2
	c-0.1-0.5-0.2-0.9-0.3-1.1c-0.2-0.4-0.5-0.3-0.7,0.1c-0.3,0.5,0.2,2.6,0.9,3.6C114,82.3,114.5,82.5,115.6,82z M115.2,79.9
	c0.3-0.6-0.1-2-0.3-3c-0.2-0.5-0.4-0.7-0.7-0.6c-0.5,0.1-0.5,0.7-0.3,1.6C114.2,79.9,114.4,80.1,115.2,79.9z M119.6,76.4
	c1.7-1,1.8-2.6,0.7-5.6c-0.5-1.2-1-2.1-1.3-2.1c-0.1,0.8-0.2,1.2-0.1,1.5c0.1,0.3,0.3,0.7,0.5,1.1c0.9,2.2,0.7,3.5-0.2,4.2
	C118.3,76.1,118.8,76.7,119.6,76.4L119.6,76.4z M65.1,75.3c3.9-0.8,7.4-7.2,9.7-12.8c2-5.7,4.2-11.9,4.5-17.1c0,0-1.5,0.1-1.7,0.4
	c-0.2,0.3-0.2,1-0.4,1.9c-1,4.8-1.8,8.4-3.6,12.9c-1.2,3.1-2.6,6.7-5.9,11.4c-1.1,1.3-2.4,2.2-3.9,2.4c-0.4,0.1-1.1,0-1.2,0.1
	c-0.3,0.2,0,0.7,0.7,0.9C63.9,75.5,64.6,75.4,65.1,75.3L65.1,75.3z M118.9,74.5c0.6-0.6,0.7-1.4,0-3c-0.2-0.5-0.3-0.7-0.5-0.6
	c-0.5,0.1-1,1.4-0.7,2.4C118.1,74.7,118.4,75.1,118.9,74.5L118.9,74.5z M63.7,73.5c1.1-0.2,2.6-1.1,3.6-2.5c2.2-2.8,3.6-6.1,4.7-8.6
	c0.9-2,2.5-6.4,2.9-8c0.9-3.4,1.4-5.5,1.8-7.9c0-0.2,0.1-0.6,0-0.7c-0.5-0.1-1.4-0.1-1.8,0.3c-0.5,3.9-1.8,7.7-2.8,10.9
	c-1.6,5.5-6.1,14.2-8.5,14.6c-1.3,0.2-2.8-0.9-2.6-2.1c0.1-0.7,0.2-1,0.6-1.2c0.9-0.3,1.3,0.3,0.4,0.7c-1.1,0.9,0.9,2.4,2.1,1.4
	c2-1.7-1-5-3.4-3.5c-2.7,1.7-2,4.6-0.3,6C61.5,73.6,62.5,73.7,63.7,73.5L63.7,73.5z M82.8,69.6c1.7-1.7,2.9-4,3.8-6.8
	c2-6.3,3.6-13.5,4.2-19.1c0,0-1.4-0.1-1.7,0.2c-0.2,0.2,0,0.4-0.6,4.5c-1,6-2.5,12-4.7,17.1c-0.9,2.1-1.1,2.3-1.8,3.4
	C81.3,70.5,81.6,70.9,82.8,69.6z M119.9,56.5c-0.2-0.1-0.1,0-0.2,0c-0.2,0.2-0.1,1,0.4,2.2c1.4,2.2,1.5,6.5,1.4,8.1
	c0,0.5-0.1,0.8,0.1,1.2c0.1,0.4,0.4,0.9,0.8,0.1c0.4-3.2,0.1-6.5-1.1-9.2C120.9,58,120.5,57,119.9,56.5L119.9,56.5z M120.9,65.9
	c0.2-0.9-0.2-4.2-0.7-5.4c-0.2-0.5-0.6-0.5-0.6,0c0,1.2-0.1,3.4,0,4.1C120.2,65.9,120.7,66.8,120.9,65.9L120.9,65.9z M117.9,52.2
	h-0.6c0,2.2-1.9,2.8-2.7,0.2l-0.6,0.1C114.7,56.3,118.2,54.5,117.9,52.2L117.9,52.2z M113.9,53.9c-0.3-1-0.2-1.3-1-0.9
	c-0.6,0.3-1,0.7-0.1,1.1C113.6,54.5,114.2,54.5,113.9,53.9L113.9,53.9z M118.8,53.3c0.3-0.5,0.2-1-0.2-1c-0.3,0-0.4,0.2-0.5,0.8
	C118,54,118.4,54.2,118.8,53.3z M119.2,49.6c0.2-0.1,0.2-0.4,0.1-0.9c-1.1-1.5-3.7-1-4.6-0.7c-1.1,0.4-1.4,0.2-2.1-0.1
	c-0.6-0.1-0.7,0-0.8,0.3c-0.1,0.3-0.2,0.8-0.2,1.6c0,0.7,0,1.1,0.2,0.8c1-0.9,2.1-2,3.7-2C117.5,48.5,119.2,49.6,119.2,49.6
	L119.2,49.6z M112,51.6c0,0.3,0.3,0.1,0.9-0.3c2.4-1.4,3.7-1.2,5.7-0.5c0.4,0.1,0.7-0.3,0.2-0.7C116.4,48.1,113.5,49.3,112,51.6z
	 M120.5,42.5l12.8-21.2l-71-0.1l12.1,22.6C84.1,41.5,100.3,38.5,120.5,42.5z"/>
<path fill="#E2CF00" d="
	M57.5,208.7c1.5-2.3,9,1.8,9.4,3.4c4.4-3.5,9.8-3.8,14.1,0.6c4.4-4.9,9.2-4.5,14.1-1.7c-0.6-1.1,6.3-6,10.5-2.9l11.3,20.2l-72.2,0.2
	C48.8,222.1,52.6,214.4,57.5,208.7z M25.9,103.2c-0.4-1.1-2-12.3,2-12.6c6.5,2.9,14.8,13.3,18.6,19.6c4.8,7.9,9.6,26,6.9,25.2
	c-0.4-0.1,8.2,8.6,8.8,9.4c1,1.4-14.5,27.3-17,26.4c-0.8-0.3-5.9-3.4-5.9-3.4l0.1-8.7l0.1-17.5l-14.2-1.2l0.5-3.8
	c4.8,0.4,9.6,1.3,14,0.3c2.9-5.3,1.8-13.3-1.7-16.5c-1.8-1.1-3.6-0.8-5.4-0.5C25.3,118.5,29.2,105.7,25.9,103.2z M152.7,108.9v3.2
	c-5,1.1-13.8-3.2-16.5,3.7c0.3,7.4,2,10.7,3.1,13c0.9,2,6.9-0.3,9.1,1.7c6.1,7.6,4.7,17.7,4.7,26.9l-2.7,1.4
	c-18.4-10.9-32.5-44.9-34.5-54.6C115.8,98,132.8,78,132.8,78l6.2,3.8c0.1,0.1-0.1,26.2-0.1,26.1
	C143.9,108.1,148.6,108.6,152.7,108.9z M116.3,85.1c-21.5,37.8-12.7,65.8,3.1,89.9c0,0-1.4,0.3-1.5,0.2c-3.5-3.1-5.9-2.6-7.6-2.6
	c-3.4-0.1-4.3,1-6.3,1.2c-5,0.5-4.5,0.6-8.7-1c-5.3-4.4-12.4-7.7-18-9.5c-4.5,0.4-11.4,2.6-14,0.8c18.2-33.8,15.4-55.4-3.4-90.8
	c1.6,0.5,1.8,1.9,3,2.3c3.9,1.5,9.2,0.9,12.4-0.5c5.1-2.3,10.5,3.9,26.1,10.8c1.3,0.7,2.9-0.4,4.3-0.7c2.9-0.6,5.3-1.8,7.5-1.1
	C113.6,84.4,116.3,85.1,116.3,85.1z M73,40.8c-0.9-1.7-10.4-19.9-10.4-19.9l70.3,0.4l-10.6,17.5c-1,0.9-6,3.6-11-2.4
	c-0.1,0.9-7.5,6.2-13.9-0.2c-3.8,3.5-7.7,5.5-14.2,1.6C83.2,39,78.1,43.9,73,40.8L73,40.8z"/>
<path fill="#D40000" d="
	M80.7,212.3c-6.8-6.4-13.9-0.6-13.7-0.3c-2.7-2.8-5.3-5-8.9-3.9v-1c10.6,2,26.8,2.5,45.8-1.5l1,2.1c-5.1-1.8-7.7,0.6-10,3.5
	C86.7,206,84.7,210.5,80.7,212.3z M96.6,137.4l4.8-0.1c0.9,14.2,12.6,35.8,12.9,35.8c-0.8-1.1-8.6-0.2-8.5-0.1
	C101.5,161.6,96.9,150.1,96.6,137.4z M68.4,171c0,0-1.6-4.1-2.5-5.8c5.1-8.7,9.2-17.8,11.3-27.8h3.4C79.7,151.3,68.7,172.3,68.4,171
	z M130.5,169.1c7.6-13.8,6.3-33.8-15.3-44.8c0,0,0.6-14.6,2.2-14.6c0.4,0.1,9.8-0.1,9.8-0.1c2.5-6.1,6.4-13.5,12-18.4l0.1,16.3
	c-4.1,0.4-6.6,1.7-7.8,5l-5.7,1.3c0.4,16.4,6.5,31.6,24.7,45.2c-4.3,3.8-19.2,11.4-19.1,11.3L130.5,169.1z M39.6,158.8l0.2-17
	c2.8-0.6,4.9,0.2,7.2-4.8c0,0,3.8,1.8,5.1,2.5C48.4,146,45.4,152.8,39.6,158.8z M75.7,128.7l0.2-8.6l8.1,0.2c-0.7,2.9-0.9,5.9,0,8.8
	L75.7,128.7z M94.2,128.6c0.6-2.8,1-5.7-0.2-8.7l8.8,0.2l-0.2,8.6L94.2,128.6z M77.5,111.7C76,94.8,64.5,75.6,64.4,76
	c1.4,0.2,3.7,0.9,5.1,0.3c1.6,0.3,3,0.1,3-0.1c0.1-0.6,10.7,24.6,9.3,35.5C81.6,112,77.8,112.1,77.5,111.7L77.5,111.7z M97.8,111.8
	c1.2-7.8,4.4-22.1,12-33.7c0.9,2.1,1.6,4.2,2.8,6.1c-5.7,8.4-9.2,18-11.4,27.7L97.8,111.8z M45.2,107.6
	c-3.5-7.1-17.9-18.4-17.1-17.2c6-5.4,12.6-8.8,19.2-12.3c0,0,1.2,1.1,1,1.4c-4.1,6.5-6.1,20.2-2.1,28.1C50,116,56.7,121,63.6,124.9
	c-0.5,5.3-0.8,9.1-2.1,14.3c0,0-4.3-2.3-7.9-3.8C53.2,125.6,51.1,116.7,45.2,107.6L45.2,107.6z M83.4,37.8c5.1,3.1,9.6,2.8,14-1.4
	c5.5,5.1,11.5,2.7,14,0.4c2.3,2.7,5.4,4.1,9.8,3.3l-1.1,2.3c0.3-1.2-30.7-3.3-45.8,1c0,0-0.9-1.8-0.8-1.8
	C75,41.4,79.3,43.1,83.4,37.8L83.4,37.8z"/>
<path d="
	M61.6,20.4L74.1,44c0,0,0.4-0.1,0.6-0.1c17.4-3.4,31.1-3.9,45.9-1.3l13.1-21.9C109.8,20.4,61.6,20.4,61.6,20.4z M63,21.4l69.7,0.1
	l-3.9,6.5c-2.3-0.7-3.7,0.4-4,2.6c0,0-0.3-0.1-0.8-0.2c-3.4-0.4-3.9,4.2-0.7,4.7c0.8,0.1,1,0,1,0c-2.9,2.4-4.5,0.8-5.8,0
	c0,0.3-2.6,2.2-4.9-0.1c3.4,0.3,3.9-3.1,2.3-4.4c-0.3-0.3-0.7-0.6-0.7-0.6c0.8-0.7,1-1.6,0.5-2.7c-1-2.2-4.3-2-4.8,0.3
	c-0.2,0.9-0.2,1.1-0.2,1.1c-2.6,0.2-3.2,2.7-2.3,4.1c0.5,0.8,1.6,1,2.7,0.9c-1.4,2-4.6,1.3-6-0.3c-2.3,2.7-4.9,2.4-6.1,0.9
	c0.9,0,1.5,0,2.3-0.8c1.4-1.3,0.7-3.6-1.2-4.2c-0.4-0.1-0.6-0.1-0.7-0.2c0,0,0.1-0.1,0.1-0.8c0.5-4-5.4-3.6-4.8,0.3
	c0.1,0.5,0.2,0.7,0.2,0.7s-0.6,0-1,0.1c-3.3,1.5-1,5.7,1.5,4.6c0.2-0.1,0.9-0.4,1-0.4c-3.1,3.9-5.8,1.1-6.5,0.7
	c-2.1,3.2-5.8,1-5.9,0.8c0.2,0.1,0.9-0.1,1.6-0.4c2.1-1.1,1.5-3.9-0.1-4.5C85,30,84.4,30,83.7,30.1c0,0,0.1-0.7,0-1
	c-1-3.8-5.7-1.9-4.6,1.3c0.1,0.3,0.4,0.6,0.4,0.6s-0.6,0.4-0.9,0.7c-2.2,2,0,5.4,2.7,4c0.3-0.2,0.7-0.6,0.8-0.5
	c-1.2,2.3-3.1,3.1-5.8,1.2c-1.6,2.6-4.3,1.5-5.1,0.2c2.5,0.2,4.1-4.6-0.7-4.8c-0.4-1.3-0.4-3.3-3.4-3L63,21.4z M97,29.8
	c0.6,0,1,0.5,1,1c0,0.6-0.4,1-1,1c-0.6,0-1-0.5-1-1C96,30.2,96.4,29.8,97,29.8z M112.6,29.9c0.6,0,1.1,0.5,1.1,1.1
	c0,0.6-0.5,1.1-1.1,1.1c-0.6,0-1.1-0.5-1.1-1.1C111.5,30.4,112,29.9,112.6,29.9z M82,31.1c0.6,0,1,0.5,1,1s-0.5,1-1,1s-1-0.5-1-1
	S81.5,31.1,82,31.1z M125.8,32.3l-0.9,1.6C123.9,33.1,124.6,31.9,125.8,32.3z M69.8,34.5l-0.9-1.6C70.5,33,70.1,34.1,69.8,34.5z
	 M96.9,33.6c6,6.9,11.3,4.9,14.9,0.3c1.5,3.9,4.9,6.6,10.6,4c-0.3,0.6-1.2,1.7-1.2,1.7c-5.1,1.4-7.6-1-9.6-3.3
	c-5.2,4.4-10.1,3.3-14.1-0.5c-3.4,4.4-9,5.3-14.2,1.7c-2.4,3.5-5.7,4.9-10,3.2c0,0-0.9-1.4-1-1.5c0.6,0.5,8.4,3.8,10.4-4.1
	C85.4,39.7,94.3,39.9,96.9,33.6L96.9,33.6z M97.5,36.5c6.7,6.4,13.8,0.9,14,0.5c0.1,0.4,3.9,5,9.5,3.2l-0.9,1.6
	c-10.4-1.8-20-2.9-42,0.3c0,0,3.5-1,5.3-3.9C84.3,38.9,91.9,43.2,97.5,36.5z M73.9,41.7c0,0,2.9,0.3,3.2,0.4c0.3,0.2-2.5,1-2.5,0.9
	L73.9,41.7z M79.8,72.1c-0.2,0-0.4,0.2-0.8,0.6c-0.8,0.8-1,0.9-1.7,1c-0.6,0.1-1.8,0.8-2.6,1.5c-0.2,0.2-0.6,0.3-1,0.4
	c-0.4,0.1-0.9,0.2-1.2,0.2s-0.6,0.1-0.7,0.2c-0.4,0.2-1,0.3-1.7,0.1c-0.7-0.2-0.8-0.2-1.6,0.1c-1.1,0.3-1.8,0.3-2.4,0
	c-0.5-0.3-1.4-0.5-2-0.3c-0.8,0.3-2.9-1-2.9-1.8c0-0.2-1.2-1.1-1.5-1.1c-1.1-0.2-10.4,3.6-10.4,3.8c11.5,14.3,21.1,36.2,13.9,62.9
	l-1.3-0.6c1.1-4.9,1.5-9.7,1.8-14.7c-21.6-9.4-23.4-31.3-15-45.1l-1.4-1.5c-5.1,2.7-10.2,4.3-22.8,14.9v17.2c0,15.5,0,30.7,0,30.7
	c4.5,0.5,9.5,0.9,14.5,1.3c0,0-0.1,15.4-0.2,21.4c-0.1,5.1,0.1,4.8,0.1,4.8l16.3,8.7c-1.1-4.6,1.7-6.4,4.1-6.2
	c-1-4.4,1.6-6.4,4.5-5.9c2,0.4,2.7,1.5,3.9,5.2c0.2,0.6,0.4,1.4,0.4,1.4h1.1c1.4-3.1,2.4-7.1,5.8-7.6c4.4-0.7,6,2.4,6,5.4
	c4.3-3.8,9.4-0.9,9.1,4.8c2.1-1.4,5.8-2.7,8.1,2.7c0.9-0.2,1.3-1.2,2.5-1.5c0.5-0.1,1.5-0.7,1.5-0.7v-0.2c0,0,1-0.3,2.2-0.5
	c1.1,0.4,0.8,0.4,1.4-0.3c0.7-0.3,1.7-0.6,2.5-0.5c0.9,0.1,1.2,0.1,1.8-0.1c0.8-0.3,1.5-0.4,2,0.1c0.3,0.4,0.8,0.2,1.3,0.2
	c1,0,2.4,0.4,2.9,1.3c0.6,0.7,2,1.3,2,1.3l1.1-0.3l0.1-0.4l9.2-3.6c-18.8-20.8-18.3-48.5-13.9-62.5l1.7,0.8
	c-0.9,4.1-1.9,8.4-1.8,14.6c17,7.6,25.4,27.4,15.1,44.7l1.1,1.4c4.3-1.8,15-7.9,18.8-11.2l0.8,0.1c0,0,2.3-1.5,3.2-2.3l0.1-45.8
	l-0.8,0.2l-0.1-2.7l-14-1.1c0.2-0.1,0.3-0.2,0.4-0.5l-0.1-25.3c-0.5-0.8-12.2-7.7-16.6-9.4c-0.2,0-0.1,0.3,0,1
	c0.2,2.5-1.4,4.7-3.4,4.7c-0.7,0-0.8,0.3-0.8,1.7c0,2-0.7,3.4-2.8,4.2c-2.5,0.9-4.2-0.4-5.6-5.6c-0.4-1.4-1.1-1-1.8,0.8
	c-0.3,0.9-1.4,3.2-2.1,4.4c-0.5,0.9-1.3,1.3-2.4,1.8c-0.9,0.4-2.7,0.4-3.8-0.2c-1.9-1-2.7-2.2-3.2-5.1c-0.1-0.4-0.3-0.4-0.9,0.1
	c-3.4,2.6-8.2-0.1-8.1-4.6c0-1.3,0-1.4-0.8-0.7c-2.3,1.9-5.4,0.9-6.7-2.1C80.2,72.4,80,72.1,79.8,72.1L79.8,72.1z M60.3,73.7
	c0.2,0,1,1,1,1c0.7,0.8,1.6,1.2,2.6,1.7c0.1-0.1,11.2,15,13.1,35.9h5.2c-1-20.3-6.5-30-9-36.3l1.9-0.6c4.2,8.1,9.3,24.5,9.1,38.8
	h-8.6c-1.2-14.4-6.7-28.4-14.5-39C60.5,74.4,60.1,73.8,60.3,73.7L60.3,73.7L60.3,73.7z M57,75.8l0.9,2.8c0,0,0.1-0.6,0.4-0.9
	c1.7-1.5,3.3,0.5,2.5,3.2c-0.2,0.8-0.5,2.5-0.5,2.5s-1.7-0.9-2.6-1.2c-2.4-1-3.1-3-1.3-3.2c0.3,0,0.9-0.1,0.9-0.1
	c-0.8-0.6-2.4-2-2.4-2L57,75.8z M64.9,76.1c0.7,0.4,2.6,0.9,3.6,0.4c0.9-0.3,1.5-0.1,2.4-0.1c0.5,0,1.5-0.2,1.5-0.2
	c5.1,10.8,8.6,23.6,9.1,35.3h-4C76,99.1,71.2,86.4,65.2,77.1C65,76.8,64.7,76.1,64.9,76.1L64.9,76.1z M81.6,76.3
	c1.5,0,3.2,1.6,4,4.1c0.5,1.4,0.7,1.3,1.3,1.1c1.7-0.6,3.5,1.3,1.2,1.6c-2.2,0.4-1,4.8-1.1,5.1c-0.9,0.2-2.6-3.6-2.5-4.7
	c0.1-2.7-2.4-5-4-3.8c-0.7,0.5-0.7,0.9-0.9,0.7c-0.7-0.6-0.8-2.3,0-3.2C80.2,76.6,80.9,76.3,81.6,76.3z M127.5,77.2
	c0,0,0.1,3.6,0,4.4c-0.3,2.4-3.3,2.6-3.5,0.7c-0.5,0.8-0.8,1.7-1,2.6l-2.2-1.5c0.8-0.6,1.6-1.1,2.2-1.9c-1.6,0.1-2.5-1.3-1.4-2.5
	C122.8,77.6,126.1,77.5,127.5,77.2L127.5,77.2z M47.3,78.4l1,1.1c-8.6,15.4-5.6,35.1,15.2,45.4c-0.1,4.7-0.7,9.5-1.9,13.9l-7.7-3.8
	c0.1-17.4-9.7-34-25.3-44.9C34.3,85.6,40.5,81.5,47.3,78.4L47.3,78.4z M110,78.5c0.4,2,2.3,5.7,2.4,5.5c0-0.1-7.9,10.2-11.4,27.6
	h-2.9C100,100,103.8,89.1,110,78.5z M134.3,79l1.6,1c-8.2,6.9-13.6,15.7-17.6,25.2l-2.1-1C122.4,90.4,128.5,84.3,134.3,79L134.3,79z
	 M136.5,80.5c0.4,0,0.9,0.6,1.7,1c0.8,0.4,0.6,0.7-0.9,1.8c-1.7,1.3-1.9,1.3-1.9-0.6C135.5,81.4,135.8,80.6,136.5,80.5L136.5,80.5
	L136.5,80.5z M134.6,82.5c0.1,0,0.2,0,0.2,0.1c0.1,0.5,0.1,1.7-0.1,2.8c-0.2,0.7-2.4,2.6-3.2,3.4c-0.3,0.2-0.5,0.1-0.5-0.2
	c0-0.6,0.1-1.4,0.1-2.2c0-0.2,0-0.5,0.2-0.7C132.4,84.3,134,82.5,134.6,82.5z M138.7,83.1C138.7,83.1,138.8,83.1,138.7,83.1
	c0.2,0.1,0.2,2.7,0.1,2.9c-0.6,0.2-2.4-0.1-2.8-0.3C135.9,85.3,138.3,83.1,138.7,83.1L138.7,83.1z M62,83.9l0.6,2.5
	c0,0,0.2-0.3,0.2-0.4c1.2-1.8,2.6-0.8,2.6,1.8c0,0.8-0.7,4-0.7,4s-4.5-2.2-4.8-3.1c-0.3-0.9,0.1-1.8,1-1.8c0.3,0,0.6-0.1,1,0l-1.9-2
	L62,83.9z M113,84.3l2,0.8c-4.2,6.9-8.6,13.8-11.7,29.4h-8.5c1.2-9.5,3.6-18.9,7.9-28.1c0,0,1.7-0.5,2.6-0.8c0,0-7,16.2-7.8,26.6
	l4.1,0.1C103.7,102.1,107.8,91.6,113,84.3z M96.9,84.5c1.1,0,2,0.8,1.9,2.2c0,1.3-0.1,1.5-1.1,1c-1.2-0.7-2.2-0.7-3.2,0.1
	c-0.6,0.4-1.2,0.8-1.2,0.8s0.5-2.3,1.3-3C95.4,84.9,96.2,84.5,96.9,84.5z M92.6,87.9c-0.1,0.8-0.3,1.1-0.5,1.8c0,0,0.7-0.3,1-0.4
	c1.5-0.7,3.1,0.6,3.1,2.1c0.1,1-1,2.3-2.4,2.3c-0.5,0-0.9-0.1-1.4-0.5c0.3,1.9,0.4,2.8-1,3.7c-1.1,0.8-3.5-0.1-3.4-2.2l0.1-1.3
	l-1.2,0.2c-3.2,0.1-3.3-3.9-0.7-4.5c1-0.2,2.2,0.6,2.2,0.6c-0.5-1-0.5-2.7,0.2-3.5C90.2,84.3,92.8,86,92.6,87.9L92.6,87.9z
	 M120.7,85.4c0.2,1.5,0.8,3.1,0.6,4.5c-0.3,1.8-1.8,2.8-2.9,1.7c-0.1-0.1-0.4-0.4-0.4-0.4c-0.5,0.7-0.9,2.6-0.9,2.6l-2.1-1.3
	c0,0,1.4-1,1.8-1.6c0.1-0.2,0.2-0.5,0.2-0.5c-1.2,0.4-2.1-0.8-1.8-1.9C115.8,86.8,118.9,86.1,120.7,85.4L120.7,85.4z M135.3,86.5
	c0.8,0,2,0.2,2.9,0.3c0.7,0.1,0.3,0.5-1.3,2.2c-1.5,1.5-1.5,1.3-2.6,1.3c-2.7,0-3.2,0-1.6-1.7c0.8-0.9,1.6-1.7,2.1-2
	C134.9,86.5,135.1,86.5,135.3,86.5L135.3,86.5z M130.4,86.8L130.4,86.8c0.3,0.2,0.2,1,0.2,2.1c0,1.2,0,1.2-0.5,1.9
	c-0.6,0.8-1.2,1.6-1.8,2.4c-0.6,0.6-0.6,0.6-0.9-1c-0.3-1.5-0.2-2,1.7-4.1C129.7,87.3,130.1,86.8,130.4,86.8z M138.8,87.6v3
	c-5.6,5.5-9.4,11.8-12,18.6l-2-0.8C128.3,99.7,133.4,92.9,138.8,87.6L138.8,87.6z M90.2,89.5c-0.9,0-1.7,0.8-1.7,1.7
	c0,0.9,0.8,1.7,1.7,1.7s1.7-0.8,1.7-1.7C91.9,90.2,91.2,89.5,90.2,89.5z M90.2,90c0.6,0,1.2,0.5,1.2,1.2c0,0.6-0.5,1.2-1.2,1.2
	c-0.6,0-1.2-0.5-1.2-1.2C89.1,90.5,89.6,90,90.2,90z M27.9,90.7c17.5,11.3,25.3,28.9,25.3,44l-1-0.4c-1-21.3-12.5-34.5-24.9-43
	L27.9,90.7z M131.5,90.9c0.4,0,0.9,0.1,1.7,0.2c1.4,0.1,1.6,0.2,0.6,1.3c-0.3,0.3-0.8,1-1.2,1.5s-0.8,1-1,1.1
	c-0.3,0.1-2.8,0-3.6-0.1c-0.2,0,0.1-0.3,1.3-2.1c0.9-1.4,1-1.8,1.9-1.9C131.4,90.9,131.4,90.9,131.5,90.9L131.5,90.9z M138.8,91.4
	c0,0,0.3,9.7,0.1,15.9c-4-0.1-6.3,1.4-7.3,4.3l-4.2-2.1C130.4,101.6,134.6,96,138.8,91.4z M126.4,91.7c0.2,0,0.4,0.5,0.4,1.4
	c0.3,1.7,0.2,1.9-0.5,2.9c-0.3,0.5-0.8,1.3-1,1.7c-0.4,0.7-0.7,0.9-0.8,0.6c-0.5-1.8-0.7-2.9-0.5-3.3c0.3-0.6,1.8-2.7,2-3
	C126.2,91.8,126.3,91.7,126.4,91.7z M26.6,91.9c14.1,8.8,24.4,23.8,24.8,42c0,0-3-1.4-4.8-2.5l-0.1-1.8h1l0.3,2l2.1-0.1l-0.6-5
	l-3.4,0.3l-0.7-2.8l1-0.2l0.6,1.8L49,125l-1.2-4.4l-3.4,0.9l-1.1-3l1.1-0.4l0.9,1.8l2.1-0.7l-1.9-4.4l-3.1,1.5l-1.6-2.9l1.2-0.7
	l1,1.7l1.9-1l-2.4-4.1l-2.9,1.7l-1.5-2.2l0.9-0.6l1,1.2l1.7-1.2l-2.6-3.5l-2.8,2.2l-2.1-2.4l1-0.8l1.4,1.3l1.6-1.4l-3.1-3.4
	l-2.7,2.5l-2-1.8l1-1.1l1.2,1l1.3-1.6l-3.3-2.8l-2.5,2.5l-2.4-1.6v-1.2c0.8,0.3,1.6,0.7,2.3,1.1l1.2-1.9l-3.6-2.5L26.6,91.9z
	 M65.8,92.6l0.5,3.1c0.5-0.8,0.9-1.4,2-1.1c1.3,0.5,1.3,2.5,0.2,5.6c-0.2,0.6-0.5,1.1-0.5,1.1s-0.6-0.2-1-0.5
	c-0.8-0.6-2.2-1.2-2.8-2.3c-0.7-1.2-0.7-2.8,0.6-2.6c0.3,0,0.8,0.1,0.8,0.1l-2-2.6L65.8,92.6z M25.8,93.5l2.4,1.6L27.7,96l-1.9-0.9
	V93.5z M86.9,94.3c0.7,1-1.8,3.9,1.5,5.1c0,0,0.1,0.7-0.6,1.1c-1.6,1.2-3.9-1-3.2-3.2C85.1,95.9,86.4,94.3,86.9,94.3z M93.6,94.4
	c0,0,1,0.7,1.2,0.9c1.8,1.8,1.8,4.3,0.2,5.1c-1.1,0.6-2.3,0.1-2.7-0.7c-0.2-0.4,0.1-0.8,0.5-0.8c0.8,0,1.4-1.5,1.1-3.1
	C93.8,95.1,93.6,94.4,93.6,94.4z M115,94.9c0,0,0.2,2.1,0.5,3.1c0.9,2.7-0.3,4.3-2,3.4c-0.3-0.1-0.7-0.7-0.7-0.7l-0.2,3.1l-2.5-0.7
	c0.5-0.9,1.3-1.5,1.9-2.5c0,0-0.4,0-0.7,0c-1.5,0.1-2.1-1.6-0.5-3C112,96.5,115,94.9,115,94.9L115,94.9z M128.2,95.6
	c0.3,0,0.7,0,1.2,0c1.6,0,2-0.2,1.3,0.8c-0.3,0.4-0.9,1.5-1.1,1.9c-0.4,0.8-0.5,1-1.2,1.1c-1,0.2-2.1,0.1-3.2,0.1
	c-0.2,0,0.3-0.9,0.5-1.4c0.7-1.3,1.1-2.2,1.7-2.4C127.6,95.7,127.9,95.6,128.2,95.6L128.2,95.6z M123.2,96.6c0.2,0,0.3,0.3,0.5,1.1
	c0.4,1.7,0.5,1.7-0.2,3.1c-0.3,0.7-0.9,1.9-1.2,2.4c-0.6,1.3-0.7,1.2-1.1,0.1c-0.8-2.2-0.8-1.9,0.4-4.4
	C122.5,97.4,122.9,96.6,123.2,96.6z M30.9,97.2l2.3,1.8l-0.6,0.6l-1.3-0.9l-1.8,2l3,2.8l2.6-2.6l2.2,2.3l-0.7,0.6l-1.3-1.3l-1.9,1.7
	l2.9,3.5l2.9-2.2l1.8,2.4l-0.7,0.5l-1.2-1.2l-1.9,1.3l2.4,3.4l3-1.7l1.7,2.8l-0.9,0.5l-1-1.5l-2.1,1.2l2,3.9l3.2-1.4l1.3,3l-1,0.4
	l-0.8-1.8l-2.2,0.9l1.4,4.1l3.3-0.9l0.8,3.1l-1,0.3l-0.5-1.7l-2.1,0.5l0.9,4.1l3.3-0.2l0.4,3.3h-1l-0.3-2h-2.1
	c0,0.7,0.1,2.1,0.1,2.1l-1.3-0.6C42.8,117.6,36.1,107,26,99.6l-0.1-1.5l2.5,1.6C28.3,99.8,30.5,97.7,30.9,97.2z M127.6,100.2
	c0.7,0,0.4,0.5-0.5,2.2c-1,1.8-1.1,1.9-2.9,2.3c-2.2,0.5-2.1,0.7-0.9-1.9c0.5-1,0.8-1.8,1.2-2.2c0.5-0.4,1.6-0.3,2.7-0.4
	C127.4,100.2,127.5,100.2,127.6,100.2L127.6,100.2z M26,100.7c10.5,6.8,17.1,20.9,17.9,29.5c0,0-0.3-0.2-0.9-0.5
	c-0.8-0.4-1-0.6-1.2-1.8c-2.1-10.5-7.9-19.3-15.8-25.6V100.7z M120.2,102.5c0.4-0.1,1.2,3.1,1,3.8c-0.2,0.5-1.7-0.7-2.3-0.9
	C118.7,105.2,119.9,102.5,120.2,102.5L120.2,102.5z M69.8,102.6v3.3c0,0,0.4-0.5,0.6-0.6c0.8-0.6,2,0.2,2,1.2
	c0.1,1.4-0.1,1.9-1.2,3.8c-0.3,0.6-0.8,1.3-0.8,1.3s-1.3-0.9-2.7-2.3c-1.5-1.5-1.2-3.5,0.1-3.5c0.4,0,0.7,0.1,1.1,0.2
	c-0.3-1-1.3-2.9-1.3-2.9L69.8,102.6z M110.7,105.1c0,0,0.7,0.9,1.5,3.3c0.7,2.3-0.4,4-2,3.1c-0.3-0.2-0.6-0.5-0.6-0.5
	c-0.1,1.1,0.1,3.1,0.1,3.1l-2.5-0.4c0,0,1.4-2.2,1.5-2.8c0,0-0.2,0.1-0.8,0.1c-2.5,0-2-3,0.9-4.7
	C109.2,106.1,110.7,105.1,110.7,105.1L110.7,105.1z M125.2,105.2c0.5,0,0.3,0.5-0.3,1.8c-0.7,1.4-0.5,1.3-1.9,0.5
	c-2-1-1.9-1.1,0.6-1.8C124.4,105.3,124.9,105.2,125.2,105.2z M89.2,105.6c2,0,3.5,2,3.2,4.8c-0.5,4.8-0.2,4.5,0.3,5
	c0.9,0.9-0.3,1.4-1.5,0.6c-0.8-0.6-1-1.2-1-3.8c0-3.1-0.1-3.8-1.2-3.6c-0.7,0.2-0.9,0.7-0.8,2.8c0.1,2.9-0.1,3.6-1.2,4.6
	c-1.2,0.9-2.4,0.1-1.4-0.5c0.5-0.6,0.6-1.3,0.4-3C85.8,110.9,85,105.5,89.2,105.6z M139.1,108c3.8,0.1,13.5,0.9,13.5,0.9l0.1,2.9
	c-0.4,0.3-7.6-0.8-13-0.7c-1.2,0-2.1,0.6-3,0.1c0.9,0.4,0.8,4.7-3,3.7c-3.2-1.2-1.7-5.6,2.5-6.7C137.2,108,138.1,108,139.1,108
	L139.1,108z M117.1,109.9l8.3,4.1c1.2,15.7,6.5,32.2,24.7,44.8c-3,2.1-10.4,7.4-18.8,11l-0.7-0.8c10.1-17.3,2.5-36.3-15.2-44.9
	C115.5,119.4,116.1,114.6,117.1,109.9z M146.1,112.6c1.6-0.1,2,0.1,2.1,0.8c0.1,0.7,0.6,0.8,1.2,0.6c1.5-0.5,2.3,2.1,1.1,3.2
	c-0.7,0.7-0.6,1,0,1c1.5,0,1.5,2-0.1,3.2c-0.6,0.5-0.6,0.7,0,1c1.1,0.6,0.9,1.7-0.5,2.6c-0.8,0.5-0.8,0.6-0.2,0.8
	c1.6,0.4,0,2.8-1.8,2.4c-0.7-0.2-1.4,0-2.1,0.4c-1.9,0.8-2.2,1-4.2,0.7c-1.8-0.3-2.6-0.9-3.1-2.5c-1-3.2-2.2-6.8-2.2-10.3
	c-0.2-2.2,3.4-4.1,5.1-4.2C143.1,112,144.6,112.6,146.1,112.6L146.1,112.6z M33.1,112.6c1.9,0,3.4,1.6,3.4,3.5
	c0,1.9-1.5,3.5-3.4,3.5c-1.9,0-3.4-1.6-3.4-3.5C29.7,114.2,31.2,112.6,33.1,112.6z M71.3,113.6l-0.3,3c0,0,0.5-0.4,0.6-0.5
	c0.9-0.8,2.3,0.1,2,1.3c-0.1,1-1.9,4.1-2.6,4.8c0,0-2.8-3.1-3.1-3.7c-0.7-1.4,0.2-2.8,1.5-2.2c0.2,0.1,0.7,0.5,0.7,0.5l-0.9-2.9
	L71.3,113.6z M33.4,113.9c-1.2,0-2.4,0.8-2.2,1.8c0.1,0.4,0.8-0.2,1.4-0.6c0.5-0.3,1.1-0.4,1.6-0.1c0.5,0.2,0.7,0.6,1,1
	c0.2,0.3,0.5,0.5,0.7,0.4c0.1-0.2,0.1-0.4,0-0.5C35.6,114.5,34.5,113.9,33.4,113.9L33.4,113.9z M126,114.4l1.2,0.6
	c1.7,22.2,12.7,35.2,24.4,42.9l-0.9,0.6C136.3,149.2,126.4,132.7,126,114.4z M127.8,115.3c0,0,3.1,1.6,4.7,2.3l0.1,2h-1.1l-0.4-1.9
	l-2.2,0.2l0.7,4.6l3.6-0.4l0.5,2.8l-1.2,0.3l-0.6-1.7l-2.1,0.5l1.3,4.5l3.3-1.1l1,2.9l-1.1,0.4l-0.7-1.7l-2.1,0.8l1.7,4.4l3.4-1.1
	l1.4,2.8l-1,0.5l-1-1.7l-2,1.1l2.4,4.1l3.1-1.6l1.4,2.2l-1.1,0.8l-1-1.3l-1.7,1.1l2.6,3.6l2.6-2l2,2.3l-0.9,0.8l-1.3-1.4l-1.6,1.4
	l3.1,3.5l2.7-2.4l1.9,1.8l-0.6,0.6l-1.3-0.8l-1.7,1.9l3.3,2.9l2.6-2.9l2.2,1.7v1.2l-2-1l-1.3,2l3.3,2.5v1
	C133.8,146.2,128.8,128.4,127.8,115.3L127.8,115.3z M89,115.5c0.8,0,1.7,0.8,3.1,2.4c4,4.7,2.9,11.9-2.3,15.7
	c-0.8,0.5-1.1,0.5-2-0.3c-5.4-4.6-5.7-10.9-0.9-16.3C87.8,116,88.4,115.5,89,115.5L89,115.5z M108.2,116.1c1,1.5,2.2,3.1,2.4,4.9
	c-0.1,1.8-1.3,2.2-2.6,1.1c-0.2,1,0.4,2.8,0.4,2.8l-2.3-0.2c0,0,0.9-1.6,0.9-2.6c-1.6,1.1-2.8-0.3-2.6-1.5
	C104.9,118.7,106.5,117.3,108.2,116.1L108.2,116.1z M89.1,117.3c-0.2,0-0.4,0.1-0.7,0.4c-1.4,1.1-2.5,2.5-3.1,4
	c-1.2,3.1-0.4,6.6,2.3,9.3c1.4,1.4,1.9,1.3,4-1.6c1.8-2.4,2.1-5.4,1-8.1c-0.5-1.3-1.5-2.6-2.6-3.5C89.6,117.5,89.3,117.3,89.1,117.3
	L89.1,117.3z M133.1,117.9l1.8,0.9c2.3,15.1,9.6,24.3,17.8,30.7v1.4l-2.2-1.7l-2.6,2.8l-2.1-1.8l0.8-0.8l1.2,0.8l1.6-1.8l-3.1-2.8
	l-2.7,2.3l-2.2-2.3l0.7-0.6l1.5,1.4l1.7-1.5l-3-3.4l-2.7,2l-1.9-2.5l0.8-0.5l1,1.4l2.1-1.3l-2.2-3.4l-3.1,1.6l-1.6-2.9l0.9-0.4
	l1,1.6l1.9-0.9l-1.9-4l-3.2,1.1l-1.2-3.1l0.9-0.3l0.8,1.9l2.1-0.7l-1.5-4.3l-3.3,0.9l-0.8-3.2l1-0.2l0.5,1.7l2.3-0.5l-0.8-4.1
	l-3.4,0.4c-0.1-0.7-0.6-2.6-0.6-3.3l1-0.1l0.3,1.8l2.3-0.1L133.1,117.9z M89.2,118.2c1.2,0.2,2.7,2.6,3.1,3.4
	c0.6,1.7,0.7,3.7,0.1,5.3c-0.5,1.3-1.9,3.5-2.9,4.1c-0.7,0.4-1.4,0.1-2.4-1.4c-2.1-2.9-2.5-6.3-0.8-8.7
	C87.5,119.2,88.5,118.2,89.2,118.2L89.2,118.2z M135.5,119l0.9,0.4c1.1,8.8,6.2,20.8,16.3,28v1.1C144.9,142.8,137.7,132.9,135.5,119
	L135.5,119z M89,119.6c-3.5,2.7-3,6.9-0.3,9.7C91.6,127.3,92.6,122.2,89,119.6z M35.3,119.7c2,0,3.2,0.7,3.8,2
	c0.9,2.2,1.1,2.6,1.3,3.7c0.1,0.6,0.3,1.6,0.4,2.2c1,5.9,0.3,8.1-3.3,9c-1.1,0.3-2.5,0.4-3.5,0.1c-0.3-0.1-1.3-0.1-2-0.1
	c-1.5,0-2-0.2-2.8-0.8c-0.3-0.2-0.5-0.4-0.9-0.5c-1.8-0.3-2.3-1.9-0.9-3.1c0.8-0.7,0.8-0.8,0.8-0.9c0-0.1-0.4-0.1-0.7-0.1
	c-1.8,0-1.8-1.9,0-3.2c0.8-0.6,1.2-1.2,0.7-1.1c-1.6,0.4-2.2-2-0.5-2.7c0.9-0.5,1.5-0.9,0.7-1c-0.7,0.1-1.3-0.5-1.1-1.1
	c0.3-0.8,1.8-1.5,2.6-1.2c0.7,0.2,1.3,0.4,1.7,0.1c1-0.7,1.5-1.1,2.3-1.2C34.4,119.8,34.9,119.7,35.3,119.7L35.3,119.7z M94.3,120.2
	l8.2,0.2l-0.2,8.1l-7.7-0.1C94.6,128.3,96.3,124.7,94.3,120.2z M76.1,120.4l7.8,0.1c-1.3,3-0.8,6.2-0.3,7.9l-7.6-0.1L76.1,120.4z
	 M89.1,120.4c2.1,1.2,2.7,5.7-0.2,8C86.1,125.6,86.7,122,89.1,120.4z M69.8,123.9l2.1,0.2l-0.7,3c0,0,0.3-0.4,0.4-0.4
	c2.7-1.3,2.9,1.6,0.1,4.2c-0.6,0.6-1.6,1.4-1.6,1.4s-0.8-1.2-1.4-2.2c-0.7-1.1-1.2-2.2-1-2.8c0.2-0.9,1.2-1.5,1.9-0.9
	c0.3,0.3,0.7,0.7,0.7,0.7L69.8,123.9z M107.2,126.1c0,0,0.9,0.9,1.4,1.5c1.8,2,2.2,4,1.2,4.5c-0.8,0.4-1.3,0.1-2-0.4
	c0.1,1.3,1.1,3.1,1.1,3.1l-2.8,0.4c0,0,0.7-2.5,0.6-3.5c0,0-0.6,0.4-0.8,0.5c-1.8,0.7-2.7-1.4-1.2-3.5
	C106.1,127.2,107.2,126.1,107.2,126.1z M144.9,130c1.9,0,3.4,1.5,3.4,3.4c0,1.9-1.5,3.4-3.4,3.4s-3.4-1.5-3.4-3.4
	C141.5,131.5,143.1,130,144.9,130z M146.6,131.5c-0.1,0-0.3,0.4-0.3,1.1c-0.2,1.5-1.4,2.1-2.8,1.4c-0.6-0.3-1-0.7-1-0.4
	c0,0.2,0.4,1.1,0.8,1.4c1.2,1.1,4,0.8,3.9-1.7C147.1,132.2,146.8,131.5,146.6,131.5z M85.7,132.8c0.4,0,0.8,0.1,1.1,0.4
	c0.9,0.6,1.1,1.4,1.1,4.5c0.1,2.7,0,2.8,0.4,3.1c1.1,0.8,1.7-0.4,1.4-3.1c-0.3-2.6,0.6-4.5,2.2-4.5c0.8,0,0.9,0.5,0.3,1
	c-0.6,0.6-0.8,1.4-0.6,2.9c0.5,3.9,0.1,5.8-1.6,6.6c-1.7,0.8-3.9-0.1-4.2-2.3c-0.2-1.4-0.2-3.1-0.1-4.7c0-1.7,0-1.9-0.6-2.8
	C84.9,133.1,85.2,132.8,85.7,132.8z M43.3,134c0.9,0,1.9,0.5,2.5,1.8c1.4,2.9-1.6,5.3-4.4,5.5c-4.8,0.1-10.5-0.6-15.4-1.3l0.1-2.8
	c4.4,0.3,9.4,0.6,14.8,0.9C40.2,135.6,41.7,134,43.3,134L43.3,134z M68.6,134.6l2.7,0.6l-1.7,2.8c0.5-0.2,0.9-0.4,1.4-0.2
	c1.1,0.4,1.1,1.8,0.3,3.1c-0.6,1-2.4,2.1-3.6,2.8c-0.7-1.5-2.2-4.1-1.6-5.5c0.3-0.8,1.2-1.1,2-0.7c0.3,0.2,0.8,0.4,0.8,0.4
	L68.6,134.6z M75,134.7l8.2,0.1c-1.2,8.4-3.5,19.5-8.1,28.6l-1.9,0.5c4-9,6.7-17.5,8-27h-4.1c-2.4,10.2-5.8,19.6-11.2,27.8l-2.4-0.8
	C69.2,154.7,73.7,144.5,75,134.7L75,134.7z M93.6,134.8h9.1c1.7,17,7.4,28.6,15.8,40.1c0,0-0.5,0.1-0.9,0c-0.9-1.1-1.7-1.8-3-2.1
	c-7.1-10.4-11.9-24.8-13-35.9h-5.4c0.6,13.9,4.4,25.3,9.5,36.4l-2.8,0.5C98.9,163.9,94.5,155.3,93.6,134.8L93.6,134.8z M107.8,136.9
	c0.8,0.6,1.6,1.2,2.3,1.7c2.1,1.5,2,4.2,0,4.2c-0.2,0-0.7,0-0.7,0s0.8,1.8,1.3,2.7c-0.8,0.2-2.6,0.6-2.6,0.6s0.2-1.8,0.2-3.2
	c0,0-0.3,0.4-0.6,0.5c-1.3,0.6-2.4-0.6-2.3-2C105.7,139.5,107.8,136.9,107.8,136.9L107.8,136.9z M46.9,137.3l4.5,2.3
	c-3.1,7-6.6,13.6-11.6,18.6l0.1-16.3C42.7,141.8,45.5,141.8,46.9,137.3z M77.6,137.5h2.8c-1.2,13-9.7,30.5-11.3,32.7l-0.5,0.4
	c0,0-1.1-4-2.4-5.4C70.9,158.6,76,146.1,77.6,137.5z M97,137.5h4.2c1.3,10.3,4.5,21.5,12.5,35.1c0,0-0.8,0.1-1.4-0.3
	c-1.4-0.9-2.3,0.3-3.1,0.2c-1.3-0.1-1.5-0.1-2.8,0.2C99.7,158.6,97.8,147.5,97,137.5z M52,139.8l1.5,0.7
	c-3.2,7.5-6.1,13.4-13.7,20.7V159C45.1,153.9,48.7,147,52,139.8z M54.1,140.9c0.7,0.3,1.5,0.7,2.2,1.1c0.2,0.1,0.2,0.3,0.2,0.5
	c-0.3,0.7-1.5,1-2,1.2c-0.6,0.2-1.1,0.3-1.2,0.3c-0.6,0.2-0.4-0.5,0.3-1.9C53.8,141.3,53.9,140.9,54.1,140.9z M57.1,142.5
	c0.4,0,2.2,1,2.6,1.3c0.1,0.4-0.3,1.1-0.8,2.3c-0.9,1.9-1,2-1.3,0.4c0-0.3-0.3-1.2-0.5-1.8C56.8,143.4,56.7,142.6,57.1,142.5
	L57.1,142.5z M60.4,144c0,0,1,0.5,1.4,0.7c-4.7,14.1-17.1,25.8-17,25.6l-1.9-1.2C51,161.6,57.1,152.7,60.4,144z M55.4,144.2
	c0.5,0,0.1,0.6-0.6,1.9c-0.6,1.3-0.8,1.8-1.3,2c-0.8,0.3-1.9,0.3-2.9,0.5c-0.4,0.1-0.2-0.3,0.4-1.6c0.8-1.6,0.8-1.9,2-2.2
	C53.8,144.7,54.7,144.2,55.4,144.2z M57.1,147c0.5,1.8,0.5,2.1,0.1,2.7c-0.6,1.1-1.4,2.5-1.6,2.8c-0.5,0.9-0.7,0.7-1-1.5
	c-0.2-1.4-0.4-2-0.2-2.6c0.3-0.7,1.1-2.2,1.5-3.2C56.5,143.4,56.9,146.9,57.1,147z M65.7,145.5l2.5,0.8l-1.9,2.3
	c0,0,0.8-0.1,0.9-0.1c1.9,0.1,1.6,2.1,0.1,3.2c-0.6,0.6-3.7,2-3.7,2c-0.3-1.7-1-2.8-0.8-4.6c0.1-1,0.2-1.8,1.4-1.8
	c0.6,0,0.9,0.6,1.3,1.1L65.7,145.5z M110.1,147.6c0,0,1.5,0.8,2.8,1.8c1.8,1.4,2.1,3,0.3,3.6c-0.2,0.1-0.8,0-0.8,0
	c0.5,0.9,1.7,2.2,1.7,2.2c-0.6,0.4-1.4,0.7-2.3,1c0,0-0.2-2.2-0.4-3c0,0-0.2,0.5-0.5,0.7c-1.7,1.1-3.1-1-2.1-3.5
	C109.2,148.9,110.1,147.6,110.1,147.6z M91.2,148c4.3-0.1,1.8,7-0.4,6.5c0-0.1,1.8-4.2-0.7-4.9C89,149.3,90,147.9,91.2,148L91.2,148
	z M84.1,148.5c1.3,0,2.3,0.9,1,1.5c-2,0.9-0.8,3.2-0.8,4.5c0,0.8-1.8-0.7-2.2-2.3C81.7,150.2,82,148.6,84.1,148.5L84.1,148.5z
	 M52.4,149.2c0.3,0,0.5,0,0.6,0.1c0.1,0.3-0.5,1.4-1.3,2.7c-0.5,0.7-0.7,0.9-1,1.1c-0.7,0.4-1.6,0.3-2.4,0.3c-1.2,0-1,0,0.3-2.1
	c0.6-0.9,1-1.7,1.3-1.9C50,149.4,51.5,149.2,52.4,149.2L52.4,149.2z M53.9,150.7c0,2.6,0.9,3.4,0.2,4.2c-0.8,1.3-1.8,2.6-2.1,3.1
	c-0.6,0.7-0.5,0.6-0.7-1.3c-0.1-1.4-0.2-2.3-0.1-2.8c0.5-1.3,1.1-1.9,1.8-3.2C53.6,149.6,53.9,149.8,53.9,150.7z M87.8,152
	c1.2,0,2,1.4,2,2.6l-0.1,1.2c1.6-0.6,3.6,0,3.7,1.6c0.2,2.7-1.8,2.4-3.5,2.3c0.2,0.1,0.4,2.4-0.6,3.4c-1.6,1.8-4.5,0-3.7-2.6
	c0.2-0.5,0.2-0.9,0.2-0.9s-1,0.4-1.4,0.4c-3.2-0.1-2.9-4.7,0.3-4.1c0.6,0.1,1.1,0.3,1.1,0.3s-0.1-0.3-0.2-0.7
	C85.1,153.5,86.1,152,87.8,152z M151,152.8l1.7,1v1.9l-2.4-1.8L151,152.8z M48.9,154.1c0.7,0,1.2,0,1.1,0.2c0,0.3-1.5,2.4-2.3,3.4
	c-0.7,0.8-0.8,0.7-2.7,0.6c-0.7,0-1.2,0-1.2-0.2c0.8-1.1,2-2.5,2.8-3.7C46.9,154.2,48,154.1,48.9,154.1z M50.6,155
	c0.1,0,0.2,0.3,0.2,0.9c0,0.5,0.1,1.8,0.1,2.5c0.1,1.1,0.1,1.1-0.3,1.8c-0.6,0.6-1.2,1.5-1.9,2.2c-1.1,1.2-1,1.3-1-1.3
	c0-2.1-0.1-2.1,0.3-2.5c0.2-0.3,0.9-1.1,1.4-1.8C50,155.6,50.4,155,50.6,155z M61.1,155.3l2.3,1.2l-2.3,2.3c0,0,0.6,0,0.8,0
	c1.5,0.3,1.3,1.8-0.1,3c-0.9,0.6-4,1.7-4,1.7c-0.1-1.3-0.4-2.5-0.3-3.9c0-0.6,0.1-1.4,0.6-1.9c0.3-0.4,0.9-0.6,1.7-0.1
	c0.4,0.4,0.6,0.8,0.6,0.8L61.1,155.3z M87.8,156.1c-0.9,0-1.6,0.7-1.6,1.6c0,0.9,0.7,1.6,1.6,1.6s1.6-0.7,1.6-1.6
	C89.4,156.9,88.7,156.1,87.8,156.1z M113.2,156.5c0,0,3,1.1,4.3,2.4c1.2,1.1,0.7,2.8-0.6,2.8c-0.1,0-0.6-0.1-0.6-0.1
	c0.4,0.6,1.8,2.2,1.8,2.2l-2.3,0.9c0,0-0.4-1.8-0.7-2.8c-0.8,1.9-2.8,0.7-2.9-0.5C111.9,159.8,112.6,158.1,113.2,156.5L113.2,156.5z
	 M87.8,156.7c0.6,0,1.1,0.5,1.1,1.1s-0.5,1.1-1.1,1.1c-0.6,0-1.1-0.5-1.1-1.1S87.2,156.7,87.8,156.7z M44,159c0.8,0,1.8,0,2.2,0.1
	c0.3,0.3-0.4,1.1-1.7,2.5c-1.1,1.2-1.3,1-2.6,1c-2.2,0-2.3,0-1.3-1.1c1.1-1.3,1.8-2.1,2.3-2.4C43.1,159,43.6,159,44,159L44,159z
	 M46.8,160.1c0.2,0,0.2,0.6,0.1,1.9l-0.1,2.3l-1.7,1.7c-2,1.8-1.8,1.9-1.8,0.2c0-1.4,0-2.3,0.3-2.9c0.9-1.1,1.8-2,2.8-3
	C46.6,160.2,46.7,160.1,46.8,160.1L46.8,160.1z M91,160.7c0.5,0,1.7,2.1,2,3.9c0.7,4.1,3.1,6,4.8,4.4c0.7-1,0.8,0.1,0.7,0.6
	c-0.4,5.2-6.2,3-6.8-2.1c-2,1.3-3.9-1.4-2.7-1.3C92,165.2,91.2,162.5,91,160.7L91,160.7z M84.3,160.7c0.3,1.8-2.9,4.9-4.7,2.7
	c-0.9-1.1-0.1-3.4,1.1-2C82,162.4,83.2,161.3,84.3,160.7L84.3,160.7z M40.3,163.2c0.7,0,1.6,0.1,2,0.1c0.6,0.1,0.2,0.3-1.1,1.5
	c-1.1,1-1.4,1.5-1.5,1c-0.1-0.7,0-1.5,0-2.5C39.8,163.2,40,163.2,40.3,163.2L40.3,163.2z M55.2,164.4l2,1.4l-1.9,1.8
	c1.7-0.1,1.9,1.6,1.2,2.5c-0.4,0.6-2.1,1.3-3.7,1.6c-1,0.2-1.8,0.3-1.8,0.3s0-0.8-0.1-2.1c-0.1-2.6,0.1-3.7,1.1-4.2
	c0.7-0.4,1.9,0.2,2.2,0.9c0.1,0.2,0.4,0.6,0.4,0.6L55.2,164.4z M42.7,164.5L42.7,164.5c0.1,0.2-0.3,4.4-0.3,4.4l-2.8-1.6
	C39.6,167.3,42.4,164.6,42.7,164.5L42.7,164.5z M117.6,165c2,1,3.5,0.8,4.9,2c1.2,0.6,0.8,2.3,0,2.7c-0.4,0.1-1,0.1-1,0.1
	c0.7,0.9,2.3,2,2.3,2l-2.5,1c0,0-0.3-1.7-0.7-2.6c-0.5,1.4-2,1.3-2.9,0.7c-0.6-0.5-0.9-2.1-0.6-3.5C117.2,167.1,117.6,165,117.6,165
	L117.6,165z M104.3,204.8C79.8,210.7,60,207,58,206.3l-1.6,2.3c-0.2,0.4-0.3,1.6-1.4,1.9l-1.6,2.4l0.3,0.3l-1.4,1.2l0.3,0.4l-1,1.5
	h-0.4l-2.4,3.6l0.4,0.4l-5.4,8.6h73.5C113.1,220.9,108.5,212.9,104.3,204.8L104.3,204.8z M103.9,205.8l0.4,1.2
	c-1.2-0.2-2.6-0.2-4.1-0.3C101.5,206.5,102.8,206.2,103.9,205.8z M99.6,206.9c-2.3,1.1-3.7,2.4-4.8,3.8c-1.3-1-3-1.8-5.1-2.3
	L99.6,206.9z M58.3,207.5l1,0.1c0,0-0.3,0.3-0.6,0.2C58.5,207.8,58.3,207.5,58.3,207.5z M105.1,208.1l0.7,1.3
	c-1.6-0.9-8.4-2.8-10.3,4c-2-2.8-10.4-6.8-14.7,1.8c-1.2-2.3-8.2-9-14.7-0.5c-2.5-5.3-4.6-5.7-9.3-5c3.3-3.2,7.9,0.1,9.9,2.9
	c5.5-4.6,10.2-3.2,14.2,0.5c5.2-5.7,10.4-4.4,14.1-1.5C97.6,207.8,100.1,206.6,105.1,208.1z M62.4,208.1c3.3,0.4,6.6,0.7,9.9,0.8
	c-1.9,0.7-3.9,1.3-5.4,2.7C65.6,210,64,209.1,62.4,208.1L62.4,208.1z M86.1,208.7c-1.8,0.9-3.7,2.1-5.3,3.5
	c-1.7-1.4-3.4-2.6-5.3-3.2C79,209.1,82.8,209,86.1,208.7z M107.2,211.4c0,0-0.7,0.1-0.9,0.2c-2.9,0.8-2.3,4.9,0.7,4.9
	c0.3,0,1-0.1,1-0.1c-0.1,2.8,0.8,3.5,3.6,3.3l4.8,8.7l-71-0.3l4.5-7.3c2.3,0.3,3.7-1,3.2-3c0,0,1.4,0.4,1.8,0.4c2.6,0,3.2-4,0.8-4.7
	c-0.3-0.1-1-0.2-1-0.2c1.1-2.8,4.2-1.2,5.1,0c2-1.7,4.2-0.9,5.1,1.2c0,0-0.4-0.2-0.5-0.3c-2.3-1.7-4.5,1.8-2.2,3.5
	c0.2,0.2,0.7,0.3,0.7,0.3s-0.3,0.2-0.5,0.7c-1.2,2,0.7,4.5,3,3.8c1.8-0.7,1.8-2,1.8-3.5c0,0,0.6,0,1.2,0.1c2.1,0,2.7-2.7,1.4-4
	c-0.7-0.7-1.6-0.6-2.1-0.7c2.5-2.4,4.1-0.8,5.8,0.4c0.3,0,3-3.3,6.3-0.1c-1.6-0.4-3.2,0.6-3.2,2.3c0,1.1,0.8,2,2.4,2.1
	c-0.2,0.5-0.3,0.9-0.3,1.5c0,1.7,1.3,2.8,3,2.6c1.4-0.2,2.5-1.8,2-3.2c-0.2-0.6-0.5-0.8-0.5-0.8c3.8,0.5,3.8-4.4,0.8-4.7
	c-0.7-0.1-1.3,0.2-2,0.9c1.8-3.6,5-2.9,6.2-1.4c1.6-1.2,3.9-2.9,6.6,0.1c-0.4-0.1-1.1-0.1-1.6,0c-2.2,0.6-2.2,3.3-0.5,4.2
	c0.5,0.2,1.1,0.4,1.7,0.4c-0.6,2.3,2,4,3.8,2.9c1.3-0.8,1.6-2.7,0.2-4.4c2.4-0.1,2.6-3.1,1.2-4.1c-1.1-0.8-2.3-0.4-3.2,0.7
	c-0.3-0.9,2-3.8,5.3-1.7C103.5,210.4,105.2,209.9,107.2,211.4L107.2,211.4z M108.2,213.7l0.9,1.7
	C108.5,215.5,107.6,214.8,108.2,213.7z M96.3,215.4c0.6,0,1,0.5,1,1.1c0,0.6-0.5,1.1-1,1.1s-1-0.5-1-1.1
	C95.3,215.9,95.7,215.4,96.3,215.4z M53.2,215.5c0.1,0.6,0.2,1.1-0.8,1.2L53.2,215.5z M65.2,216.5c0.5,0,1,0.4,1,1c0,0.6-0.4,1-1,1
	c-0.5,0-1-0.4-1-1C64.2,216.9,64.7,216.5,65.2,216.5L65.2,216.5z M81.1,216.8c0.6,0,1,0.5,1,1s-0.5,1-1,1c-0.6,0-1-0.5-1-1
	S80.6,216.8,81.1,216.8z"/>
<path d="M48.1,26.5C40.8,37,32.9,43,32.8,51.2
	c0,2.7,1.4,7.2,5.9,8c2.9,0.6,6.9-1.8,7-6.6c0-1,1-0.9,1,0.4c-0.1,3.8-1.3,8.2-3.3,11.8c3.2,0,6.4,0,9.6,0c-2-3.6-3.2-8-3.3-11.8
	c0-1.3,1-1.3,1-0.4c0.1,4.8,4.1,7.1,7,6.6c4.5-0.9,5.9-5.4,5.9-8C63.4,43,55.5,37,48.1,26.5z"/>
<path d="M130.6,223c-7.3-10.5-15.2-16.5-15.3-24.7
	c0-2.7,1.4-7.2,5.9-8c2.9-0.6,6.9,1.8,7,6.6c0,1,1,0.9,1-0.4c-0.1-3.8-1.3-8.2-3.3-11.8c3.2,0,6.4,0,9.6,0c-2,3.6-3.2,8-3.3,11.8
	c0,1.3,1,1.3,1,0.4c0.1-4.8,4.1-7.1,7-6.6c4.5,0.9,5.9,5.4,5.9,8C145.8,206.5,137.9,212.5,130.6,223L130.6,223z"/>
</svg>
