<?xml version="1.0" encoding="utf-8"?>
<!-- Generator: Adobe Illustrator 15.0.2, SVG Export Plug-In . SVG Version: 6.00 Build 0)  -->
<!DOCTYPE svg PUBLIC "-//W3C//DTD SVG 1.1//EN" "http://www.w3.org/Graphics/SVG/1.1/DTD/svg11.dtd">
<svg version="1.1" id="Layer_1" xmlns="http://www.w3.org/2000/svg" xmlns:xlink="http://www.w3.org/1999/xlink" x="0px" y="0px"
	 width="178.8px" height="249.6px" viewBox="0 0 178.8 249.6" enable-background="new 0 0 178.8 249.6" xml:space="preserve">
<path d="M14.2,40.3c-3.4,4.4-7.1,6.9-7.2,10.3
	c0,1.1,0.6,3,2.7,3.3c1.4,0.2,3.2-0.8,3.3-2.7c0-0.4,0.5-0.4,0.5,0.2c-0.1,1.6-0.6,3.4-1.6,4.9c1.5,0,3,0,4.5,0
	c-0.9-1.5-1.5-3.3-1.6-4.9c0-0.5,0.5-0.6,0.5-0.2c0,2,1.9,3,3.3,2.7c2.1-0.4,2.8-2.2,2.7-3.3C21.3,47.1,17.7,44.6,14.2,40.3
	L14.2,40.3z"/>
<path d="M164.6,209.2c-3.4-4.4-7.1-6.9-7.2-10.3
	c0-1.1,0.6-3,2.7-3.3c1.4-0.2,3.2,0.8,3.3,2.7c0,0.4,0.5,0.4,0.5-0.2c-0.1-1.6-0.6-3.4-1.6-4.9c1.5,0,3,0,4.5,0
	c-0.9,1.5-1.5,3.3-1.6,4.9c0,0.5,0.5,0.6,0.5,0.2c0-2,1.9-3,3.3-2.7c2.1,0.4,2.8,2.2,2.7,3.3C171.7,202.3,168,204.8,164.6,209.2
	L164.6,209.2z"/>
<path d="M14.1,11.4v2.8h2.7c0,0,0.1,2.7,0.1,8.3c0,5.5,0.1,8.2-0.2,9.7c-0.9,3.6-6.1,3.6-7.2,1
	C8.9,31.7,9.1,30.5,9,29H6.1c0,0,0,0.8,0,1.7c0,4,1.4,6,4.5,6.7c3.2,0.9,7-0.5,8.3-3.2c0.8-1.6,0.7-1.7,0.7-11.1
	c0-6.3,0.1-8.9,0.1-8.9h2.5v-2.8H14.1L14.1,11.4z"/>
<path d="M164.7,238v-2.8H162c0,0-0.1-2.7-0.1-8.3c0-5.5-0.1-8.2,0.2-9.7c0.9-3.6,6.1-3.6,7.2-1
	c0.6,1.5,0.4,2.7,0.5,4.2h2.9c0,0,0-0.8,0-1.7c0-4-1.4-6-4.5-6.7c-3.2-0.9-7,0.5-8.3,3.2c-0.8,1.6-0.7,1.7-0.7,11.1
	c0,6.3-0.1,8.9-0.1,8.9h-2.5v2.8H164.7L164.7,238z"/>
<path fill="#131F67" d="
	M24.1,19.5l0,210.5l130.6,0l0-210.5L24.1,19.5z M65.6,20.6l59.2,0.2l-9.2,14c-12-3.8-31.4-1.3-41.4,0.6
	C71.6,31.1,67.8,25.6,65.6,20.6z M25.8,21.2l38,0l8.9,16.2c0.3,0.5,0,1.4-0.2,1.9c-1.1,3.1-2.1,4.9-4.3,8.6
	c-2.1,3.5-2.9,6.7-2.1,8.8c0.1,0.3,0.2,0.7,0.2,1c-0.1,1.1-1,2.3-2.3,3.2c-0.8,0.1-2.6,0.2-3.6,1.2c-0.9,0.9-1.6,2.1-1.5,4.4
	c0,0.8,0.1,1.3,0.1,1.3C47.8,72.5,39.7,78,40,78.2c-0.1,0-10-4.6-14.2-5.7L25.8,21.2z M126.9,21.2l26.1,0l0,74.4l-9.8-6.5
	c0.8-0.6,1.3-0.9,2.2-1.5c0.2,0,0.5-0.1,0.6-0.1c1.7-0.4,3-1.7,2.4-3c-0.4-0.9,0.2-0.9,0.7-1.6c0.6-0.8,0.4-1.6,0.1-2.3
	c-0.2-0.3-0.1-0.5,0.2-1.1c0.8-1,0.2-2.7-0.8-3.2c-0.1-0.2,0.1-0.4,0.2-0.6c0.3-1.3-0.2-2.5-1.4-2.8c-0.6-0.1-0.8-0.3-0.6-0.8
	c0.4-0.9-0.1-1.3-0.9-1.6c-1.3-0.5-0.9-0.6,0.7-1.3c3.3-1.5,4.1-5.9,1.8-9.9c-0.3-0.5-1.1-1.7-1.6-2.5c-0.6-0.9-1.2-1.7-1.2-1.7
	l4.4-6.1c0,0-3-3.6-4.1-5.6c0.2-1,3.3-4.1,3.7-7.1c0.6-4.7-3-7.7-6.3-7.4c-2.3,0.2-5.2,1.7-5,6.1c0.1,1.3,0.6,2.8,1.6,4.4
	c0.7,1.3,1.5,2.6,2.4,3.9l-4.4,6l4.5,5.6c0,0-0.1,0.1-0.2,0.2c-0.4,0.7-1.7,2.8-2.3,4c-1.6,3.2-2.2,6.8,1.1,9.3
	c0.6,0.4,1,0.7,1.3,0.9c0.3,0.3,0.1,0.6-0.4,0.7c-0.6,0.1-1.3,0.1-1.9,0.4c-2.1,0.8-4.2,2-5.7,3.2c-0.8,0.7-2.2,2.8-3,4.6
	c-0.9,1.9-1.2,2.3-1.2,2.3l-15.5-9.9c0,0-0.4-0.3-0.5-0.4c-0.3-0.3-0.2-0.5,0-0.9c0.2-0.3,0.2-1.2,0.1-1.9c0-1.3,0-1.3,0.7-2.5
	c0.3-0.4,0.4-0.8,0.2-1.5c-0.2-0.7-0.3-0.5,0.2-1c0.2-0.2,0.4-0.3,0.4-0.6c0.1-0.3,0-0.9,0-1.9c0-2.1,0-1.9,1.2-2.9
	c1.5-1.2,2-1.7,2.3-2.2c0.3-0.7,0-1.3-0.8-2.8c-0.4-0.7-1-1.6-1.2-2.1c-0.5-0.9-1.3-2.1-1.7-3.3c-0.5-0.9-0.5-2.4,0-3.3
	c0.6-1.1,0.8-1.8,0.8-4.1c0-2.1-0.2-1.9,0.4-2.6C120.4,31.3,126.9,21.2,126.9,21.2z M143.5,29.2c0.1,0,0.2,0,0.3,0
	c1.3,0.1,2.6,0.5,3.7,1.6c1.6,1.6,1.5,3.9,1,6.3c-0.2,0.7-0.4,1.4-0.9,2.1c-0.3,0.4-0.5,0.8-0.5,0.8c0,0-0.4,0.7-0.9,1.4
	c-0.5,0.7-1,1.7-1,1.7s0.8,1.4,2.1,3.1c1,1.5,1.7,2.8,1.7,2.7c0,0-0.3,0.6-0.6,1.1c-1.1,1.4-3,4.3-3.1,4.6c0,0.1-0.2,0.2-0.2,0.2
	c0,0.3,0.4,0.6,1,1.4c3.5,4.8,4,8.9,1.4,11.3c-1.3,1.2-2.6,1.6-4,1.4c-2.6-0.3-4.9-2.5-4.7-5.6c0.1-1.5,0-1.9,0.9-3.6
	c0.4-1,1.3-2.6,1.9-3.4c0.5-0.6,1.1-1.4,1.1-1.4s-1.3-1.9-3.6-4.7c-0.4-0.5-0.7-1.2-0.7-1.2l4-5.9c0,0-0.5-1.1-1.2-2.3
	c-1.6-2.4-2.6-4.9-2.6-6.3C138.5,31.2,140.8,29.2,143.5,29.2z M153.3,112.9c-2.3,1.2-4.6,5.5-0.2,2.5l0.1,2.4
	c-2.3,3.3-6.8,0.9-5.7-2.5c-3.1,0.4-3.6-2.8-3.5-4.3c-4.1-0.9-2.7-5.2-2.7-5.2c-2.4-2-2.8-4.1-0.9-6.3c-2-1.2-2.5-2-4.6-2.9
	c1.6,14.6,9.5,22.1,17.8,28.9c-0.2,0-0.2,4.7-0.8,3.8c-11.8-8.8-19.4-18.9-20.8-35.2c-0.1,0.3-5.6-4.3-6.5-4
	c-1.9,26.4,19.2,43.8,27.9,47.2c0,0,0.1,3.7,0,3.7c-13.3-5.8-28.1-22.8-30.9-43l-7.8,12.1l-2.9-1.3L124.6,89l-8.6-5.4l-14,22.1
	c0,0-0.4,1.8,0.6,1.8c19.6,2.1,48.7,25.6,39,63.8c-0.8-0.3-2.2-1-2.3-1c1.5-3.3,5.8-24.6-7.1-41.9c-5.9-7.9-15-16.3-29.7-18.8
	c1.2,2.5,0.7,8.1,0.7,8.1l3.4,0.7c-1.1-1.2-2.1-2.2-2.6-3.5c-0.6-2.1,0.3-3.3,2.6-2c0.9,0.5,1.1,0.5,2-0.2c1.8-1.4,3.9,0,3.4,2.3
	c-0.1,0.3,0,0.5,0.9,0.6c2,0.2,4,1.2,5.2,2.7c0.6,0.8,0.8,0.7,1.3,0.2c1.4-1.2,3.7,0.5,3.3,2.3c-0.2,1-0.1,1.3,0.4,1.5
	c2.7,1.1,3.4,1.8,4.2,4.2c0.3,0.9,0.6,1.1,0.7,1.1c0.1,0,0.5-0.2,0.9-0.3c2-0.8,3.2,1.7,1.8,3.6c-0.3,0.4-0.1,0.8,0.4,1
	c1.7,0.9,2.8,3.1,3,5.4c0.1,0.9,0.2,0.9,1,0.8c2.2-0.1,3.3,2.9,1.5,4c-0.6,0.4-0.5,0.9,0,1.5c1.3,1.5,1.6,2.6,1.5,4.4
	c-0.1,2.3,0,2.3,0.7,2.6c2.2,0.8,1.8,4.3-0.4,4.3c1.5,3.6-0.5,7.9-0.4,8c4.1,2.3,0.4,4.7-0.8,4.3c0,0-0.6,1.6,0.1,2.4
	c-3.6,4.7-8.3,5.5-13.4,7.8l-0.2-16.6c2.2,1.7,4.3,3.3,6.4,5c0,0,0.5-0.2,0-0.6c-0.9-0.9-3.3-2.4-4-3c-1.4-1.1-6.7-6.1-7.7-7.3
	c-0.4-0.8-1-0.3-1-0.3c0.6,1.1,1.1,2.4,1.9,3.5c1.8,2.4,3.5,5.2,3.3,7.8c0,1.5-0.6,3.1-0.9,3.8c-0.2,1-1.9-0.2-1.5-1
	c0.7-2.4,1.3-4.3-1.3-8.2c-1.3-1.9-2.9-5.3-2.9-5.3l-1.1,0.3l0,21.7c-0.9,0-3.1,0.6-2.7,0.6c7-1.4,9.2,8.6,2.4,8.9
	c-1.3,0-2.6,2.3-2.8,3.5c0.1,2.9,0.5,6-1.7,8.8c-0.6,0.7-0.8,1.9-1.3,2.8c-2.6,4.6-3.8,7.2-3.5,8.4c0.1,0.3,0.1,0.7,0.1,0.7
	c-8.3,2.1-14.5,2.6-22.9,2.8c-0.1-0.1,2.8-8.2,4.9-12.4c1.6-3.1,2.4-5.2,1.9-5.8c-6.6,0.3-5.4-9.4,1-9c0,0,1.6-5.6,3.4-8.1
	c1.7-0.9,5.1,0.3,7-0.9c4.5-1.4,7.4,3.9,7.4,3.9l1.2-5l-39.6-0.2c0,0-3.9,1.6-5.9,0.7c-1.3-0.5-3.2-2-3.2-2s15.3-24.4,17.5-28
	c0.2-0.3-0.4-0.9-0.4-0.9c-0.1-0.8-18.1,28.3-18.1,28.3c-10.2-6.5-23-14.8-34.4-22l0-10.9c8.2-5.2,7.5-7.3-0.1-1.7
	c-0.1,0.1-0.2-4.1-0.2-4.1c5.8-5.2,1-3.6-0.2-1.8c0-1.3-0.3-3.1,0.6-3.8c2.5-2.3,5.5-0.2,5.7,3.3c3.3,0.6,2.9,3.6,3.8,4.7
	c3.4,1.9,1.6,4.8,2.4,5.8c3.6,2.2,1.1,5.8,0.3,5.8c0.4,0.3,4.9,3.3,5.3,3.2c-0.4-15.5-15.9-28.1-18-29.6l0.4-3.4
	c0,0,21.4,13.7,21.2,35.6l6.8,4c-0.6-22.5-10.8-37.8-28-47.4l-0.2-4.2c14.5,6.7,27.9,20.3,31,42.6l8-12.4l2.8,1.4l-12.8,20.6l8,5.3
	c6.2-8.2,11.4-18.2,14.6-23c-0.1-0.4-0.3-1.1-0.3-1.1c-30.6-5-47.8-33.6-39.6-63.5l2.1,0.9c-6.4,22.1,4,54,37.3,60.5
	c-0.1-2.4-0.5-8.1-0.5-8.1s-4.4-1.3-3.7-0.8c1.1,0.9,3.5,4.9,2.5,6.2c-0.7,0.1-2-0.3-3.3-1.3c-0.5-0.4-0.5-0.3-1.1,0.3
	c-1.6,1.7-3.9,0.7-3.9-1.6c0-1,0-1.2-1.4-1.2c-2.1,0-3-0.4-4.3-2.1c-0.9-1.2-0.8-1.2-1.9-0.8c-2,1-3.6-1.1-3-2.7
	c0.3-0.8,0-1-0.9-1.2c-1.8-0.3-3.8-2.5-4.2-4.3c-0.1-0.4-0.3-0.5-1.3-0.4c-2.1,0.1-3.2-1.2-2.4-2.9c0.4-0.9,0.6-1.3-0.3-2
	c-1-0.8-1.6-1.3-2-2.3c-0.4-0.7-0.4-1.2-0.7-2.8c-0.1-0.6-0.3-0.7-1-0.7c-2.1-0.3-3-2.4-1.4-3.9c0.5-0.4,0.5-0.4-0.2-1.4
	c-1.4-1.8-1.9-4.2-1.3-5.7c0.2-0.4,0-0.9-0.5-1.1c-1.9-0.5-2-2.6-0.1-3.8c0.5-0.3,0.6-0.6,0.2-1.3c-0.7-1.2-0.7-4.5,0-6
	c0.5-1,0.4-1-0.3-1.5c-1.5-0.9-1.1-3.5,0.7-4c0.8-0.2,0.9-0.3,0.7-1.3c-0.4-1.8-0.5-2.3,0.6-3c3-1.9,10.6-5.6,10.6-5.6l2.5-1.2
	c0,0,0.3,15.3,0.1,17.2c-0.1,0.8,0.6,1.2,1.4,2.1c1.7,1.7,2.6,3.7,4.9,5.1c0,0,1.4-0.8,2.3-1.3l0.1-21.9c0.2-0.5,0.3-0.6,0.9-0.6
	c0.5-0.1,1.7-0.2,2.1-0.3c1-0.3,1.1-0.7-0.1-0.5c-0.4,0-1,0.2-1.6,0.3c-4,1.2-6.9-5-3.9-8.1c0.6-0.5,2.8-1.4,3.8-1.5
	c0.3,0,1.1-1,1.7-2c0.6-1,0.8-1.7,0.5-2.7c-0.7-2,0-5.2,2.1-8.6c2.3-3.2,4-6.9,5-10.7c8.1-1,14.9-3,22.2-2.5c0.3,2.5-8,17-6.3,17.8
	c6.5,1.5,4.3,9.3-0.7,9c-0.7,0-0.8,0.1-1.3,1.7c-0.9,2.4-1.5,4.2-2.4,6.4c0,0.6-3.2,0.4-5.9,0.4c-1.2,0.9-6.1,3.3-8.9-2.9l-0.1,5.3
	c0,0,37.2-0.6,43.8,0.2c0.1-1.7,3.7,1.3,3.7,1.3l-18.2,28.5l0.9,0.8c2.6-3.2,18.4-28.6,18.4-28.6l34.2,22c-0.3,3.3,0,10.6,0,10.6
	c-9.4,5-6.5,7.5-0.1,1.5L153.3,112.9z M96.7,34.9c0,0,9.7,0.1,14.5,0.9c4.3,0.7,4,0.6,4,3.6c0,2.2,0,2.1-0.6,3.2
	c-1,1.9-0.9,3.8,0.8,6.5c1.6,2.6,2.8,4.5,2.8,4.9c0,0.6-0.1,1.3-1.5,2.2c-1.6,1.1-1.9,1.9-1.9,3.1c0,0.9-0.2,1.2-0.7,1.2
	c-0.2,0-1,0.4-1.9,0.8c-1.5,0.7-1.5,0.7-2.9,0.7c-0.7,0-1-0.3-1.2-0.2c-0.4,0.2-0.7,1.4-0.7,1.8c0,0.1,0.2,0,0.7-0.1
	c2.3-0.8,5.8-0.4,5.9-0.1c0.5,0.4,0.5,1.1-0.2,1.7c-0.5,0.7-0.7,1.1-0.5,2.2c0.3,1.5,0.1,2.1-0.7,2.6c-2.4,1.6-5.5,1.8-10.5,0.8
	c-5.3-1-8.9-3-11.9-6.6c-1.3-1.6-1.7-2.2-1-2.3c0.8-0.1,1.7-0.3,2.6-0.7c3.7-1.6,3.7-8.4-1.4-9.1C88.2,52,94.4,42.4,96.7,34.9z
	 M101.4,39.6c-1.8,1-2.7,2.2-2.7,2.9c0,0.3,0.1,0.2,0.9-0.3c2.5-1.6,9.1-4,11.4-2.6c1.7,1,2.3,0.7,1.4-0.7
	C110.1,35.6,103.9,38.2,101.4,39.6z M107.9,40.6c-0.3,0-0.5,0-0.8,0.1c-1.7,0.4-3.6,1.8-5.2,3.1c-0.8,0.6-1.9,1.8-2.1,2.2
	c-0.4,0.7,0.5,1.5,1.6,0.9c0.7-0.4,0.7-0.3,1.4-0.2c1.5,0.5,3.2,1.2,5.9,0.9c0.2,0.1,0.2,0.1,0.1,0.3c-0.2,0.4-1.1,1.2-2.3,2.1
	c-0.6,0.5-1.2,0.8-1.2,0.9c-0.2,0.3,0.7,0.3,1.6-0.2c1.3-0.8,2.8-2.4,3.8-3.7c0.1-0.1,0.2-0.2,0.3-0.4c0.1-0.3-0.5-0.2-0.8-0.3
	c-0.1,0-0.1-0.4-0.1-0.5c-0.1-0.4,0.1-1,0.1-1.6c0.1-0.4,0.5-0.8,0.9-1.1c1.4-1.4,1.3-2.1-0.6-1c-0.3,0.2-0.6,0.3-0.9,0.3
	c-2.8,0.1-4.4,0-6.7,1.9c-1,0.8-1.6,0.9-0.7,0c1.4-1.1,3.1-2.7,5.1-3.2c1.2-0.3,2.3,0.6,2.8,0.4C110,41.1,109,40.6,107.9,40.6z
	 M107.5,44.6c0.3,0.2,0.6,1.3,0.6,1.7c0,0.4-0.8,0.3-0.9,0l-0.4-1.2C106.6,44.7,107.2,44.5,107.5,44.6z M106,44.9
	c0.3,0.3,0.4,1.1,0.6,1.7c-0.1,0.4-2.9-0.2-3.2-0.6C103.9,45.4,105.3,44.7,106,44.9z M110.8,52.6c-0.2,0-0.5,0.1-0.7,0.3
	c-1.2,1.2-0.8,3.4,0.6,4.1c0.7,0.3,1.8,0.1,3.4-0.4c0.8-0.2,1.3-0.3,1.5-0.3c0.6,0,1-1,0.5-1.4c-0.5-0.5-1.7-0.4-3,0.6
	c-0.7,0.5-1.1,0.8-1.7,0.7c-1.3,0-1.9-1.3-0.6-2.8C111.3,53,111.2,52.7,110.8,52.6z M101.7,61.8c1.5,1.2,4.4,0.6,6.4-0.7
	c1.7-1.1,2.5-1.5,3.9-1.3c1.7,0.3,1.7-0.4,0.9-1.2c-0.8-1-2.9-0.7-4.7,0.5c-3.9,2.6-5.2,3-6.4,1.6c-1.2-1.5,0.2-3.4,1.6-2.3
	c1.2,0.8,1.1,0.2,0.7-0.3C101.4,55.7,99.4,59.9,101.7,61.8z M88.2,63c1.9,2.5,3.8,4.5,6.6,6l0,0.5l-9,0C86.4,68.4,88.2,63.1,88.2,63
	z M57.6,69.5c-0.2,3.7,0.5,5.9,2.7,8.5c2.3,2.8,2.1,7,0.6,9.7c-0.7,1.2-2-0.3-1.4-1c0.9-1.1,0.9-3.9,0.5-5.6c-1-2.8-3.1-4.2-4-7.2
	c-0.3-1.3-0.2-3.6-0.2-3.6L57.6,69.5z M60.4,69.8c0.2,0,0.4,0.1,0.8,0.5c1.3,1.1,1.1,4.3-0.4,6.3c-0.4,0.6-0.8,0.4-1.3-0.1
	c-0.6-0.6-0.4-0.6,0.1-1.6c0.5-1,0.7-2.2,0.6-3.6C60.1,70.3,60.2,69.8,60.4,69.8z M143.4,70.9c1.1,0,2.5,0.2,2.7,0.6
	c0.1,0.5-0.1,0.9-0.8,1.2c-1.7,0.7-3.8-0.3-3.3-1.5C142.1,71,142.7,70.9,143.4,70.9z M140.5,71.1c0.3,0,0.6,0.1,0.8,0.2
	c0.5,0.3-0.3,2.2,2.4,2.1c0.7,0.1,1.1-0.1,1,0.2c-0.1,0.4-1.3,1.1-2.5,1.3c-3.8,0.6-3.6,0.4-3.4,3c0.1,1.7,0,2.3-0.2,3.4
	c-0.4,1.8-0.6,3.6-0.3,3c0.4-0.8,1.3-3.2,1.3-4.6c0-2,0.7-2.5,1-1c0.1,1-0.3,1.5,0.3,2.5c0.4,0.6,0.5,0.6,0.3,1.4
	c-0.2,0.8-0.1,1,0.2,1.4c0.3,0.4,0.5,0.5,0.3,1c-0.5,1.2,0.3,2.3,1.4,2.4c0.5,0,0.7,0.3,0.5,0.5c-0.3,0.3-0.8,0.5-1.3,0.6L130.4,81
	c0,0,0.9-1.8,1.2-2.2c1.7-3.8,3.1-5.5,8.1-7.4C140,71.2,140.3,71.1,140.5,71.1z M146.8,73.6c0.3,0,0.6,0.2,0.8,0.5
	c0.7,0.9,0.1,2.1-1.7,3.1c-1.5,0.9-2,1-2.3-0.4c-0.1-0.2-0.3-0.5-0.4-0.7c-0.4-0.3-0.3-0.6,0.2-0.8c0.2-0.1,0.9-0.4,1.5-0.8
	C145.9,73.9,146.4,73.6,146.8,73.6z M141.8,76.3c0.4,0,0.8,0.1,1.1,0.3c0.5,0.3,0.5,1.1,0,1.4c-1,0.4-2.5-0.1-2.3-1
	C140.5,76.5,141.1,76.3,141.8,76.3z M147.9,77.3c0.3,0,0.6,0.1,0.8,0.5c0.6,0.9-0.1,1.7-2,2.7c-1.3,0.6-2.8,0.9-2.7,0.5
	c0.1-0.3-0.4-1.7-0.6-1.9c-0.1-0.2,0,0,1.6-0.5c0.6-0.2,1.2-0.5,1.6-0.7C147.1,77.4,147.6,77.3,147.9,77.3z M58.4,79.5
	c-0.9,2.1-1,3-0.6,5.2c0.3,1.8,0.7,2.8,2.6,5.5c1.4,2.1,1.9,2.9,1.6,3.5c-0.2,0.4-0.8,0.7-1.1,0.3c-0.7-0.9-1.1-2-1.8-3
	c-2.6-3.9-2.8-4.8-3.2-7.9c-0.1-1.4,0.6-4.4,1.3-4.8C58,78,58.7,79,58.4,79.5z M119.4,78.6c-0.7,0.5-1.2,1.6-1.5,2.4
	c0.1,0.6,0.5,0.2,1.7-1.6C119.9,79,119.7,78.5,119.4,78.6z M142.2,79.5c1.1,0,1.4,1,1,1.5c-0.7,0.7-1.9,0.2-1.9-0.8
	C141.2,79.7,141.4,79.5,142.2,79.5z M148,80.8c0.6,0,0.7,0.6,0.4,1.5c-0.4,0.8-0.9,0.9-2.3,1.4c-1.7,0.5-2,0.5-2.3-1.1
	c-0.1-0.6-0.1-0.5,1.6-0.9c0.7-0.2,1.5-0.5,1.9-0.7C147.6,80.9,147.8,80.8,148,80.8z M45.3,81.6l0.4,3.2l0.7-2.4L45.3,81.6z
	 M142.4,82.6c0.9,0,1.3,0.8,0.9,1.2c-0.2,0.3-0.9,0.3-1.1,0.1C141.4,83.5,141.5,82.6,142.4,82.6z M116.2,84.3l1.7,1l-13.5,21.3
	l-1.6,0l-0.1-0.3L116.2,84.3z M147,84.5c1,0,1.1,0.9-0.1,1.8c-0.5,0.3-1,0.4-1.5,0.4c-0.6,0-1-0.1-1.1-0.5c-0.3-1-0.4-1.3,0.5-1.2
	c0.2,0,0.7,0,1.1-0.2C146.3,84.6,146.7,84.5,147,84.5z M142.8,85.5c0.7,0,1.1,0.7,0.7,1.1c-0.6,0.5-1.3,0.2-1.3-0.5
	C142.2,85.6,142.3,85.5,142.8,85.5z M45.3,87l-3.7,3.3c1.4,1.6,2.5,3.2,3.7,4.9L45.3,87z M119.9,87.2c1.6-0.1,2.1,0.7,1.4,1.2
	c-1,0.7-1.9,0.7-3.1,0.5c-1.5-0.3-0.3-1.5,1.4-1.7C119.7,87.2,119.8,87.2,119.9,87.2z M118.2,89.5c0.3,0,0.8,0.1,1.4,0.3
	c1,0.4,2.3,1.4,2.3,2.1c-0.1,1-1.9,0.5-3.4-0.9C117.5,90,117.5,89.5,118.2,89.5z M116.8,89.5c0.9,0.1,1.8,3.1,1.1,4.1
	c-0.7,0.9-1.9-1.1-1.7-2.6C116.3,90.4,116.4,89.5,116.8,89.5C116.7,89.5,116.7,89.5,116.8,89.5z M57.5,90.2c0.5,0.1,1.2,0.8,1,1.4
	c-0.1,0.2-0.3,0.1-0.5,0.1c-0.4-0.2-0.7-0.8-0.7-1.2C57.4,90.3,57.4,90.2,57.5,90.2z M126.3,90.7l2.7,1.8l-2.7,0.1V90.7z
	 M115.2,94.4c2,0,2.5,0.7,1,1.5c-0.6,0.3-2.2,0.4-3,0.1C111.9,95.5,113.4,94.4,115.2,94.4z M131.8,95.7l0.1,1.8l-5.1,0.4l-0.3-1.9
	L131.8,95.7z M114,96.7c0.4,0,0.9,0.1,1.7,0.5c1.4,0.7,2.2,1.9,1.5,2.3c-0.7,0.3-1.8-0.1-2.6-0.9C113.4,97.4,113.3,96.7,114,96.7z
	 M112.3,96.7c0.9,0.1,1.7,2.6,1.1,3.9c-0.3,0.7-0.8,0.5-1.4-0.6c-0.6-1.1-0.6-3,0.1-3.3C112.1,96.7,112.2,96.7,112.3,96.7z
	 M45.5,97.4l-2.2,4.5l4.1,3.5L45.5,97.4z M132.4,100.9l0.4,1.8l-4.9,1.2l-0.5-1.9L132.4,100.9z M110.9,101.2c0.6,0,1.2,0.2,1.5,0.4
	c0.4,0.4,0.3,0.6-0.7,1c-1.9,0.8-4.2,0.3-2.9-0.8C109.3,101.4,110.1,101.2,110.9,101.2z M142.9,101.1c-1.9,1.3-0.1,2,1.3,1
	C144.1,101.8,143.3,101.1,142.9,101.1z M109.5,103.6c1.3,0,4,1.9,3.4,2.8c-0.3,0.5-2.1,0.1-2.8-0.6c-0.9-0.9-1.4-2.1-0.9-2.2
	C109.3,103.6,109.4,103.6,109.5,103.6z M107.8,103.7c0.7-0.1,1.8,3.1,1,3.9c-0.3,0.3-0.4,0.3-0.9-0.2c-1.1-0.9-0.9-2.6-0.2-3.6
	C107.7,103.8,107.7,103.7,107.8,103.7z M149.1,105.4c-0.2-0.3-0.4-0.5-0.7-0.7C141.9,107.2,143.6,109.6,149.1,105.4z M133.7,105.6
	l0.7,1.8l-5,2l-0.7-2L133.7,105.6z M48.8,109.1l-1.7,4.4c1.8,0,3.5,0.9,5.1,1.6L48.8,109.1z M135.3,110.3l1.1,1.8l-4.7,2.5l-0.9-1.9
	L135.3,110.3z M26.9,113.8l1.9,1.3l-2.8,3.5l-0.3-0.5l0-2.9L26.9,113.8z M137.8,114.9l1.1,1.6l-4.5,3.1l-1.1-1.8L137.8,114.9z
	 M31.7,117l2.1,1.6l-3.3,3.9l-2-1.5L31.7,117z M54.4,118l-0.1,4.7l4.9,0.2L54.4,118z M110.5,120.1l5.5,3.2l-0.8-4.8
	C113.8,118.7,111.9,119.6,110.5,120.1z M140.9,119.1l1.3,1.6l-4.2,3.5l-1.3-1.7L140.9,119.1z M35.9,120.5l1.9,1.8l-3.4,3.7l-1.8-1.7
	L35.9,120.5z M144.4,123.1l1.5,1.5l-3.8,3.9l-1.5-1.5L144.4,123.1z M40.3,125l1.5,1.7l-3.9,3.1l-1.4-1.7L40.3,125z M62.6,125.4
	l1.1,4.6c-0.1-0.3,4.8-1.4,5.5-1L62.6,125.4z M119.6,125.8l4.6,4.9l0.5-4.7L119.6,125.8z M148.2,126.6l1.7,1.3l-3.1,4.4l-1.9-1.5
	L148.2,126.6z M43.6,129.5l1.4,2l-4.1,2.4l-1.1-1.8L43.6,129.5z M152.6,130l0.3,0.3l0,3.1l-1.3,1.9l-1.8-1L152.6,130z M126.4,133.5
	l4.1,7.4l1.1-5.5C130.2,135.4,127.8,134.4,126.4,133.5z M46.9,134.5l1,2.1l-4.3,1.9l-1-2.1L46.9,134.5z M49.2,139.6l0.8,2.2
	l-4.6,1.5l-0.7-2.1L49.2,139.6z M28.8,143.5l1.4,1C37.6,140.6,35.3,139.5,28.8,143.5z M70.6,141.1c0.3,0,0.6,0.4,0.9,1.2
	c0.4,1.3,0.2,2.9-0.7,2.9c-0.6-0.1-0.8-1.6-0.8-2C69.9,141.8,70.2,141.1,70.6,141.1z M74.6,141.8l1.8,0.2l0,0.5l-14,22.2l-1.7-1.1
	L74.6,141.8z M67.1,142.3c0.6,0,1.4,0.4,2.1,1.2c0.4,0.5,0.9,1.1,1,1.8c0,0.2-0.4,0.1-0.7,0.1c-0.9-0.1-2.3-0.8-2.7-1.6
	C66.2,142.8,66.5,142.3,67.1,142.3z M131.6,143.1l1.9,9.1c0.6-2.3,1.8-3.6,2.7-5.4C133.8,145.7,132.8,144.4,131.6,143.1z M51,145
	l0.4,2.4l-4.7,1.1l-0.5-2.3L51,145z M68.6,145.8c0.1,0,0.1,0,0.2,0c1.7,0.2,2,0.6,0.8,1.4c-0.7,0.5-2.6,0.5-2.9,0
	C66.4,146.7,67.6,145.8,68.6,145.8L68.6,145.8z M34.3,147.2l1.5,0.9C38.3,146.2,35.6,145.8,34.3,147.2z M66.1,148
	c0.5,0,0.9,0.9,1,1.8c0.2,0.8,0.2,1.6-0.1,2c-0.4,0.5-0.8,0.6-1.1,0.1C65.1,150.4,65.1,147.9,66.1,148z M62.2,149.3
	c0.2,0,0.6,0.1,0.9,0.2c1.2,0.5,2.8,2.3,2.2,2.6c-1,0.4-3.2-0.7-3.6-1.9C61.5,149.7,61.7,149.3,62.2,149.3z M52.1,150.8l0.1,2.3
	l-5,0.2l-0.1-2.3L52.1,150.8z M64.3,152.8c0.5,0,1,0,1.4,0.2c0.7,0.3,0.2,0.9-1,1.3c-0.8,0.3-2,0.4-2.4,0
	C61.3,153.6,62.8,152.8,64.3,152.8z M25.8,153.1c3.4,2.1,10.5,6.7,10.5,6.7c-0.3,0.1-0.7,0.3-1,0.6c-0.3,0.2-0.5,0.4-0.8,0.5
	c-0.4,0.1-0.7,0.2-1,0.2c-2.2,0.5-3.3,1.7-2.6,3.3c0.3,0.6,0.3,0.5-0.1,1c-1.3,1.2-1.1,1.6-0.7,3.2c0,0.2-1.6,2.1-0.2,3.6
	c0.8,0.7,0.8,0.2,0.5,1.8c-0.1,0.9,0.2,1.7,1.5,1.9c0.7,0.3,0.7,0.2,0.5,0.8c-0.2,0.9,0.1,1.3,0.7,1.6c0.6,0.3,0.8,0.4,0.4,0.8
	c-4.4,2.2-5.8,6.2-1.6,12c0.5,0.7,1.7,2.6,1.7,2.6c-1.4,2.1-2.7,3.8-4.2,5.6l4.2,5.8c-0.7,1.1-2.3,3.2-3.2,5.3
	c-1.5,3.2-0.5,7.6,3.7,9c1.8,0.6,4.2,0.1,5.7-1.6c1.2-1.4,1.9-4.2,0.8-7.1c-1.4-3.3-3.1-4.9-3.6-5.8l4.5-5.6c0,0-3.1-4.4-4.3-6
	c8.4-10.2,1.5-13.1,0.2-14c-0.2-0.1-0.2-0.8-0.2-0.8c7.5-0.9,10.1-5,12.3-10.2c4.5,2.9,10.9,6.8,15.4,9.8c0.4,0.4,0.7,0.6,0.7,0.9
	c0,0.2-0.2,1-0.2,1.9c0.2,1.4,0.1,2-0.4,2.5c-0.5,0.5-0.4,0.7-0.3,1.2c0.1,0.9,0.3,1-0.1,1.5c-0.5,0.6-0.7,0.8-0.6,2.2
	c0,0.8,0.2,1.4,0,1.9c-0.3,0.6-1,0.9-2,1.7c-1.8,1.4-1.5,1.8,0.9,6.8c2.1,4.3,2.3,5.2,1.5,6.8c-0.7,1.3-0.9,2.2-0.8,4.1
	c0,0.5,0.1,1,0.1,1.2c0,0.6,0,0.5-0.3,0.9c-0.3,0.3-0.7,0.9-1,1.3c-2.9,4.3-10.5,15.4-10.5,15.4l-25.6,0L25.8,153.1z M61.7,155.1
	c0.3,0,0.7,0.5,1.1,1.6c0.2,0.6,0.2,1.7-0.2,2.1c-0.8,0.8-1.8-1.1-1.5-2.7C61.3,155.4,61.5,155.1,61.7,155.1z M133.6,153.9
	c0,3.9-0.1,9.1-1.4,12.8l1.5,0.7c-0.5-3.9,0.1-7,3.7-8.7C135.8,157.6,134.5,155.8,133.6,153.9z M57.9,156.4c0.1,0,0.3,0,0.4,0.1
	c0.6,0.2,1.3,0.5,1.7,0.9c0.7,0.7,1.5,1.6,1.3,1.7c-1.2,0.5-4.3-1.1-3.9-2.4C57.5,156.5,57.7,156.4,57.9,156.4z M52.5,156.6l0,1.9
	l-3-1.9L52.5,156.6z M120.4,157.5c0.5,0,1.2,0.7,1.1,1.1c-0.2,0.5-0.5,0.4-0.8-0.1C120.3,157.9,120.1,157.5,120.4,157.5z
	 M60.2,159.9c0.7,0,1.3,0.1,1.4,0.5c0,0.4-0.6,0.8-1.2,1c-1.7,0.5-3,0.2-2.5-0.6C58.1,160.2,59.2,159.9,60.2,159.9z M119,162.1
	c-0.7,1.3-0.8,5.4,0.5,7c2,2.2,3.8,5,3.5,8.7l-1.9,0.8c0.1-3.1,0-5.1-2.4-7.7c-2.9-3.1-2.2-8.5-1.2-10.1
	C118.4,159.3,119.6,161.5,119,162.1z M36.6,160.4c0.6,0,1.3,0.3,2.7,1.2c3.4,2.4,5.3,3.3,8.6,5.7c0.5,0.5,0.5,0.4,0.4,0.8
	c-1.3,4.9-5,8.8-10.6,9.5c-0.6,0.1-0.3-0.3-0.7-1.1c-0.4-0.8-1.1-1.1-2-1.1c-2.3,0-0.3-1.3,2.5-1.7c0.9-0.1,2-0.3,2.6-0.8
	c0.1,0.1-0.5-3.8,0.1-5.2c0.3-1.2,0-1.8-0.3-1.1c-0.2,0.5-0.5,1.7-0.7,3c-0.1,1.1-0.4,1.2-0.6,0.7c-0.1-0.2-0.1-0.8,0.1-1.3
	c0.2-1-1.1-1.8-0.8-2.7c0.4-0.8,0-1.6-0.4-1.9c-0.2-0.5-0.2-0.9-0.2-1.2c0.1-0.8-0.5-1.6-1.4-2c-0.4-0.2-0.3-0.4,0.1-0.6
	C36.2,160.4,36.4,160.4,36.6,160.4z M33.8,161.8c0.2,0,0.4,0,0.7,0.1c0.4,0.3,0.8,1.8,0.3,1.9c-0.2,0-0.8,0.1-1.2,0.2
	c-1.5,0.4-2.2,0.4-2.2-0.5C31.4,162.6,32.6,161.8,33.8,161.8z M35.8,161.9c0.6,0,1.1,0.7,0.7,1.1c-0.4,0.4-1.1,0.1-1.1-0.5
	C35.4,162.3,35.5,161.9,35.8,161.9z M36.2,164.4c0.2,0,0.4,0,0.6,0.1c0.6,0.3,0.9,1.2,0.5,1.6c-0.3,0.3-1,0.2-1.5-0.2
	C35.1,165.2,35.5,164.4,36.2,164.4z M34.3,164.5c0.3,0,0.6,0.1,0.7,0.4c0.1,0.2,0,0.4,0.1,0.7c0.1,0.5,0.4,0.8,0.2,1
	c-1.2-0.1-3.6,1.4-4.3,1.3c-0.6-0.1-0.7-0.6-0.1-1.5C31.4,165.4,33.3,164.5,34.3,164.5z M35,167.3c0.2,0,0.3,0.1,0.2,0.5
	c-0.1,0.3,0,0.9,0.2,1.3c0.2,0.4,0.5,0.7,0.4,0.9c-0.3,0.1-1.3,0.3-2.2,0.6c-1.1,0.6-4.2,2.4-3.4-0.5c0.2-1,1.4-1.6,3.3-2.3
	C34.3,167.5,34.8,167.3,35,167.3z M36.6,167.4c0.5,0,1,0.2,1.3,0.8c0.7,1.4-1.3,1.6-2,0.4C35.5,167.9,36,167.4,36.6,167.4z
	 M37,170.6c1.1,0,1.9,1.3,1.1,1.8c-0.6,0.3-1.3,0.3-1.9,0.1C35.2,172.1,35.7,170.6,37,170.6z M138.2,170.7c4,2.1,9.5,4,14.8,5.5
	l0,52.1l-36.2,0l-9.9-17.3c0,0-0.3-0.6-0.4-0.8c-0.2-0.5-0.1-0.9,0-1.3c0.3-1.2,1.3-3.5,2.2-5.1c2.4-4.4,5.8-9.2,4-13.4
	c-0.2-0.5,1.9-3.1,1.9-3.1c3.3,0.3,5.9-1.9,5-6.9C126.3,177.6,131.9,175.4,138.2,170.7z M35.2,170.9c0.1,0-0.2,1.1,0.4,1.8
	c0.4,0.5,0.3,0.5-0.9,1c-0.5,0.2-0.9,0.6-1.2,0.8c-1.7,1.6-3.5-0.5-1.8-2.1C33,171.3,34.5,171,35.2,170.9
	C35.1,170.9,35.2,170.9,35.2,170.9z M118.2,172c0.6,0.1,1.4,0.9,1.1,1.3c-0.8,1.4-0.9,2.1-0.9,3.6c-0.1,1.6,0.2,1.8-0.4,1.6
	c-0.4-0.2-1.1-0.5-1.3-0.9C116.3,176.6,117.3,171.8,118.2,172z M34.6,176c0.7,0,1.3,0.2,1.7,0.7c0.3,0.4,0.4,0.8,0,0.9
	c-0.8,0.4-3.3,0.2-3.4-0.3C32.8,176.5,33.6,176,34.6,176z M72.5,177c3.1,0,6.6,0.7,9.4,1.9c3.9,1.5,7.4,5.2,8.2,6.8
	c0.2,0.5-0.2,0.5-0.7,0.5c-4.7,0.8-6.2,6.5-2.3,9.3c1.2,0.8,2.2,0.7,2.2,0.7c1-0.1-4.4,10.3-6.6,16.8c-6.7-0.3-11.8,0.8-18.3-1.5
	c-0.7-1.2-0.5-3.7,0-5.1c0.5-1.2,1.1-2.1,0.8-3.5c-0.5-2.4-2.7-5.6-3.5-7.6c-0.7-1.5-0.6-2.1,0.5-3c1.3-1,1.7-1.2,2-1.8
	c0.3-0.5,0.2-0.6,0.2-1.7c0-1.3,0-1.1,1.1-1.3c0.4-0.1,1.3-0.4,2-0.7c1.4-0.8,2.4-0.7,3.3-0.3c0.4,0.1,0.3-0.3,0.5-0.8
	c0.1-0.2,0.2-0.6,0.2-0.7c0-0.2-0.5-0.2-1-0.1c-2.1,0.3-3.8,0.4-4.7,0c-0.8-0.3-0.7-0.8-0.3-1.6c0.4-0.8,0.7-0.7,0.5-2.3
	c-0.2-2,0.1-2.4,1-3C68.1,177.4,70.1,177,72.5,177L72.5,177z M83.6,178.7l9.9,0c-1,1.6-2.1,4-2.7,6.3c-0.1,0.2-0.2,0.4-0.4,0.1
	C89.1,183.2,87.5,181.2,83.6,178.7z M75.3,185.7c-1.2,0-2.7,0.6-4.5,1.7c-1.3,0.7-2.3,1.2-3.6,0.9c-0.8-0.1-0.9,0-1,0.2
	c-0.5,1.1,1.2,2.3,2.9,1.5c0.5-0.2,4.3-2.2,4.5-2.3c0.2-0.2,1.8-0.6,2.2-0.6c1.3,0,2,1,1.9,2.1c-0.2,1.5-2.4,1.6-2.5,0.2
	c-0.1-1-0.5-0.6-0.6-0.1c0,0.4,0.3,1.4,0.7,1.7c1.8,1.1,4.2-1.1,3.1-3.3C77.6,186.3,76.7,185.7,75.3,185.7z M67.2,191
	c-1.2,0.2-2,0.7-3.4,0.8c-1.1,0.2-1,1.1-0.3,1.6c0.5,0.3,1.2,0.1,3.1-1.1c1.9-1.2,3.5,1.3,2,2.6c-0.9,0.8-0.3,1,0.3,0.5
	C70.6,194.2,69.7,190.5,67.2,191z M73,197.4c-0.1,0-0.4,0-0.7,0.2c-1.4,0.6-2.5,1.3-3.2,2.2c-0.1,0.2-0.1,0.5-0.1,0.8
	c0,0.2-0.2,0.5-0.2,0.6c0,0.1,0.4,0.3,0.5,0.4c0.2,0.5,0.1,1.6-0.1,2.5c-0.1,0.4-0.7,0.5-0.9,0.8c-0.8,0.8-0.6,1.1,0.3,0.7
	c0.6-0.2,0.3-0.6,1.8-0.3c1.9,0.4,3.4-0.1,4.9-1c1.7-0.9,2.3-1.4,2.3-1.3c0.1,0.2,0,0.3-1.2,1.3c-3,2.5-5.2,3-6.8,2.1
	c-0.5-0.3-0.9-0.5-0.5,0.3c0,0.1,0.4,0.4,0.7,0.5c1.7,0.8,3.8,0.1,6.6-2c0.6-0.5,1.1-1,1.8-1.6c2.3-1.9,1.7-2.8-0.9-1.8
	c-0.8,0.3-1,0-2.1-0.4c-1.5-0.6-1.9-0.6-3.6-0.6c-1.5,0-1.7,0.1-1.7-0.1c0-0.3,1-1.4,2.1-1.9C73.1,198,73.4,197.5,73,197.4z
	 M75.7,202.1c0.3,0.3-0.1,0.4-1.2,1c-0.6,0.3-1.1,0.5-1.2,0.5c-0.1,0.2-1.1-2.1-0.8-2.2C72.6,201.3,75,201.5,75.7,202.1z
	 M71.9,201.9c0.2,0.5,0.4,1,0.5,1.5c0,0.2,0.1,0.4-0.1,0.4c-0.2,0-0.5,0-0.6-0.1c-0.2-0.4-0.5-1.7-0.4-1.9
	C71.4,201.5,71.8,201.7,71.9,201.9z M80.6,205.9c-0.1,0-0.2,0.1-0.5,0.2c-4.2,2.5-9.2,3.8-12.5,2.6c-1.1-0.4-1.3-0.3-0.9,0.5
	c0.3,0.5,0.8,1.1,1.7,1.4c2.7,0.7,6.9-0.3,10.2-2.5C79.9,207.1,80.9,205.9,80.6,205.9z M105.3,212.5c0,0,8.2,15.3,8.9,16l-60.5-0.3
	l10.2-14.4C64,214.7,88.5,218.1,105.3,212.5z"/>
<path fill="#D40000" d="
	M54.1,228.3l9.8-14.4c14.4,2.7,27.4,1.3,41.7-1.2l9.5,16L54.1,228.3z M130.7,174.6l-0.1-8.5l3,1.1c-1-4,1.6-8.1,4-8.3
	c-7.6-5.7-1.3-11.9-1.4-12c-8.3-4.3-4.1-10.9-4.7-11.5c-10.1-2.6-6.2-10.6-6.9-9.8c-5.9,1.8-9.1-3.2-9.3-7.2
	c-5.1,2.9-13-1.2-10.5-5.8c0,0,2.7,1.3,3.2,1c4.2-3,3.8,1.3,4.7,2.3c3.1-0.4,5,1.9,5.7,3.1c4.6,0,4.4-1.1,4.4,3.3
	c3.5,0.9,3.3,2.7,5.3,5.3c4.4,0,3.6,1.5,2.6,3.9c3.1,2.5,3.4,4.5,3.9,6.7c3.4,1.2,4,1.7,1.8,4.6c3,4.5,1.6,7.1,2,7.4
	c3.8,2.7,1.9,3.7,0.2,4.7c0.6,3.6,1,4.1-0.3,7.8c4.3,3.1-0.7,4.4-0.9,4.4l0,3L130.7,174.6z M25.8,152.3l-0.1-10.6l36.7,23.7
	l-4.6,7.3L25.8,152.3z M74.6,167.9l8.7-18.1L80.1,130l24.9,0.5c2.8,6.3,4.5,11.8,11.7,22.2l-7.6,2.4l0.3,12.7L74.6,167.9z
	 M95.8,163.2c-0.3-0.5-0.4-0.9-0.4-1.1c0.1-0.3,0.3-0.3,0.6-0.1c1.1,0.5,2.1,0.9,2.9,0c0.4-0.5,0.3-1.2-0.1-1.6
	c-0.6-1.2-2.5-0.3-3.1-0.3c-0.6,0-0.8-0.5-0.3-1.2c0.3-0.3,0.5-0.6,0.5-1c0.3-2.8-4.4-1.8-2.8,0.9c0.7,1,0.3,1.6-0.8,1
	c-1.2-0.7-2.9,0-2.8,1.4c0,1.1,1.4,1.8,2.6,1.1c0.3-0.2,0.5-0.3,0.7-0.4c0.5-0.2,0.9,0,0.8,0.6c-0.5,0.8-1.1,1.9-0.6,2.6
	c0.5,1,2.1,0.9,2.7,0.3C96.2,164.7,96.3,164,95.8,163.2z M153.3,107.6l-36.8-23.8c2.3-3,3.6-5.3,4.9-7.7l32,20.5L153.3,107.6z
	 M95.7,99.5l3.8,19.2l-25.7,0.4c-1.4-6.4-10.2-21.1-10.2-20.8l6.9-16.8l34.1,0L95.7,99.5z M86.1,92.3c0.6-0.6,0.6-1.5-0.1-2.5
	c-0.7-1-0.4-1.7,0.7-1c0.6,0.4,1.6,0.5,2.3,0.3c0.8-0.3,1.2-1,1.1-1.8c-0.2-1-1.3-1.3-2.5-0.9c-0.3,0.1-0.6,0.4-0.9,0.5
	c-0.7,0.3-0.9-0.5-0.3-1.5c0.7-1.1,0-2.3-1.2-2.4c-1.3-0.1-2.1,1.4-1.5,2.2c0.8,1.2,0.2,2-0.9,1.2c-1.6-1.1-3.6,0.3-2.8,2
	c0.4,0.8,1.8,1,3,0.5c1-0.4,1.3,0.1,0.7,1.1C82.3,92,84.4,93.9,86.1,92.3z M48.8,73.5l-0.3,10.2c-3.8-2.3-3.3-2.4-3.4-2.3
	c1.1,3.1-0.2,6.9-3.5,8.8c5.9,5.5,2.7,9.4,1.7,12c7.5,4.4,3.7,11.9,3.7,11.5c7.4,0,7.2,6.5,7.5,9.2c9.2-0.6,7.9,6.7,9.1,7.4
	c4.4-2,9.6-1.3,11,4.6c0.9,3.4-2.4,0.1-3.8,0.3c-5.1,3.1-4.1-1.6-4.4-2.3c-4.2,0.4-4.8-1.6-6.6-3c-4.5,0.9-4.1-0.6-3.9-3.4
	c-3.6-0.7-4.3-2.9-5.7-5.1c-4.9,0.2-2.9-3.3-2.9-4c-0.6-0.5-3.4-3.3-3.6-6.5c-5-1.4-1.9-3.9-1.7-4.8c-1.9-2.4-2.4-4.1-1.8-7.1
	c-4.5-2.1-0.7-4-0.4-5.2c-1.5-3.9-0.4-5.1,0.2-7.2c-2.9-3.4-1.2-3.2,0.9-5.2c0.3-0.4-0.5-2.1-0.4-3.1L48.8,73.5z M74.6,35.5l-8-14.4
	l57.5,0c0,0-6.3,8.7-8.7,13C101,31.9,87.6,33,74.6,35.5z"/>
<path fill="#E2CF00" d="
	M34.4,218.9c-5-1.2-5.9-7.5-1.2-12.7c0.4-0.4,0.6-1.1,0.6-1.1c-1.6-2.5-2.4-3.4-4.1-5.9c1.5-2.2,3.2-3.9,4.3-5.9
	c-0.1-0.3-0.6-0.7-1.2-1.5c-3.4-5-3.8-7-2.1-10c1.6-2.8,5.5-3.1,7.9-0.7c2.6,2.7,2.4,5.1-0.9,10.1c-0.7,1.1-1.3,2.1-1.3,2.1
	c0.9,1.9,2.5,3.6,4.1,5.9c-1.5,1.8-3,3.5-4.3,5.6c0,0,0.1,0.5,0.4,0.8c5.3,6,4.9,12.8-1.1,13.4C35.5,219,34.7,219,34.4,218.9z
	 M77,142.6c-0.1-0.2-19,30.3-19,30.3l2.2,1.4l18.1-28.2c0.3,0.2,0.5,0.5,0.5,0.8c0,0-14.9,24.2-17.4,28.1c-0.1,0.1,3.7,2.3,3.8,2.3
	c5.5-2.7,28.6-0.4,44-1.3c0.1,0-0.2,5.4-0.2,5.4s-3.5-4-4.2-4.1c-3.5-0.1-7.1,1.4-9.8,1.2c-1.7,0.5-3.6,6.6-4,8.1
	c-3.1-0.4-6,2.8-5.3,5.8c1,3.3,2.7,3,4.6,3.1c-0.2,3.7-6.8,13.6-6.8,18.4c7-0.6,14.5-0.7,21.7-2.8c0,0,2.7-7.8,6.1-12.9
	c1.1-2,1.7-4.9,1.2-6.7c-0.3-2,0.6-2.5,1.4-4c0.5-0.9,2.2-0.8,2.5-0.9c4.6-1.3,2.9-7.2,1-8.3c-2.4-1.3-5.9,0.7-7.2-1.9
	c-1.4-2.8-0.9-8.6-0.9-8.6l-34.6,0.2c0,0,9.8-18.5,9.5-18.7C81.4,147.8,77,142.7,77,142.6z M53.8,159.5c0.2-1.9,0.5-32.3-28.4-47.5
	l0.2-4c0.2-0.2,26.2,11.7,30.7,42.8l8-12.6l3,1.2C62.9,145.9,54.2,161.8,53.8,159.5z M36.3,148.5c1.2-3.5-0.8-1.7-2.5-1.8
	c-1.2-0.7-2.4-1.5-3.5-2.3c8.4-4.5,3.4-4.2-1.5-1.1c-1.3-0.7-2.9-2.2-3-2.1c9.5-6.1,5.9-6.2-0.1-1.8c0.2-4.1,0.1-2.6,0.1-4
	c5.2-5.6,0.4-2.5,0-2.5c-1.3-5.5,4.8-4.4,5.4-0.2c1.1,0.8,3.2,1.8,3.8,5.2c2.9,1.9,2.6,3.4,2.5,5.6c1.1,1.1,4.1,3.5,0.7,5.7
	L36.3,148.5z M25.4,123.3l0.2-3.1c0.4-1.2,22.6,14.6,21,34.9c0.3-0.1-2.5-1.4-3.2-2.1C43.4,138,27.4,124.9,25.4,123.3z M152.9,140.4
	c-14.8-6.8-28.9-23.1-29.7-44.2l-8.4,14l-3-1.3c0.3,0.2,6.6-11.5,13.2-19.7c1.8,26.7,12.3,39.1,28.2,48.1L152.9,140.4z M75.2,130.7
	c-14.4-1.8-35.2-21.3-29-47.8C47.1,80.2,61,95.1,61,95.1c0.1-0.7,12.5,19.2,12.1,23.1c10.5,3,30.9,0.2,30.9,0.2
	c17,3.8,34.7,22,28.3,48c0,0-4.5-3-8.3-6.4c-11.5-11-15.1-20.1-19.1-30.1C90.2,128.5,76.5,131.2,75.2,130.7z M153.1,108.6
	c0.3,1.3,0.1,4,0.1,4c-3.8,4.1-4.2,4.2,0.6,2.9c-0.6,4-3.5,4.6-5.3,3.3c-0.6-0.5-0.6-3.2-0.6-3.2c-2.9-0.7-3.9-1.6-3.5-4.7
	c-3.3-0.4-3.2-2-2.9-5.4c-3-1.7-2.3-4.4-0.5-5.6l1.5,1c-0.5,0.4-0.3,3.1,2.4,1.1c0,0,2.1,1.8,3.2,2.5c-7.7,5-3,3.9,1.7,0.6
	c0.9,0.6,2.1,1.6,2.7,2C146.2,111.6,144.1,115.4,153.1,108.6z M153.4,125.5l-0.3,3.6c-15.3-9.3-19.4-21.6-20.5-34.7
	c0,0,2.1,1.5,3,2.1C137,113.4,152.5,124.8,153.4,125.5z M69.9,81.2l36.6,0.2L96.7,100l5.1,6c0,0,12.7-19.8,19.1-30.1l-2.2-1.3
	l-18.2,28.6l-0.7-0.8l18-28.6c-1.1-0.7-3.1-1.8-3.1-1.8s-31.2,0.5-44.7,0.4c0.4-1.9,0.5-5.2,0.5-5.2c2,2.9,4.1,5.4,8.8,2.6
	c0,0,5.5,0.2,5.7-0.1c0.7-1.1,1.9-4.5,3.3-8.4c5.3-0.4,4.8-2.9,5.4-3.8c-0.4-7.5-4.6-3.5-4.3-6.2c1.2-4.9,7.3-15.9,6.5-16.9
	c-1.6-1-17.2,2-21.8,2.6c-0.4-0.2-2.6,7.1-5,10.2c-2.6,3.4-3.5,7-2.2,10.4c-1.3,3.8-3.9,3.4-6,4.4c-2.4,2.5-1.7,6.4,0.5,8
	c1.6,1,4,1,6.4-1L69.9,81.2z M142.6,55l-4.3-5.7l4.2-6c-1.6-2.6-4.3-6.6-3.9-9.7c1-6.2,9.5-5.3,10.2,0.6c0.4,2.8-1.6,6.2-3.7,9
	c1.4,2.5,1.9,2.9,3.9,5.7c-1.2,2.1-4,6.1-4,6.1c1.8,3,4.3,6.3,4.1,9.3c-0.2,2.6-3,5.2-5.7,4.7C135.1,67.3,139.7,58.5,142.6,55z"/>
<path d="
	M65.2,20.5c2.3,4.2,8.7,15.7,8.7,15.7c15.3-3.2,28.2-4,41.7-1l9.7-14.6L65.2,20.5z M67.2,21.3l2.8,0l5.4,11.2l9.4-1.9l-1.6-9.3
	l2.7,0l1.3,8.9l13.8-0.3l1.8-8.6l2.5,0l-1.8,8.7l10.9,1.5l5.3-10.2l3.7,0L115.2,34c-14.4-2.8-28.8-1.9-40.8,1.1L67.2,21.3z
	 M72.4,21.3l8.1,0l1.9,7.5c-1,0.5-4.7,1.4-5.9,1.3C75,27.6,73.5,23.8,72.4,21.3z M88,21.3l12.3,0l-1.1,6.4l-10.3,0.3L88,21.3z
	 M107.5,21.3l9.5,0l-3.7,7.8l-7.2-1L107.5,21.3z M143.6,29.1c-0.6,0-1.1,0-1.5,0.1c-2.5,0.5-3.7,2.4-3.8,5.5c0,1.4,1,3.9,2.6,6.3
	c0.8,1.1,1.3,2.2,1.3,2.2l-4.1,6l4.4,5.7c0,0-0.7,0.8-1.1,1.4c-2,2.8-2.9,5.5-2.8,7.7c0.1,2.4,1.5,4.1,4.1,5
	c1.4,0.5,3.4-0.1,4.8-1.3c1.1-1,1.7-2.3,1.7-3.8c0-2.2-1-4.8-3.1-7.6c-0.6-0.8-0.8-1.4-0.8-1.4s2.9-4.1,4-6l-4-5.7
	c3.2-4.7,3.8-5.8,3.9-8.7C149,31.6,146.9,29.1,143.6,29.1z M143.2,29.5c0.1,0,0.3,0,0.4,0c3.6,0.3,5.5,3,5,6.4
	c-0.5,3.3-3.5,6.3-3.9,7.4c1.4,2.3,4.1,5.6,4.1,5.6c-1.1,2.1-4.1,6.1-4.1,6.1s0.2,0.3,0.4,0.6c3.1,4.3,3.9,6.4,3.7,9
	c-0.2,2.1-1.8,3.9-3.8,4.3c-3.2,0.6-5.9-1.7-6.2-4.8c-0.2-2.7,1.5-5.3,2.9-7.3c0.6-0.9,1.1-1.7,1.1-1.7l-4.4-5.7
	c1.3-2.1,3-4.2,4.3-6c0,0-0.6-1-1.3-2c-2.4-3.8-3.1-5.7-2.7-7.8C139.2,31,141.2,29.5,143.2,29.5z M143.5,31.4c-1.3,0-2.6,1-3.1,2.4
	c-0.7,2.7,2.1,6.7,3.4,7.8c2.4-2.7,3.9-5.8,3-8C146.2,32.3,144.9,31.4,143.5,31.4z M143.9,32.3c2.4,0.1,3.3,2.9,1.5,6.2
	c-0.6,1.1-1.6,2.3-1.6,2.3s-0.9-1.1-1.4-1.9c-2.2-3.4-1.6-6,1.1-6.5C143.5,32.3,143.7,32.3,143.9,32.3z M95.7,33.8
	c-6.3,0-14.8,1.1-22.2,2.8c-0.6,4-2.6,8-4.8,11.1c-2.1,3.4-2.9,6.4-2.2,8.5c0.7,1.9-1.1,4.8-3.1,5c-2.5,0.2-4,1.9-4,4.4
	c-0.1,3.9,2.6,6.3,6.3,5c0.4,0,0.6,0.2,0.6,0.2l-0.2,22.3c-2.1,0.3-3.4,0.8-5.2,1.7c-3.2-3.7-6-6.3-8.4-8.1c-0.1-5,0.1-9.9-0.1-14.9
	c-3.7,1.4-7.6,3.7-10.8,5.9c-1.1,0.7-1.2,1.1-0.8,3c0.2,1,0.2,1.1-0.7,1.3c-1.7,0.4-2.3,3.2-0.8,4.1c0.7,0.4,0.7,0.5,0.3,1.5
	c-0.7,1.6-0.7,4.5,0,5.8c0.4,0.7,0.4,0.9-0.2,1.3c-1.9,1.2-1.7,3.8,0.2,4.3c0.5,0.1,0.6,0.3,0.5,0.8c-0.6,1.6,0,3.9,1.3,5.7
	c0.7,0.9,0.7,0.9,0.2,1.4c-1.6,1.4-0.7,3.9,1.4,4.2c0.7,0.1,0.7,0.1,0.8,0.6c0.2,1.6,0.4,2,0.7,2.8c0.5,1,1,1.6,2,2.4
	c0.8,0.6,0.8,0.6,0.4,1.6c-0.8,1.7,0.5,3.5,2.5,3.4c1.1,0,1.1,0,1.1,0.3c0.4,1.8,2.5,4,4.3,4.3c0.9,0.2,1.1,0.4,0.7,1.1
	c-0.5,1.2-0.2,2,1.1,2.7c0.8,0.4,1.1,0.5,2,0.1c1-0.4,1.1-0.4,2,0.8c1.3,1.7,2.1,2.1,4.2,2.1c1.4,0,1.4,0,1.4,1c0,2.3,2.5,3.3,4,1.6
	c0.6-0.6,0.6-0.6,1.1-0.2c2.2,1.6,4.2,2,4,0.5c-0.4-3.5-3-5.7-3-5.7l3.2,0.8c0.1,3.7,0.3,8.2,1.1,11.4l-14.3,22.7
	c0,0-0.9-0.5-1.8-1.2c-1.4-0.9-3-2-4-2.6c-0.5-0.3-1.2-0.7-1.7-1.2c-0.5-0.4,0.3-1,0.5-1.4c3.3-5.9,8.4-12.9,12.2-19.8l-3.6-1.4
	c-2.8,4.4-4.8,7.9-7.4,11.9c-2.6-18.9-15.8-35.4-31.7-42.4L25,112c16.7,8.5,28.7,26.2,28.4,47c-0.1,0.1-1.4-0.7-3.2-1.9
	c-1-0.6-2.9-1.9-3.1-2c0.8-23-22.1-36.7-22.2-36c0,0-0.1,3-0.2,4.4c9.8,6.5,17.4,18.4,18.2,29c0,0.1-4.6-2.9-4.6-2.9
	c2.7-1.3,2-4.9,0-5.8c-0.6-0.3-0.6-0.4-0.4-1.2c0.6-1.7-0.5-4.3-2.1-4.7c-0.7-0.2-0.8-0.4-0.8-1.3c-0.1-1.8-1.1-3-2.8-3.3
	c-0.5-0.1-0.5-0.1-0.5-0.7c-0.1-3.5-3.5-4.9-6.1-2.5c-0.3,0.3-0.6,0.8-0.6,0.8l0,3.7c0.9-0.5,2.2-2.1,2.7-2c0.6,0.1,0.3,0.5-1,1.6
	c-0.9,0.7-1.7,1.6-1.7,1.6l0.1,4.9c1.4-0.9,2.9-2,4.3-2.9c1.2-0.8,1.8-1.1,1.9-0.9c0.2,0.3-0.1,0.6-0.8,1c-1.8,1.2-3.9,2.6-5.4,3.8
	l0,3.4l0.3,0.4l0.1,3l-0.3,0.1v3.7l35.2,22.5l17.9-28.2l0.3,0.3l-17.9,28.1c0,0,0.7,0.6,1.4,1c0.7,0.4,1.6,0.9,2.4,1.4
	c0.4,0.6,1,1.1,1.7,1c0.6-0.7,3.3-1.4,3.6-1.7c10-0.1,38.8,0.1,38.8,0.1l0.2,4.6c-1.3-4.4-5.5-5.4-8.7-3.4l-5.4,0
	c0,0-3.2,5.7-3.7,8.7c-2.3-0.3-5.3,1.9-5.4,4.1c-0.4,3.2,1.7,5.5,4.5,5c0,0-0.4,3.2-2,5.6c-2.1,4.3-3.1,6.7-4.4,10.4
	c-0.8,2.3-0.6,2.7-0.4,2.8c8-0.1,15.4-0.9,23.1-3.4c0,0-0.1-0.5-0.2-0.9c-0.3-1.2,0.8-3.8,3.7-9c2.3-4,2.9-5.6,3.2-7.5
	c0.1-1,0.1-1.2-0.2-3c0-0.2-0.1-0.4-0.1-0.6c0.2-1.2,2.1-3.3,2.1-3.3c0,0,0.7-0.1,0.9-0.1c4.2-0.3,5.4-5.9,1.9-8.5
	c-1.7-1-2.7-1.1-4.5-0.6l0-21.9l2.5,0.1l2.8-1.4c4.5,3.8,7.4,7.7,12.2,10.6l-0.1,0.2l-3.6-2.4l0,14.3c4.1-2.1,8-4.1,11.7-7.1
	l-0.8-0.6l0-2c3.5,0.3,3.8-4.2,1-4.7c0,0,0.1-0.4,0.3-0.9c0.9-1.8,1-3.5,0.4-5.4c-0.4-1.1-0.4-1.4,0.1-1.4c2.1,0,1.9-3.7-0.2-4.6
	c-0.7-0.3-0.7,0-0.5-2.4c0.1-1.7-0.3-2.9-1.6-4.5c-0.5-0.6-0.5-0.9,0.2-1.2c1.8-1.1,0.5-4.3-1.7-4.2c-0.9,0-0.9,0-0.9-0.8
	c-0.2-2.3-1.5-4.5-3.1-5.4c-0.5-0.3-0.6-0.5-0.3-0.9c1.4-1.9,0.1-4.5-1.9-3.7c-0.4,0.1-0.8,0.3-0.9,0.3c-0.2,0-0.3-0.2-0.6-1
	c-0.8-2.4-1.6-3.1-4.2-4.2c-0.5-0.2-0.6-0.4-0.3-1.4c0.4-1.9-2.1-3.6-3.5-2.4c-0.6,0.5-0.6,0.5-1.2-0.3c-1.3-1.4-3.3-2.5-5.1-2.6
	c-0.9-0.1-1-0.1-0.9-0.5c0.5-2.3-1.7-3.7-3.6-2.4c-0.9,0.7-1.1,0.7-2,0.2c-1.9-1.1-2.7-1.1-2.9-0.1c-0.1,0.8,0.1,1.8,0.3,2.3
	c0.5,1.6,1.1,2.2,2.4,3.3c0,0-2.2-0.6-2.7-0.7c0-0.1-0.2-7.5-1.6-11.8l13.9-22.1l8,5.2l-12.7,20.1l3.7,1.5c0,0,5-8.2,7.6-12.2
	c1.7,20,17.2,37.6,31.2,42.8c0,0,0-2.9,0.1-4.3c-14.8-6.5-28.9-24.7-28-46.5l6,3.8c1.7,17.5,9.4,27.8,22.1,36.4l0-5.4
	c-8.8-6.5-16-14.9-18-28.5c0,0,3,1.9,4.3,2.8c0,0-0.4,0.2-0.6,0.4c-1.6,1.3-1.1,4,1,5.6c0.3,0.3,0.3,0.3,0,1.1
	c-0.6,1.7,0.3,3.7,2,4.2c0.9,0.2,0.9,0.2,1,1.3c0,2.1,0.9,3.1,3.1,3.6c0.3,0.1,0.3,0.1,0.3,1c0,2.3,2.2,3.9,4.2,2.9
	c0.6-0.3,2.5-1.9,2.5-1.9v-3.7c0,0-0.9,0.7-1.5,1.3c-1.1,1-1.4,1.2-1.5,0.5c0-0.4,0.5-1,1.6-1.8c0.5-0.4,1.4-1.3,1.4-1.3l0-4.4
	c0,0-0.5-0.8-0.5-1.7c0-0.5,0.2-1.3,0.2-1.3l0.5,0l0-5.1l-0.6-0.5l0-3.4l-34.8-22.5l-18.3,28.9l-0.5-0.5l18.2-28.6l-4.8-3.1
	l-2.9,1.4c0,0-20.2-0.3-39.8-0.1c0,0-0.1-0.5,0-2.1c0-1.9,0.1-2.2,0.5-1.4c0.8,1.8,2.8,2.9,5.1,2.8c1.3-0.1,1.5-0.1,2.9-0.9
	c0.5-0.3,0.6-0.3,3.2-0.3c2.7,0,3.2-0.1,3.2-0.6c0.9-2.1,1.9-4.6,2.4-6.5c0.3-0.9,0.4-1.3,0.6-1.5c0.2-0.1,0.3-0.1,0.7-0.1
	c1.7-0.1,2.2-0.2,3.5-1.4c2.5-2.5,1.1-7.6-2.6-7.6c-1,0-0.3-2.5,1.7-6.7c2.1-4.3,2.4-4.9,3.5-7.8c0.7-1.9,1-3.2,1.1-4
	C96.1,33.8,95.9,33.8,95.7,33.8z M95.5,35c0.5,0.4-0.8,3.5-3,8.2c-1.9,3.9-2.7,5.8-3.1,7.2c-0.1,0.4-0.3,1-0.4,1.3
	c-0.1,0.4-0.3,0.6-0.7,0.9c-0.3,0.2-0.7,0.5-0.9,0.7c-0.6,0.5-0.8,0.3-0.6-0.6c0.3-1.8,1-3.8,2.7-7.2c1.3-2.7,2.6-5.6,3.6-8.6
	c0.2-0.7,0.3-1.4,0.7-1.7C94.4,34.8,94.9,34.9,95.5,35z M92.8,35.2c0.4,0.2-1.3,4.5-4.1,10.3c-3.5,7.3-3.7,12.5-0.5,13.7
	c2.5,1,5-1.8,3.5-3.8c-0.7-1-2.3-1-2.9,0c-0.3,0.6,0.1,1.2,0.7,0.4c0.8-1.1,2.4,0.2,2,1.5c-0.3,0.9-1.5,1.6-2.3,1.5
	c-3.5-0.7-2.8-5.6,0.8-5.9c3.4-0.3,5,4.4,2.5,7c-0.8,0.9-1.7,1.3-3.3,1.3c-2.2,0-4.3-1.9-4.1-3.6c0.3-1.6,0.3-2.8-0.2-4.1
	c-0.2-0.4-0.4-0.8-0.4-1.3c0-1.4,1.2-3.5,3.7-8.9c0.9-1.9,2-5.2,2.6-7.3c0.2-0.6,0.1-0.8,0.3-0.9C91.5,35.1,92.3,34.9,92.8,35.2z
	 M89.9,35.3c0.5,0-0.7,3.9-2.2,7.1c-1.2,2.5-2.7,5.7-3.9,8.7c-0.4,0.6-0.6,0.7-1.4,0.3c-0.8-0.4-0.6-1.2,1.4-5.1c1.5-3,3-6.4,4-9.9
	c0.1-0.4,0.2-0.8,0.6-1C88.8,35.2,89.3,35.2,89.9,35.3z M87,35.7c0.3,0.4-1.6,5.5-4.4,11.4c-0.6,1.2-1,2.4-1.6,3.6
	c-0.3,0.3-1.4,0.4-2,0.6c-0.6-0.1,0-1.2,1.6-4.5c1.3-2.7,1.7-3.5,2.4-5.2c0.5-1.2,1.3-3.3,2-5.3c0-0.2,0.1-0.5,0.3-0.6
	C85.9,35.6,86.5,35.5,87,35.7z M84.3,36c0,0.1-0.1,0.4-0.1,0.6c-0.4,2.1-1.5,4-2.2,6c-0.1,0.3-0.9,2-1.8,3.8
	c-0.9,1.8-1.8,3.5-1.8,3.8c-0.1,0.3-0.4,1.1-0.7,1.8c-1.6,3.5,0.1,6.2,2.3,6.4c3.4,0.3,3.7-4.4,1.3-4.9c-0.9-0.2-1.9,0.3-1.9,1.4
	c-0.1,0.5,0.6,1.2,0.6,0.4c0-1.4,1.9-1.3,2.2-0.2c0.5,2.3-2.2,3.5-3.8,1.6c-0.7-0.8-0.6-1.6-0.5-2.4c0.3-2.1,2.7-3.6,5-2
	c3.1,2.2,2,6.9-1.9,7.7c-1.3,0.3-3-0.1-4.1-1.2c-0.7-0.7-1.1-1.7-1.3-3c-0.1-0.7-0.1-1.5,0-2.3c0.3-2.4,2.1-6,3.7-9
	c1.2-2.5,2.2-5.8,3.3-8.5C82.6,35.9,84.3,35.7,84.3,36z M81.3,36.3c0.2,0-0.7,2.9-2.1,6.1c-1.4,3.2-3.3,6.8-4.4,9.9
	c-0.3,0.8-0.6,0.7-1.5-0.1c-0.5-0.5-0.2-1.2,1.5-4.8c2.7-5.5,3.7-7.9,4.1-9.2c0.2-0.6,0.3-1.4,0.8-1.6
	C80.3,36.4,80.8,36.2,81.3,36.3z M78.6,37c-0.3,0.9-1.2,3.7-2.8,7c-1,2.1-2,4.3-3,6.5c-0.5,1.3-0.6,1.3-1.5,1.5
	c-1.6,0.3-1.6,0.3-0.2-2.5c0.4-0.8,1.2-2.4,1.8-3.5c1.1-1.9,2.7-5.7,3.3-7.6c0.2-0.5,0.4-1,0.6-1.2C76.9,37,78.2,36.7,78.6,37z
	 M75.1,37.4c0.3,0,0.5,0,0.7,0.2c0.1,0.7-1.7,4.8-2.8,6.7c-0.3,0.6-0.7,1.4-1,2c-1.4,2.2-3,6.4-3.5,8.1c-0.7,2.8,2.5,4.9,4.1,2.9
	c1-1.2,0-3.4-1.6-2.8c-0.5,0.2-0.3,0.4,0.4,0.5c1.2,0.1,1.3,1.9,0,2.3c-1.4,0.4-2.4-0.8-2.4-2c0-2.5,2.8-3.5,4.5-2.1
	c1.7,1.4,2,4.9-0.6,6.2c-2.6,1.3-5.7-0.5-6.4-3.5c-0.5-2.3,0-4.5,2.3-8.1c1.3-2.1,3.3-5.7,4.4-8.8c0.2-0.5,0.4-1,0.6-1.2
	C74,37.6,74.6,37.4,75.1,37.4z M143.8,44.8l-3.4,4.4c1,1.4,3.4,4.3,3.4,4.3l3.3-4.2L143.8,44.8z M143.8,47.2l1.4,1.8l-1.6,1.9
	l-1.5-1.8L143.8,47.2z M143.9,56.7c0,0-4.2,4.5-3.2,7.9c0.8,3,5.4,3.7,6.5-0.7c0.1-0.4,0-0.8,0-1.4
	C147.1,60.8,143.9,56.7,143.9,56.7z M143.9,57.6c0,0,1.2,1.7,2,3.3c0.9,1.5,1.2,5.5-2.2,5.4c-1.8,0.2-3.5-2.2-2.1-5.1
	C142.1,60.3,143.9,57.6,143.9,57.6z M75.3,58.3c0.2,0,0.5,0.5,0.6,0.8c0.2,0.5-0.4,1.9-1,2.6c-0.1,0.1-0.9,0.2-2,0.8
	c0-0.5,0.3-1.7,0.5-2.2C74.2,59.6,74.8,58.6,75.3,58.3C75.2,58.3,75.2,58.3,75.3,58.3z M67,58.6c0.5,0.6,1,1.1,1,1.4
	c0,0.5-0.6,1.2-1.1,1.6c-0.6,0.6-1.8,0.2-1.7-0.5C65.1,60.9,66.8,58.6,67,58.6z M84.6,59.3c0.5,0.3,1,1.2,1.1,1.6
	c-0.7,3.9-3.4,8.6-3.3,8.5c0,0-1.6,0.3-2.3-0.1c1.8-2.5,3-5.7,3.8-8.3C84.2,59.9,84.3,59.3,84.6,59.3z M83,59.9
	c0.3,0,0.4,0.2,0.2,0.8c-1.1,4.3-3.5,8.8-5.3,9.7c-2.5,1.1-4.9,0.2-6-1.7c-1.1-2-0.9-5.2,2.9-5.9c2.2-0.2,4.5,1.5,3.3,4.3
	c-1.3,2.1-4.9,0.9-3.8-1.8c0.8-1,2.4-0.1,1.9,1c-0.3,0.6,0,0.9,0.4,0.5c1.3-1.3-0.8-3.4-2.3-2.3c-2.3,1.8,0.6,5.6,3.3,4
	c0.8-0.5,2.3-3.4,2.9-5.4c0.2-0.9,0.5-1.7,1-2.3C82.1,60.3,82.7,59.9,83,59.9z M76.8,60.1c0.1,0,0.3,0.1,0.5,0.2
	c0.3,0.1,0.6,0.4,0.6,0.7c0,0.4-0.3,1.2-0.7,1.6c-0.3-0.1-1-0.4-1.4-0.5c-0.3-0.1,0.1-0.7,0.3-1.1C76.4,60.3,76.5,60.1,76.8,60.1
	C76.8,60.1,76.8,60.1,76.8,60.1z M69.1,60.2c0.4,0,0.9,0.4,1.3,0.4c0.1,0.5-0.6,1.7-1.7,3c-0.9,1.1-0.9,1.1-1.5-0.1
	c-0.4-0.8-0.4-0.8,0.7-2.2C68.5,60.6,68.7,60.3,69.1,60.2C69,60.2,69.1,60.2,69.1,60.2z M72.6,60.6c0,0.3-0.1,0.9-0.3,1.3
	c-1.3,3.7-4.2,7.5-6.6,8.4c-3.2,1-6.1-0.6-6.1-4.5c0.1-4.5,5.5-5.8,7.1-1.6c0.7,1.9-1.3,4.7-3,4.2c-1.7-0.5-2.5-3.2-1-3.9
	c0.9-0.4,1.9,0.3,1.7,1.3c-0.1,0.3-0.1,0.4,0.1,0.4c0.9-0.2,0.4-2-0.6-2.4c-2-0.9-3.5,1.8-2.2,3.9c1.6,2.4,4.2,1.9,5.6-1
	c0.3-0.5,0.7-1.2,1.1-1.6c0.9-1,1.2-1.4,2-2.8c0.4-0.8,0.7-1.2,0.9-1.5C71.6,60.7,71.8,60.8,72.6,60.6z M79.7,60.8
	c0.4,0,0.7,0.2,0.7,0.8c0,0.4-0.6,2.3-0.9,2.7c-0.1,0.2-0.4,0.8-0.4,0.6c-0.4-1.2-1-1.6-1.1-1.9c-0.1-0.4,0.2-0.7,0.4-1.1
	C78.6,61.2,79.2,60.8,79.7,60.8z M86.4,61.4c0.5,0,1.1,0.2,1.2,0.5c0.4,0.7-2.4,7.6-2.5,7.6L83,69.4c1.3-2.7,2.4-5.4,3.2-8
	C86.3,61.4,86.3,61.4,86.4,61.4z M114.8,72.2l2.7,1.6l-17.7,28.1l-2.6-2L114.8,72.2z M70.5,72.8c16.6,0.1,39.3,0,39.3,0l-1,1.8
	c0,0-24.9-0.2-38.4-0.2L70.5,72.8z M48.2,73.9l0,9.2c-1.7-1.5-6.9-4.8-6.9-4.7C41.2,78.4,45.7,75.5,48.2,73.9z M119.1,74.8l1.7,1
	l-18.6,29.6l-1-2L119.1,74.8z M70.5,75.2l2.6,0l0,2.9l-2.6,0L70.5,75.2z M76.5,75.2l3.1,0l0,2.9l-3.1,0L76.5,75.2z M83.4,75.3l3.2,0
	l0,2.9l-3.2,0L83.4,75.3z M90.1,75.3l3.3,0l0,2.9l-3.3,0L90.1,75.3z M96.9,75.3l3.2,0l0,2.9l-3.2,0L96.9,75.3z M103.7,75.4l3.3,0
	l0,2.1l-0.5,0.9h-2.8L103.7,75.4z M121.5,76.3l31.6,20.4l0,2.8l-32.9-21.2L121.5,76.3z M119.4,78.7l0.3,0.2l-1.3,2l-0.3-0.2
	L119.4,78.7z M70.6,79l35.4,0l-1.1,1.8l-34.4-0.1L70.6,79z M41.5,79.9c0.2,0,0.7,0.2,1.4,0.6c1.7,1,2.8,3,2.1,3.8
	c-0.7,0.7-2.2-0.7-3.2-2.8C41.3,80.4,41.2,79.9,41.5,79.9z M104.2,81.7L92.8,99.9c-2.6-3.5-5.5-6.6-11.8-4.5
	c-3.3-2.5-6.8-2.9-10.5-0.8l0-12.9L104.2,81.7z M45.4,81.7l0.9,0.8c-0.3,0.5-0.4,1.2-0.6,1.9C45.7,83.4,45.6,82.6,45.4,81.7z
	 M117.9,81.9l35.2,23.1l0,2.1l-36.5-23.4L117.9,81.9z M40.7,82.4c0.5,0,0.9,0.2,1.2,0.6c0.5,0.6,0.3,1.8-0.4,2.3
	c-1.5,1-3.3-0.9-2.1-2.3C39.8,82.6,40.3,82.4,40.7,82.4z M46.5,82.7l1.9,1.5c-3.3,19,6.2,38.2,26.8,43.9l0.2,2.4
	c0,0.1-8.7-2.6-12.6-5.5c-5.2-3.5-9.7-8.5-12.7-14.3c-2.1-3.7-3.2-7.8-4-11.2C45.4,94,45.4,88.3,46.5,82.7z M44.4,85.2
	c0.7,0,0.8,0.6,0.2,1.6c-0.8,1.3-1.9,2.2-3.8,3c-1,0.4-1.3,0.2-1.2-0.9c0.2-1.6,1.3-2.8,3.3-3.5C43.4,85.4,43.9,85.3,44.4,85.2z
	 M50,85.5c0.3,0.3,0.4,0.3,0.8,0.6c-0.6,0.2-1.1,0.8-1.1,1.5c0,0.9,0.7,1.6,1.6,1.6c0.8,0,1.5-0.6,1.6-1.3c0.3,0.3,0.6,0.5,0.8,0.7
	c-0.4,0.9-1.3,1.6-2.4,1.6c-1.4,0-2.5-1.1-2.5-2.5C48.8,86.7,49.3,85.9,50,85.5z M51.3,86.7c0.1,0,0.2,0,0.2,0
	c0.2,0.2,0.4,0.3,0.6,0.5c0.1,0.1,0.1,0.2,0.1,0.4c0,0.5-0.4,0.9-0.9,0.9c-0.5,0-0.9-0.4-0.9-0.9C50.4,87.1,50.8,86.7,51.3,86.7z
	 M45.2,87.3c-0.2,2.4-0.1,5-0.1,7.6c-0.5-2-1.5-3.6-3.3-4.6C43.1,89.5,44.4,88.4,45.2,87.3z M54.5,89.2l1.7,1.5
	c-1.5,20.1,16.2,27.8,16.7,27.4l0.7,2.3C61.4,116.2,53,103.7,54.5,89.2z M152.9,137.5l-0.1,2.5c-13.8-5.4-29.6-25.1-29.4-44.1
	c-3.6,5.4-5.5,9.1-8.6,14l-2.4-1.2c4-5.9,7.8-12.3,11.8-18.1c0.5-0.7,0.8-1,0.8,0.5C125,97.6,127,124.4,152.9,137.5z M40.3,90.8
	c0.5,0,1.1,0.2,1.9,0.7c1.3,0.8,2.7,3.5,2.2,4c-0.4,0.5-2.3-0.1-3.3-1.1C39.3,92.5,39.2,90.9,40.3,90.8z M51.1,91.1
	c1.4,0,2.5,1.1,2.5,2.5s-1.1,2.5-2.5,2.5s-2.5-1.1-2.5-2.5C48.6,92.2,49.7,91.1,51.1,91.1z M56.8,91.3l1.6,1.9
	c0.3,16.9,13.7,22.1,13.6,22.1l0.4,1.8C71.7,117.3,55.9,110.1,56.8,91.3z M51.1,92c-0.9,0-1.6,0.7-1.6,1.6s0.7,1.6,1.6,1.6
	s1.6-0.7,1.6-1.6S52,92,51.1,92z M51.1,92.7c0.5,0,0.9,0.4,0.9,0.9c0,0.5-0.4,0.9-0.9,0.9c-0.5,0-0.9-0.4-0.9-0.9
	C50.2,93.1,50.6,92.7,51.1,92.7z M59.7,94.2c0.2,0,1.2,1.4,1.2,1.4s-1,0.4-1.5-0.1C58.9,95,59.1,94.2,59.7,94.2z M132.8,94.8
	l2.5,1.7c1.2,11.4,7.7,21.8,17.6,29l-0.1,2.8C140.8,120.2,134.1,109.2,132.8,94.8z M40.1,95c0,0,0.1,0,0.1,0c1.5,0,2.1,2.3,0.5,3
	c-1,0.4-2.1-0.2-2.2-1.2c-0.1-0.7,0.5-1.5,1.2-1.7C39.8,95,40,95,40.1,95z M60.7,96.5c0.4,0,0.8,0.2,1.2,0.7c1.1,1.2,1.1,1.6-0.1,2
	c-1.6,0.7-2.9-0.2-2.4-1.6C59.8,96.9,60.2,96.5,60.7,96.5z M44.3,96.6c0.1,0,0.2,0,0.4,0.1c1.2,0.5-1.4,5.2-3.1,5.6
	c-1.1,0.3-1.3-0.1-0.9-1.8C41,98.7,43,96.6,44.3,96.6z M51.8,96.7c1.4,0,2.5,1.1,2.5,2.5s-1.1,2.5-2.5,2.5c-1.4,0-2.5-1.1-2.5-2.5
	C49.3,97.8,50.4,96.7,51.8,96.7z M51.8,97.6c-0.9,0-1.6,0.7-1.6,1.6c0,0.9,0.7,1.6,1.6,1.6s1.6-0.7,1.6-1.6S52.7,97.6,51.8,97.6z
	 M45.5,97.8c0.2,2.3,0.6,4.5,1.6,7.4c-1-1.5-2.4-2.3-3.7-3.2C44.4,100.5,45.5,99.1,45.5,97.8z M51.8,98.3c0.5,0,0.9,0.4,0.9,0.9
	c0,0.5-0.4,0.9-0.9,0.9c-0.5,0-0.9-0.4-0.9-0.9C50.9,98.7,51.3,98.3,51.8,98.3z M66.1,98.6c2.6,0,4.5,2.1,4.4,4.2
	c0.1,2.4,0.2,4,0,6.9l-2.1-3.9c0-1.1,0.2-1.9,0.1-3c-0.2-3-3.2-2.5-3.3-2.3L64.2,99C64.9,98.7,65.5,98.6,66.1,98.6z M75.4,98.9
	c2.5,0,3.9,1.4,4,3.9c0.1,4.7-0.1,15.5-0.1,15.5l-5.3,0l-2.9-7.2c0,0-0.1-0.7-0.1-1.2c0.2-2.3,0.1-4.9,0.1-7
	C71.4,100.7,73.2,98.9,75.4,98.9z M63,99.6c0.3,0,0.7,0.1,0.9,0.3c1.2,1.2,1.2,2.1,0,2.6c-1.7,0.7-2.5,0.6-3.1-0.5
	C60.3,101,61.8,99.7,63,99.6z M140.8,100l1.4,0.9c0,0-0.3,0.4-0.4,0.7c-0.8,1.3,0.5,2.1,2.4,1.4c0.3-0.1,0.6-0.3,0.6-0.3l1.1,0.8
	c0,0-0.8,0.4-1.7,0.9c-2.3,1.1-3.9,0.6-4.4-1.3c-0.2-0.8,0-1.7,0.4-2.3C140.4,100.5,140.8,100,140.8,100z M83.6,100.2
	c2.1-0.1,4.1,1.5,4.5,3.7c0.2,1-0.1,14.4-0.1,14.4l-8.2,0l0.1-14.1c0-0.9,0-1.8,0.5-2.4C81.4,100.7,82.5,100.2,83.6,100.2z
	 M75.1,100.8c-1.7,0.1-2.6,2.7-0.9,4c0.7,0.5,0.7,0.6,0.3,2.4c-0.4,2,0,4.8,1,6.4c0.8,1.3,0.6,0.6,0.2-0.5c-0.5-2.2-0.3-3.8,1-6.3
	c1.1-2.1,2.2-5.4-1.4-6C75.3,100.8,75.2,100.8,75.1,100.8z M143.1,101.4l0.7,0.5c0,0-0.1,0.1-0.3,0.2c-0.3,0.3-0.9,0.3-1.1,0.1
	C142.2,101.9,143.1,101.4,143.1,101.4z M84.1,102.4c-1.8-0.1-3,3.2-0.7,4c0.5,0.3,0.6,0.8,0.3,1.4c-0.4,0.8-0.9,2.8-0.8,3.6
	c0.1,1.2,0.4,2.7,0.6,3.2c0.6,1.5,0.5,0.9,0.3-0.8c-0.1-1.9,0.3-3.3,1.4-5.1c1.3-2.2,3.1-5.7-1-6.4
	C84.2,102.4,84.1,102.4,84.1,102.4z M53.4,102.4c1.4,0,2.5,1.1,2.5,2.5c0,1.4-1.1,2.5-2.5,2.5s-2.5-1.1-2.5-2.5
	S52.1,102.4,53.4,102.4z M65.1,102.7c0.4,0,0.8,0.3,1.2,0.9c1.1,1.6,1,2-1.1,3.1c-2.2,1.2-3.7-1.9-1.6-3.3
	C64.2,103,64.7,102.7,65.1,102.7C65.1,102.7,65.1,102.7,65.1,102.7z M42,102.8c2.3,0,6,3.4,4.2,3.8c-0.2,0.1-0.6,0.1-0.7,0.1
	C42.6,106.6,39.2,102.8,42,102.8z M53.4,103.3c-0.9,0-1.6,0.7-1.6,1.6c0,0.9,0.7,1.6,1.6,1.6s1.6-0.7,1.6-1.6
	C55.1,104,54.3,103.3,53.4,103.3z M146.5,103.8l1.2,0.8c0,0-0.7,0.3-1.6,0.8c-2.3,1.2-3,2.1-2.2,2.9c0.3,0.3,0.6,0.4,1.2,0.2
	c1.6-0.6,3.1-1.7,4.6-2.6l0.9,0.6c0,0-3.5,2.5-5.4,3.5c-3,1.5-4.7-1.6-3-3.7C143.4,105.1,144.8,104.7,146.5,103.8z M53.4,104
	c0.5,0,0.9,0.4,0.9,0.9c0,0.5-0.4,0.9-0.9,0.9c-0.5,0-0.9-0.4-0.9-0.9C52.5,104.4,52.9,104,53.4,104z M148.3,104.9l0.6,0.4
	c0,0-0.1,0-2,1.2c-2.1,1.2-2.2,1.2-2.3,1c-0.1-0.1,0-0.6,0.7-1C146.4,105.7,148.4,104.8,148.3,104.9z M92.9,104.9
	c1.4,0,2.9,0.7,3.8,2.1c0.4,1.1,0.5,2.2,0.5,3.3l0,7.9l-8.3,0c0,0-0.4-5.4,0-9.8C89.2,106.2,91.1,105,92.9,104.9z M67.3,106.1
	c0.5,0,0.9,0.5,1.4,1.6s0.1,1.7-1.4,2.4c-0.2,0.1-0.4,0.1-0.5,0.1c-1.6-0.2-2.2-2-1.1-3.1C66.4,106.5,66.9,106.1,67.3,106.1z
	 M151.2,106.9l0.7,0.4c0,0-0.4,0.3-3,2.3c-2.2,1.6-2.5,2-2,2.9c0.4,0.7,1.2,0.6,2.2-0.2c1.5-1.2,3.9-3.1,3.9-3.1l0.1,1.3
	c-1.6,1.3-3.5,3.4-4.9,4.2c-2.9,1.4-5-2.5-2.3-4.4C148.1,108.6,151.2,106.9,151.2,106.9z M93.2,106.9c-2.2,0-3,3.2-0.6,3.9
	c0.7,0.4,0.6,0.5,0.2,2.1c-0.3,1-0.4,2.1-0.2,2.9c0.2,1,0.4,0.9,0.3-0.1c0-0.6,0.6-2.1,1.2-3C96.2,109.7,95.6,106.9,93.2,106.9z
	 M43,107c1.4,0,2.2,2,1,2.8c-0.9,0.6-2.7-0.1-2.7-1.1c0-0.8,0.6-1.6,1.4-1.7C42.8,107,42.9,107,43,107z M47.1,107.1
	c0.5,0,0.7,0.6,0.7,1.9c0,1.9-0.7,3.5-1.8,4.4c-1.7,1.4-2-2.4-0.5-4.8C46.1,107.6,46.7,107.1,47.1,107.1z M152.7,107.6
	c0.4,0,0.3,0.3-0.1,0.6c-0.4,0.3-1,0.8-2.9,2.4c-0.3,0.3-0.8,0.7-1.1,0.8c-0.6,0.4-1.2,0.3-0.9-0.2
	C148,110.8,152.3,107.6,152.7,107.6z M56,107.7c1.4,0,2.5,1.1,2.5,2.5c0,1.4-1.1,2.5-2.5,2.5c-1.4,0-2.5-1.1-2.5-2.5
	C53.4,108.8,54.6,107.7,56,107.7z M56,108.6c-0.9,0-1.6,0.7-1.6,1.6c0,0.9,0.7,1.6,1.6,1.6s1.6-0.7,1.6-1.6
	C57.6,109.3,56.9,108.6,56,108.6z M25.8,108.7c17.1,8.6,27.7,24.7,30.4,43.1l8.3-13.1l2.2,0.8l-12.1,19.7l-0.5-0.2
	c-0.1-19.2-9.6-37.4-28.3-47.4L25.8,108.7z M56,109.3c0.5,0,0.9,0.4,0.9,0.9c0,0.5-0.4,0.9-0.9,0.9c-0.5,0-0.9-0.4-0.9-0.9
	C55.1,109.7,55.5,109.3,56,109.3z M48.9,109.4c0.7,1.7,1.7,3.4,3.1,5.3c-1.4-1.3-3-1.3-4.5-1.5L48.9,109.4z M69.2,109.8
	c0.3,0,0.5,0.1,0.7,0.4c0.7,1,0.8,1.8,0.3,2.3c-0.7,0.7-1.7,0.4-2.2-0.5C67.6,111,68.4,109.8,69.2,109.8z M153,111.1l0,1.5
	c0,0-0.3,0.4-0.7,0.7c-0.9,0.9-2.3,2.3-2.3,2.7c-0.3,1.2,0.9,1.6,2,0.7c0.4-0.3,1-0.8,1-0.8l0,1.8c-1,0.8-1.9,1.6-3.3,1.4
	c-0.8-0.2-1.4-0.8-1.6-1.6c-0.6-2.3,1.7-3.6,3.4-5.1C152.1,111.9,153,111.1,153,111.1z M59.5,112.4c0,0,0.1,0,0.1,0
	c1.4,0,2.5,1.1,2.5,2.5c0,1.4-1.1,2.5-2.5,2.5c-1.4,0-2.5-1.1-2.5-2.5C57.1,113.6,58.2,112.5,59.5,112.4z M110.2,113
	c1.4,0,2.1,1.8,1,2.9c-0.4,0.4-1.4,0.7-2,0.3C107.7,115.1,108.8,113.1,110.2,113z M107.5,114.4c0.8,0.8,1.4,3.3,0.9,3.7
	c-1,1.1-4.1-2.5-3.9-4.8C104.9,112,107.2,114.1,107.5,114.4z M70.6,113.1c0.6,0,0.7,0.5,0.6,0.8c-0.1,0.3-0.6,0.3-0.9,0.2
	C69.6,113.8,69.9,113.1,70.6,113.1z M59.6,113.3c-0.9,0-1.6,0.7-1.6,1.6c0,0.9,0.7,1.6,1.6,1.6c0.9,0,1.6-0.7,1.6-1.6
	S60.5,113.3,59.6,113.3z M47.6,114c3,0,6.3,2.4,3.5,2.9c-2.1,0.4-3.4-0.1-5-1.5c-0.8-0.7-0.5-1.1,1-1.3C47.2,114,47.4,114,47.6,114z
	 M59.7,114c0.5,0,0.9,0.4,0.9,0.9c0,0.5-0.4,0.9-0.9,0.9c-0.5,0-0.9-0.4-0.9-0.9C58.7,114.4,59.2,114,59.7,114z M63.9,116.3
	c0,0,0.1,0,0.1,0c1.4,0,2.5,1.1,2.5,2.5c0,1.4-1.1,2.5-2.5,2.5s-2.5-1.1-2.5-2.5C61.5,117.5,62.5,116.4,63.9,116.3z M113.5,116.4
	c0.7,0,1.3,0.1,1.7,0.5c0.4,0.4-0.2,1.2-1.6,1.9c-1.6,0.8-4.4,0.7-4.4-0.2C109.2,117.5,111.6,116.5,113.5,116.4z M52.7,117.1
	c1.4,0,1.8,4.3,0.6,6.4c-0.6,1.1-1.5,0.4-2.1-1.8C50.7,120,51.6,117.1,52.7,117.1z M64,117.2c-0.9,0-1.6,0.7-1.6,1.6
	c0,0.9,0.7,1.6,1.6,1.6s1.6-0.7,1.6-1.6C65.6,117.9,64.9,117.2,64,117.2z M116.3,117.5c0.1,0,0.3,0.1,0.5,0.2
	c1.5,0.8,2.6,4.2,1.8,5.8c-0.8,1.6-2.7-1.5-2.7-4.5C115.9,118,116,117.6,116.3,117.5C116.3,117.5,116.3,117.5,116.3,117.5
	L116.3,117.5z M48.7,117.7C48.8,117.7,48.8,117.7,48.7,117.7c1.5,0,2.5,1.9,1.2,2.9c-0.6,0.4-1.5,0.5-2,0.2c-1.1-0.7-1-2.3,0.1-2.9
	C48.3,117.8,48.5,117.7,48.7,117.7z M64,117.9c0.5,0,0.9,0.4,0.9,0.9c0,0.5-0.4,0.9-0.9,0.9c-0.5,0-0.9-0.4-0.9-0.9
	C63.1,118.3,63.5,117.9,64,117.9z M54.6,118.2c0.8,1.1,3.8,4.1,4.2,4.3c-1.4-0.4-2.7-0.2-4.1-0.1C54.8,121.5,55,119.8,54.6,118.2z
	 M103.8,118.5c20.8,4.8,33.4,26.8,28.4,47.5c0,0-1.8-1-2-1.4c0.7-3.6,1.2-9.2,0.3-14.9c-1.6-9.6-9.4-23.8-26.6-28.6
	C103.7,120.3,103.8,118.5,103.8,118.5z M115,118.6c0.2,1.4,0.5,2.8,0.8,4.1c-1.5-1-3.1-2-4.8-2.7C112.2,119.8,113.3,119.6,115,118.6
	z M121,119.1c0.8,0,1.7,0.6,1.6,1.6c0,0.4-0.5,1.2-0.9,1.4c-1.4,0.7-2.8-0.6-2.2-2.1C119.8,119.4,120.4,119.1,121,119.1z
	 M68.8,119.6c1.4,0,2.5,1.1,2.5,2.5c0,1.4-1.1,2.5-2.5,2.5s-2.5-1.1-2.5-2.5C66.3,120.8,67.4,119.6,68.8,119.6z M68.8,120.6
	c-0.9,0-1.6,0.7-1.6,1.6s0.7,1.6,1.6,1.6c0.9,0,1.6-0.7,1.6-1.6C70.4,121.3,69.7,120.6,68.8,120.6z M25.8,120.8
	c10.3,6.1,19.6,19,20.3,33.6l-2.5-1.6c-1.1-9.9-6.1-20.6-17.8-29.3C25.7,123.4,25.8,122.5,25.8,120.8z M83,120.8l13.3,0l0,2.9l4-2.1
	l0,6.3l-4-2.4l0,2.8l-13.3,0l0-2.9l-4.1,2l0-6.3l4,2.3L83,120.8z M68.8,121.2c0.5,0,0.9,0.4,0.9,0.9c0,0.5-0.4,0.9-0.9,0.9
	c-0.5,0-0.9-0.4-0.9-0.9C67.9,121.7,68.3,121.3,68.8,121.2z M74,121.8C74.1,121.8,74.1,121.8,74,121.8l0.2,0.9c0,0,0,0-0.1,0
	c-0.9,0-1.6,0.7-1.6,1.6c0,0.9,0.7,1.6,1.6,1.6c0.2,0,0.4,0,0.6-0.1l0.2,0.9c-0.2,0.1-0.5,0.1-0.8,0.1c-1.4,0-2.5-1.1-2.5-2.5
	C71.7,122.9,72.7,121.8,74,121.8z M104.2,122.1c0,0,0.1,0,0.1,0c1.4,0,2.5,1.1,2.5,2.5c0,1.2-0.8,2.2-1.9,2.4l-0.2-0.9
	c0.7-0.2,1.2-0.8,1.2-1.5c0-0.9-0.7-1.6-1.6-1.6c0,0-0.1,0-0.1,0l-0.2-0.9C104.1,122.1,104.1,122.1,104.2,122.1z M121.9,122.9
	c3.1,0,4.4,1.8,1.9,2.6c-1.2,0.4-2.7,0.2-4.3-0.5C118.2,124.4,119.9,122.9,121.9,122.9z M56.8,123.1c0.8,0,1.5,0.1,2,0.4
	c1.3,0.6,1.3,1-0.1,1.8c-1.9,1.1-6.5,0-5.1-1.3C54.2,123.4,55.5,123.1,56.8,123.1z M74.2,123.4c0.1,0,0.1,0,0.2,0l0.3,1.6
	c-0.1,0.1-0.3,0.1-0.5,0.1c-0.5,0-0.9-0.4-0.9-0.9C73.3,123.8,73.7,123.4,74.2,123.4z M104.3,123.7c0.5,0,0.9,0.4,0.9,0.9
	c0,0.4-0.2,0.7-0.6,0.8L104.3,123.7z M109.8,124.3c1.4,0,2.5,1.1,2.5,2.5s-1.1,2.5-2.5,2.5s-2.5-1.1-2.5-2.5
	C107.3,125.4,108.4,124.3,109.8,124.3z M60.6,125c0.2,0,0.3,0.1,0.5,0.2c1.5,1.2,2.3,3.8,1.7,5.8c-0.6,1.8-2.9-1.4-2.9-4.1
	C59.9,125.7,60.2,125,60.6,125z M126,125.2c0.2,0,0.4,0.2,0.6,0.5c0.9,1.6,0.9,4.8-0.1,5.8c-0.6,0.6-0.8,0.5-1.3-0.7
	C124.3,128.8,125,125.2,126,125.2z M109.8,125.2c-0.9,0-1.6,0.7-1.6,1.6c0,0.9,0.7,1.6,1.6,1.6c0.9,0,1.6-0.7,1.6-1.6
	S110.7,125.2,109.8,125.2z M62.7,125.7c1.9,1.2,3.9,2.3,5.9,3.2c-1.9-0.5-3.3,0.2-4.8,1.1C64.1,128.3,63.5,127.1,62.7,125.7z
	 M119.9,126c1.4,0.2,2.8,0.4,4.5,0.1c-0.3,1.4-0.4,2.8-0.3,4.3C122.9,128.8,121.5,127.3,119.9,126z M109.8,126
	c0.5,0,0.9,0.4,0.9,0.9c0,0.5-0.4,0.9-0.9,0.9c-0.5,0-0.9-0.4-0.9-0.9C108.9,126.4,109.3,125.9,109.8,126z M58.6,126.8
	c1.2,0.6,1.2,2,0.1,2.7c-1.4,0.9-3.3-0.7-2.4-2.1C57.1,126.5,57.6,126.5,58.6,126.8z M114.9,127.6c1.4,0,2.5,1.1,2.5,2.5
	s-1.1,2.5-2.5,2.5s-2.5-1.1-2.5-2.5C112.3,128.7,113.5,127.6,114.9,127.6z M129.6,128c0.2,0,0.5,0.1,0.7,0.2
	c0.9,0.5,1.1,1.7,0.4,2.4c-0.8,0.8-1.9,0.6-2.4-0.3C127.8,129.2,128.6,128.1,129.6,128z M105.3,128.4c12.4,4.2,20.8,18,18.8,31.3
	l-1.6-1.5c1.2-7.5-3-21.9-16.8-27.8L105.3,128.4z M114.9,128.5c-0.9,0-1.6,0.7-1.6,1.6c0,0.9,0.7,1.6,1.6,1.6c0.9,0,1.6-0.7,1.6-1.6
	C116.5,129.3,115.8,128.5,114.9,128.5z M114.9,129.2c0.5,0,0.9,0.4,0.9,0.9c0,0.5-0.4,0.9-0.9,0.9s-0.9-0.4-0.9-0.9
	C114,129.6,114.4,129.2,114.9,129.2z M67.6,129.4c0.6,0.1,1.7-0.1,2,0.5c0.3,0.7-1.3,2.1-3.2,2.3c-0.8,0-2.5,0.3-2.9-0.3
	C63.1,131.2,65.4,129.4,67.6,129.4z M28.2,129.8c1.7-0.1,3.6,2.2,1.9,4c-1.4,1.4-4.2,3.3-4.2,3.3l0-1.2c0,0,2.7-2,2.8-2.9
	c0-1-0.9-1.6-1.8-1c-0.2,0.1-0.9,0.7-0.9,0.7l0.1-2.1C26.5,130.2,27.4,129.9,28.2,129.8z M71.1,130.4c1.2,0.1,4.1,4.5,3.4,5.4
	c-0.6,0.7-2.9-0.9-3.8-2.6c-0.5-0.9-0.3-2.6,0.2-2.8C71,130.4,71,130.4,71.1,130.4z M90.3,130.9c0,0,0.1,10.3-0.5,11.3
	c-2.3,4.2-7.4,2-7.8-1.1c-0.3-1.9-0.1-10.2-0.1-10.2L90.3,130.9z M91,130.9l8.1,0c0,0,0,14.6-0.4,15.4c-0.3,0.7-1.4,1.8-2.2,2.2
	c-2.4,1-4.9-0.4-5.5-3.2C90.6,143.3,91,130.9,91,130.9L91,130.9z M99.8,130.9l5.3,0c0,0,0.2,0.8,0.4,1.4c0.4,1.1,1.6,4.3,1.8,4.5
	c0.7,0.9,0.7,10.4,0,11.5c-2.4,3.5-6.3,2.5-7.7-1.4C99.2,145.6,99.8,130.9,99.8,130.9z M106,131.3c9.6,4.5,16.9,14.2,16,26.5
	l-1.8-1.7c0.6-8.5-5.9-19.2-13.5-22.4L106,131.3z M119.2,131.6c1.4,0,2.5,1.1,2.5,2.5c0,1.4-1.1,2.5-2.5,2.5s-2.5-1.1-2.5-2.5
	C116.7,132.7,117.8,131.5,119.2,131.6z M128.6,131.8c0.9,0,2.1,0.3,2.9,1c1,0.8,1.2,1.5,0.4,1.8c-1.5,0.5-3.4,0-4.5-1.1
	C126.3,132.4,127.3,131.8,128.6,131.8z M119.2,132.5c-0.9,0-1.6,0.7-1.6,1.6s0.7,1.6,1.6,1.6c0.9,0,1.6-0.7,1.6-1.6
	S120.1,132.5,119.2,132.5z M68.7,132.7c1.3,0,2,1.9,0.9,2.8c-0.4,0.4-1.6,0.5-2.1,0.2C66.1,134.8,66.9,132.7,68.7,132.7z
	 M86.4,133.2c-0.4,1.3-1.2,2.7-1.8,3.7c-1.6,2.6-1.4,4.4,0.3,5.3c2.5,1.3,4.2-2.2,1.8-3.6c-0.8-0.5-0.8-0.5-0.5-1.8
	C86.6,135.1,86.7,133.2,86.4,133.2z M119.2,133.2c0.5,0,0.9,0.4,0.9,0.9c0,0.5-0.4,0.9-0.9,0.9c-0.5,0-0.9-0.4-0.9-0.9
	C118.3,133.6,118.7,133.2,119.2,133.2z M95.1,133.7c-0.1,0,0,0.7,0,1.8c0,1.9-0.2,2.5-1.4,5c-1.5,3.2-1.3,5.4,0.6,6.1
	c1.5,0.6,2.9-0.6,2.9-2.3c0-0.8-0.4-1.5-0.9-1.6c-0.5,0-1.1-0.3-1-0.5C95.5,140.3,97.2,136.6,95.1,133.7z M126.9,133.9
	c1.2,0.8,2.5,1.5,4.4,1.6c-0.8,1.9-0.7,3.3-0.8,4.8C129.7,138.3,128.4,136.1,126.9,133.9L126.9,133.9z M31.8,134.3
	c0.1,0,0.2,0,0.3,0c1.2,0.2,2.2,1.7,1.9,2.8c-0.3,1-0.4,1.2-4.2,3.7c-2.1,1.4-2.4,1.5-2.4,1.5l-1.1-0.8c0,0,1-0.6,2.5-1.7
	c3-2,3.4-2.4,3.1-3.3c-0.3-1-1.4-0.8-3.2,0.6c-2.6,2-2.8,2.1-2.8,2.1l0-1.2c0,0,1.1-0.9,1.6-1.3C28.7,135.9,30.3,134.3,31.8,134.3z
	 M108,134.8c0.3,0,0.5,0.3,0.4,0.5c0,0.1-0.2,0.2-0.4,0.2C107.5,135.5,107.5,134.8,108,134.8C108,134.8,108,134.8,108,134.8
	L108,134.8z M133.9,136.1c0.5,1.9-0.6,5-1.3,5.4c-0.8,0.8-1.2,0-1.4-1.9C131.1,138,133,133.1,133.9,136.1z M103.2,135.1
	c0.2,2.7,0.3,4.9-0.9,7.1c-1.6,2.8-1.2,5.2,0.5,5.8c1.7,0.5,3.3-0.7,3-2.4c-0.1-0.5-0.8-1.4-1.2-1.5c-0.5-0.1-0.6-0.5-0.3-1.5
	c0.6-2.1,0.4-4.7-0.5-6.6C103.7,135.7,103.4,135.1,103.2,135.1L103.2,135.1z M109.1,136c1.5,0,2.2,1.9,1.1,2.9
	c-0.6,0.6-1,0.3-1.6-1.1C107.9,136.6,108.1,136,109.1,136z M122.8,136.4c1.4,0,2.5,1.1,2.5,2.5c0,1.4-1.1,2.5-2.5,2.5
	s-2.5-1.1-2.5-2.5C120.3,137.5,121.4,136.4,122.8,136.4z M122.8,137.3c-0.9,0-1.6,0.7-1.6,1.6s0.7,1.6,1.6,1.6
	c0.9,0,1.6-0.7,1.6-1.6C124.4,138,123.7,137.3,122.8,137.3z M122.8,138c0.5,0,0.9,0.4,0.9,0.9c0,0.5-0.4,0.9-0.9,0.9
	c-0.5,0-0.9-0.4-0.9-0.9S122.3,138,122.8,138z M111.9,138.7c0.2,0,0.4,0,0.6,0.1c1.3,0.6,1.2,2.5-0.3,3.6c-0.9,0.7-1.3,0.5-2.2-1.3
	C109.6,140,110.8,138.7,111.9,138.7z M34.8,138.9c0.1,0,0.3,0,0.4,0.1c1.4,0.4,2.2,2,1.9,3.2c-0.8,1.9-3.3,2.5-5.3,3.3l-1-0.7
	c0,0,1.4-0.8,2.8-1.4c1.3-0.6,1.5-0.8,1.4-1.6c-0.2-1.5-0.9-1.4-4.1,0.3c-1.3,0.7-2.3,1.3-2.3,1.3l-0.7-0.6c1.1-0.7,1.7-1.1,2.9-1.9
	c1.9-1.3,3.1-1.9,3.9-1.9C34.8,138.9,34.8,138.9,34.8,138.9z M137.3,140c0.5,1.4-0.5,2.7-1.9,2.1c-0.8-0.3-1.3-1.3-0.8-2.2
	C135.1,138.8,137,139,137.3,140z M108.4,139.5l2.3,4.1c0,0,0,1.1,0,1.8c0.1,2.6,0.7,3.5,2.2,3.3c0.1,0,0.7-0.2,0.7-0.2l1,1.7
	c0,0-1.1,0.5-1.3,0.5c-1.8,0.4-4.3-1-4.7-2.8C108.1,146,108.4,139.5,108.4,139.5L108.4,139.5z M34,141.1c0.7,0,0.4,0.6,0.1,0.7
	c-1.3,0.7-2.6,1.4-4,2.2l-0.9-0.6c0,0,0.7-0.4,1.2-0.7C31.9,141.9,33.5,141.2,34,141.1z M125.2,141.6c1.4,0,2.5,1.1,2.5,2.5
	c0,1.4-1.1,2.5-2.5,2.5s-2.5-1.1-2.5-2.5C122.7,142.8,123.8,141.7,125.2,141.6z M114.5,142c0.6,0,1.1,0.2,1.4,0.8
	c0.7,1.1,0,2.5-1.7,3.2c-0.9,0.4-1.1,0.3-2-1.1c-0.7-1-0.6-1.1,0.1-1.8C113.1,142.4,113.9,142,114.5,142L114.5,142z M25.9,142.2
	l36.2,23.4l-1,1.7L26,144.4L25.9,142.2z M133.4,142.5c2.2,0,5.1,2.6,4.1,3.6c-0.1,0.1-0.3,0.2-0.5,0.2
	C133.8,146.1,130.4,142.5,133.4,142.5z M125.2,142.6c-0.9,0-1.6,0.7-1.6,1.6s0.7,1.6,1.6,1.6s1.6-0.7,1.6-1.6
	C126.8,143.3,126.1,142.6,125.2,142.6z M76.9,143l1,2.5l-18,28.6l-1.8-1.1L76.9,143z M125.2,143.3c0.5,0,0.9,0.4,0.9,0.9
	c0,0.5-0.4,0.9-0.9,0.9c-0.5,0-0.9-0.4-0.9-0.9C124.3,143.7,124.7,143.3,125.2,143.3z M131.8,143.6c0.9,1.6,2.3,2.6,4,3.3
	c-1.6,1.3-2.4,3-2.3,4.7C133.2,149,132.8,146.4,131.8,143.6z M36.7,144.4c0.4,0,0.7,0.1,1,0.3c3.4,2.3,0.3,4.6,0,4.4l-1.2-0.7
	c0.4-0.7,1.3-1.5-0.1-2.4c-0.8-0.4-1.7,0.1-2.5,0.6l-1.2-0.8C32.7,145.8,35,144.4,36.7,144.4z M116.2,145.7c0.1,0,0.2,0,0.4,0
	c1.9,0.4,1.8,2.4-0.2,3.3c-1.1,0.5-1.3,0.4-2.3-1.3C113.6,147,115,145.8,116.2,145.7z M36.1,146.5c0.2,0,0.5,0.2,0.5,0.3
	c0.1,0.5-0.9,1.1-0.9,1.1l-1.1-0.7C35,146.9,35.6,146.5,36.1,146.5z M137.5,147c0.3,0,0.5,0.1,0.6,0.4c0.4,1.6-1.4,4.5-3,4.9
	c-0.9,0.3-1.2-0.2-0.9-1.5C134.6,149,136.5,147,137.5,147L137.5,147z M79.2,147.1l2.9,2.1l-17.6,27.7l-3-1.8L79.2,147.1z M127,147.3
	c1.4,0,2.5,1.1,2.5,2.5c0,1.4-1.1,2.5-2.5,2.5s-2.5-1.1-2.5-2.5C124.5,148.4,125.6,147.3,127,147.3z M127,148.2
	c-0.9,0-1.6,0.7-1.6,1.6s0.7,1.6,1.6,1.6c0.9,0,1.6-0.7,1.6-1.6C128.6,148.9,127.9,148.2,127,148.2z M127,148.9
	c0.5,0,0.9,0.4,0.9,0.9c0,0.5-0.4,0.9-0.9,0.9c-0.5,0-0.9-0.4-0.9-0.9C126.1,149.3,126.5,148.9,127,148.9z M86.6,149
	c1.9,2.2,4,6.9,11.5,4.7c2.5,2.1,6.1,3.2,10.4,0.9l0,12.9l-33.2,0L86.6,149z M26,149.3l32.7,21.5l-1,1.8l-31.7-20.2L26,149.3z
	 M117.8,149.4C117.8,149.4,117.8,149.4,117.8,149.4c1.7,0.4,1.9,2.1,0.4,2.7c-0.8,0.3-1,0.3-1.8-0.9c-0.3-0.5-0.5-0.8-0.4-1
	C116,149.9,117.3,149.3,117.8,149.4L117.8,149.4z M138.8,151.1c0.6,0,1.2,0.3,1.4,0.9c0.4,0.9,0.2,1.7-0.7,2.2
	c-1.4,0.8-3-0.7-2.2-2.2C137.6,151.4,138.2,151.1,138.8,151.1z M118.3,152.9c0.8,0,1.4,0.7,1,1.2c-0.3,0.3-0.6,0.2-1-0.3
	C117.9,153.2,117.9,152.9,118.3,152.9z M127.7,153.2c1.4,0,2.5,1.1,2.5,2.5c0,1.4-1.1,2.5-2.5,2.5c-1.4,0-2.5-1.1-2.5-2.5
	C125.2,154.3,126.3,153.2,127.7,153.2z M134.8,153.3c1.9,0,4.5,3.2,4.1,4.9c-0.1,0.6-1.2,0.3-2.5-0.7
	C134.7,156.2,133.6,153.3,134.8,153.3z M127.7,154.1c-0.9,0-1.6,0.7-1.6,1.6s0.7,1.6,1.6,1.6c0.9,0,1.6-0.7,1.6-1.6
	C129.3,154.8,128.6,154.1,127.7,154.1z M133.8,154.4c0.5,1.5,1.1,3.1,3.4,4.3c-3.7,1.7-4.4,4.6-3.8,8.3l-0.9-0.5
	C133.3,163.1,133.9,159.4,133.8,154.4z M127.7,154.8c0.5,0,0.9,0.4,0.9,0.9c0,0.5-0.4,0.9-0.9,0.9c-0.5,0-0.9-0.4-0.9-0.9
	C126.8,155.2,127.2,154.8,127.7,154.8z M127.2,158.9c1.4,0,2.5,1.1,2.5,2.5c0,0.9-0.4,1.6-1.1,2.1l-0.8-0.6c0.6-0.2,1-0.8,1-1.5
	c0-0.9-0.7-1.6-1.6-1.6c-0.8,0-1.5,0.7-1.6,1.5l-0.8-0.6C125.1,159.6,126.1,158.9,127.2,158.9z M138.7,159.2c1.2,0-0.7,3.3-2.4,4.2
	c-1.3,0.7-2.5,0.7-2.5,0.1C133.8,161.9,136.8,159.2,138.7,159.2z M127.2,160.5c0.5,0,0.9,0.4,0.9,0.9c0,0.5-0.4,0.9-0.9,0.9
	c-0.5-0.1-0.9-0.4-0.9-0.9C126.3,160.9,126.7,160.5,127.2,160.5z M138.3,163.5c0.6,0,1.2,0.3,1.4,0.8c0.3,0.6,0.2,1.2-0.4,1.8
	c-1.5,1.4-3.4,0-2.5-1.9C137.1,163.7,137.7,163.5,138.3,163.5z M133.7,164.9c2,0.1,3.6,2.6,3.2,4c-0.3,0.4-2.6-1.3-2.8-1.5
	C133.8,166.9,133.8,166,133.7,164.9z M130.9,166.4c2.2,1.4,4.3,2.7,6.3,3.8l-6.3,4L130.9,166.4z M74.5,168.3l34,0.1l0,1.4l-35,0
	L74.5,168.3z M73.1,170.5l2.3,0v2.8l-3.1,0l0-1.5L73.1,170.5z M105.8,170.6l2.7,0v2.8l-2.7,0V170.6z M78.8,170.6l3.1,0v2.8l-3.1,0
	V170.6z M85.3,170.6l3.4,0v2.8l-3.4,0V170.6z M92.2,170.6l3.3,0v2.8l-3.3,0V170.6z M99.2,170.7l3.1,0v2.8l-3.1,0V170.7z M70.8,174.1
	l37.8,0.1l0,1.7l-38.8-0.1L70.8,174.1z M103,177.6c3.8,0,6.1,4.2,3.1,7.3c-2.8,2.8-7.4-0.8-5.1-3.9c1.3-1.7,4.4-0.3,3.7,1.5
	c-0.5,1.2-2.2,0.6-2.2-0.7c0-0.5-0.4-0.2-0.4,0.4c-0.1,0.7,0.7,1.5,1.5,1.5c2.2,0,2.6-2.9,0.4-4c-1.9-1-3.9,0.3-4.4,2.7
	c-0.1,0.3-0.4,0.9-0.6,1.4c-0.7,1.4-0.9,2.2-1.3,3.9c-0.2,0.2-0.7,0.5-1,0.7c-1.1,0.5-1,0.3-0.6-1.5c1.2-5.1,3.1-8.4,5.5-9.1
	C102.1,177.7,102.6,177.6,103,177.6z M114.4,177.9c2.4-0.1,4.2,1.9,4.5,3.4c1.4,4.6-4.7,7.4-6.9,3.2c-1.2-2.4,1.3-5.2,3.5-4.1
	c1.8,0.9,1.7,3.7-0.2,3.7c-1,0-1.6-0.9-1.1-1.6c0.3-0.3,0.6-0.1,0.8-0.5c0.1-0.2-0.2-0.4-0.9-0.2c-1.2,0.2-1,2.6,0.3,3
	c2,0.7,3.7-1.4,2.8-3.5c-1.1-2.5-4.2-2.5-5.7,0.1c-0.2,0.4-0.5,0.9-0.7,1.2c-2.1,2.9-2.3,3.3-2.9,4.9c-0.1,0.2-0.2,0.3-0.4,0.3
	c-0.6,0-1.2,0.1-1.5,0.3c-0.3-0.1,0.1-1.1,0.1-1.1C107.6,182.4,111.3,178,114.4,177.9z M96,179.1c-0.5,0.9-2,3.7-3,7.9
	c-0.3-0.2-1-0.5-1.6-0.7c-0.2-0.1,0-0.3-0.1-0.7c0.4-1.9,1.6-5.2,3-6.9C94.6,178.6,96.4,178.6,96,179.1z M98.2,180
	c-1.3,1.7-2.6,6-2.9,8.3c0,0.3-0.1,0.7-0.1,0.8c-0.2,0.7-1.5-0.8-1.5-1.7c0-1.5,1.7-6.2,2.9-7.9c0.4-0.6,0.5-0.7,1.4-0.8
	C99.4,178.7,98.7,179.3,98.2,180L98.2,180z M35.1,178.9c-0.3,0-0.6,0.1-0.9,0.1c-1.9,0.5-4.1,2.4-4.3,4.5c-0.1,0.1-0.4,1.5-0.2,2.3
	c0.6,2.8,2.3,4.7,4.3,7.5c0,0-2.5,3.9-4.3,5.7l4.1,5.9c-1.1,2.2-3.1,3.9-3.6,6.7c-0.8,3.6,1.1,7.2,5.2,7.5c3,0.1,5-1.9,5.4-5
	c0.2-2.1-0.7-4.6-3.8-8.7c-0.2-0.2-0.4-0.6-0.4-0.6s0.3-0.4,0.5-0.7c1.1-1.5,3.9-5,3.9-5l-4.2-5.9c0,0,0.2-0.4,0.5-0.8
	c3.4-4.6,4-7,3.4-9.3c-0.2-0.9-0.8-1.6-1.6-2.4C37.9,179.5,36.5,178.9,35.1,178.9z M35,179.5c1.3,0,2.7,0.5,3.8,1.7
	c2.6,2.7,2.3,4.9-1,9.9c-0.7,1.1-1.5,2.3-1.5,2.3l4.2,5.8c-1.4,1.9-2.9,3.7-4.4,5.7c0.7,1.1,1.9,2.3,2.7,3.7c0.9,1.5,1.4,3,1.6,4.4
	c0.3,2.9-1.6,6-4.8,6.1c-3.2,0-5.5-2.6-5.5-5.9c0-1.5,0.6-2.8,1.4-4.1c0.8-1.3,2.5-4,2.5-4l-4.1-5.9l4.3-5.7c0,0-3.1-3.8-4.1-6.6
	c-0.8-3.1,0.7-4.9,0.9-5.2C32.1,180.2,33.5,179.5,35,179.5L35,179.5z M32.4,187.8c0.6,1.6,1.6,2.8,2.8,4c1.1-1.3,2.3-2.9,2.9-4.4
	C41.2,179.8,29.1,179.2,32.4,187.8z M35.1,191c-1.5-1.8-2.6-3.3-2.7-5.6c-0.2-4.7,6-4.1,5.6,0C37.7,187.7,36.5,189.1,35.1,191z
	 M111,183.7c0.1,0.7,0.8,1.8,0.7,2c-0.3,0.7-0.7,1-1.3,2.2c-0.1,0.2-0.1,0.3-0.4,0.2c-0.3-0.1-0.9-0.2-1.2-0.3
	c-0.2,0-0.4-0.1-0.3-0.4C109.1,186.1,109.8,184.5,111,183.7z M100.9,185.7l-0.7,1.9c-0.1,0.2-0.1,0.2-0.3,0.2
	c-0.4-0.1-0.8-0.1-1.2-0.1c-0.9-0.1,0.8-3.4,1-3.9C100.1,183.8,100.6,185.2,100.9,185.7L100.9,185.7z M101.6,186.1
	C101.6,186.1,101.6,186.1,101.6,186.1c0.4,0.1,1,0.2,1.4,0.4c0.2,0.1,0.2,0.1,0.1,0.4c-0.2,0.4-0.5,1.6-0.7,2c0,0.1-1.3-0.7-1.6-0.9
	C100.7,187.8,101.1,186.2,101.6,186.1z M112.3,186.3c0.4,0,0.9,0.4,1.2,0.6c0.1,0.3,0,0.5-0.5,1.3c-0.4,0.7-0.8,1.5-0.9,1.4
	c-0.3-0.2-0.9-0.6-1.2-0.9c-0.2-0.3,0.2-1,0.5-1.4C111.8,186.6,112,186.4,112.3,186.3z M105.5,186.2c0.4,0.1-0.2,2.1-0.3,2.3
	c-0.4,0.6-0.9,1.3-1.4,1.6c-0.2,0.2-0.9-0.3-0.9-0.8c0-0.4,0.7-2.1,0.9-2.6C103.7,186.7,105,186.2,105.5,186.2L105.5,186.2z
	 M89.7,187c0.1,0,0.2,0,0.3,0c1.5,0,3.1,0.7,4.1,2.4c0.5,0.8,0.5,0.8,0.4,1.6c-0.2,1.7-0.2,2.9,0.3,4c0.5,1.2,0.4,1.6-0.8,4.3
	c-1.3,2.7-2.8,6-4,9.1c-0.5,1.3-1,2.8-1.3,4c-0.2,0.8-1.1,0.5-2.1,0.5c-0.5,0.1,0.7-3.1,2.4-6.9c1.4-3,3.2-6.5,4-9.9
	c0.6-2.8,0.4-3.9,0.1-5.1c-1.3-3.4-5.8-2.6-5.8,0.6c0.1,2,2.4,3.1,3.3,1.1c0.1-0.9-0.3-0.4-0.7,0.1c-0.8,0.9-2.2-0.1-2-1.5
	c0.3-1.8,2.7-2.4,3.8-1c1.3,1.6,1,3.2-0.8,4.5c-1.9,1.4-3.6,0.6-4.5-0.8C84.2,190.6,87,187.1,89.7,187L89.7,187z M99,188.3
	c1.9,0,3.9,1.6,4.2,2.8c0.2,0.8-0.1,1.8,0.2,2.6c0.3,0.7,0.5,1,0.3,1.6c-1.5,4.9-5.2,10.2-7,16c-0.2,0.4-0.4,0.5-0.9,0.6
	c-0.7,0.2-1,0.2-1.1-0.2c-0.1-0.4,0.2-1,0.6-2.3c0.5-1.5,1.6-4.1,2.3-5.3c1.5-2.8,2.4-4.8,3.5-7.2c0.2-0.4,0.3-0.7,0.6-1.4
	c1.4-2.8-0.2-5.6-3-5.6c-2.3,0-3.3,3.5-1.3,4.6c2,1,3.4-1.6,1.7-2.6c-0.4-0.2-0.5,0-0.2,0.4c0.8,0.9,0.1,2.2-1,1.7
	c-1.7-0.8-0.8-3.6,1.1-3.4c3,0.3,3.4,4.6,0.3,5.7c-4.2,1.5-6.4-5.2-2.5-7.5C97.5,188.5,98.2,188.3,99,188.3z M107.8,188.5
	c1.1,0,2.3,0.4,3.2,1.3c2.4,2.3,1.7,5.7-2.2,12.4c-1.3,2.3-2.6,4.9-3.2,6.9c-0.2,0.5-0.3,0.7-0.7,0.9c-0.7,0.4-1.5,0.4-1.6,0.2
	c-0.3-0.7,1.7-4.9,5.2-11.6c0.9-1.8,2.1-3.8,2-5.9c-0.2-1.7-1.6-2.9-3.5-2.3c-1.3,0.4-1.8,2.1-0.8,3c0.4,0.4,0.9,0.6,1.2,0.5
	c0.6,0,1.2-0.6,0.1-0.6c-1.2,0-1.6-1.5-0.6-2.2c1.4-1,3.1,0.2,3,2c-0.2,3.8-5.8,3.2-5.9-0.7C103.8,190.1,105.7,188.5,107.8,188.5z
	 M92.2,194.5c0.8-0.1-0.6,4.4-3.1,9.5c-1.4,2.8-2.4,5.8-3.5,8.7c-0.3,0.4-2,0.5-2,0.1c3.1-9.8,5.2-11.5,6.3-15.3
	c0.2-0.6,0.3-1.6,0.3-1.7C91,195.6,91.6,194.7,92.2,194.5z M35.3,195.2l-3.3,4.2l3.2,4.5l3.3-4.3L35.3,195.2z M105.8,196.5
	c0,0.5-1,2.9-1.7,4.4c-3.2,6.4-4,8.2-4.5,9.9c-0.1,0.3-0.3,0.5-0.5,0.6c-0.4,0.1-1.5,0.4-1.6,0.2c0.7-3.8,5.8-12.3,6.8-16
	C104.7,195.5,105.7,196.1,105.8,196.5z M108.3,196.1c0.2,0,0.3,0.1,0.2,0.4c-0.1,0.5-0.7,1.6-1.6,3.5c-2.7,5.3-4.1,8.4-4.5,10
	c-0.1,0.4-0.2,0.7-0.4,0.8c-0.4,0.2-1.7,0.7-1.7,0.2c0.4-2.4,2-3.9,6-13.9c0.2-0.3,0.3-0.5,0.5-0.5
	C107.4,196.4,107.8,196.2,108.3,196.1z M97.3,197.8c-0.1,0.6-0.8,1.9-2,4.3c-1.9,3.9-3.2,6.9-3.9,9.5c-0.1,0.4-0.3,0.9-0.5,1
	c-0.3,0.2-1.7,0.2-1.7,0.2c-0.2-1.1,1.5-5.1,3.4-9.3c1-2.3,2.2-4.6,3-6.7C96.2,196.7,97.2,197.3,97.3,197.8z M100.2,196.7
	c0.6,0,0.1,1-1.3,3.7c-1.1,2.2-2.9,5.3-4,8.8c-0.3,0.8-0.6,1.8-0.8,2.2c-0.2,0.5-0.3,0.8-0.5,0.9c-0.4,0.2-1.4,0.2-1.6,0
	c-0.3-0.3,1.2-4.3,2.7-7.4c1.3-2.6,2.2-4.6,3.3-7c0.3-0.5,0.3-0.5,0.6-0.6C99.2,197.2,99.8,196.8,100.2,196.7L100.2,196.7z
	 M35.4,197.2l1.7,2.2l-2,2.4l-1.6-2.4L35.4,197.2z M35.1,206.9c0,0-0.7,0.8-1.4,2.1c-2.1,3.6-2.2,6.2,0.3,7.7
	c1.1,0.5,2.5,0.4,3.3-0.3c2.9-2.5,0.7-5.9-1.1-8.2C35.7,207.5,35.1,206.9,35.1,206.9z M35.2,207.8c1.1,1.3,1.9,2.2,2.6,3.8
	c0.8,2.1,0.3,3.8-1.3,4.6c-2.5,1.2-4.8-1.5-3.6-4.5C33.8,209.4,35.2,207.8,35.2,207.8z M105.6,212c0.2,0.5-23.9,6-41.7,1.2L53,228.9
	l62.6-0.1L105.6,212z M104.7,213.1c0,0,5.8,10.1,8.7,15l-4,0l-5.7-12.2c-3.1,0.8-6.1,1.5-9.1,1.8l2,10.4l-3,0l-1.7-9.9
	c-4.4,0.3-8.9,0.5-13.4,0.3l-2,9.6l-3.2,0l2-9.5c-3.5-0.5-6.9-0.9-10.4-1.5l-5.9,11l-4.4,0l9.3-13.8
	C77.6,217.1,90.4,216.4,104.7,213.1z M102.5,218.5l4.5,9.6l-8.6,0l-1.6-8.5L102.5,218.5z M65.7,219.2l7.5,1l-1.9,7.9l-10.1,0
	L65.7,219.2z M90.2,220.4l1,7.7l-12.9,0l1.4-7.5L90.2,220.4z"/>
<path d="M48.2,26.5C40.9,37,33,43,32.9,51.2
	c0,2.7,1.4,7.2,5.9,8c2.9,0.6,6.9-1.8,7-6.6c0-1,1-0.9,1,0.4c-0.1,3.8-1.3,8.2-3.3,11.8c3.2,0,6.4,0,9.6,0c-2-3.6-3.2-8-3.3-11.8
	c0-1.3,1-1.3,1-0.4c0.1,4.8,4.1,7.1,7,6.6c4.5-0.9,5.9-5.4,5.9-8C63.4,43,55.5,37,48.2,26.5z"/>
<path d="M130.6,223c-7.3-10.5-15.2-16.5-15.3-24.7
	c0-2.7,1.4-7.2,5.9-8c2.9-0.6,6.9,1.8,7,6.6c0,1,1,0.9,1-0.4c-0.1-3.8-1.3-8.2-3.3-11.8c3.2,0,6.4,0,9.6,0c-2,3.6-3.2,8-3.3,11.8
	c0,1.3,1,1.3,1,0.4c0.1-4.8,4.1-7.1,7-6.6c4.5,0.9,5.9,5.4,5.9,8C145.9,206.5,138,212.5,130.6,223z"/>
</svg>
